  0
SECTION
  2
HEADER
  9
$ACADVER
  1
AC1032
  9
$ACADMAINTVER
 90
4
  9
$DWGCODEPAGE
  3
ANSI_1252
  9
$LASTSAVEDBY
  1
cipulot
  9
$REQUIREDVERSIONS
160
0
  9
$INSBASE
 10
0.0
 20
0.0
 30
0.0
  9
$EXTMIN
 10
1e+20
 20
1e+20
 30
1e+20
  9
$EXTMAX
 10
-1e+20
 20
-1e+20
 30
-1e+20
  9
$LIMMIN
 10
0.0
 20
0.0
  9
$LIMMAX
 10
12.0
 20
9.0
  9
$ORTHOMODE
 70
0
  9
$REGENMODE
 70
1
  9
$FILLMODE
 70
1
  9
$QTEXTMODE
 70
0
  9
$MIRRTEXT
 70
1
  9
$LTSCALE
 40
1.0
  9
$ATTMODE
 70
1
  9
$TEXTSIZE
 40
2.5
  9
$TRACEWID
 40
0.05
  9
$TEXTSTYLE
  7
Standard
  9
$CLAYER
  8
0
  9
$CELTYPE
  6
ByBlock
  9
$CECOLOR
 62
256
  9
$CELTSCALE
 40
1.0
  9
$DISPSILH
 70
0
  9
$DIMSCALE
 40
1.0
  9
$DIMASZ
 40
0.18
  9
$DIMEXO
 40
0.0625
  9
$DIMDLI
 40
0.38
  9
$DIMRND
 40
0.0
  9
$DIMDLE
 40
0.0
  9
$DIMEXE
 40
0.18
  9
$DIMTP
 40
0.0
  9
$DIMTM
 40
0.0
  9
$DIMTXT
 40
0.18
  9
$DIMCEN
 40
0.09
  9
$DIMTSZ
 40
0.0
  9
$DIMTOL
 70
0
  9
$DIMLIM
 70
0
  9
$DIMTIH
 70
1
  9
$DIMTOH
 70
1
  9
$DIMSE1
 70
0
  9
$DIMSE2
 70
0
  9
$DIMTAD
 70
0
  9
$DIMZIN
 70
0
  9
$DIMBLK
  1

  9
$DIMASO
 70
1
  9
$DIMSHO
 70
1
  9
$DIMPOST
  1

  9
$DIMAPOST
  1

  9
$DIMALT
 70
0
  9
$DIMALTD
 70
2
  9
$DIMALTF
 40
25.4
  9
$DIMLFAC
 40
1.0
  9
$DIMTOFL
 70
0
  9
$DIMTVP
 40
0.0
  9
$DIMTIX
 70
0
  9
$DIMSOXD
 70
0
  9
$DIMSAH
 70
0
  9
$DIMBLK1
  1

  9
$DIMBLK2
  1

  9
$DIMSTYLE
  2
Standard
  9
$DIMCLRD
 70
0
  9
$DIMCLRE
 70
0
  9
$DIMCLRT
 70
0
  9
$DIMTFAC
 40
1.0
  9
$DIMGAP
 40
0.09
  9
$DIMJUST
 70
0
  9
$DIMSD1
 70
0
  9
$DIMSD2
 70
0
  9
$DIMTOLJ
 70
1
  9
$DIMTZIN
 70
0
  9
$DIMALTZ
 70
0
  9
$DIMALTTZ
 70
0
  9
$DIMUPT
 70
0
  9
$DIMDEC
 70
4
  9
$DIMTDEC
 70
4
  9
$DIMALTU
 70
2
  9
$DIMALTTD
 70
2
  9
$DIMTXSTY
  7
Standard
  9
$DIMAUNIT
 70
0
  9
$DIMADEC
 70
0
  9
$DIMALTRND
 40
0.0
  9
$DIMAZIN
 70
0
  9
$DIMDSEP
 70
46
  9
$DIMATFIT
 70
3
  9
$DIMFRAC
 70
0
  9
$DIMLDRBLK
  1

  9
$DIMLUNIT
 70
2
  9
$DIMLWD
 70
-2
  9
$DIMLWE
 70
-2
  9
$DIMTMOVE
 70
2
  9
$DIMFXL
 40
1.0
  9
$DIMFXLON
 70
0
  9
$DIMJOGANG
 40
0.7853981633974483
  9
$DIMTFILL
 70
0
  9
$DIMTFILLCLR
 70
0
  9
$DIMARCSYM
 70
0
  9
$DIMLTYPE
  6

  9
$DIMLTEX1
  6

  9
$DIMLTEX2
  6

  9
$DIMTXTDIRECTION
 70
0
  9
$LUNITS
 70
2
  9
$LUPREC
 70
4
  9
$SKETCHINC
 40
0.1
  9
$FILLETRAD
 40
0.0
  9
$AUNITS
 70
0
  9
$AUPREC
 70
0
  9
$MENU
  1
.
  9
$ELEVATION
 40
0.0
  9
$PELEVATION
 40
0.0
  9
$THICKNESS
 40
0.0
  9
$LIMCHECK
 70
0
  9
$CHAMFERA
 40
0.0
  9
$CHAMFERB
 40
0.0
  9
$CHAMFERC
 40
0.0
  9
$CHAMFERD
 40
0.0
  9
$SKPOLY
 70
0
  9
$TDCREATE
 40
2461101.0715046297
  9
$TDUCREATE
 40
2461096.5559375
  9
$TDUPDATE
 40
2461101.0715046297
  9
$TDUUPDATE
 40
2461096.557491157
  9
$TDINDWG
 40
1.16e-08
  9
$TDUSRTIMER
 40
1.16e-08
  9
$USRTIMER
 70
1
  9
$ANGBASE
 50
0.0
  9
$ANGDIR
 70
1
  9
$PDMODE
 70
0
  9
$PDSIZE
 40
0.0
  9
$PLINEWID
 40
0.0
  9
$SPLFRAME
 70
0
  9
$SPLINETYPE
 70
6
  9
$SPLINESEGS
 70
8
  9
$HANDSEED
  5
30C
  9
$SURFTAB1
 70
6
  9
$SURFTAB2
 70
6
  9
$SURFTYPE
 70
6
  9
$SURFU
 70
6
  9
$SURFV
 70
6
  9
$UCSBASE
  2

  9
$UCSNAME
  2

  9
$UCSORG
 10
0.0
 20
0.0
 30
0.0
  9
$UCSXDIR
 10
1.0
 20
0.0
 30
0.0
  9
$UCSYDIR
 10
0.0
 20
1.0
 30
0.0
  9
$UCSORTHOREF
  2

  9
$UCSORTHOVIEW
 70
0
  9
$UCSORGTOP
 10
0.0
 20
0.0
 30
0.0
  9
$UCSORGBOTTOM
 10
0.0
 20
0.0
 30
0.0
  9
$UCSORGLEFT
 10
0.0
 20
0.0
 30
0.0
  9
$UCSORGRIGHT
 10
0.0
 20
0.0
 30
0.0
  9
$UCSORGFRONT
 10
0.0
 20
0.0
 30
0.0
  9
$UCSORGBACK
 10
0.0
 20
0.0
 30
0.0
  9
$PUCSBASE
  2

  9
$PUCSNAME
  2

  9
$PUCSORG
 10
0.0
 20
0.0
 30
0.0
  9
$PUCSXDIR
 10
1.0
 20
0.0
 30
0.0
  9
$PUCSYDIR
 10
0.0
 20
1.0
 30
0.0
  9
$PUCSORTHOREF
  2

  9
$PUCSORTHOVIEW
 70
0
  9
$PUCSORGTOP
 10
0.0
 20
0.0
 30
0.0
  9
$PUCSORGBOTTOM
 10
0.0
 20
0.0
 30
0.0
  9
$PUCSORGLEFT
 10
0.0
 20
0.0
 30
0.0
  9
$PUCSORGRIGHT
 10
0.0
 20
0.0
 30
0.0
  9
$PUCSORGFRONT
 10
0.0
 20
0.0
 30
0.0
  9
$PUCSORGBACK
 10
0.0
 20
0.0
 30
0.0
  9
$USERI1
 70
0
  9
$USERI2
 70
0
  9
$USERI3
 70
0
  9
$USERI4
 70
0
  9
$USERI5
 70
0
  9
$USERR1
 40
0.0
  9
$USERR2
 40
0.0
  9
$USERR3
 40
0.0
  9
$USERR4
 40
0.0
  9
$USERR5
 40
0.0
  9
$WORLDVIEW
 70
1
  9
$SHADEDGE
 70
3
  9
$SHADEDIF
 70
70
  9
$TILEMODE
 70
1
  9
$MAXACTVP
 70
64
  9
$PINSBASE
 10
0.0
 20
0.0
 30
0.0
  9
$PLIMCHECK
 70
0
  9
$PEXTMIN
 10
1e+20
 20
1e+20
 30
1e+20
  9
$PEXTMAX
 10
-1e+20
 20
-1e+20
 30
-1e+20
  9
$PLIMMIN
 10
0.0
 20
0.0
  9
$PLIMMAX
 10
420.0
 20
297.0
  9
$UNITMODE
 70
0
  9
$VISRETAIN
 70
1
  9
$PLINEGEN
 70
0
  9
$PSLTSCALE
 70
1
  9
$TREEDEPTH
 70
3020
  9
$CMLSTYLE
  2
Standard
  9
$CMLJUST
 70
0
  9
$CMLSCALE
 40
1.0
  9
$PROXYGRAPHICS
 70
1
  9
$MEASUREMENT
 70
0
  9
$CELWEIGHT
370
-1
  9
$ENDCAPS
280
0
  9
$JOINSTYLE
280
0
  9
$LWDISPLAY
290
0
  9
$INSUNITS
 70
 4
  9
$HYPERLINKBASE
  1

  9
$STYLESHEET
  1

  9
$XEDIT
290
1
  9
$CEPSNTYPE
380
0
  9
$PSTYLEMODE
290
1
  9
$FINGERPRINTGUID
  2
{e6f56c1f-fc56-8f4f-b2c8-0664c798bb3c}
  9
$VERSIONGUID
  2
{D2903C89-B724-45E7-BD7A-2252DD14A0E2}
  9
$EXTNAMES
290
1
  9
$PSVPSCALE
 40
0.0
  9
$OLESTARTUP
290
0
  9
$SORTENTS
280
127
  9
$INDEXCTL
280
0
  9
$HIDETEXT
280
1
  9
$XCLIPFRAME
280
2
  9
$HALOGAP
280
0
  9
$OBSCOLOR
 70
257
  9
$OBSLTYPE
280
0
  9
$INTERSECTIONDISPLAY
280
0
  9
$INTERSECTIONCOLOR
 70
257
  9
$DIMASSOC
280
2
  9
$PROJECTNAME
  1

  9
$CAMERADISPLAY
290
0
  9
$LENSLENGTH
 40
50.0
  9
$CAMERAHEIGHT
 40
0.0
  9
$STEPSPERSEC
 40
2.0
  9
$STEPSIZE
 40
6.0
  9
$3DDWFPREC
 40
2.0
  9
$PSOLWIDTH
 40
0.25
  9
$PSOLHEIGHT
 40
4.0
  9
$LOFTANG1
 40
1.570796326794897
  9
$LOFTANG2
 40
1.570796326794897
  9
$LOFTMAG1
 40
0.0
  9
$LOFTMAG2
 40
0.0
  9
$LOFTPARAM
 70
7
  9
$LOFTNORMALS
280
1
  9
$LATITUDE
 40
37.795
  9
$LONGITUDE
 40
-122.394
  9
$NORTHDIRECTION
 40
0.0
  9
$TIMEZONE
 70
-8000
  9
$LIGHTGLYPHDISPLAY
280
1
  9
$TILEMODELIGHTSYNCH
280
1
  9
$CMATERIAL
347
2A
  9
$SOLIDHIST
280
0
  9
$SHOWHIST
280
1
  9
$DWFFRAME
280
2
  9
$DGNFRAME
280
2
  9
$REALWORLDSCALE
290
1
  9
$INTERFERECOLOR
 62
256
  9
$CSHADOW
280
0
  9
$SHADOWPLANELOCATION
 40
0.0
  0
ENDSEC
  0
SECTION
  2
CLASSES
  0
CLASS
  1
ACDBDICTIONARYWDFLT
  2
AcDbDictionaryWithDefault
  3
ObjectDBX Classes
 90
0
 91
3
280
0
281
0
  0
CLASS
  1
MATERIAL
  2
AcDbMaterial
  3
ObjectDBX Classes
 90
1153
 91
3
280
0
281
0
  0
CLASS
  1
SCALE
  2
AcDbScale
  3
ObjectDBX Classes
 90
1153
 91
3
280
0
281
0
  0
CLASS
  1
VISUALSTYLE
  2
AcDbVisualStyle
  3
ObjectDBX Classes
 90
4095
 91
3
280
0
281
0
  0
CLASS
  1
TABLESTYLE
  2
AcDbTableStyle
  3
ObjectDBX Classes
 90
4095
 91
3
280
0
281
0
  0
CLASS
  1
MLEADERSTYLE
  2
AcDbMLeaderStyle
  3
ACDB_MLEADERSTYLE_CLASS
 90
4095
 91
3
280
0
281
0
  0
CLASS
  1
DICTIONARYVAR
  2
AcDbDictionaryVar
  3
ObjectDBX Classes
 90
0
 91
3
280
0
281
0
  0
CLASS
  1
CELLSTYLEMAP
  2
AcDbCellStyleMap
  3
ObjectDBX Classes
 90
1152
 91
3
280
0
281
0
  0
CLASS
  1
SUN
  2
AcDbSun
  3
SCENEOE
 90
1153
 91
0
280
0
281
0
  0
CLASS
  1
MENTALRAYRENDERSETTINGS
  2
AcDbMentalRayRenderSettings
  3
SCENEOE
 90
1024
 91
0
280
0
281
0
  0
CLASS
  1
ACDBDETAILVIEWSTYLE
  2
AcDbDetailViewStyle
  3
ObjectDBX Classes
 90
1025
 91
0
280
0
281
0
  0
CLASS
  1
ACDBSECTIONVIEWSTYLE
  2
AcDbSectionViewStyle
  3
ObjectDBX Classes
 90
1025
 91
0
280
0
281
0
  0
CLASS
  1
RASTERVARIABLES
  2
AcDbRasterVariables
  3
ISM
 90
0
 91
0
280
0
281
0
  0
CLASS
  1
LAYOUT
  2
AcDbLayout
  3
ObjectDBX Classes
 90
0
 91
0
280
0
281
0
  0
CLASS
  1
ACDBPLACEHOLDER
  2
AcDbPlaceHolder
  3
ObjectDBX Classes
 90
0
 91
0
280
0
281
0
  0
ENDSEC
  0
SECTION
  2
TABLES
  0
TABLE
  2
VPORT
  5
8
330
0
100
AcDbSymbolTable
 70
1
  0
VPORT
  5
20
330
8
100
AcDbSymbolTableRecord
100
AcDbViewportTableRecord
  2
*Active
 70
0
 10
0.0
 20
0.0
 11
1.0
 21
1.0
 12
0.0
 22
0.0
 13
0.0
 23
0.0
 14
0.5
 24
0.5
 15
0.5
 25
0.5
 16
0.0
 26
0.0
 36
1.0
 17
0.0
 27
0.0
 37
0.0
 40
1000.0
 41
1.34
 42
50.0
 43
0.0
 44
0.0
 50
0.0
 51
0.0
 71
0
 72
1000
 73
1
 74
3
 75
0
 76
0
 77
0
 78
0
281
0
 65
0
110
0.0
120
0.0
130
0.0
111
1.0
121
0.0
131
0.0
112
0.0
122
1.0
132
0.0
 79
0
146
0.0
 60
3
 61
5
348
236
292
1
282
1
141
0.0
142
0.0
 63
256
  0
ENDTAB
  0
TABLE
  2
LTYPE
  5
5
330
0
100
AcDbSymbolTable
 70
6
  0
LTYPE
  5
14
330
5
100
AcDbSymbolTableRecord
100
AcDbLinetypeTableRecord
  2
ByBlock
 70
0
  3

 72
65
 73
0
 40
0.0
  0
LTYPE
  5
15
330
5
100
AcDbSymbolTableRecord
100
AcDbLinetypeTableRecord
  2
ByLayer
 70
0
  3

 72
65
 73
0
 40
0.0
  0
LTYPE
  5
16
330
5
100
AcDbSymbolTableRecord
100
AcDbLinetypeTableRecord
  2
CONTINUOUS
 70
0
  3
Solid line
 72
65
 73
0
 40
0.0
  0
LTYPE
  5
22
330
5
100
AcDbSymbolTableRecord
100
AcDbLinetypeTableRecord
  2
DASHDOT
 70
0
  3
Dash Dot ____ _ ____ _
 72
65
 73
4
 40
2.0
 49
1.25
 74
0
 49
-0.25
 74
0
 49
0.25
 74
0
 49
-0.25
 74
0
  0
LTYPE
  5
23
330
5
100
AcDbSymbolTableRecord
100
AcDbLinetypeTableRecord
  2
DASHED
 70
0
  3
Dashed __ __ __ __ __
 72
65
 73
2
 40
0.75
 49
0.5
 74
0
 49
-0.25
 74
0
  0
LTYPE
  5
24
330
5
100
AcDbSymbolTableRecord
100
AcDbLinetypeTableRecord
  2
DOTTED
 70
0
  3
Dotted .  .  .  .
 72
65
 73
2
 40
0.2
 49
0.0
 74
0
 49
-0.2
 74
0
  0
ENDTAB
  0
TABLE
  2
LAYER
  5
2
330
0
100
AcDbSymbolTable
 70
4
  0
LAYER
  5
10
330
2
100
AcDbSymbolTableRecord
100
AcDbLayerTableRecord
  2
0
 70
0
 62
7
  6
CONTINUOUS
370
-3
390
F
347
2C
348
0
  0
LAYER
  5
27
330
2
100
AcDbSymbolTableRecord
100
AcDbLayerTableRecord
  2
BLACK
 70
0
 62
7
  6
CONTINUOUS
370
-3
390
F
347
2C
348
0
  0
LAYER
  5
2D
330
2
100
AcDbSymbolTableRecord
100
AcDbLayerTableRecord
  2
Defpoints
 70
0
 62
7
  6
CONTINUOUS
290
0
370
-3
390
F
347
2C
348
0
  0
LAYER
  5
29C
330
2
100
AcDbSymbolTableRecord
100
AcDbLayerTableRecord
  2
Edge.Cuts
 70
0
 62
53
  6
CONTINUOUS
370
-3
390
43
347
4B
  0
ENDTAB
  0
TABLE
  2
STYLE
  5
3
330
0
100
AcDbSymbolTable
 70
5
  0
STYLE
  5
11
330
3
100
AcDbSymbolTableRecord
100
AcDbTextStyleTableRecord
  2
Standard
 70
0
 40
0.0
 41
1.0
 50
0.0
 71
0
 42
2.5
  3
txt
  4

  0
STYLE
  5
2E
330
3
100
AcDbSymbolTableRecord
100
AcDbTextStyleTableRecord
  2
KICAD
 70
0
 40
0.0
 41
1.0
 50
0.0
 71
0
 42
1.0
  3
isocp.shx
  4

  0
STYLE
  5
2F
330
3
100
AcDbSymbolTableRecord
100
AcDbTextStyleTableRecord
  2
KICADB
 70
0
 40
0.0
 41
1.0
 50
0.0
 71
0
 42
1.0
  3
isocp.shx
  4

  0
STYLE
  5
30
330
3
100
AcDbSymbolTableRecord
100
AcDbTextStyleTableRecord
  2
KICADI
 70
0
 40
0.0
 41
1.0
 50
15.0
 71
0
 42
1.0
  3
isocp.shx
  4

  0
STYLE
  5
31
330
3
100
AcDbSymbolTableRecord
100
AcDbTextStyleTableRecord
  2
KICADBI
 70
0
 40
0.0
 41
1.0
 50
15.0
 71
0
 42
1.0
  3
isocp.shx
  4

  0
ENDTAB
  0
TABLE
  2
VIEW
  5
6
330
0
100
AcDbSymbolTable
 70
0
  0
ENDTAB
  0
TABLE
  2
UCS
  5
7
330
0
100
AcDbSymbolTable
 70
0
  0
ENDTAB
  0
TABLE
  2
APPID
  5
9
330
0
100
AcDbSymbolTable
 70
3
  0
APPID
  5
12
330
9
100
AcDbSymbolTableRecord
100
AcDbRegAppTableRecord
  2
ACAD
 70
0
  0
APPID
  5
34
330
9
100
AcDbSymbolTableRecord
100
AcDbRegAppTableRecord
  2
HATCHBACKGROUNDCOLOR
 70
0
  0
APPID
  5
35
330
9
100
AcDbSymbolTableRecord
100
AcDbRegAppTableRecord
  2
EZDXF
 70
0
  0
ENDTAB
  0
TABLE
  2
DIMSTYLE
  5
A
330
0
100
AcDbSymbolTable
 70
1
100
AcDbDimStyleTable
  0
DIMSTYLE
105
36
330
A
100
AcDbSymbolTableRecord
100
AcDbDimStyleTableRecord
  2
Standard
 70
0
 40
1.0
 41
2.5
 42
0.625
 43
3.75
 44
1.25
 45
0.0
 46
0.0
 47
0.0
 48
0.0
 49
2.5
140
2.5
141
2.5
142
0.0
143
0.03937007874
144
1.0
145
0.0
146
1.0
147
0.625
148
0.0
 69
0
 70
0
 71
0
 72
0
 73
0
 74
0
 75
0
 76
0
 77
1
 78
8
 79
3
170
0
171
3
172
1
173
0
174
0
175
0
176
0
177
0
178
0
179
2
271
2
272
2
273
2
274
3
275
0
276
0
277
2
278
44
279
0
280
0
281
0
282
0
283
0
284
8
285
0
286
0
288
0
289
3
290
0
340
11
371
-2
372
-2
  0
ENDTAB
  0
TABLE
  2
BLOCK_RECORD
  5
1
330
0
100
AcDbSymbolTable
 70
2
  0
BLOCK_RECORD
  5
1D
330
1
100
AcDbSymbolTableRecord
100
AcDbBlockTableRecord
  2
*Model_Space
340
1E
 70
0
280
1
281
0
  0
BLOCK_RECORD
  5
1B
330
1
100
AcDbSymbolTableRecord
100
AcDbBlockTableRecord
  2
*Paper_Space
340
1C
 70
0
280
1
281
0
  0
ENDTAB
  0
ENDSEC
  0
SECTION
  2
BLOCKS
  0
BLOCK
  5
37
330
1D
100
AcDbEntity
  8
0
100
AcDbBlockBegin
  2
*Model_Space
 70
0
 10
0.0
 20
0.0
 30
0.0
  3
*Model_Space
  1

1001
EZDXF
1000
WRITTEN_BY_EZDXF
1000
1.4.3 @ 2026-02-24T13:20:33.520596+00:00
  0
ENDBLK
  5
38
330
1D
100
AcDbEntity
  8
0
100
AcDbBlockEnd
  0
BLOCK
  5
39
330
1B
100
AcDbEntity
 67
1
  8
0
100
AcDbBlockBegin
  2
*Paper_Space
 70
0
 10
0.0
 20
0.0
 30
0.0
  3
*Paper_Space
  1

  0
ENDBLK
  5
3A
330
1B
100
AcDbEntity
 67
1
  8
0
100
AcDbBlockEnd
  0
ENDSEC
  0
SECTION
  2
ENTITIES
  0
LINE
  5
3B
330
1D
100
AcDbEntity
  8
BLACK
  6
Continuous
100
AcDbLine
 10
183.15
 20
4.975
 30
0.0
 11
183.15
 21
-4.975
 31
0.0
  0
LINE
  5
3C
330
1D
100
AcDbEntity
  8
BLACK
  6
Continuous
100
AcDbLine
 10
197.85
 20
4.975
 30
0.0
 11
197.85
 21
-4.975
 31
0.0
  0
LINE
  5
3D
330
1D
100
AcDbEntity
  8
BLACK
  6
Continuous
100
AcDbLine
 10
176.725
 20
-7.05
 30
0.0
 11
166.175
 21
-7.05
 31
0.0
  0
LINE
  5
3E
330
1D
100
AcDbEntity
  8
BLACK
  6
Continuous
100
AcDbLine
 10
176.725
 20
7.05
 30
0.0
 11
166.175
 21
7.05
 31
0.0
  0
LINE
  5
3F
330
1D
100
AcDbEntity
  8
BLACK
  6
Continuous
100
AcDbLine
 10
164.1
 20
4.975
 30
0.0
 11
164.1
 21
-4.975
 31
0.0
  0
LINE
  5
40
330
1D
100
AcDbEntity
  8
BLACK
  6
Continuous
100
AcDbLine
 10
178.8
 20
4.975
 30
0.0
 11
178.8
 21
-4.975
 31
0.0
  0
LINE
  5
41
330
1D
100
AcDbEntity
  8
BLACK
  6
Continuous
100
AcDbLine
 10
157.675
 20
-7.05
 30
0.0
 11
147.125
 21
-7.05
 31
0.0
  0
LINE
  5
42
330
1D
100
AcDbEntity
  8
BLACK
  6
Continuous
100
AcDbLine
 10
157.675
 20
7.05
 30
0.0
 11
147.125
 21
7.05
 31
0.0
  0
LINE
  5
43
330
1D
100
AcDbEntity
  8
BLACK
  6
Continuous
100
AcDbLine
 10
138.625
 20
-7.05
 30
0.0
 11
128.075
 21
-7.05
 31
0.0
  0
LINE
  5
44
330
1D
100
AcDbEntity
  8
BLACK
  6
Continuous
100
AcDbLine
 10
145.05
 20
4.975
 30
0.0
 11
145.05
 21
-4.975
 31
0.0
  0
LINE
  5
45
330
1D
100
AcDbEntity
  8
BLACK
  6
Continuous
100
AcDbLine
 10
159.75
 20
4.975
 30
0.0
 11
159.75
 21
-4.975
 31
0.0
  0
LINE
  5
46
330
1D
100
AcDbEntity
  8
BLACK
  6
Continuous
100
AcDbLine
 10
138.625
 20
7.05
 30
0.0
 11
128.075
 21
7.05
 31
0.0
  0
LINE
  5
47
330
1D
100
AcDbEntity
  8
BLACK
  6
Continuous
100
AcDbLine
 10
126.0
 20
4.975
 30
0.0
 11
126.0
 21
-4.975
 31
0.0
  0
LINE
  5
48
330
1D
100
AcDbEntity
  8
BLACK
  6
Continuous
100
AcDbLine
 10
121.65
 20
4.975
 30
0.0
 11
121.65
 21
-4.975
 31
0.0
  0
LINE
  5
49
330
1D
100
AcDbEntity
  8
BLACK
  6
Continuous
100
AcDbLine
 10
106.95
 20
4.975
 30
0.0
 11
106.95
 21
-4.975
 31
0.0
  0
LINE
  5
4A
330
1D
100
AcDbEntity
  8
BLACK
  6
Continuous
100
AcDbLine
 10
119.575
 20
7.05
 30
0.0
 11
109.025
 21
7.05
 31
0.0
  0
LINE
  5
4B
330
1D
100
AcDbEntity
  8
BLACK
  6
Continuous
100
AcDbLine
 10
81.475
 20
-7.05
 30
0.0
 11
70.925
 21
-7.05
 31
0.0
  0
LINE
  5
4C
330
1D
100
AcDbEntity
  8
BLACK
  6
Continuous
100
AcDbLine
 10
100.525
 20
7.05
 30
0.0
 11
89.975
 21
7.05
 31
0.0
  0
LINE
  5
4D
330
1D
100
AcDbEntity
  8
BLACK
  6
Continuous
100
AcDbLine
 10
100.525
 20
-7.05
 30
0.0
 11
89.975
 21
-7.05
 31
0.0
  0
LINE
  5
4E
330
1D
100
AcDbEntity
  8
BLACK
  6
Continuous
100
AcDbLine
 10
140.7
 20
4.975
 30
0.0
 11
140.7
 21
-4.975
 31
0.0
  0
LINE
  5
4F
330
1D
100
AcDbEntity
  8
BLACK
  6
Continuous
100
AcDbLine
 10
119.575
 20
-7.05
 30
0.0
 11
109.025
 21
-7.05
 31
0.0
  0
LINE
  5
50
330
1D
100
AcDbEntity
  8
BLACK
  6
Continuous
100
AcDbLine
 10
102.6
 20
4.975
 30
0.0
 11
102.6
 21
-4.975
 31
0.0
  0
LINE
  5
51
330
1D
100
AcDbEntity
  8
BLACK
  6
Continuous
100
AcDbLine
 10
87.89999999999999
 20
4.975
 30
0.0
 11
87.89999999999999
 21
-4.975
 31
0.0
  0
CIRCLE
  5
52
330
1D
100
AcDbEntity
  8
BLACK
100
AcDbCircle
 10
95.25
 20
-19.05
 30
0.0
 40
1.0
  0
LINE
  5
53
330
1D
100
AcDbEntity
  8
BLACK
  6
Continuous
100
AcDbLine
 10
83.55
 20
4.975
 30
0.0
 11
83.55
 21
-4.975
 31
0.0
  0
LINE
  5
54
330
1D
100
AcDbEntity
  8
BLACK
  6
Continuous
100
AcDbLine
 10
62.425
 20
-7.05
 30
0.0
 11
51.875
 21
-7.05
 31
0.0
  0
LINE
  5
55
330
1D
100
AcDbEntity
  8
BLACK
  6
Continuous
100
AcDbLine
 10
62.425
 20
7.05
 30
0.0
 11
51.875
 21
7.05
 31
0.0
  0
LINE
  5
56
330
1D
100
AcDbEntity
  8
BLACK
  6
Continuous
100
AcDbLine
 10
49.8
 20
4.975
 30
0.0
 11
49.8
 21
-4.975
 31
0.0
  0
LINE
  5
57
330
1D
100
AcDbEntity
  8
BLACK
  6
Continuous
100
AcDbLine
 10
30.75
 20
4.975
 30
0.0
 11
30.75
 21
-4.975
 31
0.0
  0
LINE
  5
58
330
1D
100
AcDbEntity
  8
BLACK
  6
Continuous
100
AcDbLine
 10
43.375
 20
-7.05
 30
0.0
 11
32.825
 21
-7.05
 31
0.0
  0
LINE
  5
59
330
1D
100
AcDbEntity
  8
BLACK
  6
Continuous
100
AcDbLine
 10
45.45
 20
4.975
 30
0.0
 11
45.45
 21
-4.975
 31
0.0
  0
LINE
  5
5A
330
1D
100
AcDbEntity
  8
BLACK
  6
Continuous
100
AcDbLine
 10
7.35
 20
4.975
 30
0.0
 11
7.35
 21
-4.975
 31
0.0
  0
LINE
  5
5B
330
1D
100
AcDbEntity
  8
BLACK
  6
Continuous
100
AcDbLine
 10
24.325
 20
-7.05
 30
0.0
 11
13.775
 21
-7.05
 31
0.0
  0
LINE
  5
5C
330
1D
100
AcDbEntity
  8
BLACK
  6
Continuous
100
AcDbLine
 10
43.375
 20
7.05
 30
0.0
 11
32.825
 21
7.05
 31
0.0
  0
LINE
  5
5D
330
1D
100
AcDbEntity
  8
BLACK
  6
Continuous
100
AcDbLine
 10
-7.35
 20
4.975001
 30
0.0
 11
-7.35
 21
-4.975001
 31
0.0
  0
LINE
  5
5E
330
1D
100
AcDbEntity
  8
BLACK
  6
Continuous
100
AcDbLine
 10
24.325
 20
7.05
 30
0.0
 11
13.775
 21
7.05
 31
0.0
  0
LINE
  5
5F
330
1D
100
AcDbEntity
  8
BLACK
  6
Continuous
100
AcDbLine
 10
64.5
 20
4.975
 30
0.0
 11
64.5
 21
-4.975
 31
0.0
  0
LINE
  5
60
330
1D
100
AcDbEntity
  8
BLACK
  6
Continuous
100
AcDbLine
 10
5.274999999999999
 20
7.05
 30
0.0
 11
-5.275001
 21
7.05
 31
0.0
  0
LINE
  5
61
330
1D
100
AcDbEntity
  8
BLACK
  6
Continuous
100
AcDbLine
 10
68.85
 20
4.975
 30
0.0
 11
68.85
 21
-4.975
 31
0.0
  0
LINE
  5
62
330
1D
100
AcDbEntity
  8
BLACK
  6
Continuous
100
AcDbLine
 10
81.475
 20
7.05
 30
0.0
 11
70.925
 21
7.05
 31
0.0
  0
LINE
  5
63
330
1D
100
AcDbEntity
  8
BLACK
  6
Continuous
100
AcDbLine
 10
5.274999999999999
 20
-7.05
 30
0.0
 11
-5.274999999999999
 21
-7.05
 31
0.0
  0
LINE
  5
64
330
1D
100
AcDbEntity
  8
BLACK
  6
Continuous
100
AcDbLine
 10
26.4
 20
4.975
 30
0.0
 11
26.4
 21
-4.975
 31
0.0
  0
LINE
  5
65
330
1D
100
AcDbEntity
  8
BLACK
  6
Continuous
100
AcDbLine
 10
12.1125
 20
-14.075
 30
0.0
 11
12.112501
 21
-14.075
 31
0.0
  0
LINE
  5
66
330
1D
100
AcDbEntity
  8
BLACK
  6
Continuous
100
AcDbLine
 10
11.7
 20
4.975
 30
0.0
 11
11.7
 21
-4.975
 31
0.0
  0
CIRCLE
  5
67
330
1D
100
AcDbEntity
  8
BLACK
100
AcDbCircle
 10
16.04875
 20
-18.7
 30
0.0
 40
1.0
  0
CIRCLE
  5
68
330
1D
100
AcDbEntity
  8
BLACK
100
AcDbCircle
 10
119.0625
 20
-38.1
 30
0.0
 40
1.0
  0
CIRCLE
  5
69
330
1D
100
AcDbEntity
  8
BLACK
100
AcDbCircle
 10
42.8625
 20
-38.1
 30
0.0
 40
1.0
  0
CIRCLE
  5
6A
330
1D
100
AcDbEntity
  8
BLACK
100
AcDbCircle
 10
250.9012
 20
-18.7
 30
0.0
 40
1.0
  0
CIRCLE
  5
6B
330
1D
100
AcDbEntity
  8
BLACK
100
AcDbCircle
 10
66.675
 20
0.0
 30
0.0
 40
1.0
  0
LINE
  5
6C
330
1D
100
AcDbEntity
  8
BLACK
  6
Continuous
100
AcDbLine
 10
195.775
 20
7.05
 30
0.0
 11
185.225
 21
7.05
 31
0.0
  0
CIRCLE
  5
6D
330
1D
100
AcDbEntity
  8
BLACK
100
AcDbCircle
 10
171.45
 20
-19.05
 30
0.0
 40
1.0
  0
CIRCLE
  5
6E
330
1D
100
AcDbEntity
  8
BLACK
100
AcDbCircle
 10
142.875
 20
0.0
 30
0.0
 40
1.0
  0
CIRCLE
  5
6F
330
1D
100
AcDbEntity
  8
BLACK
100
AcDbCircle
 10
90.4875
 20
-57.15
 30
0.0
 40
1.0
  0
LINE
  5
70
330
1D
100
AcDbEntity
  8
BLACK
  6
Continuous
100
AcDbLine
 10
219.5875
 20
-64.2
 30
0.0
 11
209.0375
 21
-64.2
 31
0.0
  0
LINE
  5
71
330
1D
100
AcDbEntity
  8
BLACK
  6
Continuous
100
AcDbLine
 10
219.5875
 20
-50.09999999999999
 30
0.0
 11
209.0375
 21
-50.09999999999999
 31
0.0
  0
LINE
  5
72
330
1D
100
AcDbEntity
  8
BLACK
  6
Continuous
100
AcDbLine
 10
206.9625
 20
-52.175
 30
0.0
 11
206.9625
 21
-62.125
 31
0.0
  0
LINE
  5
73
330
1D
100
AcDbEntity
  8
BLACK
  6
Continuous
100
AcDbLine
 10
221.6625
 20
-52.175
 30
0.0
 11
221.6625
 21
-62.125
 31
0.0
  0
LINE
  5
74
330
1D
100
AcDbEntity
  8
BLACK
  6
Continuous
100
AcDbLine
 10
200.5375
 20
-64.2
 30
0.0
 11
189.9875
 21
-64.2
 31
0.0
  0
LINE
  5
75
330
1D
100
AcDbEntity
  8
BLACK
  6
Continuous
100
AcDbLine
 10
200.5375
 20
-50.09999999999999
 30
0.0
 11
189.9875
 21
-50.09999999999999
 31
0.0
  0
LINE
  5
76
330
1D
100
AcDbEntity
  8
BLACK
  6
Continuous
100
AcDbLine
 10
187.9125
 20
-52.175
 30
0.0
 11
187.9125
 21
-62.125
 31
0.0
  0
LINE
  5
77
330
1D
100
AcDbEntity
  8
BLACK
  6
Continuous
100
AcDbLine
 10
202.6125
 20
-52.175
 30
0.0
 11
202.6125
 21
-62.125
 31
0.0
  0
LINE
  5
78
330
1D
100
AcDbEntity
  8
BLACK
  6
Continuous
100
AcDbLine
 10
181.4875
 20
-64.2
 30
0.0
 11
170.9375
 21
-64.2
 31
0.0
  0
LINE
  5
79
330
1D
100
AcDbEntity
  8
BLACK
  6
Continuous
100
AcDbLine
 10
181.4875
 20
-50.09999999999999
 30
0.0
 11
170.9375
 21
-50.09999999999999
 31
0.0
  0
LINE
  5
7A
330
1D
100
AcDbEntity
  8
BLACK
  6
Continuous
100
AcDbLine
 10
168.8625
 20
-52.175
 30
0.0
 11
168.8625
 21
-62.125
 31
0.0
  0
LINE
  5
7B
330
1D
100
AcDbEntity
  8
BLACK
  6
Continuous
100
AcDbLine
 10
183.5625
 20
-52.175
 30
0.0
 11
183.5625
 21
-62.125
 31
0.0
  0
LINE
  5
7C
330
1D
100
AcDbEntity
  8
BLACK
  6
Continuous
100
AcDbLine
 10
162.4375
 20
-64.2
 30
0.0
 11
151.8875
 21
-64.2
 31
0.0
  0
LINE
  5
7D
330
1D
100
AcDbEntity
  8
BLACK
  6
Continuous
100
AcDbLine
 10
162.4375
 20
-50.09999999999999
 30
0.0
 11
151.8875
 21
-50.09999999999999
 31
0.0
  0
LINE
  5
7E
330
1D
100
AcDbEntity
  8
BLACK
  6
Continuous
100
AcDbLine
 10
149.8125
 20
-52.175
 30
0.0
 11
149.8125
 21
-62.125
 31
0.0
  0
LINE
  5
7F
330
1D
100
AcDbEntity
  8
BLACK
  6
Continuous
100
AcDbLine
 10
164.5125
 20
-52.175
 30
0.0
 11
164.5125
 21
-62.125
 31
0.0
  0
LINE
  5
80
330
1D
100
AcDbEntity
  8
BLACK
  6
Continuous
100
AcDbLine
 10
143.3875
 20
-64.2
 30
0.0
 11
132.8375
 21
-64.2
 31
0.0
  0
LINE
  5
81
330
1D
100
AcDbEntity
  8
BLACK
  6
Continuous
100
AcDbLine
 10
143.3875
 20
-50.09999999999999
 30
0.0
 11
132.8375
 21
-50.09999999999999
 31
0.0
  0
LINE
  5
82
330
1D
100
AcDbEntity
  8
BLACK
  6
Continuous
100
AcDbLine
 10
130.7625
 20
-52.175
 30
0.0
 11
130.7625
 21
-62.125
 31
0.0
  0
LINE
  5
83
330
1D
100
AcDbEntity
  8
BLACK
  6
Continuous
100
AcDbLine
 10
145.4625
 20
-52.175
 30
0.0
 11
145.4625
 21
-62.125
 31
0.0
  0
LINE
  5
84
330
1D
100
AcDbEntity
  8
BLACK
  6
Continuous
100
AcDbLine
 10
124.3375
 20
-64.2
 30
0.0
 11
113.7875
 21
-64.2
 31
0.0
  0
LINE
  5
85
330
1D
100
AcDbEntity
  8
BLACK
  6
Continuous
100
AcDbLine
 10
124.3375
 20
-50.09999999999999
 30
0.0
 11
113.7875
 21
-50.09999999999999
 31
0.0
  0
LINE
  5
86
330
1D
100
AcDbEntity
  8
BLACK
  6
Continuous
100
AcDbLine
 10
111.7125
 20
-52.175
 30
0.0
 11
111.7125
 21
-62.125
 31
0.0
  0
LINE
  5
87
330
1D
100
AcDbEntity
  8
BLACK
  6
Continuous
100
AcDbLine
 10
126.4125
 20
-52.175
 30
0.0
 11
126.4125
 21
-62.125
 31
0.0
  0
LINE
  5
88
330
1D
100
AcDbEntity
  8
BLACK
  6
Continuous
100
AcDbLine
 10
105.2875
 20
-64.2
 30
0.0
 11
94.7375
 21
-64.2
 31
0.0
  0
LINE
  5
89
330
1D
100
AcDbEntity
  8
BLACK
  6
Continuous
100
AcDbLine
 10
105.2875
 20
-50.09999999999999
 30
0.0
 11
94.7375
 21
-50.09999999999999
 31
0.0
  0
LINE
  5
8A
330
1D
100
AcDbEntity
  8
BLACK
  6
Continuous
100
AcDbLine
 10
92.6625
 20
-52.175
 30
0.0
 11
92.6625
 21
-62.125
 31
0.0
  0
LINE
  5
8B
330
1D
100
AcDbEntity
  8
BLACK
  6
Continuous
100
AcDbLine
 10
107.3625
 20
-52.175
 30
0.0
 11
107.3625
 21
-62.125
 31
0.0
  0
LINE
  5
8C
330
1D
100
AcDbEntity
  8
BLACK
  6
Continuous
100
AcDbLine
 10
86.2375
 20
-64.2
 30
0.0
 11
75.6875
 21
-64.2
 31
0.0
  0
LINE
  5
8D
330
1D
100
AcDbEntity
  8
BLACK
  6
Continuous
100
AcDbLine
 10
86.2375
 20
-50.09999999999999
 30
0.0
 11
75.6875
 21
-50.09999999999999
 31
0.0
  0
LINE
  5
8E
330
1D
100
AcDbEntity
  8
BLACK
  6
Continuous
100
AcDbLine
 10
73.6125
 20
-52.175
 30
0.0
 11
73.6125
 21
-62.125
 31
0.0
  0
LINE
  5
8F
330
1D
100
AcDbEntity
  8
BLACK
  6
Continuous
100
AcDbLine
 10
88.3125
 20
-52.175
 30
0.0
 11
88.3125
 21
-62.125
 31
0.0
  0
LINE
  5
90
330
1D
100
AcDbEntity
  8
BLACK
  6
Continuous
100
AcDbLine
 10
67.1875
 20
-64.2
 30
0.0
 11
56.6375
 21
-64.2
 31
0.0
  0
LINE
  5
91
330
1D
100
AcDbEntity
  8
BLACK
  6
Continuous
100
AcDbLine
 10
67.1875
 20
-50.09999999999999
 30
0.0
 11
56.6375
 21
-50.09999999999999
 31
0.0
  0
LINE
  5
92
330
1D
100
AcDbEntity
  8
BLACK
  6
Continuous
100
AcDbLine
 10
54.5625
 20
-52.175
 30
0.0
 11
54.5625
 21
-62.125
 31
0.0
  0
LINE
  5
93
330
1D
100
AcDbEntity
  8
BLACK
  6
Continuous
100
AcDbLine
 10
69.2625
 20
-52.175
 30
0.0
 11
69.2625
 21
-62.125
 31
0.0
  0
LINE
  5
94
330
1D
100
AcDbEntity
  8
BLACK
  6
Continuous
100
AcDbLine
 10
48.1375
 20
-64.2
 30
0.0
 11
37.5875
 21
-64.2
 31
0.0
  0
LINE
  5
95
330
1D
100
AcDbEntity
  8
BLACK
  6
Continuous
100
AcDbLine
 10
48.1375
 20
-50.09999999999999
 30
0.0
 11
37.5875
 21
-50.09999999999999
 31
0.0
  0
LINE
  5
96
330
1D
100
AcDbEntity
  8
BLACK
  6
Continuous
100
AcDbLine
 10
35.5125
 20
-52.175
 30
0.0
 11
35.5125
 21
-62.125
 31
0.0
  0
LINE
  5
97
330
1D
100
AcDbEntity
  8
BLACK
  6
Continuous
100
AcDbLine
 10
50.2125
 20
-52.175
 30
0.0
 11
50.2125
 21
-62.125
 31
0.0
  0
LINE
  5
98
330
1D
100
AcDbEntity
  8
BLACK
  6
Continuous
100
AcDbLine
 10
38.6125
 20
-45.15
 30
0.0
 11
28.0625
 21
-45.15
 31
0.0
  0
LINE
  5
99
330
1D
100
AcDbEntity
  8
BLACK
  6
Continuous
100
AcDbLine
 10
38.6125
 20
-31.05
 30
0.0
 11
28.0625
 21
-31.05
 31
0.0
  0
LINE
  5
9A
330
1D
100
AcDbEntity
  8
BLACK
  6
Continuous
100
AcDbLine
 10
25.9875
 20
-33.125
 30
0.0
 11
25.9875
 21
-43.075
 31
0.0
  0
LINE
  5
9B
330
1D
100
AcDbEntity
  8
BLACK
  6
Continuous
100
AcDbLine
 10
40.6875
 20
-33.125
 30
0.0
 11
40.6875
 21
-43.075
 31
0.0
  0
LINE
  5
9C
330
1D
100
AcDbEntity
  8
BLACK
  6
Continuous
100
AcDbLine
 10
57.66249999999999
 20
-45.15
 30
0.0
 11
47.1125
 21
-45.15
 31
0.0
  0
LINE
  5
9D
330
1D
100
AcDbEntity
  8
BLACK
  6
Continuous
100
AcDbLine
 10
57.66249999999999
 20
-31.05
 30
0.0
 11
47.1125
 21
-31.05
 31
0.0
  0
LINE
  5
9E
330
1D
100
AcDbEntity
  8
BLACK
  6
Continuous
100
AcDbLine
 10
45.0375
 20
-33.125
 30
0.0
 11
45.0375
 21
-43.075
 31
0.0
  0
LINE
  5
9F
330
1D
100
AcDbEntity
  8
BLACK
  6
Continuous
100
AcDbLine
 10
59.7375
 20
-33.125
 30
0.0
 11
59.7375
 21
-43.075
 31
0.0
  0
LINE
  5
A0
330
1D
100
AcDbEntity
  8
BLACK
  6
Continuous
100
AcDbLine
 10
76.71249999999999
 20
-45.15
 30
0.0
 11
66.1625
 21
-45.15
 31
0.0
  0
LINE
  5
A1
330
1D
100
AcDbEntity
  8
BLACK
  6
Continuous
100
AcDbLine
 10
76.71249999999999
 20
-31.05
 30
0.0
 11
66.1625
 21
-31.05
 31
0.0
  0
LINE
  5
A2
330
1D
100
AcDbEntity
  8
BLACK
  6
Continuous
100
AcDbLine
 10
64.08749999999999
 20
-33.125
 30
0.0
 11
64.08749999999999
 21
-43.075
 31
0.0
  0
LINE
  5
A3
330
1D
100
AcDbEntity
  8
BLACK
  6
Continuous
100
AcDbLine
 10
78.7875
 20
-33.125
 30
0.0
 11
78.7875
 21
-43.075
 31
0.0
  0
LINE
  5
A4
330
1D
100
AcDbEntity
  8
BLACK
  6
Continuous
100
AcDbLine
 10
95.76249999999999
 20
-45.15
 30
0.0
 11
85.21249999999999
 21
-45.15
 31
0.0
  0
LINE
  5
A5
330
1D
100
AcDbEntity
  8
BLACK
  6
Continuous
100
AcDbLine
 10
95.76249999999999
 20
-31.05
 30
0.0
 11
85.21249999999999
 21
-31.05
 31
0.0
  0
LINE
  5
A6
330
1D
100
AcDbEntity
  8
BLACK
  6
Continuous
100
AcDbLine
 10
83.1375
 20
-33.125
 30
0.0
 11
83.1375
 21
-43.075
 31
0.0
  0
LINE
  5
A7
330
1D
100
AcDbEntity
  8
BLACK
  6
Continuous
100
AcDbLine
 10
97.83749999999999
 20
-33.125
 30
0.0
 11
97.83749999999999
 21
-43.075
 31
0.0
  0
LINE
  5
A8
330
1D
100
AcDbEntity
  8
BLACK
  6
Continuous
100
AcDbLine
 10
114.8125
 20
-45.15
 30
0.0
 11
104.2625
 21
-45.15
 31
0.0
  0
LINE
  5
A9
330
1D
100
AcDbEntity
  8
BLACK
  6
Continuous
100
AcDbLine
 10
114.8125
 20
-31.05
 30
0.0
 11
104.2625
 21
-31.05
 31
0.0
  0
LINE
  5
AA
330
1D
100
AcDbEntity
  8
BLACK
  6
Continuous
100
AcDbLine
 10
102.1875
 20
-33.125
 30
0.0
 11
102.1875
 21
-43.075
 31
0.0
  0
LINE
  5
AB
330
1D
100
AcDbEntity
  8
BLACK
  6
Continuous
100
AcDbLine
 10
116.8875
 20
-33.125
 30
0.0
 11
116.8875
 21
-43.075
 31
0.0
  0
LINE
  5
AC
330
1D
100
AcDbEntity
  8
BLACK
  6
Continuous
100
AcDbLine
 10
133.8625
 20
-45.15
 30
0.0
 11
123.3125
 21
-45.15
 31
0.0
  0
LINE
  5
AD
330
1D
100
AcDbEntity
  8
BLACK
  6
Continuous
100
AcDbLine
 10
133.8625
 20
-31.05
 30
0.0
 11
123.3125
 21
-31.05
 31
0.0
  0
LINE
  5
AE
330
1D
100
AcDbEntity
  8
BLACK
  6
Continuous
100
AcDbLine
 10
121.2375
 20
-33.125
 30
0.0
 11
121.2375
 21
-43.075
 31
0.0
  0
LINE
  5
AF
330
1D
100
AcDbEntity
  8
BLACK
  6
Continuous
100
AcDbLine
 10
135.9375
 20
-33.125
 30
0.0
 11
135.9375
 21
-43.075
 31
0.0
  0
LINE
  5
B0
330
1D
100
AcDbEntity
  8
BLACK
  6
Continuous
100
AcDbLine
 10
152.9125
 20
-45.15
 30
0.0
 11
142.3625
 21
-45.15
 31
0.0
  0
LINE
  5
B1
330
1D
100
AcDbEntity
  8
BLACK
  6
Continuous
100
AcDbLine
 10
152.9125
 20
-31.05
 30
0.0
 11
142.3625
 21
-31.05
 31
0.0
  0
LINE
  5
B2
330
1D
100
AcDbEntity
  8
BLACK
  6
Continuous
100
AcDbLine
 10
140.2875
 20
-33.125
 30
0.0
 11
140.2875
 21
-43.075
 31
0.0
  0
LINE
  5
B3
330
1D
100
AcDbEntity
  8
BLACK
  6
Continuous
100
AcDbLine
 10
154.9875
 20
-33.125
 30
0.0
 11
154.9875
 21
-43.075
 31
0.0
  0
LINE
  5
B4
330
1D
100
AcDbEntity
  8
BLACK
  6
Continuous
100
AcDbLine
 10
171.9625
 20
-45.15
 30
0.0
 11
161.4125
 21
-45.15
 31
0.0
  0
LINE
  5
B5
330
1D
100
AcDbEntity
  8
BLACK
  6
Continuous
100
AcDbLine
 10
171.9625
 20
-31.05
 30
0.0
 11
161.4125
 21
-31.05
 31
0.0
  0
LINE
  5
B6
330
1D
100
AcDbEntity
  8
BLACK
  6
Continuous
100
AcDbLine
 10
159.3375
 20
-33.125
 30
0.0
 11
159.3375
 21
-43.075
 31
0.0
  0
LINE
  5
B7
330
1D
100
AcDbEntity
  8
BLACK
  6
Continuous
100
AcDbLine
 10
174.0375
 20
-33.125
 30
0.0
 11
174.0375
 21
-43.075
 31
0.0
  0
LINE
  5
B8
330
1D
100
AcDbEntity
  8
BLACK
  6
Continuous
100
AcDbLine
 10
191.0125
 20
-45.15
 30
0.0
 11
180.4625
 21
-45.15
 31
0.0
  0
LINE
  5
B9
330
1D
100
AcDbEntity
  8
BLACK
  6
Continuous
100
AcDbLine
 10
191.0125
 20
-31.05
 30
0.0
 11
180.4625
 21
-31.05
 31
0.0
  0
LINE
  5
BA
330
1D
100
AcDbEntity
  8
BLACK
  6
Continuous
100
AcDbLine
 10
178.3875
 20
-33.125
 30
0.0
 11
178.3875
 21
-43.075
 31
0.0
  0
LINE
  5
BB
330
1D
100
AcDbEntity
  8
BLACK
  6
Continuous
100
AcDbLine
 10
193.0875
 20
-33.125
 30
0.0
 11
193.0875
 21
-43.075
 31
0.0
  0
LINE
  5
BC
330
1D
100
AcDbEntity
  8
BLACK
  6
Continuous
100
AcDbLine
 10
210.0625
 20
-45.15
 30
0.0
 11
199.5125
 21
-45.15
 31
0.0
  0
LINE
  5
BD
330
1D
100
AcDbEntity
  8
BLACK
  6
Continuous
100
AcDbLine
 10
210.0625
 20
-31.05
 30
0.0
 11
199.5125
 21
-31.05
 31
0.0
  0
LINE
  5
BE
330
1D
100
AcDbEntity
  8
BLACK
  6
Continuous
100
AcDbLine
 10
197.4375
 20
-33.125
 30
0.0
 11
197.4375
 21
-43.075
 31
0.0
  0
LINE
  5
BF
330
1D
100
AcDbEntity
  8
BLACK
  6
Continuous
100
AcDbLine
 10
212.1375
 20
-33.125
 30
0.0
 11
212.1375
 21
-43.075
 31
0.0
  0
LINE
  5
C0
330
1D
100
AcDbEntity
  8
BLACK
  6
Continuous
100
AcDbLine
 10
229.1125
 20
-45.15
 30
0.0
 11
218.5625
 21
-45.15
 31
0.0
  0
LINE
  5
C1
330
1D
100
AcDbEntity
  8
BLACK
  6
Continuous
100
AcDbLine
 10
229.1125
 20
-31.05
 30
0.0
 11
218.5625
 21
-31.05
 31
0.0
  0
LINE
  5
C2
330
1D
100
AcDbEntity
  8
BLACK
  6
Continuous
100
AcDbLine
 10
216.4875
 20
-33.125
 30
0.0
 11
216.4875
 21
-43.075
 31
0.0
  0
LINE
  5
C3
330
1D
100
AcDbEntity
  8
BLACK
  6
Continuous
100
AcDbLine
 10
231.1875
 20
-33.125
 30
0.0
 11
231.1875
 21
-43.075
 31
0.0
  0
LINE
  5
C4
330
1D
100
AcDbEntity
  8
BLACK
  6
Continuous
100
AcDbLine
 10
243.4
 20
-26.1
 30
0.0
 11
232.85
 21
-26.1
 31
0.0
  0
LINE
  5
C5
330
1D
100
AcDbEntity
  8
BLACK
  6
Continuous
100
AcDbLine
 10
243.4
 20
-12.0
 30
0.0
 11
232.85
 21
-12.0
 31
0.0
  0
LINE
  5
C6
330
1D
100
AcDbEntity
  8
BLACK
  6
Continuous
100
AcDbLine
 10
230.775
 20
-14.075
 30
0.0
 11
230.775
 21
-24.025
 31
0.0
  0
LINE
  5
C7
330
1D
100
AcDbEntity
  8
BLACK
  6
Continuous
100
AcDbLine
 10
245.475
 20
-14.075
 30
0.0
 11
245.475
 21
-24.025
 31
0.0
  0
LINE
  5
C8
330
1D
100
AcDbEntity
  8
BLACK
  6
Continuous
100
AcDbLine
 10
224.35
 20
-26.1
 30
0.0
 11
213.8
 21
-26.1
 31
0.0
  0
LINE
  5
C9
330
1D
100
AcDbEntity
  8
BLACK
  6
Continuous
100
AcDbLine
 10
224.35
 20
-12.0
 30
0.0
 11
213.8
 21
-12.0
 31
0.0
  0
LINE
  5
CA
330
1D
100
AcDbEntity
  8
BLACK
  6
Continuous
100
AcDbLine
 10
211.725
 20
-14.075
 30
0.0
 11
211.725
 21
-24.025
 31
0.0
  0
LINE
  5
CB
330
1D
100
AcDbEntity
  8
BLACK
  6
Continuous
100
AcDbLine
 10
226.425
 20
-14.075
 30
0.0
 11
226.425
 21
-24.025
 31
0.0
  0
LINE
  5
CC
330
1D
100
AcDbEntity
  8
BLACK
  6
Continuous
100
AcDbLine
 10
205.3
 20
-26.1
 30
0.0
 11
194.75
 21
-26.1
 31
0.0
  0
LINE
  5
CD
330
1D
100
AcDbEntity
  8
BLACK
  6
Continuous
100
AcDbLine
 10
205.3
 20
-12.0
 30
0.0
 11
194.75
 21
-12.0
 31
0.0
  0
LINE
  5
CE
330
1D
100
AcDbEntity
  8
BLACK
  6
Continuous
100
AcDbLine
 10
192.675
 20
-14.075
 30
0.0
 11
192.675
 21
-24.025
 31
0.0
  0
LINE
  5
CF
330
1D
100
AcDbEntity
  8
BLACK
  6
Continuous
100
AcDbLine
 10
207.375
 20
-14.075
 30
0.0
 11
207.375
 21
-24.025
 31
0.0
  0
LINE
  5
D0
330
1D
100
AcDbEntity
  8
BLACK
  6
Continuous
100
AcDbLine
 10
186.25
 20
-26.1
 30
0.0
 11
175.7
 21
-26.1
 31
0.0
  0
LINE
  5
D1
330
1D
100
AcDbEntity
  8
BLACK
  6
Continuous
100
AcDbLine
 10
186.25
 20
-12.0
 30
0.0
 11
175.7
 21
-12.0
 31
0.0
  0
LINE
  5
D2
330
1D
100
AcDbEntity
  8
BLACK
  6
Continuous
100
AcDbLine
 10
173.625
 20
-14.075
 30
0.0
 11
173.625
 21
-24.025
 31
0.0
  0
LINE
  5
D3
330
1D
100
AcDbEntity
  8
BLACK
  6
Continuous
100
AcDbLine
 10
188.325
 20
-14.075
 30
0.0
 11
188.325
 21
-24.025
 31
0.0
  0
LINE
  5
D4
330
1D
100
AcDbEntity
  8
BLACK
  6
Continuous
100
AcDbLine
 10
167.2
 20
-26.1
 30
0.0
 11
156.65
 21
-26.1
 31
0.0
  0
LINE
  5
D5
330
1D
100
AcDbEntity
  8
BLACK
  6
Continuous
100
AcDbLine
 10
167.2
 20
-12.0
 30
0.0
 11
156.65
 21
-12.0
 31
0.0
  0
LINE
  5
D6
330
1D
100
AcDbEntity
  8
BLACK
  6
Continuous
100
AcDbLine
 10
154.575
 20
-14.075
 30
0.0
 11
154.575
 21
-24.025
 31
0.0
  0
LINE
  5
D7
330
1D
100
AcDbEntity
  8
BLACK
  6
Continuous
100
AcDbLine
 10
169.275
 20
-14.075
 30
0.0
 11
169.275
 21
-24.025
 31
0.0
  0
LINE
  5
D8
330
1D
100
AcDbEntity
  8
BLACK
  6
Continuous
100
AcDbLine
 10
148.15
 20
-26.1
 30
0.0
 11
137.6
 21
-26.1
 31
0.0
  0
LINE
  5
D9
330
1D
100
AcDbEntity
  8
BLACK
  6
Continuous
100
AcDbLine
 10
148.15
 20
-12.0
 30
0.0
 11
137.6
 21
-12.0
 31
0.0
  0
LINE
  5
DA
330
1D
100
AcDbEntity
  8
BLACK
  6
Continuous
100
AcDbLine
 10
135.525
 20
-14.075
 30
0.0
 11
135.525
 21
-24.025
 31
0.0
  0
LINE
  5
DB
330
1D
100
AcDbEntity
  8
BLACK
  6
Continuous
100
AcDbLine
 10
150.225
 20
-14.075
 30
0.0
 11
150.225
 21
-24.025
 31
0.0
  0
LINE
  5
DC
330
1D
100
AcDbEntity
  8
BLACK
  6
Continuous
100
AcDbLine
 10
129.1
 20
-26.1
 30
0.0
 11
118.55
 21
-26.1
 31
0.0
  0
LINE
  5
DD
330
1D
100
AcDbEntity
  8
BLACK
  6
Continuous
100
AcDbLine
 10
129.1
 20
-12.0
 30
0.0
 11
118.55
 21
-12.0
 31
0.0
  0
LINE
  5
DE
330
1D
100
AcDbEntity
  8
BLACK
  6
Continuous
100
AcDbLine
 10
116.475
 20
-14.075
 30
0.0
 11
116.475
 21
-24.025
 31
0.0
  0
LINE
  5
DF
330
1D
100
AcDbEntity
  8
BLACK
  6
Continuous
100
AcDbLine
 10
131.175
 20
-14.075
 30
0.0
 11
131.175
 21
-24.025
 31
0.0
  0
LINE
  5
E0
330
1D
100
AcDbEntity
  8
BLACK
  6
Continuous
100
AcDbLine
 10
110.05
 20
-26.1
 30
0.0
 11
99.5
 21
-26.1
 31
0.0
  0
LINE
  5
E1
330
1D
100
AcDbEntity
  8
BLACK
  6
Continuous
100
AcDbLine
 10
110.05
 20
-12.0
 30
0.0
 11
99.5
 21
-12.0
 31
0.0
  0
LINE
  5
E2
330
1D
100
AcDbEntity
  8
BLACK
  6
Continuous
100
AcDbLine
 10
97.425
 20
-14.075
 30
0.0
 11
97.425
 21
-24.025
 31
0.0
  0
LINE
  5
E3
330
1D
100
AcDbEntity
  8
BLACK
  6
Continuous
100
AcDbLine
 10
112.125
 20
-14.075
 30
0.0
 11
112.125
 21
-24.025
 31
0.0
  0
LINE
  5
E4
330
1D
100
AcDbEntity
  8
BLACK
  6
Continuous
100
AcDbLine
 10
91.0
 20
-26.1
 30
0.0
 11
80.45
 21
-26.1
 31
0.0
  0
LINE
  5
E5
330
1D
100
AcDbEntity
  8
BLACK
  6
Continuous
100
AcDbLine
 10
91.0
 20
-12.0
 30
0.0
 11
80.45
 21
-12.0
 31
0.0
  0
LINE
  5
E6
330
1D
100
AcDbEntity
  8
BLACK
  6
Continuous
100
AcDbLine
 10
78.375
 20
-14.075
 30
0.0
 11
78.375
 21
-24.025
 31
0.0
  0
LINE
  5
E7
330
1D
100
AcDbEntity
  8
BLACK
  6
Continuous
100
AcDbLine
 10
93.075
 20
-14.075
 30
0.0
 11
93.075
 21
-24.025
 31
0.0
  0
LINE
  5
E8
330
1D
100
AcDbEntity
  8
BLACK
  6
Continuous
100
AcDbLine
 10
71.95
 20
-26.1
 30
0.0
 11
61.4
 21
-26.1
 31
0.0
  0
LINE
  5
E9
330
1D
100
AcDbEntity
  8
BLACK
  6
Continuous
100
AcDbLine
 10
71.95
 20
-12.0
 30
0.0
 11
61.4
 21
-12.0
 31
0.0
  0
LINE
  5
EA
330
1D
100
AcDbEntity
  8
BLACK
  6
Continuous
100
AcDbLine
 10
59.325
 20
-14.075
 30
0.0
 11
59.325
 21
-24.025
 31
0.0
  0
LINE
  5
EB
330
1D
100
AcDbEntity
  8
BLACK
  6
Continuous
100
AcDbLine
 10
74.02499999999999
 20
-14.075
 30
0.0
 11
74.02499999999999
 21
-24.025
 31
0.0
  0
LINE
  5
EC
330
1D
100
AcDbEntity
  8
BLACK
  6
Continuous
100
AcDbLine
 10
52.9
 20
-26.1
 30
0.0
 11
42.35
 21
-26.1
 31
0.0
  0
LINE
  5
ED
330
1D
100
AcDbEntity
  8
BLACK
  6
Continuous
100
AcDbLine
 10
52.9
 20
-12.0
 30
0.0
 11
42.35
 21
-12.0
 31
0.0
  0
LINE
  5
EE
330
1D
100
AcDbEntity
  8
BLACK
  6
Continuous
100
AcDbLine
 10
40.275
 20
-14.075
 30
0.0
 11
40.275
 21
-24.025
 31
0.0
  0
LINE
  5
EF
330
1D
100
AcDbEntity
  8
BLACK
  6
Continuous
100
AcDbLine
 10
54.97499999999999
 20
-14.075
 30
0.0
 11
54.97499999999999
 21
-24.025
 31
0.0
  0
LINE
  5
F0
330
1D
100
AcDbEntity
  8
BLACK
  6
Continuous
100
AcDbLine
 10
33.85
 20
-26.1
 30
0.0
 11
23.3
 21
-26.1
 31
0.0
  0
LINE
  5
F1
330
1D
100
AcDbEntity
  8
BLACK
  6
Continuous
100
AcDbLine
 10
33.85
 20
-12.0
 30
0.0
 11
23.3
 21
-12.0
 31
0.0
  0
LINE
  5
F2
330
1D
100
AcDbEntity
  8
BLACK
  6
Continuous
100
AcDbLine
 10
21.225
 20
-14.075
 30
0.0
 11
21.225
 21
-24.025
 31
0.0
  0
LINE
  5
F3
330
1D
100
AcDbEntity
  8
BLACK
  6
Continuous
100
AcDbLine
 10
35.925
 20
-14.075
 30
0.0
 11
35.925
 21
-24.025
 31
0.0
  0
LINE
  5
F4
330
1D
100
AcDbEntity
  8
BLACK
  6
Continuous
100
AcDbLine
 10
10.0375
 20
-26.1
 30
0.0
 11
-0.5125
 21
-26.1
 31
0.0
  0
LINE
  5
F5
330
1D
100
AcDbEntity
  8
BLACK
  6
Continuous
100
AcDbLine
 10
10.0375
 20
-12.0
 30
0.0
 11
-0.5125
 21
-12.0
 31
0.0
  0
LINE
  5
F6
330
1D
100
AcDbEntity
  8
BLACK
  6
Continuous
100
AcDbLine
 10
-2.587499
 20
-14.074999
 30
0.0
 11
-2.587499
 21
-24.025001
 31
0.0
  0
LINE
  5
F7
330
1D
100
AcDbEntity
  8
BLACK
  6
Continuous
100
AcDbLine
 10
12.112501
 20
-14.075
 30
0.0
 11
12.112501
 21
-24.025
 31
0.0
  0
LINE
  5
F8
330
1D
100
AcDbEntity
  8
BLACK
  6
Continuous
100
AcDbLine
 10
233.875
 20
-7.05
 30
0.0
 11
223.325
 21
-7.05
 31
0.0
  0
LINE
  5
F9
330
1D
100
AcDbEntity
  8
BLACK
  6
Continuous
100
AcDbLine
 10
233.875
 20
7.05
 30
0.0
 11
223.325
 21
7.05
 31
0.0
  0
LINE
  5
FA
330
1D
100
AcDbEntity
  8
BLACK
  6
Continuous
100
AcDbLine
 10
221.25
 20
4.975
 30
0.0
 11
221.25
 21
-4.975
 31
0.0
  0
LINE
  5
FB
330
1D
100
AcDbEntity
  8
BLACK
  6
Continuous
100
AcDbLine
 10
235.95
 20
4.975
 30
0.0
 11
235.95
 21
-4.975
 31
0.0
  0
LINE
  5
FC
330
1D
100
AcDbEntity
  8
BLACK
  6
Continuous
100
AcDbLine
 10
214.825
 20
-7.05
 30
0.0
 11
204.275
 21
-7.05
 31
0.0
  0
LINE
  5
FD
330
1D
100
AcDbEntity
  8
BLACK
  6
Continuous
100
AcDbLine
 10
214.825
 20
7.05
 30
0.0
 11
204.275
 21
7.05
 31
0.0
  0
LINE
  5
FE
330
1D
100
AcDbEntity
  8
BLACK
  6
Continuous
100
AcDbLine
 10
202.2
 20
4.975
 30
0.0
 11
202.2
 21
-4.975
 31
0.0
  0
LINE
  5
FF
330
1D
100
AcDbEntity
  8
BLACK
  6
Continuous
100
AcDbLine
 10
216.9
 20
4.975
 30
0.0
 11
216.9
 21
-4.975
 31
0.0
  0
LINE
  5
100
330
1D
100
AcDbEntity
  8
BLACK
  6
Continuous
100
AcDbLine
 10
195.775
 20
-7.05
 30
0.0
 11
185.225
 21
-7.05
 31
0.0
  0
CIRCLE
  5
101
330
1D
100
AcDbEntity
  8
BLACK
100
AcDbCircle
 10
28.575
 20
0.0
 30
0.0
 40
1.0
  0
CIRCLE
  5
102
330
1D
100
AcDbEntity
  8
BLACK
100
AcDbCircle
 10
-7.14375
 20
-38.1
 30
0.0
 40
1.0
  0
CIRCLE
  5
103
330
1D
100
AcDbEntity
  8
BLACK
100
AcDbCircle
 10
185.7375
 20
-57.15
 30
0.0
 40
1.0
  0
ARC
  5
104
330
1D
100
AcDbEntity
  8
BLACK
100
AcDbCircle
 10
209.037547
 20
-52.174953
 30
0.0
 40
2.075047000532277
100
AcDbArc
 50
90.00129780999998
 51
180.00129775
  0
ARC
  5
105
330
1D
100
AcDbEntity
  8
BLACK
100
AcDbCircle
 10
219.587547
 20
-52.174953
 30
0.0
 40
2.074953000532301
100
AcDbArc
 50
359.99870219
 51
90.00129780999998
  0
ARC
  5
106
330
1D
100
AcDbEntity
  8
BLACK
100
AcDbCircle
 10
209.037547
 20
-62.124953
 30
0.0
 40
2.075047000532277
100
AcDbArc
 50
180.00129775
 51
269.99870225
  0
ARC
  5
107
330
1D
100
AcDbEntity
  8
BLACK
100
AcDbCircle
 10
219.587547
 20
-62.124953
 30
0.0
 40
2.074953000532301
100
AcDbArc
 50
269.99870225
 51
359.99870219
  0
ARC
  5
108
330
1D
100
AcDbEntity
  8
BLACK
100
AcDbCircle
 10
189.987547
 20
-52.174953
 30
0.0
 40
2.075047000532277
100
AcDbArc
 50
90.00129780999998
 51
180.00129775
  0
ARC
  5
109
330
1D
100
AcDbEntity
  8
BLACK
100
AcDbCircle
 10
200.537547
 20
-52.174953
 30
0.0
 40
2.074953000532301
100
AcDbArc
 50
359.99870219
 51
90.00129780999998
  0
ARC
  5
10A
330
1D
100
AcDbEntity
  8
BLACK
100
AcDbCircle
 10
189.987547
 20
-62.124953
 30
0.0
 40
2.075047000532277
100
AcDbArc
 50
180.00129775
 51
269.99870225
  0
ARC
  5
10B
330
1D
100
AcDbEntity
  8
BLACK
100
AcDbCircle
 10
200.537547
 20
-62.124953
 30
0.0
 40
2.074953000532301
100
AcDbArc
 50
269.99870225
 51
359.99870219
  0
ARC
  5
10C
330
1D
100
AcDbEntity
  8
BLACK
100
AcDbCircle
 10
170.937547
 20
-52.174953
 30
0.0
 40
2.075047000532277
100
AcDbArc
 50
90.00129780999998
 51
180.00129775
  0
ARC
  5
10D
330
1D
100
AcDbEntity
  8
BLACK
100
AcDbCircle
 10
181.487547
 20
-52.174953
 30
0.0
 40
2.074953000532301
100
AcDbArc
 50
359.99870219
 51
90.00129780999998
  0
ARC
  5
10E
330
1D
100
AcDbEntity
  8
BLACK
100
AcDbCircle
 10
170.937547
 20
-62.124953
 30
0.0
 40
2.075047000532277
100
AcDbArc
 50
180.00129775
 51
269.99870225
  0
ARC
  5
10F
330
1D
100
AcDbEntity
  8
BLACK
100
AcDbCircle
 10
181.487547
 20
-62.124953
 30
0.0
 40
2.074953000532301
100
AcDbArc
 50
269.99870225
 51
359.99870219
  0
ARC
  5
110
330
1D
100
AcDbEntity
  8
BLACK
100
AcDbCircle
 10
151.887497
 20
-52.175003
 30
0.0
 40
2.074997000002169
100
AcDbArc
 50
89.99991715999998
 51
179.99991716
  0
ARC
  5
111
330
1D
100
AcDbEntity
  8
BLACK
100
AcDbCircle
 10
162.437547
 20
-52.174953
 30
0.0
 40
2.074953000532301
100
AcDbArc
 50
359.99870219
 51
90.00129780999998
  0
ARC
  5
112
330
1D
100
AcDbEntity
  8
BLACK
100
AcDbCircle
 10
151.887547
 20
-62.124953
 30
0.0
 40
2.075047000532277
100
AcDbArc
 50
180.00129775
 51
269.99870225
  0
ARC
  5
113
330
1D
100
AcDbEntity
  8
BLACK
100
AcDbCircle
 10
162.437497
 20
-62.125003
 30
0.0
 40
2.075003000002169
100
AcDbArc
 50
270.00008284
 51
8.284e-05
  0
ARC
  5
114
330
1D
100
AcDbEntity
  8
BLACK
100
AcDbCircle
 10
132.837497
 20
-52.175003
 30
0.0
 40
2.074997000002169
100
AcDbArc
 50
89.99991715999998
 51
179.99991716
  0
ARC
  5
115
330
1D
100
AcDbEntity
  8
BLACK
100
AcDbCircle
 10
143.387547
 20
-52.174953
 30
0.0
 40
2.074953000532301
100
AcDbArc
 50
359.99870219
 51
90.00129780999998
  0
ARC
  5
116
330
1D
100
AcDbEntity
  8
BLACK
100
AcDbCircle
 10
132.837547
 20
-62.124953
 30
0.0
 40
2.075047000532277
100
AcDbArc
 50
180.00129775
 51
269.99870225
  0
ARC
  5
117
330
1D
100
AcDbEntity
  8
BLACK
100
AcDbCircle
 10
143.387497
 20
-62.125003
 30
0.0
 40
2.075003000002169
100
AcDbArc
 50
270.00008284
 51
8.284e-05
  0
ARC
  5
118
330
1D
100
AcDbEntity
  8
BLACK
100
AcDbCircle
 10
113.787497
 20
-52.175003
 30
0.0
 40
2.074997000002169
100
AcDbArc
 50
89.99991715999998
 51
179.99991716
  0
ARC
  5
119
330
1D
100
AcDbEntity
  8
BLACK
100
AcDbCircle
 10
124.337547
 20
-52.174953
 30
0.0
 40
2.074953000532301
100
AcDbArc
 50
359.99870219
 51
90.00129780999998
  0
ARC
  5
11A
330
1D
100
AcDbEntity
  8
BLACK
100
AcDbCircle
 10
113.787497
 20
-62.125003
 30
0.0
 40
2.074997000002169
100
AcDbArc
 50
179.99991716
 51
270.00008284
  0
ARC
  5
11B
330
1D
100
AcDbEntity
  8
BLACK
100
AcDbCircle
 10
124.337497
 20
-62.125003
 30
0.0
 40
2.075003000002169
100
AcDbArc
 50
270.00008284
 51
8.284e-05
  0
ARC
  5
11C
330
1D
100
AcDbEntity
  8
BLACK
100
AcDbCircle
 10
94.737499
 20
-52.174999
 30
0.0
 40
2.074999000000241
100
AcDbArc
 50
89.99997238999998
 51
180.00002761
  0
ARC
  5
11D
330
1D
100
AcDbEntity
  8
BLACK
100
AcDbCircle
 10
105.287497
 20
-52.175003
 30
0.0
 40
2.075003000002169
100
AcDbArc
 50
8.284e-05
 51
89.99991715999998
  0
ARC
  5
11E
330
1D
100
AcDbEntity
  8
BLACK
100
AcDbCircle
 10
94.73749699999999
 20
-62.125003
 30
0.0
 40
2.074997000002169
100
AcDbArc
 50
179.99991716
 51
270.00008284
  0
ARC
  5
11F
330
1D
100
AcDbEntity
  8
BLACK
100
AcDbCircle
 10
105.287497
 20
-62.125003
 30
0.0
 40
2.075003000002169
100
AcDbArc
 50
270.00008284
 51
8.284e-05
  0
ARC
  5
120
330
1D
100
AcDbEntity
  8
BLACK
100
AcDbCircle
 10
75.687499
 20
-52.174999
 30
0.0
 40
2.074999000000241
100
AcDbArc
 50
89.99997238999998
 51
180.00002761
  0
ARC
  5
121
330
1D
100
AcDbEntity
  8
BLACK
100
AcDbCircle
 10
86.237501
 20
-52.174999
 30
0.0
 40
2.074999000000241
100
AcDbArc
 50
359.9999723899999
 51
90.00002761
  0
ARC
  5
122
330
1D
100
AcDbEntity
  8
BLACK
100
AcDbCircle
 10
75.687499
 20
-62.125001
 30
0.0
 40
2.074999000000241
100
AcDbArc
 50
179.99997239
 51
270.0000276100001
  0
ARC
  5
123
330
1D
100
AcDbEntity
  8
BLACK
100
AcDbCircle
 10
86.237501
 20
-62.125001
 30
0.0
 40
2.074999000000241
100
AcDbArc
 50
269.99997239
 51
2.761e-05
  0
ARC
  5
124
330
1D
100
AcDbEntity
  8
BLACK
100
AcDbCircle
 10
56.637499
 20
-52.174999
 30
0.0
 40
2.074999000000241
100
AcDbArc
 50
89.99997238999998
 51
180.00002761
  0
ARC
  5
125
330
1D
100
AcDbEntity
  8
BLACK
100
AcDbCircle
 10
67.187501
 20
-52.174999
 30
0.0
 40
2.074999000000241
100
AcDbArc
 50
359.9999723899999
 51
90.00002761
  0
ARC
  5
126
330
1D
100
AcDbEntity
  8
BLACK
100
AcDbCircle
 10
56.637499
 20
-62.125001
 30
0.0
 40
2.074999000000241
100
AcDbArc
 50
179.99997239
 51
270.0000276100001
  0
ARC
  5
127
330
1D
100
AcDbEntity
  8
BLACK
100
AcDbCircle
 10
67.187501
 20
-62.125001
 30
0.0
 40
2.074999000000241
100
AcDbArc
 50
269.99997239
 51
2.761e-05
  0
ARC
  5
128
330
1D
100
AcDbEntity
  8
BLACK
100
AcDbCircle
 10
37.587499
 20
-52.174999
 30
0.0
 40
2.074999000000241
100
AcDbArc
 50
89.99997238999998
 51
180.00002761
  0
ARC
  5
129
330
1D
100
AcDbEntity
  8
BLACK
100
AcDbCircle
 10
48.137501
 20
-52.174999
 30
0.0
 40
2.074999000000241
100
AcDbArc
 50
359.9999723899999
 51
90.00002761
  0
ARC
  5
12A
330
1D
100
AcDbEntity
  8
BLACK
100
AcDbCircle
 10
37.587499
 20
-62.125001
 30
0.0
 40
2.074999000000241
100
AcDbArc
 50
179.99997239
 51
270.0000276100001
  0
ARC
  5
12B
330
1D
100
AcDbEntity
  8
BLACK
100
AcDbCircle
 10
48.137501
 20
-62.125001
 30
0.0
 40
2.074999000000241
100
AcDbArc
 50
269.99997239
 51
2.761e-05
  0
ARC
  5
12C
330
1D
100
AcDbEntity
  8
BLACK
100
AcDbCircle
 10
28.062499
 20
-33.124999
 30
0.0
 40
2.074999000000241
100
AcDbArc
 50
89.99997238999998
 51
180.00002761
  0
ARC
  5
12D
330
1D
100
AcDbEntity
  8
BLACK
100
AcDbCircle
 10
38.612501
 20
-33.124999
 30
0.0
 40
2.074999000000241
100
AcDbArc
 50
359.9999723899999
 51
90.00002761
  0
ARC
  5
12E
330
1D
100
AcDbEntity
  8
BLACK
100
AcDbCircle
 10
28.062499
 20
-43.075001
 30
0.0
 40
2.074999000000241
100
AcDbArc
 50
179.99997239
 51
270.0000276100001
  0
ARC
  5
12F
330
1D
100
AcDbEntity
  8
BLACK
100
AcDbCircle
 10
38.612501
 20
-43.075001
 30
0.0
 40
2.074999000000241
100
AcDbArc
 50
269.99997239
 51
2.761e-05
  0
ARC
  5
130
330
1D
100
AcDbEntity
  8
BLACK
100
AcDbCircle
 10
47.112499
 20
-33.124999
 30
0.0
 40
2.074999000000241
100
AcDbArc
 50
89.99997238999998
 51
180.00002761
  0
ARC
  5
131
330
1D
100
AcDbEntity
  8
BLACK
100
AcDbCircle
 10
57.662501
 20
-33.124999
 30
0.0
 40
2.074999000000241
100
AcDbArc
 50
359.9999723899999
 51
90.00002761
  0
ARC
  5
132
330
1D
100
AcDbEntity
  8
BLACK
100
AcDbCircle
 10
47.112499
 20
-43.075001
 30
0.0
 40
2.074999000000241
100
AcDbArc
 50
179.99997239
 51
270.0000276100001
  0
ARC
  5
133
330
1D
100
AcDbEntity
  8
BLACK
100
AcDbCircle
 10
57.662501
 20
-43.075001
 30
0.0
 40
2.074999000000241
100
AcDbArc
 50
269.99997239
 51
2.761e-05
  0
ARC
  5
134
330
1D
100
AcDbEntity
  8
BLACK
100
AcDbCircle
 10
66.162499
 20
-33.124999
 30
0.0
 40
2.074999000000241
100
AcDbArc
 50
89.99997238999998
 51
180.00002761
  0
ARC
  5
135
330
1D
100
AcDbEntity
  8
BLACK
100
AcDbCircle
 10
76.712501
 20
-33.124999
 30
0.0
 40
2.074999000000241
100
AcDbArc
 50
359.9999723899999
 51
90.00002761
  0
ARC
  5
136
330
1D
100
AcDbEntity
  8
BLACK
100
AcDbCircle
 10
66.162499
 20
-43.075001
 30
0.0
 40
2.074999000000241
100
AcDbArc
 50
179.99997239
 51
270.0000276100001
  0
ARC
  5
137
330
1D
100
AcDbEntity
  8
BLACK
100
AcDbCircle
 10
76.712501
 20
-43.075001
 30
0.0
 40
2.074999000000241
100
AcDbArc
 50
269.99997239
 51
2.761e-05
  0
ARC
  5
138
330
1D
100
AcDbEntity
  8
BLACK
100
AcDbCircle
 10
85.212499
 20
-33.124999
 30
0.0
 40
2.074999000000241
100
AcDbArc
 50
89.99997238999998
 51
180.00002761
  0
ARC
  5
139
330
1D
100
AcDbEntity
  8
BLACK
100
AcDbCircle
 10
95.762497
 20
-33.125003
 30
0.0
 40
2.075003000002169
100
AcDbArc
 50
8.284e-05
 51
89.99991715999998
  0
ARC
  5
13A
330
1D
100
AcDbEntity
  8
BLACK
100
AcDbCircle
 10
85.212499
 20
-43.075001
 30
0.0
 40
2.074999000000241
100
AcDbArc
 50
179.99997239
 51
270.0000276100001
  0
ARC
  5
13B
330
1D
100
AcDbEntity
  8
BLACK
100
AcDbCircle
 10
95.762497
 20
-43.075003
 30
0.0
 40
2.075003000002169
100
AcDbArc
 50
270.00008284
 51
8.284e-05
  0
ARC
  5
13C
330
1D
100
AcDbEntity
  8
BLACK
100
AcDbCircle
 10
104.262497
 20
-33.125003
 30
0.0
 40
2.074997000002169
100
AcDbArc
 50
89.99991715999998
 51
179.99991716
  0
ARC
  5
13D
330
1D
100
AcDbEntity
  8
BLACK
100
AcDbCircle
 10
114.812497
 20
-33.125003
 30
0.0
 40
2.075003000002169
100
AcDbArc
 50
8.284e-05
 51
89.99991715999998
  0
ARC
  5
13E
330
1D
100
AcDbEntity
  8
BLACK
100
AcDbCircle
 10
104.262497
 20
-43.075003
 30
0.0
 40
2.074997000002169
100
AcDbArc
 50
179.99991716
 51
270.00008284
  0
ARC
  5
13F
330
1D
100
AcDbEntity
  8
BLACK
100
AcDbCircle
 10
114.812497
 20
-43.075003
 30
0.0
 40
2.075003000002169
100
AcDbArc
 50
270.00008284
 51
8.284e-05
  0
ARC
  5
140
330
1D
100
AcDbEntity
  8
BLACK
100
AcDbCircle
 10
123.312497
 20
-33.125003
 30
0.0
 40
2.074997000002169
100
AcDbArc
 50
89.99991715999998
 51
179.99991716
  0
ARC
  5
141
330
1D
100
AcDbEntity
  8
BLACK
100
AcDbCircle
 10
133.862547
 20
-33.124953
 30
0.0
 40
2.074953000532301
100
AcDbArc
 50
359.99870219
 51
90.00129780999998
  0
ARC
  5
142
330
1D
100
AcDbEntity
  8
BLACK
100
AcDbCircle
 10
123.312547
 20
-43.074953
 30
0.0
 40
2.075047000532277
100
AcDbArc
 50
180.00129775
 51
269.99870225
  0
ARC
  5
143
330
1D
100
AcDbEntity
  8
BLACK
100
AcDbCircle
 10
133.862497
 20
-43.075003
 30
0.0
 40
2.075003000002169
100
AcDbArc
 50
270.00008284
 51
8.284e-05
  0
ARC
  5
144
330
1D
100
AcDbEntity
  8
BLACK
100
AcDbCircle
 10
142.362497
 20
-33.125003
 30
0.0
 40
2.074997000002169
100
AcDbArc
 50
89.99991715999998
 51
179.99991716
  0
ARC
  5
145
330
1D
100
AcDbEntity
  8
BLACK
100
AcDbCircle
 10
152.912547
 20
-33.124953
 30
0.0
 40
2.074953000532301
100
AcDbArc
 50
359.99870219
 51
90.00129780999998
  0
ARC
  5
146
330
1D
100
AcDbEntity
  8
BLACK
100
AcDbCircle
 10
142.362547
 20
-43.074953
 30
0.0
 40
2.075047000532277
100
AcDbArc
 50
180.00129775
 51
269.99870225
  0
ARC
  5
147
330
1D
100
AcDbEntity
  8
BLACK
100
AcDbCircle
 10
152.912497
 20
-43.075003
 30
0.0
 40
2.075003000002169
100
AcDbArc
 50
270.00008284
 51
8.284e-05
  0
ARC
  5
148
330
1D
100
AcDbEntity
  8
BLACK
100
AcDbCircle
 10
161.412547
 20
-33.124953
 30
0.0
 40
2.075047000532277
100
AcDbArc
 50
90.00129780999998
 51
180.00129775
  0
ARC
  5
149
330
1D
100
AcDbEntity
  8
BLACK
100
AcDbCircle
 10
171.962547
 20
-33.124953
 30
0.0
 40
2.074953000532301
100
AcDbArc
 50
359.99870219
 51
90.00129780999998
  0
ARC
  5
14A
330
1D
100
AcDbEntity
  8
BLACK
100
AcDbCircle
 10
161.412547
 20
-43.074953
 30
0.0
 40
2.075047000532277
100
AcDbArc
 50
180.00129775
 51
269.99870225
  0
ARC
  5
14B
330
1D
100
AcDbEntity
  8
BLACK
100
AcDbCircle
 10
171.962547
 20
-43.074953
 30
0.0
 40
2.074953000532301
100
AcDbArc
 50
269.99870225
 51
359.99870219
  0
ARC
  5
14C
330
1D
100
AcDbEntity
  8
BLACK
100
AcDbCircle
 10
180.462547
 20
-33.124953
 30
0.0
 40
2.075047000532277
100
AcDbArc
 50
90.00129780999998
 51
180.00129775
  0
ARC
  5
14D
330
1D
100
AcDbEntity
  8
BLACK
100
AcDbCircle
 10
191.012547
 20
-33.124953
 30
0.0
 40
2.074953000532301
100
AcDbArc
 50
359.99870219
 51
90.00129780999998
  0
ARC
  5
14E
330
1D
100
AcDbEntity
  8
BLACK
100
AcDbCircle
 10
180.462547
 20
-43.074953
 30
0.0
 40
2.075047000532277
100
AcDbArc
 50
180.00129775
 51
269.99870225
  0
ARC
  5
14F
330
1D
100
AcDbEntity
  8
BLACK
100
AcDbCircle
 10
191.012547
 20
-43.074953
 30
0.0
 40
2.074953000532301
100
AcDbArc
 50
269.99870225
 51
359.99870219
  0
ARC
  5
150
330
1D
100
AcDbEntity
  8
BLACK
100
AcDbCircle
 10
199.512547
 20
-33.124953
 30
0.0
 40
2.075047000532277
100
AcDbArc
 50
90.00129780999998
 51
180.00129775
  0
ARC
  5
151
330
1D
100
AcDbEntity
  8
BLACK
100
AcDbCircle
 10
210.062547
 20
-33.124953
 30
0.0
 40
2.074953000532301
100
AcDbArc
 50
359.99870219
 51
90.00129780999998
  0
ARC
  5
152
330
1D
100
AcDbEntity
  8
BLACK
100
AcDbCircle
 10
199.512547
 20
-43.074953
 30
0.0
 40
2.075047000532277
100
AcDbArc
 50
180.00129775
 51
269.99870225
  0
ARC
  5
153
330
1D
100
AcDbEntity
  8
BLACK
100
AcDbCircle
 10
210.062547
 20
-43.074953
 30
0.0
 40
2.074953000532301
100
AcDbArc
 50
269.99870225
 51
359.99870219
  0
ARC
  5
154
330
1D
100
AcDbEntity
  8
BLACK
100
AcDbCircle
 10
218.562547
 20
-33.124953
 30
0.0
 40
2.075047000532277
100
AcDbArc
 50
90.00129780999998
 51
180.00129775
  0
ARC
  5
155
330
1D
100
AcDbEntity
  8
BLACK
100
AcDbCircle
 10
229.112547
 20
-33.124953
 30
0.0
 40
2.074953000532301
100
AcDbArc
 50
359.99870219
 51
90.00129780999998
  0
ARC
  5
156
330
1D
100
AcDbEntity
  8
BLACK
100
AcDbCircle
 10
218.562547
 20
-43.074953
 30
0.0
 40
2.075047000532277
100
AcDbArc
 50
180.00129775
 51
269.99870225
  0
ARC
  5
157
330
1D
100
AcDbEntity
  8
BLACK
100
AcDbCircle
 10
229.112547
 20
-43.074953
 30
0.0
 40
2.074953000532301
100
AcDbArc
 50
269.99870225
 51
359.99870219
  0
ARC
  5
158
330
1D
100
AcDbEntity
  8
BLACK
100
AcDbCircle
 10
232.850047
 20
-14.074953
 30
0.0
 40
2.075047000532277
100
AcDbArc
 50
90.00129780999998
 51
180.00129775
  0
ARC
  5
159
330
1D
100
AcDbEntity
  8
BLACK
100
AcDbCircle
 10
243.400047
 20
-14.074953
 30
0.0
 40
2.074953000532301
100
AcDbArc
 50
359.99870219
 51
90.00129780999998
  0
ARC
  5
15A
330
1D
100
AcDbEntity
  8
BLACK
100
AcDbCircle
 10
232.850047
 20
-24.024953
 30
0.0
 40
2.075047000532277
100
AcDbArc
 50
180.00129775
 51
269.99870225
  0
ARC
  5
15B
330
1D
100
AcDbEntity
  8
BLACK
100
AcDbCircle
 10
243.400047
 20
-24.024953
 30
0.0
 40
2.074953000532301
100
AcDbArc
 50
269.99870225
 51
359.99870219
  0
ARC
  5
15C
330
1D
100
AcDbEntity
  8
BLACK
100
AcDbCircle
 10
213.800047
 20
-14.074953
 30
0.0
 40
2.075047000532277
100
AcDbArc
 50
90.00129780999998
 51
180.00129775
  0
ARC
  5
15D
330
1D
100
AcDbEntity
  8
BLACK
100
AcDbCircle
 10
224.350047
 20
-14.074953
 30
0.0
 40
2.074953000532301
100
AcDbArc
 50
359.99870219
 51
90.00129780999998
  0
ARC
  5
15E
330
1D
100
AcDbEntity
  8
BLACK
100
AcDbCircle
 10
213.800047
 20
-24.024953
 30
0.0
 40
2.075047000532277
100
AcDbArc
 50
180.00129775
 51
269.99870225
  0
ARC
  5
15F
330
1D
100
AcDbEntity
  8
BLACK
100
AcDbCircle
 10
224.350047
 20
-24.024953
 30
0.0
 40
2.074953000532301
100
AcDbArc
 50
269.99870225
 51
359.99870219
  0
ARC
  5
160
330
1D
100
AcDbEntity
  8
BLACK
100
AcDbCircle
 10
194.750047
 20
-14.074953
 30
0.0
 40
2.075047000532277
100
AcDbArc
 50
90.00129780999998
 51
180.00129775
  0
ARC
  5
161
330
1D
100
AcDbEntity
  8
BLACK
100
AcDbCircle
 10
205.300047
 20
-14.074953
 30
0.0
 40
2.074953000532301
100
AcDbArc
 50
359.99870219
 51
90.00129780999998
  0
ARC
  5
162
330
1D
100
AcDbEntity
  8
BLACK
100
AcDbCircle
 10
194.750047
 20
-24.024953
 30
0.0
 40
2.075047000532277
100
AcDbArc
 50
180.00129775
 51
269.99870225
  0
ARC
  5
163
330
1D
100
AcDbEntity
  8
BLACK
100
AcDbCircle
 10
205.300047
 20
-24.024953
 30
0.0
 40
2.074953000532301
100
AcDbArc
 50
269.99870225
 51
359.99870219
  0
ARC
  5
164
330
1D
100
AcDbEntity
  8
BLACK
100
AcDbCircle
 10
175.700047
 20
-14.074953
 30
0.0
 40
2.075047000532277
100
AcDbArc
 50
90.00129780999998
 51
180.00129775
  0
ARC
  5
165
330
1D
100
AcDbEntity
  8
BLACK
100
AcDbCircle
 10
186.250047
 20
-14.074953
 30
0.0
 40
2.074953000532301
100
AcDbArc
 50
359.99870219
 51
90.00129780999998
  0
ARC
  5
166
330
1D
100
AcDbEntity
  8
BLACK
100
AcDbCircle
 10
175.700047
 20
-24.024953
 30
0.0
 40
2.075047000532277
100
AcDbArc
 50
180.00129775
 51
269.99870225
  0
ARC
  5
167
330
1D
100
AcDbEntity
  8
BLACK
100
AcDbCircle
 10
186.250047
 20
-24.024953
 30
0.0
 40
2.074953000532301
100
AcDbArc
 50
269.99870225
 51
359.99870219
  0
ARC
  5
168
330
1D
100
AcDbEntity
  8
BLACK
100
AcDbCircle
 10
156.649997
 20
-14.075003
 30
0.0
 40
2.074997000002169
100
AcDbArc
 50
89.99991715999998
 51
179.99991716
  0
ARC
  5
169
330
1D
100
AcDbEntity
  8
BLACK
100
AcDbCircle
 10
167.200047
 20
-14.074953
 30
0.0
 40
2.074953000532301
100
AcDbArc
 50
359.99870219
 51
90.00129780999998
  0
ARC
  5
16A
330
1D
100
AcDbEntity
  8
BLACK
100
AcDbCircle
 10
156.650047
 20
-24.024953
 30
0.0
 40
2.075047000532277
100
AcDbArc
 50
180.00129775
 51
269.99870225
  0
ARC
  5
16B
330
1D
100
AcDbEntity
  8
BLACK
100
AcDbCircle
 10
167.200047
 20
-24.024953
 30
0.0
 40
2.074953000532301
100
AcDbArc
 50
269.99870225
 51
359.99870219
  0
ARC
  5
16C
330
1D
100
AcDbEntity
  8
BLACK
100
AcDbCircle
 10
137.599997
 20
-14.075003
 30
0.0
 40
2.074997000002169
100
AcDbArc
 50
89.99991715999998
 51
179.99991716
  0
ARC
  5
16D
330
1D
100
AcDbEntity
  8
BLACK
100
AcDbCircle
 10
148.150047
 20
-14.074953
 30
0.0
 40
2.074953000532301
100
AcDbArc
 50
359.99870219
 51
90.00129780999998
  0
ARC
  5
16E
330
1D
100
AcDbEntity
  8
BLACK
100
AcDbCircle
 10
137.600047
 20
-24.024953
 30
0.0
 40
2.075047000532277
100
AcDbArc
 50
180.00129775
 51
269.99870225
  0
ARC
  5
16F
330
1D
100
AcDbEntity
  8
BLACK
100
AcDbCircle
 10
148.149997
 20
-24.025003
 30
0.0
 40
2.075003000002169
100
AcDbArc
 50
270.00008284
 51
8.284e-05
  0
ARC
  5
170
330
1D
100
AcDbEntity
  8
BLACK
100
AcDbCircle
 10
118.549997
 20
-14.075003
 30
0.0
 40
2.074997000002169
100
AcDbArc
 50
89.99991715999998
 51
179.99991716
  0
ARC
  5
171
330
1D
100
AcDbEntity
  8
BLACK
100
AcDbCircle
 10
129.100047
 20
-14.074953
 30
0.0
 40
2.074953000532301
100
AcDbArc
 50
359.99870219
 51
90.00129780999998
  0
ARC
  5
172
330
1D
100
AcDbEntity
  8
BLACK
100
AcDbCircle
 10
118.549997
 20
-24.025003
 30
0.0
 40
2.074997000002169
100
AcDbArc
 50
179.99991716
 51
270.00008284
  0
ARC
  5
173
330
1D
100
AcDbEntity
  8
BLACK
100
AcDbCircle
 10
129.099997
 20
-24.025003
 30
0.0
 40
2.075003000002169
100
AcDbArc
 50
270.00008284
 51
8.284e-05
  0
ARC
  5
174
330
1D
100
AcDbEntity
  8
BLACK
100
AcDbCircle
 10
99.499997
 20
-14.075003
 30
0.0
 40
2.074997000002169
100
AcDbArc
 50
89.99991715999998
 51
179.99991716
  0
ARC
  5
175
330
1D
100
AcDbEntity
  8
BLACK
100
AcDbCircle
 10
110.049997
 20
-14.075003
 30
0.0
 40
2.075003000002169
100
AcDbArc
 50
8.284e-05
 51
89.99991715999998
  0
ARC
  5
176
330
1D
100
AcDbEntity
  8
BLACK
100
AcDbCircle
 10
99.499997
 20
-24.025003
 30
0.0
 40
2.074997000002169
100
AcDbArc
 50
179.99991716
 51
270.00008284
  0
ARC
  5
177
330
1D
100
AcDbEntity
  8
BLACK
100
AcDbCircle
 10
110.049997
 20
-24.025003
 30
0.0
 40
2.075003000002169
100
AcDbArc
 50
270.00008284
 51
8.284e-05
  0
ARC
  5
178
330
1D
100
AcDbEntity
  8
BLACK
100
AcDbCircle
 10
80.44999899999999
 20
-14.074999
 30
0.0
 40
2.074999000000241
100
AcDbArc
 50
89.99997238999998
 51
180.00002761
  0
ARC
  5
179
330
1D
100
AcDbEntity
  8
BLACK
100
AcDbCircle
 10
90.999997
 20
-14.075003
 30
0.0
 40
2.075003000002169
100
AcDbArc
 50
8.284e-05
 51
89.99991715999998
  0
ARC
  5
17A
330
1D
100
AcDbEntity
  8
BLACK
100
AcDbCircle
 10
80.44999899999999
 20
-24.025001
 30
0.0
 40
2.074999000000241
100
AcDbArc
 50
179.99997239
 51
270.0000276100001
  0
ARC
  5
17B
330
1D
100
AcDbEntity
  8
BLACK
100
AcDbCircle
 10
90.999997
 20
-24.025003
 30
0.0
 40
2.075003000002169
100
AcDbArc
 50
270.00008284
 51
8.284e-05
  0
ARC
  5
17C
330
1D
100
AcDbEntity
  8
BLACK
100
AcDbCircle
 10
61.39999899999999
 20
-14.074999
 30
0.0
 40
2.074999000000241
100
AcDbArc
 50
89.99997238999998
 51
180.00002761
  0
ARC
  5
17D
330
1D
100
AcDbEntity
  8
BLACK
100
AcDbCircle
 10
71.950001
 20
-14.074999
 30
0.0
 40
2.074999000000241
100
AcDbArc
 50
359.9999723899999
 51
90.00002761
  0
ARC
  5
17E
330
1D
100
AcDbEntity
  8
BLACK
100
AcDbCircle
 10
61.39999899999999
 20
-24.025001
 30
0.0
 40
2.074999000000241
100
AcDbArc
 50
179.99997239
 51
270.0000276100001
  0
ARC
  5
17F
330
1D
100
AcDbEntity
  8
BLACK
100
AcDbCircle
 10
71.950001
 20
-24.025001
 30
0.0
 40
2.074999000000241
100
AcDbArc
 50
269.99997239
 51
2.761e-05
  0
ARC
  5
180
330
1D
100
AcDbEntity
  8
BLACK
100
AcDbCircle
 10
42.349999
 20
-14.074999
 30
0.0
 40
2.074999000000241
100
AcDbArc
 50
89.99997238999998
 51
180.00002761
  0
ARC
  5
181
330
1D
100
AcDbEntity
  8
BLACK
100
AcDbCircle
 10
52.900001
 20
-14.074999
 30
0.0
 40
2.074999000000241
100
AcDbArc
 50
359.9999723899999
 51
90.00002761
  0
ARC
  5
182
330
1D
100
AcDbEntity
  8
BLACK
100
AcDbCircle
 10
42.349999
 20
-24.025001
 30
0.0
 40
2.074999000000241
100
AcDbArc
 50
179.99997239
 51
270.0000276100001
  0
ARC
  5
183
330
1D
100
AcDbEntity
  8
BLACK
100
AcDbCircle
 10
52.900001
 20
-24.025001
 30
0.0
 40
2.074999000000241
100
AcDbArc
 50
269.99997239
 51
2.761e-05
  0
ARC
  5
184
330
1D
100
AcDbEntity
  8
BLACK
100
AcDbCircle
 10
23.299999
 20
-14.074999
 30
0.0
 40
2.074999000000241
100
AcDbArc
 50
89.99997238999998
 51
180.00002761
  0
ARC
  5
185
330
1D
100
AcDbEntity
  8
BLACK
100
AcDbCircle
 10
33.850001
 20
-14.074999
 30
0.0
 40
2.074999000000241
100
AcDbArc
 50
359.9999723899999
 51
90.00002761
  0
ARC
  5
186
330
1D
100
AcDbEntity
  8
BLACK
100
AcDbCircle
 10
23.299999
 20
-24.025001
 30
0.0
 40
2.074999000000241
100
AcDbArc
 50
179.99997239
 51
270.0000276100001
  0
ARC
  5
187
330
1D
100
AcDbEntity
  8
BLACK
100
AcDbCircle
 10
33.850001
 20
-24.025001
 30
0.0
 40
2.074999000000241
100
AcDbArc
 50
269.99997239
 51
2.761e-05
  0
ARC
  5
188
330
1D
100
AcDbEntity
  8
BLACK
100
AcDbCircle
 10
-0.5125
 20
-14.074999
 30
0.0
 40
2.074999
100
AcDbArc
 50
90.0
 51
180.0
  0
ARC
  5
189
330
1D
100
AcDbEntity
  8
BLACK
100
AcDbCircle
 10
10.037501
 20
-14.074999
 30
0.0
 40
2.074999000000241
100
AcDbArc
 50
359.9999723899999
 51
90.00002761
  0
ARC
  5
18A
330
1D
100
AcDbEntity
  8
BLACK
100
AcDbCircle
 10
-0.5125
 20
-24.025001
 30
0.0
 40
2.074999
100
AcDbArc
 50
180.0
 51
270.0
  0
ARC
  5
18B
330
1D
100
AcDbEntity
  8
BLACK
100
AcDbCircle
 10
10.037501
 20
-24.025
 30
0.0
 40
2.075
100
AcDbArc
 50
269.99997239
 51
0.0
  0
ARC
  5
18C
330
1D
100
AcDbEntity
  8
BLACK
100
AcDbCircle
 10
223.325047
 20
4.975047
 30
0.0
 40
2.075047000532277
100
AcDbArc
 50
90.00129780999998
 51
180.00129775
  0
ARC
  5
18D
330
1D
100
AcDbEntity
  8
BLACK
100
AcDbCircle
 10
233.875047
 20
-4.974953
 30
0.0
 40
2.074953000532301
100
AcDbArc
 50
269.99870225
 51
359.99870219
  0
ARC
  5
18E
330
1D
100
AcDbEntity
  8
BLACK
100
AcDbCircle
 10
233.875047
 20
4.975047
 30
0.0
 40
2.074953000532301
100
AcDbArc
 50
359.99870219
 51
90.00129780999998
  0
ARC
  5
18F
330
1D
100
AcDbEntity
  8
BLACK
100
AcDbCircle
 10
223.325047
 20
-4.974953
 30
0.0
 40
2.075047000532277
100
AcDbArc
 50
180.00129775
 51
269.99870225
  0
ARC
  5
190
330
1D
100
AcDbEntity
  8
BLACK
100
AcDbCircle
 10
204.275047
 20
4.975047
 30
0.0
 40
2.075047000532277
100
AcDbArc
 50
90.00129780999998
 51
180.00129775
  0
ARC
  5
191
330
1D
100
AcDbEntity
  8
BLACK
100
AcDbCircle
 10
214.825047
 20
-4.974953
 30
0.0
 40
2.074953000532301
100
AcDbArc
 50
269.99870225
 51
359.99870219
  0
ARC
  5
192
330
1D
100
AcDbEntity
  8
BLACK
100
AcDbCircle
 10
214.825047
 20
4.975047
 30
0.0
 40
2.074953000532301
100
AcDbArc
 50
359.99870219
 51
90.00129780999998
  0
ARC
  5
193
330
1D
100
AcDbEntity
  8
BLACK
100
AcDbCircle
 10
204.275047
 20
-4.974953
 30
0.0
 40
2.075047000532277
100
AcDbArc
 50
180.00129775
 51
269.99870225
  0
ARC
  5
194
330
1D
100
AcDbEntity
  8
BLACK
100
AcDbCircle
 10
185.225047
 20
4.975047
 30
0.0
 40
2.075047000532277
100
AcDbArc
 50
90.00129780999998
 51
180.00129775
  0
ARC
  5
195
330
1D
100
AcDbEntity
  8
BLACK
100
AcDbCircle
 10
195.775047
 20
4.975047
 30
0.0
 40
2.074953000532301
100
AcDbArc
 50
359.99870219
 51
90.00129780999998
  0
ARC
  5
196
330
1D
100
AcDbEntity
  8
BLACK
100
AcDbCircle
 10
51.874999
 20
4.975001
 30
0.0
 40
2.074999000000241
100
AcDbArc
 50
89.99997238999998
 51
180.00002761
  0
ARC
  5
197
330
1D
100
AcDbEntity
  8
BLACK
100
AcDbCircle
 10
185.225047
 20
-4.974953
 30
0.0
 40
2.075047000532277
100
AcDbArc
 50
180.00129775
 51
269.99870225
  0
ARC
  5
198
330
1D
100
AcDbEntity
  8
BLACK
100
AcDbCircle
 10
195.775047
 20
-4.974953
 30
0.0
 40
2.074953000532301
100
AcDbArc
 50
269.99870225
 51
359.99870219
  0
ARC
  5
199
330
1D
100
AcDbEntity
  8
BLACK
100
AcDbCircle
 10
166.175047
 20
4.975047
 30
0.0
 40
2.075047000532277
100
AcDbArc
 50
90.00129780999998
 51
180.00129775
  0
ARC
  5
19A
330
1D
100
AcDbEntity
  8
BLACK
100
AcDbCircle
 10
176.725047
 20
-4.974953
 30
0.0
 40
2.074953000532301
100
AcDbArc
 50
269.99870225
 51
359.99870219
  0
ARC
  5
19B
330
1D
100
AcDbEntity
  8
BLACK
100
AcDbCircle
 10
176.725047
 20
4.975047
 30
0.0
 40
2.074953000532301
100
AcDbArc
 50
359.99870219
 51
90.00129780999998
  0
ARC
  5
19C
330
1D
100
AcDbEntity
  8
BLACK
100
AcDbCircle
 10
166.175047
 20
-4.974953
 30
0.0
 40
2.075047000532277
100
AcDbArc
 50
180.00129775
 51
269.99870225
  0
ARC
  5
19D
330
1D
100
AcDbEntity
  8
BLACK
100
AcDbCircle
 10
147.124997
 20
4.974997
 30
0.0
 40
2.074997000002169
100
AcDbArc
 50
89.99991715999998
 51
179.99991716
  0
ARC
  5
19E
330
1D
100
AcDbEntity
  8
BLACK
100
AcDbCircle
 10
157.675047
 20
4.975047
 30
0.0
 40
2.074953000532301
100
AcDbArc
 50
359.99870219
 51
90.00129780999998
  0
ARC
  5
19F
330
1D
100
AcDbEntity
  8
BLACK
100
AcDbCircle
 10
147.125047
 20
-4.974953
 30
0.0
 40
2.075047000532277
100
AcDbArc
 50
180.00129775
 51
269.99870225
  0
ARC
  5
1A0
330
1D
100
AcDbEntity
  8
BLACK
100
AcDbCircle
 10
128.074997
 20
4.974997
 30
0.0
 40
2.074997000002169
100
AcDbArc
 50
89.99991715999998
 51
179.99991716
  0
ARC
  5
1A1
330
1D
100
AcDbEntity
  8
BLACK
100
AcDbCircle
 10
138.624997
 20
-4.975003
 30
0.0
 40
2.075003000002169
100
AcDbArc
 50
270.00008284
 51
8.284e-05
  0
ARC
  5
1A2
330
1D
100
AcDbEntity
  8
BLACK
100
AcDbCircle
 10
138.625047
 20
4.975047
 30
0.0
 40
2.074953000532301
100
AcDbArc
 50
359.99870219
 51
90.00129780999998
  0
ARC
  5
1A3
330
1D
100
AcDbEntity
  8
BLACK
100
AcDbCircle
 10
128.075047
 20
-4.974953
 30
0.0
 40
2.075047000532277
100
AcDbArc
 50
180.00129775
 51
269.99870225
  0
ARC
  5
1A4
330
1D
100
AcDbEntity
  8
BLACK
100
AcDbCircle
 10
109.024997
 20
4.974997
 30
0.0
 40
2.074997000002169
100
AcDbArc
 50
89.99991715999998
 51
179.99991716
  0
ARC
  5
1A5
330
1D
100
AcDbEntity
  8
BLACK
100
AcDbCircle
 10
119.575047
 20
4.975047
 30
0.0
 40
2.074953000532301
100
AcDbArc
 50
359.99870219
 51
90.00129780999998
  0
ARC
  5
1A6
330
1D
100
AcDbEntity
  8
BLACK
100
AcDbCircle
 10
109.024997
 20
-4.975003
 30
0.0
 40
2.074997000002169
100
AcDbArc
 50
179.99991716
 51
270.00008284
  0
ARC
  5
1A7
330
1D
100
AcDbEntity
  8
BLACK
100
AcDbCircle
 10
157.674997
 20
-4.975003
 30
0.0
 40
2.075003000002169
100
AcDbArc
 50
270.00008284
 51
8.284e-05
  0
ARC
  5
1A8
330
1D
100
AcDbEntity
  8
BLACK
100
AcDbCircle
 10
119.574997
 20
-4.975003
 30
0.0
 40
2.075003000002169
100
AcDbArc
 50
270.00008284
 51
8.284e-05
  0
ARC
  5
1A9
330
1D
100
AcDbEntity
  8
BLACK
100
AcDbCircle
 10
89.974999
 20
4.975001
 30
0.0
 40
2.074999000000241
100
AcDbArc
 50
89.99997238999998
 51
180.00002761
  0
ARC
  5
1AA
330
1D
100
AcDbEntity
  8
BLACK
100
AcDbCircle
 10
100.524997
 20
-4.975003
 30
0.0
 40
2.075003000002169
100
AcDbArc
 50
270.00008284
 51
8.284e-05
  0
ARC
  5
1AB
330
1D
100
AcDbEntity
  8
BLACK
100
AcDbCircle
 10
100.524997
 20
4.974997
 30
0.0
 40
2.075003000002169
100
AcDbArc
 50
8.284e-05
 51
89.99991715999998
  0
ARC
  5
1AC
330
1D
100
AcDbEntity
  8
BLACK
100
AcDbCircle
 10
89.974997
 20
-4.975003
 30
0.0
 40
2.074997000002169
100
AcDbArc
 50
179.99991716
 51
270.00008284
  0
ARC
  5
1AD
330
1D
100
AcDbEntity
  8
BLACK
100
AcDbCircle
 10
70.924999
 20
4.975001
 30
0.0
 40
2.074999000000241
100
AcDbArc
 50
89.99997238999998
 51
180.00002761
  0
ARC
  5
1AE
330
1D
100
AcDbEntity
  8
BLACK
100
AcDbCircle
 10
81.47500099999999
 20
4.975001
 30
0.0
 40
2.074999000000241
100
AcDbArc
 50
359.9999723899999
 51
90.00002761
  0
ARC
  5
1AF
330
1D
100
AcDbEntity
  8
BLACK
100
AcDbCircle
 10
51.874999
 20
-4.975001
 30
0.0
 40
2.074999000000241
100
AcDbArc
 50
179.99997239
 51
270.0000276100001
  0
ARC
  5
1B0
330
1D
100
AcDbEntity
  8
BLACK
100
AcDbCircle
 10
62.42500099999999
 20
-4.975001
 30
0.0
 40
2.074999000000241
100
AcDbArc
 50
269.99997239
 51
2.761e-05
  0
ARC
  5
1B1
330
1D
100
AcDbEntity
  8
BLACK
100
AcDbCircle
 10
5.275001
 20
-4.975001
 30
0.0
 40
2.074999000000241
100
AcDbArc
 50
269.99997239
 51
2.761e-05
  0
ARC
  5
1B2
330
1D
100
AcDbEntity
  8
BLACK
100
AcDbCircle
 10
62.42500099999999
 20
4.975001
 30
0.0
 40
2.074999000000241
100
AcDbArc
 50
359.9999723899999
 51
90.00002761
  0
ARC
  5
1B3
330
1D
100
AcDbEntity
  8
BLACK
100
AcDbCircle
 10
24.325001
 20
-4.975001
 30
0.0
 40
2.074999000000241
100
AcDbArc
 50
269.99997239
 51
2.761e-05
  0
ARC
  5
1B4
330
1D
100
AcDbEntity
  8
BLACK
100
AcDbCircle
 10
5.275001
 20
4.975001
 30
0.0
 40
2.074999000000241
100
AcDbArc
 50
359.9999723899999
 51
90.00002761
  0
ARC
  5
1B5
330
1D
100
AcDbEntity
  8
BLACK
100
AcDbCircle
 10
32.824999
 20
4.975001
 30
0.0
 40
2.074999000000241
100
AcDbArc
 50
89.99997238999998
 51
180.00002761
  0
ARC
  5
1B6
330
1D
100
AcDbEntity
  8
BLACK
100
AcDbCircle
 10
43.375001
 20
-4.975001
 30
0.0
 40
2.074999000000241
100
AcDbArc
 50
269.99997239
 51
2.761e-05
  0
ARC
  5
1B7
330
1D
100
AcDbEntity
  8
BLACK
100
AcDbCircle
 10
13.774999
 20
-4.975001
 30
0.0
 40
2.074999000000241
100
AcDbArc
 50
179.99997239
 51
270.0000276100001
  0
ARC
  5
1B8
330
1D
100
AcDbEntity
  8
BLACK
100
AcDbCircle
 10
32.824999
 20
-4.975001
 30
0.0
 40
2.074999000000241
100
AcDbArc
 50
179.99997239
 51
270.0000276100001
  0
ARC
  5
1B9
330
1D
100
AcDbEntity
  8
BLACK
100
AcDbCircle
 10
24.325001
 20
4.975001
 30
0.0
 40
2.074999000000241
100
AcDbArc
 50
359.9999723899999
 51
90.00002761
  0
ARC
  5
1BA
330
1D
100
AcDbEntity
  8
BLACK
100
AcDbCircle
 10
-5.275001
 20
4.975001
 30
0.0
 40
2.074999
100
AcDbArc
 50
90.0
 51
180.0
  0
ARC
  5
1BB
330
1D
100
AcDbEntity
  8
BLACK
100
AcDbCircle
 10
-5.275001
 20
-4.975001
 30
0.0
 40
2.074999000000241
100
AcDbArc
 50
180.0
 51
270.0000276100001
  0
ARC
  5
1BC
330
1D
100
AcDbEntity
  8
BLACK
100
AcDbCircle
 10
13.774999
 20
4.975001
 30
0.0
 40
2.074999000000241
100
AcDbArc
 50
89.99997238999998
 51
180.00002761
  0
ARC
  5
1BD
330
1D
100
AcDbEntity
  8
BLACK
100
AcDbCircle
 10
81.47500099999999
 20
-4.975001
 30
0.0
 40
2.074999000000241
100
AcDbArc
 50
269.99997239
 51
2.761e-05
  0
ARC
  5
1BE
330
1D
100
AcDbEntity
  8
BLACK
100
AcDbCircle
 10
43.375001
 20
4.975001
 30
0.0
 40
2.074999000000241
100
AcDbArc
 50
359.9999723899999
 51
90.00002761
  0
ARC
  5
1BF
330
1D
100
AcDbEntity
  8
BLACK
100
AcDbCircle
 10
70.924999
 20
-4.975001
 30
0.0
 40
2.074999000000241
100
AcDbArc
 50
179.99997239
 51
270.0000276100001
  0
ARC
  5
1C0
330
1D
100
AcDbEntity
  8
BLACK
100
AcDbCircle
 10
133.35
 20
12.149998
 30
0.0
 40
1.999998985000242
100
AcDbArc
 50
38.68217404
 51
141.31782596
  0
ARC
  5
1C1
330
1D
100
AcDbEntity
  8
BLACK
100
AcDbCircle
 10
9.074971999999999
 20
9.599985
 30
0.0
 40
0.499988
100
AcDbArc
 50
89.71616583999997
 51
270.0
  0
ARC
  5
1C2
330
1D
100
AcDbEntity
  8
BLACK
100
AcDbCircle
 10
113.849972
 20
9.599985
 30
0.0
 40
0.499988
100
AcDbArc
 50
89.71616583999997
 51
270.0
  0
LINE
  5
1C3
330
1D
100
AcDbEntity
  8
BLACK
  6
Continuous
100
AcDbLine
 10
58.50624999999999
 20
10.410384
 30
0.0
 11
58.50624999999999
 21
11.619835
 31
0.0
  0
ARC
  5
1C4
330
1D
100
AcDbEntity
  8
BLACK
100
AcDbCircle
 10
-8.600028
 20
8.599985
 30
0.0
 40
0.999972
100
AcDbArc
 50
89.99873951
 51
180.0
  0
LINE
  5
1C5
330
1D
100
AcDbEntity
  8
BLACK
  6
Continuous
100
AcDbLine
 10
-2.156228
 20
9.600007
 30
0.0
 11
-2.156228
 21
9.599997
 31
0.0
  0
ARC
  5
1C6
330
1D
100
AcDbEntity
  8
BLACK
100
AcDbCircle
 10
48.074972
 20
9.599985
 30
0.0
 40
0.500012
100
AcDbArc
 50
270.00320849
 51
90.0
  0
ARC
  5
1C7
330
1D
100
AcDbEntity
  8
BLACK
100
AcDbCircle
 10
135.535872
 20
13.900185
 30
0.0
 40
0.800188
100
AcDbArc
 50
218.68718212
 51
270.0
  0
ARC
  5
1C8
330
1D
100
AcDbEntity
  8
BLACK
100
AcDbCircle
 10
30.760672
 20
13.899785
 30
0.0
 40
0.7997879999999999
100
AcDbArc
 50
218.67381541
 51
270.0
  0
ARC
  5
1C9
330
1D
100
AcDbEntity
  8
BLACK
100
AcDbCircle
 10
102.618772
 20
10.399985
 30
0.0
 40
0.799978
100
AcDbArc
 50
269.99842434
 51
0.0
  0
ARC
  5
1CA
330
1D
100
AcDbEntity
  8
BLACK
100
AcDbCircle
 10
28.575
 20
12.149997
 30
0.0
 40
1.999999610000212
100
AcDbArc
 50
38.68217849
 51
141.3178036
  0
LINE
  5
1CB
330
1D
100
AcDbEntity
  8
BLACK
  6
Continuous
100
AcDbLine
 10
103.41875
 20
10.399985
 30
0.0
 11
103.41875
 21
11.600085
 31
0.0
  0
ARC
  5
1CC
330
1D
100
AcDbEntity
  8
BLACK
100
AcDbCircle
 10
131.164072
 20
13.900085
 30
0.0
 40
0.8001948892519872
100
AcDbArc
 50
270.7374180800001
 51
321.32091329
  0
ARC
  5
1CD
330
1D
100
AcDbEntity
  8
BLACK
100
AcDbCircle
 10
0.143772
 20
11.599985
 30
0.0
 40
1.500022
100
AcDbArc
 50
90.00084033
 51
180.0
  0
ARC
  5
1CE
330
1D
100
AcDbEntity
  8
BLACK
100
AcDbCircle
 10
59.306372
 20
10.400185
 30
0.0
 40
0.800188
100
AcDbArc
 50
179.26970136
 51
270.0
  0
LINE
  5
1CF
330
1D
100
AcDbEntity
  8
BLACK
  6
Continuous
100
AcDbLine
 10
-8.600006
 20
9.599997
 30
0.0
 11
-2.156228
 21
9.599997
 31
0.0
  0
ARC
  5
1D0
330
1D
100
AcDbEntity
  8
BLACK
100
AcDbCircle
 10
57.006072
 20
11.599685
 30
0.0
 40
1.50031200333264
100
AcDbArc
 50
0.7695357099999999
 51
89.99618108000001
  0
ARC
  5
1D1
330
1D
100
AcDbEntity
  8
BLACK
100
AcDbCircle
 10
104.918772
 20
11.599985
 30
0.0
 40
1.500022003333285
100
AcDbArc
 50
89.79461625000002
 51
179.99618034
  0
LINE
  5
1D2
330
1D
100
AcDbEntity
  8
BLACK
  6
Continuous
100
AcDbLine
 10
0.14375
 20
13.099997
 30
0.0
 11
26.39937
 21
13.099997
 31
0.0
  0
ARC
  5
1D3
330
1D
100
AcDbEntity
  8
BLACK
100
AcDbCircle
 10
-2.156228
 20
10.399985
 30
0.0
 40
0.799978
100
AcDbArc
 50
270.0
 51
0.0
  0
LINE
  5
1D4
330
1D
100
AcDbEntity
  8
BLACK
  6
Continuous
100
AcDbLine
 10
104.924149
 20
13.099997
 30
0.0
 11
131.17437
 21
13.099997
 31
0.0
  0
LINE
  5
1D5
330
1D
100
AcDbEntity
  8
BLACK
  6
Continuous
100
AcDbLine
 10
59.306372
 20
9.599997
 30
0.0
 11
102.61875
 21
9.599997
 31
0.0
  0
LINE
  5
1D6
330
1D
100
AcDbEntity
  8
BLACK
  6
Continuous
100
AcDbLine
 10
30.760672
 20
13.099997
 30
0.0
 11
57.006172
 21
13.099997
 31
0.0
  0
ARC
  5
1D7
330
1D
100
AcDbEntity
  8
BLACK
100
AcDbCircle
 10
26.389072
 20
13.900085
 30
0.0
 40
0.8001948892519872
100
AcDbArc
 50
270.7374180800001
 51
321.32091329
  0
LINE
  5
1D8
330
1D
100
AcDbEntity
  8
BLACK
  6
Continuous
100
AcDbLine
 10
-1.35625
 20
10.399985
 30
0.0
 11
-1.35625
 21
11.599985
 31
0.0
  0
LINE
  5
1D9
330
1D
100
AcDbEntity
  8
BLACK
  6
Continuous
100
AcDbLine
 10
9.077449
 20
10.099997
 30
0.0
 11
48.074972
 21
10.099997
 31
0.0
  0
LINE
  5
1DA
330
1D
100
AcDbEntity
  8
BLACK
  6
Continuous
100
AcDbLine
 10
9.074971999999999
 20
9.099997
 30
0.0
 11
48.075
 21
9.099997
 31
0.0
  0
CIRCLE
  5
1DB
330
1D
100
AcDbEntity
  8
BLACK
100
AcDbCircle
 10
28.575
 20
12.149997
 30
0.0
 40
0.985
  0
CIRCLE
  5
1DC
330
1D
100
AcDbEntity
  8
BLACK
100
AcDbCircle
 10
133.35
 20
12.149997
 30
0.0
 40
0.985
  0
ARC
  5
1DD
330
1D
100
AcDbEntity
  8
BLACK
100
AcDbCircle
 10
207.393772
 20
10.399985
 30
0.0
 40
0.799978
100
AcDbArc
 50
269.99842434
 51
0.0
  0
LINE
  5
1DE
330
1D
100
AcDbEntity
  8
BLACK
  6
Continuous
100
AcDbLine
 10
135.535872
 20
13.099997
 30
0.0
 11
161.781172
 21
13.099997
 31
0.0
  0
ARC
  5
1DF
330
1D
100
AcDbEntity
  8
BLACK
100
AcDbCircle
 10
240.310872
 20
13.900185
 30
0.0
 40
0.800188
100
AcDbArc
 50
218.68718212
 51
270.0
  0
ARC
  5
1E0
330
1D
100
AcDbEntity
  8
BLACK
100
AcDbCircle
 10
218.624972
 20
9.599985
 30
0.0
 40
0.499988
100
AcDbArc
 50
89.71616583999997
 51
270.0
  0
ARC
  5
1E1
330
1D
100
AcDbEntity
  8
BLACK
100
AcDbCircle
 10
235.939172
 20
13.900085
 30
0.0
 40
0.8001160452259409
100
AcDbArc
 50
270.00200517
 51
321.31639326
  0
LINE
  5
1E2
330
1D
100
AcDbEntity
  8
BLACK
  6
Continuous
100
AcDbLine
 10
113.849972
 20
9.099997
 30
0.0
 11
152.85
 21
9.099997
 31
0.0
  0
ARC
  5
1E3
330
1D
100
AcDbEntity
  8
BLACK
100
AcDbCircle
 10
161.781072
 20
11.599685
 30
0.0
 40
1.50031200333264
100
AcDbArc
 50
0.7695357099999999
 51
89.99618108000001
  0
ARC
  5
1E4
330
1D
100
AcDbEntity
  8
BLACK
100
AcDbCircle
 10
164.081372
 20
10.400185
 30
0.0
 40
0.800188
100
AcDbArc
 50
179.26970136
 51
270.0
  0
ARC
  5
1E5
330
1D
100
AcDbEntity
  8
BLACK
100
AcDbCircle
 10
257.624972
 20
9.599985
 30
0.0
 40
0.500012
100
AcDbArc
 50
270.00320849
 51
90.0
  0
ARC
  5
1E6
330
1D
100
AcDbEntity
  8
BLACK
100
AcDbCircle
 10
209.693772
 20
11.599985
 30
0.0
 40
1.500022003333285
100
AcDbArc
 50
89.79461625000002
 51
179.99618034
  0
ARC
  5
1E7
330
1D
100
AcDbEntity
  8
BLACK
100
AcDbCircle
 10
238.125
 20
12.149997
 30
0.0
 40
2.000000390624962
100
AcDbArc
 50
38.6821964
 51
141.31782151
  0
LINE
  5
1E8
330
1D
100
AcDbEntity
  8
BLACK
  6
Continuous
100
AcDbLine
 10
218.624972
 20
9.099997
 30
0.0
 11
257.625
 21
9.099997
 31
0.0
  0
LINE
  5
1E9
330
1D
100
AcDbEntity
  8
BLACK
  6
Continuous
100
AcDbLine
 10
240.310872
 20
13.099997
 30
0.0
 11
266.556172
 21
13.099997
 31
0.0
  0
ARC
  5
1EA
330
1D
100
AcDbEntity
  8
BLACK
100
AcDbCircle
 10
152.849972
 20
9.599985
 30
0.0
 40
0.500012
100
AcDbArc
 50
270.00320849
 51
90.0
  0
LINE
  5
1EB
330
1D
100
AcDbEntity
  8
BLACK
  6
Continuous
100
AcDbLine
 10
209.699149
 20
13.099997
 30
0.0
 11
235.9392
 21
13.099997
 31
0.0
  0
LINE
  5
1EC
330
1D
100
AcDbEntity
  8
BLACK
  6
Continuous
100
AcDbLine
 10
208.19375
 20
10.399985
 30
0.0
 11
208.19375
 21
11.600085
 31
0.0
  0
LINE
  5
1ED
330
1D
100
AcDbEntity
  8
BLACK
  6
Continuous
100
AcDbLine
 10
164.081372
 20
9.599997
 30
0.0
 11
207.39375
 21
9.599997
 31
0.0
  0
LINE
  5
1EE
330
1D
100
AcDbEntity
  8
BLACK
  6
Continuous
100
AcDbLine
 10
163.28125
 20
10.410384
 30
0.0
 11
163.28125
 21
11.619835
 31
0.0
  0
LINE
  5
1EF
330
1D
100
AcDbEntity
  8
BLACK
  6
Continuous
100
AcDbLine
 10
113.852449
 20
10.099997
 30
0.0
 11
152.849972
 21
10.099997
 31
0.0
  0
CIRCLE
  5
1F0
330
1D
100
AcDbEntity
  8
BLACK
100
AcDbCircle
 10
238.125
 20
12.149997
 30
0.0
 40
0.985
  0
LINE
  5
1F1
330
1D
100
AcDbEntity
  8
BLACK
  6
Continuous
100
AcDbLine
 10
218.627449
 20
10.099997
 30
0.0
 11
257.624972
 21
10.099997
 31
0.0
  0
ARC
  5
1F2
330
1D
100
AcDbEntity
  8
BLACK
100
AcDbCircle
 10
275.299972
 20
8.599985
 30
0.0
 40
1.000012
100
AcDbArc
 50
0.0
 51
90.0
  0
LINE
  5
1F3
330
1D
100
AcDbEntity
  8
BLACK
  6
Continuous
100
AcDbLine
 10
276.299984
 20
8.599985
 30
0.0
 11
276.3
 21
8.599985
 31
0.0
  0
LINE
  5
1F4
330
1D
100
AcDbEntity
  8
BLACK
  6
Continuous
100
AcDbLine
 10
268.05625
 20
10.410384
 30
0.0
 11
268.05625
 21
11.619835
 31
0.0
  0
ARC
  5
1F5
330
1D
100
AcDbEntity
  8
BLACK
100
AcDbCircle
 10
268.856372
 20
10.400185
 30
0.0
 40
0.800188
100
AcDbArc
 50
179.26970136
 51
270.0
  0
ARC
  5
1F6
330
1D
100
AcDbEntity
  8
BLACK
100
AcDbCircle
 10
266.556072
 20
11.599685
 30
0.0
 40
1.50031200333264
100
AcDbArc
 50
0.7695357099999999
 51
89.99618108000001
  0
LINE
  5
1F7
330
1D
100
AcDbEntity
  8
BLACK
  6
Continuous
100
AcDbLine
 10
268.856372
 20
9.599997
 30
0.0
 11
275.299972
 21
9.599997
 31
0.0
  0
ARC
  5
1F8
330
1D
100
AcDbEntity
  8
BLACK
100
AcDbCircle
 10
28.575
 20
-88.350003
 30
0.0
 40
1.999999610000212
100
AcDbArc
 50
218.68217849
 51
321.3178036
  0
ARC
  5
1F9
330
1D
100
AcDbEntity
  8
BLACK
100
AcDbCircle
 10
-2.156228
 20
-86.600015
 30
0.0
 40
0.800012
100
AcDbArc
 50
0.52819503
 51
90.0
  0
ARC
  5
1FA
330
1D
100
AcDbEntity
  8
BLACK
100
AcDbCircle
 10
26.389372
 20
-90.09981499999999
 30
0.0
 40
0.799812
100
AcDbArc
 50
38.67712742
 51
90.0
  0
ARC
  5
1FB
330
1D
100
AcDbEntity
  8
BLACK
100
AcDbCircle
 10
59.306272
 20
-86.600015
 30
0.0
 40
0.800022
100
AcDbArc
 50
89.72104755999999
 51
180.0
  0
ARC
  5
1FC
330
1D
100
AcDbEntity
  8
BLACK
100
AcDbCircle
 10
268.856272
 20
-86.600015
 30
0.0
 40
0.800022
100
AcDbArc
 50
89.72104755999999
 51
180.0
  0
LINE
  5
1FD
330
1D
100
AcDbEntity
  8
BLACK
  6
Continuous
100
AcDbLine
 10
9.077449
 20
-85.30000299999999
 30
0.0
 11
48.074972
 21
-85.30000299999999
 31
0.0
  0
ARC
  5
1FE
330
1D
100
AcDbEntity
  8
BLACK
100
AcDbCircle
 10
30.760672
 20
-90.099915
 30
0.0
 40
0.7998850484119577
100
AcDbArc
 50
89.65389963
 51
141.31929494
  0
ARC
  5
1FF
330
1D
100
AcDbEntity
  8
BLACK
100
AcDbCircle
 10
57.006272
 20
-87.800015
 30
0.0
 40
1.499978
100
AcDbArc
 50
269.99915966
 51
0.0
  0
ARC
  5
200
330
1D
100
AcDbEntity
  8
BLACK
100
AcDbCircle
 10
240.310672
 20
-90.099915
 30
0.0
 40
0.7998850484119577
100
AcDbArc
 50
89.65389963
 51
141.31929494
  0
ARC
  5
201
330
1D
100
AcDbEntity
  8
BLACK
100
AcDbCircle
 10
48.074972
 20
-85.800015
 30
0.0
 40
0.500012
100
AcDbArc
 50
270.00320849
 51
90.0
  0
LINE
  5
202
330
1D
100
AcDbEntity
  8
BLACK
  6
Continuous
100
AcDbLine
 10
268.860167
 20
-85.80000299999999
 30
0.0
 11
275.3
 21
-85.80000299999999
 31
0.0
  0
LINE
  5
203
330
1D
100
AcDbEntity
  8
BLACK
  6
Continuous
100
AcDbLine
 10
218.624972
 20
-86.30000299999999
 30
0.0
 11
257.625
 21
-86.30000299999999
 31
0.0
  0
ARC
  5
204
330
1D
100
AcDbEntity
  8
BLACK
100
AcDbCircle
 10
-8.600028
 20
-84.800015
 30
0.0
 40
0.999988
100
AcDbArc
 50
179.68618537
 51
270.0
  0
ARC
  5
205
330
1D
100
AcDbEntity
  8
BLACK
100
AcDbCircle
 10
0.143772
 20
-87.800015
 30
0.0
 40
1.499988
100
AcDbArc
 50
179.99942705
 51
270.0
  0
LINE
  5
206
330
1D
100
AcDbEntity
  8
BLACK
  6
Continuous
100
AcDbLine
 10
30.765504
 20
-89.30000299999999
 30
0.0
 11
57.00624999999999
 21
-89.30000299999999
 31
0.0
  0
LINE
  5
207
330
1D
100
AcDbEntity
  8
BLACK
  6
Continuous
100
AcDbLine
 10
-8.600028
 20
-85.80000299999999
 30
0.0
 11
-2.156228
 21
-85.80000299999999
 31
0.0
  0
LINE
  5
208
330
1D
100
AcDbEntity
  8
BLACK
  6
Continuous
100
AcDbLine
 10
240.315504
 20
-89.30000299999999
 30
0.0
 11
266.55625
 21
-89.30000299999999
 31
0.0
  0
ARC
  5
209
330
1D
100
AcDbEntity
  8
BLACK
100
AcDbCircle
 10
238.125
 20
-88.350003
 30
0.0
 40
1.999999610000212
100
AcDbArc
 50
218.68217849
 51
321.3178036
  0
LINE
  5
20A
330
1D
100
AcDbEntity
  8
BLACK
  6
Continuous
100
AcDbLine
 10
209.693872
 20
-89.30000299999999
 30
0.0
 11
235.939372
 21
-89.30000299999999
 31
0.0
  0
ARC
  5
20B
330
1D
100
AcDbEntity
  8
BLACK
100
AcDbCircle
 10
275.299972
 20
-84.800015
 30
0.0
 40
1.000028
100
AcDbArc
 50
270.00160424
 51
0.0
  0
ARC
  5
20C
330
1D
100
AcDbEntity
  8
BLACK
100
AcDbCircle
 10
257.624972
 20
-85.800015
 30
0.0
 40
0.500012
100
AcDbArc
 50
270.00320849
 51
90.0
  0
LINE
  5
20D
330
1D
100
AcDbEntity
  8
BLACK
  6
Continuous
100
AcDbLine
 10
0.143772
 20
-89.30000299999999
 30
0.0
 11
26.389372
 21
-89.30000299999999
 31
0.0
  0
LINE
  5
20E
330
1D
100
AcDbEntity
  8
BLACK
  6
Continuous
100
AcDbLine
 10
276.3
 20
-84.800015
 30
0.0
 11
276.3
 21
8.599985
 31
0.0
  0
ARC
  5
20F
330
1D
100
AcDbEntity
  8
BLACK
100
AcDbCircle
 10
218.624972
 20
-85.800015
 30
0.0
 40
0.499988
100
AcDbArc
 50
89.71616583999997
 51
270.0
  0
ARC
  5
210
330
1D
100
AcDbEntity
  8
BLACK
100
AcDbCircle
 10
209.693872
 20
-87.799815
 30
0.0
 40
1.500188
100
AcDbArc
 50
179.46667327
 51
270.0
  0
ARC
  5
211
330
1D
100
AcDbEntity
  8
BLACK
100
AcDbCircle
 10
207.393772
 20
-86.600015
 30
0.0
 40
0.800012
100
AcDbArc
 50
0.53535658
 51
90.0
  0
ARC
  5
212
330
1D
100
AcDbEntity
  8
BLACK
100
AcDbCircle
 10
235.939372
 20
-90.09981499999999
 30
0.0
 40
0.799812
100
AcDbArc
 50
38.67712742
 51
90.0
  0
ARC
  5
213
330
1D
100
AcDbEntity
  8
BLACK
100
AcDbCircle
 10
266.556272
 20
-87.800015
 30
0.0
 40
1.499978
100
AcDbArc
 50
269.99915966
 51
0.0
  0
ARC
  5
214
330
1D
100
AcDbEntity
  8
BLACK
100
AcDbCircle
 10
9.074971999999999
 20
-85.800015
 30
0.0
 40
0.499988
100
AcDbArc
 50
89.71616583999997
 51
270.0
  0
LINE
  5
215
330
1D
100
AcDbEntity
  8
BLACK
  6
Continuous
100
AcDbLine
 10
58.50624999999999
 20
-87.800015
 30
0.0
 11
58.50624999999999
 21
-86.600015
 31
0.0
  0
LINE
  5
216
330
1D
100
AcDbEntity
  8
BLACK
  6
Continuous
100
AcDbLine
 10
208.19375
 20
-87.785851
 30
0.0
 11
208.19375
 21
-86.59254
 31
0.0
  0
LINE
  5
217
330
1D
100
AcDbEntity
  8
BLACK
  6
Continuous
100
AcDbLine
 10
-9.6
 20
-84.794538
 30
0.0
 11
-9.6
 21
8.599985
 31
0.0
  0
LINE
  5
218
330
1D
100
AcDbEntity
  8
BLACK
  6
Continuous
100
AcDbLine
 10
-1.35625
 20
-87.8
 30
0.0
 11
-1.35625
 21
-86.59264
 31
0.0
  0
LINE
  5
219
330
1D
100
AcDbEntity
  8
BLACK
  6
Continuous
100
AcDbLine
 10
9.074971999999999
 20
-86.30000299999999
 30
0.0
 11
48.075
 21
-86.30000299999999
 31
0.0
  0
CIRCLE
  5
21A
330
1D
100
AcDbEntity
  8
BLACK
100
AcDbCircle
 10
28.575
 20
-88.350003
 30
0.0
 40
0.985
  0
LINE
  5
21B
330
1D
100
AcDbEntity
  8
BLACK
  6
Continuous
100
AcDbLine
 10
59.310167
 20
-85.80000299999999
 30
0.0
 11
207.393772
 21
-85.80000299999999
 31
0.0
  0
LINE
  5
21C
330
1D
100
AcDbEntity
  8
BLACK
  6
Continuous
100
AcDbLine
 10
268.05625
 20
-87.800015
 30
0.0
 11
268.05625
 21
-86.600015
 31
0.0
  0
LINE
  5
21D
330
1D
100
AcDbEntity
  8
BLACK
  6
Continuous
100
AcDbLine
 10
218.627449
 20
-85.30000299999999
 30
0.0
 11
257.624972
 21
-85.30000299999999
 31
0.0
  0
CIRCLE
  5
21E
330
1D
100
AcDbEntity
  8
BLACK
100
AcDbCircle
 10
238.125
 20
-88.350003
 30
0.0
 40
0.985
  0
LINE
  5
25B
330
1D
100
AcDbEntity
  8
BLACK
  6
Continuous
100
AcDbLine
 10
-4.96875
 20
-33.125
 30
0.0
 11
-4.96875
 21
-43.075001
 31
0.0
  0
LINE
  5
25C
330
1D
100
AcDbEntity
  8
BLACK
  6
Continuous
100
AcDbLine
 10
7.65625
 20
-31.05
 30
0.0
 11
-2.893751
 21
-31.05
 31
0.0
  0
LINE
  5
25D
330
1D
100
AcDbEntity
  8
BLACK
  6
Continuous
100
AcDbLine
 10
7.65625
 20
-45.15
 30
0.0
 11
-2.89375
 21
-45.15
 31
0.0
  0
LINE
  5
25E
330
1D
100
AcDbEntity
  8
BLACK
  6
Continuous
100
AcDbLine
 10
9.73125
 20
-33.125
 30
0.0
 11
9.73125
 21
-43.075
 31
0.0
  0
ARC
  5
25F
330
1D
100
AcDbEntity
  8
BLACK
100
AcDbCircle
 10
-2.893746
 20
-33.125004
 30
0.0
 40
2.075004000003855
100
AcDbArc
 50
90.00013806
 51
179.99988955
  0
ARC
  5
260
330
1D
100
AcDbEntity
  8
BLACK
100
AcDbCircle
 10
-2.893748
 20
-43.074998
 30
0.0
 40
2.075002000000964
100
AcDbArc
 50
180.00008284
 51
269.99994478
  0
ARC
  5
261
330
1D
100
AcDbEntity
  8
BLACK
100
AcDbCircle
 10
7.65625
 20
-33.125
 30
0.0
 40
2.075
100
AcDbArc
 50
0.0
 51
90.0
  0
ARC
  5
262
330
1D
100
AcDbEntity
  8
BLACK
100
AcDbCircle
 10
7.65625
 20
-43.075
 30
0.0
 40
2.075
100
AcDbArc
 50
270.0
 51
0.0
  0
LINE
  5
263
330
1D
100
AcDbEntity
  8
BLACK
  6
Continuous
100
AcDbLine
 10
271.975
 20
-7.05
 30
0.0
 11
261.425
 21
-7.05
 31
0.0
  0
LINE
  5
264
330
1D
100
AcDbEntity
  8
BLACK
  6
Continuous
100
AcDbLine
 10
271.975
 20
7.05
 30
0.0
 11
261.424999
 21
7.05
 31
0.0
  0
LINE
  5
265
330
1D
100
AcDbEntity
  8
BLACK
  6
Continuous
100
AcDbLine
 10
259.35
 20
4.975
 30
0.0
 11
259.35
 21
-4.975001
 31
0.0
  0
ARC
  5
266
330
1D
100
AcDbEntity
  8
BLACK
100
AcDbCircle
 10
261.424999
 20
4.975001
 30
0.0
 40
2.074999000000241
100
AcDbArc
 50
90.0
 51
180.00002761
  0
ARC
  5
267
330
1D
100
AcDbEntity
  8
BLACK
100
AcDbCircle
 10
271.975
 20
-4.975
 30
0.0
 40
2.075
100
AcDbArc
 50
270.0
 51
0.0
  0
ARC
  5
268
330
1D
100
AcDbEntity
  8
BLACK
100
AcDbCircle
 10
271.975
 20
4.975
 30
0.0
 40
2.075
100
AcDbArc
 50
0.0
 51
90.0
  0
ARC
  5
269
330
1D
100
AcDbEntity
  8
BLACK
100
AcDbCircle
 10
261.424999
 20
-4.975001
 30
0.0
 40
2.074999000000241
100
AcDbArc
 50
180.0
 51
270.0000276100001
  0
LINE
  5
26A
330
1D
100
AcDbEntity
  8
BLACK
  6
Continuous
100
AcDbLine
 10
274.05
 20
4.975
 30
0.0
 11
274.05
 21
-4.975
 31
0.0
  0
LINE
  5
26B
330
1D
100
AcDbEntity
  8
BLACK
  6
Continuous
100
AcDbLine
 10
252.925
 20
-7.05
 30
0.0
 11
242.375
 21
-7.05
 31
0.0
  0
LINE
  5
26C
330
1D
100
AcDbEntity
  8
BLACK
  6
Continuous
100
AcDbLine
 10
252.925
 20
7.05
 30
0.0
 11
242.374999
 21
7.05
 31
0.0
  0
LINE
  5
26D
330
1D
100
AcDbEntity
  8
BLACK
  6
Continuous
100
AcDbLine
 10
240.3
 20
4.975
 30
0.0
 11
240.3
 21
-4.975001
 31
0.0
  0
ARC
  5
26E
330
1D
100
AcDbEntity
  8
BLACK
100
AcDbCircle
 10
242.374999
 20
4.975001
 30
0.0
 40
2.074999000000241
100
AcDbArc
 50
90.0
 51
180.00002761
  0
ARC
  5
26F
330
1D
100
AcDbEntity
  8
BLACK
100
AcDbCircle
 10
252.925
 20
-4.975
 30
0.0
 40
2.075
100
AcDbArc
 50
270.0
 51
0.0
  0
ARC
  5
270
330
1D
100
AcDbEntity
  8
BLACK
100
AcDbCircle
 10
252.925
 20
4.975
 30
0.0
 40
2.075
100
AcDbArc
 50
0.0
 51
90.0
  0
ARC
  5
271
330
1D
100
AcDbEntity
  8
BLACK
100
AcDbCircle
 10
242.374999
 20
-4.975001
 30
0.0
 40
2.074999000000241
100
AcDbArc
 50
180.0
 51
270.0000276100001
  0
LINE
  5
272
330
1D
100
AcDbEntity
  8
BLACK
  6
Continuous
100
AcDbLine
 10
255.0
 20
4.975
 30
0.0
 11
255.0
 21
-4.975
 31
0.0
  0
CIRCLE
  5
273
330
1D
100
AcDbEntity
  8
BLACK
100
AcDbCircle
 10
238.125
 20
0.0
 30
0.0
 40
1.0
  0
LINE
  5
274
330
1D
100
AcDbEntity
  8
BLACK
  6
Continuous
100
AcDbLine
 10
31.162476
 20
-52.174999
 30
0.0
 11
31.1625
 21
-52.174999
 31
0.0
  0
LINE
  5
275
330
1D
100
AcDbEntity
  8
BLACK
  6
Continuous
100
AcDbLine
 10
31.1625
 20
-52.174999
 30
0.0
 11
31.1625
 21
-62.124999
 31
0.0
  0
ARC
  5
276
330
1D
100
AcDbEntity
  8
BLACK
100
AcDbCircle
 10
18.537476
 20
-62.124999
 30
0.0
 40
2.075
100
AcDbArc
 50
180.2697469
 51
270.0
  0
ARC
  5
277
330
1D
100
AcDbEntity
  8
BLACK
100
AcDbCircle
 10
29.087476
 20
-52.174999
 30
0.0
 40
2.075
100
AcDbArc
 50
0.0
 51
90.0
  0
ARC
  5
278
330
1D
100
AcDbEntity
  8
BLACK
100
AcDbCircle
 10
29.087476
 20
-62.124999
 30
0.0
 40
2.075024
100
AcDbArc
 50
269.73025622
 51
0.0
  0
ARC
  5
279
330
1D
100
AcDbEntity
  8
BLACK
100
AcDbCircle
 10
18.537516
 20
-52.175019
 30
0.0
 40
2.075016
100
AcDbArc
 50
90.0
 51
180.0
  0
LINE
  5
27A
330
1D
100
AcDbEntity
  8
BLACK
  6
Continuous
100
AcDbLine
 10
16.4625
 20
-52.175019
 30
0.0
 11
16.4625
 21
-62.13476799999999
 31
0.0
  0
LINE
  5
27B
330
1D
100
AcDbEntity
  8
BLACK
  6
Continuous
100
AcDbLine
 10
29.087476
 20
-50.099999
 30
0.0
 11
18.537516
 21
-50.099999
 31
0.0
  0
LINE
  5
27C
330
1D
100
AcDbEntity
  8
BLACK
  6
Continuous
100
AcDbLine
 10
29.077707
 20
-64.19999899999999
 30
0.0
 11
18.537476
 21
-64.19999899999999
 31
0.0
  0
LINE
  5
27D
330
1D
100
AcDbEntity
  8
BLACK
  6
Continuous
100
AcDbLine
 10
9.731226
 20
-52.174999
 30
0.0
 11
9.731226
 21
-62.124999
 31
0.0
  0
ARC
  5
27E
330
1D
100
AcDbEntity
  8
BLACK
100
AcDbCircle
 10
-2.893775
 20
-62.125
 30
0.0
 40
2.074999
100
AcDbArc
 50
179.99997239
 51
270.0
  0
ARC
  5
27F
330
1D
100
AcDbEntity
  8
BLACK
100
AcDbCircle
 10
7.656225999999999
 20
-52.174999
 30
0.0
 40
2.075
100
AcDbArc
 50
0.0
 51
90.0
  0
ARC
  5
280
330
1D
100
AcDbEntity
  8
BLACK
100
AcDbCircle
 10
7.656225999999999
 20
-62.124999
 30
0.0
 40
2.075
100
AcDbArc
 50
270.0
 51
0.0
  0
ARC
  5
281
330
1D
100
AcDbEntity
  8
BLACK
100
AcDbCircle
 10
-2.893775
 20
-52.174998
 30
0.0
 40
2.074999
100
AcDbArc
 50
90.0
 51
180.0
  0
LINE
  5
282
330
1D
100
AcDbEntity
  8
BLACK
  6
Continuous
100
AcDbLine
 10
-4.968774
 20
-52.174998
 30
0.0
 11
-4.968774
 21
-62.124999
 31
0.0
  0
LINE
  5
283
330
1D
100
AcDbEntity
  8
BLACK
  6
Continuous
100
AcDbLine
 10
7.656225999999999
 20
-50.099999
 30
0.0
 11
-2.893775
 21
-50.099999
 31
0.0
  0
LINE
  5
284
330
1D
100
AcDbEntity
  8
BLACK
  6
Continuous
100
AcDbLine
 10
7.656225999999999
 20
-64.19999899999999
 30
0.0
 11
-2.893775
 21
-64.19999899999999
 31
0.0
  0
CIRCLE
  5
285
330
1D
100
AcDbEntity
  8
BLACK
100
AcDbCircle
 10
33.3375
 20
-57.15
 30
0.0
 40
1.0
  0
ARC
  5
286
330
1D
100
AcDbEntity
  8
Edge.Cuts
100
AcDbCircle
 10
235.38084999999998
 20
-52.799699999999994
 30
0.0
 40
1.425115
100
AcDbArc
 50
89.52110569
 51
180.0
  0
ARC
  5
287
330
1D
100
AcDbEntity
  8
Edge.Cuts
100
AcDbCircle
 10
261.95885
 20
-51.1973
 30
0.0
 40
1.0749000002907245
100
AcDbArc
 50
22.02043711
 51
90.00133258
  0
ARC
  5
288
330
1D
100
AcDbEntity
  8
Edge.Cuts
100
AcDbCircle
 10
264.68165
 20
-52.799499999999995
 30
0.0
 40
1.4249400002193073
100
AcDbArc
 50
-0.00241256
 51
90.00100523
  0
ARC
  5
289
330
1D
100
AcDbEntity
  8
Edge.Cuts
100
AcDbCircle
 10
239.15574999999998
 20
-62.2868
 30
0.0
 40
1.875110001499912
100
AcDbArc
 50
-159.45019556
 51
-89.9977083
  0
ARC
  5
28A
330
1D
100
AcDbEntity
  8
Edge.Cuts
100
AcDbCircle
 10
235.38065
 20
-60.400499999999994
 30
0.0
 40
1.4249400019737672
100
AcDbArc
 50
-180.0024126
 51
-89.99698431
  0
CIRCLE
  5
28B
330
1D
100
AcDbEntity
  8
Edge.Cuts
100
AcDbCircle
 10
266.43125
 20
-64.35
 30
0.0
 40
1.0
  0
CIRCLE
  5
28C
330
1D
100
AcDbEntity
  8
Edge.Cuts
100
AcDbCircle
 10
233.63125
 20
-64.35
 30
0.0
 40
1.0
  0
ARC
  5
28D
330
1D
100
AcDbEntity
  8
Edge.Cuts
100
AcDbCircle
 10
236.24634999999998
 20
-50.446099999999994
 30
0.0
 40
0.9284253091256183
100
AcDbArc
 50
-90.00154278
 51
-22.02567815
  0
ARC
  5
28E
330
1D
100
AcDbEntity
  8
Edge.Cuts
100
AcDbCircle
 10
264.68145
 20
-60.400299999999994
 30
0.0
 40
1.4251650035083656
100
AcDbArc
 50
-90.47206116
 51
-0.00402029
  0
ARC
  5
28F
330
1D
100
AcDbEntity
  8
Edge.Cuts
100
AcDbCircle
 10
263.81604999999996
 20
-50.446099999999994
 30
0.0
 40
0.9284600003365787
100
AcDbArc
 50
-157.97545325
 51
-90.00154276
  0
ARC
  5
290
330
1D
100
AcDbEntity
  8
Edge.Cuts
100
AcDbCircle
 10
264.27754999999996
 20
-63.550399999999996
 30
0.0
 40
1.7249149962316983
100
AcDbArc
 50
89.99916961
 51
159.45311033
  0
ARC
  5
291
330
1D
100
AcDbEntity
  8
Edge.Cuts
100
AcDbCircle
 10
260.90665
 20
-62.287
 30
0.0
 40
1.8749664426930417
100
AcDbArc
 50
-89.99923602
 51
-20.54479688
  0
ARC
  5
292
330
1D
100
AcDbEntity
  8
Edge.Cuts
100
AcDbCircle
 10
235.78484999999998
 20
-63.5502
 30
0.0
 40
1.7247600001811845
100
AcDbArc
 50
20.541446
 51
90.00083049
  0
ARC
  5
293
330
1D
100
AcDbEntity
  8
Edge.Cuts
100
AcDbCircle
 10
238.10354999999998
 20
-51.1975
 30
0.0
 40
1.075020174054887
100
AcDbArc
 50
89.99600295
 51
157.97066019
  0
LINE
  5
294
330
1D
100
AcDbEntity
  8
Edge.Cuts
  6
CONTINUOUS
100
AcDbLine
 10
235.39276199999998
 20
-51.374559999999995
 30
0.0
 11
236.24632499999998
 21
-51.374559999999995
 31
0.0
  0
LINE
  5
295
330
1D
100
AcDbEntity
  8
Edge.Cuts
  6
CONTINUOUS
100
AcDbLine
 10
233.95573499999998
 20
-60.400439999999996
 30
0.0
 11
233.95573499999998
 21
-52.799699999999994
 31
0.0
  0
LINE
  5
296
330
1D
100
AcDbEntity
  8
Edge.Cuts
  6
CONTINUOUS
100
AcDbLine
 10
264.669708
 20
-61.82544
 30
0.0
 11
264.277575
 21
-61.82544
 31
0.0
  0
LINE
  5
297
330
1D
100
AcDbEntity
  8
Edge.Cuts
  6
CONTINUOUS
100
AcDbLine
 10
266.106615
 20
-52.79956
 30
0.0
 11
266.106615
 21
-60.4004
 31
0.0
  0
LINE
  5
298
330
1D
100
AcDbEntity
  8
Edge.Cuts
  6
CONTINUOUS
100
AcDbLine
 10
235.78482499999998
 20
-61.82544
 30
0.0
 11
235.38072499999998
 21
-61.82544
 31
0.0
  0
LINE
  5
299
330
1D
100
AcDbEntity
  8
Edge.Cuts
  6
CONTINUOUS
100
AcDbLine
 10
263.81602499999997
 20
-51.374559999999995
 30
0.0
 11
264.681625
 21
-51.374559999999995
 31
0.0
  0
LINE
  5
29A
330
1D
100
AcDbEntity
  8
Edge.Cuts
  6
CONTINUOUS
100
AcDbLine
 10
238.103625
 20
-50.1224
 30
0.0
 11
261.958825
 21
-50.1224
 31
0.0
  0
LINE
  5
29B
330
1D
100
AcDbEntity
  8
Edge.Cuts
  6
CONTINUOUS
100
AcDbLine
 10
260.906675
 20
-64.16190999999999
 30
0.0
 11
239.155825
 21
-64.16190999999999
 31
0.0
  0
CIRCLE
  5
29D
330
1D
100
AcDbEntity
  8
Edge.Cuts
100
AcDbCircle
 10
271.4625
 20
-19.05
 30
0.0
 40
1.0
  0
LINE
  5
29E
330
1D
100
AcDbEntity
  8
Edge.Cuts
  6
CONTINUOUS
100
AcDbLine
 10
269.28749999999997
 20
-14.075
 30
0.0
 11
269.28749999999997
 21
-24.025
 31
0.0
  0
ARC
  5
29F
330
1D
100
AcDbEntity
  8
Edge.Cuts
100
AcDbCircle
 10
256.66249999999997
 20
-24.025
 30
0.0
 40
2.0749999999999997
100
AcDbArc
 50
-179.99997239
 51
-90.0
  0
ARC
  5
2A0
330
1D
100
AcDbEntity
  8
Edge.Cuts
100
AcDbCircle
 10
267.2125
 20
-14.075
 30
0.0
 40
2.0749999999999997
100
AcDbArc
 50
0.0
 51
90.0
  0
ARC
  5
2A1
330
1D
100
AcDbEntity
  8
Edge.Cuts
100
AcDbCircle
 10
267.2125
 20
-24.025
 30
0.0
 40
2.0749999999999997
100
AcDbArc
 50
-90.0
 51
-0.0
  0
ARC
  5
2A2
330
1D
100
AcDbEntity
  8
Edge.Cuts
100
AcDbCircle
 10
256.66249999999997
 20
-14.075
 30
0.0
 40
2.0749999999999997
100
AcDbArc
 50
90.00002761
 51
180.0
  0
LINE
  5
2A3
330
1D
100
AcDbEntity
  8
Edge.Cuts
  6
CONTINUOUS
100
AcDbLine
 10
254.58749999999998
 20
-14.075
 30
0.0
 11
254.58749999999998
 21
-24.025001
 31
0.0
  0
LINE
  5
2A4
330
1D
100
AcDbEntity
  8
Edge.Cuts
  6
CONTINUOUS
100
AcDbLine
 10
267.2125
 20
-12.0
 30
0.0
 11
256.66249899999997
 21
-12.0
 31
0.0
  0
LINE
  5
2A5
330
1D
100
AcDbEntity
  8
Edge.Cuts
  6
CONTINUOUS
100
AcDbLine
 10
267.2125
 20
-26.099999999999998
 30
0.0
 11
256.66249999999997
 21
-26.099999999999998
 31
0.0
  0
ARC
  5
2A6
330
1D
100
AcDbEntity
  8
Edge.Cuts
100
AcDbCircle
 10
265.6692
 20
-43.236999999999995
 30
0.0
 40
1.8749196228705378
100
AcDbArc
 50
-90.00076398
 51
-20.5453331
  0
ARC
  5
2A7
330
1D
100
AcDbEntity
  8
Edge.Cuts
100
AcDbCircle
 10
240.54739999999998
 20
-44.5002
 30
0.0
 40
1.7247600016306615
100
AcDbArc
 50
20.54202881
 51
90.00249147
  0
LINE
  5
2A8
330
1D
100
AcDbEntity
  8
Edge.Cuts
  6
CONTINUOUS
100
AcDbLine
 10
265.669175
 20
-45.111909999999995
 30
0.0
 11
243.91832499999998
 21
-45.111909999999995
 31
0.0
  0
LINE
  5
2A9
330
1D
100
AcDbEntity
  8
Edge.Cuts
  6
CONTINUOUS
100
AcDbLine
 10
240.155262
 20
-32.32456
 30
0.0
 11
241.008825
 21
-32.32456
 31
0.0
  0
LINE
  5
2AA
330
1D
100
AcDbEntity
  8
Edge.Cuts
  6
CONTINUOUS
100
AcDbLine
 10
238.718235
 20
-41.35044
 30
0.0
 11
238.718235
 21
-33.7497
 31
0.0
  0
LINE
  5
2AB
330
1D
100
AcDbEntity
  8
Edge.Cuts
  6
CONTINUOUS
100
AcDbLine
 10
269.432208
 20
-42.775439999999996
 30
0.0
 11
269.040075
 21
-42.775439999999996
 31
0.0
  0
ARC
  5
2AC
330
1D
100
AcDbEntity
  8
Edge.Cuts
100
AcDbCircle
 10
242.8661
 20
-32.1475
 30
0.0
 40
1.0750665238137591
100
AcDbArc
 50
89.99866765
 51
157.97165969
  0
ARC
  5
2AD
330
1D
100
AcDbEntity
  8
Edge.Cuts
100
AcDbCircle
 10
269.0401
 20
-44.5004
 30
0.0
 40
1.7249618155846231
100
AcDbArc
 50
90.00083039
 51
159.45369322
  0
LINE
  5
2AE
330
1D
100
AcDbEntity
  8
Edge.Cuts
  6
CONTINUOUS
100
AcDbLine
 10
240.547325
 20
-42.775439999999996
 30
0.0
 11
240.143225
 21
-42.775439999999996
 31
0.0
  0
LINE
  5
2AF
330
1D
100
AcDbEntity
  8
Edge.Cuts
  6
CONTINUOUS
100
AcDbLine
 10
242.86612499999998
 20
-31.0724
 30
0.0
 11
266.721325
 21
-31.0724
 31
0.0
  0
ARC
  5
2B0
330
1D
100
AcDbEntity
  8
Edge.Cuts
100
AcDbCircle
 10
268.5786
 20
-31.396099999999997
 30
0.0
 40
0.9284600030292096
100
AcDbArc
 50
-157.97661027
 51
-90.00462829
  0
ARC
  5
2B1
330
1D
100
AcDbEntity
  8
Edge.Cuts
100
AcDbCircle
 10
269.44399999999996
 20
-41.3503
 30
0.0
 40
1.4251150035084887
100
AcDbArc
 50
-90.4740712
 51
-0.00402043
  0
LINE
  5
2B2
330
1D
100
AcDbEntity
  8
Edge.Cuts
  6
CONTINUOUS
100
AcDbLine
 10
270.86911499999997
 20
-33.749559999999995
 30
0.0
 11
270.86911499999997
 21
-41.3504
 31
0.0
  0
ARC
  5
2B3
330
1D
100
AcDbEntity
  8
Edge.Cuts
100
AcDbCircle
 10
241.00879999999998
 20
-31.396099999999997
 30
0.0
 40
0.9284716601086971
100
AcDbArc
 50
-89.99845722
 51
-22.02452102
  0
LINE
  5
2B4
330
1D
100
AcDbEntity
  8
Edge.Cuts
  6
CONTINUOUS
100
AcDbLine
 10
268.578525
 20
-32.32456
 30
0.0
 11
269.444125
 21
-32.32456
 31
0.0
  0
CIRCLE
  5
2B5
330
1D
100
AcDbEntity
  8
Edge.Cuts
100
AcDbCircle
 10
238.39374999999998
 20
-45.3
 30
0.0
 40
1.0
  0
ARC
  5
2B6
330
1D
100
AcDbEntity
  8
Edge.Cuts
100
AcDbCircle
 10
240.14319999999998
 20
-41.3505
 30
0.0
 40
1.4249400002193073
100
AcDbArc
 50
-180.00241251
 51
-89.99899477
  0
ARC
  5
2B7
330
1D
100
AcDbEntity
  8
Edge.Cuts
100
AcDbCircle
 10
243.9183
 20
-43.236799999999995
 30
0.0
 40
1.8751100001666567
100
AcDbArc
 50
-159.45073185
 51
-89.9992361
  0
ARC
  5
2B8
330
1D
100
AcDbEntity
  8
Edge.Cuts
100
AcDbCircle
 10
269.4441
 20
-33.7495
 30
0.0
 40
1.4249400002193073
100
AcDbArc
 50
-0.00241247
 51
89.99899477
  0
ARC
  5
2B9
330
1D
100
AcDbEntity
  8
Edge.Cuts
100
AcDbCircle
 10
240.14339999999999
 20
-33.7497
 30
0.0
 40
1.425165
100
AcDbArc
 50
89.52311573
 51
180.0
  0
ARC
  5
2BA
330
1D
100
AcDbEntity
  8
Edge.Cuts
100
AcDbCircle
 10
266.72139999999996
 20
-32.1473
 30
0.0
 40
1.0749000026165223
100
AcDbArc
 50
22.02143642
 51
90.00399775
  0
LINE
  5
2BB
330
1D
100
AcDbEntity
  8
BLACK
  6
Continuous
100
AcDbLine
 10
197.3
 20
-70.325
 30
0.0
 11
197.3
 21
-82.075
 31
0.0
  0
ARC
  5
2BC
330
1D
100
AcDbEntity
  8
BLACK
100
AcDbCircle
 10
196.225
 20
-82.075
 30
0.0
 40
1.075
100
AcDbArc
 50
270.0
 51
0.0
  0
ARC
  5
2BD
330
1D
100
AcDbEntity
  8
BLACK
100
AcDbCircle
 10
184.774999
 20
-82.075001
 30
0.0
 40
1.074999000000465
100
AcDbArc
 50
179.9999467
 51
270.0000533
  0
ARC
  5
2BE
330
1D
100
AcDbEntity
  8
BLACK
100
AcDbCircle
 10
184.774999
 20
-70.32499899999999
 30
0.0
 40
1.074999000000465
100
AcDbArc
 50
89.9999467
 51
180.0000533
  0
LINE
  5
2BF
330
1D
100
AcDbEntity
  8
BLACK
  6
Continuous
100
AcDbLine
 10
183.7
 20
-82.075
 30
0.0
 11
183.7
 21
-70.325
 31
0.0
  0
LINE
  5
2C0
330
1D
100
AcDbEntity
  8
BLACK
  6
Continuous
100
AcDbLine
 10
196.225
 20
-83.14999999999999
 30
0.0
 11
184.775
 21
-83.14999999999999
 31
0.0
  0
LINE
  5
2C1
330
1D
100
AcDbEntity
  8
BLACK
  6
Continuous
100
AcDbLine
 10
184.775
 20
-69.25
 30
0.0
 11
196.225
 21
-69.25
 31
0.0
  0
ARC
  5
2C2
330
1D
100
AcDbEntity
  8
BLACK
100
AcDbCircle
 10
196.225
 20
-70.325
 30
0.0
 40
1.075
100
AcDbArc
 50
0.0
 51
90.0
  0
LINE
  5
2C3
330
1D
100
AcDbEntity
  8
BLACK
  6
Continuous
100
AcDbLine
 10
83.0
 20
-70.325
 30
0.0
 11
83.0
 21
-82.075
 31
0.0
  0
ARC
  5
2C4
330
1D
100
AcDbEntity
  8
BLACK
100
AcDbCircle
 10
81.925
 20
-82.075
 30
0.0
 40
1.075
100
AcDbArc
 50
270.0
 51
0.0
  0
ARC
  5
2C5
330
1D
100
AcDbEntity
  8
BLACK
100
AcDbCircle
 10
70.474999
 20
-82.075001
 30
0.0
 40
1.074999000000465
100
AcDbArc
 50
179.9999467
 51
270.0000533
  0
ARC
  5
2C6
330
1D
100
AcDbEntity
  8
BLACK
100
AcDbCircle
 10
70.474999
 20
-70.32499899999999
 30
0.0
 40
1.074999000000465
100
AcDbArc
 50
89.9999467
 51
180.0000533
  0
LINE
  5
2C7
330
1D
100
AcDbEntity
  8
BLACK
  6
Continuous
100
AcDbLine
 10
69.39999999999999
 20
-82.075
 30
0.0
 11
69.39999999999999
 21
-70.325
 31
0.0
  0
LINE
  5
2C8
330
1D
100
AcDbEntity
  8
BLACK
  6
Continuous
100
AcDbLine
 10
81.925
 20
-83.14999999999999
 30
0.0
 11
70.475
 21
-83.14999999999999
 31
0.0
  0
LINE
  5
2C9
330
1D
100
AcDbEntity
  8
BLACK
  6
Continuous
100
AcDbLine
 10
70.475
 20
-69.25
 30
0.0
 11
81.925
 21
-69.25
 31
0.0
  0
ARC
  5
2CA
330
1D
100
AcDbEntity
  8
BLACK
100
AcDbCircle
 10
81.925
 20
-70.325
 30
0.0
 40
1.075
100
AcDbArc
 50
0.0
 51
90.0
  0
LINE
  5
2CB
330
1D
100
AcDbEntity
  8
BLACK
  6
Continuous
100
AcDbLine
 10
267.2125
 20
-83.25
 30
0.0
 11
256.6625
 21
-83.25
 31
0.0
  0
LINE
  5
2CC
330
1D
100
AcDbEntity
  8
BLACK
  6
Continuous
100
AcDbLine
 10
267.2125
 20
-69.14999999999999
 30
0.0
 11
256.662499
 21
-69.14999999999999
 31
0.0
  0
LINE
  5
2CD
330
1D
100
AcDbEntity
  8
BLACK
  6
Continuous
100
AcDbLine
 10
254.5875
 20
-71.225
 30
0.0
 11
254.5875
 21
-81.175001
 31
0.0
  0
ARC
  5
2CE
330
1D
100
AcDbEntity
  8
BLACK
100
AcDbCircle
 10
256.662504
 20
-71.225004
 30
0.0
 40
2.075004000003855
100
AcDbArc
 50
90.00013806
 51
179.99988955
  0
ARC
  5
2CF
330
1D
100
AcDbEntity
  8
BLACK
100
AcDbCircle
 10
267.2125
 20
-81.175
 30
0.0
 40
2.075
100
AcDbArc
 50
270.0
 51
0.0
  0
ARC
  5
2D0
330
1D
100
AcDbEntity
  8
BLACK
100
AcDbCircle
 10
267.2125
 20
-71.225
 30
0.0
 40
2.075
100
AcDbArc
 50
0.0
 51
90.0
  0
ARC
  5
2D1
330
1D
100
AcDbEntity
  8
BLACK
100
AcDbCircle
 10
256.662502
 20
-81.174998
 30
0.0
 40
2.075002000000964
100
AcDbArc
 50
180.00008284
 51
269.99994478
  0
LINE
  5
2D2
330
1D
100
AcDbEntity
  8
BLACK
  6
Continuous
100
AcDbLine
 10
269.2875
 20
-71.225
 30
0.0
 11
269.2875
 21
-81.175
 31
0.0
  0
LINE
  5
2D3
330
1D
100
AcDbEntity
  8
BLACK
  6
Continuous
100
AcDbLine
 10
243.4
 20
-83.25
 30
0.0
 11
232.85
 21
-83.25
 31
0.0
  0
LINE
  5
2D4
330
1D
100
AcDbEntity
  8
BLACK
  6
Continuous
100
AcDbLine
 10
243.4
 20
-69.14999999999999
 30
0.0
 11
232.849999
 21
-69.14999999999999
 31
0.0
  0
LINE
  5
2D5
330
1D
100
AcDbEntity
  8
BLACK
  6
Continuous
100
AcDbLine
 10
230.775
 20
-71.225
 30
0.0
 11
230.775
 21
-81.175001
 31
0.0
  0
ARC
  5
2D6
330
1D
100
AcDbEntity
  8
BLACK
100
AcDbCircle
 10
232.850004
 20
-71.225004
 30
0.0
 40
2.075004000003855
100
AcDbArc
 50
90.00013806
 51
179.99988955
  0
ARC
  5
2D7
330
1D
100
AcDbEntity
  8
BLACK
100
AcDbCircle
 10
243.4
 20
-81.175
 30
0.0
 40
2.075
100
AcDbArc
 50
270.0
 51
0.0
  0
ARC
  5
2D8
330
1D
100
AcDbEntity
  8
BLACK
100
AcDbCircle
 10
243.4
 20
-71.225
 30
0.0
 40
2.075
100
AcDbArc
 50
0.0
 51
90.0
  0
ARC
  5
2D9
330
1D
100
AcDbEntity
  8
BLACK
100
AcDbCircle
 10
232.850002
 20
-81.174998
 30
0.0
 40
2.075002000000964
100
AcDbArc
 50
180.00008284
 51
269.99994478
  0
LINE
  5
2DA
330
1D
100
AcDbEntity
  8
BLACK
  6
Continuous
100
AcDbLine
 10
245.475
 20
-71.225
 30
0.0
 11
245.475
 21
-81.175
 31
0.0
  0
LINE
  5
2DB
330
1D
100
AcDbEntity
  8
BLACK
  6
Continuous
100
AcDbLine
 10
219.5875
 20
-83.25
 30
0.0
 11
209.0375
 21
-83.25
 31
0.0
  0
LINE
  5
2DC
330
1D
100
AcDbEntity
  8
BLACK
  6
Continuous
100
AcDbLine
 10
219.5875
 20
-69.14999999999999
 30
0.0
 11
209.037499
 21
-69.14999999999999
 31
0.0
  0
LINE
  5
2DD
330
1D
100
AcDbEntity
  8
BLACK
  6
Continuous
100
AcDbLine
 10
206.9625
 20
-71.225
 30
0.0
 11
206.9625
 21
-81.175001
 31
0.0
  0
ARC
  5
2DE
330
1D
100
AcDbEntity
  8
BLACK
100
AcDbCircle
 10
209.037504
 20
-71.225004
 30
0.0
 40
2.075004000003855
100
AcDbArc
 50
90.00013806
 51
179.99988955
  0
ARC
  5
2DF
330
1D
100
AcDbEntity
  8
BLACK
100
AcDbCircle
 10
219.5875
 20
-81.175
 30
0.0
 40
2.075
100
AcDbArc
 50
270.0
 51
0.0
  0
ARC
  5
2E0
330
1D
100
AcDbEntity
  8
BLACK
100
AcDbCircle
 10
219.5875
 20
-71.225
 30
0.0
 40
2.075
100
AcDbArc
 50
0.0
 51
90.0
  0
ARC
  5
2E1
330
1D
100
AcDbEntity
  8
BLACK
100
AcDbCircle
 10
209.037502
 20
-81.174998
 30
0.0
 40
2.075002000000964
100
AcDbArc
 50
180.00008284
 51
269.99994478
  0
LINE
  5
2E2
330
1D
100
AcDbEntity
  8
BLACK
  6
Continuous
100
AcDbLine
 10
221.6625
 20
-71.225
 30
0.0
 11
221.6625
 21
-81.175
 31
0.0
  0
LINE
  5
2E3
330
1D
100
AcDbEntity
  8
BLACK
  6
Continuous
100
AcDbLine
 10
138.625
 20
-83.25
 30
0.0
 11
128.075
 21
-83.25
 31
0.0
  0
LINE
  5
2E4
330
1D
100
AcDbEntity
  8
BLACK
  6
Continuous
100
AcDbLine
 10
138.625
 20
-69.14999999999999
 30
0.0
 11
128.074999
 21
-69.14999999999999
 31
0.0
  0
LINE
  5
2E5
330
1D
100
AcDbEntity
  8
BLACK
  6
Continuous
100
AcDbLine
 10
126.0
 20
-71.225
 30
0.0
 11
126.0
 21
-81.175001
 31
0.0
  0
ARC
  5
2E6
330
1D
100
AcDbEntity
  8
BLACK
100
AcDbCircle
 10
128.075004
 20
-71.225004
 30
0.0
 40
2.075004000003855
100
AcDbArc
 50
90.00013806
 51
179.99988955
  0
ARC
  5
2E7
330
1D
100
AcDbEntity
  8
BLACK
100
AcDbCircle
 10
138.625
 20
-81.175
 30
0.0
 40
2.075
100
AcDbArc
 50
270.0
 51
0.0
  0
ARC
  5
2E8
330
1D
100
AcDbEntity
  8
BLACK
100
AcDbCircle
 10
138.625
 20
-71.225
 30
0.0
 40
2.075
100
AcDbArc
 50
0.0
 51
90.0
  0
ARC
  5
2E9
330
1D
100
AcDbEntity
  8
BLACK
100
AcDbCircle
 10
128.075002
 20
-81.174998
 30
0.0
 40
2.075002000000964
100
AcDbArc
 50
180.00008284
 51
269.99994478
  0
LINE
  5
2EA
330
1D
100
AcDbEntity
  8
BLACK
  6
Continuous
100
AcDbLine
 10
140.7
 20
-71.225
 30
0.0
 11
140.7
 21
-81.175
 31
0.0
  0
LINE
  5
2EB
330
1D
100
AcDbEntity
  8
BLACK
  6
Continuous
100
AcDbLine
 10
57.66249999999999
 20
-83.25
 30
0.0
 11
47.1125
 21
-83.25
 31
0.0
  0
LINE
  5
2EC
330
1D
100
AcDbEntity
  8
BLACK
  6
Continuous
100
AcDbLine
 10
57.66249999999999
 20
-69.14999999999999
 30
0.0
 11
47.112499
 21
-69.14999999999999
 31
0.0
  0
LINE
  5
2ED
330
1D
100
AcDbEntity
  8
BLACK
  6
Continuous
100
AcDbLine
 10
45.0375
 20
-71.225
 30
0.0
 11
45.0375
 21
-81.175001
 31
0.0
  0
ARC
  5
2EE
330
1D
100
AcDbEntity
  8
BLACK
100
AcDbCircle
 10
47.112504
 20
-71.225004
 30
0.0
 40
2.075004000003855
100
AcDbArc
 50
90.00013806
 51
179.99988955
  0
ARC
  5
2EF
330
1D
100
AcDbEntity
  8
BLACK
100
AcDbCircle
 10
57.66249999999999
 20
-81.175
 30
0.0
 40
2.075
100
AcDbArc
 50
270.0
 51
0.0
  0
ARC
  5
2F0
330
1D
100
AcDbEntity
  8
BLACK
100
AcDbCircle
 10
57.66249999999999
 20
-71.225
 30
0.0
 40
2.075
100
AcDbArc
 50
0.0
 51
90.0
  0
ARC
  5
2F1
330
1D
100
AcDbEntity
  8
BLACK
100
AcDbCircle
 10
47.112502
 20
-81.174998
 30
0.0
 40
2.075002000000964
100
AcDbArc
 50
180.00008284
 51
269.99994478
  0
LINE
  5
2F2
330
1D
100
AcDbEntity
  8
BLACK
  6
Continuous
100
AcDbLine
 10
59.7375
 20
-71.225
 30
0.0
 11
59.7375
 21
-81.175
 31
0.0
  0
LINE
  5
2F3
330
1D
100
AcDbEntity
  8
BLACK
  6
Continuous
100
AcDbLine
 10
33.85
 20
-83.25
 30
0.0
 11
23.3
 21
-83.25
 31
0.0
  0
LINE
  5
2F4
330
1D
100
AcDbEntity
  8
BLACK
  6
Continuous
100
AcDbLine
 10
33.85
 20
-69.14999999999999
 30
0.0
 11
23.299999
 21
-69.14999999999999
 31
0.0
  0
LINE
  5
2F5
330
1D
100
AcDbEntity
  8
BLACK
  6
Continuous
100
AcDbLine
 10
21.225
 20
-71.225
 30
0.0
 11
21.225
 21
-81.175001
 31
0.0
  0
ARC
  5
2F6
330
1D
100
AcDbEntity
  8
BLACK
100
AcDbCircle
 10
23.300004
 20
-71.225004
 30
0.0
 40
2.075004000003855
100
AcDbArc
 50
90.00013806
 51
179.99988955
  0
ARC
  5
2F7
330
1D
100
AcDbEntity
  8
BLACK
100
AcDbCircle
 10
33.85
 20
-81.175
 30
0.0
 40
2.075
100
AcDbArc
 50
270.0
 51
0.0
  0
ARC
  5
2F8
330
1D
100
AcDbEntity
  8
BLACK
100
AcDbCircle
 10
33.85
 20
-71.225
 30
0.0
 40
2.075
100
AcDbArc
 50
0.0
 51
90.0
  0
ARC
  5
2F9
330
1D
100
AcDbEntity
  8
BLACK
100
AcDbCircle
 10
23.300002
 20
-81.174998
 30
0.0
 40
2.075002000000964
100
AcDbArc
 50
180.00008284
 51
269.99994478
  0
LINE
  5
2FA
330
1D
100
AcDbEntity
  8
BLACK
  6
Continuous
100
AcDbLine
 10
35.925
 20
-71.225
 30
0.0
 11
35.925
 21
-81.175
 31
0.0
  0
LINE
  5
2FB
330
1D
100
AcDbEntity
  8
BLACK
  6
Continuous
100
AcDbLine
 10
10.0375
 20
-83.25
 30
0.0
 11
-0.5125
 21
-83.25
 31
0.0
  0
LINE
  5
2FC
330
1D
100
AcDbEntity
  8
BLACK
  6
Continuous
100
AcDbLine
 10
10.0375
 20
-69.14999999999999
 30
0.0
 11
-0.512501
 21
-69.14999999999999
 31
0.0
  0
LINE
  5
2FD
330
1D
100
AcDbEntity
  8
BLACK
  6
Continuous
100
AcDbLine
 10
-2.5875
 20
-71.225
 30
0.0
 11
-2.5875
 21
-81.175001
 31
0.0
  0
ARC
  5
2FE
330
1D
100
AcDbEntity
  8
BLACK
100
AcDbCircle
 10
-0.512496
 20
-71.225004
 30
0.0
 40
2.075004000003855
100
AcDbArc
 50
90.00013806
 51
179.99988955
  0
ARC
  5
2FF
330
1D
100
AcDbEntity
  8
BLACK
100
AcDbCircle
 10
10.0375
 20
-81.175
 30
0.0
 40
2.075
100
AcDbArc
 50
270.0
 51
0.0
  0
ARC
  5
300
330
1D
100
AcDbEntity
  8
BLACK
100
AcDbCircle
 10
10.0375
 20
-71.225
 30
0.0
 40
2.075
100
AcDbArc
 50
0.0
 51
90.0
  0
ARC
  5
301
330
1D
100
AcDbEntity
  8
BLACK
100
AcDbCircle
 10
-0.512498
 20
-81.174998
 30
0.0
 40
2.075002000000964
100
AcDbArc
 50
180.00008284
 51
269.99994478
  0
LINE
  5
302
330
1D
100
AcDbEntity
  8
BLACK
  6
Continuous
100
AcDbLine
 10
12.1125
 20
-71.225
 30
0.0
 11
12.1125
 21
-81.175
 31
0.0
  0
CIRCLE
  5
303
330
1D
100
AcDbEntity
  8
BLACK
100
AcDbCircle
 10
142.875
 20
-76.2
 30
0.0
 40
1.0
  0
CIRCLE
  5
304
330
1D
100
AcDbEntity
  8
BLACK
100
AcDbCircle
 10
171.45
 20
-76.2
 30
0.0
 40
1.0
  0
CIRCLE
  5
305
330
1D
100
AcDbEntity
  8
BLACK
100
AcDbCircle
 10
251.221875
 20
-76.2
 30
0.0
 40
1.0
  0
CIRCLE
  5
306
330
1D
100
AcDbEntity
  8
BLACK
100
AcDbCircle
 10
228.6
 20
-76.2
 30
0.0
 40
1.0
  0
CIRCLE
  5
307
330
1D
100
AcDbEntity
  8
BLACK
100
AcDbCircle
 10
104.775
 20
-76.2
 30
0.0
 40
1.0
  0
CIRCLE
  5
308
330
1D
100
AcDbEntity
  8
BLACK
100
AcDbCircle
 10
39.290625
 20
-76.2
 30
0.0
 40
1.0
  0
CIRCLE
  5
309
330
1D
100
AcDbEntity
  8
BLACK
100
AcDbCircle
 10
61.91249999999999
 20
-76.2
 30
0.0
 40
1.0
  0
CIRCLE
  5
30A
330
1D
100
AcDbEntity
  8
BLACK
100
AcDbCircle
 10
15.478125
 20
-76.2
 30
0.0
 40
1.0
  0
CIRCLE
  5
30B
330
1D
100
AcDbEntity
  8
BLACK
100
AcDbCircle
 10
204.7875
 20
-76.2
 30
0.0
 40
1.0
  0
ENDSEC
  0
SECTION
  2
OBJECTS
  0
DICTIONARY
  5
C
330
0
100
AcDbDictionary
281
1
  3
ACAD_DETAILVIEWSTYLE
350
256
  3
ACAD_GROUP
350
D
  3
ACAD_LAYOUT
350
1A
  3
ACAD_MATERIAL
350
29
  3
ACAD_MLEADERSTYLE
350
24C
  3
ACAD_MLINESTYLE
350
17
  3
ACAD_PLOTSETTINGS
350
19
  3
ACAD_PLOTSTYLENAME
350
E
  3
ACAD_SCALELIST
350
21F
  3
ACAD_SECTIONVIEWSTYLE
350
257
  3
ACAD_TABLESTYLE
350
24A
  3
ACAD_VISUALSTYLE
350
231
  3
AcDbVariableDictionary
350
24E
  3
ACDB_RECOMPOSE_DATA
350
252
  3
ACAD_COLOR
350
258
  3
EZDXF_META
350
259
  0
DICTIONARY
  5
256
102
{ACAD_REACTORS
330
C
102
}
330
C
100
AcDbDictionary
281
1
  0
DICTIONARY
  5
D
102
{ACAD_REACTORS
330
C
102
}
330
C
100
AcDbDictionary
281
1
  0
DICTIONARY
  5
1A
102
{ACAD_REACTORS
330
C
102
}
330
C
100
AcDbDictionary
281
1
  3
Layout1
350
1C
  3
Model
350
1E
  0
DICTIONARY
  5
29
102
{ACAD_REACTORS
330
C
102
}
330
C
100
AcDbDictionary
281
1
  3
ByBlock
350
2B
  3
ByLayer
350
2A
  3
Global
350
2C
  0
DICTIONARY
  5
24C
102
{ACAD_REACTORS
330
C
102
}
330
C
100
AcDbDictionary
281
1
  3
Standard
350
24D
  0
DICTIONARY
  5
17
102
{ACAD_REACTORS
330
C
102
}
330
C
100
AcDbDictionary
281
1
  3
Standard
350
18
  0
DICTIONARY
  5
19
102
{ACAD_REACTORS
330
C
102
}
330
C
100
AcDbDictionary
281
1
  0
ACDBDICTIONARYWDFLT
  5
E
102
{ACAD_REACTORS
330
C
102
}
330
C
100
AcDbDictionary
281
1
  3
Normal
350
F
100
AcDbDictionaryWithDefault
340
F
  0
DICTIONARY
  5
21F
102
{ACAD_REACTORS
330
C
102
}
330
C
100
AcDbDictionary
281
1
  3
A0
350
220
  3
A1
350
221
  3
A2
350
222
  3
A3
350
223
  3
A4
350
224
  3
A5
350
225
  3
A6
350
226
  3
A7
350
227
  3
A8
350
228
  3
A9
350
229
  3
B1
350
22A
  3
B2
350
22B
  3
B3
350
22C
  3
B4
350
22D
  3
B5
350
22E
  3
B6
350
22F
  3
B7
350
230
  0
DICTIONARY
  5
257
102
{ACAD_REACTORS
330
C
102
}
330
C
100
AcDbDictionary
281
1
  0
DICTIONARY
  5
24A
102
{ACAD_REACTORS
330
C
102
}
330
C
100
AcDbDictionary
281
1
  3
Standard
350
24B
  0
DICTIONARY
  5
231
102
{ACAD_REACTORS
330
C
102
}
330
C
100
AcDbDictionary
281
1
  3
2dWireframe
350
236
  3
Basic
350
239
  3
Brighten
350
23D
  3
ColorChange
350
241
  3
Conceptual
350
23B
  3
Dim
350
23C
  3
EdgeColorOff
350
244
  3
Facepattern
350
240
  3
Flat
350
232
  3
FlatWithEdges
350
233
  3
Gouraud
350
234
  3
GouraudWithEdges
350
235
  3
Hidden
350
238
  3
JitterOff
350
242
  3
Linepattern
350
23F
  3
OverhangOff
350
243
  3
Realistic
350
23A
  3
Shaded
350
249
  3
Shaded with edges
350
248
  3
Shades of Gray
350
245
  3
Sketchy
350
246
  3
Thicken
350
23E
  3
Wireframe
350
237
  3
X-Ray
350
247
  0
DICTIONARY
  5
24E
102
{ACAD_REACTORS
330
C
102
}
330
C
100
AcDbDictionary
281
1
  3
CANNOSCALE
350
24F
  3
CMLEADERSTYLE
350
254
  3
CTABLESTYLE
350
253
  3
MSLTSCALE
350
255
  0
XRECORD
  5
252
102
{ACAD_REACTORS
330
C
102
}
330
C
100
AcDbXrecord
280
1
 90
1
330
24B
  0
LAYOUT
  5
1C
102
{ACAD_REACTORS
330
1A
102
}
330
1A
100
AcDbPlotSettings
  1

  2
none_device
  4

  6

 40
0.0
 41
0.0
 42
0.0
 43
0.0
 44
0.0
 45
0.0
 46
0.0
 47
0.0
 48
0.0
 49
0.0
140
0.0
141
0.0
142
1.0
143
1.0
 70
688
 72
0
 73
0
 74
5
  7

 75
16
 76
0
 77
2
 78
300
147
1.0
148
0.0
149
0.0
100
AcDbLayout
  1
Layout1
 70
1
 71
1
 10
0.0
 20
0.0
 11
420.0
 21
297.0
 12
0.0
 22
0.0
 32
0.0
 14
1e+20
 24
1e+20
 34
1e+20
 15
-1e+20
 25
-1e+20
 35
-1e+20
146
0.0
 13
0.0
 23
0.0
 33
0.0
 16
1.0
 26
0.0
 36
0.0
 17
0.0
 27
1.0
 37
0.0
 76
0
330
1B
  0
LAYOUT
  5
1E
102
{ACAD_REACTORS
330
1A
102
}
330
1A
100
AcDbPlotSettings
  1

  2
none_device
  4
Letter_(8.50_x_11.00_Inches)
  6

 40
6.35
 41
6.35
 42
6.35000508
 43
6.35000508
 44
215.9
 45
279.4
 46
0.0
 47
0.0
 48
0.0
 49
0.0
140
0.0
141
0.0
142
1.0
143
1.0
 70
1712
 72
0
 73
0
 74
0
  7

 75
0
 76
0
 77
2
 78
300
147
1.0
148
0.0
149
0.0
100
AcDbLayout
  1
Model
 70
1
 71
0
 10
0.0
 20
0.0
 11
12.0
 21
9.0
 12
0.0
 22
0.0
 32
0.0
 14
1e+20
 24
1e+20
 34
1e+20
 15
-1e+20
 25
-1e+20
 35
-1e+20
146
0.0
 13
0.0
 23
0.0
 33
0.0
 16
1.0
 26
0.0
 36
0.0
 17
0.0
 27
1.0
 37
0.0
 76
0
330
1D
331
20
  0
MATERIAL
  5
2B
102
{ACAD_REACTORS
330
29
102
}
330
29
100
AcDbMaterial
  1
ByBlock
  2

 70
0
 40
1.0
 71
0
 41
1.0
 91
-1023410177
 42
1.0
 72
1
  3

 73
1
 74
1
 75
1
 44
0.5
 73
0
 45
1.0
 46
1.0
 77
1
  4

 78
1
 79
1
170
1
 48
1.0
171
1
  6

172
1
173
1
174
1
140
1.0
141
1.0
175
1
  7

176
1
177
1
178
1
143
1.0
179
1
  8

270
1
271
1
272
1
145
1.0
146
1.0
273
1
  9

274
1
275
1
276
1
 42
1.0
 72
1
  3

 73
1
 74
1
 75
1
 94
127
  0
MATERIAL
  5
2A
102
{ACAD_REACTORS
330
29
102
}
330
29
100
AcDbMaterial
  1
ByLayer
  2

 70
0
 40
1.0
 71
0
 41
1.0
 91
-1023410177
 42
1.0
 72
1
  3

 73
1
 74
1
 75
1
 44
0.5
 73
0
 45
1.0
 46
1.0
 77
1
  4

 78
1
 79
1
170
1
 48
1.0
171
1
  6

172
1
173
1
174
1
140
1.0
141
1.0
175
1
  7

176
1
177
1
178
1
143
1.0
179
1
  8

270
1
271
1
272
1
145
1.0
146
1.0
273
1
  9

274
1
275
1
276
1
 42
1.0
 72
1
  3

 73
1
 74
1
 75
1
 94
127
  0
MATERIAL
  5
2C
102
{ACAD_REACTORS
330
29
102
}
330
29
100
AcDbMaterial
  1
Global
  2

 70
0
 40
1.0
 71
0
 41
1.0
 91
-1023410177
 42
1.0
 72
1
  3

 73
1
 74
1
 75
1
 44
0.5
 73
0
 45
1.0
 46
1.0
 77
1
  4

 78
1
 79
1
170
1
 48
1.0
171
1
  6

172
1
173
1
174
1
140
1.0
141
1.0
175
1
  7

176
1
177
1
178
1
143
1.0
179
1
  8

270
1
271
1
272
1
145
1.0
146
1.0
273
1
  9

274
1
275
1
276
1
 42
1.0
 72
1
  3

 73
1
 74
1
 75
1
 94
127
  0
MLEADERSTYLE
  5
24D
102
{ACAD_REACTORS
330
24C
102
}
330
24C
100
AcDbMLeaderStyle
179
2
170
2
171
1
172
0
 90
2
 40
0.0
 41
0.0
173
1
 91
-1056964608
340
14
 92
-2
290
1
 42
0.09
291
1
 43
0.36
  3
Standard
341
0
 44
0.18
300

342
11
174
1
175
1
176
0
178
6
 93
-1056964608
 45
0.18
292
0
297
0
 46
0.18
293
1
343
0
 94
-1056964608
 47
1.0
 49
1.0
140
1.0
294
1
141
0.0
177
0
142
1.0
295
0
296
0
143
0.125
271
0
272
9
273
9
298
0
  0
MLINESTYLE
  5
18
102
{ACAD_REACTORS
330
17
102
}
330
17
100
AcDbMlineStyle
  2
Standard
 70
0
  3

 62
256
 51
90.0
 52
90.0
 71
2
 49
0.5
 62
256
  6
BYLAYER
 49
-0.5
 62
256
  6
BYLAYER
  0
ACDBPLACEHOLDER
  5
F
102
{ACAD_REACTORS
330
E
102
}
330
E
  0
SCALE
  5
220
102
{ACAD_REACTORS
330
21F
102
}
330
21F
100
AcDbScale
 70
0
300
1:1
140
1.0
141
1.0
290
1
  0
SCALE
  5
221
102
{ACAD_REACTORS
330
21F
102
}
330
21F
100
AcDbScale
 70
0
300
1/128" = 1'-0"
140
0.0078125
141
12.0
290
0
  0
SCALE
  5
222
102
{ACAD_REACTORS
330
21F
102
}
330
21F
100
AcDbScale
 70
0
300
1/64" = 1'-0"
140
0.015625
141
12.0
290
0
  0
SCALE
  5
223
102
{ACAD_REACTORS
330
21F
102
}
330
21F
100
AcDbScale
 70
0
300
1/32" = 1'-0"
140
0.03125
141
12.0
290
0
  0
SCALE
  5
224
102
{ACAD_REACTORS
330
21F
102
}
330
21F
100
AcDbScale
 70
0
300
1/16" = 1'-0"
140
0.0625
141
12.0
290
0
  0
SCALE
  5
225
102
{ACAD_REACTORS
330
21F
102
}
330
21F
100
AcDbScale
 70
0
300
3/32" = 1'-0"
140
0.09375
141
12.0
290
0
  0
SCALE
  5
226
102
{ACAD_REACTORS
330
21F
102
}
330
21F
100
AcDbScale
 70
0
300
1/8" = 1'-0"
140
0.125
141
12.0
290
0
  0
SCALE
  5
227
102
{ACAD_REACTORS
330
21F
102
}
330
21F
100
AcDbScale
 70
0
300
3/16" = 1'-0"
140
0.1875
141
12.0
290
0
  0
SCALE
  5
228
102
{ACAD_REACTORS
330
21F
102
}
330
21F
100
AcDbScale
 70
0
300
1/4" = 1'-0"
140
0.25
141
12.0
290
0
  0
SCALE
  5
229
102
{ACAD_REACTORS
330
21F
102
}
330
21F
100
AcDbScale
 70
0
300
3/8" = 1'-0"
140
0.375
141
12.0
290
0
  0
SCALE
  5
22A
102
{ACAD_REACTORS
330
21F
102
}
330
21F
100
AcDbScale
 70
0
300
1/2" = 1'-0"
140
0.5
141
12.0
290
0
  0
SCALE
  5
22B
102
{ACAD_REACTORS
330
21F
102
}
330
21F
100
AcDbScale
 70
0
300
3/4" = 1'-0"
140
0.75
141
12.0
290
0
  0
SCALE
  5
22C
102
{ACAD_REACTORS
330
21F
102
}
330
21F
100
AcDbScale
 70
0
300
1" = 1'-0"
140
1.0
141
12.0
290
0
  0
SCALE
  5
22D
102
{ACAD_REACTORS
330
21F
102
}
330
21F
100
AcDbScale
 70
0
300
1-1/2" = 1'-0"
140
1.5
141
12.0
290
0
  0
SCALE
  5
22E
102
{ACAD_REACTORS
330
21F
102
}
330
21F
100
AcDbScale
 70
0
300
3" = 1'-0"
140
3.0
141
12.0
290
0
  0
SCALE
  5
22F
102
{ACAD_REACTORS
330
21F
102
}
330
21F
100
AcDbScale
 70
0
300
6" = 1'-0"
140
6.0
141
12.0
290
0
  0
SCALE
  5
230
102
{ACAD_REACTORS
330
21F
102
}
330
21F
100
AcDbScale
 70
0
300
1'-0" = 1'-0"
140
12.0
141
12.0
290
0
  0
TABLESTYLE
  5
24B
102
{ACAD_XDICTIONARY
360
250
102
}
102
{ACAD_REACTORS
330
24A
102
}
330
24A
100
AcDbTableStyle
  3
Standard
 70
0
 71
0
 40
0.06
 41
0.06
280
0
281
0
  7
Standard
140
0.18
170
2
 62
0
 63
257
283
0
 90
4
 91
0
  1

274
-2
284
1
 64
0
275
-2
285
1
 65
0
276
-2
286
1
 66
0
277
-2
287
1
 67
0
278
-2
288
1
 68
0
279
-2
289
1
 69
0
  7
Standard
140
0.25
170
5
 62
0
 63
257
283
0
 90
4
 91
0
  1

274
-2
284
1
 64
0
275
-2
285
1
 65
0
276
-2
286
1
 66
0
277
-2
287
1
 67
0
278
-2
288
1
 68
0
279
-2
289
1
 69
0
  7
Standard
140
0.18
170
5
 62
0
 63
257
283
0
 90
4
 91
0
  1

274
-2
284
1
 64
0
275
-2
285
1
 65
0
276
-2
286
1
 66
0
277
-2
287
1
 67
0
278
-2
288
1
 68
0
279
-2
289
1
 69
0
  0
VISUALSTYLE
  5
236
102
{ACAD_REACTORS
330
231
102
}
330
231
100
AcDbVisualStyle
  2
2dWireframe
 70
4
177
3
291
0
 70
58
 90
0
176
1
 90
2
176
1
 90
0
176
1
 90
0
176
1
 40
0.6
176
1
 40
30.0
176
1
 62
7
420
16777215
176
1
 90
1
176
1
 90
4
176
1
 62
7
176
1
 62
257
176
1
 90
1
176
1
 90
1
176
1
 40
1.0
176
1
 90
0
176
1
 62
257
176
1
 40
1.0
176
1
 90
1
176
1
 90
6
176
1
 90
2
176
1
 62
7
176
1
 90
5
176
1
 90
0
176
1
 90
0
176
1
290
0
176
1
 90
1
176
1
 40
0.0
176
1
 90
0
176
1
290
1
176
1
290
1
176
1
290
0
176
1
290
0
176
1
290
0
176
1
290
0
176
1
290
0
176
1
290
0
176
1
290
0
176
1
 90
50
176
1
 40
0.0
176
1
 40
1.0
176
1
 90
0
176
1
 62
18
420
0
176
1
 90
50
176
1
 90
3
176
1
 62
5
420
255
176
1
290
0
176
1
 90
50
176
1
 90
50
176
1
 90
50
176
1
290
0
176
1
 90
50
176
1
 62
256
176
0
 40
1.0
176
0
 90
2
176
1
  1
strokes_ogs.tif
176
1
290
0
176
1
 40
1.0
176
1
 40
1.0
176
1
  0
VISUALSTYLE
  5
239
102
{ACAD_REACTORS
330
231
102
}
330
231
100
AcDbVisualStyle
  2
Basic
 70
7
177
3
291
1
 70
58
 90
1
176
1
 90
0
176
1
 90
1
176
1
 90
0
176
1
 40
0.6
176
1
 40
30.0
176
1
 62
7
420
16777215
176
1
 90
0
176
1
 90
4
176
1
 62
7
176
1
 62
257
176
1
 90
1
176
1
 90
1
176
1
 40
1.0
176
1
 90
8
176
1
 62
7
176
1
 40
1.0
176
1
 90
1
176
1
 90
6
176
1
 90
2
176
1
 62
7
176
1
 90
5
176
1
 90
0
176
1
 90
0
176
1
290
0
176
1
 90
1
176
1
 40
0.0
176
1
 90
0
176
1
290
0
176
1
290
1
176
1
290
1
176
1
290
0
176
1
290
0
176
1
290
0
176
1
290
0
176
1
290
0
176
1
290
0
176
1
 90
50
176
1
 40
0.0
176
1
 40
1.0
176
1
 90
0
176
1
 62
18
420
0
176
1
 90
50
176
1
 90
3
176
1
 62
5
420
255
176
1
290
0
176
1
 90
50
176
1
 90
50
176
1
 90
50
176
1
290
0
176
1
 90
50
176
1
 62
256
176
0
 40
1.0
176
0
 90
2
176
1
  1
strokes_ogs.tif
176
1
290
0
176
1
 40
1.0
176
1
 40
1.0
176
1
  0
VISUALSTYLE
  5
23D
102
{ACAD_REACTORS
330
231
102
}
330
231
100
AcDbVisualStyle
  2
Brighten
 70
12
177
3
291
1
 70
58
 90
2
176
1
 90
2
176
1
 90
0
176
1
 90
0
176
1
 40
0.6
176
1
 40
30.0
176
1
 62
7
420
16777215
176
1
 90
1
176
1
 90
4
176
1
 62
7
176
1
 62
257
176
1
 90
1
176
1
 90
1
176
1
 40
1.0
176
1
 90
8
176
1
 62
7
176
1
 40
1.0
176
1
 90
1
176
1
 90
6
176
1
 90
2
176
1
 62
7
176
1
 90
5
176
1
 90
0
176
1
 90
0
176
1
290
0
176
1
 90
1
176
1
 40
50.0
176
1
 90
0
176
1
290
0
176
1
290
1
176
1
290
1
176
1
290
0
176
1
290
0
176
1
290
0
176
1
290
0
176
1
290
0
176
1
290
0
176
1
 90
50
176
1
 40
0.0
176
1
 40
1.0
176
1
 90
0
176
1
 62
18
420
0
176
1
 90
50
176
1
 90
3
176
1
 62
5
420
255
176
1
290
0
176
1
 90
50
176
1
 90
50
176
1
 90
50
176
1
290
0
176
1
 90
50
176
1
 62
256
176
0
 40
1.0
176
0
 90
2
176
1
  1
strokes_ogs.tif
176
1
290
0
176
1
 40
1.0
176
1
 40
1.0
176
1
  0
VISUALSTYLE
  5
241
102
{ACAD_REACTORS
330
231
102
}
330
231
100
AcDbVisualStyle
  2
ColorChange
 70
16
177
3
291
1
 70
58
 90
2
176
1
 90
2
176
1
 90
3
176
1
 90
0
176
1
 40
0.6
176
1
 40
30.0
176
1
 62
8
420
8421504
176
1
 90
1
176
1
 90
4
176
1
 62
7
176
1
 62
257
176
1
 90
1
176
1
 90
1
176
1
 40
1.0
176
1
 90
8
176
1
 62
8
420
8421504
176
1
 40
1.0
176
1
 90
1
176
1
 90
6
176
1
 90
2
176
1
 62
7
176
1
 90
5
176
1
 90
0
176
1
 90
0
176
1
290
0
176
1
 90
1
176
1
 40
0.0
176
1
 90
0
176
1
290
0
176
1
290
1
176
1
290
1
176
1
290
0
176
1
290
0
176
1
290
0
176
1
290
0
176
1
290
0
176
1
290
0
176
1
 90
50
176
1
 40
0.0
176
1
 40
1.0
176
1
 90
0
176
1
 62
18
420
0
176
1
 90
50
176
1
 90
3
176
1
 62
5
420
255
176
1
290
0
176
1
 90
50
176
1
 90
50
176
1
 90
50
176
1
290
0
176
1
 90
50
176
1
 62
256
176
0
 40
1.0
176
0
 90
2
176
1
  1
strokes_ogs.tif
176
1
290
0
176
1
 40
1.0
176
1
 40
1.0
176
1
  0
VISUALSTYLE
  5
23B
102
{ACAD_REACTORS
330
231
102
}
330
231
100
AcDbVisualStyle
  2
Conceptual
 70
9
177
3
291
0
 70
58
 90
3
176
1
 90
2
176
1
 90
0
176
1
 90
0
176
1
 40
0.6
176
1
 40
30.0
176
1
 62
7
420
16777215
176
1
 90
2
176
1
 90
2
176
1
 62
7
176
1
 62
257
176
1
 90
1
176
1
 90
1
176
1
 40
179.0
176
1
 90
8
176
1
 62
7
176
1
 40
1.0
176
1
 90
1
176
1
 90
6
176
1
 90
2
176
1
 62
7
176
1
 90
3
176
1
 90
0
176
1
 90
0
176
1
290
0
176
1
 90
1
176
1
 40
0.0
176
1
 90
0
176
1
290
0
176
1
290
1
176
1
290
1
176
1
290
0
176
1
290
0
176
1
290
0
176
1
290
0
176
1
290
0
176
1
290
0
176
1
 90
50
176
1
 40
0.0
176
1
 40
1.0
176
1
 90
0
176
1
 62
18
420
0
176
1
 90
50
176
1
 90
3
176
1
 62
5
420
255
176
1
290
0
176
1
 90
50
176
1
 90
50
176
1
 90
50
176
1
290
0
176
1
 90
50
176
1
 62
256
176
0
 40
1.0
176
0
 90
2
176
1
  1
strokes_ogs.tif
176
1
290
0
176
1
 40
1.0
176
1
 40
1.0
176
1
  0
VISUALSTYLE
  5
23C
102
{ACAD_REACTORS
330
231
102
}
330
231
100
AcDbVisualStyle
  2
Dim
 70
11
177
3
291
1
 70
58
 90
2
176
1
 90
2
176
1
 90
0
176
1
 90
0
176
1
 40
0.6
176
1
 40
30.0
176
1
 62
7
420
16777215
176
1
 90
1
176
1
 90
4
176
1
 62
7
176
1
 62
257
176
1
 90
1
176
1
 90
1
176
1
 40
1.0
176
1
 90
8
176
1
 62
7
176
1
 40
1.0
176
1
 90
1
176
1
 90
6
176
1
 90
2
176
1
 62
7
176
1
 90
5
176
1
 90
0
176
1
 90
0
176
1
290
0
176
1
 90
1
176
1
 40
-50.0
176
1
 90
0
176
1
290
0
176
1
290
1
176
1
290
1
176
1
290
0
176
1
290
0
176
1
290
0
176
1
290
0
176
1
290
0
176
1
290
0
176
1
 90
50
176
1
 40
0.0
176
1
 40
1.0
176
1
 90
0
176
1
 62
18
420
0
176
1
 90
50
176
1
 90
3
176
1
 62
5
420
255
176
1
290
0
176
1
 90
50
176
1
 90
50
176
1
 90
50
176
1
290
0
176
1
 90
50
176
1
 62
256
176
0
 40
1.0
176
0
 90
2
176
1
  1
strokes_ogs.tif
176
1
290
0
176
1
 40
1.0
176
1
 40
1.0
176
1
  0
VISUALSTYLE
  5
244
102
{ACAD_REACTORS
330
231
102
}
330
231
100
AcDbVisualStyle
  2
EdgeColorOff
 70
22
177
3
291
1
 70
58
 90
2
176
0
 90
2
176
0
 90
0
176
0
 90
0
176
0
 40
0.6
176
0
 40
30.0
176
0
 62
7
420
16777215
176
0
 90
1
176
0
 90
4
176
0
 62
7
176
0
 62
257
176
0
 90
1
176
0
 90
1
176
0
 40
1.0
176
0
 90
8
176
2
 62
7
176
0
 40
1.0
176
0
 90
1
176
0
 90
6
176
0
 90
2
176
0
 62
7
176
0
 90
5
176
0
 90
0
176
0
 90
0
176
0
290
0
176
0
 90
1
176
0
 40
0.0
176
0
 90
0
176
0
290
0
176
0
290
1
176
0
290
1
176
0
290
0
176
0
290
0
176
0
290
0
176
0
290
0
176
0
290
0
176
0
290
0
176
0
 90
50
176
0
 40
0.0
176
0
 40
1.0
176
0
 90
0
176
0
 62
18
420
0
176
0
 90
50
176
0
 90
3
176
0
 62
5
420
255
176
0
290
0
176
0
 90
50
176
0
 90
50
176
0
 90
50
176
0
290
0
176
0
 90
50
176
0
 62
256
176
0
 40
1.0
176
0
 90
2
176
0
  1
strokes_ogs.tif
176
0
290
0
176
0
 40
1.0
176
0
 40
1.0
176
0
  0
VISUALSTYLE
  5
240
102
{ACAD_REACTORS
330
231
102
}
330
231
100
AcDbVisualStyle
  2
Facepattern
 70
15
177
3
291
1
 70
58
 90
2
176
1
 90
2
176
1
 90
0
176
1
 90
0
176
1
 40
0.6
176
1
 40
30.0
176
1
 62
7
420
16777215
176
1
 90
1
176
1
 90
4
176
1
 62
7
176
1
 62
257
176
1
 90
1
176
1
 90
1
176
1
 40
1.0
176
1
 90
8
176
1
 62
7
176
1
 40
1.0
176
1
 90
1
176
1
 90
6
176
1
 90
2
176
1
 62
7
176
1
 90
5
176
1
 90
0
176
1
 90
0
176
1
290
0
176
1
 90
1
176
1
 40
0.0
176
1
 90
0
176
1
290
0
176
1
290
1
176
1
290
1
176
1
290
0
176
1
290
0
176
1
290
0
176
1
290
0
176
1
290
0
176
1
290
0
176
1
 90
50
176
1
 40
0.0
176
1
 40
1.0
176
1
 90
0
176
1
 62
18
420
0
176
1
 90
50
176
1
 90
3
176
1
 62
5
420
255
176
1
290
0
176
1
 90
50
176
1
 90
50
176
1
 90
50
176
1
290
0
176
1
 90
50
176
1
 62
256
176
0
 40
1.0
176
0
 90
2
176
1
  1
strokes_ogs.tif
176
1
290
0
176
1
 40
1.0
176
1
 40
1.0
176
1
  0
VISUALSTYLE
  5
232
102
{ACAD_REACTORS
330
231
102
}
330
231
100
AcDbVisualStyle
  2
Flat
 70
0
177
3
291
1
 70
58
 90
2
176
1
 90
1
176
1
 90
1
176
1
 90
2
176
1
 40
0.6
176
1
 40
30.0
176
1
 62
7
420
16777215
176
1
 90
0
176
1
 90
0
176
1
 62
7
176
1
 62
257
176
1
 90
1
176
1
 90
1
176
1
 40
1.0
176
1
 90
8
176
1
 62
7
176
1
 40
1.0
176
1
 90
1
176
1
 90
6
176
1
 90
2
176
1
 62
7
176
1
 90
5
176
1
 90
0
176
1
 90
0
176
1
290
0
176
1
 90
13
176
1
 40
0.0
176
1
 90
0
176
1
290
0
176
1
290
1
176
1
290
1
176
1
290
0
176
1
290
0
176
1
290
0
176
1
290
0
176
1
290
0
176
1
290
0
176
1
 90
50
176
1
 40
0.0
176
1
 40
1.0
176
1
 90
0
176
1
 62
18
420
0
176
1
 90
50
176
1
 90
3
176
1
 62
5
420
255
176
1
290
0
176
1
 90
50
176
1
 90
50
176
1
 90
50
176
1
290
0
176
1
 90
50
176
1
 62
256
176
0
 40
1.0
176
0
 90
2
176
1
  1
strokes_ogs.tif
176
1
290
0
176
1
 40
1.0
176
1
 40
1.0
176
1
  0
VISUALSTYLE
  5
233
102
{ACAD_REACTORS
330
231
102
}
330
231
100
AcDbVisualStyle
  2
FlatWithEdges
 70
1
177
3
291
1
 70
58
 90
2
176
1
 90
1
176
1
 90
1
176
1
 90
2
176
1
 40
0.6
176
1
 40
30.0
176
1
 62
7
420
16777215
176
1
 90
1
176
1
 90
0
176
1
 62
7
176
1
 62
257
176
1
 90
1
176
1
 90
1
176
1
 40
1.0
176
1
 90
0
176
1
 62
257
176
1
 40
1.0
176
1
 90
1
176
1
 90
6
176
1
 90
2
176
1
 62
7
176
1
 90
5
176
1
 90
0
176
1
 90
0
176
1
290
0
176
1
 90
13
176
1
 40
0.0
176
1
 90
0
176
1
290
0
176
1
290
1
176
1
290
1
176
1
290
0
176
1
290
0
176
1
290
0
176
1
290
0
176
1
290
0
176
1
290
0
176
1
 90
50
176
1
 40
0.0
176
1
 40
1.0
176
1
 90
0
176
1
 62
18
420
0
176
1
 90
50
176
1
 90
3
176
1
 62
5
420
255
176
1
290
0
176
1
 90
50
176
1
 90
50
176
1
 90
50
176
1
290
0
176
1
 90
50
176
1
 62
256
176
0
 40
1.0
176
0
 90
2
176
1
  1
strokes_ogs.tif
176
1
290
0
176
1
 40
1.0
176
1
 40
1.0
176
1
  0
VISUALSTYLE
  5
234
102
{ACAD_REACTORS
330
231
102
}
330
231
100
AcDbVisualStyle
  2
Gouraud
 70
2
177
3
291
1
 70
58
 90
2
176
1
 90
2
176
1
 90
1
176
1
 90
2
176
1
 40
0.6
176
1
 40
30.0
176
1
 62
7
420
16777215
176
1
 90
0
176
1
 90
0
176
1
 62
7
176
1
 62
257
176
1
 90
1
176
1
 90
1
176
1
 40
1.0
176
1
 90
0
176
1
 62
7
176
1
 40
1.0
176
1
 90
1
176
1
 90
6
176
1
 90
2
176
1
 62
7
176
1
 90
5
176
1
 90
0
176
1
 90
0
176
1
290
0
176
1
 90
13
176
1
 40
0.0
176
1
 90
0
176
1
290
0
176
1
290
1
176
1
290
1
176
1
290
0
176
1
290
0
176
1
290
0
176
1
290
0
176
1
290
0
176
1
290
0
176
1
 90
50
176
1
 40
0.0
176
1
 40
1.0
176
1
 90
0
176
1
 62
18
420
0
176
1
 90
50
176
1
 90
3
176
1
 62
5
420
255
176
1
290
0
176
1
 90
50
176
1
 90
50
176
1
 90
50
176
1
290
0
176
1
 90
50
176
1
 62
256
176
0
 40
1.0
176
0
 90
2
176
1
  1
strokes_ogs.tif
176
1
290
0
176
1
 40
1.0
176
1
 40
1.0
176
1
  0
VISUALSTYLE
  5
235
102
{ACAD_REACTORS
330
231
102
}
330
231
100
AcDbVisualStyle
  2
GouraudWithEdges
 70
3
177
3
291
1
 70
58
 90
2
176
1
 90
2
176
1
 90
1
176
1
 90
2
176
1
 40
0.6
176
1
 40
30.0
176
1
 62
7
420
16777215
176
1
 90
1
176
1
 90
0
176
1
 62
7
176
1
 62
257
176
1
 90
1
176
1
 90
1
176
1
 40
1.0
176
1
 90
0
176
1
 62
257
176
1
 40
1.0
176
1
 90
1
176
1
 90
6
176
1
 90
2
176
1
 62
7
176
1
 90
5
176
1
 90
0
176
1
 90
0
176
1
290
0
176
1
 90
13
176
1
 40
0.0
176
1
 90
0
176
1
290
0
176
1
290
1
176
1
290
1
176
1
290
0
176
1
290
0
176
1
290
0
176
1
290
0
176
1
290
0
176
1
290
0
176
1
 90
50
176
1
 40
0.0
176
1
 40
1.0
176
1
 90
0
176
1
 62
18
420
0
176
1
 90
50
176
1
 90
3
176
1
 62
5
420
255
176
1
290
0
176
1
 90
50
176
1
 90
50
176
1
 90
50
176
1
290
0
176
1
 90
50
176
1
 62
256
176
0
 40
1.0
176
0
 90
2
176
1
  1
strokes_ogs.tif
176
1
290
0
176
1
 40
1.0
176
1
 40
1.0
176
1
  0
VISUALSTYLE
  5
238
102
{ACAD_REACTORS
330
231
102
}
330
231
100
AcDbVisualStyle
  2
Hidden
 70
6
177
3
291
0
 70
58
 90
1
176
1
 90
2
176
1
 90
2
176
1
 90
0
176
1
 40
0.6
176
1
 40
30.0
176
1
 62
7
420
16777215
176
1
 90
2
176
1
 90
2
176
1
 62
7
176
1
 62
257
176
1
 90
2
176
1
 90
1
176
1
 40
40.0
176
1
 90
0
176
1
 62
257
176
1
 40
1.0
176
1
 90
1
176
1
 90
6
176
1
 90
2
176
1
 62
7
176
1
 90
3
176
1
 90
0
176
1
 90
0
176
1
290
0
176
1
 90
1
176
1
 40
0.0
176
1
 90
0
176
1
290
0
176
1
290
1
176
1
290
1
176
1
290
0
176
1
290
0
176
1
290
0
176
1
290
0
176
1
290
0
176
1
290
0
176
1
 90
50
176
1
 40
0.0
176
1
 40
1.0
176
1
 90
0
176
1
 62
18
420
0
176
1
 90
50
176
1
 90
3
176
1
 62
5
420
255
176
1
290
0
176
1
 90
50
176
1
 90
50
176
1
 90
50
176
1
290
0
176
1
 90
50
176
1
 62
256
176
0
 40
1.0
176
0
 90
2
176
1
  1
strokes_ogs.tif
176
1
290
0
176
1
 40
1.0
176
1
 40
1.0
176
1
  0
VISUALSTYLE
  5
242
102
{ACAD_REACTORS
330
231
102
}
330
231
100
AcDbVisualStyle
  2
JitterOff
 70
20
177
3
291
1
 70
58
 90
2
176
0
 90
2
176
0
 90
0
176
0
 90
0
176
0
 40
0.6
176
0
 40
30.0
176
0
 62
7
420
16777215
176
0
 90
1
176
0
 90
4
176
0
 62
7
176
0
 62
257
176
0
 90
1
176
0
 90
1
176
0
 40
1.0
176
0
 90
10
176
2
 62
7
176
0
 40
1.0
176
0
 90
1
176
0
 90
6
176
0
 90
2
176
0
 62
7
176
0
 90
5
176
0
 90
0
176
0
 90
0
176
0
290
0
176
0
 90
1
176
0
 40
0.0
176
0
 90
0
176
0
290
0
176
0
290
1
176
0
290
1
176
0
290
0
176
0
290
0
176
0
290
0
176
0
290
0
176
0
290
0
176
0
290
0
176
0
 90
50
176
0
 40
0.0
176
0
 40
1.0
176
0
 90
0
176
0
 62
18
420
0
176
0
 90
50
176
0
 90
3
176
0
 62
5
420
255
176
0
290
0
176
0
 90
50
176
0
 90
50
176
0
 90
50
176
0
290
0
176
0
 90
50
176
0
 62
256
176
0
 40
1.0
176
0
 90
2
176
0
  1
strokes_ogs.tif
176
0
290
0
176
0
 40
1.0
176
0
 40
1.0
176
0
  0
VISUALSTYLE
  5
23F
102
{ACAD_REACTORS
330
231
102
}
330
231
100
AcDbVisualStyle
  2
Linepattern
 70
14
177
3
291
1
 70
58
 90
2
176
1
 90
2
176
1
 90
0
176
1
 90
0
176
1
 40
0.6
176
1
 40
30.0
176
1
 62
7
420
16777215
176
1
 90
1
176
1
 90
4
176
1
 62
7
176
1
 62
257
176
1
 90
7
176
1
 90
7
176
1
 40
1.0
176
1
 90
8
176
1
 62
7
176
1
 40
1.0
176
1
 90
1
176
1
 90
6
176
1
 90
2
176
1
 62
7
176
1
 90
5
176
1
 90
0
176
1
 90
0
176
1
290
0
176
1
 90
1
176
1
 40
0.0
176
1
 90
0
176
1
290
0
176
1
290
1
176
1
290
1
176
1
290
0
176
1
290
0
176
1
290
0
176
1
290
0
176
1
290
0
176
1
290
0
176
1
 90
50
176
1
 40
0.0
176
1
 40
1.0
176
1
 90
0
176
1
 62
18
420
0
176
1
 90
50
176
1
 90
3
176
1
 62
5
420
255
176
1
290
0
176
1
 90
50
176
1
 90
50
176
1
 90
50
176
1
290
0
176
1
 90
50
176
1
 62
256
176
0
 40
1.0
176
0
 90
2
176
1
  1
strokes_ogs.tif
176
1
290
0
176
1
 40
1.0
176
1
 40
1.0
176
1
  0
VISUALSTYLE
  5
243
102
{ACAD_REACTORS
330
231
102
}
330
231
100
AcDbVisualStyle
  2
OverhangOff
 70
21
177
3
291
1
 70
58
 90
2
176
0
 90
2
176
0
 90
0
176
0
 90
0
176
0
 40
0.6
176
0
 40
30.0
176
0
 62
7
420
16777215
176
0
 90
1
176
0
 90
4
176
0
 62
7
176
0
 62
257
176
0
 90
1
176
0
 90
1
176
0
 40
1.0
176
0
 90
9
176
2
 62
7
176
0
 40
1.0
176
0
 90
1
176
0
 90
6
176
0
 90
2
176
0
 62
7
176
0
 90
5
176
0
 90
0
176
0
 90
0
176
0
290
0
176
0
 90
1
176
0
 40
0.0
176
0
 90
0
176
0
290
0
176
0
290
1
176
0
290
1
176
0
290
0
176
0
290
0
176
0
290
0
176
0
290
0
176
0
290
0
176
0
290
0
176
0
 90
50
176
0
 40
0.0
176
0
 40
1.0
176
0
 90
0
176
0
 62
18
420
0
176
0
 90
50
176
0
 90
3
176
0
 62
5
420
255
176
0
290
0
176
0
 90
50
176
0
 90
50
176
0
 90
50
176
0
290
0
176
0
 90
50
176
0
 62
256
176
0
 40
1.0
176
0
 90
2
176
0
  1
strokes_ogs.tif
176
0
290
0
176
0
 40
1.0
176
0
 40
1.0
176
0
  0
VISUALSTYLE
  5
23A
102
{ACAD_REACTORS
330
231
102
}
330
231
100
AcDbVisualStyle
  2
Realistic
 70
8
177
3
291
0
 70
58
 90
2
176
1
 90
3
176
1
 90
0
176
1
 90
2
176
1
 40
0.6
176
1
 40
30.0
176
1
 62
7
420
16777215
176
1
 90
0
176
1
 90
0
176
1
 62
7
176
1
 62
257
176
1
 90
1
176
1
 90
1
176
1
 40
1.0
176
1
 90
8
176
1
 62
257
176
1
 40
1.0
176
1
 90
1
176
1
 90
6
176
1
 90
2
176
1
 62
7
176
1
 90
3
176
1
 90
0
176
1
 90
0
176
1
290
0
176
1
 90
13
176
1
 40
0.0
176
1
 90
0
176
1
290
0
176
1
290
1
176
1
290
1
176
1
290
0
176
1
290
0
176
1
290
0
176
1
290
0
176
1
290
0
176
1
290
0
176
1
 90
50
176
1
 40
0.0
176
1
 40
1.0
176
1
 90
0
176
1
 62
18
420
0
176
1
 90
50
176
1
 90
3
176
1
 62
5
420
255
176
1
290
0
176
1
 90
50
176
1
 90
50
176
1
 90
50
176
1
290
0
176
1
 90
50
176
1
 62
256
176
0
 40
1.0
176
0
 90
2
176
1
  1
strokes_ogs.tif
176
1
290
0
176
1
 40
1.0
176
1
 40
1.0
176
1
  0
VISUALSTYLE
  5
249
102
{ACAD_REACTORS
330
231
102
}
330
231
100
AcDbVisualStyle
  2
Shaded
 70
27
177
3
291
0
 70
58
 90
2
176
1
 90
2
176
1
 90
1
176
1
 90
2
176
1
 40
0.6
176
1
 40
30.0
176
1
 62
7
420
16777215
176
1
 90
0
176
1
 90
4
176
1
 62
7
176
1
 62
257
176
1
 90
1
176
1
 90
1
176
1
 40
1.0
176
1
 90
8
176
1
 62
257
176
1
 40
1.0
176
1
 90
1
176
1
 90
6
176
1
 90
2
176
1
 62
8
420
7895160
176
1
 90
3
176
1
 90
0
176
1
 90
0
176
1
290
0
176
1
 90
5
176
1
 40
0.0
176
1
 90
0
176
1
290
0
176
1
290
1
176
1
290
1
176
1
290
0
176
1
290
0
176
1
290
0
176
1
290
0
176
1
290
0
176
1
290
0
176
1
 90
50
176
1
 40
0.0
176
1
 40
1.0
176
1
 90
0
176
1
 62
18
420
0
176
1
 90
50
176
1
 90
3
176
1
 62
5
420
255
176
1
290
0
176
1
 90
50
176
1
 90
50
176
1
 90
50
176
1
290
0
176
1
 90
50
176
1
 62
256
176
0
 40
1.0
176
0
 90
2
176
1
  1
strokes_ogs.tif
176
1
290
0
176
1
 40
1.0
176
1
 40
1.0
176
1
  0
VISUALSTYLE
  5
248
102
{ACAD_REACTORS
330
231
102
}
330
231
100
AcDbVisualStyle
  2
Shaded with edges
 70
26
177
3
291
0
 70
58
 90
2
176
1
 90
2
176
1
 90
1
176
1
 90
2
176
1
 40
0.6
176
1
 40
30.0
176
1
 62
7
420
16777215
176
1
 90
1
176
1
 90
10
176
1
 62
7
176
1
 62
257
176
1
 90
2
176
1
 90
1
176
1
 40
1.0
176
1
 90
8
176
1
 62
257
176
1
 40
1.0
176
1
 90
1
176
1
 90
6
176
1
 90
2
176
1
 62
7
176
1
 90
3
176
1
 90
0
176
1
 90
0
176
1
290
0
176
1
 90
5
176
1
 40
0.0
176
1
 90
0
176
1
290
0
176
1
290
1
176
1
290
1
176
1
290
0
176
1
290
0
176
1
290
0
176
1
290
0
176
1
290
0
176
1
290
0
176
1
 90
50
176
1
 40
0.0
176
1
 40
1.0
176
1
 90
0
176
1
 62
18
420
0
176
1
 90
50
176
1
 90
3
176
1
 62
5
420
255
176
1
290
0
176
1
 90
50
176
1
 90
50
176
1
 90
50
176
1
290
0
176
1
 90
50
176
1
 62
256
176
0
 40
1.0
176
0
 90
2
176
1
  1
strokes_ogs.tif
176
1
290
0
176
1
 40
1.0
176
1
 40
1.0
176
1
  0
VISUALSTYLE
  5
245
102
{ACAD_REACTORS
330
231
102
}
330
231
100
AcDbVisualStyle
  2
Shades of Gray
 70
23
177
3
291
0
 70
58
 90
2
176
1
 90
2
176
1
 90
3
176
1
 90
0
176
1
 40
0.6
176
1
 40
30.0
176
1
 62
7
420
16777215
176
1
 90
2
176
1
 90
2
176
1
 62
7
176
1
 62
7
176
1
 90
1
176
1
 90
1
176
1
 40
40.0
176
1
 90
8
176
1
 62
7
176
1
 40
1.0
176
1
 90
1
176
1
 90
6
176
1
 90
2
176
1
 62
7
176
1
 90
3
176
1
 90
0
176
1
 90
0
176
1
290
0
176
1
 90
1
176
1
 40
0.0
176
1
 90
0
176
1
290
0
176
1
290
1
176
1
290
1
176
1
290
0
176
1
290
0
176
1
290
0
176
1
290
0
176
1
290
0
176
1
290
0
176
1
 90
50
176
1
 40
0.0
176
1
 40
1.0
176
1
 90
0
176
1
 62
18
420
0
176
1
 90
50
176
1
 90
3
176
1
 62
5
420
255
176
1
290
0
176
1
 90
50
176
1
 90
50
176
1
 90
50
176
1
290
0
176
1
 90
50
176
1
 62
256
176
0
 40
1.0
176
0
 90
2
176
1
  1
strokes_ogs.tif
176
1
290
0
176
1
 40
1.0
176
1
 40
1.0
176
1
  0
VISUALSTYLE
  5
246
102
{ACAD_REACTORS
330
231
102
}
330
231
100
AcDbVisualStyle
  2
Sketchy
 70
24
177
3
291
0
 70
58
 90
1
176
1
 90
2
176
1
 90
2
176
1
 90
0
176
1
 40
0.6
176
1
 40
30.0
176
1
 62
7
420
16777215
176
1
 90
2
176
1
 90
2
176
1
 62
7
176
1
 62
7
176
1
 90
1
176
1
 90
1
176
1
 40
40.0
176
1
 90
11
176
1
 62
7
176
1
 40
1.0
176
1
 90
1
176
1
 90
6
176
1
 90
2
176
1
 62
7
176
1
 90
6
176
1
 90
0
176
1
 90
0
176
1
290
0
176
1
 90
1
176
1
 40
0.0
176
1
 90
0
176
1
290
0
176
1
290
1
176
1
290
1
176
1
290
0
176
1
290
0
176
1
290
0
176
1
290
0
176
1
290
0
176
1
290
0
176
1
 90
50
176
1
 40
0.0
176
1
 40
1.0
176
1
 90
0
176
1
 62
18
420
0
176
1
 90
50
176
1
 90
3
176
1
 62
5
420
255
176
1
290
0
176
1
 90
50
176
1
 90
50
176
1
 90
50
176
1
290
0
176
1
 90
50
176
1
 62
256
176
0
 40
1.0
176
0
 90
2
176
1
  1
strokes_ogs.tif
176
1
290
0
176
1
 40
1.0
176
1
 40
1.0
176
1
  0
VISUALSTYLE
  5
23E
102
{ACAD_REACTORS
330
231
102
}
330
231
100
AcDbVisualStyle
  2
Thicken
 70
13
177
3
291
1
 70
58
 90
2
176
1
 90
2
176
1
 90
0
176
1
 90
0
176
1
 40
0.6
176
1
 40
30.0
176
1
 62
7
420
16777215
176
1
 90
1
176
1
 90
4
176
1
 62
7
176
1
 62
257
176
1
 90
1
176
1
 90
1
176
1
 40
1.0
176
1
 90
12
176
1
 62
7
176
1
 40
1.0
176
1
 90
1
176
1
 90
6
176
1
 90
2
176
1
 62
7
176
1
 90
5
176
1
 90
0
176
1
 90
0
176
1
290
0
176
1
 90
1
176
1
 40
0.0
176
1
 90
0
176
1
290
0
176
1
290
1
176
1
290
1
176
1
290
0
176
1
290
0
176
1
290
0
176
1
290
0
176
1
290
0
176
1
290
0
176
1
 90
50
176
1
 40
0.0
176
1
 40
1.0
176
1
 90
0
176
1
 62
18
420
0
176
1
 90
50
176
1
 90
3
176
1
 62
5
420
255
176
1
290
0
176
1
 90
50
176
1
 90
50
176
1
 90
50
176
1
290
0
176
1
 90
50
176
1
 62
256
176
0
 40
1.0
176
0
 90
2
176
1
  1
strokes_ogs.tif
176
1
290
0
176
1
 40
1.0
176
1
 40
1.0
176
1
  0
VISUALSTYLE
  5
237
102
{ACAD_REACTORS
330
231
102
}
330
231
100
AcDbVisualStyle
  2
Wireframe
 70
5
177
3
291
0
 70
58
 90
0
176
1
 90
2
176
1
 90
0
176
1
 90
0
176
1
 40
0.6
176
1
 40
30.0
176
1
 62
7
420
16777215
176
1
 90
1
176
1
 90
4
176
1
 62
7
176
1
 62
257
176
1
 90
1
176
1
 90
1
176
1
 40
1.0
176
1
 90
0
176
1
 62
257
176
1
 40
1.0
176
1
 90
1
176
1
 90
6
176
1
 90
2
176
1
 62
7
176
1
 90
3
176
1
 90
0
176
1
 90
0
176
1
290
0
176
1
 90
1
176
1
 40
0.0
176
1
 90
0
176
1
290
0
176
1
290
1
176
1
290
1
176
1
290
0
176
1
290
0
176
1
290
0
176
1
290
0
176
1
290
0
176
1
290
0
176
1
 90
50
176
1
 40
0.0
176
1
 40
1.0
176
1
 90
0
176
1
 62
18
420
0
176
1
 90
50
176
1
 90
3
176
1
 62
5
420
255
176
1
290
0
176
1
 90
50
176
1
 90
50
176
1
 90
50
176
1
290
0
176
1
 90
50
176
1
 62
256
176
0
 40
1.0
176
0
 90
2
176
1
  1
strokes_ogs.tif
176
1
290
0
176
1
 40
1.0
176
1
 40
1.0
176
1
  0
VISUALSTYLE
  5
247
102
{ACAD_REACTORS
330
231
102
}
330
231
100
AcDbVisualStyle
  2
X-Ray
 70
25
177
3
291
0
 70
58
 90
2
176
1
 90
2
176
1
 90
1
176
1
 90
1
176
1
 40
0.5
176
1
 40
30.0
176
1
 62
7
420
16777215
176
1
 90
1
176
1
 90
0
176
1
 62
7
176
1
 62
257
176
1
 90
1
176
1
 90
1
176
1
 40
1.0
176
1
 90
8
176
1
 62
7
176
1
 40
1.0
176
1
 90
1
176
1
 90
6
176
1
 90
2
176
1
 62
7
176
1
 90
3
176
1
 90
0
176
1
 90
0
176
1
290
0
176
1
 90
13
176
1
 40
0.0
176
1
 90
0
176
1
290
0
176
1
290
1
176
1
290
1
176
1
290
0
176
1
290
0
176
1
290
0
176
1
290
0
176
1
290
0
176
1
290
0
176
1
 90
50
176
1
 40
0.0
176
1
 40
1.0
176
1
 90
0
176
1
 62
18
420
0
176
1
 90
50
176
1
 90
3
176
1
 62
5
420
255
176
1
290
0
176
1
 90
50
176
1
 90
50
176
1
 90
50
176
1
290
0
176
1
 90
50
176
1
 62
256
176
0
 40
1.0
176
0
 90
2
176
1
  1
strokes_ogs.tif
176
1
290
0
176
1
 40
1.0
176
1
 40
1.0
176
1
  0
DICTIONARYVAR
  5
24F
102
{ACAD_REACTORS
330
24E
102
}
330
24E
100
DictionaryVariables
280
0
  1
1:1
  0
DICTIONARYVAR
  5
254
102
{ACAD_REACTORS
330
24E
102
}
330
24E
100
DictionaryVariables
280
0
  1
Standard
  0
DICTIONARYVAR
  5
253
102
{ACAD_REACTORS
330
24E
102
}
330
24E
100
DictionaryVariables
280
0
  1
Standard
  0
DICTIONARYVAR
  5
255
102
{ACAD_REACTORS
330
24E
102
}
330
24E
100
DictionaryVariables
280
0
  1
0
  0
DICTIONARY
  5
250
330
24B
100
AcDbDictionary
280
1
281
1
  3
ACAD_ROUNDTRIP_2008_TABLESTYLE_CELLSTYLEMAP
360
251
  0
CELLSTYLEMAP
  5
251
102
{ACAD_REACTORS
330
250
102
}
330
250
100
AcDbCellStyleMap
 90
3
300
CELLSTYLE
  1
TABLEFORMAT_BEGIN
 90
5
170
1
 91
0
 92
32768
 62
257
 93
1
300
CONTENTFORMAT
  1
CONTENTFORMAT_BEGIN
 90
0
 91
0
 92
4
 93
0
300

 40
0.0
140
1.0
 94
5
 62
0
340
11
144
0.25
309
CONTENTFORMAT_END
171
1
301
MARGIN
  1
CELLMARGIN_BEGIN
 40
0.06
 40
0.06
 40
0.06
 40
0.06
 40
0.06
 40
0.06
309
CELLMARGIN_END
 94
6
 95
1
302
GRIDFORMAT
  1
GRIDFORMAT_BEGIN
 90
0
 91
1
 62
0
 92
-2
340
14
 93
0
 40
0.045
309
GRIDFORMAT_END
 95
2
302
GRIDFORMAT
  1
GRIDFORMAT_BEGIN
 90
0
 91
1
 62
0
 92
-2
340
14
 93
0
 40
0.045
309
GRIDFORMAT_END
 95
4
302
GRIDFORMAT
  1
GRIDFORMAT_BEGIN
 90
0
 91
1
 62
0
 92
-2
340
14
 93
0
 40
0.045
309
GRIDFORMAT_END
 95
8
302
GRIDFORMAT
  1
GRIDFORMAT_BEGIN
 90
0
 91
1
 62
0
 92
-2
340
14
 93
0
 40
0.045
309
GRIDFORMAT_END
 95
16
302
GRIDFORMAT
  1
GRIDFORMAT_BEGIN
 90
0
 91
1
 62
0
 92
-2
340
14
 93
0
 40
0.045
309
GRIDFORMAT_END
 95
32
302
GRIDFORMAT
  1
GRIDFORMAT_BEGIN
 90
0
 91
1
 62
0
 92
-2
340
14
 93
0
 40
0.045
309
GRIDFORMAT_END
309
TABLEFORMAT_END
  1
CELLSTYLE_BEGIN
 90
1
 91
1
300
_TITLE
309
CELLSTYLE_END
300
CELLSTYLE
  1
TABLEFORMAT_BEGIN
 90
5
170
1
 91
0
 92
0
 62
257
 93
1
300
CONTENTFORMAT
  1
CONTENTFORMAT_BEGIN
 90
0
 91
0
 92
4
 93
0
300

 40
0.0
140
1.0
 94
5
 62
0
340
11
144
0.18
309
CONTENTFORMAT_END
171
1
301
MARGIN
  1
CELLMARGIN_BEGIN
 40
0.06
 40
0.06
 40
0.06
 40
0.06
 40
0.06
 40
0.06
309
CELLMARGIN_END
 94
6
 95
1
302
GRIDFORMAT
  1
GRIDFORMAT_BEGIN
 90
0
 91
1
 62
0
 92
-2
340
14
 93
0
 40
0.045
309
GRIDFORMAT_END
 95
2
302
GRIDFORMAT
  1
GRIDFORMAT_BEGIN
 90
0
 91
1
 62
0
 92
-2
340
14
 93
0
 40
0.045
309
GRIDFORMAT_END
 95
4
302
GRIDFORMAT
  1
GRIDFORMAT_BEGIN
 90
0
 91
1
 62
0
 92
-2
340
14
 93
0
 40
0.045
309
GRIDFORMAT_END
 95
8
302
GRIDFORMAT
  1
GRIDFORMAT_BEGIN
 90
0
 91
1
 62
0
 92
-2
340
14
 93
0
 40
0.045
309
GRIDFORMAT_END
 95
16
302
GRIDFORMAT
  1
GRIDFORMAT_BEGIN
 90
0
 91
1
 62
0
 92
-2
340
14
 93
0
 40
0.045
309
GRIDFORMAT_END
 95
32
302
GRIDFORMAT
  1
GRIDFORMAT_BEGIN
 90
0
 91
1
 62
0
 92
-2
340
14
 93
0
 40
0.045
309
GRIDFORMAT_END
309
TABLEFORMAT_END
  1
CELLSTYLE_BEGIN
 90
2
 91
1
300
_HEADER
309
CELLSTYLE_END
300
CELLSTYLE
  1
TABLEFORMAT_BEGIN
 90
5
170
1
 91
0
 92
0
 62
257
 93
1
300
CONTENTFORMAT
  1
CONTENTFORMAT_BEGIN
 90
0
 91
0
 92
4
 93
0
300

 40
0.0
140
1.0
 94
2
 62
0
340
11
144
0.18
309
CONTENTFORMAT_END
171
1
301
MARGIN
  1
CELLMARGIN_BEGIN
 40
0.06
 40
0.06
 40
0.06
 40
0.06
 40
0.06
 40
0.06
309
CELLMARGIN_END
 94
6
 95
1
302
GRIDFORMAT
  1
GRIDFORMAT_BEGIN
 90
0
 91
1
 62
0
 92
-2
340
14
 93
0
 40
0.045
309
GRIDFORMAT_END
 95
2
302
GRIDFORMAT
  1
GRIDFORMAT_BEGIN
 90
0
 91
1
 62
0
 92
-2
340
14
 93
0
 40
0.045
309
GRIDFORMAT_END
 95
4
302
GRIDFORMAT
  1
GRIDFORMAT_BEGIN
 90
0
 91
1
 62
0
 92
-2
340
14
 93
0
 40
0.045
309
GRIDFORMAT_END
 95
8
302
GRIDFORMAT
  1
GRIDFORMAT_BEGIN
 90
0
 91
1
 62
0
 92
-2
340
14
 93
0
 40
0.045
309
GRIDFORMAT_END
 95
16
302
GRIDFORMAT
  1
GRIDFORMAT_BEGIN
 90
0
 91
1
 62
0
 92
-2
340
14
 93
0
 40
0.045
309
GRIDFORMAT_END
 95
32
302
GRIDFORMAT
  1
GRIDFORMAT_BEGIN
 90
0
 91
1
 62
0
 92
-2
340
14
 93
0
 40
0.045
309
GRIDFORMAT_END
309
TABLEFORMAT_END
  1
CELLSTYLE_BEGIN
 90
3
 91
2
300
_DATA
309
CELLSTYLE_END
  0
DICTIONARY
  5
258
330
C
100
AcDbDictionary
281
1
  0
DICTIONARY
  5
259
330
C
100
AcDbDictionary
280
1
281
1
  3
WRITTEN_BY_EZDXF
350
25A
  0
DICTIONARYVAR
  5
25A
330
259
100
DictionaryVariables
280
0
  1
1.4.3 @ 2026-03-01T09:42:58.824114+00:00
  0
ENDSEC
  0
EOF
