  0
SECTION
  2
HEADER
  9
$ACADVER
  1
AC1032
  9
$ACADMAINTVER
 90
4
  9
$DWGCODEPAGE
  3
ANSI_1252
  9
$LASTSAVEDBY
  1
cipulot
  9
$REQUIREDVERSIONS
160
0
  9
$INSBASE
 10
0.0
 20
0.0
 30
0.0
  9
$EXTMIN
 10
1e+20
 20
1e+20
 30
1e+20
  9
$EXTMAX
 10
-1e+20
 20
-1e+20
 30
-1e+20
  9
$LIMMIN
 10
0.0
 20
0.0
  9
$LIMMAX
 10
12.0
 20
9.0
  9
$ORTHOMODE
 70
0
  9
$REGENMODE
 70
1
  9
$FILLMODE
 70
1
  9
$QTEXTMODE
 70
0
  9
$MIRRTEXT
 70
1
  9
$LTSCALE
 40
1.0
  9
$ATTMODE
 70
1
  9
$TEXTSIZE
 40
0.2
  9
$TRACEWID
 40
0.05
  9
$TEXTSTYLE
  7
Standard
  9
$CLAYER
  8
0
  9
$CELTYPE
  6
ByBlock
  9
$CECOLOR
 62
256
  9
$CELTSCALE
 40
1.0
  9
$DISPSILH
 70
0
  9
$DIMSCALE
 40
1.0
  9
$DIMASZ
 40
0.18
  9
$DIMEXO
 40
0.0625
  9
$DIMDLI
 40
0.38
  9
$DIMRND
 40
0.0
  9
$DIMDLE
 40
0.0
  9
$DIMEXE
 40
0.18
  9
$DIMTP
 40
0.0
  9
$DIMTM
 40
0.0
  9
$DIMTXT
 40
0.18
  9
$DIMCEN
 40
0.09
  9
$DIMTSZ
 40
0.0
  9
$DIMTOL
 70
0
  9
$DIMLIM
 70
0
  9
$DIMTIH
 70
1
  9
$DIMTOH
 70
1
  9
$DIMSE1
 70
0
  9
$DIMSE2
 70
0
  9
$DIMTAD
 70
0
  9
$DIMZIN
 70
0
  9
$DIMBLK
  1

  9
$DIMASO
 70
1
  9
$DIMSHO
 70
1
  9
$DIMPOST
  1

  9
$DIMAPOST
  1

  9
$DIMALT
 70
0
  9
$DIMALTD
 70
2
  9
$DIMALTF
 40
25.4
  9
$DIMLFAC
 40
1.0
  9
$DIMTOFL
 70
0
  9
$DIMTVP
 40
0.0
  9
$DIMTIX
 70
0
  9
$DIMSOXD
 70
0
  9
$DIMSAH
 70
0
  9
$DIMBLK1
  1

  9
$DIMBLK2
  1

  9
$DIMSTYLE
  2
ISO-25
  9
$DIMCLRD
 70
0
  9
$DIMCLRE
 70
0
  9
$DIMCLRT
 70
0
  9
$DIMTFAC
 40
1.0
  9
$DIMGAP
 40
0.09
  9
$DIMJUST
 70
0
  9
$DIMSD1
 70
0
  9
$DIMSD2
 70
0
  9
$DIMTOLJ
 70
1
  9
$DIMTZIN
 70
0
  9
$DIMALTZ
 70
0
  9
$DIMALTTZ
 70
0
  9
$DIMUPT
 70
0
  9
$DIMDEC
 70
4
  9
$DIMTDEC
 70
4
  9
$DIMALTU
 70
2
  9
$DIMALTTD
 70
2
  9
$DIMTXSTY
  7
Standard
  9
$DIMAUNIT
 70
0
  9
$DIMADEC
 70
0
  9
$DIMALTRND
 40
0.0
  9
$DIMAZIN
 70
0
  9
$DIMDSEP
 70
46
  9
$DIMATFIT
 70
3
  9
$DIMFRAC
 70
0
  9
$DIMLDRBLK
  1

  9
$DIMLUNIT
 70
2
  9
$DIMLWD
 70
-2
  9
$DIMLWE
 70
-2
  9
$DIMTMOVE
 70
2
  9
$DIMFXL
 40
1.0
  9
$DIMFXLON
 70
0
  9
$DIMJOGANG
 40
0.7853981633974483
  9
$DIMTFILL
 70
0
  9
$DIMTFILLCLR
 70
0
  9
$DIMARCSYM
 70
0
  9
$DIMLTYPE
  6

  9
$DIMLTEX1
  6

  9
$DIMLTEX2
  6

  9
$DIMTXTDIRECTION
 70
0
  9
$LUNITS
 70
2
  9
$LUPREC
 70
4
  9
$SKETCHINC
 40
0.1
  9
$FILLETRAD
 40
0.0
  9
$AUNITS
 70
0
  9
$AUPREC
 70
0
  9
$MENU
  1
.
  9
$ELEVATION
 40
0.0
  9
$PELEVATION
 40
0.0
  9
$THICKNESS
 40
0.0
  9
$LIMCHECK
 70
0
  9
$CHAMFERA
 40
0.0
  9
$CHAMFERB
 40
0.0
  9
$CHAMFERC
 40
0.0
  9
$CHAMFERD
 40
0.0
  9
$SKPOLY
 70
0
  9
$TDCREATE
 40
2461132.7864930555
  9
$TDUCREATE
 40
2461132.410885382
  9
$TDUPDATE
 40
2461132.7864930555
  9
$TDUUPDATE
 40
2461132.410885463
  9
$TDINDWG
 40
1.16e-08
  9
$TDUSRTIMER
 40
1.16e-08
  9
$USRTIMER
 70
1
  9
$ANGBASE
 50
0.0
  9
$ANGDIR
 70
1
  9
$PDMODE
 70
0
  9
$PDSIZE
 40
0.0
  9
$PLINEWID
 40
0.0
  9
$SPLFRAME
 70
0
  9
$SPLINETYPE
 70
6
  9
$SPLINESEGS
 70
8
  9
$HANDSEED
  5
81D
  9
$SURFTAB1
 70
6
  9
$SURFTAB2
 70
6
  9
$SURFTYPE
 70
6
  9
$SURFU
 70
6
  9
$SURFV
 70
6
  9
$UCSBASE
  2

  9
$UCSNAME
  2

  9
$UCSORG
 10
0.0
 20
0.0
 30
0.0
  9
$UCSXDIR
 10
1.0
 20
0.0
 30
0.0
  9
$UCSYDIR
 10
0.0
 20
1.0
 30
0.0
  9
$UCSORTHOREF
  2

  9
$UCSORTHOVIEW
 70
0
  9
$UCSORGTOP
 10
0.0
 20
0.0
 30
0.0
  9
$UCSORGBOTTOM
 10
0.0
 20
0.0
 30
0.0
  9
$UCSORGLEFT
 10
0.0
 20
0.0
 30
0.0
  9
$UCSORGRIGHT
 10
0.0
 20
0.0
 30
0.0
  9
$UCSORGFRONT
 10
0.0
 20
0.0
 30
0.0
  9
$UCSORGBACK
 10
0.0
 20
0.0
 30
0.0
  9
$PUCSBASE
  2

  9
$PUCSNAME
  2

  9
$PUCSORG
 10
0.0
 20
0.0
 30
0.0
  9
$PUCSXDIR
 10
1.0
 20
0.0
 30
0.0
  9
$PUCSYDIR
 10
0.0
 20
1.0
 30
0.0
  9
$PUCSORTHOREF
  2

  9
$PUCSORTHOVIEW
 70
0
  9
$PUCSORGTOP
 10
0.0
 20
0.0
 30
0.0
  9
$PUCSORGBOTTOM
 10
0.0
 20
0.0
 30
0.0
  9
$PUCSORGLEFT
 10
0.0
 20
0.0
 30
0.0
  9
$PUCSORGRIGHT
 10
0.0
 20
0.0
 30
0.0
  9
$PUCSORGFRONT
 10
0.0
 20
0.0
 30
0.0
  9
$PUCSORGBACK
 10
0.0
 20
0.0
 30
0.0
  9
$USERI1
 70
0
  9
$USERI2
 70
0
  9
$USERI3
 70
0
  9
$USERI4
 70
0
  9
$USERI5
 70
0
  9
$USERR1
 40
0.0
  9
$USERR2
 40
0.0
  9
$USERR3
 40
0.0
  9
$USERR4
 40
0.0
  9
$USERR5
 40
0.0
  9
$WORLDVIEW
 70
1
  9
$SHADEDGE
 70
3
  9
$SHADEDIF
 70
70
  9
$TILEMODE
 70
1
  9
$MAXACTVP
 70
64
  9
$PINSBASE
 10
0.0
 20
0.0
 30
0.0
  9
$PLIMCHECK
 70
0
  9
$PEXTMIN
 10
1e+20
 20
1e+20
 30
1e+20
  9
$PEXTMAX
 10
-1e+20
 20
-1e+20
 30
-1e+20
  9
$PLIMMIN
 10
0.0
 20
0.0
  9
$PLIMMAX
 10
12.0
 20
9.0
  9
$UNITMODE
 70
0
  9
$VISRETAIN
 70
1
  9
$PLINEGEN
 70
0
  9
$PSLTSCALE
 70
1
  9
$TREEDEPTH
 70
3020
  9
$CMLSTYLE
  2
Standard
  9
$CMLJUST
 70
0
  9
$CMLSCALE
 40
1.0
  9
$PROXYGRAPHICS
 70
1
  9
$MEASUREMENT
 70
1
  9
$CELWEIGHT
370
-1
  9
$ENDCAPS
280
0
  9
$JOINSTYLE
280
0
  9
$LWDISPLAY
290
0
  9
$INSUNITS
 70
4
  9
$HYPERLINKBASE
  1

  9
$STYLESHEET
  1

  9
$XEDIT
290
1
  9
$CEPSNTYPE
380
0
  9
$PSTYLEMODE
290
1
  9
$FINGERPRINTGUID
  2
{58ec519f-c1d3-084c-adf2-72fffc9ae300}
  9
$VERSIONGUID
  2
{1B2BE60B-07B1-4284-81BC-C4F733802DAB}
  9
$EXTNAMES
290
1
  9
$PSVPSCALE
 40
0.0
  9
$OLESTARTUP
290
0
  9
$SORTENTS
280
127
  9
$INDEXCTL
280
0
  9
$HIDETEXT
280
1
  9
$XCLIPFRAME
280
2
  9
$HALOGAP
280
0
  9
$OBSCOLOR
 70
257
  9
$OBSLTYPE
280
0
  9
$INTERSECTIONDISPLAY
280
0
  9
$INTERSECTIONCOLOR
 70
257
  9
$DIMASSOC
280
2
  9
$PROJECTNAME
  1

  9
$CAMERADISPLAY
290
0
  9
$LENSLENGTH
 40
50.0
  9
$CAMERAHEIGHT
 40
0.0
  9
$STEPSPERSEC
 40
2.0
  9
$STEPSIZE
 40
6.0
  9
$3DDWFPREC
 40
2.0
  9
$PSOLWIDTH
 40
0.25
  9
$PSOLHEIGHT
 40
4.0
  9
$LOFTANG1
 40
1.570796326794897
  9
$LOFTANG2
 40
1.570796326794897
  9
$LOFTMAG1
 40
0.0
  9
$LOFTMAG2
 40
0.0
  9
$LOFTPARAM
 70
7
  9
$LOFTNORMALS
280
1
  9
$LATITUDE
 40
37.795
  9
$LONGITUDE
 40
-122.394
  9
$NORTHDIRECTION
 40
0.0
  9
$TIMEZONE
 70
-8000
  9
$LIGHTGLYPHDISPLAY
280
1
  9
$TILEMODELIGHTSYNCH
280
1
  9
$CMATERIAL
347
7A0
  9
$SOLIDHIST
280
0
  9
$SHOWHIST
280
1
  9
$DWFFRAME
280
2
  9
$DGNFRAME
280
2
  9
$REALWORLDSCALE
290
1
  9
$INTERFERECOLOR
 62
256
  9
$CSHADOW
280
0
  9
$SHADOWPLANELOCATION
 40
0.0
  0
ENDSEC
  0
SECTION
  2
CLASSES
  0
CLASS
  1
ACDBDICTIONARYWDFLT
  2
AcDbDictionaryWithDefault
  3
ObjectDBX Classes
 90
0
 91
3
280
0
281
0
  0
CLASS
  1
SCALE
  2
AcDbScale
  3
ObjectDBX Classes
 90
1153
 91
3
280
0
281
0
  0
CLASS
  1
VISUALSTYLE
  2
AcDbVisualStyle
  3
ObjectDBX Classes
 90
4095
 91
3
280
0
281
0
  0
CLASS
  1
MATERIAL
  2
AcDbMaterial
  3
ObjectDBX Classes
 90
1153
 91
3
280
0
281
0
  0
CLASS
  1
TABLESTYLE
  2
AcDbTableStyle
  3
ObjectDBX Classes
 90
4095
 91
3
280
0
281
0
  0
CLASS
  1
MLEADERSTYLE
  2
AcDbMLeaderStyle
  3
ACDB_MLEADERSTYLE_CLASS
 90
4095
 91
3
280
0
281
0
  0
CLASS
  1
DICTIONARYVAR
  2
AcDbDictionaryVar
  3
ObjectDBX Classes
 90
0
 91
3
280
0
281
0
  0
CLASS
  1
CELLSTYLEMAP
  2
AcDbCellStyleMap
  3
ObjectDBX Classes
 90
1152
 91
3
280
0
281
0
  0
CLASS
  1
SUN
  2
AcDbSun
  3
SCENEOE
 90
1153
 91
0
280
0
281
0
  0
CLASS
  1
MENTALRAYRENDERSETTINGS
  2
AcDbMentalRayRenderSettings
  3
SCENEOE
 90
1024
 91
0
280
0
281
0
  0
CLASS
  1
ACDBDETAILVIEWSTYLE
  2
AcDbDetailViewStyle
  3
ObjectDBX Classes
 90
1025
 91
0
280
0
281
0
  0
CLASS
  1
ACDBSECTIONVIEWSTYLE
  2
AcDbSectionViewStyle
  3
ObjectDBX Classes
 90
1025
 91
0
280
0
281
0
  0
CLASS
  1
RASTERVARIABLES
  2
AcDbRasterVariables
  3
ISM
 90
0
 91
0
280
0
281
0
  0
CLASS
  1
ACDBPLACEHOLDER
  2
AcDbPlaceHolder
  3
ObjectDBX Classes
 90
0
 91
0
280
0
281
0
  0
CLASS
  1
LAYOUT
  2
AcDbLayout
  3
ObjectDBX Classes
 90
0
 91
0
280
0
281
0
  0
ENDSEC
  0
SECTION
  2
TABLES
  0
TABLE
  2
VPORT
  5
8
330
0
100
AcDbSymbolTable
 70
1
  0
VPORT
  5
442
330
8
100
AcDbSymbolTableRecord
100
AcDbViewportTableRecord
  2
*Active
 70
0
 10
0.0
 20
0.0
 11
1.0
 21
1.0
 12
344.1869158878504
 22
148.5
 13
0.0
 23
0.0
 14
10.0
 24
10.0
 15
10.0
 25
10.0
 16
0.0
 26
0.0
 36
1.0
 17
0.0
 27
0.0
 37
0.0
 40
297.0
 41
1.972972972850329
 42
50.0
 43
0.0
 44
0.0
 50
0.0
 51
0.0
 71
0
 72
100
 73
1
 74
3
 75
0
 76
0
 77
0
 78
0
281
0
 65
1
110
0.0
120
0.0
130
0.0
111
1.0
121
0.0
131
0.0
112
0.0
122
1.0
132
0.0
 79
0
146
0.0
 60
3
 61
5
348
78B
292
1
282
1
141
0.0
142
0.0
 63
250
  0
ENDTAB
  0
TABLE
  2
LTYPE
  5
5
330
0
100
AcDbSymbolTable
 70
6
  0
LTYPE
  5
14
330
5
100
AcDbSymbolTableRecord
100
AcDbLinetypeTableRecord
  2
ByBlock
 70
0
  3

 72
65
 73
0
 40
0.0
  0
LTYPE
  5
15
330
5
100
AcDbSymbolTableRecord
100
AcDbLinetypeTableRecord
  2
ByLayer
 70
0
  3

 72
65
 73
0
 40
0.0
  0
LTYPE
  5
16
330
5
100
AcDbSymbolTableRecord
100
AcDbLinetypeTableRecord
  2
CONTINUOUS
 70
0
  3
Solid line
 72
65
 73
0
 40
0.0
  0
LTYPE
  5
410
330
5
100
AcDbSymbolTableRecord
100
AcDbLinetypeTableRecord
  2
DASHDOT
 70
0
  3
Dash Dot ____ _ ____ _
 72
65
 73
4
 40
2.0
 49
1.25
 74
0
 49
-0.25
 74
0
 49
0.25
 74
0
 49
-0.25
 74
0
  0
LTYPE
  5
411
330
5
100
AcDbSymbolTableRecord
100
AcDbLinetypeTableRecord
  2
DASHED
 70
0
  3
Dashed __ __ __ __ __
 72
65
 73
2
 40
0.75
 49
0.5
 74
0
 49
-0.25
 74
0
  0
LTYPE
  5
43B
330
5
100
AcDbSymbolTableRecord
100
AcDbLinetypeTableRecord
  2
DOTTED
 70
0
  3
Dotted .  .  .  .
 72
65
 73
2
 40
0.2
 49
0.0
 74
0
 49
-0.2
 74
0
  0
ENDTAB
  0
TABLE
  2
LAYER
  5
2
330
0
100
AcDbSymbolTable
 70
4
  0
LAYER
  5
10
330
2
100
AcDbSymbolTableRecord
100
AcDbLayerTableRecord
  2
0
 70
0
 62
7
  6
CONTINUOUS
370
-3
390
F
347
7A2
348
0
  0
LAYER
  5
440
330
2
100
AcDbSymbolTableRecord
100
AcDbLayerTableRecord
  2
Edge.Cuts
 70
0
 62
53
  6
CONTINUOUS
370
-3
390
F
347
7A2
348
0
  0
LAYER
  5
7B2
330
2
100
AcDbSymbolTableRecord
100
AcDbLayerTableRecord
  2
Defpoints
 70
0
 62
7
  6
Continuous
290
0
370
-3
390
F
347
7A2
  0
LAYER
  5
7C0
330
2
100
AcDbSymbolTableRecord
100
AcDbLayerTableRecord
  2
BLACK
 70
0
 62
7
  6
CONTINUOUS
370
-3
390
F
347
47D
348
0
  0
ENDTAB
  0
TABLE
  2
STYLE
  5
3
330
0
100
AcDbSymbolTable
 70
5
  0
STYLE
  5
11
330
3
100
AcDbSymbolTableRecord
100
AcDbTextStyleTableRecord
  2
Standard
 70
0
 40
0.0
 41
1.0
 50
0.0
 71
0
 42
0.2
  3
txt
  4

  0
STYLE
  5
43C
330
3
100
AcDbSymbolTableRecord
100
AcDbTextStyleTableRecord
  2
KICAD
 70
0
 40
0.0
 41
1.0
 50
0.0
 71
0
 42
1.0
  3
isocp.shx
  4

  0
STYLE
  5
43D
330
3
100
AcDbSymbolTableRecord
100
AcDbTextStyleTableRecord
  2
KICADB
 70
0
 40
0.0
 41
1.0
 50
0.0
 71
0
 42
1.0
  3
isocp.shx
  4

  0
STYLE
  5
43E
330
3
100
AcDbSymbolTableRecord
100
AcDbTextStyleTableRecord
  2
KICADI
 70
0
 40
0.0
 41
1.0
 50
15.0
 71
0
 42
1.0
  3
isocp.shx
  4

  0
STYLE
  5
43F
330
3
100
AcDbSymbolTableRecord
100
AcDbTextStyleTableRecord
  2
KICADBI
 70
0
 40
0.0
 41
1.0
 50
15.0
 71
0
 42
1.0
  3
isocp.shx
  4

  0
ENDTAB
  0
TABLE
  2
VIEW
  5
6
330
0
100
AcDbSymbolTable
 70
0
  0
ENDTAB
  0
TABLE
  2
UCS
  5
7
330
0
100
AcDbSymbolTable
 70
0
  0
ENDTAB
  0
TABLE
  2
APPID
  5
9
330
0
100
AcDbSymbolTable
 70
3
  0
APPID
  5
12
330
9
100
AcDbSymbolTableRecord
100
AcDbRegAppTableRecord
  2
ACAD
 70
0
  0
APPID
  5
7B4
330
9
100
AcDbSymbolTableRecord
100
AcDbRegAppTableRecord
  2
HATCHBACKGROUNDCOLOR
 70
0
  0
APPID
  5
7B5
330
9
100
AcDbSymbolTableRecord
100
AcDbRegAppTableRecord
  2
EZDXF
 70
0
  0
ENDTAB
  0
TABLE
  2
DIMSTYLE
  5
A
330
0
100
AcDbSymbolTable
 70
2
100
AcDbDimStyleTable
  0
DIMSTYLE
105
441
330
A
100
AcDbSymbolTableRecord
100
AcDbDimStyleTableRecord
  2
ISO-25
 70
0
 40
1.0
 41
2.5
 42
0.625
 43
3.75
 44
1.25
 45
0.0
 46
0.0
 47
0.0
 48
0.0
 49
2.5
140
2.5
141
2.5
142
0.0
143
0.03937007874016
144
1.0
145
0.0
146
1.0
147
0.625
148
0.0
 69
0
 70
0
 71
0
 72
0
 73
0
 74
0
 75
0
 76
0
 77
1
 78
8
 79
3
170
0
171
3
172
1
173
0
174
0
175
0
176
0
177
0
178
0
179
2
271
2
272
2
273
2
274
3
275
0
276
0
277
2
278
44
279
0
280
0
281
0
282
0
283
0
284
8
285
0
286
0
288
0
289
3
290
0
340
11
371
-2
372
-2
  0
DIMSTYLE
105
7B3
330
A
100
AcDbSymbolTableRecord
100
AcDbDimStyleTableRecord
  2
Standard
 70
0
 40
1.0
 41
2.5
 42
0.625
 43
3.75
 44
1.25
 45
0.0
 46
0.0
 47
0.0
 48
0.0
 49
2.5
140
2.5
141
2.5
142
0.0
143
0.03937007874
144
1.0
145
0.0
146
1.0
147
0.625
148
0.0
 69
0
 70
0
 71
0
 72
0
 73
0
 74
0
 75
0
 76
0
 77
1
 78
8
 79
3
170
0
171
3
172
1
173
0
174
0
175
0
176
0
177
0
178
0
179
2
271
2
272
2
273
2
274
3
275
0
276
0
277
2
278
44
279
0
280
0
281
0
282
0
283
0
284
8
285
0
286
0
288
0
289
3
290
0
371
-2
372
-2
  0
ENDTAB
  0
TABLE
  2
BLOCK_RECORD
  5
1
330
0
100
AcDbSymbolTable
 70
2
  0
BLOCK_RECORD
  5
1D
330
1
100
AcDbSymbolTableRecord
100
AcDbBlockTableRecord
  2
*Model_Space
340
1E
 70
0
280
1
281
0
  0
BLOCK_RECORD
  5
1B
330
1
100
AcDbSymbolTableRecord
100
AcDbBlockTableRecord
  2
*Paper_Space
340
1C
 70
0
280
1
281
0
  0
ENDTAB
  0
ENDSEC
  0
SECTION
  2
BLOCKS
  0
BLOCK
  5
782
330
1D
100
AcDbEntity
  8
0
100
AcDbBlockBegin
  2
*Model_Space
 70
0
 10
0.0
 20
0.0
 30
0.0
  3
*Model_Space
  1

  0
ENDBLK
  5
783
330
1D
100
AcDbEntity
  8
0
100
AcDbBlockEnd
  0
BLOCK
  5
784
330
1B
100
AcDbEntity
 67
1
  8
0
100
AcDbBlockBegin
  2
*Paper_Space
 70
0
 10
0.0
 20
0.0
 30
0.0
  3
*Paper_Space
  1

  0
ENDBLK
  5
785
330
1B
100
AcDbEntity
 67
1
  8
0
100
AcDbBlockEnd
  0
ENDSEC
  0
SECTION
  2
ENTITIES
  0
LINE
  5
443
330
1D
100
AcDbEntity
  8
Edge.Cuts
  6
Continuous
100
AcDbLine
 10
154.4375
 20
-31.1
 30
0.0
 11
140.8375
 21
-31.1
 31
0.0
  0
ARC
  5
444
330
1D
100
AcDbEntity
  8
Edge.Cuts
100
AcDbCircle
 10
140.8375
 20
-31.6
 30
0.0
 40
0.5
100
AcDbArc
 50
90.0
 51
180.0
  0
LINE
  5
445
330
1D
100
AcDbEntity
  8
Edge.Cuts
  6
Continuous
100
AcDbLine
 10
140.3375
 20
-31.6
 30
0.0
 11
140.3375
 21
-44.6
 31
0.0
  0
ARC
  5
446
330
1D
100
AcDbEntity
  8
Edge.Cuts
100
AcDbCircle
 10
140.8375
 20
-44.6
 30
0.0
 40
0.5
100
AcDbArc
 50
180.0
 51
270.0
  0
LINE
  5
447
330
1D
100
AcDbEntity
  8
Edge.Cuts
  6
Continuous
100
AcDbLine
 10
140.8375
 20
-45.1
 30
0.0
 11
154.4375
 21
-45.1
 31
0.0
  0
ARC
  5
448
330
1D
100
AcDbEntity
  8
Edge.Cuts
100
AcDbCircle
 10
154.4375
 20
-44.6
 30
0.0
 40
0.5
100
AcDbArc
 50
270.0
 51
0.0
  0
LINE
  5
449
330
1D
100
AcDbEntity
  8
Edge.Cuts
  6
Continuous
100
AcDbLine
 10
154.9375
 20
-44.6
 30
0.0
 11
154.9375
 21
-31.6
 31
0.0
  0
ARC
  5
44A
330
1D
100
AcDbEntity
  8
Edge.Cuts
100
AcDbCircle
 10
154.4375
 20
-31.6
 30
0.0
 40
0.5
100
AcDbArc
 50
0.0
 51
90.0
  0
LINE
  5
44B
330
1D
100
AcDbEntity
  8
Edge.Cuts
  6
Continuous
100
AcDbLine
 10
159.2
 20
7.0
 30
0.0
 11
145.6
 21
7.0
 31
0.0
  0
ARC
  5
44C
330
1D
100
AcDbEntity
  8
Edge.Cuts
100
AcDbCircle
 10
145.6
 20
6.5
 30
0.0
 40
0.5
100
AcDbArc
 50
90.0
 51
180.0
  0
LINE
  5
44D
330
1D
100
AcDbEntity
  8
Edge.Cuts
  6
Continuous
100
AcDbLine
 10
145.1
 20
6.5
 30
0.0
 11
145.1
 21
-6.5
 31
0.0
  0
ARC
  5
44E
330
1D
100
AcDbEntity
  8
Edge.Cuts
100
AcDbCircle
 10
145.6
 20
-6.5
 30
0.0
 40
0.5
100
AcDbArc
 50
180.0
 51
270.0
  0
LINE
  5
44F
330
1D
100
AcDbEntity
  8
Edge.Cuts
  6
Continuous
100
AcDbLine
 10
145.6
 20
-7.0
 30
0.0
 11
159.2
 21
-7.0
 31
0.0
  0
ARC
  5
450
330
1D
100
AcDbEntity
  8
Edge.Cuts
100
AcDbCircle
 10
159.2
 20
-6.5
 30
0.0
 40
0.5
100
AcDbArc
 50
270.0
 51
0.0
  0
LINE
  5
451
330
1D
100
AcDbEntity
  8
Edge.Cuts
  6
Continuous
100
AcDbLine
 10
159.7
 20
-6.5
 30
0.0
 11
159.7
 21
6.5
 31
0.0
  0
ARC
  5
452
330
1D
100
AcDbEntity
  8
Edge.Cuts
100
AcDbCircle
 10
159.2
 20
6.5
 30
0.0
 40
0.5
100
AcDbArc
 50
0.0
 51
90.0
  0
LINE
  5
453
330
1D
100
AcDbEntity
  8
Edge.Cuts
  6
Continuous
100
AcDbLine
 10
136.075
 20
-26.05
 30
0.0
 11
149.675
 21
-26.05
 31
0.0
  0
ARC
  5
454
330
1D
100
AcDbEntity
  8
Edge.Cuts
100
AcDbCircle
 10
149.675
 20
-25.55
 30
0.0
 40
0.5
100
AcDbArc
 50
270.0
 51
0.0
  0
LINE
  5
455
330
1D
100
AcDbEntity
  8
Edge.Cuts
  6
Continuous
100
AcDbLine
 10
150.175
 20
-25.55
 30
0.0
 11
150.175
 21
-12.55
 31
0.0
  0
ARC
  5
456
330
1D
100
AcDbEntity
  8
Edge.Cuts
100
AcDbCircle
 10
149.675
 20
-12.55
 30
0.0
 40
0.5
100
AcDbArc
 50
0.0
 51
90.0
  0
LINE
  5
457
330
1D
100
AcDbEntity
  8
Edge.Cuts
  6
Continuous
100
AcDbLine
 10
149.675
 20
-12.05
 30
0.0
 11
136.075
 21
-12.05
 31
0.0
  0
ARC
  5
458
330
1D
100
AcDbEntity
  8
Edge.Cuts
100
AcDbCircle
 10
136.075
 20
-12.55
 30
0.0
 40
0.5
100
AcDbArc
 50
90.0
 51
180.0
  0
LINE
  5
459
330
1D
100
AcDbEntity
  8
Edge.Cuts
  6
Continuous
100
AcDbLine
 10
135.575
 20
-12.55
 30
0.0
 11
135.575
 21
-25.55
 31
0.0
  0
ARC
  5
45A
330
1D
100
AcDbEntity
  8
Edge.Cuts
100
AcDbCircle
 10
136.075
 20
-25.55
 30
0.0
 40
0.5
100
AcDbArc
 50
180.0
 51
270.0
  0
LINE
  5
45B
330
1D
100
AcDbEntity
  8
Edge.Cuts
  6
Continuous
100
AcDbLine
 10
121.7875
 20
-45.1
 30
0.0
 11
135.3875
 21
-45.1
 31
0.0
  0
ARC
  5
45C
330
1D
100
AcDbEntity
  8
Edge.Cuts
100
AcDbCircle
 10
135.3875
 20
-44.6
 30
0.0
 40
0.5
100
AcDbArc
 50
270.0
 51
0.0
  0
LINE
  5
45D
330
1D
100
AcDbEntity
  8
Edge.Cuts
  6
Continuous
100
AcDbLine
 10
135.8875
 20
-44.6
 30
0.0
 11
135.8875
 21
-31.6
 31
0.0
  0
ARC
  5
45E
330
1D
100
AcDbEntity
  8
Edge.Cuts
100
AcDbCircle
 10
135.3875
 20
-31.6
 30
0.0
 40
0.5
100
AcDbArc
 50
0.0
 51
90.0
  0
LINE
  5
45F
330
1D
100
AcDbEntity
  8
Edge.Cuts
  6
Continuous
100
AcDbLine
 10
135.3875
 20
-31.1
 30
0.0
 11
121.7875
 21
-31.1
 31
0.0
  0
ARC
  5
460
330
1D
100
AcDbEntity
  8
Edge.Cuts
100
AcDbCircle
 10
121.7875
 20
-31.6
 30
0.0
 40
0.5
100
AcDbArc
 50
90.0
 51
180.0
  0
LINE
  5
461
330
1D
100
AcDbEntity
  8
Edge.Cuts
  6
Continuous
100
AcDbLine
 10
121.2875
 20
-31.6
 30
0.0
 11
121.2875
 21
-44.6
 31
0.0
  0
ARC
  5
462
330
1D
100
AcDbEntity
  8
Edge.Cuts
100
AcDbCircle
 10
121.7875
 20
-44.6
 30
0.0
 40
0.5
100
AcDbArc
 50
180.0
 51
270.0
  0
ARC
  5
463
330
1D
100
AcDbEntity
  8
Edge.Cuts
100
AcDbCircle
 10
144.9125
 20
-63.65
 30
0.0
 40
0.5
100
AcDbArc
 50
270.0
 51
0.0
  0
LINE
  5
464
330
1D
100
AcDbEntity
  8
Edge.Cuts
  6
Continuous
100
AcDbLine
 10
145.4125
 20
-63.65
 30
0.0
 11
145.4125
 21
-50.65
 31
0.0
  0
ARC
  5
465
330
1D
100
AcDbEntity
  8
Edge.Cuts
100
AcDbCircle
 10
144.9125
 20
-50.65
 30
0.0
 40
0.5
100
AcDbArc
 50
0.0
 51
90.0
  0
LINE
  5
466
330
1D
100
AcDbEntity
  8
Edge.Cuts
  6
Continuous
100
AcDbLine
 10
144.9125
 20
-50.15
 30
0.0
 11
131.3125
 21
-50.15
 31
0.0
  0
ARC
  5
467
330
1D
100
AcDbEntity
  8
Edge.Cuts
100
AcDbCircle
 10
131.3125
 20
-50.65
 30
0.0
 40
0.5
100
AcDbArc
 50
90.0
 51
180.0
  0
LINE
  5
468
330
1D
100
AcDbEntity
  8
Edge.Cuts
  6
Continuous
100
AcDbLine
 10
130.8125
 20
-50.65
 30
0.0
 11
130.8125
 21
-63.65
 31
0.0
  0
ARC
  5
469
330
1D
100
AcDbEntity
  8
Edge.Cuts
100
AcDbCircle
 10
131.3125
 20
-63.65
 30
0.0
 40
0.5
100
AcDbArc
 50
180.0
 51
270.0
  0
LINE
  5
46A
330
1D
100
AcDbEntity
  8
Edge.Cuts
  6
Continuous
100
AcDbLine
 10
131.3125
 20
-64.14999999999999
 30
0.0
 11
144.9125
 21
-64.14999999999999
 31
0.0
  0
LINE
  5
46B
330
1D
100
AcDbEntity
  8
Edge.Cuts
  6
Continuous
100
AcDbLine
 10
126.3625
 20
-63.65
 30
0.0
 11
126.3625
 21
-50.65
 31
0.0
  0
ARC
  5
46C
330
1D
100
AcDbEntity
  8
Edge.Cuts
100
AcDbCircle
 10
125.8625
 20
-50.65
 30
0.0
 40
0.5
100
AcDbArc
 50
0.0
 51
90.0
  0
LINE
  5
46D
330
1D
100
AcDbEntity
  8
Edge.Cuts
  6
Continuous
100
AcDbLine
 10
125.8625
 20
-50.15
 30
0.0
 11
112.2625
 21
-50.15
 31
0.0
  0
ARC
  5
46E
330
1D
100
AcDbEntity
  8
Edge.Cuts
100
AcDbCircle
 10
112.2625
 20
-50.65
 30
0.0
 40
0.5
100
AcDbArc
 50
90.0
 51
180.0
  0
LINE
  5
46F
330
1D
100
AcDbEntity
  8
Edge.Cuts
  6
Continuous
100
AcDbLine
 10
111.7625
 20
-50.65
 30
0.0
 11
111.7625
 21
-63.65
 31
0.0
  0
ARC
  5
470
330
1D
100
AcDbEntity
  8
Edge.Cuts
100
AcDbCircle
 10
112.2625
 20
-63.65
 30
0.0
 40
0.5
100
AcDbArc
 50
180.0
 51
270.0
  0
LINE
  5
471
330
1D
100
AcDbEntity
  8
Edge.Cuts
  6
Continuous
100
AcDbLine
 10
112.2625
 20
-64.14999999999999
 30
0.0
 11
125.8625
 21
-64.14999999999999
 31
0.0
  0
ARC
  5
472
330
1D
100
AcDbEntity
  8
Edge.Cuts
100
AcDbCircle
 10
125.8625
 20
-63.65
 30
0.0
 40
0.5
100
AcDbArc
 50
270.0
 51
0.0
  0
ARC
  5
473
330
1D
100
AcDbEntity
  8
Edge.Cuts
100
AcDbCircle
 10
116.3375
 20
-44.6
 30
0.0
 40
0.5
100
AcDbArc
 50
270.0
 51
0.0
  0
LINE
  5
474
330
1D
100
AcDbEntity
  8
Edge.Cuts
  6
Continuous
100
AcDbLine
 10
116.8375
 20
-44.6
 30
0.0
 11
116.8375
 21
-31.6
 31
0.0
  0
ARC
  5
475
330
1D
100
AcDbEntity
  8
Edge.Cuts
100
AcDbCircle
 10
116.3375
 20
-31.6
 30
0.0
 40
0.5
100
AcDbArc
 50
0.0
 51
90.0
  0
LINE
  5
476
330
1D
100
AcDbEntity
  8
Edge.Cuts
  6
Continuous
100
AcDbLine
 10
116.3375
 20
-31.1
 30
0.0
 11
102.7375
 21
-31.1
 31
0.0
  0
ARC
  5
477
330
1D
100
AcDbEntity
  8
Edge.Cuts
100
AcDbCircle
 10
102.7375
 20
-31.6
 30
0.0
 40
0.5
100
AcDbArc
 50
90.0
 51
180.0
  0
LINE
  5
478
330
1D
100
AcDbEntity
  8
Edge.Cuts
  6
Continuous
100
AcDbLine
 10
102.2375
 20
-31.6
 30
0.0
 11
102.2375
 21
-44.6
 31
0.0
  0
ARC
  5
479
330
1D
100
AcDbEntity
  8
Edge.Cuts
100
AcDbCircle
 10
102.7375
 20
-44.6
 30
0.0
 40
0.5
100
AcDbArc
 50
180.0
 51
270.0
  0
LINE
  5
47A
330
1D
100
AcDbEntity
  8
Edge.Cuts
  6
Continuous
100
AcDbLine
 10
102.7375
 20
-45.1
 30
0.0
 11
116.3375
 21
-45.1
 31
0.0
  0
ARC
  5
47B
330
1D
100
AcDbEntity
  8
Edge.Cuts
100
AcDbCircle
 10
106.8125
 20
-50.65
 30
0.0
 40
0.5
100
AcDbArc
 50
0.0
 51
90.0
  0
LINE
  5
47C
330
1D
100
AcDbEntity
  8
Edge.Cuts
  6
Continuous
100
AcDbLine
 10
106.8125
 20
-50.15
 30
0.0
 11
93.21249999999999
 21
-50.15
 31
0.0
  0
ARC
  5
47D
330
1D
100
AcDbEntity
  8
Edge.Cuts
100
AcDbCircle
 10
93.21249999999999
 20
-50.65
 30
0.0
 40
0.5
100
AcDbArc
 50
90.0
 51
180.0
  0
LINE
  5
47E
330
1D
100
AcDbEntity
  8
Edge.Cuts
  6
Continuous
100
AcDbLine
 10
92.71249999999999
 20
-50.65
 30
0.0
 11
92.71249999999999
 21
-63.65
 31
0.0
  0
ARC
  5
47F
330
1D
100
AcDbEntity
  8
Edge.Cuts
100
AcDbCircle
 10
93.21249999999999
 20
-63.65
 30
0.0
 40
0.5
100
AcDbArc
 50
180.0
 51
270.0
  0
LINE
  5
480
330
1D
100
AcDbEntity
  8
Edge.Cuts
  6
Continuous
100
AcDbLine
 10
93.21249999999999
 20
-64.14999999999999
 30
0.0
 11
106.8125
 21
-64.14999999999999
 31
0.0
  0
ARC
  5
481
330
1D
100
AcDbEntity
  8
Edge.Cuts
100
AcDbCircle
 10
106.8125
 20
-63.65
 30
0.0
 40
0.5
100
AcDbArc
 50
270.0
 51
0.0
  0
LINE
  5
482
330
1D
100
AcDbEntity
  8
Edge.Cuts
  6
Continuous
100
AcDbLine
 10
107.3125
 20
-63.65
 30
0.0
 11
107.3125
 21
-50.65
 31
0.0
  0
ARC
  5
483
330
1D
100
AcDbEntity
  8
Edge.Cuts
100
AcDbCircle
 10
97.2875
 20
-44.6
 30
0.0
 40
0.5
100
AcDbArc
 50
270.0
 51
0.0
  0
LINE
  5
484
330
1D
100
AcDbEntity
  8
Edge.Cuts
  6
Continuous
100
AcDbLine
 10
97.7875
 20
-44.6
 30
0.0
 11
97.7875
 21
-31.6
 31
0.0
  0
ARC
  5
485
330
1D
100
AcDbEntity
  8
Edge.Cuts
100
AcDbCircle
 10
97.2875
 20
-31.6
 30
0.0
 40
0.5
100
AcDbArc
 50
0.0
 51
90.0
  0
LINE
  5
486
330
1D
100
AcDbEntity
  8
Edge.Cuts
  6
Continuous
100
AcDbLine
 10
97.2875
 20
-31.1
 30
0.0
 11
83.6875
 21
-31.1
 31
0.0
  0
ARC
  5
487
330
1D
100
AcDbEntity
  8
Edge.Cuts
100
AcDbCircle
 10
83.6875
 20
-31.6
 30
0.0
 40
0.5
100
AcDbArc
 50
90.0
 51
180.0
  0
LINE
  5
488
330
1D
100
AcDbEntity
  8
Edge.Cuts
  6
Continuous
100
AcDbLine
 10
83.1875
 20
-31.6
 30
0.0
 11
83.1875
 21
-44.6
 31
0.0
  0
ARC
  5
489
330
1D
100
AcDbEntity
  8
Edge.Cuts
100
AcDbCircle
 10
83.6875
 20
-44.6
 30
0.0
 40
0.5
100
AcDbArc
 50
180.0
 51
270.0
  0
LINE
  5
48A
330
1D
100
AcDbEntity
  8
Edge.Cuts
  6
Continuous
100
AcDbLine
 10
83.6875
 20
-45.1
 30
0.0
 11
97.2875
 21
-45.1
 31
0.0
  0
ARC
  5
48B
330
1D
100
AcDbEntity
  8
Edge.Cuts
100
AcDbCircle
 10
87.7625
 20
-63.65
 30
0.0
 40
0.5
100
AcDbArc
 50
270.0
 51
0.0
  0
LINE
  5
48C
330
1D
100
AcDbEntity
  8
Edge.Cuts
  6
Continuous
100
AcDbLine
 10
88.2625
 20
-63.65
 30
0.0
 11
88.2625
 21
-50.65
 31
0.0
  0
ARC
  5
48D
330
1D
100
AcDbEntity
  8
Edge.Cuts
100
AcDbCircle
 10
87.7625
 20
-50.65
 30
0.0
 40
0.5
100
AcDbArc
 50
0.0
 51
90.0
  0
LINE
  5
48E
330
1D
100
AcDbEntity
  8
Edge.Cuts
  6
Continuous
100
AcDbLine
 10
87.7625
 20
-50.15
 30
0.0
 11
74.1625
 21
-50.15
 31
0.0
  0
ARC
  5
48F
330
1D
100
AcDbEntity
  8
Edge.Cuts
100
AcDbCircle
 10
74.1625
 20
-50.65
 30
0.0
 40
0.5
100
AcDbArc
 50
90.0
 51
180.0
  0
LINE
  5
490
330
1D
100
AcDbEntity
  8
Edge.Cuts
  6
Continuous
100
AcDbLine
 10
73.6625
 20
-50.65
 30
0.0
 11
73.6625
 21
-63.65
 31
0.0
  0
ARC
  5
491
330
1D
100
AcDbEntity
  8
Edge.Cuts
100
AcDbCircle
 10
74.1625
 20
-63.65
 30
0.0
 40
0.5
100
AcDbArc
 50
180.0
 51
270.0
  0
LINE
  5
492
330
1D
100
AcDbEntity
  8
Edge.Cuts
  6
Continuous
100
AcDbLine
 10
74.1625
 20
-64.14999999999999
 30
0.0
 11
87.7625
 21
-64.14999999999999
 31
0.0
  0
ARC
  5
493
330
1D
100
AcDbEntity
  8
Edge.Cuts
100
AcDbCircle
 10
78.2375
 20
-44.6
 30
0.0
 40
0.5
100
AcDbArc
 50
270.0
 51
0.0
  0
LINE
  5
494
330
1D
100
AcDbEntity
  8
Edge.Cuts
  6
Continuous
100
AcDbLine
 10
78.7375
 20
-44.6
 30
0.0
 11
78.7375
 21
-31.6
 31
0.0
  0
ARC
  5
495
330
1D
100
AcDbEntity
  8
Edge.Cuts
100
AcDbCircle
 10
78.2375
 20
-31.6
 30
0.0
 40
0.5
100
AcDbArc
 50
0.0
 51
90.0
  0
LINE
  5
496
330
1D
100
AcDbEntity
  8
Edge.Cuts
  6
Continuous
100
AcDbLine
 10
78.2375
 20
-31.1
 30
0.0
 11
64.6375
 21
-31.1
 31
0.0
  0
ARC
  5
497
330
1D
100
AcDbEntity
  8
Edge.Cuts
100
AcDbCircle
 10
64.6375
 20
-31.6
 30
0.0
 40
0.5
100
AcDbArc
 50
90.0
 51
180.0
  0
LINE
  5
498
330
1D
100
AcDbEntity
  8
Edge.Cuts
  6
Continuous
100
AcDbLine
 10
64.1375
 20
-31.6
 30
0.0
 11
64.1375
 21
-44.6
 31
0.0
  0
ARC
  5
499
330
1D
100
AcDbEntity
  8
Edge.Cuts
100
AcDbCircle
 10
64.6375
 20
-44.6
 30
0.0
 40
0.5
100
AcDbArc
 50
180.0
 51
270.0
  0
LINE
  5
49A
330
1D
100
AcDbEntity
  8
Edge.Cuts
  6
Continuous
100
AcDbLine
 10
64.6375
 20
-45.1
 30
0.0
 11
78.2375
 21
-45.1
 31
0.0
  0
CIRCLE
  5
49B
330
1D
100
AcDbEntity
  8
Edge.Cuts
100
AcDbCircle
 10
90.4875
 20
-57.15
 30
0.0
 40
1.0
  0
LINE
  5
49C
330
1D
100
AcDbEntity
  8
Edge.Cuts
  6
Continuous
100
AcDbLine
 10
206.825
 20
-12.05
 30
0.0
 11
193.225
 21
-12.05
 31
0.0
  0
ARC
  5
49D
330
1D
100
AcDbEntity
  8
Edge.Cuts
100
AcDbCircle
 10
193.225
 20
-12.55
 30
0.0
 40
0.5
100
AcDbArc
 50
90.0
 51
180.0
  0
LINE
  5
49E
330
1D
100
AcDbEntity
  8
Edge.Cuts
  6
Continuous
100
AcDbLine
 10
192.725
 20
-12.55
 30
0.0
 11
192.725
 21
-25.55
 31
0.0
  0
ARC
  5
49F
330
1D
100
AcDbEntity
  8
Edge.Cuts
100
AcDbCircle
 10
193.225
 20
-25.55
 30
0.0
 40
0.5
100
AcDbArc
 50
180.0
 51
270.0
  0
LINE
  5
4A0
330
1D
100
AcDbEntity
  8
Edge.Cuts
  6
Continuous
100
AcDbLine
 10
193.225
 20
-26.05
 30
0.0
 11
206.825
 21
-26.05
 31
0.0
  0
ARC
  5
4A1
330
1D
100
AcDbEntity
  8
Edge.Cuts
100
AcDbCircle
 10
206.825
 20
-25.55
 30
0.0
 40
0.5
100
AcDbArc
 50
270.0
 51
0.0
  0
LINE
  5
4A2
330
1D
100
AcDbEntity
  8
Edge.Cuts
  6
Continuous
100
AcDbLine
 10
207.325
 20
-25.55
 30
0.0
 11
207.325
 21
-12.55
 31
0.0
  0
ARC
  5
4A3
330
1D
100
AcDbEntity
  8
Edge.Cuts
100
AcDbCircle
 10
206.825
 20
-12.55
 30
0.0
 40
0.5
100
AcDbArc
 50
0.0
 51
90.0
  0
LINE
  5
4A4
330
1D
100
AcDbEntity
  8
Edge.Cuts
  6
Continuous
100
AcDbLine
 10
202.75
 20
-7.0
 30
0.0
 11
216.35
 21
-7.0
 31
0.0
  0
ARC
  5
4A5
330
1D
100
AcDbEntity
  8
Edge.Cuts
100
AcDbCircle
 10
216.35
 20
-6.5
 30
0.0
 40
0.5
100
AcDbArc
 50
270.0
 51
0.0
  0
LINE
  5
4A6
330
1D
100
AcDbEntity
  8
Edge.Cuts
  6
Continuous
100
AcDbLine
 10
216.85
 20
-6.5
 30
0.0
 11
216.85
 21
6.5
 31
0.0
  0
ARC
  5
4A7
330
1D
100
AcDbEntity
  8
Edge.Cuts
100
AcDbCircle
 10
216.35
 20
6.5
 30
0.0
 40
0.5
100
AcDbArc
 50
0.0
 51
90.0
  0
LINE
  5
4A8
330
1D
100
AcDbEntity
  8
Edge.Cuts
  6
Continuous
100
AcDbLine
 10
216.35
 20
7.0
 30
0.0
 11
202.75
 21
7.0
 31
0.0
  0
ARC
  5
4A9
330
1D
100
AcDbEntity
  8
Edge.Cuts
100
AcDbCircle
 10
202.75
 20
6.5
 30
0.0
 40
0.5
100
AcDbArc
 50
90.0
 51
180.0
  0
LINE
  5
4AA
330
1D
100
AcDbEntity
  8
Edge.Cuts
  6
Continuous
100
AcDbLine
 10
202.25
 20
6.5
 30
0.0
 11
202.25
 21
-6.5
 31
0.0
  0
ARC
  5
4AB
330
1D
100
AcDbEntity
  8
Edge.Cuts
100
AcDbCircle
 10
202.75
 20
-6.5
 30
0.0
 40
0.5
100
AcDbArc
 50
180.0
 51
270.0
  0
LINE
  5
4AC
330
1D
100
AcDbEntity
  8
Edge.Cuts
  6
Continuous
100
AcDbLine
 10
197.9875
 20
-45.1
 30
0.0
 11
211.5875
 21
-45.1
 31
0.0
  0
ARC
  5
4AD
330
1D
100
AcDbEntity
  8
Edge.Cuts
100
AcDbCircle
 10
211.5875
 20
-44.6
 30
0.0
 40
0.5
100
AcDbArc
 50
270.0
 51
0.0
  0
LINE
  5
4AE
330
1D
100
AcDbEntity
  8
Edge.Cuts
  6
Continuous
100
AcDbLine
 10
212.0875
 20
-44.6
 30
0.0
 11
212.0875
 21
-31.6
 31
0.0
  0
ARC
  5
4AF
330
1D
100
AcDbEntity
  8
Edge.Cuts
100
AcDbCircle
 10
211.5875
 20
-31.6
 30
0.0
 40
0.5
100
AcDbArc
 50
0.0
 51
90.0
  0
LINE
  5
4B0
330
1D
100
AcDbEntity
  8
Edge.Cuts
  6
Continuous
100
AcDbLine
 10
211.5875
 20
-31.1
 30
0.0
 11
197.9875
 21
-31.1
 31
0.0
  0
ARC
  5
4B1
330
1D
100
AcDbEntity
  8
Edge.Cuts
100
AcDbCircle
 10
197.9875
 20
-31.6
 30
0.0
 40
0.5
100
AcDbArc
 50
90.0
 51
180.0
  0
LINE
  5
4B2
330
1D
100
AcDbEntity
  8
Edge.Cuts
  6
Continuous
100
AcDbLine
 10
197.4875
 20
-31.6
 30
0.0
 11
197.4875
 21
-44.6
 31
0.0
  0
ARC
  5
4B3
330
1D
100
AcDbEntity
  8
Edge.Cuts
100
AcDbCircle
 10
197.9875
 20
-44.6
 30
0.0
 40
0.5
100
AcDbArc
 50
180.0
 51
270.0
  0
LINE
  5
4B4
330
1D
100
AcDbEntity
  8
Edge.Cuts
  6
Continuous
100
AcDbLine
 10
45.0875
 20
-31.6
 30
0.0
 11
45.0875
 21
-44.6
 31
0.0
  0
ARC
  5
4B5
330
1D
100
AcDbEntity
  8
Edge.Cuts
100
AcDbCircle
 10
45.5875
 20
-44.6
 30
0.0
 40
0.5
100
AcDbArc
 50
180.0
 51
270.0
  0
LINE
  5
4B6
330
1D
100
AcDbEntity
  8
Edge.Cuts
  6
Continuous
100
AcDbLine
 10
45.5875
 20
-45.1
 30
0.0
 11
59.1875
 21
-45.1
 31
0.0
  0
ARC
  5
4B7
330
1D
100
AcDbEntity
  8
Edge.Cuts
100
AcDbCircle
 10
59.1875
 20
-44.6
 30
0.0
 40
0.5
100
AcDbArc
 50
270.0
 51
0.0
  0
LINE
  5
4B8
330
1D
100
AcDbEntity
  8
Edge.Cuts
  6
Continuous
100
AcDbLine
 10
59.6875
 20
-44.6
 30
0.0
 11
59.6875
 21
-31.6
 31
0.0
  0
ARC
  5
4B9
330
1D
100
AcDbEntity
  8
Edge.Cuts
100
AcDbCircle
 10
59.1875
 20
-31.6
 30
0.0
 40
0.5
100
AcDbArc
 50
0.0
 51
90.0
  0
LINE
  5
4BA
330
1D
100
AcDbEntity
  8
Edge.Cuts
  6
Continuous
100
AcDbLine
 10
59.1875
 20
-31.1
 30
0.0
 11
45.5875
 21
-31.1
 31
0.0
  0
ARC
  5
4BB
330
1D
100
AcDbEntity
  8
Edge.Cuts
100
AcDbCircle
 10
45.5875
 20
-31.6
 30
0.0
 40
0.5
100
AcDbArc
 50
90.0
 51
180.0
  0
ARC
  5
4BC
330
1D
100
AcDbEntity
  8
Edge.Cuts
100
AcDbCircle
 10
173.4875
 20
-44.6
 30
0.0
 40
0.5
100
AcDbArc
 50
270.0
 51
0.0
  0
LINE
  5
4BD
330
1D
100
AcDbEntity
  8
Edge.Cuts
  6
Continuous
100
AcDbLine
 10
173.9875
 20
-44.6
 30
0.0
 11
173.9875
 21
-31.6
 31
0.0
  0
ARC
  5
4BE
330
1D
100
AcDbEntity
  8
Edge.Cuts
100
AcDbCircle
 10
173.4875
 20
-31.6
 30
0.0
 40
0.5
100
AcDbArc
 50
0.0
 51
90.0
  0
LINE
  5
4BF
330
1D
100
AcDbEntity
  8
Edge.Cuts
  6
Continuous
100
AcDbLine
 10
173.4875
 20
-31.1
 30
0.0
 11
159.8875
 21
-31.1
 31
0.0
  0
ARC
  5
4C0
330
1D
100
AcDbEntity
  8
Edge.Cuts
100
AcDbCircle
 10
159.8875
 20
-31.6
 30
0.0
 40
0.5
100
AcDbArc
 50
90.0
 51
180.0
  0
LINE
  5
4C1
330
1D
100
AcDbEntity
  8
Edge.Cuts
  6
Continuous
100
AcDbLine
 10
159.3875
 20
-31.6
 30
0.0
 11
159.3875
 21
-44.6
 31
0.0
  0
ARC
  5
4C2
330
1D
100
AcDbEntity
  8
Edge.Cuts
100
AcDbCircle
 10
159.8875
 20
-44.6
 30
0.0
 40
0.5
100
AcDbArc
 50
180.0
 51
270.0
  0
LINE
  5
4C3
330
1D
100
AcDbEntity
  8
Edge.Cuts
  6
Continuous
100
AcDbLine
 10
159.8875
 20
-45.1
 30
0.0
 11
173.4875
 21
-45.1
 31
0.0
  0
LINE
  5
4C4
330
1D
100
AcDbEntity
  8
Edge.Cuts
  6
Continuous
100
AcDbLine
 10
163.9625
 20
-50.15
 30
0.0
 11
150.3625
 21
-50.15
 31
0.0
  0
ARC
  5
4C5
330
1D
100
AcDbEntity
  8
Edge.Cuts
100
AcDbCircle
 10
150.3625
 20
-50.65
 30
0.0
 40
0.5
100
AcDbArc
 50
90.0
 51
180.0
  0
LINE
  5
4C6
330
1D
100
AcDbEntity
  8
Edge.Cuts
  6
Continuous
100
AcDbLine
 10
149.8625
 20
-50.65
 30
0.0
 11
149.8625
 21
-63.65
 31
0.0
  0
ARC
  5
4C7
330
1D
100
AcDbEntity
  8
Edge.Cuts
100
AcDbCircle
 10
150.3625
 20
-63.65
 30
0.0
 40
0.5
100
AcDbArc
 50
180.0
 51
270.0
  0
LINE
  5
4C8
330
1D
100
AcDbEntity
  8
Edge.Cuts
  6
Continuous
100
AcDbLine
 10
150.3625
 20
-64.14999999999999
 30
0.0
 11
163.9625
 21
-64.14999999999999
 31
0.0
  0
ARC
  5
4C9
330
1D
100
AcDbEntity
  8
Edge.Cuts
100
AcDbCircle
 10
163.9625
 20
-63.65
 30
0.0
 40
0.5
100
AcDbArc
 50
270.0
 51
0.0
  0
LINE
  5
4CA
330
1D
100
AcDbEntity
  8
Edge.Cuts
  6
Continuous
100
AcDbLine
 10
164.4625
 20
-63.65
 30
0.0
 11
164.4625
 21
-50.65
 31
0.0
  0
ARC
  5
4CB
330
1D
100
AcDbEntity
  8
Edge.Cuts
100
AcDbCircle
 10
163.9625
 20
-50.65
 30
0.0
 40
0.5
100
AcDbArc
 50
0.0
 51
90.0
  0
LINE
  5
4CC
330
1D
100
AcDbEntity
  8
Edge.Cuts
  6
Continuous
100
AcDbLine
 10
168.9125
 20
-50.65
 30
0.0
 11
168.9125
 21
-63.65
 31
0.0
  0
ARC
  5
4CD
330
1D
100
AcDbEntity
  8
Edge.Cuts
100
AcDbCircle
 10
169.4125
 20
-63.65
 30
0.0
 40
0.5
100
AcDbArc
 50
180.0
 51
270.0
  0
LINE
  5
4CE
330
1D
100
AcDbEntity
  8
Edge.Cuts
  6
Continuous
100
AcDbLine
 10
169.4125
 20
-64.14999999999999
 30
0.0
 11
183.0125
 21
-64.14999999999999
 31
0.0
  0
ARC
  5
4CF
330
1D
100
AcDbEntity
  8
Edge.Cuts
100
AcDbCircle
 10
183.0125
 20
-63.65
 30
0.0
 40
0.5
100
AcDbArc
 50
270.0
 51
0.0
  0
LINE
  5
4D0
330
1D
100
AcDbEntity
  8
Edge.Cuts
  6
Continuous
100
AcDbLine
 10
183.5125
 20
-63.65
 30
0.0
 11
183.5125
 21
-50.65
 31
0.0
  0
ARC
  5
4D1
330
1D
100
AcDbEntity
  8
Edge.Cuts
100
AcDbCircle
 10
183.0125
 20
-50.65
 30
0.0
 40
0.5
100
AcDbArc
 50
0.0
 51
90.0
  0
LINE
  5
4D2
330
1D
100
AcDbEntity
  8
Edge.Cuts
  6
Continuous
100
AcDbLine
 10
183.0125
 20
-50.15
 30
0.0
 11
169.4125
 21
-50.15
 31
0.0
  0
ARC
  5
4D3
330
1D
100
AcDbEntity
  8
Edge.Cuts
100
AcDbCircle
 10
169.4125
 20
-50.65
 30
0.0
 40
0.5
100
AcDbArc
 50
90.0
 51
180.0
  0
LINE
  5
4D4
330
1D
100
AcDbEntity
  8
Edge.Cuts
  6
Continuous
100
AcDbLine
 10
26.0375
 20
-31.6
 30
0.0
 11
26.0375
 21
-44.6
 31
0.0
  0
ARC
  5
4D5
330
1D
100
AcDbEntity
  8
Edge.Cuts
100
AcDbCircle
 10
26.5375
 20
-44.6
 30
0.0
 40
0.5
100
AcDbArc
 50
180.0
 51
270.0
  0
LINE
  5
4D6
330
1D
100
AcDbEntity
  8
Edge.Cuts
  6
Continuous
100
AcDbLine
 10
26.5375
 20
-45.1
 30
0.0
 11
40.1375
 21
-45.1
 31
0.0
  0
ARC
  5
4D7
330
1D
100
AcDbEntity
  8
Edge.Cuts
100
AcDbCircle
 10
40.1375
 20
-44.6
 30
0.0
 40
0.5
100
AcDbArc
 50
270.0
 51
0.0
  0
LINE
  5
4D8
330
1D
100
AcDbEntity
  8
Edge.Cuts
  6
Continuous
100
AcDbLine
 10
40.6375
 20
-44.6
 30
0.0
 11
40.6375
 21
-31.6
 31
0.0
  0
ARC
  5
4D9
330
1D
100
AcDbEntity
  8
Edge.Cuts
100
AcDbCircle
 10
40.1375
 20
-31.6
 30
0.0
 40
0.5
100
AcDbArc
 50
0.0
 51
90.0
  0
LINE
  5
4DA
330
1D
100
AcDbEntity
  8
Edge.Cuts
  6
Continuous
100
AcDbLine
 10
40.1375
 20
-31.1
 30
0.0
 11
26.5375
 21
-31.1
 31
0.0
  0
ARC
  5
4DB
330
1D
100
AcDbEntity
  8
Edge.Cuts
100
AcDbCircle
 10
26.5375
 20
-31.6
 30
0.0
 40
0.5
100
AcDbArc
 50
90.0
 51
180.0
  0
LINE
  5
4DC
330
1D
100
AcDbEntity
  8
Edge.Cuts
  6
Continuous
100
AcDbLine
 10
49.66249999999999
 20
-50.15
 30
0.0
 11
36.0625
 21
-50.15
 31
0.0
  0
ARC
  5
4DD
330
1D
100
AcDbEntity
  8
Edge.Cuts
100
AcDbCircle
 10
36.0625
 20
-50.65
 30
0.0
 40
0.5
100
AcDbArc
 50
90.0
 51
180.0
  0
LINE
  5
4DE
330
1D
100
AcDbEntity
  8
Edge.Cuts
  6
Continuous
100
AcDbLine
 10
35.5625
 20
-50.65
 30
0.0
 11
35.5625
 21
-63.65
 31
0.0
  0
ARC
  5
4DF
330
1D
100
AcDbEntity
  8
Edge.Cuts
100
AcDbCircle
 10
36.0625
 20
-63.65
 30
0.0
 40
0.5
100
AcDbArc
 50
180.0
 51
270.0
  0
LINE
  5
4E0
330
1D
100
AcDbEntity
  8
Edge.Cuts
  6
Continuous
100
AcDbLine
 10
36.0625
 20
-64.14999999999999
 30
0.0
 11
49.66249999999999
 21
-64.14999999999999
 31
0.0
  0
ARC
  5
4E1
330
1D
100
AcDbEntity
  8
Edge.Cuts
100
AcDbCircle
 10
49.66249999999999
 20
-63.65
 30
0.0
 40
0.5
100
AcDbArc
 50
270.0
 51
0.0
  0
LINE
  5
4E2
330
1D
100
AcDbEntity
  8
Edge.Cuts
  6
Continuous
100
AcDbLine
 10
50.16249999999999
 20
-63.65
 30
0.0
 11
50.16249999999999
 21
-50.65
 31
0.0
  0
ARC
  5
4E3
330
1D
100
AcDbEntity
  8
Edge.Cuts
100
AcDbCircle
 10
49.66249999999999
 20
-50.65
 30
0.0
 40
0.5
100
AcDbArc
 50
0.0
 51
90.0
  0
LINE
  5
4E4
330
1D
100
AcDbEntity
  8
Edge.Cuts
  6
Continuous
100
AcDbLine
 10
69.21249999999999
 20
-63.65
 30
0.0
 11
69.21249999999999
 21
-50.65
 31
0.0
  0
ARC
  5
4E5
330
1D
100
AcDbEntity
  8
Edge.Cuts
100
AcDbCircle
 10
68.71249999999999
 20
-50.65
 30
0.0
 40
0.5
100
AcDbArc
 50
0.0
 51
90.0
  0
LINE
  5
4E6
330
1D
100
AcDbEntity
  8
Edge.Cuts
  6
Continuous
100
AcDbLine
 10
68.71249999999999
 20
-50.15
 30
0.0
 11
55.1125
 21
-50.15
 31
0.0
  0
ARC
  5
4E7
330
1D
100
AcDbEntity
  8
Edge.Cuts
100
AcDbCircle
 10
55.1125
 20
-50.65
 30
0.0
 40
0.5
100
AcDbArc
 50
90.0
 51
180.0
  0
LINE
  5
4E8
330
1D
100
AcDbEntity
  8
Edge.Cuts
  6
Continuous
100
AcDbLine
 10
54.6125
 20
-50.65
 30
0.0
 11
54.6125
 21
-63.65
 31
0.0
  0
ARC
  5
4E9
330
1D
100
AcDbEntity
  8
Edge.Cuts
100
AcDbCircle
 10
55.1125
 20
-63.65
 30
0.0
 40
0.5
100
AcDbArc
 50
180.0
 51
270.0
  0
LINE
  5
4EA
330
1D
100
AcDbEntity
  8
Edge.Cuts
  6
Continuous
100
AcDbLine
 10
55.1125
 20
-64.14999999999999
 30
0.0
 11
68.71249999999999
 21
-64.14999999999999
 31
0.0
  0
ARC
  5
4EB
330
1D
100
AcDbEntity
  8
Edge.Cuts
100
AcDbCircle
 10
68.71249999999999
 20
-63.65
 30
0.0
 40
0.5
100
AcDbArc
 50
270.0
 51
0.0
  0
LINE
  5
4EC
330
1D
100
AcDbEntity
  8
Edge.Cuts
  6
Continuous
100
AcDbLine
 10
178.25
 20
7.0
 30
0.0
 11
164.65
 21
7.0
 31
0.0
  0
ARC
  5
4ED
330
1D
100
AcDbEntity
  8
Edge.Cuts
100
AcDbCircle
 10
164.65
 20
6.5
 30
0.0
 40
0.5
100
AcDbArc
 50
90.0
 51
180.0
  0
LINE
  5
4EE
330
1D
100
AcDbEntity
  8
Edge.Cuts
  6
Continuous
100
AcDbLine
 10
164.15
 20
6.5
 30
0.0
 11
164.15
 21
-6.5
 31
0.0
  0
ARC
  5
4EF
330
1D
100
AcDbEntity
  8
Edge.Cuts
100
AcDbCircle
 10
164.65
 20
-6.5
 30
0.0
 40
0.5
100
AcDbArc
 50
180.0
 51
270.0
  0
LINE
  5
4F0
330
1D
100
AcDbEntity
  8
Edge.Cuts
  6
Continuous
100
AcDbLine
 10
164.65
 20
-7.0
 30
0.0
 11
178.25
 21
-7.0
 31
0.0
  0
ARC
  5
4F1
330
1D
100
AcDbEntity
  8
Edge.Cuts
100
AcDbCircle
 10
178.25
 20
-6.5
 30
0.0
 40
0.5
100
AcDbArc
 50
270.0
 51
0.0
  0
LINE
  5
4F2
330
1D
100
AcDbEntity
  8
Edge.Cuts
  6
Continuous
100
AcDbLine
 10
178.75
 20
-6.5
 30
0.0
 11
178.75
 21
6.5
 31
0.0
  0
ARC
  5
4F3
330
1D
100
AcDbEntity
  8
Edge.Cuts
100
AcDbCircle
 10
178.25
 20
6.5
 30
0.0
 40
0.5
100
AcDbArc
 50
0.0
 51
90.0
  0
LINE
  5
4F4
330
1D
100
AcDbEntity
  8
Edge.Cuts
  6
Continuous
100
AcDbLine
 10
187.775
 20
-12.05
 30
0.0
 11
174.175
 21
-12.05
 31
0.0
  0
ARC
  5
4F5
330
1D
100
AcDbEntity
  8
Edge.Cuts
100
AcDbCircle
 10
174.175
 20
-12.55
 30
0.0
 40
0.5
100
AcDbArc
 50
90.0
 51
180.0
  0
LINE
  5
4F6
330
1D
100
AcDbEntity
  8
Edge.Cuts
  6
Continuous
100
AcDbLine
 10
173.675
 20
-12.55
 30
0.0
 11
173.675
 21
-25.55
 31
0.0
  0
ARC
  5
4F7
330
1D
100
AcDbEntity
  8
Edge.Cuts
100
AcDbCircle
 10
174.175
 20
-25.55
 30
0.0
 40
0.5
100
AcDbArc
 50
180.0
 51
270.0
  0
LINE
  5
4F8
330
1D
100
AcDbEntity
  8
Edge.Cuts
  6
Continuous
100
AcDbLine
 10
174.175
 20
-26.05
 30
0.0
 11
187.775
 21
-26.05
 31
0.0
  0
ARC
  5
4F9
330
1D
100
AcDbEntity
  8
Edge.Cuts
100
AcDbCircle
 10
187.775
 20
-25.55
 30
0.0
 40
0.5
100
AcDbArc
 50
270.0
 51
0.0
  0
LINE
  5
4FA
330
1D
100
AcDbEntity
  8
Edge.Cuts
  6
Continuous
100
AcDbLine
 10
188.275
 20
-25.55
 30
0.0
 11
188.275
 21
-12.55
 31
0.0
  0
ARC
  5
4FB
330
1D
100
AcDbEntity
  8
Edge.Cuts
100
AcDbCircle
 10
187.775
 20
-12.55
 30
0.0
 40
0.5
100
AcDbArc
 50
0.0
 51
90.0
  0
ARC
  5
4FC
330
1D
100
AcDbEntity
  8
Edge.Cuts
100
AcDbCircle
 10
230.6375
 20
-31.6
 30
0.0
 40
0.5
100
AcDbArc
 50
0.0
 51
90.0
  0
LINE
  5
4FD
330
1D
100
AcDbEntity
  8
Edge.Cuts
  6
Continuous
100
AcDbLine
 10
230.6375
 20
-31.1
 30
0.0
 11
217.0375
 21
-31.1
 31
0.0
  0
ARC
  5
4FE
330
1D
100
AcDbEntity
  8
Edge.Cuts
100
AcDbCircle
 10
217.0375
 20
-31.6
 30
0.0
 40
0.5
100
AcDbArc
 50
90.0
 51
180.0
  0
LINE
  5
4FF
330
1D
100
AcDbEntity
  8
Edge.Cuts
  6
Continuous
100
AcDbLine
 10
216.5375
 20
-31.6
 30
0.0
 11
216.5375
 21
-44.6
 31
0.0
  0
ARC
  5
500
330
1D
100
AcDbEntity
  8
Edge.Cuts
100
AcDbCircle
 10
217.0375
 20
-44.6
 30
0.0
 40
0.5
100
AcDbArc
 50
180.0
 51
270.0
  0
LINE
  5
501
330
1D
100
AcDbEntity
  8
Edge.Cuts
  6
Continuous
100
AcDbLine
 10
217.0375
 20
-45.1
 30
0.0
 11
230.6375
 21
-45.1
 31
0.0
  0
ARC
  5
502
330
1D
100
AcDbEntity
  8
Edge.Cuts
100
AcDbCircle
 10
230.6375
 20
-44.6
 30
0.0
 40
0.5
100
AcDbArc
 50
270.0
 51
0.0
  0
LINE
  5
503
330
1D
100
AcDbEntity
  8
Edge.Cuts
  6
Continuous
100
AcDbLine
 10
231.1375
 20
-44.6
 30
0.0
 11
231.1375
 21
-31.6
 31
0.0
  0
ARC
  5
504
330
1D
100
AcDbEntity
  8
Edge.Cuts
100
AcDbCircle
 10
221.1125
 20
-50.65
 30
0.0
 40
0.5
100
AcDbArc
 50
0.0
 51
90.0
  0
LINE
  5
505
330
1D
100
AcDbEntity
  8
Edge.Cuts
  6
Continuous
100
AcDbLine
 10
221.1125
 20
-50.15
 30
0.0
 11
207.5125
 21
-50.15
 31
0.0
  0
ARC
  5
506
330
1D
100
AcDbEntity
  8
Edge.Cuts
100
AcDbCircle
 10
207.5125
 20
-50.65
 30
0.0
 40
0.5
100
AcDbArc
 50
90.0
 51
180.0
  0
LINE
  5
507
330
1D
100
AcDbEntity
  8
Edge.Cuts
  6
Continuous
100
AcDbLine
 10
207.0125
 20
-50.65
 30
0.0
 11
207.0125
 21
-63.65
 31
0.0
  0
ARC
  5
508
330
1D
100
AcDbEntity
  8
Edge.Cuts
100
AcDbCircle
 10
207.5125
 20
-63.65
 30
0.0
 40
0.5
100
AcDbArc
 50
180.0
 51
270.0
  0
LINE
  5
509
330
1D
100
AcDbEntity
  8
Edge.Cuts
  6
Continuous
100
AcDbLine
 10
207.5125
 20
-64.14999999999999
 30
0.0
 11
221.1125
 21
-64.14999999999999
 31
0.0
  0
ARC
  5
50A
330
1D
100
AcDbEntity
  8
Edge.Cuts
100
AcDbCircle
 10
221.1125
 20
-63.65
 30
0.0
 40
0.5
100
AcDbArc
 50
270.0
 51
0.0
  0
LINE
  5
50B
330
1D
100
AcDbEntity
  8
Edge.Cuts
  6
Continuous
100
AcDbLine
 10
221.6125
 20
-63.65
 30
0.0
 11
221.6125
 21
-50.65
 31
0.0
  0
ARC
  5
50C
330
1D
100
AcDbEntity
  8
Edge.Cuts
100
AcDbCircle
 10
168.725
 20
-25.55
 30
0.0
 40
0.5
100
AcDbArc
 50
270.0
 51
0.0
  0
LINE
  5
50D
330
1D
100
AcDbEntity
  8
Edge.Cuts
  6
Continuous
100
AcDbLine
 10
169.225
 20
-25.55
 30
0.0
 11
169.225
 21
-12.55
 31
0.0
  0
ARC
  5
50E
330
1D
100
AcDbEntity
  8
Edge.Cuts
100
AcDbCircle
 10
168.725
 20
-12.55
 30
0.0
 40
0.5
100
AcDbArc
 50
0.0
 51
90.0
  0
LINE
  5
50F
330
1D
100
AcDbEntity
  8
Edge.Cuts
  6
Continuous
100
AcDbLine
 10
168.725
 20
-12.05
 30
0.0
 11
155.125
 21
-12.05
 31
0.0
  0
ARC
  5
510
330
1D
100
AcDbEntity
  8
Edge.Cuts
100
AcDbCircle
 10
155.125
 20
-12.55
 30
0.0
 40
0.5
100
AcDbArc
 50
90.0
 51
180.0
  0
LINE
  5
511
330
1D
100
AcDbEntity
  8
Edge.Cuts
  6
Continuous
100
AcDbLine
 10
154.625
 20
-12.55
 30
0.0
 11
154.625
 21
-25.55
 31
0.0
  0
ARC
  5
512
330
1D
100
AcDbEntity
  8
Edge.Cuts
100
AcDbCircle
 10
155.125
 20
-25.55
 30
0.0
 40
0.5
100
AcDbArc
 50
180.0
 51
270.0
  0
LINE
  5
513
330
1D
100
AcDbEntity
  8
Edge.Cuts
  6
Continuous
100
AcDbLine
 10
155.125
 20
-26.05
 30
0.0
 11
168.725
 21
-26.05
 31
0.0
  0
ARC
  5
514
330
1D
100
AcDbEntity
  8
Edge.Cuts
100
AcDbCircle
 10
212.275
 20
-12.55
 30
0.0
 40
0.5
100
AcDbArc
 50
90.0
 51
180.0
  0
LINE
  5
515
330
1D
100
AcDbEntity
  8
Edge.Cuts
  6
Continuous
100
AcDbLine
 10
211.775
 20
-12.55
 30
0.0
 11
211.775
 21
-25.55
 31
0.0
  0
ARC
  5
516
330
1D
100
AcDbEntity
  8
Edge.Cuts
100
AcDbCircle
 10
212.275
 20
-25.55
 30
0.0
 40
0.5
100
AcDbArc
 50
180.0
 51
270.0
  0
LINE
  5
517
330
1D
100
AcDbEntity
  8
Edge.Cuts
  6
Continuous
100
AcDbLine
 10
212.275
 20
-26.05
 30
0.0
 11
225.875
 21
-26.05
 31
0.0
  0
ARC
  5
518
330
1D
100
AcDbEntity
  8
Edge.Cuts
100
AcDbCircle
 10
225.875
 20
-25.55
 30
0.0
 40
0.5
100
AcDbArc
 50
270.0
 51
0.0
  0
LINE
  5
519
330
1D
100
AcDbEntity
  8
Edge.Cuts
  6
Continuous
100
AcDbLine
 10
226.375
 20
-25.55
 30
0.0
 11
226.375
 21
-12.55
 31
0.0
  0
ARC
  5
51A
330
1D
100
AcDbEntity
  8
Edge.Cuts
100
AcDbCircle
 10
225.875
 20
-12.55
 30
0.0
 40
0.5
100
AcDbArc
 50
0.0
 51
90.0
  0
LINE
  5
51B
330
1D
100
AcDbEntity
  8
Edge.Cuts
  6
Continuous
100
AcDbLine
 10
225.875
 20
-12.05
 30
0.0
 11
212.275
 21
-12.05
 31
0.0
  0
LINE
  5
51C
330
1D
100
AcDbEntity
  8
Edge.Cuts
  6
Continuous
100
AcDbLine
 10
197.8
 20
-6.5
 30
0.0
 11
197.8
 21
6.5
 31
0.0
  0
ARC
  5
51D
330
1D
100
AcDbEntity
  8
Edge.Cuts
100
AcDbCircle
 10
197.3
 20
6.5
 30
0.0
 40
0.5
100
AcDbArc
 50
0.0
 51
90.0
  0
LINE
  5
51E
330
1D
100
AcDbEntity
  8
Edge.Cuts
  6
Continuous
100
AcDbLine
 10
197.3
 20
7.0
 30
0.0
 11
183.7
 21
7.0
 31
0.0
  0
ARC
  5
51F
330
1D
100
AcDbEntity
  8
Edge.Cuts
100
AcDbCircle
 10
183.7
 20
6.5
 30
0.0
 40
0.5
100
AcDbArc
 50
90.0
 51
180.0
  0
LINE
  5
520
330
1D
100
AcDbEntity
  8
Edge.Cuts
  6
Continuous
100
AcDbLine
 10
183.2
 20
6.5
 30
0.0
 11
183.2
 21
-6.5
 31
0.0
  0
ARC
  5
521
330
1D
100
AcDbEntity
  8
Edge.Cuts
100
AcDbCircle
 10
183.7
 20
-6.5
 30
0.0
 40
0.5
100
AcDbArc
 50
180.0
 51
270.0
  0
LINE
  5
522
330
1D
100
AcDbEntity
  8
Edge.Cuts
  6
Continuous
100
AcDbLine
 10
183.7
 20
-7.0
 30
0.0
 11
197.3
 21
-7.0
 31
0.0
  0
ARC
  5
523
330
1D
100
AcDbEntity
  8
Edge.Cuts
100
AcDbCircle
 10
197.3
 20
-6.5
 30
0.0
 40
0.5
100
AcDbArc
 50
270.0
 51
0.0
  0
CIRCLE
  5
524
330
1D
100
AcDbEntity
  8
Edge.Cuts
100
AcDbCircle
 10
171.45
 20
-19.05
 30
0.0
 40
1.0
  0
ARC
  5
525
330
1D
100
AcDbEntity
  8
Edge.Cuts
100
AcDbCircle
 10
244.925
 20
-12.55
 30
0.0
 40
0.5
100
AcDbArc
 50
0.0
 51
90.0
  0
LINE
  5
526
330
1D
100
AcDbEntity
  8
Edge.Cuts
  6
Continuous
100
AcDbLine
 10
244.925
 20
-12.05
 30
0.0
 11
231.325
 21
-12.05
 31
0.0
  0
ARC
  5
527
330
1D
100
AcDbEntity
  8
Edge.Cuts
100
AcDbCircle
 10
231.325
 20
-12.55
 30
0.0
 40
0.5
100
AcDbArc
 50
90.0
 51
180.0
  0
LINE
  5
528
330
1D
100
AcDbEntity
  8
Edge.Cuts
  6
Continuous
100
AcDbLine
 10
230.825
 20
-12.55
 30
0.0
 11
230.825
 21
-25.55
 31
0.0
  0
ARC
  5
529
330
1D
100
AcDbEntity
  8
Edge.Cuts
100
AcDbCircle
 10
231.325
 20
-25.55
 30
0.0
 40
0.5
100
AcDbArc
 50
180.0
 51
270.0
  0
LINE
  5
52A
330
1D
100
AcDbEntity
  8
Edge.Cuts
  6
Continuous
100
AcDbLine
 10
231.325
 20
-26.05
 30
0.0
 11
244.925
 21
-26.05
 31
0.0
  0
ARC
  5
52B
330
1D
100
AcDbEntity
  8
Edge.Cuts
100
AcDbCircle
 10
244.925
 20
-25.55
 30
0.0
 40
0.5
100
AcDbArc
 50
270.0
 51
0.0
  0
LINE
  5
52C
330
1D
100
AcDbEntity
  8
Edge.Cuts
  6
Continuous
100
AcDbLine
 10
245.425
 20
-25.55
 30
0.0
 11
245.425
 21
-12.55
 31
0.0
  0
LINE
  5
52D
330
1D
100
AcDbEntity
  8
Edge.Cuts
  6
Continuous
100
AcDbLine
 10
188.4625
 20
-64.14999999999999
 30
0.0
 11
202.0625
 21
-64.14999999999999
 31
0.0
  0
ARC
  5
52E
330
1D
100
AcDbEntity
  8
Edge.Cuts
100
AcDbCircle
 10
202.0625
 20
-63.65
 30
0.0
 40
0.5
100
AcDbArc
 50
270.0
 51
0.0
  0
LINE
  5
52F
330
1D
100
AcDbEntity
  8
Edge.Cuts
  6
Continuous
100
AcDbLine
 10
202.5625
 20
-63.65
 30
0.0
 11
202.5625
 21
-50.65
 31
0.0
  0
ARC
  5
530
330
1D
100
AcDbEntity
  8
Edge.Cuts
100
AcDbCircle
 10
202.0625
 20
-50.65
 30
0.0
 40
0.5
100
AcDbArc
 50
0.0
 51
90.0
  0
LINE
  5
531
330
1D
100
AcDbEntity
  8
Edge.Cuts
  6
Continuous
100
AcDbLine
 10
202.0625
 20
-50.15
 30
0.0
 11
188.4625
 21
-50.15
 31
0.0
  0
ARC
  5
532
330
1D
100
AcDbEntity
  8
Edge.Cuts
100
AcDbCircle
 10
188.4625
 20
-50.65
 30
0.0
 40
0.5
100
AcDbArc
 50
90.0
 51
180.0
  0
LINE
  5
533
330
1D
100
AcDbEntity
  8
Edge.Cuts
  6
Continuous
100
AcDbLine
 10
187.9625
 20
-50.65
 30
0.0
 11
187.9625
 21
-63.65
 31
0.0
  0
ARC
  5
534
330
1D
100
AcDbEntity
  8
Edge.Cuts
100
AcDbCircle
 10
188.4625
 20
-63.65
 30
0.0
 40
0.5
100
AcDbArc
 50
180.0
 51
270.0
  0
LINE
  5
535
330
1D
100
AcDbEntity
  8
Edge.Cuts
  6
Continuous
100
AcDbLine
 10
235.9
 20
-6.5
 30
0.0
 11
235.9
 21
6.5
 31
0.0
  0
ARC
  5
536
330
1D
100
AcDbEntity
  8
Edge.Cuts
100
AcDbCircle
 10
235.4
 20
6.5
 30
0.0
 40
0.5
100
AcDbArc
 50
0.0
 51
90.0
  0
LINE
  5
537
330
1D
100
AcDbEntity
  8
Edge.Cuts
  6
Continuous
100
AcDbLine
 10
235.4
 20
7.0
 30
0.0
 11
221.8
 21
7.0
 31
0.0
  0
ARC
  5
538
330
1D
100
AcDbEntity
  8
Edge.Cuts
100
AcDbCircle
 10
221.8
 20
6.5
 30
0.0
 40
0.5
100
AcDbArc
 50
90.0
 51
180.0
  0
LINE
  5
539
330
1D
100
AcDbEntity
  8
Edge.Cuts
  6
Continuous
100
AcDbLine
 10
221.3
 20
6.5
 30
0.0
 11
221.3
 21
-6.5
 31
0.0
  0
ARC
  5
53A
330
1D
100
AcDbEntity
  8
Edge.Cuts
100
AcDbCircle
 10
221.8
 20
-6.5
 30
0.0
 40
0.5
100
AcDbArc
 50
180.0
 51
270.0
  0
LINE
  5
53B
330
1D
100
AcDbEntity
  8
Edge.Cuts
  6
Continuous
100
AcDbLine
 10
221.8
 20
-7.0
 30
0.0
 11
235.4
 21
-7.0
 31
0.0
  0
ARC
  5
53C
330
1D
100
AcDbEntity
  8
Edge.Cuts
100
AcDbCircle
 10
235.4
 20
-6.5
 30
0.0
 40
0.5
100
AcDbArc
 50
270.0
 51
0.0
  0
LINE
  5
53D
330
1D
100
AcDbEntity
  8
Edge.Cuts
  6
Continuous
100
AcDbLine
 10
50.34999999999999
 20
-7.0
 30
0.0
 11
63.95
 21
-7.0
 31
0.0
  0
ARC
  5
53E
330
1D
100
AcDbEntity
  8
Edge.Cuts
100
AcDbCircle
 10
63.95
 20
-6.5
 30
0.0
 40
0.5
100
AcDbArc
 50
270.0
 51
0.0
  0
LINE
  5
53F
330
1D
100
AcDbEntity
  8
Edge.Cuts
  6
Continuous
100
AcDbLine
 10
64.45
 20
-6.5
 30
0.0
 11
64.45
 21
6.5
 31
0.0
  0
ARC
  5
540
330
1D
100
AcDbEntity
  8
Edge.Cuts
100
AcDbCircle
 10
63.95
 20
6.5
 30
0.0
 40
0.5
100
AcDbArc
 50
0.0
 51
90.0
  0
LINE
  5
541
330
1D
100
AcDbEntity
  8
Edge.Cuts
  6
Continuous
100
AcDbLine
 10
63.95
 20
7.0
 30
0.0
 11
50.34999999999999
 21
7.0
 31
0.0
  0
ARC
  5
542
330
1D
100
AcDbEntity
  8
Edge.Cuts
100
AcDbCircle
 10
50.34999999999999
 20
6.5
 30
0.0
 40
0.5
100
AcDbArc
 50
90.0
 51
180.0
  0
LINE
  5
543
330
1D
100
AcDbEntity
  8
Edge.Cuts
  6
Continuous
100
AcDbLine
 10
49.84999999999999
 20
6.5
 30
0.0
 11
49.84999999999999
 21
-6.5
 31
0.0
  0
ARC
  5
544
330
1D
100
AcDbEntity
  8
Edge.Cuts
100
AcDbCircle
 10
50.34999999999999
 20
-6.5
 30
0.0
 40
0.5
100
AcDbArc
 50
180.0
 51
270.0
  0
LINE
  5
545
330
1D
100
AcDbEntity
  8
Edge.Cuts
  6
Continuous
100
AcDbLine
 10
192.5375
 20
-31.1
 30
0.0
 11
178.9375
 21
-31.1
 31
0.0
  0
ARC
  5
546
330
1D
100
AcDbEntity
  8
Edge.Cuts
100
AcDbCircle
 10
178.9375
 20
-31.6
 30
0.0
 40
0.5
100
AcDbArc
 50
90.0
 51
180.0
  0
LINE
  5
547
330
1D
100
AcDbEntity
  8
Edge.Cuts
  6
Continuous
100
AcDbLine
 10
178.4375
 20
-31.6
 30
0.0
 11
178.4375
 21
-44.6
 31
0.0
  0
ARC
  5
548
330
1D
100
AcDbEntity
  8
Edge.Cuts
100
AcDbCircle
 10
178.9375
 20
-44.6
 30
0.0
 40
0.5
100
AcDbArc
 50
180.0
 51
270.0
  0
LINE
  5
549
330
1D
100
AcDbEntity
  8
Edge.Cuts
  6
Continuous
100
AcDbLine
 10
178.9375
 20
-45.1
 30
0.0
 11
192.5375
 21
-45.1
 31
0.0
  0
ARC
  5
54A
330
1D
100
AcDbEntity
  8
Edge.Cuts
100
AcDbCircle
 10
192.5375
 20
-44.6
 30
0.0
 40
0.5
100
AcDbArc
 50
270.0
 51
0.0
  0
LINE
  5
54B
330
1D
100
AcDbEntity
  8
Edge.Cuts
  6
Continuous
100
AcDbLine
 10
193.0375
 20
-44.6
 30
0.0
 11
193.0375
 21
-31.6
 31
0.0
  0
ARC
  5
54C
330
1D
100
AcDbEntity
  8
Edge.Cuts
100
AcDbCircle
 10
192.5375
 20
-31.6
 30
0.0
 40
0.5
100
AcDbArc
 50
0.0
 51
90.0
  0
LINE
  5
54D
330
1D
100
AcDbEntity
  8
Edge.Cuts
  6
Continuous
100
AcDbLine
 10
59.875
 20
-26.05
 30
0.0
 11
73.475
 21
-26.05
 31
0.0
  0
ARC
  5
54E
330
1D
100
AcDbEntity
  8
Edge.Cuts
100
AcDbCircle
 10
73.475
 20
-25.55
 30
0.0
 40
0.5
100
AcDbArc
 50
270.0
 51
0.0
  0
LINE
  5
54F
330
1D
100
AcDbEntity
  8
Edge.Cuts
  6
Continuous
100
AcDbLine
 10
73.975
 20
-25.55
 30
0.0
 11
73.975
 21
-12.55
 31
0.0
  0
ARC
  5
550
330
1D
100
AcDbEntity
  8
Edge.Cuts
100
AcDbCircle
 10
73.475
 20
-12.55
 30
0.0
 40
0.5
100
AcDbArc
 50
0.0
 51
90.0
  0
LINE
  5
551
330
1D
100
AcDbEntity
  8
Edge.Cuts
  6
Continuous
100
AcDbLine
 10
73.475
 20
-12.05
 30
0.0
 11
59.875
 21
-12.05
 31
0.0
  0
ARC
  5
552
330
1D
100
AcDbEntity
  8
Edge.Cuts
100
AcDbCircle
 10
59.875
 20
-12.55
 30
0.0
 40
0.5
100
AcDbArc
 50
90.0
 51
180.0
  0
LINE
  5
553
330
1D
100
AcDbEntity
  8
Edge.Cuts
  6
Continuous
100
AcDbLine
 10
59.375
 20
-12.55
 30
0.0
 11
59.375
 21
-25.55
 31
0.0
  0
ARC
  5
554
330
1D
100
AcDbEntity
  8
Edge.Cuts
100
AcDbCircle
 10
59.875
 20
-25.55
 30
0.0
 40
0.5
100
AcDbArc
 50
180.0
 51
270.0
  0
LINE
  5
555
330
1D
100
AcDbEntity
  8
Edge.Cuts
  6
Continuous
100
AcDbLine
 10
111.575
 20
-12.05
 30
0.0
 11
97.975
 21
-12.05
 31
0.0
  0
ARC
  5
556
330
1D
100
AcDbEntity
  8
Edge.Cuts
100
AcDbCircle
 10
97.975
 20
-12.55
 30
0.0
 40
0.5
100
AcDbArc
 50
90.0
 51
180.0
  0
LINE
  5
557
330
1D
100
AcDbEntity
  8
Edge.Cuts
  6
Continuous
100
AcDbLine
 10
97.475
 20
-12.55
 30
0.0
 11
97.475
 21
-25.55
 31
0.0
  0
ARC
  5
558
330
1D
100
AcDbEntity
  8
Edge.Cuts
100
AcDbCircle
 10
97.975
 20
-25.55
 30
0.0
 40
0.5
100
AcDbArc
 50
180.0
 51
270.0
  0
LINE
  5
559
330
1D
100
AcDbEntity
  8
Edge.Cuts
  6
Continuous
100
AcDbLine
 10
97.975
 20
-26.05
 30
0.0
 11
111.575
 21
-26.05
 31
0.0
  0
ARC
  5
55A
330
1D
100
AcDbEntity
  8
Edge.Cuts
100
AcDbCircle
 10
111.575
 20
-25.55
 30
0.0
 40
0.5
100
AcDbArc
 50
270.0
 51
0.0
  0
LINE
  5
55B
330
1D
100
AcDbEntity
  8
Edge.Cuts
  6
Continuous
100
AcDbLine
 10
112.075
 20
-25.55
 30
0.0
 11
112.075
 21
-12.55
 31
0.0
  0
ARC
  5
55C
330
1D
100
AcDbEntity
  8
Edge.Cuts
100
AcDbCircle
 10
111.575
 20
-12.55
 30
0.0
 40
0.5
100
AcDbArc
 50
0.0
 51
90.0
  0
LINE
  5
55D
330
1D
100
AcDbEntity
  8
Edge.Cuts
  6
Continuous
100
AcDbLine
 10
88.45
 20
-7.0
 30
0.0
 11
102.05
 21
-7.0
 31
0.0
  0
ARC
  5
55E
330
1D
100
AcDbEntity
  8
Edge.Cuts
100
AcDbCircle
 10
102.05
 20
-6.5
 30
0.0
 40
0.5
100
AcDbArc
 50
270.0
 51
0.0
  0
LINE
  5
55F
330
1D
100
AcDbEntity
  8
Edge.Cuts
  6
Continuous
100
AcDbLine
 10
102.55
 20
-6.5
 30
0.0
 11
102.55
 21
6.5
 31
0.0
  0
ARC
  5
560
330
1D
100
AcDbEntity
  8
Edge.Cuts
100
AcDbCircle
 10
102.05
 20
6.5
 30
0.0
 40
0.5
100
AcDbArc
 50
0.0
 51
90.0
  0
LINE
  5
561
330
1D
100
AcDbEntity
  8
Edge.Cuts
  6
Continuous
100
AcDbLine
 10
102.05
 20
7.0
 30
0.0
 11
88.45
 21
7.0
 31
0.0
  0
ARC
  5
562
330
1D
100
AcDbEntity
  8
Edge.Cuts
100
AcDbCircle
 10
88.45
 20
6.5
 30
0.0
 40
0.5
100
AcDbArc
 50
90.0
 51
180.0
  0
LINE
  5
563
330
1D
100
AcDbEntity
  8
Edge.Cuts
  6
Continuous
100
AcDbLine
 10
87.95
 20
6.5
 30
0.0
 11
87.95
 21
-6.5
 31
0.0
  0
ARC
  5
564
330
1D
100
AcDbEntity
  8
Edge.Cuts
100
AcDbCircle
 10
88.45
 20
-6.5
 30
0.0
 40
0.5
100
AcDbArc
 50
180.0
 51
270.0
  0
CIRCLE
  5
565
330
1D
100
AcDbEntity
  8
Edge.Cuts
100
AcDbCircle
 10
185.7375
 20
-57.15
 30
0.0
 40
1.0
  0
LINE
  5
566
330
1D
100
AcDbEntity
  8
Edge.Cuts
  6
Continuous
100
AcDbLine
 10
35.375
 20
-12.05
 30
0.0
 11
21.775
 21
-12.05
 31
0.0
  0
ARC
  5
567
330
1D
100
AcDbEntity
  8
Edge.Cuts
100
AcDbCircle
 10
21.775
 20
-12.55
 30
0.0
 40
0.5
100
AcDbArc
 50
90.0
 51
180.0
  0
LINE
  5
568
330
1D
100
AcDbEntity
  8
Edge.Cuts
  6
Continuous
100
AcDbLine
 10
21.275
 20
-12.55
 30
0.0
 11
21.275
 21
-25.55
 31
0.0
  0
ARC
  5
569
330
1D
100
AcDbEntity
  8
Edge.Cuts
100
AcDbCircle
 10
21.775
 20
-25.55
 30
0.0
 40
0.5
100
AcDbArc
 50
180.0
 51
270.0
  0
LINE
  5
56A
330
1D
100
AcDbEntity
  8
Edge.Cuts
  6
Continuous
100
AcDbLine
 10
21.775
 20
-26.05
 30
0.0
 11
35.375
 21
-26.05
 31
0.0
  0
ARC
  5
56B
330
1D
100
AcDbEntity
  8
Edge.Cuts
100
AcDbCircle
 10
35.375
 20
-25.55
 30
0.0
 40
0.5
100
AcDbArc
 50
270.0
 51
0.0
  0
LINE
  5
56C
330
1D
100
AcDbEntity
  8
Edge.Cuts
  6
Continuous
100
AcDbLine
 10
35.875
 20
-25.55
 30
0.0
 11
35.875
 21
-12.55
 31
0.0
  0
ARC
  5
56D
330
1D
100
AcDbEntity
  8
Edge.Cuts
100
AcDbCircle
 10
35.375
 20
-12.55
 30
0.0
 40
0.5
100
AcDbArc
 50
0.0
 51
90.0
  0
ARC
  5
56E
330
1D
100
AcDbEntity
  8
Edge.Cuts
100
AcDbCircle
 10
117.025
 20
-12.55
 30
0.0
 40
0.5
100
AcDbArc
 50
90.0
 51
180.0
  0
LINE
  5
56F
330
1D
100
AcDbEntity
  8
Edge.Cuts
  6
Continuous
100
AcDbLine
 10
116.525
 20
-12.55
 30
0.0
 11
116.525
 21
-25.55
 31
0.0
  0
ARC
  5
570
330
1D
100
AcDbEntity
  8
Edge.Cuts
100
AcDbCircle
 10
117.025
 20
-25.55
 30
0.0
 40
0.5
100
AcDbArc
 50
180.0
 51
270.0
  0
LINE
  5
571
330
1D
100
AcDbEntity
  8
Edge.Cuts
  6
Continuous
100
AcDbLine
 10
117.025
 20
-26.05
 30
0.0
 11
130.625
 21
-26.05
 31
0.0
  0
ARC
  5
572
330
1D
100
AcDbEntity
  8
Edge.Cuts
100
AcDbCircle
 10
130.625
 20
-25.55
 30
0.0
 40
0.5
100
AcDbArc
 50
270.0
 51
0.0
  0
LINE
  5
573
330
1D
100
AcDbEntity
  8
Edge.Cuts
  6
Continuous
100
AcDbLine
 10
131.125
 20
-25.55
 30
0.0
 11
131.125
 21
-12.55
 31
0.0
  0
ARC
  5
574
330
1D
100
AcDbEntity
  8
Edge.Cuts
100
AcDbCircle
 10
130.625
 20
-12.55
 30
0.0
 40
0.5
100
AcDbArc
 50
0.0
 51
90.0
  0
LINE
  5
575
330
1D
100
AcDbEntity
  8
Edge.Cuts
  6
Continuous
100
AcDbLine
 10
130.625
 20
-12.05
 30
0.0
 11
117.025
 21
-12.05
 31
0.0
  0
CIRCLE
  5
576
330
1D
100
AcDbEntity
  8
Edge.Cuts
100
AcDbCircle
 10
119.0625
 20
-38.1
 30
0.0
 40
1.0
  0
CIRCLE
  5
577
330
1D
100
AcDbEntity
  8
Edge.Cuts
100
AcDbCircle
 10
250.9012
 20
-18.7
 30
0.0
 40
1.0
  0
LINE
  5
578
330
1D
100
AcDbEntity
  8
Edge.Cuts
  6
Continuous
100
AcDbLine
 10
25.85
 20
7.0
 30
0.0
 11
12.25
 21
7.0
 31
0.0
  0
ARC
  5
579
330
1D
100
AcDbEntity
  8
Edge.Cuts
100
AcDbCircle
 10
12.25
 20
6.5
 30
0.0
 40
0.5
100
AcDbArc
 50
90.0
 51
180.0
  0
LINE
  5
57A
330
1D
100
AcDbEntity
  8
Edge.Cuts
  6
Continuous
100
AcDbLine
 10
11.75
 20
6.5
 30
0.0
 11
11.75
 21
-6.5
 31
0.0
  0
ARC
  5
57B
330
1D
100
AcDbEntity
  8
Edge.Cuts
100
AcDbCircle
 10
12.25
 20
-6.5
 30
0.0
 40
0.5
100
AcDbArc
 50
180.0
 51
270.0
  0
LINE
  5
57C
330
1D
100
AcDbEntity
  8
Edge.Cuts
  6
Continuous
100
AcDbLine
 10
12.25
 20
-7.0
 30
0.0
 11
25.85
 21
-7.0
 31
0.0
  0
ARC
  5
57D
330
1D
100
AcDbEntity
  8
Edge.Cuts
100
AcDbCircle
 10
25.85
 20
-6.5
 30
0.0
 40
0.5
100
AcDbArc
 50
270.0
 51
0.0
  0
LINE
  5
57E
330
1D
100
AcDbEntity
  8
Edge.Cuts
  6
Continuous
100
AcDbLine
 10
26.35
 20
-6.5
 30
0.0
 11
26.35
 21
6.5
 31
0.0
  0
ARC
  5
57F
330
1D
100
AcDbEntity
  8
Edge.Cuts
100
AcDbCircle
 10
25.85
 20
6.5
 30
0.0
 40
0.5
100
AcDbArc
 50
0.0
 51
90.0
  0
LINE
  5
580
330
1D
100
AcDbEntity
  8
Edge.Cuts
  6
Continuous
100
AcDbLine
 10
-2.5375
 20
-12.550001
 30
0.0
 11
-2.5375
 21
-25.549999
 31
0.0
  0
LINE
  5
581
330
1D
100
AcDbEntity
  8
Edge.Cuts
  6
Continuous
100
AcDbLine
 10
-7.3
 20
6.499999
 30
0.0
 11
-7.3
 21
-6.499999
 31
0.0
  0
ARC
  5
582
330
1D
100
AcDbEntity
  8
Edge.Cuts
100
AcDbCircle
 10
-6.799999
 20
-6.499999
 30
0.0
 40
0.500001
100
AcDbArc
 50
180.0
 51
270.0
  0
LINE
  5
583
330
1D
100
AcDbEntity
  8
Edge.Cuts
  6
Continuous
100
AcDbLine
 10
-6.799999
 20
-7.0
 30
0.0
 11
6.8
 21
-7.0
 31
0.0
  0
ARC
  5
584
330
1D
100
AcDbEntity
  8
Edge.Cuts
100
AcDbCircle
 10
6.8
 20
-6.5
 30
0.0
 40
0.5
100
AcDbArc
 50
270.0
 51
0.0
  0
LINE
  5
585
330
1D
100
AcDbEntity
  8
Edge.Cuts
  6
Continuous
100
AcDbLine
 10
7.3
 20
-6.5
 30
0.0
 11
7.3
 21
6.5
 31
0.0
  0
ARC
  5
586
330
1D
100
AcDbEntity
  8
Edge.Cuts
100
AcDbCircle
 10
6.8
 20
6.5
 30
0.0
 40
0.5
100
AcDbArc
 50
0.0
 51
90.0
  0
LINE
  5
587
330
1D
100
AcDbEntity
  8
Edge.Cuts
  6
Continuous
100
AcDbLine
 10
6.8
 20
7.0
 30
0.0
 11
-6.799999
 21
7.0
 31
0.0
  0
ARC
  5
588
330
1D
100
AcDbEntity
  8
Edge.Cuts
100
AcDbCircle
 10
-6.799999
 20
6.499999
 30
0.0
 40
0.500001
100
AcDbArc
 50
90.0
 51
180.0
  0
LINE
  5
589
330
1D
100
AcDbEntity
  8
Edge.Cuts
  6
Continuous
100
AcDbLine
 10
107.5
 20
-7.0
 30
0.0
 11
121.1
 21
-7.0
 31
0.0
  0
ARC
  5
58A
330
1D
100
AcDbEntity
  8
Edge.Cuts
100
AcDbCircle
 10
121.1
 20
-6.5
 30
0.0
 40
0.5
100
AcDbArc
 50
270.0
 51
0.0
  0
LINE
  5
58B
330
1D
100
AcDbEntity
  8
Edge.Cuts
  6
Continuous
100
AcDbLine
 10
121.6
 20
-6.5
 30
0.0
 11
121.6
 21
6.5
 31
0.0
  0
ARC
  5
58C
330
1D
100
AcDbEntity
  8
Edge.Cuts
100
AcDbCircle
 10
121.1
 20
6.5
 30
0.0
 40
0.5
100
AcDbArc
 50
0.0
 51
90.0
  0
LINE
  5
58D
330
1D
100
AcDbEntity
  8
Edge.Cuts
  6
Continuous
100
AcDbLine
 10
121.1
 20
7.0
 30
0.0
 11
107.5
 21
7.0
 31
0.0
  0
ARC
  5
58E
330
1D
100
AcDbEntity
  8
Edge.Cuts
100
AcDbCircle
 10
107.5
 20
6.5
 30
0.0
 40
0.5
100
AcDbArc
 50
90.0
 51
180.0
  0
LINE
  5
58F
330
1D
100
AcDbEntity
  8
Edge.Cuts
  6
Continuous
100
AcDbLine
 10
107.0
 20
6.5
 30
0.0
 11
107.0
 21
-6.5
 31
0.0
  0
ARC
  5
590
330
1D
100
AcDbEntity
  8
Edge.Cuts
100
AcDbCircle
 10
107.5
 20
-6.5
 30
0.0
 40
0.5
100
AcDbArc
 50
180.0
 51
270.0
  0
LINE
  5
591
330
1D
100
AcDbEntity
  8
Edge.Cuts
  6
Continuous
100
AcDbLine
 10
31.3
 20
-7.0
 30
0.0
 11
44.9
 21
-7.0
 31
0.0
  0
ARC
  5
592
330
1D
100
AcDbEntity
  8
Edge.Cuts
100
AcDbCircle
 10
44.9
 20
-6.5
 30
0.0
 40
0.5
100
AcDbArc
 50
270.0
 51
0.0
  0
LINE
  5
593
330
1D
100
AcDbEntity
  8
Edge.Cuts
  6
Continuous
100
AcDbLine
 10
45.4
 20
-6.5
 30
0.0
 11
45.4
 21
6.5
 31
0.0
  0
ARC
  5
594
330
1D
100
AcDbEntity
  8
Edge.Cuts
100
AcDbCircle
 10
44.9
 20
6.5
 30
0.0
 40
0.5
100
AcDbArc
 50
0.0
 51
90.0
  0
LINE
  5
595
330
1D
100
AcDbEntity
  8
Edge.Cuts
  6
Continuous
100
AcDbLine
 10
44.9
 20
7.0
 30
0.0
 11
31.3
 21
7.0
 31
0.0
  0
ARC
  5
596
330
1D
100
AcDbEntity
  8
Edge.Cuts
100
AcDbCircle
 10
31.3
 20
6.5
 30
0.0
 40
0.5
100
AcDbArc
 50
90.0
 51
180.0
  0
LINE
  5
597
330
1D
100
AcDbEntity
  8
Edge.Cuts
  6
Continuous
100
AcDbLine
 10
30.8
 20
6.5
 30
0.0
 11
30.8
 21
-6.5
 31
0.0
  0
ARC
  5
598
330
1D
100
AcDbEntity
  8
Edge.Cuts
100
AcDbCircle
 10
31.3
 20
-6.5
 30
0.0
 40
0.5
100
AcDbArc
 50
180.0
 51
270.0
  0
ARC
  5
599
330
1D
100
AcDbEntity
  8
Edge.Cuts
100
AcDbCircle
 10
54.425
 20
-12.55
 30
0.0
 40
0.5
100
AcDbArc
 50
0.0
 51
90.0
  0
LINE
  5
59A
330
1D
100
AcDbEntity
  8
Edge.Cuts
  6
Continuous
100
AcDbLine
 10
54.425
 20
-12.05
 30
0.0
 11
40.825
 21
-12.05
 31
0.0
  0
ARC
  5
59B
330
1D
100
AcDbEntity
  8
Edge.Cuts
100
AcDbCircle
 10
40.825
 20
-12.55
 30
0.0
 40
0.5
100
AcDbArc
 50
90.0
 51
180.0
  0
LINE
  5
59C
330
1D
100
AcDbEntity
  8
Edge.Cuts
  6
Continuous
100
AcDbLine
 10
40.325
 20
-12.55
 30
0.0
 11
40.325
 21
-25.55
 31
0.0
  0
ARC
  5
59D
330
1D
100
AcDbEntity
  8
Edge.Cuts
100
AcDbCircle
 10
40.825
 20
-25.55
 30
0.0
 40
0.5
100
AcDbArc
 50
180.0
 51
270.0
  0
LINE
  5
59E
330
1D
100
AcDbEntity
  8
Edge.Cuts
  6
Continuous
100
AcDbLine
 10
40.825
 20
-26.05
 30
0.0
 11
54.425
 21
-26.05
 31
0.0
  0
ARC
  5
59F
330
1D
100
AcDbEntity
  8
Edge.Cuts
100
AcDbCircle
 10
54.425
 20
-25.55
 30
0.0
 40
0.5
100
AcDbArc
 50
270.0
 51
0.0
  0
LINE
  5
5A0
330
1D
100
AcDbEntity
  8
Edge.Cuts
  6
Continuous
100
AcDbLine
 10
54.925
 20
-25.55
 30
0.0
 11
54.925
 21
-12.55
 31
0.0
  0
ARC
  5
5A1
330
1D
100
AcDbEntity
  8
Edge.Cuts
100
AcDbCircle
 10
-2.037499
 20
-25.549999
 30
0.0
 40
0.500001
100
AcDbArc
 50
180.0
 51
270.0
  0
CIRCLE
  5
5A2
330
1D
100
AcDbEntity
  8
Edge.Cuts
100
AcDbCircle
 10
42.8625
 20
-38.1
 30
0.0
 40
1.0
  0
CIRCLE
  5
5A3
330
1D
100
AcDbEntity
  8
Edge.Cuts
100
AcDbCircle
 10
28.575
 20
0.0
 30
0.0
 40
1.0
  0
CIRCLE
  5
5A4
330
1D
100
AcDbEntity
  8
Edge.Cuts
100
AcDbCircle
 10
16.04875
 20
-18.7
 30
0.0
 40
1.0
  0
CIRCLE
  5
5A5
330
1D
100
AcDbEntity
  8
Edge.Cuts
100
AcDbCircle
 10
95.25
 20
-19.05
 30
0.0
 40
1.0
  0
ARC
  5
5A6
330
1D
100
AcDbEntity
  8
Edge.Cuts
100
AcDbCircle
 10
92.52499999999999
 20
-25.55
 30
0.0
 40
0.5
100
AcDbArc
 50
270.0
 51
0.0
  0
LINE
  5
5A7
330
1D
100
AcDbEntity
  8
Edge.Cuts
  6
Continuous
100
AcDbLine
 10
93.02499999999999
 20
-25.55
 30
0.0
 11
93.02499999999999
 21
-12.55
 31
0.0
  0
ARC
  5
5A8
330
1D
100
AcDbEntity
  8
Edge.Cuts
100
AcDbCircle
 10
92.52499999999999
 20
-12.55
 30
0.0
 40
0.5
100
AcDbArc
 50
0.0
 51
90.0
  0
LINE
  5
5A9
330
1D
100
AcDbEntity
  8
Edge.Cuts
  6
Continuous
100
AcDbLine
 10
92.52499999999999
 20
-12.05
 30
0.0
 11
78.925
 21
-12.05
 31
0.0
  0
ARC
  5
5AA
330
1D
100
AcDbEntity
  8
Edge.Cuts
100
AcDbCircle
 10
78.925
 20
-12.55
 30
0.0
 40
0.5
100
AcDbArc
 50
90.0
 51
180.0
  0
LINE
  5
5AB
330
1D
100
AcDbEntity
  8
Edge.Cuts
  6
Continuous
100
AcDbLine
 10
78.425
 20
-12.55
 30
0.0
 11
78.425
 21
-25.55
 31
0.0
  0
ARC
  5
5AC
330
1D
100
AcDbEntity
  8
Edge.Cuts
100
AcDbCircle
 10
78.925
 20
-25.55
 30
0.0
 40
0.5
100
AcDbArc
 50
180.0
 51
270.0
  0
LINE
  5
5AD
330
1D
100
AcDbEntity
  8
Edge.Cuts
  6
Continuous
100
AcDbLine
 10
78.925
 20
-26.05
 30
0.0
 11
92.52499999999999
 21
-26.05
 31
0.0
  0
ARC
  5
5AE
330
1D
100
AcDbEntity
  8
Edge.Cuts
100
AcDbCircle
 10
69.39999999999999
 20
6.5
 30
0.0
 40
0.5
100
AcDbArc
 50
90.0
 51
180.0
  0
LINE
  5
5AF
330
1D
100
AcDbEntity
  8
Edge.Cuts
  6
Continuous
100
AcDbLine
 10
68.89999999999999
 20
6.5
 30
0.0
 11
68.89999999999999
 21
-6.5
 31
0.0
  0
ARC
  5
5B0
330
1D
100
AcDbEntity
  8
Edge.Cuts
100
AcDbCircle
 10
69.39999999999999
 20
-6.5
 30
0.0
 40
0.5
100
AcDbArc
 50
180.0
 51
270.0
  0
LINE
  5
5B1
330
1D
100
AcDbEntity
  8
Edge.Cuts
  6
Continuous
100
AcDbLine
 10
69.39999999999999
 20
-7.0
 30
0.0
 11
83.0
 21
-7.0
 31
0.0
  0
ARC
  5
5B2
330
1D
100
AcDbEntity
  8
Edge.Cuts
100
AcDbCircle
 10
83.0
 20
-6.5
 30
0.0
 40
0.5
100
AcDbArc
 50
270.0
 51
0.0
  0
LINE
  5
5B3
330
1D
100
AcDbEntity
  8
Edge.Cuts
  6
Continuous
100
AcDbLine
 10
83.5
 20
-6.5
 30
0.0
 11
83.5
 21
6.5
 31
0.0
  0
ARC
  5
5B4
330
1D
100
AcDbEntity
  8
Edge.Cuts
100
AcDbCircle
 10
83.0
 20
6.5
 30
0.0
 40
0.5
100
AcDbArc
 50
0.0
 51
90.0
  0
LINE
  5
5B5
330
1D
100
AcDbEntity
  8
Edge.Cuts
  6
Continuous
100
AcDbLine
 10
83.0
 20
7.0
 30
0.0
 11
69.39999999999999
 21
7.0
 31
0.0
  0
ARC
  5
5B6
330
1D
100
AcDbEntity
  8
Edge.Cuts
100
AcDbCircle
 10
126.55
 20
-6.5
 30
0.0
 40
0.5
100
AcDbArc
 50
180.0
 51
270.0
  0
LINE
  5
5B7
330
1D
100
AcDbEntity
  8
Edge.Cuts
  6
Continuous
100
AcDbLine
 10
126.55
 20
-7.0
 30
0.0
 11
140.15
 21
-7.0
 31
0.0
  0
ARC
  5
5B8
330
1D
100
AcDbEntity
  8
Edge.Cuts
100
AcDbCircle
 10
140.15
 20
-6.5
 30
0.0
 40
0.5
100
AcDbArc
 50
270.0
 51
0.0
  0
LINE
  5
5B9
330
1D
100
AcDbEntity
  8
Edge.Cuts
  6
Continuous
100
AcDbLine
 10
140.65
 20
-6.5
 30
0.0
 11
140.65
 21
6.5
 31
0.0
  0
ARC
  5
5BA
330
1D
100
AcDbEntity
  8
Edge.Cuts
100
AcDbCircle
 10
140.15
 20
6.5
 30
0.0
 40
0.5
100
AcDbArc
 50
0.0
 51
90.0
  0
LINE
  5
5BB
330
1D
100
AcDbEntity
  8
Edge.Cuts
  6
Continuous
100
AcDbLine
 10
140.15
 20
7.0
 30
0.0
 11
126.55
 21
7.0
 31
0.0
  0
ARC
  5
5BC
330
1D
100
AcDbEntity
  8
Edge.Cuts
100
AcDbCircle
 10
126.55
 20
6.5
 30
0.0
 40
0.5
100
AcDbArc
 50
90.0
 51
180.0
  0
LINE
  5
5BD
330
1D
100
AcDbEntity
  8
Edge.Cuts
  6
Continuous
100
AcDbLine
 10
126.05
 20
6.5
 30
0.0
 11
126.05
 21
-6.5
 31
0.0
  0
CIRCLE
  5
5BE
330
1D
100
AcDbEntity
  8
Edge.Cuts
100
AcDbCircle
 10
66.675
 20
0.0
 30
0.0
 40
1.0
  0
LINE
  5
5BF
330
1D
100
AcDbEntity
  8
Edge.Cuts
  6
Continuous
100
AcDbLine
 10
12.0625
 20
-25.55
 30
0.0
 11
12.0625
 21
-12.55
 31
0.0
  0
ARC
  5
5C0
330
1D
100
AcDbEntity
  8
Edge.Cuts
100
AcDbCircle
 10
11.5625
 20
-25.55
 30
0.0
 40
0.5
100
AcDbArc
 50
270.0
 51
0.0
  0
CIRCLE
  5
5C1
330
1D
100
AcDbEntity
  8
Edge.Cuts
100
AcDbCircle
 10
142.875
 20
0.0
 30
0.0
 40
1.0
  0
ARC
  5
5C2
330
1D
100
AcDbEntity
  8
Edge.Cuts
100
AcDbCircle
 10
11.5625
 20
-12.55
 30
0.0
 40
0.5
100
AcDbArc
 50
0.0
 51
90.0
  0
ARC
  5
5C3
330
1D
100
AcDbEntity
  8
Edge.Cuts
100
AcDbCircle
 10
-2.037499
 20
-12.550001
 30
0.0
 40
0.500001
100
AcDbArc
 50
90.0
 51
180.0
  0
LINE
  5
5C4
330
1D
100
AcDbEntity
  8
Edge.Cuts
  6
Continuous
100
AcDbLine
 10
-2.037499
 20
-26.05
 30
0.0
 11
11.5625
 21
-26.05
 31
0.0
  0
LINE
  5
5C5
330
1D
100
AcDbEntity
  8
Edge.Cuts
  6
Continuous
100
AcDbLine
 10
11.5625
 20
-12.05
 30
0.0
 11
-2.037499
 21
-12.05
 31
0.0
  0
CIRCLE
  5
5C6
330
1D
100
AcDbEntity
  8
Edge.Cuts
100
AcDbCircle
 10
-7.14375
 20
-38.1
 30
0.0
 40
1.0
  0
ARC
  5
5C7
330
1D
100
AcDbEntity
  8
Edge.Cuts
100
AcDbCircle
 10
274.725636
 20
8.025
 30
0.0
 40
1.5
100
AcDbArc
 50
0.0
 51
90.0
  0
LINE
  5
5C8
330
1D
100
AcDbEntity
  8
Edge.Cuts
  6
Continuous
100
AcDbLine
 10
9.644739999999999
 20
13.470048
 30
0.0
 11
9.40526
 21
13.470048
 31
0.0
  0
LINE
  5
5C9
330
1D
100
AcDbEntity
  8
Edge.Cuts
  6
Continuous
100
AcDbLine
 10
9.880954
 20
13.43063
 30
0.0
 11
9.644739999999999
 21
13.470048
 31
0.0
  0
LINE
  5
5CA
330
1D
100
AcDbEntity
  8
Edge.Cuts
  6
Continuous
100
AcDbLine
 10
10.107458
 20
13.352871
 30
0.0
 11
9.880954
 21
13.43063
 31
0.0
  0
LINE
  5
5CB
330
1D
100
AcDbEntity
  8
Edge.Cuts
  6
Continuous
100
AcDbLine
 10
10.318075
 20
13.238891
 30
0.0
 11
10.107458
 21
13.352871
 31
0.0
  0
LINE
  5
5CC
330
1D
100
AcDbEntity
  8
Edge.Cuts
  6
Continuous
100
AcDbLine
 10
10.507058
 20
13.0918
 30
0.0
 11
10.318075
 21
13.238891
 31
0.0
  0
LINE
  5
5CD
330
1D
100
AcDbEntity
  8
Edge.Cuts
  6
Continuous
100
AcDbLine
 10
10.669254
 20
12.915608
 30
0.0
 11
10.507058
 21
13.0918
 31
0.0
  0
LINE
  5
5CE
330
1D
100
AcDbEntity
  8
Edge.Cuts
  6
Continuous
100
AcDbLine
 10
10.800237
 20
12.715124
 30
0.0
 11
10.669254
 21
12.915608
 31
0.0
  0
LINE
  5
5CF
330
1D
100
AcDbEntity
  8
Edge.Cuts
  6
Continuous
100
AcDbLine
 10
10.896435
 20
12.495814
 30
0.0
 11
10.800237
 21
12.715124
 31
0.0
  0
LINE
  5
5D0
330
1D
100
AcDbEntity
  8
Edge.Cuts
  6
Continuous
100
AcDbLine
 10
10.955224
 20
12.263662
 30
0.0
 11
10.896435
 21
12.495814
 31
0.0
  0
LINE
  5
5D1
330
1D
100
AcDbEntity
  8
Edge.Cuts
  6
Continuous
100
AcDbLine
 10
10.975
 20
12.025
 30
0.0
 11
10.955224
 21
12.263662
 31
0.0
  0
LINE
  5
5D2
330
1D
100
AcDbEntity
  8
Edge.Cuts
  6
Continuous
100
AcDbLine
 10
10.955224
 20
11.786338
 30
0.0
 11
10.975
 21
12.025
 31
0.0
  0
LINE
  5
5D3
330
1D
100
AcDbEntity
  8
Edge.Cuts
  6
Continuous
100
AcDbLine
 10
10.896435
 20
11.554186
 30
0.0
 11
10.955224
 21
11.786338
 31
0.0
  0
LINE
  5
5D4
330
1D
100
AcDbEntity
  8
Edge.Cuts
  6
Continuous
100
AcDbLine
 10
10.800237
 20
11.334876
 30
0.0
 11
10.896435
 21
11.554186
 31
0.0
  0
LINE
  5
5D5
330
1D
100
AcDbEntity
  8
Edge.Cuts
  6
Continuous
100
AcDbLine
 10
10.669254
 20
11.134392
 30
0.0
 11
10.800237
 21
11.334876
 31
0.0
  0
LINE
  5
5D6
330
1D
100
AcDbEntity
  8
Edge.Cuts
  6
Continuous
100
AcDbLine
 10
10.507058
 20
10.9582
 30
0.0
 11
10.669254
 21
11.134392
 31
0.0
  0
LINE
  5
5D7
330
1D
100
AcDbEntity
  8
Edge.Cuts
  6
Continuous
100
AcDbLine
 10
10.318075
 20
10.811109
 30
0.0
 11
10.507058
 21
10.9582
 31
0.0
  0
LINE
  5
5D8
330
1D
100
AcDbEntity
  8
Edge.Cuts
  6
Continuous
100
AcDbLine
 10
10.107458
 20
10.697129
 30
0.0
 11
10.318075
 21
10.811109
 31
0.0
  0
LINE
  5
5D9
330
1D
100
AcDbEntity
  8
Edge.Cuts
  6
Continuous
100
AcDbLine
 10
9.880954
 20
10.61937
 30
0.0
 11
10.107458
 21
10.697129
 31
0.0
  0
LINE
  5
5DA
330
1D
100
AcDbEntity
  8
Edge.Cuts
  6
Continuous
100
AcDbLine
 10
9.644739999999999
 20
10.579952
 30
0.0
 11
9.880954
 21
10.61937
 31
0.0
  0
LINE
  5
5DB
330
1D
100
AcDbEntity
  8
Edge.Cuts
  6
Continuous
100
AcDbLine
 10
9.40526
 20
10.579952
 30
0.0
 11
9.644739999999999
 21
10.579952
 31
0.0
  0
LINE
  5
5DC
330
1D
100
AcDbEntity
  8
Edge.Cuts
  6
Continuous
100
AcDbLine
 10
9.169046
 20
10.61937
 30
0.0
 11
9.40526
 21
10.579952
 31
0.0
  0
LINE
  5
5DD
330
1D
100
AcDbEntity
  8
Edge.Cuts
  6
Continuous
100
AcDbLine
 10
8.942542
 20
10.697129
 30
0.0
 11
9.169046
 21
10.61937
 31
0.0
  0
LINE
  5
5DE
330
1D
100
AcDbEntity
  8
Edge.Cuts
  6
Continuous
100
AcDbLine
 10
8.731925
 20
10.811109
 30
0.0
 11
8.942542
 21
10.697129
 31
0.0
  0
LINE
  5
5DF
330
1D
100
AcDbEntity
  8
Edge.Cuts
  6
Continuous
100
AcDbLine
 10
8.542942
 20
10.9582
 30
0.0
 11
8.731925
 21
10.811109
 31
0.0
  0
LINE
  5
5E0
330
1D
100
AcDbEntity
  8
Edge.Cuts
  6
Continuous
100
AcDbLine
 10
8.380746
 20
11.134392
 30
0.0
 11
8.542942
 21
10.9582
 31
0.0
  0
LINE
  5
5E1
330
1D
100
AcDbEntity
  8
Edge.Cuts
  6
Continuous
100
AcDbLine
 10
8.249763
 20
11.334876
 30
0.0
 11
8.380746
 21
11.134392
 31
0.0
  0
LINE
  5
5E2
330
1D
100
AcDbEntity
  8
Edge.Cuts
  6
Continuous
100
AcDbLine
 10
8.153565
 20
11.554186
 30
0.0
 11
8.249763
 21
11.334876
 31
0.0
  0
LINE
  5
5E3
330
1D
100
AcDbEntity
  8
Edge.Cuts
  6
Continuous
100
AcDbLine
 10
8.094776
 20
11.786338
 30
0.0
 11
8.153565
 21
11.554186
 31
0.0
  0
LINE
  5
5E4
330
1D
100
AcDbEntity
  8
Edge.Cuts
  6
Continuous
100
AcDbLine
 10
8.075
 20
12.025
 30
0.0
 11
8.094776
 21
11.786338
 31
0.0
  0
LINE
  5
5E5
330
1D
100
AcDbEntity
  8
Edge.Cuts
  6
Continuous
100
AcDbLine
 10
8.094776
 20
12.263662
 30
0.0
 11
8.075
 21
12.025
 31
0.0
  0
LINE
  5
5E6
330
1D
100
AcDbEntity
  8
Edge.Cuts
  6
Continuous
100
AcDbLine
 10
8.153565
 20
12.495814
 30
0.0
 11
8.094776
 21
12.263662
 31
0.0
  0
LINE
  5
5E7
330
1D
100
AcDbEntity
  8
Edge.Cuts
  6
Continuous
100
AcDbLine
 10
8.249763
 20
12.715124
 30
0.0
 11
8.153565
 21
12.495814
 31
0.0
  0
LINE
  5
5E8
330
1D
100
AcDbEntity
  8
Edge.Cuts
  6
Continuous
100
AcDbLine
 10
8.380746
 20
12.915608
 30
0.0
 11
8.249763
 21
12.715124
 31
0.0
  0
LINE
  5
5E9
330
1D
100
AcDbEntity
  8
Edge.Cuts
  6
Continuous
100
AcDbLine
 10
8.542942
 20
13.0918
 30
0.0
 11
8.380746
 21
12.915608
 31
0.0
  0
LINE
  5
5EA
330
1D
100
AcDbEntity
  8
Edge.Cuts
  6
Continuous
100
AcDbLine
 10
8.731925
 20
13.238891
 30
0.0
 11
8.542942
 21
13.0918
 31
0.0
  0
LINE
  5
5EB
330
1D
100
AcDbEntity
  8
Edge.Cuts
  6
Continuous
100
AcDbLine
 10
8.942542
 20
13.352871
 30
0.0
 11
8.731925
 21
13.238891
 31
0.0
  0
LINE
  5
5EC
330
1D
100
AcDbEntity
  8
Edge.Cuts
  6
Continuous
100
AcDbLine
 10
9.169046
 20
13.43063
 30
0.0
 11
8.942542
 21
13.352871
 31
0.0
  0
LINE
  5
5ED
330
1D
100
AcDbEntity
  8
Edge.Cuts
  6
Continuous
100
AcDbLine
 10
9.40526
 20
13.470048
 30
0.0
 11
9.169046
 21
13.43063
 31
0.0
  0
LINE
  5
5EE
330
1D
100
AcDbEntity
  8
Edge.Cuts
  6
Continuous
100
AcDbLine
 10
91.594742
 20
13.470048
 30
0.0
 11
91.355262
 21
13.470048
 31
0.0
  0
LINE
  5
5EF
330
1D
100
AcDbEntity
  8
Edge.Cuts
  6
Continuous
100
AcDbLine
 10
91.830956
 20
13.43063
 30
0.0
 11
91.594742
 21
13.470048
 31
0.0
  0
LINE
  5
5F0
330
1D
100
AcDbEntity
  8
Edge.Cuts
  6
Continuous
100
AcDbLine
 10
92.05745999999999
 20
13.352871
 30
0.0
 11
91.830956
 21
13.43063
 31
0.0
  0
LINE
  5
5F1
330
1D
100
AcDbEntity
  8
Edge.Cuts
  6
Continuous
100
AcDbLine
 10
92.26807699999999
 20
13.238891
 30
0.0
 11
92.05745999999999
 21
13.352871
 31
0.0
  0
LINE
  5
5F2
330
1D
100
AcDbEntity
  8
Edge.Cuts
  6
Continuous
100
AcDbLine
 10
92.45706
 20
13.0918
 30
0.0
 11
92.26807699999999
 21
13.238891
 31
0.0
  0
LINE
  5
5F3
330
1D
100
AcDbEntity
  8
Edge.Cuts
  6
Continuous
100
AcDbLine
 10
92.619256
 20
12.915608
 30
0.0
 11
92.45706
 21
13.0918
 31
0.0
  0
LINE
  5
5F4
330
1D
100
AcDbEntity
  8
Edge.Cuts
  6
Continuous
100
AcDbLine
 10
92.750239
 20
12.715124
 30
0.0
 11
92.619256
 21
12.915608
 31
0.0
  0
LINE
  5
5F5
330
1D
100
AcDbEntity
  8
Edge.Cuts
  6
Continuous
100
AcDbLine
 10
92.846437
 20
12.495814
 30
0.0
 11
92.750239
 21
12.715124
 31
0.0
  0
LINE
  5
5F6
330
1D
100
AcDbEntity
  8
Edge.Cuts
  6
Continuous
100
AcDbLine
 10
92.905226
 20
12.263662
 30
0.0
 11
92.846437
 21
12.495814
 31
0.0
  0
LINE
  5
5F7
330
1D
100
AcDbEntity
  8
Edge.Cuts
  6
Continuous
100
AcDbLine
 10
92.92500199999999
 20
12.025
 30
0.0
 11
92.905226
 21
12.263662
 31
0.0
  0
LINE
  5
5F8
330
1D
100
AcDbEntity
  8
Edge.Cuts
  6
Continuous
100
AcDbLine
 10
92.905226
 20
11.786338
 30
0.0
 11
92.92500199999999
 21
12.025
 31
0.0
  0
LINE
  5
5F9
330
1D
100
AcDbEntity
  8
Edge.Cuts
  6
Continuous
100
AcDbLine
 10
92.846437
 20
11.554186
 30
0.0
 11
92.905226
 21
11.786338
 31
0.0
  0
LINE
  5
5FA
330
1D
100
AcDbEntity
  8
Edge.Cuts
  6
Continuous
100
AcDbLine
 10
92.750239
 20
11.334876
 30
0.0
 11
92.846437
 21
11.554186
 31
0.0
  0
LINE
  5
5FB
330
1D
100
AcDbEntity
  8
Edge.Cuts
  6
Continuous
100
AcDbLine
 10
92.619256
 20
11.134392
 30
0.0
 11
92.750239
 21
11.334876
 31
0.0
  0
LINE
  5
5FC
330
1D
100
AcDbEntity
  8
Edge.Cuts
  6
Continuous
100
AcDbLine
 10
92.45706
 20
10.9582
 30
0.0
 11
92.619256
 21
11.134392
 31
0.0
  0
LINE
  5
5FD
330
1D
100
AcDbEntity
  8
Edge.Cuts
  6
Continuous
100
AcDbLine
 10
92.26807699999999
 20
10.811109
 30
0.0
 11
92.45706
 21
10.9582
 31
0.0
  0
LINE
  5
5FE
330
1D
100
AcDbEntity
  8
Edge.Cuts
  6
Continuous
100
AcDbLine
 10
92.05745999999999
 20
10.697129
 30
0.0
 11
92.26807699999999
 21
10.811109
 31
0.0
  0
LINE
  5
5FF
330
1D
100
AcDbEntity
  8
Edge.Cuts
  6
Continuous
100
AcDbLine
 10
91.830956
 20
10.61937
 30
0.0
 11
92.05745999999999
 21
10.697129
 31
0.0
  0
LINE
  5
600
330
1D
100
AcDbEntity
  8
Edge.Cuts
  6
Continuous
100
AcDbLine
 10
91.594742
 20
10.579952
 30
0.0
 11
91.830956
 21
10.61937
 31
0.0
  0
LINE
  5
601
330
1D
100
AcDbEntity
  8
Edge.Cuts
  6
Continuous
100
AcDbLine
 10
91.355262
 20
10.579952
 30
0.0
 11
91.594742
 21
10.579952
 31
0.0
  0
LINE
  5
602
330
1D
100
AcDbEntity
  8
Edge.Cuts
  6
Continuous
100
AcDbLine
 10
91.11904799999999
 20
10.61937
 30
0.0
 11
91.355262
 21
10.579952
 31
0.0
  0
LINE
  5
603
330
1D
100
AcDbEntity
  8
Edge.Cuts
  6
Continuous
100
AcDbLine
 10
90.892544
 20
10.697129
 30
0.0
 11
91.11904799999999
 21
10.61937
 31
0.0
  0
LINE
  5
604
330
1D
100
AcDbEntity
  8
Edge.Cuts
  6
Continuous
100
AcDbLine
 10
90.681927
 20
10.811109
 30
0.0
 11
90.892544
 21
10.697129
 31
0.0
  0
LINE
  5
605
330
1D
100
AcDbEntity
  8
Edge.Cuts
  6
Continuous
100
AcDbLine
 10
90.492944
 20
10.9582
 30
0.0
 11
90.681927
 21
10.811109
 31
0.0
  0
LINE
  5
606
330
1D
100
AcDbEntity
  8
Edge.Cuts
  6
Continuous
100
AcDbLine
 10
90.330748
 20
11.134392
 30
0.0
 11
90.492944
 21
10.9582
 31
0.0
  0
LINE
  5
607
330
1D
100
AcDbEntity
  8
Edge.Cuts
  6
Continuous
100
AcDbLine
 10
90.199765
 20
11.334876
 30
0.0
 11
90.330748
 21
11.134392
 31
0.0
  0
LINE
  5
608
330
1D
100
AcDbEntity
  8
Edge.Cuts
  6
Continuous
100
AcDbLine
 10
90.103567
 20
11.554186
 30
0.0
 11
90.199765
 21
11.334876
 31
0.0
  0
LINE
  5
609
330
1D
100
AcDbEntity
  8
Edge.Cuts
  6
Continuous
100
AcDbLine
 10
90.044778
 20
11.786338
 30
0.0
 11
90.103567
 21
11.554186
 31
0.0
  0
LINE
  5
60A
330
1D
100
AcDbEntity
  8
Edge.Cuts
  6
Continuous
100
AcDbLine
 10
90.025002
 20
12.025
 30
0.0
 11
90.044778
 21
11.786338
 31
0.0
  0
LINE
  5
60B
330
1D
100
AcDbEntity
  8
Edge.Cuts
  6
Continuous
100
AcDbLine
 10
90.044778
 20
12.263662
 30
0.0
 11
90.025002
 21
12.025
 31
0.0
  0
LINE
  5
60C
330
1D
100
AcDbEntity
  8
Edge.Cuts
  6
Continuous
100
AcDbLine
 10
90.103567
 20
12.495814
 30
0.0
 11
90.044778
 21
12.263662
 31
0.0
  0
LINE
  5
60D
330
1D
100
AcDbEntity
  8
Edge.Cuts
  6
Continuous
100
AcDbLine
 10
90.199765
 20
12.715124
 30
0.0
 11
90.103567
 21
12.495814
 31
0.0
  0
LINE
  5
60E
330
1D
100
AcDbEntity
  8
Edge.Cuts
  6
Continuous
100
AcDbLine
 10
90.330748
 20
12.915608
 30
0.0
 11
90.199765
 21
12.715124
 31
0.0
  0
LINE
  5
60F
330
1D
100
AcDbEntity
  8
Edge.Cuts
  6
Continuous
100
AcDbLine
 10
90.492944
 20
13.0918
 30
0.0
 11
90.330748
 21
12.915608
 31
0.0
  0
LINE
  5
610
330
1D
100
AcDbEntity
  8
Edge.Cuts
  6
Continuous
100
AcDbLine
 10
90.681927
 20
13.238891
 30
0.0
 11
90.492944
 21
13.0918
 31
0.0
  0
LINE
  5
611
330
1D
100
AcDbEntity
  8
Edge.Cuts
  6
Continuous
100
AcDbLine
 10
90.892544
 20
13.352871
 30
0.0
 11
90.681927
 21
13.238891
 31
0.0
  0
LINE
  5
612
330
1D
100
AcDbEntity
  8
Edge.Cuts
  6
Continuous
100
AcDbLine
 10
91.11904799999999
 20
13.43063
 30
0.0
 11
90.892544
 21
13.352871
 31
0.0
  0
LINE
  5
613
330
1D
100
AcDbEntity
  8
Edge.Cuts
  6
Continuous
100
AcDbLine
 10
91.355262
 20
13.470048
 30
0.0
 11
91.11904799999999
 21
13.43063
 31
0.0
  0
LINE
  5
614
330
1D
100
AcDbEntity
  8
Edge.Cuts
  6
Continuous
100
AcDbLine
 10
175.29474
 20
13.470048
 30
0.0
 11
175.05526
 21
13.470048
 31
0.0
  0
LINE
  5
615
330
1D
100
AcDbEntity
  8
Edge.Cuts
  6
Continuous
100
AcDbLine
 10
175.530954
 20
13.43063
 30
0.0
 11
175.29474
 21
13.470048
 31
0.0
  0
LINE
  5
616
330
1D
100
AcDbEntity
  8
Edge.Cuts
  6
Continuous
100
AcDbLine
 10
175.757458
 20
13.352871
 30
0.0
 11
175.530954
 21
13.43063
 31
0.0
  0
LINE
  5
617
330
1D
100
AcDbEntity
  8
Edge.Cuts
  6
Continuous
100
AcDbLine
 10
175.968075
 20
13.238891
 30
0.0
 11
175.757458
 21
13.352871
 31
0.0
  0
LINE
  5
618
330
1D
100
AcDbEntity
  8
Edge.Cuts
  6
Continuous
100
AcDbLine
 10
176.157058
 20
13.0918
 30
0.0
 11
175.968075
 21
13.238891
 31
0.0
  0
LINE
  5
619
330
1D
100
AcDbEntity
  8
Edge.Cuts
  6
Continuous
100
AcDbLine
 10
176.319254
 20
12.915608
 30
0.0
 11
176.157058
 21
13.0918
 31
0.0
  0
LINE
  5
61A
330
1D
100
AcDbEntity
  8
Edge.Cuts
  6
Continuous
100
AcDbLine
 10
176.450237
 20
12.715124
 30
0.0
 11
176.319254
 21
12.915608
 31
0.0
  0
LINE
  5
61B
330
1D
100
AcDbEntity
  8
Edge.Cuts
  6
Continuous
100
AcDbLine
 10
176.546435
 20
12.495814
 30
0.0
 11
176.450237
 21
12.715124
 31
0.0
  0
LINE
  5
61C
330
1D
100
AcDbEntity
  8
Edge.Cuts
  6
Continuous
100
AcDbLine
 10
176.605224
 20
12.263662
 30
0.0
 11
176.546435
 21
12.495814
 31
0.0
  0
LINE
  5
61D
330
1D
100
AcDbEntity
  8
Edge.Cuts
  6
Continuous
100
AcDbLine
 10
176.625
 20
12.025
 30
0.0
 11
176.605224
 21
12.263662
 31
0.0
  0
LINE
  5
61E
330
1D
100
AcDbEntity
  8
Edge.Cuts
  6
Continuous
100
AcDbLine
 10
176.605224
 20
11.786338
 30
0.0
 11
176.625
 21
12.025
 31
0.0
  0
LINE
  5
61F
330
1D
100
AcDbEntity
  8
Edge.Cuts
  6
Continuous
100
AcDbLine
 10
176.546435
 20
11.554186
 30
0.0
 11
176.605224
 21
11.786338
 31
0.0
  0
LINE
  5
620
330
1D
100
AcDbEntity
  8
Edge.Cuts
  6
Continuous
100
AcDbLine
 10
176.450237
 20
11.334876
 30
0.0
 11
176.546435
 21
11.554186
 31
0.0
  0
LINE
  5
621
330
1D
100
AcDbEntity
  8
Edge.Cuts
  6
Continuous
100
AcDbLine
 10
176.319254
 20
11.134392
 30
0.0
 11
176.450237
 21
11.334876
 31
0.0
  0
LINE
  5
622
330
1D
100
AcDbEntity
  8
Edge.Cuts
  6
Continuous
100
AcDbLine
 10
176.157058
 20
10.9582
 30
0.0
 11
176.319254
 21
11.134392
 31
0.0
  0
LINE
  5
623
330
1D
100
AcDbEntity
  8
Edge.Cuts
  6
Continuous
100
AcDbLine
 10
175.968075
 20
10.811109
 30
0.0
 11
176.157058
 21
10.9582
 31
0.0
  0
LINE
  5
624
330
1D
100
AcDbEntity
  8
Edge.Cuts
  6
Continuous
100
AcDbLine
 10
175.757458
 20
10.697129
 30
0.0
 11
175.968075
 21
10.811109
 31
0.0
  0
LINE
  5
625
330
1D
100
AcDbEntity
  8
Edge.Cuts
  6
Continuous
100
AcDbLine
 10
175.530954
 20
10.61937
 30
0.0
 11
175.757458
 21
10.697129
 31
0.0
  0
LINE
  5
626
330
1D
100
AcDbEntity
  8
Edge.Cuts
  6
Continuous
100
AcDbLine
 10
175.29474
 20
10.579952
 30
0.0
 11
175.530954
 21
10.61937
 31
0.0
  0
LINE
  5
627
330
1D
100
AcDbEntity
  8
Edge.Cuts
  6
Continuous
100
AcDbLine
 10
175.05526
 20
10.579952
 30
0.0
 11
175.29474
 21
10.579952
 31
0.0
  0
LINE
  5
628
330
1D
100
AcDbEntity
  8
Edge.Cuts
  6
Continuous
100
AcDbLine
 10
174.819046
 20
10.61937
 30
0.0
 11
175.05526
 21
10.579952
 31
0.0
  0
LINE
  5
629
330
1D
100
AcDbEntity
  8
Edge.Cuts
  6
Continuous
100
AcDbLine
 10
174.592542
 20
10.697129
 30
0.0
 11
174.819046
 21
10.61937
 31
0.0
  0
LINE
  5
62A
330
1D
100
AcDbEntity
  8
Edge.Cuts
  6
Continuous
100
AcDbLine
 10
174.381925
 20
10.811109
 30
0.0
 11
174.592542
 21
10.697129
 31
0.0
  0
LINE
  5
62B
330
1D
100
AcDbEntity
  8
Edge.Cuts
  6
Continuous
100
AcDbLine
 10
174.192942
 20
10.9582
 30
0.0
 11
174.381925
 21
10.811109
 31
0.0
  0
LINE
  5
62C
330
1D
100
AcDbEntity
  8
Edge.Cuts
  6
Continuous
100
AcDbLine
 10
174.030746
 20
11.134392
 30
0.0
 11
174.192942
 21
10.9582
 31
0.0
  0
LINE
  5
62D
330
1D
100
AcDbEntity
  8
Edge.Cuts
  6
Continuous
100
AcDbLine
 10
173.899763
 20
11.334876
 30
0.0
 11
174.030746
 21
11.134392
 31
0.0
  0
LINE
  5
62E
330
1D
100
AcDbEntity
  8
Edge.Cuts
  6
Continuous
100
AcDbLine
 10
173.803565
 20
11.554186
 30
0.0
 11
173.899763
 21
11.334876
 31
0.0
  0
LINE
  5
62F
330
1D
100
AcDbEntity
  8
Edge.Cuts
  6
Continuous
100
AcDbLine
 10
173.744776
 20
11.786338
 30
0.0
 11
173.803565
 21
11.554186
 31
0.0
  0
LINE
  5
630
330
1D
100
AcDbEntity
  8
Edge.Cuts
  6
Continuous
100
AcDbLine
 10
173.725
 20
12.025
 30
0.0
 11
173.744776
 21
11.786338
 31
0.0
  0
LINE
  5
631
330
1D
100
AcDbEntity
  8
Edge.Cuts
  6
Continuous
100
AcDbLine
 10
173.744776
 20
12.263662
 30
0.0
 11
173.725
 21
12.025
 31
0.0
  0
LINE
  5
632
330
1D
100
AcDbEntity
  8
Edge.Cuts
  6
Continuous
100
AcDbLine
 10
173.803565
 20
12.495814
 30
0.0
 11
173.744776
 21
12.263662
 31
0.0
  0
LINE
  5
633
330
1D
100
AcDbEntity
  8
Edge.Cuts
  6
Continuous
100
AcDbLine
 10
173.899763
 20
12.715124
 30
0.0
 11
173.803565
 21
12.495814
 31
0.0
  0
LINE
  5
634
330
1D
100
AcDbEntity
  8
Edge.Cuts
  6
Continuous
100
AcDbLine
 10
174.030746
 20
12.915608
 30
0.0
 11
173.899763
 21
12.715124
 31
0.0
  0
LINE
  5
635
330
1D
100
AcDbEntity
  8
Edge.Cuts
  6
Continuous
100
AcDbLine
 10
174.192942
 20
13.0918
 30
0.0
 11
174.030746
 21
12.915608
 31
0.0
  0
LINE
  5
636
330
1D
100
AcDbEntity
  8
Edge.Cuts
  6
Continuous
100
AcDbLine
 10
174.381925
 20
13.238891
 30
0.0
 11
174.192942
 21
13.0918
 31
0.0
  0
LINE
  5
637
330
1D
100
AcDbEntity
  8
Edge.Cuts
  6
Continuous
100
AcDbLine
 10
174.592542
 20
13.352871
 30
0.0
 11
174.381925
 21
13.238891
 31
0.0
  0
LINE
  5
638
330
1D
100
AcDbEntity
  8
Edge.Cuts
  6
Continuous
100
AcDbLine
 10
174.819046
 20
13.43063
 30
0.0
 11
174.592542
 21
13.352871
 31
0.0
  0
LINE
  5
639
330
1D
100
AcDbEntity
  8
Edge.Cuts
  6
Continuous
100
AcDbLine
 10
175.05526
 20
13.470048
 30
0.0
 11
174.819046
 21
13.43063
 31
0.0
  0
LINE
  5
63A
330
1D
100
AcDbEntity
  8
Edge.Cuts
  6
Continuous
100
AcDbLine
 10
257.29474
 20
13.470048
 30
0.0
 11
257.05526
 21
13.470048
 31
0.0
  0
LINE
  5
63B
330
1D
100
AcDbEntity
  8
Edge.Cuts
  6
Continuous
100
AcDbLine
 10
257.530954
 20
13.43063
 30
0.0
 11
257.29474
 21
13.470048
 31
0.0
  0
LINE
  5
63C
330
1D
100
AcDbEntity
  8
Edge.Cuts
  6
Continuous
100
AcDbLine
 10
257.757458
 20
13.352871
 30
0.0
 11
257.530954
 21
13.43063
 31
0.0
  0
LINE
  5
63D
330
1D
100
AcDbEntity
  8
Edge.Cuts
  6
Continuous
100
AcDbLine
 10
257.968075
 20
13.238891
 30
0.0
 11
257.757458
 21
13.352871
 31
0.0
  0
LINE
  5
63E
330
1D
100
AcDbEntity
  8
Edge.Cuts
  6
Continuous
100
AcDbLine
 10
258.157058
 20
13.0918
 30
0.0
 11
257.968075
 21
13.238891
 31
0.0
  0
LINE
  5
63F
330
1D
100
AcDbEntity
  8
Edge.Cuts
  6
Continuous
100
AcDbLine
 10
258.319254
 20
12.915608
 30
0.0
 11
258.157058
 21
13.0918
 31
0.0
  0
LINE
  5
640
330
1D
100
AcDbEntity
  8
Edge.Cuts
  6
Continuous
100
AcDbLine
 10
258.450237
 20
12.715124
 30
0.0
 11
258.319254
 21
12.915608
 31
0.0
  0
LINE
  5
641
330
1D
100
AcDbEntity
  8
Edge.Cuts
  6
Continuous
100
AcDbLine
 10
258.546435
 20
12.495814
 30
0.0
 11
258.450237
 21
12.715124
 31
0.0
  0
LINE
  5
642
330
1D
100
AcDbEntity
  8
Edge.Cuts
  6
Continuous
100
AcDbLine
 10
258.605224
 20
12.263662
 30
0.0
 11
258.546435
 21
12.495814
 31
0.0
  0
LINE
  5
643
330
1D
100
AcDbEntity
  8
Edge.Cuts
  6
Continuous
100
AcDbLine
 10
258.625
 20
12.025
 30
0.0
 11
258.605224
 21
12.263662
 31
0.0
  0
LINE
  5
644
330
1D
100
AcDbEntity
  8
Edge.Cuts
  6
Continuous
100
AcDbLine
 10
258.605224
 20
11.786338
 30
0.0
 11
258.625
 21
12.025
 31
0.0
  0
LINE
  5
645
330
1D
100
AcDbEntity
  8
Edge.Cuts
  6
Continuous
100
AcDbLine
 10
258.546435
 20
11.554186
 30
0.0
 11
258.605224
 21
11.786338
 31
0.0
  0
LINE
  5
646
330
1D
100
AcDbEntity
  8
Edge.Cuts
  6
Continuous
100
AcDbLine
 10
258.450237
 20
11.334876
 30
0.0
 11
258.546435
 21
11.554186
 31
0.0
  0
LINE
  5
647
330
1D
100
AcDbEntity
  8
Edge.Cuts
  6
Continuous
100
AcDbLine
 10
258.319254
 20
11.134392
 30
0.0
 11
258.450237
 21
11.334876
 31
0.0
  0
LINE
  5
648
330
1D
100
AcDbEntity
  8
Edge.Cuts
  6
Continuous
100
AcDbLine
 10
258.157058
 20
10.9582
 30
0.0
 11
258.319254
 21
11.134392
 31
0.0
  0
LINE
  5
649
330
1D
100
AcDbEntity
  8
Edge.Cuts
  6
Continuous
100
AcDbLine
 10
257.968075
 20
10.811109
 30
0.0
 11
258.157058
 21
10.9582
 31
0.0
  0
LINE
  5
64A
330
1D
100
AcDbEntity
  8
Edge.Cuts
  6
Continuous
100
AcDbLine
 10
257.757458
 20
10.697129
 30
0.0
 11
257.968075
 21
10.811109
 31
0.0
  0
LINE
  5
64B
330
1D
100
AcDbEntity
  8
Edge.Cuts
  6
Continuous
100
AcDbLine
 10
257.530954
 20
10.61937
 30
0.0
 11
257.757458
 21
10.697129
 31
0.0
  0
LINE
  5
64C
330
1D
100
AcDbEntity
  8
Edge.Cuts
  6
Continuous
100
AcDbLine
 10
257.29474
 20
10.579952
 30
0.0
 11
257.530954
 21
10.61937
 31
0.0
  0
LINE
  5
64D
330
1D
100
AcDbEntity
  8
Edge.Cuts
  6
Continuous
100
AcDbLine
 10
257.05526
 20
10.579952
 30
0.0
 11
257.29474
 21
10.579952
 31
0.0
  0
LINE
  5
64E
330
1D
100
AcDbEntity
  8
Edge.Cuts
  6
Continuous
100
AcDbLine
 10
256.819046
 20
10.61937
 30
0.0
 11
257.05526
 21
10.579952
 31
0.0
  0
LINE
  5
64F
330
1D
100
AcDbEntity
  8
Edge.Cuts
  6
Continuous
100
AcDbLine
 10
256.592542
 20
10.697129
 30
0.0
 11
256.819046
 21
10.61937
 31
0.0
  0
LINE
  5
650
330
1D
100
AcDbEntity
  8
Edge.Cuts
  6
Continuous
100
AcDbLine
 10
256.381925
 20
10.811109
 30
0.0
 11
256.592542
 21
10.697129
 31
0.0
  0
LINE
  5
651
330
1D
100
AcDbEntity
  8
Edge.Cuts
  6
Continuous
100
AcDbLine
 10
256.192942
 20
10.9582
 30
0.0
 11
256.381925
 21
10.811109
 31
0.0
  0
LINE
  5
652
330
1D
100
AcDbEntity
  8
Edge.Cuts
  6
Continuous
100
AcDbLine
 10
256.030746
 20
11.134392
 30
0.0
 11
256.192942
 21
10.9582
 31
0.0
  0
LINE
  5
653
330
1D
100
AcDbEntity
  8
Edge.Cuts
  6
Continuous
100
AcDbLine
 10
255.899763
 20
11.334876
 30
0.0
 11
256.030746
 21
11.134392
 31
0.0
  0
LINE
  5
654
330
1D
100
AcDbEntity
  8
Edge.Cuts
  6
Continuous
100
AcDbLine
 10
255.803565
 20
11.554186
 30
0.0
 11
255.899763
 21
11.334876
 31
0.0
  0
LINE
  5
655
330
1D
100
AcDbEntity
  8
Edge.Cuts
  6
Continuous
100
AcDbLine
 10
255.744776
 20
11.786338
 30
0.0
 11
255.803565
 21
11.554186
 31
0.0
  0
LINE
  5
656
330
1D
100
AcDbEntity
  8
Edge.Cuts
  6
Continuous
100
AcDbLine
 10
255.725
 20
12.025
 30
0.0
 11
255.744776
 21
11.786338
 31
0.0
  0
LINE
  5
657
330
1D
100
AcDbEntity
  8
Edge.Cuts
  6
Continuous
100
AcDbLine
 10
255.744776
 20
12.263662
 30
0.0
 11
255.725
 21
12.025
 31
0.0
  0
LINE
  5
658
330
1D
100
AcDbEntity
  8
Edge.Cuts
  6
Continuous
100
AcDbLine
 10
255.803565
 20
12.495814
 30
0.0
 11
255.744776
 21
12.263662
 31
0.0
  0
LINE
  5
659
330
1D
100
AcDbEntity
  8
Edge.Cuts
  6
Continuous
100
AcDbLine
 10
255.899763
 20
12.715124
 30
0.0
 11
255.803565
 21
12.495814
 31
0.0
  0
LINE
  5
65A
330
1D
100
AcDbEntity
  8
Edge.Cuts
  6
Continuous
100
AcDbLine
 10
256.030746
 20
12.915608
 30
0.0
 11
255.899763
 21
12.715124
 31
0.0
  0
LINE
  5
65B
330
1D
100
AcDbEntity
  8
Edge.Cuts
  6
Continuous
100
AcDbLine
 10
256.192942
 20
13.0918
 30
0.0
 11
256.030746
 21
12.915608
 31
0.0
  0
LINE
  5
65C
330
1D
100
AcDbEntity
  8
Edge.Cuts
  6
Continuous
100
AcDbLine
 10
256.381925
 20
13.238891
 30
0.0
 11
256.192942
 21
13.0918
 31
0.0
  0
LINE
  5
65D
330
1D
100
AcDbEntity
  8
Edge.Cuts
  6
Continuous
100
AcDbLine
 10
256.592542
 20
13.352871
 30
0.0
 11
256.381925
 21
13.238891
 31
0.0
  0
LINE
  5
65E
330
1D
100
AcDbEntity
  8
Edge.Cuts
  6
Continuous
100
AcDbLine
 10
256.819046
 20
13.43063
 30
0.0
 11
256.592542
 21
13.352871
 31
0.0
  0
LINE
  5
65F
330
1D
100
AcDbEntity
  8
Edge.Cuts
  6
Continuous
100
AcDbLine
 10
257.05526
 20
13.470048
 30
0.0
 11
256.819046
 21
13.43063
 31
0.0
  0
LINE
  5
660
330
1D
100
AcDbEntity
  8
Edge.Cuts
  6
Continuous
100
AcDbLine
 10
40.60099
 20
-86.779952
 30
0.0
 11
40.36151
 21
-86.779952
 31
0.0
  0
LINE
  5
661
330
1D
100
AcDbEntity
  8
Edge.Cuts
  6
Continuous
100
AcDbLine
 10
40.837204
 20
-86.81936999999999
 30
0.0
 11
40.60099
 21
-86.779952
 31
0.0
  0
LINE
  5
662
330
1D
100
AcDbEntity
  8
Edge.Cuts
  6
Continuous
100
AcDbLine
 10
41.063708
 20
-86.89712899999999
 30
0.0
 11
40.837204
 21
-86.81936999999999
 31
0.0
  0
LINE
  5
663
330
1D
100
AcDbEntity
  8
Edge.Cuts
  6
Continuous
100
AcDbLine
 10
41.274325
 20
-87.01110899999999
 30
0.0
 11
41.063708
 21
-86.89712899999999
 31
0.0
  0
LINE
  5
664
330
1D
100
AcDbEntity
  8
Edge.Cuts
  6
Continuous
100
AcDbLine
 10
41.463308
 20
-87.1582
 30
0.0
 11
41.274325
 21
-87.01110899999999
 31
0.0
  0
LINE
  5
665
330
1D
100
AcDbEntity
  8
Edge.Cuts
  6
Continuous
100
AcDbLine
 10
41.625504
 20
-87.334392
 30
0.0
 11
41.463308
 21
-87.1582
 31
0.0
  0
LINE
  5
666
330
1D
100
AcDbEntity
  8
Edge.Cuts
  6
Continuous
100
AcDbLine
 10
41.756487
 20
-87.534876
 30
0.0
 11
41.625504
 21
-87.334392
 31
0.0
  0
LINE
  5
667
330
1D
100
AcDbEntity
  8
Edge.Cuts
  6
Continuous
100
AcDbLine
 10
41.852685
 20
-87.75418599999999
 30
0.0
 11
41.756487
 21
-87.534876
 31
0.0
  0
LINE
  5
668
330
1D
100
AcDbEntity
  8
Edge.Cuts
  6
Continuous
100
AcDbLine
 10
41.911474
 20
-87.98633799999999
 30
0.0
 11
41.852685
 21
-87.75418599999999
 31
0.0
  0
LINE
  5
669
330
1D
100
AcDbEntity
  8
Edge.Cuts
  6
Continuous
100
AcDbLine
 10
41.93125
 20
-88.225
 30
0.0
 11
41.911474
 21
-87.98633799999999
 31
0.0
  0
LINE
  5
66A
330
1D
100
AcDbEntity
  8
Edge.Cuts
  6
Continuous
100
AcDbLine
 10
41.911474
 20
-88.463662
 30
0.0
 11
41.93125
 21
-88.225
 31
0.0
  0
LINE
  5
66B
330
1D
100
AcDbEntity
  8
Edge.Cuts
  6
Continuous
100
AcDbLine
 10
41.852685
 20
-88.695814
 30
0.0
 11
41.911474
 21
-88.463662
 31
0.0
  0
LINE
  5
66C
330
1D
100
AcDbEntity
  8
Edge.Cuts
  6
Continuous
100
AcDbLine
 10
41.756487
 20
-88.91512399999999
 30
0.0
 11
41.852685
 21
-88.695814
 31
0.0
  0
LINE
  5
66D
330
1D
100
AcDbEntity
  8
Edge.Cuts
  6
Continuous
100
AcDbLine
 10
41.625504
 20
-89.115608
 30
0.0
 11
41.756487
 21
-88.91512399999999
 31
0.0
  0
LINE
  5
66E
330
1D
100
AcDbEntity
  8
Edge.Cuts
  6
Continuous
100
AcDbLine
 10
41.463308
 20
-89.2918
 30
0.0
 11
41.625504
 21
-89.115608
 31
0.0
  0
LINE
  5
66F
330
1D
100
AcDbEntity
  8
Edge.Cuts
  6
Continuous
100
AcDbLine
 10
41.274325
 20
-89.438891
 30
0.0
 11
41.463308
 21
-89.2918
 31
0.0
  0
LINE
  5
670
330
1D
100
AcDbEntity
  8
Edge.Cuts
  6
Continuous
100
AcDbLine
 10
41.063708
 20
-89.552871
 30
0.0
 11
41.274325
 21
-89.438891
 31
0.0
  0
LINE
  5
671
330
1D
100
AcDbEntity
  8
Edge.Cuts
  6
Continuous
100
AcDbLine
 10
40.837204
 20
-89.63063
 30
0.0
 11
41.063708
 21
-89.552871
 31
0.0
  0
LINE
  5
672
330
1D
100
AcDbEntity
  8
Edge.Cuts
  6
Continuous
100
AcDbLine
 10
40.60099
 20
-89.670048
 30
0.0
 11
40.837204
 21
-89.63063
 31
0.0
  0
LINE
  5
673
330
1D
100
AcDbEntity
  8
Edge.Cuts
  6
Continuous
100
AcDbLine
 10
40.36151
 20
-89.670048
 30
0.0
 11
40.60099
 21
-89.670048
 31
0.0
  0
LINE
  5
674
330
1D
100
AcDbEntity
  8
Edge.Cuts
  6
Continuous
100
AcDbLine
 10
40.125296
 20
-89.63063
 30
0.0
 11
40.36151
 21
-89.670048
 31
0.0
  0
LINE
  5
675
330
1D
100
AcDbEntity
  8
Edge.Cuts
  6
Continuous
100
AcDbLine
 10
39.898792
 20
-89.552871
 30
0.0
 11
40.125296
 21
-89.63063
 31
0.0
  0
LINE
  5
676
330
1D
100
AcDbEntity
  8
Edge.Cuts
  6
Continuous
100
AcDbLine
 10
39.688175
 20
-89.438891
 30
0.0
 11
39.898792
 21
-89.552871
 31
0.0
  0
LINE
  5
677
330
1D
100
AcDbEntity
  8
Edge.Cuts
  6
Continuous
100
AcDbLine
 10
39.499192
 20
-89.2918
 30
0.0
 11
39.688175
 21
-89.438891
 31
0.0
  0
LINE
  5
678
330
1D
100
AcDbEntity
  8
Edge.Cuts
  6
Continuous
100
AcDbLine
 10
39.336996
 20
-89.115608
 30
0.0
 11
39.499192
 21
-89.2918
 31
0.0
  0
LINE
  5
679
330
1D
100
AcDbEntity
  8
Edge.Cuts
  6
Continuous
100
AcDbLine
 10
39.206013
 20
-88.91512399999999
 30
0.0
 11
39.336996
 21
-89.115608
 31
0.0
  0
LINE
  5
67A
330
1D
100
AcDbEntity
  8
Edge.Cuts
  6
Continuous
100
AcDbLine
 10
39.109815
 20
-88.695814
 30
0.0
 11
39.206013
 21
-88.91512399999999
 31
0.0
  0
LINE
  5
67B
330
1D
100
AcDbEntity
  8
Edge.Cuts
  6
Continuous
100
AcDbLine
 10
39.051026
 20
-88.463662
 30
0.0
 11
39.109815
 21
-88.695814
 31
0.0
  0
LINE
  5
67C
330
1D
100
AcDbEntity
  8
Edge.Cuts
  6
Continuous
100
AcDbLine
 10
39.03125
 20
-88.225
 30
0.0
 11
39.051026
 21
-88.463662
 31
0.0
  0
LINE
  5
67D
330
1D
100
AcDbEntity
  8
Edge.Cuts
  6
Continuous
100
AcDbLine
 10
39.051026
 20
-87.98633799999999
 30
0.0
 11
39.03125
 21
-88.225
 31
0.0
  0
LINE
  5
67E
330
1D
100
AcDbEntity
  8
Edge.Cuts
  6
Continuous
100
AcDbLine
 10
39.109815
 20
-87.75418599999999
 30
0.0
 11
39.051026
 21
-87.98633799999999
 31
0.0
  0
LINE
  5
67F
330
1D
100
AcDbEntity
  8
Edge.Cuts
  6
Continuous
100
AcDbLine
 10
39.206013
 20
-87.534876
 30
0.0
 11
39.109815
 21
-87.75418599999999
 31
0.0
  0
LINE
  5
680
330
1D
100
AcDbEntity
  8
Edge.Cuts
  6
Continuous
100
AcDbLine
 10
39.336996
 20
-87.334392
 30
0.0
 11
39.206013
 21
-87.534876
 31
0.0
  0
LINE
  5
681
330
1D
100
AcDbEntity
  8
Edge.Cuts
  6
Continuous
100
AcDbLine
 10
39.499192
 20
-87.1582
 30
0.0
 11
39.336996
 21
-87.334392
 31
0.0
  0
LINE
  5
682
330
1D
100
AcDbEntity
  8
Edge.Cuts
  6
Continuous
100
AcDbLine
 10
39.688175
 20
-87.01110899999999
 30
0.0
 11
39.499192
 21
-87.1582
 31
0.0
  0
LINE
  5
683
330
1D
100
AcDbEntity
  8
Edge.Cuts
  6
Continuous
100
AcDbLine
 10
39.898792
 20
-86.89712899999999
 30
0.0
 11
39.688175
 21
-87.01110899999999
 31
0.0
  0
LINE
  5
684
330
1D
100
AcDbEntity
  8
Edge.Cuts
  6
Continuous
100
AcDbLine
 10
40.125296
 20
-86.81936999999999
 30
0.0
 11
39.898792
 21
-86.89712899999999
 31
0.0
  0
LINE
  5
685
330
1D
100
AcDbEntity
  8
Edge.Cuts
  6
Continuous
100
AcDbLine
 10
40.36151
 20
-86.779952
 30
0.0
 11
40.125296
 21
-86.81936999999999
 31
0.0
  0
LINE
  5
686
330
1D
100
AcDbEntity
  8
Edge.Cuts
  6
Continuous
100
AcDbLine
 10
207.28849
 20
-86.779952
 30
0.0
 11
207.04901
 21
-86.779952
 31
0.0
  0
LINE
  5
687
330
1D
100
AcDbEntity
  8
Edge.Cuts
  6
Continuous
100
AcDbLine
 10
207.524704
 20
-86.81936999999999
 30
0.0
 11
207.28849
 21
-86.779952
 31
0.0
  0
LINE
  5
688
330
1D
100
AcDbEntity
  8
Edge.Cuts
  6
Continuous
100
AcDbLine
 10
207.751208
 20
-86.89712899999999
 30
0.0
 11
207.524704
 21
-86.81936999999999
 31
0.0
  0
LINE
  5
689
330
1D
100
AcDbEntity
  8
Edge.Cuts
  6
Continuous
100
AcDbLine
 10
207.961825
 20
-87.01110899999999
 30
0.0
 11
207.751208
 21
-86.89712899999999
 31
0.0
  0
LINE
  5
68A
330
1D
100
AcDbEntity
  8
Edge.Cuts
  6
Continuous
100
AcDbLine
 10
208.150808
 20
-87.1582
 30
0.0
 11
207.961825
 21
-87.01110899999999
 31
0.0
  0
LINE
  5
68B
330
1D
100
AcDbEntity
  8
Edge.Cuts
  6
Continuous
100
AcDbLine
 10
208.313004
 20
-87.334392
 30
0.0
 11
208.150808
 21
-87.1582
 31
0.0
  0
LINE
  5
68C
330
1D
100
AcDbEntity
  8
Edge.Cuts
  6
Continuous
100
AcDbLine
 10
208.443987
 20
-87.534876
 30
0.0
 11
208.313004
 21
-87.334392
 31
0.0
  0
LINE
  5
68D
330
1D
100
AcDbEntity
  8
Edge.Cuts
  6
Continuous
100
AcDbLine
 10
208.540185
 20
-87.75418599999999
 30
0.0
 11
208.443987
 21
-87.534876
 31
0.0
  0
LINE
  5
68E
330
1D
100
AcDbEntity
  8
Edge.Cuts
  6
Continuous
100
AcDbLine
 10
208.598974
 20
-87.98633799999999
 30
0.0
 11
208.540185
 21
-87.75418599999999
 31
0.0
  0
LINE
  5
68F
330
1D
100
AcDbEntity
  8
Edge.Cuts
  6
Continuous
100
AcDbLine
 10
208.61875
 20
-88.225
 30
0.0
 11
208.598974
 21
-87.98633799999999
 31
0.0
  0
LINE
  5
690
330
1D
100
AcDbEntity
  8
Edge.Cuts
  6
Continuous
100
AcDbLine
 10
208.598974
 20
-88.463662
 30
0.0
 11
208.61875
 21
-88.225
 31
0.0
  0
LINE
  5
691
330
1D
100
AcDbEntity
  8
Edge.Cuts
  6
Continuous
100
AcDbLine
 10
208.540185
 20
-88.695814
 30
0.0
 11
208.598974
 21
-88.463662
 31
0.0
  0
LINE
  5
692
330
1D
100
AcDbEntity
  8
Edge.Cuts
  6
Continuous
100
AcDbLine
 10
208.443987
 20
-88.91512399999999
 30
0.0
 11
208.540185
 21
-88.695814
 31
0.0
  0
LINE
  5
693
330
1D
100
AcDbEntity
  8
Edge.Cuts
  6
Continuous
100
AcDbLine
 10
208.313004
 20
-89.115608
 30
0.0
 11
208.443987
 21
-88.91512399999999
 31
0.0
  0
LINE
  5
694
330
1D
100
AcDbEntity
  8
Edge.Cuts
  6
Continuous
100
AcDbLine
 10
208.150808
 20
-89.2918
 30
0.0
 11
208.313004
 21
-89.115608
 31
0.0
  0
LINE
  5
695
330
1D
100
AcDbEntity
  8
Edge.Cuts
  6
Continuous
100
AcDbLine
 10
207.961825
 20
-89.438891
 30
0.0
 11
208.150808
 21
-89.2918
 31
0.0
  0
LINE
  5
696
330
1D
100
AcDbEntity
  8
Edge.Cuts
  6
Continuous
100
AcDbLine
 10
207.751208
 20
-89.552871
 30
0.0
 11
207.961825
 21
-89.438891
 31
0.0
  0
LINE
  5
697
330
1D
100
AcDbEntity
  8
Edge.Cuts
  6
Continuous
100
AcDbLine
 10
207.524704
 20
-89.63063
 30
0.0
 11
207.751208
 21
-89.552871
 31
0.0
  0
LINE
  5
698
330
1D
100
AcDbEntity
  8
Edge.Cuts
  6
Continuous
100
AcDbLine
 10
207.28849
 20
-89.670048
 30
0.0
 11
207.524704
 21
-89.63063
 31
0.0
  0
LINE
  5
699
330
1D
100
AcDbEntity
  8
Edge.Cuts
  6
Continuous
100
AcDbLine
 10
207.04901
 20
-89.670048
 30
0.0
 11
207.28849
 21
-89.670048
 31
0.0
  0
LINE
  5
69A
330
1D
100
AcDbEntity
  8
Edge.Cuts
  6
Continuous
100
AcDbLine
 10
206.812796
 20
-89.63063
 30
0.0
 11
207.04901
 21
-89.670048
 31
0.0
  0
LINE
  5
69B
330
1D
100
AcDbEntity
  8
Edge.Cuts
  6
Continuous
100
AcDbLine
 10
206.586292
 20
-89.552871
 30
0.0
 11
206.812796
 21
-89.63063
 31
0.0
  0
LINE
  5
69C
330
1D
100
AcDbEntity
  8
Edge.Cuts
  6
Continuous
100
AcDbLine
 10
206.375675
 20
-89.438891
 30
0.0
 11
206.586292
 21
-89.552871
 31
0.0
  0
LINE
  5
69D
330
1D
100
AcDbEntity
  8
Edge.Cuts
  6
Continuous
100
AcDbLine
 10
206.186692
 20
-89.2918
 30
0.0
 11
206.375675
 21
-89.438891
 31
0.0
  0
LINE
  5
69E
330
1D
100
AcDbEntity
  8
Edge.Cuts
  6
Continuous
100
AcDbLine
 10
206.024496
 20
-89.115608
 30
0.0
 11
206.186692
 21
-89.2918
 31
0.0
  0
LINE
  5
69F
330
1D
100
AcDbEntity
  8
Edge.Cuts
  6
Continuous
100
AcDbLine
 10
205.893513
 20
-88.91512399999999
 30
0.0
 11
206.024496
 21
-89.115608
 31
0.0
  0
LINE
  5
6A0
330
1D
100
AcDbEntity
  8
Edge.Cuts
  6
Continuous
100
AcDbLine
 10
205.797315
 20
-88.695814
 30
0.0
 11
205.893513
 21
-88.91512399999999
 31
0.0
  0
LINE
  5
6A1
330
1D
100
AcDbEntity
  8
Edge.Cuts
  6
Continuous
100
AcDbLine
 10
205.738526
 20
-88.463662
 30
0.0
 11
205.797315
 21
-88.695814
 31
0.0
  0
LINE
  5
6A2
330
1D
100
AcDbEntity
  8
Edge.Cuts
  6
Continuous
100
AcDbLine
 10
205.71875
 20
-88.225
 30
0.0
 11
205.738526
 21
-88.463662
 31
0.0
  0
LINE
  5
6A3
330
1D
100
AcDbEntity
  8
Edge.Cuts
  6
Continuous
100
AcDbLine
 10
205.738526
 20
-87.98633799999999
 30
0.0
 11
205.71875
 21
-88.225
 31
0.0
  0
LINE
  5
6A4
330
1D
100
AcDbEntity
  8
Edge.Cuts
  6
Continuous
100
AcDbLine
 10
205.797315
 20
-87.75418599999999
 30
0.0
 11
205.738526
 21
-87.98633799999999
 31
0.0
  0
LINE
  5
6A5
330
1D
100
AcDbEntity
  8
Edge.Cuts
  6
Continuous
100
AcDbLine
 10
205.893513
 20
-87.534876
 30
0.0
 11
205.797315
 21
-87.75418599999999
 31
0.0
  0
LINE
  5
6A6
330
1D
100
AcDbEntity
  8
Edge.Cuts
  6
Continuous
100
AcDbLine
 10
206.024496
 20
-87.334392
 30
0.0
 11
205.893513
 21
-87.534876
 31
0.0
  0
LINE
  5
6A7
330
1D
100
AcDbEntity
  8
Edge.Cuts
  6
Continuous
100
AcDbLine
 10
206.186692
 20
-87.1582
 30
0.0
 11
206.024496
 21
-87.334392
 31
0.0
  0
LINE
  5
6A8
330
1D
100
AcDbEntity
  8
Edge.Cuts
  6
Continuous
100
AcDbLine
 10
206.375675
 20
-87.01110899999999
 30
0.0
 11
206.186692
 21
-87.1582
 31
0.0
  0
LINE
  5
6A9
330
1D
100
AcDbEntity
  8
Edge.Cuts
  6
Continuous
100
AcDbLine
 10
206.586292
 20
-86.89712899999999
 30
0.0
 11
206.375675
 21
-87.01110899999999
 31
0.0
  0
LINE
  5
6AA
330
1D
100
AcDbEntity
  8
Edge.Cuts
  6
Continuous
100
AcDbLine
 10
206.812796
 20
-86.81936999999999
 30
0.0
 11
206.586292
 21
-86.89712899999999
 31
0.0
  0
LINE
  5
6AB
330
1D
100
AcDbEntity
  8
Edge.Cuts
  6
Continuous
100
AcDbLine
 10
207.04901
 20
-86.779952
 30
0.0
 11
206.812796
 21
-86.81936999999999
 31
0.0
  0
LINE
  5
6AC
330
1D
100
AcDbEntity
  8
Edge.Cuts
  6
Continuous
100
AcDbLine
 10
175.174997
 20
14.525027
 30
0.0
 11
175.483595
 21
14.505908
 31
0.0
  0
LINE
  5
6AD
330
1D
100
AcDbEntity
  8
Edge.Cuts
  6
Continuous
100
AcDbLine
 10
174.866398
 20
14.505905
 30
0.0
 11
175.174997
 21
14.525027
 31
0.0
  0
LINE
  5
6AE
330
1D
100
AcDbEntity
  8
Edge.Cuts
  6
Continuous
100
AcDbLine
 10
174.56252
 20
14.448837
 30
0.0
 11
174.866398
 21
14.505905
 31
0.0
  0
LINE
  5
6AF
330
1D
100
AcDbEntity
  8
Edge.Cuts
  6
Continuous
100
AcDbLine
 10
174.26801
 20
14.354694
 30
0.0
 11
174.56252
 21
14.448837
 31
0.0
  0
LINE
  5
6B0
330
1D
100
AcDbEntity
  8
Edge.Cuts
  6
Continuous
100
AcDbLine
 10
173.987374
 20
14.224917
 30
0.0
 11
174.26801
 21
14.354694
 31
0.0
  0
LINE
  5
6B1
330
1D
100
AcDbEntity
  8
Edge.Cuts
  6
Continuous
100
AcDbLine
 10
173.724904
 20
14.06149
 30
0.0
 11
173.987374
 21
14.224917
 31
0.0
  0
LINE
  5
6B2
330
1D
100
AcDbEntity
  8
Edge.Cuts
  6
Continuous
100
AcDbLine
 10
173.484615
 20
13.866914
 30
0.0
 11
173.724904
 21
14.06149
 31
0.0
  0
LINE
  5
6B3
330
1D
100
AcDbEntity
  8
Edge.Cuts
  6
Continuous
100
AcDbLine
 10
173.270182
 20
13.644165
 30
0.0
 11
173.484615
 21
13.866914
 31
0.0
  0
LINE
  5
6B4
330
1D
100
AcDbEntity
  8
Edge.Cuts
  6
Continuous
100
AcDbLine
 10
170.217996
 20
10.05351
 30
0.0
 11
173.270182
 21
13.644165
 31
0.0
  0
LINE
  5
6B5
330
1D
100
AcDbEntity
  8
Edge.Cuts
  6
Continuous
100
AcDbLine
 10
170.033433
 20
9.870999
 30
0.0
 11
170.217996
 21
10.05351
 31
0.0
  0
LINE
  5
6B6
330
1D
100
AcDbEntity
  8
Edge.Cuts
  6
Continuous
100
AcDbLine
 10
169.820155
 20
9.72306
 30
0.0
 11
170.033433
 21
9.870999
 31
0.0
  0
LINE
  5
6B7
330
1D
100
AcDbEntity
  8
Edge.Cuts
  6
Continuous
100
AcDbLine
 10
169.584558
 20
9.61412
 30
0.0
 11
169.820155
 21
9.72306
 31
0.0
  0
LINE
  5
6B8
330
1D
100
AcDbEntity
  8
Edge.Cuts
  6
Continuous
100
AcDbLine
 10
169.333703
 20
9.547443
 30
0.0
 11
169.584558
 21
9.61412
 31
0.0
  0
LINE
  5
6B9
330
1D
100
AcDbEntity
  8
Edge.Cuts
  6
Continuous
100
AcDbLine
 10
169.075108
 20
9.525
 30
0.0
 11
169.333703
 21
9.547443
 31
0.0
  0
LINE
  5
6BA
330
1D
100
AcDbEntity
  8
Edge.Cuts
  6
Continuous
100
AcDbLine
 10
97.57488599999999
 20
9.525
 30
0.0
 11
169.075108
 21
9.525
 31
0.0
  0
LINE
  5
6BB
330
1D
100
AcDbEntity
  8
Edge.Cuts
  6
Continuous
100
AcDbLine
 10
97.316319
 20
9.547504
 30
0.0
 11
97.57488599999999
 21
9.525
 31
0.0
  0
LINE
  5
6BC
330
1D
100
AcDbEntity
  8
Edge.Cuts
  6
Continuous
100
AcDbLine
 10
97.0655
 20
9.614237
 30
0.0
 11
97.316319
 21
9.547504
 31
0.0
  0
LINE
  5
6BD
330
1D
100
AcDbEntity
  8
Edge.Cuts
  6
Continuous
100
AcDbLine
 10
96.829931
 20
9.723189999999999
 30
0.0
 11
97.0655
 21
9.614237
 31
0.0
  0
LINE
  5
6BE
330
1D
100
AcDbEntity
  8
Edge.Cuts
  6
Continuous
100
AcDbLine
 10
96.616658
 20
9.871103
 30
0.0
 11
96.829931
 21
9.723189999999999
 31
0.0
  0
LINE
  5
6BF
330
1D
100
AcDbEntity
  8
Edge.Cuts
  6
Continuous
100
AcDbLine
 10
96.43200499999999
 20
10.053504
 30
0.0
 11
96.616658
 21
9.871103
 31
0.0
  0
LINE
  5
6C0
330
1D
100
AcDbEntity
  8
Edge.Cuts
  6
Continuous
100
AcDbLine
 10
93.37982199999999
 20
13.644175
 30
0.0
 11
96.43200499999999
 21
10.053504
 31
0.0
  0
LINE
  5
6C1
330
1D
100
AcDbEntity
  8
Edge.Cuts
  6
Continuous
100
AcDbLine
 10
93.165388
 20
13.866924
 30
0.0
 11
93.37982199999999
 21
13.644175
 31
0.0
  0
LINE
  5
6C2
330
1D
100
AcDbEntity
  8
Edge.Cuts
  6
Continuous
100
AcDbLine
 10
92.92509799999999
 20
14.061499
 30
0.0
 11
93.165388
 21
13.866924
 31
0.0
  0
LINE
  5
6C3
330
1D
100
AcDbEntity
  8
Edge.Cuts
  6
Continuous
100
AcDbLine
 10
92.66262599999999
 20
14.224924
 30
0.0
 11
92.92509799999999
 21
14.061499
 31
0.0
  0
LINE
  5
6C4
330
1D
100
AcDbEntity
  8
Edge.Cuts
  6
Continuous
100
AcDbLine
 10
92.38198899999999
 20
14.3547
 30
0.0
 11
92.66262599999999
 21
14.224924
 31
0.0
  0
LINE
  5
6C5
330
1D
100
AcDbEntity
  8
Edge.Cuts
  6
Continuous
100
AcDbLine
 10
92.08747799999999
 20
14.448841
 30
0.0
 11
92.38198899999999
 21
14.3547
 31
0.0
  0
LINE
  5
6C6
330
1D
100
AcDbEntity
  8
Edge.Cuts
  6
Continuous
100
AcDbLine
 10
91.783599
 20
14.505907
 30
0.0
 11
92.08747799999999
 21
14.448841
 31
0.0
  0
LINE
  5
6C7
330
1D
100
AcDbEntity
  8
Edge.Cuts
  6
Continuous
100
AcDbLine
 10
91.475
 20
14.525027
 30
0.0
 11
91.783599
 21
14.505907
 31
0.0
  0
LINE
  5
6C8
330
1D
100
AcDbEntity
  8
Edge.Cuts
  6
Continuous
100
AcDbLine
 10
91.166401
 20
14.505906
 30
0.0
 11
91.475
 21
14.525027
 31
0.0
  0
LINE
  5
6C9
330
1D
100
AcDbEntity
  8
Edge.Cuts
  6
Continuous
100
AcDbLine
 10
90.862522
 20
14.448838
 30
0.0
 11
91.166401
 21
14.505906
 31
0.0
  0
LINE
  5
6CA
330
1D
100
AcDbEntity
  8
Edge.Cuts
  6
Continuous
100
AcDbLine
 10
90.568012
 20
14.354695
 30
0.0
 11
90.862522
 21
14.448838
 31
0.0
  0
LINE
  5
6CB
330
1D
100
AcDbEntity
  8
Edge.Cuts
  6
Continuous
100
AcDbLine
 10
90.287375
 20
14.224918
 30
0.0
 11
90.568012
 21
14.354695
 31
0.0
  0
LINE
  5
6CC
330
1D
100
AcDbEntity
  8
Edge.Cuts
  6
Continuous
100
AcDbLine
 10
90.02490499999999
 20
14.061491
 30
0.0
 11
90.287375
 21
14.224918
 31
0.0
  0
LINE
  5
6CD
330
1D
100
AcDbEntity
  8
Edge.Cuts
  6
Continuous
100
AcDbLine
 10
89.784615
 20
13.866915
 30
0.0
 11
90.02490499999999
 21
14.061491
 31
0.0
  0
LINE
  5
6CE
330
1D
100
AcDbEntity
  8
Edge.Cuts
  6
Continuous
100
AcDbLine
 10
89.570182
 20
13.644165
 30
0.0
 11
89.784615
 21
13.866915
 31
0.0
  0
LINE
  5
6CF
330
1D
100
AcDbEntity
  8
Edge.Cuts
  6
Continuous
100
AcDbLine
 10
86.517996
 20
10.05351
 30
0.0
 11
89.570182
 21
13.644165
 31
0.0
  0
LINE
  5
6D0
330
1D
100
AcDbEntity
  8
Edge.Cuts
  6
Continuous
100
AcDbLine
 10
86.333423
 20
9.871013999999999
 30
0.0
 11
86.517996
 21
10.05351
 31
0.0
  0
LINE
  5
6D1
330
1D
100
AcDbEntity
  8
Edge.Cuts
  6
Continuous
100
AcDbLine
 10
86.120144
 20
9.723080999999999
 30
0.0
 11
86.333423
 21
9.871013999999999
 31
0.0
  0
LINE
  5
6D2
330
1D
100
AcDbEntity
  8
Edge.Cuts
  6
Continuous
100
AcDbLine
 10
85.88454999999999
 20
9.614141
 30
0.0
 11
86.120144
 21
9.723080999999999
 31
0.0
  0
LINE
  5
6D3
330
1D
100
AcDbEntity
  8
Edge.Cuts
  6
Continuous
100
AcDbLine
 10
85.633701
 20
9.547457
 30
0.0
 11
85.88454999999999
 21
9.614141
 31
0.0
  0
LINE
  5
6D4
330
1D
100
AcDbEntity
  8
Edge.Cuts
  6
Continuous
100
AcDbLine
 10
85.37510999999999
 20
9.525
 30
0.0
 11
85.633701
 21
9.547457
 31
0.0
  0
LINE
  5
6D5
330
1D
100
AcDbEntity
  8
Edge.Cuts
  6
Continuous
100
AcDbLine
 10
15.624886
 20
9.525
 30
0.0
 11
85.37510999999999
 21
9.525
 31
0.0
  0
LINE
  5
6D6
330
1D
100
AcDbEntity
  8
Edge.Cuts
  6
Continuous
100
AcDbLine
 10
15.366319
 20
9.547504
 30
0.0
 11
15.624886
 21
9.525
 31
0.0
  0
LINE
  5
6D7
330
1D
100
AcDbEntity
  8
Edge.Cuts
  6
Continuous
100
AcDbLine
 10
15.1155
 20
9.614237
 30
0.0
 11
15.366319
 21
9.547504
 31
0.0
  0
LINE
  5
6D8
330
1D
100
AcDbEntity
  8
Edge.Cuts
  6
Continuous
100
AcDbLine
 10
14.87993
 20
9.723189999999999
 30
0.0
 11
15.1155
 21
9.614237
 31
0.0
  0
LINE
  5
6D9
330
1D
100
AcDbEntity
  8
Edge.Cuts
  6
Continuous
100
AcDbLine
 10
14.666657
 20
9.871103
 30
0.0
 11
14.87993
 21
9.723189999999999
 31
0.0
  0
LINE
  5
6DA
330
1D
100
AcDbEntity
  8
Edge.Cuts
  6
Continuous
100
AcDbLine
 10
14.482003
 20
10.053504
 30
0.0
 11
14.666657
 21
9.871103
 31
0.0
  0
LINE
  5
6DB
330
1D
100
AcDbEntity
  8
Edge.Cuts
  6
Continuous
100
AcDbLine
 10
11.429806
 20
13.64417
 30
0.0
 11
14.482003
 21
10.053504
 31
0.0
  0
LINE
  5
6DC
330
1D
100
AcDbEntity
  8
Edge.Cuts
  6
Continuous
100
AcDbLine
 10
11.21538
 20
13.86692
 30
0.0
 11
11.429806
 21
13.64417
 31
0.0
  0
LINE
  5
6DD
330
1D
100
AcDbEntity
  8
Edge.Cuts
  6
Continuous
100
AcDbLine
 10
10.975086
 20
14.061487
 30
0.0
 11
11.21538
 21
13.86692
 31
0.0
  0
LINE
  5
6DE
330
1D
100
AcDbEntity
  8
Edge.Cuts
  6
Continuous
100
AcDbLine
 10
10.712614
 20
14.224904
 30
0.0
 11
10.975086
 21
14.061487
 31
0.0
  0
LINE
  5
6DF
330
1D
100
AcDbEntity
  8
Edge.Cuts
  6
Continuous
100
AcDbLine
 10
10.431978
 20
14.354674
 30
0.0
 11
10.712614
 21
14.224904
 31
0.0
  0
LINE
  5
6E0
330
1D
100
AcDbEntity
  8
Edge.Cuts
  6
Continuous
100
AcDbLine
 10
10.137469
 20
14.44881
 30
0.0
 11
10.431978
 21
14.354674
 31
0.0
  0
LINE
  5
6E1
330
1D
100
AcDbEntity
  8
Edge.Cuts
  6
Continuous
100
AcDbLine
 10
9.833592999999999
 20
14.505874
 30
0.0
 11
10.137469
 21
14.44881
 31
0.0
  0
LINE
  5
6E2
330
1D
100
AcDbEntity
  8
Edge.Cuts
  6
Continuous
100
AcDbLine
 10
9.524996999999999
 20
14.524991
 30
0.0
 11
9.833592999999999
 21
14.505874
 31
0.0
  0
LINE
  5
6E3
330
1D
100
AcDbEntity
  8
Edge.Cuts
  6
Continuous
100
AcDbLine
 10
9.216401
 20
14.505871
 30
0.0
 11
9.524996999999999
 21
14.524991
 31
0.0
  0
LINE
  5
6E4
330
1D
100
AcDbEntity
  8
Edge.Cuts
  6
Continuous
100
AcDbLine
 10
8.912525
 20
14.448805
 30
0.0
 11
9.216401
 21
14.505871
 31
0.0
  0
LINE
  5
6E5
330
1D
100
AcDbEntity
  8
Edge.Cuts
  6
Continuous
100
AcDbLine
 10
8.618017
 20
14.354666
 30
0.0
 11
8.912525
 21
14.448805
 31
0.0
  0
LINE
  5
6E6
330
1D
100
AcDbEntity
  8
Edge.Cuts
  6
Continuous
100
AcDbLine
 10
8.337382
 20
14.224895
 30
0.0
 11
8.618017
 21
14.354666
 31
0.0
  0
LINE
  5
6E7
330
1D
100
AcDbEntity
  8
Edge.Cuts
  6
Continuous
100
AcDbLine
 10
8.074911
 20
14.061475
 30
0.0
 11
8.337382
 21
14.224895
 31
0.0
  0
LINE
  5
6E8
330
1D
100
AcDbEntity
  8
Edge.Cuts
  6
Continuous
100
AcDbLine
 10
7.834619
 20
13.866906
 30
0.0
 11
8.074911
 21
14.061475
 31
0.0
  0
LINE
  5
6E9
330
1D
100
AcDbEntity
  8
Edge.Cuts
  6
Continuous
100
AcDbLine
 10
7.620182
 20
13.644165
 30
0.0
 11
7.834619
 21
13.866906
 31
0.0
  0
LINE
  5
6EA
330
1D
100
AcDbEntity
  8
Edge.Cuts
  6
Continuous
100
AcDbLine
 10
4.567996
 20
10.05351
 30
0.0
 11
7.620182
 21
13.644165
 31
0.0
  0
LINE
  5
6EB
330
1D
100
AcDbEntity
  8
Edge.Cuts
  6
Continuous
100
AcDbLine
 10
4.383423
 20
9.871013999999999
 30
0.0
 11
4.567996
 21
10.05351
 31
0.0
  0
LINE
  5
6EC
330
1D
100
AcDbEntity
  8
Edge.Cuts
  6
Continuous
100
AcDbLine
 10
4.170142999999999
 20
9.72308
 30
0.0
 11
4.383423
 21
9.871013999999999
 31
0.0
  0
LINE
  5
6ED
330
1D
100
AcDbEntity
  8
Edge.Cuts
  6
Continuous
100
AcDbLine
 10
3.934549
 20
9.614139999999999
 30
0.0
 11
4.170142999999999
 21
9.72308
 31
0.0
  0
LINE
  5
6EE
330
1D
100
AcDbEntity
  8
Edge.Cuts
  6
Continuous
100
AcDbLine
 10
3.683699
 20
9.547457
 30
0.0
 11
3.934549
 21
9.614139999999999
 31
0.0
  0
LINE
  5
6EF
330
1D
100
AcDbEntity
  8
Edge.Cuts
  6
Continuous
100
AcDbLine
 10
3.425108
 20
9.525
 30
0.0
 11
3.683699
 21
9.547457
 31
0.0
  0
LINE
  5
6F0
330
1D
100
AcDbEntity
  8
Edge.Cuts
  6
Continuous
100
AcDbLine
 10
-8.025004
 20
9.52496
 30
0.0
 11
3.425108
 21
9.525
 31
0.0
  0
LINE
  5
6F1
330
1D
100
AcDbEntity
  8
Edge.Cuts
  6
Continuous
100
AcDbLine
 10
-8.259635
 20
9.506446
 30
0.0
 11
-8.025004
 21
9.52496
 31
0.0
  0
LINE
  5
6F2
330
1D
100
AcDbEntity
  8
Edge.Cuts
  6
Continuous
100
AcDbLine
 10
-8.488484
 20
9.451471
 30
0.0
 11
-8.259635
 21
9.506446
 31
0.0
  0
LINE
  5
6F3
330
1D
100
AcDbEntity
  8
Edge.Cuts
  6
Continuous
100
AcDbLine
 10
-8.705919
 20
9.361381
 30
0.0
 11
-8.488484
 21
9.451471
 31
0.0
  0
LINE
  5
6F4
330
1D
100
AcDbEntity
  8
Edge.Cuts
  6
Continuous
100
AcDbLine
 10
-8.90659
 20
9.238396
 30
0.0
 11
-8.705919
 21
9.361381
 31
0.0
  0
LINE
  5
6F5
330
1D
100
AcDbEntity
  8
Edge.Cuts
  6
Continuous
100
AcDbLine
 10
-9.085557999999999
 20
9.085541
 30
0.0
 11
-8.90659
 21
9.238396
 31
0.0
  0
LINE
  5
6F6
330
1D
100
AcDbEntity
  8
Edge.Cuts
  6
Continuous
100
AcDbLine
 10
-9.238418
 20
8.906577
 30
0.0
 11
-9.085557999999999
 21
9.085541
 31
0.0
  0
LINE
  5
6F7
330
1D
100
AcDbEntity
  8
Edge.Cuts
  6
Continuous
100
AcDbLine
 10
-9.361409
 20
8.70591
 30
0.0
 11
-9.238418
 21
8.906577
 31
0.0
  0
LINE
  5
6F8
330
1D
100
AcDbEntity
  8
Edge.Cuts
  6
Continuous
100
AcDbLine
 10
-9.451505
 20
8.488477999999999
 30
0.0
 11
-9.361409
 21
8.70591
 31
0.0
  0
LINE
  5
6F9
330
1D
100
AcDbEntity
  8
Edge.Cuts
  6
Continuous
100
AcDbLine
 10
-9.506488
 20
8.25963
 30
0.0
 11
-9.451505
 21
8.488477999999999
 31
0.0
  0
LINE
  5
6FA
330
1D
100
AcDbEntity
  8
Edge.Cuts
  6
Continuous
100
AcDbLine
 10
-9.525004
 20
8.025
 30
0.0
 11
-9.506488
 21
8.25963
 31
0.0
  0
LINE
  5
6FB
330
1D
100
AcDbEntity
  8
Edge.Cuts
  6
Continuous
100
AcDbLine
 10
-9.524364
 20
-84.225
 30
0.0
 11
-9.525004
 21
8.025
 31
0.0
  0
LINE
  5
6FC
330
1D
100
AcDbEntity
  8
Edge.Cuts
  6
Continuous
100
AcDbLine
 10
-9.50593
 20
-84.459605
 30
0.0
 11
-9.524364
 21
-84.225
 31
0.0
  0
LINE
  5
6FD
330
1D
100
AcDbEntity
  8
Edge.Cuts
  6
Continuous
100
AcDbLine
 10
-9.451046999999999
 20
-84.688442
 30
0.0
 11
-9.50593
 21
-84.459605
 31
0.0
  0
LINE
  5
6FE
330
1D
100
AcDbEntity
  8
Edge.Cuts
  6
Continuous
100
AcDbLine
 10
-9.361041
 20
-84.90587599999999
 30
0.0
 11
-9.451046999999999
 21
-84.688442
 31
0.0
  0
LINE
  5
6FF
330
1D
100
AcDbEntity
  8
Edge.Cuts
  6
Continuous
100
AcDbLine
 10
-9.238128999999999
 20
-85.10655299999999
 30
0.0
 11
-9.361041
 21
-84.90587599999999
 31
0.0
  0
LINE
  5
700
330
1D
100
AcDbEntity
  8
Edge.Cuts
  6
Continuous
100
AcDbLine
 10
-9.085336
 20
-85.28553
 30
0.0
 11
-9.238128999999999
 21
-85.10655299999999
 31
0.0
  0
LINE
  5
701
330
1D
100
AcDbEntity
  8
Edge.Cuts
  6
Continuous
100
AcDbLine
 10
-8.906426
 20
-85.438402
 30
0.0
 11
-9.085336
 21
-85.28553
 31
0.0
  0
LINE
  5
702
330
1D
100
AcDbEntity
  8
Edge.Cuts
  6
Continuous
100
AcDbLine
 10
-8.705803999999999
 20
-85.561403
 30
0.0
 11
-8.906426
 21
-85.438402
 31
0.0
  0
LINE
  5
703
330
1D
100
AcDbEntity
  8
Edge.Cuts
  6
Continuous
100
AcDbLine
 10
-8.48841
 20
-85.651504
 30
0.0
 11
-8.705803999999999
 21
-85.561403
 31
0.0
  0
LINE
  5
704
330
1D
100
AcDbEntity
  8
Edge.Cuts
  6
Continuous
100
AcDbLine
 10
-8.259597
 20
-85.706488
 30
0.0
 11
-8.48841
 21
-85.651504
 31
0.0
  0
LINE
  5
705
330
1D
100
AcDbEntity
  8
Edge.Cuts
  6
Continuous
100
AcDbLine
 10
-8.025
 20
-85.725
 30
0.0
 11
-8.259597
 21
-85.706488
 31
0.0
  0
LINE
  5
706
330
1D
100
AcDbEntity
  8
Edge.Cuts
  6
Continuous
100
AcDbLine
 10
34.381356
 20
-85.725
 30
0.0
 11
-8.025
 21
-85.725
 31
0.0
  0
LINE
  5
707
330
1D
100
AcDbEntity
  8
Edge.Cuts
  6
Continuous
100
AcDbLine
 10
34.639921
 20
-85.747486
 30
0.0
 11
34.381356
 21
-85.725
 31
0.0
  0
LINE
  5
708
330
1D
100
AcDbEntity
  8
Edge.Cuts
  6
Continuous
100
AcDbLine
 10
34.890738
 20
-85.814212
 30
0.0
 11
34.639921
 21
-85.747486
 31
0.0
  0
LINE
  5
709
330
1D
100
AcDbEntity
  8
Edge.Cuts
  6
Continuous
100
AcDbLine
 10
35.126289
 20
-85.923192
 30
0.0
 11
34.890738
 21
-85.814212
 31
0.0
  0
LINE
  5
70A
330
1D
100
AcDbEntity
  8
Edge.Cuts
  6
Continuous
100
AcDbLine
 10
35.339517
 20
-86.07116099999999
 30
0.0
 11
35.126289
 21
-85.923192
 31
0.0
  0
LINE
  5
70B
330
1D
100
AcDbEntity
  8
Edge.Cuts
  6
Continuous
100
AcDbLine
 10
35.524247
 20
-86.253503
 30
0.0
 11
35.339517
 21
-86.07116099999999
 31
0.0
  0
LINE
  5
70C
330
1D
100
AcDbEntity
  8
Edge.Cuts
  6
Continuous
100
AcDbLine
 10
38.576436
 20
-89.84416
 30
0.0
 11
35.524247
 21
-86.253503
 31
0.0
  0
LINE
  5
70D
330
1D
100
AcDbEntity
  8
Edge.Cuts
  6
Continuous
100
AcDbLine
 10
38.790828
 20
-90.066948
 30
0.0
 11
38.576436
 21
-89.84416
 31
0.0
  0
LINE
  5
70E
330
1D
100
AcDbEntity
  8
Edge.Cuts
  6
Continuous
100
AcDbLine
 10
39.031121
 20
-90.261524
 30
0.0
 11
38.790828
 21
-90.066948
 31
0.0
  0
LINE
  5
70F
330
1D
100
AcDbEntity
  8
Edge.Cuts
  6
Continuous
100
AcDbLine
 10
39.293596
 20
-90.424949
 30
0.0
 11
39.031121
 21
-90.261524
 31
0.0
  0
LINE
  5
710
330
1D
100
AcDbEntity
  8
Edge.Cuts
  6
Continuous
100
AcDbLine
 10
39.574237
 20
-90.554724
 30
0.0
 11
39.293596
 21
-90.424949
 31
0.0
  0
LINE
  5
711
330
1D
100
AcDbEntity
  8
Edge.Cuts
  6
Continuous
100
AcDbLine
 10
39.86875
 20
-90.64886399999999
 30
0.0
 11
39.574237
 21
-90.554724
 31
0.0
  0
LINE
  5
712
330
1D
100
AcDbEntity
  8
Edge.Cuts
  6
Continuous
100
AcDbLine
 10
40.172632
 20
-90.705929
 30
0.0
 11
39.86875
 21
-90.64886399999999
 31
0.0
  0
LINE
  5
713
330
1D
100
AcDbEntity
  8
Edge.Cuts
  6
Continuous
100
AcDbLine
 10
40.481234
 20
-90.725045
 30
0.0
 11
40.172632
 21
-90.705929
 31
0.0
  0
LINE
  5
714
330
1D
100
AcDbEntity
  8
Edge.Cuts
  6
Continuous
100
AcDbLine
 10
40.789836
 20
-90.705922
 30
0.0
 11
40.481234
 21
-90.725045
 31
0.0
  0
LINE
  5
715
330
1D
100
AcDbEntity
  8
Edge.Cuts
  6
Continuous
100
AcDbLine
 10
41.093717
 20
-90.64885
 30
0.0
 11
40.789836
 21
-90.705922
 31
0.0
  0
LINE
  5
716
330
1D
100
AcDbEntity
  8
Edge.Cuts
  6
Continuous
100
AcDbLine
 10
41.388228
 20
-90.554704
 30
0.0
 11
41.093717
 21
-90.64885
 31
0.0
  0
LINE
  5
717
330
1D
100
AcDbEntity
  8
Edge.Cuts
  6
Continuous
100
AcDbLine
 10
41.668866
 20
-90.42492299999999
 30
0.0
 11
41.388228
 21
-90.554704
 31
0.0
  0
LINE
  5
718
330
1D
100
AcDbEntity
  8
Edge.Cuts
  6
Continuous
100
AcDbLine
 10
41.931337
 20
-90.26149199999999
 30
0.0
 11
41.668866
 21
-90.42492299999999
 31
0.0
  0
LINE
  5
719
330
1D
100
AcDbEntity
  8
Edge.Cuts
  6
Continuous
100
AcDbLine
 10
42.171627
 20
-90.06691099999999
 30
0.0
 11
41.931337
 21
-90.26149199999999
 31
0.0
  0
LINE
  5
71A
330
1D
100
AcDbEntity
  8
Edge.Cuts
  6
Continuous
100
AcDbLine
 10
42.386059
 20
-89.844157
 30
0.0
 11
42.171627
 21
-90.06691099999999
 31
0.0
  0
LINE
  5
71B
330
1D
100
AcDbEntity
  8
Edge.Cuts
  6
Continuous
100
AcDbLine
 10
45.438246
 20
-86.2535
 30
0.0
 11
42.386059
 21
-89.844157
 31
0.0
  0
LINE
  5
71C
330
1D
100
AcDbEntity
  8
Edge.Cuts
  6
Continuous
100
AcDbLine
 10
45.62285
 20
-86.071041
 30
0.0
 11
45.438246
 21
-86.2535
 31
0.0
  0
LINE
  5
71D
330
1D
100
AcDbEntity
  8
Edge.Cuts
  6
Continuous
100
AcDbLine
 10
45.836136
 20
-85.923126
 30
0.0
 11
45.62285
 21
-86.071041
 31
0.0
  0
LINE
  5
71E
330
1D
100
AcDbEntity
  8
Edge.Cuts
  6
Continuous
100
AcDbLine
 10
46.071723
 20
-85.814184
 30
0.0
 11
45.836136
 21
-85.923126
 31
0.0
  0
LINE
  5
71F
330
1D
100
AcDbEntity
  8
Edge.Cuts
  6
Continuous
100
AcDbLine
 10
46.322561
 20
-85.747475
 30
0.0
 11
46.071723
 21
-85.814184
 31
0.0
  0
LINE
  5
720
330
1D
100
AcDbEntity
  8
Edge.Cuts
  6
Continuous
100
AcDbLine
 10
46.581142
 20
-85.72499499999999
 30
0.0
 11
46.322561
 21
-85.747475
 31
0.0
  0
LINE
  5
721
330
1D
100
AcDbEntity
  8
Edge.Cuts
  6
Continuous
100
AcDbLine
 10
201.068856
 20
-85.725
 30
0.0
 11
46.581142
 21
-85.72499499999999
 31
0.0
  0
LINE
  5
722
330
1D
100
AcDbEntity
  8
Edge.Cuts
  6
Continuous
100
AcDbLine
 10
201.327461
 20
-85.74741399999999
 30
0.0
 11
201.068856
 21
-85.725
 31
0.0
  0
LINE
  5
723
330
1D
100
AcDbEntity
  8
Edge.Cuts
  6
Continuous
100
AcDbLine
 10
201.578327
 20
-85.81407999999999
 30
0.0
 11
201.327461
 21
-85.74741399999999
 31
0.0
  0
LINE
  5
724
330
1D
100
AcDbEntity
  8
Edge.Cuts
  6
Continuous
100
AcDbLine
 10
201.813938
 20
-85.923011
 30
0.0
 11
201.578327
 21
-85.81407999999999
 31
0.0
  0
LINE
  5
725
330
1D
100
AcDbEntity
  8
Edge.Cuts
  6
Continuous
100
AcDbLine
 10
202.027234
 20
-86.07094099999999
 30
0.0
 11
201.813938
 21
-85.923011
 31
0.0
  0
LINE
  5
726
330
1D
100
AcDbEntity
  8
Edge.Cuts
  6
Continuous
100
AcDbLine
 10
202.211747
 20
-86.253503
 30
0.0
 11
202.027234
 21
-86.07094099999999
 31
0.0
  0
LINE
  5
727
330
1D
100
AcDbEntity
  8
Edge.Cuts
  6
Continuous
100
AcDbLine
 10
205.263932
 20
-89.844155
 30
0.0
 11
202.211747
 21
-86.253503
 31
0.0
  0
LINE
  5
728
330
1D
100
AcDbEntity
  8
Edge.Cuts
  6
Continuous
100
AcDbLine
 10
205.478328
 20
-90.066936
 30
0.0
 11
205.263932
 21
-89.844155
 31
0.0
  0
LINE
  5
729
330
1D
100
AcDbEntity
  8
Edge.Cuts
  6
Continuous
100
AcDbLine
 10
205.718624
 20
-90.261505
 30
0.0
 11
205.478328
 21
-90.066936
 31
0.0
  0
LINE
  5
72A
330
1D
100
AcDbEntity
  8
Edge.Cuts
  6
Continuous
100
AcDbLine
 10
205.981099
 20
-90.42492399999999
 30
0.0
 11
205.718624
 21
-90.261505
 31
0.0
  0
LINE
  5
72B
330
1D
100
AcDbEntity
  8
Edge.Cuts
  6
Continuous
100
AcDbLine
 10
206.261739
 20
-90.554694
 30
0.0
 11
205.981099
 21
-90.42492399999999
 31
0.0
  0
LINE
  5
72C
330
1D
100
AcDbEntity
  8
Edge.Cuts
  6
Continuous
100
AcDbLine
 10
206.556252
 20
-90.648831
 30
0.0
 11
206.261739
 21
-90.554694
 31
0.0
  0
LINE
  5
72D
330
1D
100
AcDbEntity
  8
Edge.Cuts
  6
Continuous
100
AcDbLine
 10
206.860132
 20
-90.705894
 30
0.0
 11
206.556252
 21
-90.648831
 31
0.0
  0
LINE
  5
72E
330
1D
100
AcDbEntity
  8
Edge.Cuts
  6
Continuous
100
AcDbLine
 10
207.168731
 20
-90.72501
 30
0.0
 11
206.860132
 21
-90.705894
 31
0.0
  0
LINE
  5
72F
330
1D
100
AcDbEntity
  8
Edge.Cuts
  6
Continuous
100
AcDbLine
 10
207.47733
 20
-90.705888
 30
0.0
 11
207.168731
 21
-90.72501
 31
0.0
  0
LINE
  5
730
330
1D
100
AcDbEntity
  8
Edge.Cuts
  6
Continuous
100
AcDbLine
 10
207.781209
 20
-90.64881899999999
 30
0.0
 11
207.47733
 21
-90.705888
 31
0.0
  0
LINE
  5
731
330
1D
100
AcDbEntity
  8
Edge.Cuts
  6
Continuous
100
AcDbLine
 10
208.07572
 20
-90.554677
 30
0.0
 11
207.781209
 21
-90.64881899999999
 31
0.0
  0
LINE
  5
732
330
1D
100
AcDbEntity
  8
Edge.Cuts
  6
Continuous
100
AcDbLine
 10
208.356357
 20
-90.42490099999999
 30
0.0
 11
208.07572
 21
-90.554677
 31
0.0
  0
LINE
  5
733
330
1D
100
AcDbEntity
  8
Edge.Cuts
  6
Continuous
100
AcDbLine
 10
208.61883
 20
-90.261477
 30
0.0
 11
208.356357
 21
-90.42490099999999
 31
0.0
  0
LINE
  5
734
330
1D
100
AcDbEntity
  8
Edge.Cuts
  6
Continuous
100
AcDbLine
 10
208.859122
 20
-90.066903
 30
0.0
 11
208.61883
 21
-90.261477
 31
0.0
  0
LINE
  5
735
330
1D
100
AcDbEntity
  8
Edge.Cuts
  6
Continuous
100
AcDbLine
 10
209.073559
 20
-89.844157
 30
0.0
 11
208.859122
 21
-90.066903
 31
0.0
  0
LINE
  5
736
330
1D
100
AcDbEntity
  8
Edge.Cuts
  6
Continuous
100
AcDbLine
 10
212.125746
 20
-86.2535
 30
0.0
 11
209.073559
 21
-89.844157
 31
0.0
  0
LINE
  5
737
330
1D
100
AcDbEntity
  8
Edge.Cuts
  6
Continuous
100
AcDbLine
 10
212.31038
 20
-86.071119
 30
0.0
 11
212.125746
 21
-86.2535
 31
0.0
  0
LINE
  5
738
330
1D
100
AcDbEntity
  8
Edge.Cuts
  6
Continuous
100
AcDbLine
 10
212.523679
 20
-85.923281
 30
0.0
 11
212.31038
 21
-86.071119
 31
0.0
  0
LINE
  5
739
330
1D
100
AcDbEntity
  8
Edge.Cuts
  6
Continuous
100
AcDbLine
 10
212.759265
 20
-85.81441699999999
 30
0.0
 11
212.523679
 21
-85.923281
 31
0.0
  0
LINE
  5
73A
330
1D
100
AcDbEntity
  8
Edge.Cuts
  6
Continuous
100
AcDbLine
 10
213.010088
 20
-85.747784
 30
0.0
 11
212.759265
 21
-85.81441699999999
 31
0.0
  0
LINE
  5
73B
330
1D
100
AcDbEntity
  8
Edge.Cuts
  6
Continuous
100
AcDbLine
 10
213.268642
 20
-85.725
 30
0.0
 11
213.010088
 21
-85.747784
 31
0.0
  0
LINE
  5
73C
330
1D
100
AcDbEntity
  8
Edge.Cuts
  6
Continuous
100
AcDbLine
 10
274.724996
 20
-85.72503999999999
 30
0.0
 11
213.268642
 21
-85.725
 31
0.0
  0
LINE
  5
73D
330
1D
100
AcDbEntity
  8
Edge.Cuts
  6
Continuous
100
AcDbLine
 10
274.959669
 20
-85.70661899999999
 30
0.0
 11
274.724996
 21
-85.72503999999999
 31
0.0
  0
LINE
  5
73E
330
1D
100
AcDbEntity
  8
Edge.Cuts
  6
Continuous
100
AcDbLine
 10
275.188567
 20
-85.651699
 30
0.0
 11
274.959669
 21
-85.70661899999999
 31
0.0
  0
LINE
  5
73F
330
1D
100
AcDbEntity
  8
Edge.Cuts
  6
Continuous
100
AcDbLine
 10
275.406052
 20
-85.561638
 30
0.0
 11
275.188567
 21
-85.651699
 31
0.0
  0
LINE
  5
740
330
1D
100
AcDbEntity
  8
Edge.Cuts
  6
Continuous
100
AcDbLine
 10
275.606766
 20
-85.438655
 30
0.0
 11
275.406052
 21
-85.561638
 31
0.0
  0
LINE
  5
741
330
1D
100
AcDbEntity
  8
Edge.Cuts
  6
Continuous
100
AcDbLine
 10
275.785763
 20
-85.28578
 30
0.0
 11
275.606766
 21
-85.438655
 31
0.0
  0
LINE
  5
742
330
1D
100
AcDbEntity
  8
Edge.Cuts
  6
Continuous
100
AcDbLine
 10
275.938633
 20
-85.10677799999999
 30
0.0
 11
275.785763
 21
-85.28578
 31
0.0
  0
LINE
  5
743
330
1D
100
AcDbEntity
  8
Edge.Cuts
  6
Continuous
100
AcDbLine
 10
276.06161
 20
-84.906061
 30
0.0
 11
275.938633
 21
-85.10677799999999
 31
0.0
  0
LINE
  5
744
330
1D
100
AcDbEntity
  8
Edge.Cuts
  6
Continuous
100
AcDbLine
 10
276.151665
 20
-84.68857299999999
 30
0.0
 11
276.06161
 21
-84.906061
 31
0.0
  0
LINE
  5
745
330
1D
100
AcDbEntity
  8
Edge.Cuts
  6
Continuous
100
AcDbLine
 10
276.206577
 20
-84.459673
 30
0.0
 11
276.151665
 21
-84.68857299999999
 31
0.0
  0
LINE
  5
746
330
1D
100
AcDbEntity
  8
Edge.Cuts
  6
Continuous
100
AcDbLine
 10
276.224996
 20
-84.225
 30
0.0
 11
276.206577
 21
-84.459673
 31
0.0
  0
LINE
  5
747
330
1D
100
AcDbEntity
  8
Edge.Cuts
  6
Continuous
100
AcDbLine
 10
276.225636
 20
8.025
 30
0.0
 11
276.224996
 21
-84.225
 31
0.0
  0
LINE
  5
748
330
1D
100
AcDbEntity
  8
Edge.Cuts
  6
Continuous
100
AcDbLine
 10
263.274886
 20
9.525
 30
0.0
 11
274.725
 21
9.525
 31
0.0
  0
LINE
  5
749
330
1D
100
AcDbEntity
  8
Edge.Cuts
  6
Continuous
100
AcDbLine
 10
263.016316
 20
9.547495999999999
 30
0.0
 11
263.274886
 21
9.525
 31
0.0
  0
LINE
  5
74A
330
1D
100
AcDbEntity
  8
Edge.Cuts
  6
Continuous
100
AcDbLine
 10
262.765493
 20
9.614222
 30
0.0
 11
263.016316
 21
9.547495999999999
 31
0.0
  0
LINE
  5
74B
330
1D
100
AcDbEntity
  8
Edge.Cuts
  6
Continuous
100
AcDbLine
 10
262.529921
 20
9.723175
 30
0.0
 11
262.765493
 21
9.614222
 31
0.0
  0
LINE
  5
74C
330
1D
100
AcDbEntity
  8
Edge.Cuts
  6
Continuous
100
AcDbLine
 10
262.31665
 20
9.871094
 30
0.0
 11
262.529921
 21
9.723175
 31
0.0
  0
LINE
  5
74D
330
1D
100
AcDbEntity
  8
Edge.Cuts
  6
Continuous
100
AcDbLine
 10
262.132003
 20
10.053504
 30
0.0
 11
262.31665
 21
9.871094
 31
0.0
  0
LINE
  5
74E
330
1D
100
AcDbEntity
  8
Edge.Cuts
  6
Continuous
100
AcDbLine
 10
259.079806
 20
13.64417
 30
0.0
 11
262.132003
 21
10.053504
 31
0.0
  0
LINE
  5
74F
330
1D
100
AcDbEntity
  8
Edge.Cuts
  6
Continuous
100
AcDbLine
 10
258.865375
 20
13.866912
 30
0.0
 11
259.079806
 21
13.64417
 31
0.0
  0
LINE
  5
750
330
1D
100
AcDbEntity
  8
Edge.Cuts
  6
Continuous
100
AcDbLine
 10
258.625079
 20
14.061471
 30
0.0
 11
258.865375
 21
13.866912
 31
0.0
  0
LINE
  5
751
330
1D
100
AcDbEntity
  8
Edge.Cuts
  6
Continuous
100
AcDbLine
 10
258.362607
 20
14.224882
 30
0.0
 11
258.625079
 21
14.061471
 31
0.0
  0
LINE
  5
752
330
1D
100
AcDbEntity
  8
Edge.Cuts
  6
Continuous
100
AcDbLine
 10
258.081971
 20
14.354646
 30
0.0
 11
258.362607
 21
14.224882
 31
0.0
  0
LINE
  5
753
330
1D
100
AcDbEntity
  8
Edge.Cuts
  6
Continuous
100
AcDbLine
 10
257.787464
 20
14.448778
 30
0.0
 11
258.081971
 21
14.354646
 31
0.0
  0
LINE
  5
754
330
1D
100
AcDbEntity
  8
Edge.Cuts
  6
Continuous
100
AcDbLine
 10
257.48359
 20
14.505839
 30
0.0
 11
257.787464
 21
14.448778
 31
0.0
  0
LINE
  5
755
330
1D
100
AcDbEntity
  8
Edge.Cuts
  6
Continuous
100
AcDbLine
 10
257.174997
 20
14.524956
 30
0.0
 11
257.48359
 21
14.505839
 31
0.0
  0
LINE
  5
756
330
1D
100
AcDbEntity
  8
Edge.Cuts
  6
Continuous
100
AcDbLine
 10
256.866404
 20
14.505837
 30
0.0
 11
257.174997
 21
14.524956
 31
0.0
  0
LINE
  5
757
330
1D
100
AcDbEntity
  8
Edge.Cuts
  6
Continuous
100
AcDbLine
 10
256.56253
 20
14.448773
 30
0.0
 11
256.866404
 21
14.505837
 31
0.0
  0
LINE
  5
758
330
1D
100
AcDbEntity
  8
Edge.Cuts
  6
Continuous
100
AcDbLine
 10
256.268024
 20
14.354638
 30
0.0
 11
256.56253
 21
14.448773
 31
0.0
  0
LINE
  5
759
330
1D
100
AcDbEntity
  8
Edge.Cuts
  6
Continuous
100
AcDbLine
 10
255.987389
 20
14.224872
 30
0.0
 11
256.268024
 21
14.354638
 31
0.0
  0
LINE
  5
75A
330
1D
100
AcDbEntity
  8
Edge.Cuts
  6
Continuous
100
AcDbLine
 10
255.724918
 20
14.061459
 30
0.0
 11
255.987389
 21
14.224872
 31
0.0
  0
LINE
  5
75B
330
1D
100
AcDbEntity
  8
Edge.Cuts
  6
Continuous
100
AcDbLine
 10
255.484624
 20
13.866898
 30
0.0
 11
255.724918
 21
14.061459
 31
0.0
  0
LINE
  5
75C
330
1D
100
AcDbEntity
  8
Edge.Cuts
  6
Continuous
100
AcDbLine
 10
255.270182
 20
13.644165
 30
0.0
 11
255.484624
 21
13.866898
 31
0.0
  0
LINE
  5
75D
330
1D
100
AcDbEntity
  8
Edge.Cuts
  6
Continuous
100
AcDbLine
 10
252.217996
 20
10.05351
 30
0.0
 11
255.270182
 21
13.644165
 31
0.0
  0
LINE
  5
75E
330
1D
100
AcDbEntity
  8
Edge.Cuts
  6
Continuous
100
AcDbLine
 10
252.033433
 20
9.870999
 30
0.0
 11
252.217996
 21
10.05351
 31
0.0
  0
LINE
  5
75F
330
1D
100
AcDbEntity
  8
Edge.Cuts
  6
Continuous
100
AcDbLine
 10
251.820155
 20
9.72306
 30
0.0
 11
252.033433
 21
9.870999
 31
0.0
  0
LINE
  5
760
330
1D
100
AcDbEntity
  8
Edge.Cuts
  6
Continuous
100
AcDbLine
 10
251.584558
 20
9.61412
 30
0.0
 11
251.820155
 21
9.72306
 31
0.0
  0
LINE
  5
761
330
1D
100
AcDbEntity
  8
Edge.Cuts
  6
Continuous
100
AcDbLine
 10
251.333703
 20
9.547443
 30
0.0
 11
251.584558
 21
9.61412
 31
0.0
  0
LINE
  5
762
330
1D
100
AcDbEntity
  8
Edge.Cuts
  6
Continuous
100
AcDbLine
 10
251.075108
 20
9.525
 30
0.0
 11
251.333703
 21
9.547443
 31
0.0
  0
LINE
  5
763
330
1D
100
AcDbEntity
  8
Edge.Cuts
  6
Continuous
100
AcDbLine
 10
181.274886
 20
9.525
 30
0.0
 11
251.075108
 21
9.525
 31
0.0
  0
LINE
  5
764
330
1D
100
AcDbEntity
  8
Edge.Cuts
  6
Continuous
100
AcDbLine
 10
181.016316
 20
9.547495999999999
 30
0.0
 11
181.274886
 21
9.525
 31
0.0
  0
LINE
  5
765
330
1D
100
AcDbEntity
  8
Edge.Cuts
  6
Continuous
100
AcDbLine
 10
180.765493
 20
9.614222
 30
0.0
 11
181.016316
 21
9.547495999999999
 31
0.0
  0
LINE
  5
766
330
1D
100
AcDbEntity
  8
Edge.Cuts
  6
Continuous
100
AcDbLine
 10
180.529921
 20
9.723175
 30
0.0
 11
180.765493
 21
9.614222
 31
0.0
  0
LINE
  5
767
330
1D
100
AcDbEntity
  8
Edge.Cuts
  6
Continuous
100
AcDbLine
 10
180.31665
 20
9.871094
 30
0.0
 11
180.529921
 21
9.723175
 31
0.0
  0
LINE
  5
768
330
1D
100
AcDbEntity
  8
Edge.Cuts
  6
Continuous
100
AcDbLine
 10
180.132003
 20
10.053504
 30
0.0
 11
180.31665
 21
9.871094
 31
0.0
  0
LINE
  5
769
330
1D
100
AcDbEntity
  8
Edge.Cuts
  6
Continuous
100
AcDbLine
 10
177.079806
 20
13.64417
 30
0.0
 11
180.132003
 21
10.053504
 31
0.0
  0
LINE
  5
76A
330
1D
100
AcDbEntity
  8
Edge.Cuts
  6
Continuous
100
AcDbLine
 10
176.865384
 20
13.866928
 30
0.0
 11
177.079806
 21
13.64417
 31
0.0
  0
LINE
  5
76B
330
1D
100
AcDbEntity
  8
Edge.Cuts
  6
Continuous
100
AcDbLine
 10
176.625093
 20
14.061502
 30
0.0
 11
176.865384
 21
13.866928
 31
0.0
  0
LINE
  5
76C
330
1D
100
AcDbEntity
  8
Edge.Cuts
  6
Continuous
100
AcDbLine
 10
176.362622
 20
14.224927
 30
0.0
 11
176.625093
 21
14.061502
 31
0.0
  0
LINE
  5
76D
330
1D
100
AcDbEntity
  8
Edge.Cuts
  6
Continuous
100
AcDbLine
 10
176.081984
 20
14.354702
 30
0.0
 11
176.362622
 21
14.224927
 31
0.0
  0
LINE
  5
76E
330
1D
100
AcDbEntity
  8
Edge.Cuts
  6
Continuous
100
AcDbLine
 10
175.787474
 20
14.448842
 30
0.0
 11
176.081984
 21
14.354702
 31
0.0
  0
LINE
  5
76F
330
1D
100
AcDbEntity
  8
Edge.Cuts
  6
Continuous
100
AcDbLine
 10
175.483595
 20
14.505908
 30
0.0
 11
175.787474
 21
14.448842
 31
0.0
  0
ARC
  5
7B8
330
1D
100
AcDbEntity
  8
BLACK
100
AcDbCircle
 10
13.94375
 20
-31.6
 30
0.0
 40
0.5
100
AcDbArc
 50
0.0
 51
90.0
  0
ARC
  5
7B9
330
1D
100
AcDbEntity
  8
BLACK
100
AcDbCircle
 10
0.343751
 20
-44.599999
 30
0.0
 40
0.500001
100
AcDbArc
 50
180.00011459
 51
270.0
  0
ARC
  5
7BA
330
1D
100
AcDbEntity
  8
BLACK
100
AcDbCircle
 10
0.343751
 20
-31.600001
 30
0.0
 40
0.500001000001
100
AcDbArc
 50
90.0
 51
179.99988541
  0
LINE
  5
7BB
330
1D
100
AcDbEntity
  8
BLACK
  6
Continuous
100
AcDbLine
 10
0.343751
 20
-45.1
 30
0.0
 11
13.94375
 21
-45.1
 31
0.0
  0
LINE
  5
7BC
330
1D
100
AcDbEntity
  8
BLACK
  6
Continuous
100
AcDbLine
 10
13.94375
 20
-31.1
 30
0.0
 11
0.343751
 21
-31.1
 31
0.0
  0
ARC
  5
7BD
330
1D
100
AcDbEntity
  8
BLACK
100
AcDbCircle
 10
13.94375
 20
-44.6
 30
0.0
 40
0.5
100
AcDbArc
 50
270.0
 51
0.0
  0
LINE
  5
7BE
330
1D
100
AcDbEntity
  8
BLACK
  6
Continuous
100
AcDbLine
 10
-0.15625
 20
-31.6
 30
0.0
 11
-0.15625
 21
-44.6
 31
0.0
  0
LINE
  5
7BF
330
1D
100
AcDbEntity
  8
BLACK
  6
Continuous
100
AcDbLine
 10
14.44375
 20
-44.6
 30
0.0
 11
14.44375
 21
-31.6
 31
0.0
  0
CIRCLE
  5
7C1
330
1D
100
AcDbEntity
  8
0
100
AcDbCircle
 10
273.6
 20
-7.199999999999999
 30
0.0
 40
1.0
  0
CIRCLE
  5
7C2
330
1D
100
AcDbEntity
  8
0
100
AcDbCircle
 10
240.8
 20
-7.199999999999999
 30
0.0
 40
1.0
  0
LWPOLYLINE
  5
7C3
330
1D
100
AcDbEntity
  8
0
100
AcDbPolyline
 90
8
 70
1
 10
241.2
 20
6.475
 10
241.2
 20
-5.243000000000002
 10
244.2
 20
-6.975
 10
270.2
 20
-6.975
 10
273.2
 20
-5.243000000000002
 10
273.2
 20
6.475
 42
0.4142135623730951
 10
272.7
 20
6.975
 10
241.7
 20
6.975
 42
0.4142123908030632
  0
CIRCLE
  5
7C4
330
1D
100
AcDbEntity
  8
0
100
AcDbCircle
 10
33.33750000000001
 20
-57.15
 30
0.0
 40
1.0
  0
CIRCLE
  5
7C5
330
1D
100
AcDbEntity
  8
0
100
AcDbCircle
 10
-4.49375
 20
-64.35
 30
0.0
 40
1.0
  0
LWPOLYLINE
  5
7C6
330
1D
100
AcDbEntity
  8
0
100
AcDbPolyline
 90
8
 70
1
 10
-4.09375
 20
-50.675
 10
-4.09375
 20
-62.393
 10
-1.09375
 20
-64.125
 10
24.90625
 20
-64.125
 10
27.90625
 20
-62.393
 10
27.90625
 20
-50.675
 42
0.4142135623730951
 10
27.40625
 20
-50.175
 10
-3.59375
 20
-50.175
 42
0.4142123908030466
  0
CIRCLE
  5
7C7
330
1D
100
AcDbEntity
  8
BLACK
100
AcDbCircle
 10
257.175
 20
-57.15
 30
0.0
 40
1.0
  0
ARC
  5
7C8
330
1D
100
AcDbEntity
  8
BLACK
100
AcDbCircle
 10
233.706162
 20
-50.652003
 30
0.0
 40
0.499912
100
AcDbArc
 50
89.98991497
 51
180.0
  0
LINE
  5
7C9
330
1D
100
AcDbEntity
  8
BLACK
  6
Continuous
100
AcDbLine
 10
247.306162
 20
-50.152051
 30
0.0
 11
233.70625
 21
-50.152051
 31
0.0
  0
ARC
  5
7CA
330
1D
100
AcDbEntity
  8
BLACK
100
AcDbCircle
 10
247.306162
 20
-50.652203
 30
0.0
 40
0.5001519999999999
100
AcDbArc
 50
0.9350486999999998
 51
90.0
  0
LINE
  5
7CB
330
1D
100
AcDbEntity
  8
BLACK
  6
Continuous
100
AcDbLine
 10
247.80625
 20
-63.651903
 30
0.0
 11
247.80625
 21
-50.64404099999999
 31
0.0
  0
ARC
  5
7CC
330
1D
100
AcDbEntity
  8
BLACK
100
AcDbCircle
 10
247.306062
 20
-63.651903
 30
0.0
 40
0.500188
100
AcDbArc
 50
270.7268293
 51
0.0
  0
LINE
  5
7CD
330
1D
100
AcDbEntity
  8
BLACK
  6
Continuous
100
AcDbLine
 10
233.706262
 20
-64.152051
 30
0.0
 11
247.312407
 21
-64.152051
 31
0.0
  0
ARC
  5
7CE
330
1D
100
AcDbEntity
  8
BLACK
100
AcDbCircle
 10
233.706262
 20
-63.652103
 30
0.0
 40
0.499948
100
AcDbArc
 50
179.99404138
 51
270.0
  0
LINE
  5
7CF
330
1D
100
AcDbEntity
  8
BLACK
  6
Continuous
100
AcDbLine
 10
233.20625
 20
-50.652003
 30
0.0
 11
233.20625
 21
-63.652051
 31
0.0
  0
ARC
  5
7D0
330
1D
100
AcDbEntity
  8
BLACK
100
AcDbCircle
 10
259.897462
 20
-50.652003
 30
0.0
 40
0.5
100
AcDbArc
 50
90.0
 51
180.0
  0
LINE
  5
7D1
330
1D
100
AcDbEntity
  8
BLACK
  6
Continuous
100
AcDbLine
 10
273.497462
 20
-50.152003
 30
0.0
 11
259.897462
 21
-50.152003
 31
0.0
  0
ARC
  5
7D2
330
1D
100
AcDbEntity
  8
BLACK
100
AcDbCircle
 10
273.497462
 20
-50.652003
 30
0.0
 40
0.5
100
AcDbArc
 50
0.0
 51
90.0
  0
LINE
  5
7D3
330
1D
100
AcDbEntity
  8
BLACK
  6
Continuous
100
AcDbLine
 10
273.997462
 20
-63.652003
 30
0.0
 11
273.997462
 21
-50.652003
 31
0.0
  0
ARC
  5
7D4
330
1D
100
AcDbEntity
  8
BLACK
100
AcDbCircle
 10
273.497462
 20
-63.652003
 30
0.0
 40
0.5
100
AcDbArc
 50
270.0
 51
0.0
  0
LINE
  5
7D5
330
1D
100
AcDbEntity
  8
BLACK
  6
Continuous
100
AcDbLine
 10
259.897462
 20
-64.152003
 30
0.0
 11
273.497462
 21
-64.152003
 31
0.0
  0
ARC
  5
7D6
330
1D
100
AcDbEntity
  8
BLACK
100
AcDbCircle
 10
259.897462
 20
-63.652003
 30
0.0
 40
0.5
100
AcDbArc
 50
180.0
 51
270.0
  0
LINE
  5
7D7
330
1D
100
AcDbEntity
  8
BLACK
  6
Continuous
100
AcDbLine
 10
259.397462
 20
-50.652003
 30
0.0
 11
259.397462
 21
-63.652003
 31
0.0
  0
CIRCLE
  5
7D8
330
1D
100
AcDbEntity
  8
0
100
AcDbCircle
 10
233.3625
 20
-38.10000000000001
 30
0.0
 40
1.0
  0
CIRCLE
  5
7D9
330
1D
100
AcDbEntity
  8
0
100
AcDbCircle
 10
271.5187500000001
 20
-12.175
 30
0.0
 40
1.0
  0
LWPOLYLINE
  5
7DA
330
1D
100
AcDbEntity
  8
0
100
AcDbPolyline
 90
8
 70
1
 10
235.59375
 20
-31.6
 10
235.59375
 20
-44.6
 42
0.4142123908030397
 10
236.09375
 20
-45.10000000000001
 10
249.69375
 20
-45.10000000000001
 42
0.4142135623730951
 10
250.19375
 20
-44.6
 10
250.19375
 20
-31.6
 42
0.4142135623730951
 10
249.69375
 20
-31.1
 10
236.09375
 20
-31.1
 42
0.4142123908030423
  0
LWPOLYLINE
  5
7DB
330
1D
100
AcDbEntity
  8
0
100
AcDbPolyline
 90
8
 70
1
 10
257.34375
 20
-44.075
 10
257.34375
 20
-13.075
 42
-0.4142135623730951
 10
257.84375
 20
-12.575
 10
269.56175
 20
-12.575
 10
271.29375
 20
-15.575
 10
271.29375
 20
-41.575
 10
269.56175
 20
-44.575
 10
257.84375
 20
-44.57500000000002
 42
-0.4142123908030397
  0
LINE
  5
7DC
330
1D
100
AcDbEntity
  8
Edge.Cuts
  6
Continuous
100
AcDbLine
 10
-2.5375
 20
-69.700001
 30
0.0
 11
-2.5375
 21
-82.69999899999999
 31
0.0
  0
ARC
  5
7DD
330
1D
100
AcDbEntity
  8
Edge.Cuts
100
AcDbCircle
 10
-2.037478
 20
-69.700041
 30
0.0
 40
0.5000220015999296
100
AcDbArc
 50
90.00240623
 51
179.99541654
  0
ARC
  5
7DE
330
1D
100
AcDbEntity
  8
Edge.Cuts
100
AcDbCircle
 10
-2.037478
 20
-82.700041
 30
0.0
 40
0.4999590004410361
100
AcDbArc
 50
179.99518737
 51
269.99759338
  0
LINE
  5
7DF
330
1D
100
AcDbEntity
  8
Edge.Cuts
  6
Continuous
100
AcDbLine
 10
-2.037499
 20
-83.2
 30
0.0
 11
11.5625
 21
-83.2
 31
0.0
  0
LINE
  5
7E0
330
1D
100
AcDbEntity
  8
Edge.Cuts
  6
Continuous
100
AcDbLine
 10
11.5625
 20
-69.2
 30
0.0
 11
-2.037499
 21
-69.2
 31
0.0
  0
ARC
  5
7E1
330
1D
100
AcDbEntity
  8
Edge.Cuts
100
AcDbCircle
 10
11.562522
 20
-69.700041
 30
0.0
 40
0.5000410004839603
100
AcDbArc
 50
0.00469846
 51
90.00252081
  0
ARC
  5
7E2
330
1D
100
AcDbEntity
  8
Edge.Cuts
100
AcDbCircle
 10
11.562522
 20
-82.700041
 30
0.0
 40
0.499978001681074
100
AcDbArc
 50
269.99747878
 51
0.00469846
  0
LINE
  5
7E3
330
1D
100
AcDbEntity
  8
Edge.Cuts
  6
Continuous
100
AcDbLine
 10
12.0625
 20
-82.7
 30
0.0
 11
12.0625
 21
-69.7
 31
0.0
  0
CIRCLE
  5
7E4
330
1D
100
AcDbEntity
  8
Edge.Cuts
100
AcDbCircle
 10
15.478125
 20
-76.2
 30
0.0
 40
1.0
  0
CIRCLE
  5
7E5
330
1D
100
AcDbEntity
  8
Edge.Cuts
100
AcDbCircle
 10
39.290625
 20
-76.2
 30
0.0
 40
1.0
  0
LINE
  5
7E6
330
1D
100
AcDbEntity
  8
Edge.Cuts
  6
Continuous
100
AcDbLine
 10
45.0875
 20
-69.7
 30
0.0
 11
45.0875
 21
-82.7
 31
0.0
  0
ARC
  5
7E7
330
1D
100
AcDbEntity
  8
Edge.Cuts
100
AcDbCircle
 10
45.587522
 20
-69.700041
 30
0.0
 40
0.500022001680926
100
AcDbArc
 50
90.00252081
 51
179.99530195
  0
ARC
  5
7E8
330
1D
100
AcDbEntity
  8
Edge.Cuts
100
AcDbCircle
 10
45.587522
 20
-82.700041
 30
0.0
 40
0.4999590004840397
100
AcDbArc
 50
179.99530195
 51
269.99747878
  0
LINE
  5
7E9
330
1D
100
AcDbEntity
  8
Edge.Cuts
  6
Continuous
100
AcDbLine
 10
45.5875
 20
-83.2
 30
0.0
 11
59.1875
 21
-83.2
 31
0.0
  0
LINE
  5
7EA
330
1D
100
AcDbEntity
  8
Edge.Cuts
  6
Continuous
100
AcDbLine
 10
59.1875
 20
-69.2
 30
0.0
 11
45.5875
 21
-69.2
 31
0.0
  0
ARC
  5
7EB
330
1D
100
AcDbEntity
  8
Edge.Cuts
100
AcDbCircle
 10
59.18752199999999
 20
-69.700041
 30
0.0
 40
0.5000410004839603
100
AcDbArc
 50
0.00469846
 51
90.00252081
  0
ARC
  5
7EC
330
1D
100
AcDbEntity
  8
Edge.Cuts
100
AcDbCircle
 10
59.18752199999999
 20
-82.700041
 30
0.0
 40
0.499978001681074
100
AcDbArc
 50
269.99747878
 51
0.00469846
  0
LINE
  5
7ED
330
1D
100
AcDbEntity
  8
Edge.Cuts
  6
Continuous
100
AcDbLine
 10
59.6875
 20
-82.7
 30
0.0
 11
59.6875
 21
-69.7
 31
0.0
  0
CIRCLE
  5
7EE
330
1D
100
AcDbEntity
  8
Edge.Cuts
100
AcDbCircle
 10
61.91249999999999
 20
-76.2
 30
0.0
 40
1.0
  0
CIRCLE
  5
7EF
330
1D
100
AcDbEntity
  8
Edge.Cuts
100
AcDbCircle
 10
104.775
 20
-76.2
 30
0.0
 40
1.0
  0
LINE
  5
7F0
330
1D
100
AcDbEntity
  8
Edge.Cuts
  6
Continuous
100
AcDbLine
 10
126.05
 20
-69.7
 30
0.0
 11
126.05
 21
-82.7
 31
0.0
  0
ARC
  5
7F1
330
1D
100
AcDbEntity
  8
Edge.Cuts
100
AcDbCircle
 10
126.550022
 20
-69.700041
 30
0.0
 40
0.500022001680926
100
AcDbArc
 50
90.00252081
 51
179.99530195
  0
ARC
  5
7F2
330
1D
100
AcDbEntity
  8
Edge.Cuts
100
AcDbCircle
 10
126.550022
 20
-82.700041
 30
0.0
 40
0.4999590004840397
100
AcDbArc
 50
179.99530195
 51
269.99747878
  0
LINE
  5
7F3
330
1D
100
AcDbEntity
  8
Edge.Cuts
  6
Continuous
100
AcDbLine
 10
126.55
 20
-83.2
 30
0.0
 11
140.15
 21
-83.2
 31
0.0
  0
LINE
  5
7F4
330
1D
100
AcDbEntity
  8
Edge.Cuts
  6
Continuous
100
AcDbLine
 10
140.15
 20
-69.2
 30
0.0
 11
126.55
 21
-69.2
 31
0.0
  0
ARC
  5
7F5
330
1D
100
AcDbEntity
  8
Edge.Cuts
100
AcDbCircle
 10
140.150022
 20
-69.700041
 30
0.0
 40
0.5000410004839603
100
AcDbArc
 50
0.00469846
 51
90.00252081
  0
ARC
  5
7F6
330
1D
100
AcDbEntity
  8
Edge.Cuts
100
AcDbCircle
 10
140.150022
 20
-82.700041
 30
0.0
 40
0.499978001681074
100
AcDbArc
 50
269.99747878
 51
0.00469846
  0
LINE
  5
7F7
330
1D
100
AcDbEntity
  8
Edge.Cuts
  6
Continuous
100
AcDbLine
 10
140.65
 20
-82.7
 30
0.0
 11
140.65
 21
-69.7
 31
0.0
  0
CIRCLE
  5
7F8
330
1D
100
AcDbEntity
  8
Edge.Cuts
100
AcDbCircle
 10
142.875
 20
-76.2
 30
0.0
 40
1.0
  0
CIRCLE
  5
7F9
330
1D
100
AcDbEntity
  8
Edge.Cuts
100
AcDbCircle
 10
171.45
 20
-76.2
 30
0.0
 40
1.0
  0
CIRCLE
  5
7FA
330
1D
100
AcDbEntity
  8
Edge.Cuts
100
AcDbCircle
 10
204.7875
 20
-76.2
 30
0.0
 40
1.0
  0
LINE
  5
7FB
330
1D
100
AcDbEntity
  8
Edge.Cuts
  6
Continuous
100
AcDbLine
 10
207.0125
 20
-69.7
 30
0.0
 11
207.0125
 21
-82.7
 31
0.0
  0
ARC
  5
7FC
330
1D
100
AcDbEntity
  8
Edge.Cuts
100
AcDbCircle
 10
207.512522
 20
-69.700041
 30
0.0
 40
0.500022001680926
100
AcDbArc
 50
90.00252081
 51
179.99530195
  0
ARC
  5
7FD
330
1D
100
AcDbEntity
  8
Edge.Cuts
100
AcDbCircle
 10
207.512522
 20
-82.700041
 30
0.0
 40
0.4999590004840397
100
AcDbArc
 50
179.99530195
 51
269.99747878
  0
LINE
  5
7FE
330
1D
100
AcDbEntity
  8
Edge.Cuts
  6
Continuous
100
AcDbLine
 10
207.5125
 20
-83.2
 30
0.0
 11
221.1125
 21
-83.2
 31
0.0
  0
LINE
  5
7FF
330
1D
100
AcDbEntity
  8
Edge.Cuts
  6
Continuous
100
AcDbLine
 10
221.1125
 20
-69.2
 30
0.0
 11
207.5125
 21
-69.2
 31
0.0
  0
ARC
  5
800
330
1D
100
AcDbEntity
  8
Edge.Cuts
100
AcDbCircle
 10
221.112522
 20
-69.700041
 30
0.0
 40
0.5000410004839603
100
AcDbArc
 50
0.00469846
 51
90.00252081
  0
ARC
  5
801
330
1D
100
AcDbEntity
  8
Edge.Cuts
100
AcDbCircle
 10
221.112522
 20
-82.700041
 30
0.0
 40
0.499978001681074
100
AcDbArc
 50
269.99747878
 51
0.00469846
  0
LINE
  5
802
330
1D
100
AcDbEntity
  8
Edge.Cuts
  6
Continuous
100
AcDbLine
 10
221.6125
 20
-82.7
 30
0.0
 11
221.6125
 21
-69.7
 31
0.0
  0
CIRCLE
  5
803
330
1D
100
AcDbEntity
  8
Edge.Cuts
100
AcDbCircle
 10
228.6
 20
-76.2
 30
0.0
 40
1.0
  0
CIRCLE
  5
804
330
1D
100
AcDbEntity
  8
Edge.Cuts
100
AcDbCircle
 10
251.221875
 20
-76.2
 30
0.0
 40
1.0
  0
LINE
  5
805
330
1D
100
AcDbEntity
  8
Edge.Cuts
  6
Continuous
100
AcDbLine
 10
254.6375
 20
-69.7
 30
0.0
 11
254.6375
 21
-82.7
 31
0.0
  0
ARC
  5
806
330
1D
100
AcDbEntity
  8
Edge.Cuts
100
AcDbCircle
 10
255.137522
 20
-69.700041
 30
0.0
 40
0.500022001680926
100
AcDbArc
 50
90.00252081
 51
179.99530195
  0
ARC
  5
807
330
1D
100
AcDbEntity
  8
Edge.Cuts
100
AcDbCircle
 10
255.137522
 20
-82.700041
 30
0.0
 40
0.4999590004840397
100
AcDbArc
 50
179.99530195
 51
269.99747878
  0
LINE
  5
808
330
1D
100
AcDbEntity
  8
Edge.Cuts
  6
Continuous
100
AcDbLine
 10
255.1375
 20
-83.2
 30
0.0
 11
268.7375
 21
-83.2
 31
0.0
  0
LINE
  5
809
330
1D
100
AcDbEntity
  8
Edge.Cuts
  6
Continuous
100
AcDbLine
 10
268.7375
 20
-69.2
 30
0.0
 11
255.1375
 21
-69.2
 31
0.0
  0
ARC
  5
80A
330
1D
100
AcDbEntity
  8
Edge.Cuts
100
AcDbCircle
 10
268.737522
 20
-69.700041
 30
0.0
 40
0.5000410004839603
100
AcDbArc
 50
0.00469846
 51
90.00252081
  0
ARC
  5
80B
330
1D
100
AcDbEntity
  8
Edge.Cuts
100
AcDbCircle
 10
268.737522
 20
-82.700041
 30
0.0
 40
0.499978001681074
100
AcDbArc
 50
269.99747878
 51
0.00469846
  0
LINE
  5
80C
330
1D
100
AcDbEntity
  8
Edge.Cuts
  6
Continuous
100
AcDbLine
 10
269.2375
 20
-82.7
 30
0.0
 11
269.2375
 21
-69.7
 31
0.0
  0
LINE
  5
80D
330
1D
100
AcDbEntity
  8
Edge.Cuts
  6
Continuous
100
AcDbLine
 10
78.91839999999999
 20
-82.64999999999999
 30
0.0
 11
78.91839999999999
 21
-69.75
 31
0.0
  0
LINE
  5
80E
330
1D
100
AcDbEntity
  8
Edge.Cuts
  6
Continuous
100
AcDbLine
 10
79.41839999999999
 20
-69.25
 30
0.0
 11
92.0184
 21
-69.25
 31
0.0
  0
LINE
  5
80F
330
1D
100
AcDbEntity
  8
Edge.Cuts
  6
Continuous
100
AcDbLine
 10
92.0184
 20
-83.14999999999999
 30
0.0
 11
79.41839999999999
 21
-83.14999999999999
 31
0.0
  0
LINE
  5
810
330
1D
100
AcDbEntity
  8
Edge.Cuts
  6
Continuous
100
AcDbLine
 10
92.5184
 20
-69.75
 30
0.0
 11
92.5184
 21
-82.64999999999999
 31
0.0
  0
LINE
  5
811
330
1D
100
AcDbEntity
  8
Edge.Cuts
  6
Continuous
100
AcDbLine
 10
174.175
 20
-82.64999999999999
 30
0.0
 11
174.175
 21
-69.75
 31
0.0
  0
LINE
  5
812
330
1D
100
AcDbEntity
  8
Edge.Cuts
  6
Continuous
100
AcDbLine
 10
174.675
 20
-69.25
 30
0.0
 11
187.275
 21
-69.25
 31
0.0
  0
LINE
  5
813
330
1D
100
AcDbEntity
  8
Edge.Cuts
  6
Continuous
100
AcDbLine
 10
187.275
 20
-83.14999999999999
 30
0.0
 11
174.675
 21
-83.14999999999999
 31
0.0
  0
LINE
  5
814
330
1D
100
AcDbEntity
  8
Edge.Cuts
  6
Continuous
100
AcDbLine
 10
187.775
 20
-69.75
 30
0.0
 11
187.775
 21
-82.64999999999999
 31
0.0
  0
ARC
  5
815
330
1D
100
AcDbEntity
  8
Edge.Cuts
100
AcDbCircle
 10
79.418401
 20
-69.750001
 30
0.0
 40
0.500001000001
100
AcDbArc
 50
90.00011459
 51
179.99988541
  0
ARC
  5
816
330
1D
100
AcDbEntity
  8
Edge.Cuts
100
AcDbCircle
 10
79.418401
 20
-82.649999
 30
0.0
 40
0.500001000001
100
AcDbArc
 50
180.00011459
 51
269.99988541
  0
ARC
  5
817
330
1D
100
AcDbEntity
  8
Edge.Cuts
100
AcDbCircle
 10
92.018399
 20
-69.750001
 30
0.0
 40
0.500001000001
100
AcDbArc
 50
0.00011459
 51
89.99988541
  0
ARC
  5
818
330
1D
100
AcDbEntity
  8
Edge.Cuts
100
AcDbCircle
 10
92.018399
 20
-82.649999
 30
0.0
 40
0.500001000001
100
AcDbArc
 50
270.00011459
 51
359.99988541
  0
ARC
  5
819
330
1D
100
AcDbEntity
  8
Edge.Cuts
100
AcDbCircle
 10
174.675
 20
-69.75
 30
0.0
 40
0.5
100
AcDbArc
 50
90.0
 51
180.0
  0
ARC
  5
81A
330
1D
100
AcDbEntity
  8
Edge.Cuts
100
AcDbCircle
 10
174.675
 20
-82.64999999999999
 30
0.0
 40
0.5
100
AcDbArc
 50
180.0
 51
270.0
  0
ARC
  5
81B
330
1D
100
AcDbEntity
  8
Edge.Cuts
100
AcDbCircle
 10
187.275
 20
-69.75
 30
0.0
 40
0.5
100
AcDbArc
 50
0.0
 51
90.0
  0
ARC
  5
81C
330
1D
100
AcDbEntity
  8
Edge.Cuts
100
AcDbCircle
 10
187.275
 20
-82.64999999999999
 30
0.0
 40
0.5
100
AcDbArc
 50
270.0
 51
0.0
  0
ENDSEC
  0
SECTION
  2
OBJECTS
  0
DICTIONARY
  5
C
330
0
100
AcDbDictionary
281
1
  3
ACAD_DETAILVIEWSTYLE
350
7AF
  3
ACAD_GROUP
350
D
  3
ACAD_LAYOUT
350
1A
  3
ACAD_MATERIAL
350
79F
  3
ACAD_MLEADERSTYLE
350
7A5
  3
ACAD_MLINESTYLE
350
17
  3
ACAD_PLOTSETTINGS
350
19
  3
ACAD_PLOTSTYLENAME
350
E
  3
ACAD_SCALELIST
350
770
  3
ACAD_SECTIONVIEWSTYLE
350
7B0
  3
ACAD_TABLESTYLE
350
7A3
  3
ACAD_VISUALSTYLE
350
786
  3
AcDbVariableDictionary
350
7A7
  3
ACDB_RECOMPOSE_DATA
350
7AB
  3
ACAD_COLOR
350
7B1
  3
EZDXF_META
350
7B6
  0
DICTIONARY
  5
7AF
102
{ACAD_REACTORS
330
C
102
}
330
C
100
AcDbDictionary
281
1
  0
DICTIONARY
  5
D
102
{ACAD_REACTORS
330
C
102
}
330
C
100
AcDbDictionary
281
1
  0
DICTIONARY
  5
1A
102
{ACAD_REACTORS
330
C
102
}
330
C
100
AcDbDictionary
281
1
  3
Layout1
350
1C
  3
Model
350
1E
  0
DICTIONARY
  5
79F
102
{ACAD_REACTORS
330
C
102
}
330
C
100
AcDbDictionary
281
1
  3
ByBlock
350
7A1
  3
ByLayer
350
7A0
  3
Global
350
7A2
  0
DICTIONARY
  5
7A5
102
{ACAD_REACTORS
330
C
102
}
330
C
100
AcDbDictionary
281
1
  3
Standard
350
7A6
  0
DICTIONARY
  5
17
102
{ACAD_REACTORS
330
C
102
}
330
C
100
AcDbDictionary
281
1
  3
Standard
350
18
  0
DICTIONARY
  5
19
102
{ACAD_REACTORS
330
C
102
}
330
C
100
AcDbDictionary
281
1
  0
ACDBDICTIONARYWDFLT
  5
E
102
{ACAD_REACTORS
330
C
102
}
330
C
100
AcDbDictionary
281
1
  3
Normal
350
F
100
AcDbDictionaryWithDefault
340
F
  0
DICTIONARY
  5
770
102
{ACAD_REACTORS
330
C
102
}
330
C
100
AcDbDictionary
281
1
  3
A0
350
771
  3
A1
350
772
  3
A2
350
773
  3
A3
350
774
  3
A4
350
775
  3
A5
350
776
  3
A6
350
777
  3
A7
350
778
  3
A8
350
779
  3
A9
350
77A
  3
B0
350
77B
  3
B1
350
77C
  3
B2
350
77D
  3
B3
350
77E
  3
B4
350
77F
  3
B5
350
780
  3
B6
350
781
  0
DICTIONARY
  5
7B0
102
{ACAD_REACTORS
330
C
102
}
330
C
100
AcDbDictionary
281
1
  0
DICTIONARY
  5
7A3
102
{ACAD_REACTORS
330
C
102
}
330
C
100
AcDbDictionary
281
1
  3
Standard
350
7A4
  0
DICTIONARY
  5
786
102
{ACAD_REACTORS
330
C
102
}
330
C
100
AcDbDictionary
281
1
  3
2dWireframe
350
78B
  3
Basic
350
78E
  3
Brighten
350
792
  3
ColorChange
350
796
  3
Conceptual
350
790
  3
Dim
350
791
  3
EdgeColorOff
350
799
  3
Facepattern
350
795
  3
Flat
350
787
  3
FlatWithEdges
350
788
  3
Gouraud
350
789
  3
GouraudWithEdges
350
78A
  3
Hidden
350
78D
  3
JitterOff
350
797
  3
Linepattern
350
794
  3
OverhangOff
350
798
  3
Realistic
350
78F
  3
Shaded
350
79E
  3
Shaded with edges
350
79D
  3
Shades of Gray
350
79A
  3
Sketchy
350
79B
  3
Thicken
350
793
  3
Wireframe
350
78C
  3
X-Ray
350
79C
  0
DICTIONARY
  5
7A7
102
{ACAD_REACTORS
330
C
102
}
330
C
100
AcDbDictionary
281
1
  3
CANNOSCALE
350
7A8
  3
CMLEADERSTYLE
350
7AD
  3
CTABLESTYLE
350
7AC
  3
MSLTSCALE
350
7AE
  0
XRECORD
  5
7AB
102
{ACAD_REACTORS
330
C
102
}
330
C
100
AcDbXrecord
280
1
 90
1
330
7A4
  0
LAYOUT
  5
1C
102
{ACAD_REACTORS
330
1A
102
}
330
1A
100
AcDbPlotSettings
  1

  2
none_device
  4

  6

 40
0.0
 41
0.0
 42
0.0
 43
0.0
 44
0.0
 45
0.0
 46
0.0
 47
0.0
 48
0.0
 49
0.0
140
0.0
141
0.0
142
1.0
143
1.0
 70
688
 72
0
 73
0
 74
5
  7

 75
16
 76
0
 77
2
 78
300
147
1.0
148
0.0
149
0.0
100
AcDbLayout
  1
Layout1
 70
1
 71
1
 10
0.0
 20
0.0
 11
12.0
 21
9.0
 12
0.0
 22
0.0
 32
0.0
 14
1e+20
 24
1e+20
 34
1e+20
 15
-1e+20
 25
-1e+20
 35
-1e+20
146
0.0
 13
0.0
 23
0.0
 33
0.0
 16
1.0
 26
0.0
 36
0.0
 17
0.0
 27
1.0
 37
0.0
 76
0
330
1B
  0
LAYOUT
  5
1E
102
{ACAD_REACTORS
330
1A
102
}
330
1A
100
AcDbPlotSettings
  1

  2
none_device
  4
Letter_(8.50_x_11.00_Inches)
  6

 40
6.35
 41
6.35
 42
6.35000508
 43
6.35000508
 44
215.9
 45
279.4
 46
0.0
 47
0.0
 48
0.0
 49
0.0
140
0.0
141
0.0
142
1.0
143
1.0
 70
1712
 72
0
 73
0
 74
0
  7

 75
0
 76
0
 77
2
 78
300
147
1.0
148
0.0
149
0.0
100
AcDbLayout
  1
Model
 70
1
 71
0
 10
0.0
 20
0.0
 11
12.0
 21
9.0
 12
0.0
 22
0.0
 32
0.0
 14
1e+20
 24
1e+20
 34
1e+20
 15
-1e+20
 25
-1e+20
 35
-1e+20
146
0.0
 13
0.0
 23
0.0
 33
0.0
 16
1.0
 26
0.0
 36
0.0
 17
0.0
 27
1.0
 37
0.0
 76
0
330
1D
331
442
  0
MATERIAL
  5
7A1
102
{ACAD_REACTORS
330
79F
102
}
330
79F
100
AcDbMaterial
  1
ByBlock
  2

 70
0
 40
1.0
 71
0
 41
1.0
 91
-1023410177
 42
1.0
 72
1
  3

 73
1
 74
1
 75
1
 44
0.5
 73
0
 45
1.0
 46
1.0
 77
1
  4

 78
1
 79
1
170
1
 48
1.0
171
1
  6

172
1
173
1
174
1
140
1.0
141
1.0
175
1
  7

176
1
177
1
178
1
143
1.0
179
1
  8

270
1
271
1
272
1
145
1.0
146
1.0
273
1
  9

274
1
275
1
276
1
 42
1.0
 72
1
  3

 73
1
 74
1
 75
1
 94
127
  0
MATERIAL
  5
7A0
102
{ACAD_REACTORS
330
79F
102
}
330
79F
100
AcDbMaterial
  1
ByLayer
  2

 70
0
 40
1.0
 71
0
 41
1.0
 91
-1023410177
 42
1.0
 72
1
  3

 73
1
 74
1
 75
1
 44
0.5
 73
0
 45
1.0
 46
1.0
 77
1
  4

 78
1
 79
1
170
1
 48
1.0
171
1
  6

172
1
173
1
174
1
140
1.0
141
1.0
175
1
  7

176
1
177
1
178
1
143
1.0
179
1
  8

270
1
271
1
272
1
145
1.0
146
1.0
273
1
  9

274
1
275
1
276
1
 42
1.0
 72
1
  3

 73
1
 74
1
 75
1
 94
127
  0
MATERIAL
  5
7A2
102
{ACAD_REACTORS
330
79F
102
}
330
79F
100
AcDbMaterial
  1
Global
  2

 70
0
 40
1.0
 71
0
 41
1.0
 91
-1023410177
 42
1.0
 72
1
  3

 73
1
 74
1
 75
1
 44
0.5
 73
0
 45
1.0
 46
1.0
 77
1
  4

 78
1
 79
1
170
1
 48
1.0
171
1
  6

172
1
173
1
174
1
140
1.0
141
1.0
175
1
  7

176
1
177
1
178
1
143
1.0
179
1
  8

270
1
271
1
272
1
145
1.0
146
1.0
273
1
  9

274
1
275
1
276
1
 42
1.0
 72
1
  3

 73
1
 74
1
 75
1
 94
127
  0
MLEADERSTYLE
  5
7A6
102
{ACAD_REACTORS
330
7A5
102
}
330
7A5
100
AcDbMLeaderStyle
179
2
170
2
171
1
172
0
 90
2
 40
0.0
 41
0.0
173
1
 91
-1056964608
340
14
 92
-2
290
1
 42
2.0
291
1
 43
8.0
  3
Standard
341
0
 44
4.0
300

342
11
174
1
175
1
176
0
178
6
 93
-1056964608
 45
4.0
292
0
297
0
 46
4.0
293
1
343
0
 94
-1056964608
 47
1.0
 49
1.0
140
1.0
294
1
141
0.0
177
0
142
1.0
295
0
296
0
143
3.75
271
0
272
9
273
9
298
0
  0
MLINESTYLE
  5
18
102
{ACAD_REACTORS
330
17
102
}
330
17
100
AcDbMlineStyle
  2
Standard
 70
0
  3

 62
256
 51
90.0
 52
90.0
 71
2
 49
0.5
 62
256
  6
BYLAYER
 49
-0.5
 62
256
  6
BYLAYER
  0
ACDBPLACEHOLDER
  5
F
102
{ACAD_REACTORS
330
E
102
}
330
E
  0
SCALE
  5
771
102
{ACAD_REACTORS
330
770
102
}
330
770
100
AcDbScale
 70
0
300
1:1
140
1.0
141
1.0
290
1
  0
SCALE
  5
772
102
{ACAD_REACTORS
330
770
102
}
330
770
100
AcDbScale
 70
0
300
1:2
140
1.0
141
2.0
290
0
  0
SCALE
  5
773
102
{ACAD_REACTORS
330
770
102
}
330
770
100
AcDbScale
 70
0
300
1:4
140
1.0
141
4.0
290
0
  0
SCALE
  5
774
102
{ACAD_REACTORS
330
770
102
}
330
770
100
AcDbScale
 70
0
300
1:5
140
1.0
141
5.0
290
0
  0
SCALE
  5
775
102
{ACAD_REACTORS
330
770
102
}
330
770
100
AcDbScale
 70
0
300
1:8
140
1.0
141
8.0
290
0
  0
SCALE
  5
776
102
{ACAD_REACTORS
330
770
102
}
330
770
100
AcDbScale
 70
0
300
1:10
140
1.0
141
10.0
290
0
  0
SCALE
  5
777
102
{ACAD_REACTORS
330
770
102
}
330
770
100
AcDbScale
 70
0
300
1:16
140
1.0
141
16.0
290
0
  0
SCALE
  5
778
102
{ACAD_REACTORS
330
770
102
}
330
770
100
AcDbScale
 70
0
300
1:20
140
1.0
141
20.0
290
0
  0
SCALE
  5
779
102
{ACAD_REACTORS
330
770
102
}
330
770
100
AcDbScale
 70
0
300
1:30
140
1.0
141
30.0
290
0
  0
SCALE
  5
77A
102
{ACAD_REACTORS
330
770
102
}
330
770
100
AcDbScale
 70
0
300
1:40
140
1.0
141
40.0
290
0
  0
SCALE
  5
77B
102
{ACAD_REACTORS
330
770
102
}
330
770
100
AcDbScale
 70
0
300
1:50
140
1.0
141
50.0
290
0
  0
SCALE
  5
77C
102
{ACAD_REACTORS
330
770
102
}
330
770
100
AcDbScale
 70
0
300
1:100
140
1.0
141
100.0
290
0
  0
SCALE
  5
77D
102
{ACAD_REACTORS
330
770
102
}
330
770
100
AcDbScale
 70
0
300
2:1
140
2.0
141
1.0
290
0
  0
SCALE
  5
77E
102
{ACAD_REACTORS
330
770
102
}
330
770
100
AcDbScale
 70
0
300
4:1
140
4.0
141
1.0
290
0
  0
SCALE
  5
77F
102
{ACAD_REACTORS
330
770
102
}
330
770
100
AcDbScale
 70
0
300
8:1
140
8.0
141
1.0
290
0
  0
SCALE
  5
780
102
{ACAD_REACTORS
330
770
102
}
330
770
100
AcDbScale
 70
0
300
10:1
140
10.0
141
1.0
290
0
  0
SCALE
  5
781
102
{ACAD_REACTORS
330
770
102
}
330
770
100
AcDbScale
 70
0
300
100:1
140
100.0
141
1.0
290
0
  0
TABLESTYLE
  5
7A4
102
{ACAD_XDICTIONARY
360
7A9
102
}
102
{ACAD_REACTORS
330
7A3
102
}
330
7A3
100
AcDbTableStyle
  3
Standard
 70
0
 71
0
 40
0.06
 41
0.06
280
0
281
0
  7
Standard
140
4.5
170
2
 62
0
 63
257
283
0
 90
4
 91
0
  1

274
-2
284
1
 64
0
275
-2
285
1
 65
0
276
-2
286
1
 66
0
277
-2
287
1
 67
0
278
-2
288
1
 68
0
279
-2
289
1
 69
0
  7
Standard
140
6.0
170
5
 62
0
 63
257
283
0
 90
4
 91
0
  1

274
-2
284
1
 64
0
275
-2
285
1
 65
0
276
-2
286
1
 66
0
277
-2
287
1
 67
0
278
-2
288
1
 68
0
279
-2
289
1
 69
0
  7
Standard
140
4.5
170
5
 62
0
 63
257
283
0
 90
4
 91
0
  1

274
-2
284
1
 64
0
275
-2
285
1
 65
0
276
-2
286
1
 66
0
277
-2
287
1
 67
0
278
-2
288
1
 68
0
279
-2
289
1
 69
0
  0
VISUALSTYLE
  5
78B
102
{ACAD_REACTORS
330
786
102
}
330
786
100
AcDbVisualStyle
  2
2dWireframe
 70
4
177
3
291
0
 70
58
 90
0
176
1
 90
2
176
1
 90
0
176
1
 90
0
176
1
 40
0.6
176
1
 40
30.0
176
1
 62
7
420
16777215
176
1
 90
1
176
1
 90
4
176
1
 62
7
176
1
 62
257
176
1
 90
1
176
1
 90
1
176
1
 40
1.0
176
1
 90
0
176
1
 62
257
176
1
 40
1.0
176
1
 90
1
176
1
 90
6
176
1
 90
2
176
1
 62
7
176
1
 90
5
176
1
 90
0
176
1
 90
0
176
1
290
0
176
1
 90
1
176
1
 40
0.0
176
1
 90
0
176
1
290
1
176
1
290
1
176
1
290
0
176
1
290
0
176
1
290
0
176
1
290
0
176
1
290
0
176
1
290
0
176
1
290
0
176
1
 90
50
176
1
 40
0.0
176
1
 40
1.0
176
1
 90
0
176
1
 62
18
420
0
176
1
 90
50
176
1
 90
3
176
1
 62
5
420
255
176
1
290
0
176
1
 90
50
176
1
 90
50
176
1
 90
50
176
1
290
0
176
1
 90
50
176
1
 62
256
176
0
 40
1.0
176
0
 90
2
176
1
  1
strokes_ogs.tif
176
1
290
0
176
1
 40
1.0
176
1
 40
1.0
176
1
  0
VISUALSTYLE
  5
78E
102
{ACAD_REACTORS
330
786
102
}
330
786
100
AcDbVisualStyle
  2
Basic
 70
7
177
3
291
1
 70
58
 90
1
176
1
 90
0
176
1
 90
1
176
1
 90
0
176
1
 40
0.6
176
1
 40
30.0
176
1
 62
7
420
16777215
176
1
 90
0
176
1
 90
4
176
1
 62
7
176
1
 62
257
176
1
 90
1
176
1
 90
1
176
1
 40
1.0
176
1
 90
8
176
1
 62
7
176
1
 40
1.0
176
1
 90
1
176
1
 90
6
176
1
 90
2
176
1
 62
7
176
1
 90
5
176
1
 90
0
176
1
 90
0
176
1
290
0
176
1
 90
1
176
1
 40
0.0
176
1
 90
0
176
1
290
0
176
1
290
1
176
1
290
1
176
1
290
0
176
1
290
0
176
1
290
0
176
1
290
0
176
1
290
0
176
1
290
0
176
1
 90
50
176
1
 40
0.0
176
1
 40
1.0
176
1
 90
0
176
1
 62
18
420
0
176
1
 90
50
176
1
 90
3
176
1
 62
5
420
255
176
1
290
0
176
1
 90
50
176
1
 90
50
176
1
 90
50
176
1
290
0
176
1
 90
50
176
1
 62
256
176
0
 40
1.0
176
0
 90
2
176
1
  1
strokes_ogs.tif
176
1
290
0
176
1
 40
1.0
176
1
 40
1.0
176
1
  0
VISUALSTYLE
  5
792
102
{ACAD_REACTORS
330
786
102
}
330
786
100
AcDbVisualStyle
  2
Brighten
 70
12
177
3
291
1
 70
58
 90
2
176
1
 90
2
176
1
 90
0
176
1
 90
0
176
1
 40
0.6
176
1
 40
30.0
176
1
 62
7
420
16777215
176
1
 90
1
176
1
 90
4
176
1
 62
7
176
1
 62
257
176
1
 90
1
176
1
 90
1
176
1
 40
1.0
176
1
 90
8
176
1
 62
7
176
1
 40
1.0
176
1
 90
1
176
1
 90
6
176
1
 90
2
176
1
 62
7
176
1
 90
5
176
1
 90
0
176
1
 90
0
176
1
290
0
176
1
 90
1
176
1
 40
50.0
176
1
 90
0
176
1
290
0
176
1
290
1
176
1
290
1
176
1
290
0
176
1
290
0
176
1
290
0
176
1
290
0
176
1
290
0
176
1
290
0
176
1
 90
50
176
1
 40
0.0
176
1
 40
1.0
176
1
 90
0
176
1
 62
18
420
0
176
1
 90
50
176
1
 90
3
176
1
 62
5
420
255
176
1
290
0
176
1
 90
50
176
1
 90
50
176
1
 90
50
176
1
290
0
176
1
 90
50
176
1
 62
256
176
0
 40
1.0
176
0
 90
2
176
1
  1
strokes_ogs.tif
176
1
290
0
176
1
 40
1.0
176
1
 40
1.0
176
1
  0
VISUALSTYLE
  5
796
102
{ACAD_REACTORS
330
786
102
}
330
786
100
AcDbVisualStyle
  2
ColorChange
 70
16
177
3
291
1
 70
58
 90
2
176
1
 90
2
176
1
 90
3
176
1
 90
0
176
1
 40
0.6
176
1
 40
30.0
176
1
 62
8
420
8421504
176
1
 90
1
176
1
 90
4
176
1
 62
7
176
1
 62
257
176
1
 90
1
176
1
 90
1
176
1
 40
1.0
176
1
 90
8
176
1
 62
8
420
8421504
176
1
 40
1.0
176
1
 90
1
176
1
 90
6
176
1
 90
2
176
1
 62
7
176
1
 90
5
176
1
 90
0
176
1
 90
0
176
1
290
0
176
1
 90
1
176
1
 40
0.0
176
1
 90
0
176
1
290
0
176
1
290
1
176
1
290
1
176
1
290
0
176
1
290
0
176
1
290
0
176
1
290
0
176
1
290
0
176
1
290
0
176
1
 90
50
176
1
 40
0.0
176
1
 40
1.0
176
1
 90
0
176
1
 62
18
420
0
176
1
 90
50
176
1
 90
3
176
1
 62
5
420
255
176
1
290
0
176
1
 90
50
176
1
 90
50
176
1
 90
50
176
1
290
0
176
1
 90
50
176
1
 62
256
176
0
 40
1.0
176
0
 90
2
176
1
  1
strokes_ogs.tif
176
1
290
0
176
1
 40
1.0
176
1
 40
1.0
176
1
  0
VISUALSTYLE
  5
790
102
{ACAD_REACTORS
330
786
102
}
330
786
100
AcDbVisualStyle
  2
Conceptual
 70
9
177
3
291
0
 70
58
 90
3
176
1
 90
2
176
1
 90
0
176
1
 90
0
176
1
 40
0.6
176
1
 40
30.0
176
1
 62
7
420
16777215
176
1
 90
2
176
1
 90
2
176
1
 62
7
176
1
 62
257
176
1
 90
1
176
1
 90
1
176
1
 40
179.0
176
1
 90
8
176
1
 62
7
176
1
 40
1.0
176
1
 90
1
176
1
 90
6
176
1
 90
2
176
1
 62
7
176
1
 90
3
176
1
 90
0
176
1
 90
0
176
1
290
0
176
1
 90
1
176
1
 40
0.0
176
1
 90
0
176
1
290
0
176
1
290
1
176
1
290
1
176
1
290
0
176
1
290
0
176
1
290
0
176
1
290
0
176
1
290
0
176
1
290
0
176
1
 90
50
176
1
 40
0.0
176
1
 40
1.0
176
1
 90
0
176
1
 62
18
420
0
176
1
 90
50
176
1
 90
3
176
1
 62
5
420
255
176
1
290
0
176
1
 90
50
176
1
 90
50
176
1
 90
50
176
1
290
0
176
1
 90
50
176
1
 62
256
176
0
 40
1.0
176
0
 90
2
176
1
  1
strokes_ogs.tif
176
1
290
0
176
1
 40
1.0
176
1
 40
1.0
176
1
  0
VISUALSTYLE
  5
791
102
{ACAD_REACTORS
330
786
102
}
330
786
100
AcDbVisualStyle
  2
Dim
 70
11
177
3
291
1
 70
58
 90
2
176
1
 90
2
176
1
 90
0
176
1
 90
0
176
1
 40
0.6
176
1
 40
30.0
176
1
 62
7
420
16777215
176
1
 90
1
176
1
 90
4
176
1
 62
7
176
1
 62
257
176
1
 90
1
176
1
 90
1
176
1
 40
1.0
176
1
 90
8
176
1
 62
7
176
1
 40
1.0
176
1
 90
1
176
1
 90
6
176
1
 90
2
176
1
 62
7
176
1
 90
5
176
1
 90
0
176
1
 90
0
176
1
290
0
176
1
 90
1
176
1
 40
-50.0
176
1
 90
0
176
1
290
0
176
1
290
1
176
1
290
1
176
1
290
0
176
1
290
0
176
1
290
0
176
1
290
0
176
1
290
0
176
1
290
0
176
1
 90
50
176
1
 40
0.0
176
1
 40
1.0
176
1
 90
0
176
1
 62
18
420
0
176
1
 90
50
176
1
 90
3
176
1
 62
5
420
255
176
1
290
0
176
1
 90
50
176
1
 90
50
176
1
 90
50
176
1
290
0
176
1
 90
50
176
1
 62
256
176
0
 40
1.0
176
0
 90
2
176
1
  1
strokes_ogs.tif
176
1
290
0
176
1
 40
1.0
176
1
 40
1.0
176
1
  0
VISUALSTYLE
  5
799
102
{ACAD_REACTORS
330
786
102
}
330
786
100
AcDbVisualStyle
  2
EdgeColorOff
 70
22
177
3
291
1
 70
58
 90
2
176
0
 90
2
176
0
 90
0
176
0
 90
0
176
0
 40
0.6
176
0
 40
30.0
176
0
 62
7
420
16777215
176
0
 90
1
176
0
 90
4
176
0
 62
7
176
0
 62
257
176
0
 90
1
176
0
 90
1
176
0
 40
1.0
176
0
 90
8
176
2
 62
7
176
0
 40
1.0
176
0
 90
1
176
0
 90
6
176
0
 90
2
176
0
 62
7
176
0
 90
5
176
0
 90
0
176
0
 90
0
176
0
290
0
176
0
 90
1
176
0
 40
0.0
176
0
 90
0
176
0
290
0
176
0
290
1
176
0
290
1
176
0
290
0
176
0
290
0
176
0
290
0
176
0
290
0
176
0
290
0
176
0
290
0
176
0
 90
50
176
0
 40
0.0
176
0
 40
1.0
176
0
 90
0
176
0
 62
18
420
0
176
0
 90
50
176
0
 90
3
176
0
 62
5
420
255
176
0
290
0
176
0
 90
50
176
0
 90
50
176
0
 90
50
176
0
290
0
176
0
 90
50
176
0
 62
256
176
0
 40
1.0
176
0
 90
2
176
0
  1
strokes_ogs.tif
176
0
290
0
176
0
 40
1.0
176
0
 40
1.0
176
0
  0
VISUALSTYLE
  5
795
102
{ACAD_REACTORS
330
786
102
}
330
786
100
AcDbVisualStyle
  2
Facepattern
 70
15
177
3
291
1
 70
58
 90
2
176
1
 90
2
176
1
 90
0
176
1
 90
0
176
1
 40
0.6
176
1
 40
30.0
176
1
 62
7
420
16777215
176
1
 90
1
176
1
 90
4
176
1
 62
7
176
1
 62
257
176
1
 90
1
176
1
 90
1
176
1
 40
1.0
176
1
 90
8
176
1
 62
7
176
1
 40
1.0
176
1
 90
1
176
1
 90
6
176
1
 90
2
176
1
 62
7
176
1
 90
5
176
1
 90
0
176
1
 90
0
176
1
290
0
176
1
 90
1
176
1
 40
0.0
176
1
 90
0
176
1
290
0
176
1
290
1
176
1
290
1
176
1
290
0
176
1
290
0
176
1
290
0
176
1
290
0
176
1
290
0
176
1
290
0
176
1
 90
50
176
1
 40
0.0
176
1
 40
1.0
176
1
 90
0
176
1
 62
18
420
0
176
1
 90
50
176
1
 90
3
176
1
 62
5
420
255
176
1
290
0
176
1
 90
50
176
1
 90
50
176
1
 90
50
176
1
290
0
176
1
 90
50
176
1
 62
256
176
0
 40
1.0
176
0
 90
2
176
1
  1
strokes_ogs.tif
176
1
290
0
176
1
 40
1.0
176
1
 40
1.0
176
1
  0
VISUALSTYLE
  5
787
102
{ACAD_REACTORS
330
786
102
}
330
786
100
AcDbVisualStyle
  2
Flat
 70
0
177
3
291
1
 70
58
 90
2
176
1
 90
1
176
1
 90
1
176
1
 90
2
176
1
 40
0.6
176
1
 40
30.0
176
1
 62
7
420
16777215
176
1
 90
0
176
1
 90
0
176
1
 62
7
176
1
 62
257
176
1
 90
1
176
1
 90
1
176
1
 40
1.0
176
1
 90
8
176
1
 62
7
176
1
 40
1.0
176
1
 90
1
176
1
 90
6
176
1
 90
2
176
1
 62
7
176
1
 90
5
176
1
 90
0
176
1
 90
0
176
1
290
0
176
1
 90
13
176
1
 40
0.0
176
1
 90
0
176
1
290
0
176
1
290
1
176
1
290
1
176
1
290
0
176
1
290
0
176
1
290
0
176
1
290
0
176
1
290
0
176
1
290
0
176
1
 90
50
176
1
 40
0.0
176
1
 40
1.0
176
1
 90
0
176
1
 62
18
420
0
176
1
 90
50
176
1
 90
3
176
1
 62
5
420
255
176
1
290
0
176
1
 90
50
176
1
 90
50
176
1
 90
50
176
1
290
0
176
1
 90
50
176
1
 62
256
176
0
 40
1.0
176
0
 90
2
176
1
  1
strokes_ogs.tif
176
1
290
0
176
1
 40
1.0
176
1
 40
1.0
176
1
  0
VISUALSTYLE
  5
788
102
{ACAD_REACTORS
330
786
102
}
330
786
100
AcDbVisualStyle
  2
FlatWithEdges
 70
1
177
3
291
1
 70
58
 90
2
176
1
 90
1
176
1
 90
1
176
1
 90
2
176
1
 40
0.6
176
1
 40
30.0
176
1
 62
7
420
16777215
176
1
 90
1
176
1
 90
0
176
1
 62
7
176
1
 62
257
176
1
 90
1
176
1
 90
1
176
1
 40
1.0
176
1
 90
0
176
1
 62
257
176
1
 40
1.0
176
1
 90
1
176
1
 90
6
176
1
 90
2
176
1
 62
7
176
1
 90
5
176
1
 90
0
176
1
 90
0
176
1
290
0
176
1
 90
13
176
1
 40
0.0
176
1
 90
0
176
1
290
0
176
1
290
1
176
1
290
1
176
1
290
0
176
1
290
0
176
1
290
0
176
1
290
0
176
1
290
0
176
1
290
0
176
1
 90
50
176
1
 40
0.0
176
1
 40
1.0
176
1
 90
0
176
1
 62
18
420
0
176
1
 90
50
176
1
 90
3
176
1
 62
5
420
255
176
1
290
0
176
1
 90
50
176
1
 90
50
176
1
 90
50
176
1
290
0
176
1
 90
50
176
1
 62
256
176
0
 40
1.0
176
0
 90
2
176
1
  1
strokes_ogs.tif
176
1
290
0
176
1
 40
1.0
176
1
 40
1.0
176
1
  0
VISUALSTYLE
  5
789
102
{ACAD_REACTORS
330
786
102
}
330
786
100
AcDbVisualStyle
  2
Gouraud
 70
2
177
3
291
1
 70
58
 90
2
176
1
 90
2
176
1
 90
1
176
1
 90
2
176
1
 40
0.6
176
1
 40
30.0
176
1
 62
7
420
16777215
176
1
 90
0
176
1
 90
0
176
1
 62
7
176
1
 62
257
176
1
 90
1
176
1
 90
1
176
1
 40
1.0
176
1
 90
0
176
1
 62
7
176
1
 40
1.0
176
1
 90
1
176
1
 90
6
176
1
 90
2
176
1
 62
7
176
1
 90
5
176
1
 90
0
176
1
 90
0
176
1
290
0
176
1
 90
13
176
1
 40
0.0
176
1
 90
0
176
1
290
0
176
1
290
1
176
1
290
1
176
1
290
0
176
1
290
0
176
1
290
0
176
1
290
0
176
1
290
0
176
1
290
0
176
1
 90
50
176
1
 40
0.0
176
1
 40
1.0
176
1
 90
0
176
1
 62
18
420
0
176
1
 90
50
176
1
 90
3
176
1
 62
5
420
255
176
1
290
0
176
1
 90
50
176
1
 90
50
176
1
 90
50
176
1
290
0
176
1
 90
50
176
1
 62
256
176
0
 40
1.0
176
0
 90
2
176
1
  1
strokes_ogs.tif
176
1
290
0
176
1
 40
1.0
176
1
 40
1.0
176
1
  0
VISUALSTYLE
  5
78A
102
{ACAD_REACTORS
330
786
102
}
330
786
100
AcDbVisualStyle
  2
GouraudWithEdges
 70
3
177
3
291
1
 70
58
 90
2
176
1
 90
2
176
1
 90
1
176
1
 90
2
176
1
 40
0.6
176
1
 40
30.0
176
1
 62
7
420
16777215
176
1
 90
1
176
1
 90
0
176
1
 62
7
176
1
 62
257
176
1
 90
1
176
1
 90
1
176
1
 40
1.0
176
1
 90
0
176
1
 62
257
176
1
 40
1.0
176
1
 90
1
176
1
 90
6
176
1
 90
2
176
1
 62
7
176
1
 90
5
176
1
 90
0
176
1
 90
0
176
1
290
0
176
1
 90
13
176
1
 40
0.0
176
1
 90
0
176
1
290
0
176
1
290
1
176
1
290
1
176
1
290
0
176
1
290
0
176
1
290
0
176
1
290
0
176
1
290
0
176
1
290
0
176
1
 90
50
176
1
 40
0.0
176
1
 40
1.0
176
1
 90
0
176
1
 62
18
420
0
176
1
 90
50
176
1
 90
3
176
1
 62
5
420
255
176
1
290
0
176
1
 90
50
176
1
 90
50
176
1
 90
50
176
1
290
0
176
1
 90
50
176
1
 62
256
176
0
 40
1.0
176
0
 90
2
176
1
  1
strokes_ogs.tif
176
1
290
0
176
1
 40
1.0
176
1
 40
1.0
176
1
  0
VISUALSTYLE
  5
78D
102
{ACAD_REACTORS
330
786
102
}
330
786
100
AcDbVisualStyle
  2
Hidden
 70
6
177
3
291
0
 70
58
 90
1
176
1
 90
2
176
1
 90
2
176
1
 90
0
176
1
 40
0.6
176
1
 40
30.0
176
1
 62
7
420
16777215
176
1
 90
2
176
1
 90
2
176
1
 62
7
176
1
 62
257
176
1
 90
2
176
1
 90
1
176
1
 40
40.0
176
1
 90
0
176
1
 62
257
176
1
 40
1.0
176
1
 90
1
176
1
 90
6
176
1
 90
2
176
1
 62
7
176
1
 90
3
176
1
 90
0
176
1
 90
0
176
1
290
0
176
1
 90
1
176
1
 40
0.0
176
1
 90
0
176
1
290
0
176
1
290
1
176
1
290
1
176
1
290
0
176
1
290
0
176
1
290
0
176
1
290
0
176
1
290
0
176
1
290
0
176
1
 90
50
176
1
 40
0.0
176
1
 40
1.0
176
1
 90
0
176
1
 62
18
420
0
176
1
 90
50
176
1
 90
3
176
1
 62
5
420
255
176
1
290
0
176
1
 90
50
176
1
 90
50
176
1
 90
50
176
1
290
0
176
1
 90
50
176
1
 62
256
176
0
 40
1.0
176
0
 90
2
176
1
  1
strokes_ogs.tif
176
1
290
0
176
1
 40
1.0
176
1
 40
1.0
176
1
  0
VISUALSTYLE
  5
797
102
{ACAD_REACTORS
330
786
102
}
330
786
100
AcDbVisualStyle
  2
JitterOff
 70
20
177
3
291
1
 70
58
 90
2
176
0
 90
2
176
0
 90
0
176
0
 90
0
176
0
 40
0.6
176
0
 40
30.0
176
0
 62
7
420
16777215
176
0
 90
1
176
0
 90
4
176
0
 62
7
176
0
 62
257
176
0
 90
1
176
0
 90
1
176
0
 40
1.0
176
0
 90
10
176
2
 62
7
176
0
 40
1.0
176
0
 90
1
176
0
 90
6
176
0
 90
2
176
0
 62
7
176
0
 90
5
176
0
 90
0
176
0
 90
0
176
0
290
0
176
0
 90
1
176
0
 40
0.0
176
0
 90
0
176
0
290
0
176
0
290
1
176
0
290
1
176
0
290
0
176
0
290
0
176
0
290
0
176
0
290
0
176
0
290
0
176
0
290
0
176
0
 90
50
176
0
 40
0.0
176
0
 40
1.0
176
0
 90
0
176
0
 62
18
420
0
176
0
 90
50
176
0
 90
3
176
0
 62
5
420
255
176
0
290
0
176
0
 90
50
176
0
 90
50
176
0
 90
50
176
0
290
0
176
0
 90
50
176
0
 62
256
176
0
 40
1.0
176
0
 90
2
176
0
  1
strokes_ogs.tif
176
0
290
0
176
0
 40
1.0
176
0
 40
1.0
176
0
  0
VISUALSTYLE
  5
794
102
{ACAD_REACTORS
330
786
102
}
330
786
100
AcDbVisualStyle
  2
Linepattern
 70
14
177
3
291
1
 70
58
 90
2
176
1
 90
2
176
1
 90
0
176
1
 90
0
176
1
 40
0.6
176
1
 40
30.0
176
1
 62
7
420
16777215
176
1
 90
1
176
1
 90
4
176
1
 62
7
176
1
 62
257
176
1
 90
7
176
1
 90
7
176
1
 40
1.0
176
1
 90
8
176
1
 62
7
176
1
 40
1.0
176
1
 90
1
176
1
 90
6
176
1
 90
2
176
1
 62
7
176
1
 90
5
176
1
 90
0
176
1
 90
0
176
1
290
0
176
1
 90
1
176
1
 40
0.0
176
1
 90
0
176
1
290
0
176
1
290
1
176
1
290
1
176
1
290
0
176
1
290
0
176
1
290
0
176
1
290
0
176
1
290
0
176
1
290
0
176
1
 90
50
176
1
 40
0.0
176
1
 40
1.0
176
1
 90
0
176
1
 62
18
420
0
176
1
 90
50
176
1
 90
3
176
1
 62
5
420
255
176
1
290
0
176
1
 90
50
176
1
 90
50
176
1
 90
50
176
1
290
0
176
1
 90
50
176
1
 62
256
176
0
 40
1.0
176
0
 90
2
176
1
  1
strokes_ogs.tif
176
1
290
0
176
1
 40
1.0
176
1
 40
1.0
176
1
  0
VISUALSTYLE
  5
798
102
{ACAD_REACTORS
330
786
102
}
330
786
100
AcDbVisualStyle
  2
OverhangOff
 70
21
177
3
291
1
 70
58
 90
2
176
0
 90
2
176
0
 90
0
176
0
 90
0
176
0
 40
0.6
176
0
 40
30.0
176
0
 62
7
420
16777215
176
0
 90
1
176
0
 90
4
176
0
 62
7
176
0
 62
257
176
0
 90
1
176
0
 90
1
176
0
 40
1.0
176
0
 90
9
176
2
 62
7
176
0
 40
1.0
176
0
 90
1
176
0
 90
6
176
0
 90
2
176
0
 62
7
176
0
 90
5
176
0
 90
0
176
0
 90
0
176
0
290
0
176
0
 90
1
176
0
 40
0.0
176
0
 90
0
176
0
290
0
176
0
290
1
176
0
290
1
176
0
290
0
176
0
290
0
176
0
290
0
176
0
290
0
176
0
290
0
176
0
290
0
176
0
 90
50
176
0
 40
0.0
176
0
 40
1.0
176
0
 90
0
176
0
 62
18
420
0
176
0
 90
50
176
0
 90
3
176
0
 62
5
420
255
176
0
290
0
176
0
 90
50
176
0
 90
50
176
0
 90
50
176
0
290
0
176
0
 90
50
176
0
 62
256
176
0
 40
1.0
176
0
 90
2
176
0
  1
strokes_ogs.tif
176
0
290
0
176
0
 40
1.0
176
0
 40
1.0
176
0
  0
VISUALSTYLE
  5
78F
102
{ACAD_REACTORS
330
786
102
}
330
786
100
AcDbVisualStyle
  2
Realistic
 70
8
177
3
291
0
 70
58
 90
2
176
1
 90
3
176
1
 90
0
176
1
 90
2
176
1
 40
0.6
176
1
 40
30.0
176
1
 62
7
420
16777215
176
1
 90
0
176
1
 90
0
176
1
 62
7
176
1
 62
257
176
1
 90
1
176
1
 90
1
176
1
 40
1.0
176
1
 90
8
176
1
 62
257
176
1
 40
1.0
176
1
 90
1
176
1
 90
6
176
1
 90
2
176
1
 62
7
176
1
 90
3
176
1
 90
0
176
1
 90
0
176
1
290
0
176
1
 90
13
176
1
 40
0.0
176
1
 90
0
176
1
290
0
176
1
290
1
176
1
290
1
176
1
290
0
176
1
290
0
176
1
290
0
176
1
290
0
176
1
290
0
176
1
290
0
176
1
 90
50
176
1
 40
0.0
176
1
 40
1.0
176
1
 90
0
176
1
 62
18
420
0
176
1
 90
50
176
1
 90
3
176
1
 62
5
420
255
176
1
290
0
176
1
 90
50
176
1
 90
50
176
1
 90
50
176
1
290
0
176
1
 90
50
176
1
 62
256
176
0
 40
1.0
176
0
 90
2
176
1
  1
strokes_ogs.tif
176
1
290
0
176
1
 40
1.0
176
1
 40
1.0
176
1
  0
VISUALSTYLE
  5
79E
102
{ACAD_REACTORS
330
786
102
}
330
786
100
AcDbVisualStyle
  2
Shaded
 70
27
177
3
291
0
 70
58
 90
2
176
1
 90
2
176
1
 90
1
176
1
 90
2
176
1
 40
0.6
176
1
 40
30.0
176
1
 62
7
420
16777215
176
1
 90
0
176
1
 90
4
176
1
 62
7
176
1
 62
257
176
1
 90
1
176
1
 90
1
176
1
 40
1.0
176
1
 90
8
176
1
 62
257
176
1
 40
1.0
176
1
 90
1
176
1
 90
6
176
1
 90
2
176
1
 62
8
420
7895160
176
1
 90
3
176
1
 90
0
176
1
 90
0
176
1
290
0
176
1
 90
5
176
1
 40
0.0
176
1
 90
0
176
1
290
0
176
1
290
1
176
1
290
1
176
1
290
0
176
1
290
0
176
1
290
0
176
1
290
0
176
1
290
0
176
1
290
0
176
1
 90
50
176
1
 40
0.0
176
1
 40
1.0
176
1
 90
0
176
1
 62
18
420
0
176
1
 90
50
176
1
 90
3
176
1
 62
5
420
255
176
1
290
0
176
1
 90
50
176
1
 90
50
176
1
 90
50
176
1
290
0
176
1
 90
50
176
1
 62
256
176
0
 40
1.0
176
0
 90
2
176
1
  1
strokes_ogs.tif
176
1
290
0
176
1
 40
1.0
176
1
 40
1.0
176
1
  0
VISUALSTYLE
  5
79D
102
{ACAD_REACTORS
330
786
102
}
330
786
100
AcDbVisualStyle
  2
Shaded with edges
 70
26
177
3
291
0
 70
58
 90
2
176
1
 90
2
176
1
 90
1
176
1
 90
2
176
1
 40
0.6
176
1
 40
30.0
176
1
 62
7
420
16777215
176
1
 90
1
176
1
 90
10
176
1
 62
7
176
1
 62
257
176
1
 90
2
176
1
 90
1
176
1
 40
1.0
176
1
 90
8
176
1
 62
257
176
1
 40
1.0
176
1
 90
1
176
1
 90
6
176
1
 90
2
176
1
 62
7
176
1
 90
3
176
1
 90
0
176
1
 90
0
176
1
290
0
176
1
 90
5
176
1
 40
0.0
176
1
 90
0
176
1
290
0
176
1
290
1
176
1
290
1
176
1
290
0
176
1
290
0
176
1
290
0
176
1
290
0
176
1
290
0
176
1
290
0
176
1
 90
50
176
1
 40
0.0
176
1
 40
1.0
176
1
 90
0
176
1
 62
18
420
0
176
1
 90
50
176
1
 90
3
176
1
 62
5
420
255
176
1
290
0
176
1
 90
50
176
1
 90
50
176
1
 90
50
176
1
290
0
176
1
 90
50
176
1
 62
256
176
0
 40
1.0
176
0
 90
2
176
1
  1
strokes_ogs.tif
176
1
290
0
176
1
 40
1.0
176
1
 40
1.0
176
1
  0
VISUALSTYLE
  5
79A
102
{ACAD_REACTORS
330
786
102
}
330
786
100
AcDbVisualStyle
  2
Shades of Gray
 70
23
177
3
291
0
 70
58
 90
2
176
1
 90
2
176
1
 90
3
176
1
 90
0
176
1
 40
0.6
176
1
 40
30.0
176
1
 62
7
420
16777215
176
1
 90
2
176
1
 90
2
176
1
 62
7
176
1
 62
7
176
1
 90
1
176
1
 90
1
176
1
 40
40.0
176
1
 90
8
176
1
 62
7
176
1
 40
1.0
176
1
 90
1
176
1
 90
6
176
1
 90
2
176
1
 62
7
176
1
 90
3
176
1
 90
0
176
1
 90
0
176
1
290
0
176
1
 90
1
176
1
 40
0.0
176
1
 90
0
176
1
290
0
176
1
290
1
176
1
290
1
176
1
290
0
176
1
290
0
176
1
290
0
176
1
290
0
176
1
290
0
176
1
290
0
176
1
 90
50
176
1
 40
0.0
176
1
 40
1.0
176
1
 90
0
176
1
 62
18
420
0
176
1
 90
50
176
1
 90
3
176
1
 62
5
420
255
176
1
290
0
176
1
 90
50
176
1
 90
50
176
1
 90
50
176
1
290
0
176
1
 90
50
176
1
 62
256
176
0
 40
1.0
176
0
 90
2
176
1
  1
strokes_ogs.tif
176
1
290
0
176
1
 40
1.0
176
1
 40
1.0
176
1
  0
VISUALSTYLE
  5
79B
102
{ACAD_REACTORS
330
786
102
}
330
786
100
AcDbVisualStyle
  2
Sketchy
 70
24
177
3
291
0
 70
58
 90
1
176
1
 90
2
176
1
 90
2
176
1
 90
0
176
1
 40
0.6
176
1
 40
30.0
176
1
 62
7
420
16777215
176
1
 90
2
176
1
 90
2
176
1
 62
7
176
1
 62
7
176
1
 90
1
176
1
 90
1
176
1
 40
40.0
176
1
 90
11
176
1
 62
7
176
1
 40
1.0
176
1
 90
1
176
1
 90
6
176
1
 90
2
176
1
 62
7
176
1
 90
6
176
1
 90
0
176
1
 90
0
176
1
290
0
176
1
 90
1
176
1
 40
0.0
176
1
 90
0
176
1
290
0
176
1
290
1
176
1
290
1
176
1
290
0
176
1
290
0
176
1
290
0
176
1
290
0
176
1
290
0
176
1
290
0
176
1
 90
50
176
1
 40
0.0
176
1
 40
1.0
176
1
 90
0
176
1
 62
18
420
0
176
1
 90
50
176
1
 90
3
176
1
 62
5
420
255
176
1
290
0
176
1
 90
50
176
1
 90
50
176
1
 90
50
176
1
290
0
176
1
 90
50
176
1
 62
256
176
0
 40
1.0
176
0
 90
2
176
1
  1
strokes_ogs.tif
176
1
290
0
176
1
 40
1.0
176
1
 40
1.0
176
1
  0
VISUALSTYLE
  5
793
102
{ACAD_REACTORS
330
786
102
}
330
786
100
AcDbVisualStyle
  2
Thicken
 70
13
177
3
291
1
 70
58
 90
2
176
1
 90
2
176
1
 90
0
176
1
 90
0
176
1
 40
0.6
176
1
 40
30.0
176
1
 62
7
420
16777215
176
1
 90
1
176
1
 90
4
176
1
 62
7
176
1
 62
257
176
1
 90
1
176
1
 90
1
176
1
 40
1.0
176
1
 90
12
176
1
 62
7
176
1
 40
1.0
176
1
 90
1
176
1
 90
6
176
1
 90
2
176
1
 62
7
176
1
 90
5
176
1
 90
0
176
1
 90
0
176
1
290
0
176
1
 90
1
176
1
 40
0.0
176
1
 90
0
176
1
290
0
176
1
290
1
176
1
290
1
176
1
290
0
176
1
290
0
176
1
290
0
176
1
290
0
176
1
290
0
176
1
290
0
176
1
 90
50
176
1
 40
0.0
176
1
 40
1.0
176
1
 90
0
176
1
 62
18
420
0
176
1
 90
50
176
1
 90
3
176
1
 62
5
420
255
176
1
290
0
176
1
 90
50
176
1
 90
50
176
1
 90
50
176
1
290
0
176
1
 90
50
176
1
 62
256
176
0
 40
1.0
176
0
 90
2
176
1
  1
strokes_ogs.tif
176
1
290
0
176
1
 40
1.0
176
1
 40
1.0
176
1
  0
VISUALSTYLE
  5
78C
102
{ACAD_REACTORS
330
786
102
}
330
786
100
AcDbVisualStyle
  2
Wireframe
 70
5
177
3
291
0
 70
58
 90
0
176
1
 90
2
176
1
 90
0
176
1
 90
0
176
1
 40
0.6
176
1
 40
30.0
176
1
 62
7
420
16777215
176
1
 90
1
176
1
 90
4
176
1
 62
7
176
1
 62
257
176
1
 90
1
176
1
 90
1
176
1
 40
1.0
176
1
 90
0
176
1
 62
257
176
1
 40
1.0
176
1
 90
1
176
1
 90
6
176
1
 90
2
176
1
 62
7
176
1
 90
3
176
1
 90
0
176
1
 90
0
176
1
290
0
176
1
 90
1
176
1
 40
0.0
176
1
 90
0
176
1
290
0
176
1
290
1
176
1
290
1
176
1
290
0
176
1
290
0
176
1
290
0
176
1
290
0
176
1
290
0
176
1
290
0
176
1
 90
50
176
1
 40
0.0
176
1
 40
1.0
176
1
 90
0
176
1
 62
18
420
0
176
1
 90
50
176
1
 90
3
176
1
 62
5
420
255
176
1
290
0
176
1
 90
50
176
1
 90
50
176
1
 90
50
176
1
290
0
176
1
 90
50
176
1
 62
256
176
0
 40
1.0
176
0
 90
2
176
1
  1
strokes_ogs.tif
176
1
290
0
176
1
 40
1.0
176
1
 40
1.0
176
1
  0
VISUALSTYLE
  5
79C
102
{ACAD_REACTORS
330
786
102
}
330
786
100
AcDbVisualStyle
  2
X-Ray
 70
25
177
3
291
0
 70
58
 90
2
176
1
 90
2
176
1
 90
1
176
1
 90
1
176
1
 40
0.5
176
1
 40
30.0
176
1
 62
7
420
16777215
176
1
 90
1
176
1
 90
0
176
1
 62
7
176
1
 62
257
176
1
 90
1
176
1
 90
1
176
1
 40
1.0
176
1
 90
8
176
1
 62
7
176
1
 40
1.0
176
1
 90
1
176
1
 90
6
176
1
 90
2
176
1
 62
7
176
1
 90
3
176
1
 90
0
176
1
 90
0
176
1
290
0
176
1
 90
13
176
1
 40
0.0
176
1
 90
0
176
1
290
0
176
1
290
1
176
1
290
1
176
1
290
0
176
1
290
0
176
1
290
0
176
1
290
0
176
1
290
0
176
1
290
0
176
1
 90
50
176
1
 40
0.0
176
1
 40
1.0
176
1
 90
0
176
1
 62
18
420
0
176
1
 90
50
176
1
 90
3
176
1
 62
5
420
255
176
1
290
0
176
1
 90
50
176
1
 90
50
176
1
 90
50
176
1
290
0
176
1
 90
50
176
1
 62
256
176
0
 40
1.0
176
0
 90
2
176
1
  1
strokes_ogs.tif
176
1
290
0
176
1
 40
1.0
176
1
 40
1.0
176
1
  0
DICTIONARYVAR
  5
7A8
102
{ACAD_REACTORS
330
7A7
102
}
330
7A7
100
DictionaryVariables
280
0
  1
1:1
  0
DICTIONARYVAR
  5
7AD
102
{ACAD_REACTORS
330
7A7
102
}
330
7A7
100
DictionaryVariables
280
0
  1
Standard
  0
DICTIONARYVAR
  5
7AC
102
{ACAD_REACTORS
330
7A7
102
}
330
7A7
100
DictionaryVariables
280
0
  1
Standard
  0
DICTIONARYVAR
  5
7AE
102
{ACAD_REACTORS
330
7A7
102
}
330
7A7
100
DictionaryVariables
280
0
  1
0
  0
DICTIONARY
  5
7A9
330
7A4
100
AcDbDictionary
280
1
281
1
  3
ACAD_ROUNDTRIP_2008_TABLESTYLE_CELLSTYLEMAP
360
7AA
  0
CELLSTYLEMAP
  5
7AA
102
{ACAD_REACTORS
330
7A9
102
}
330
7A9
100
AcDbCellStyleMap
 90
3
300
CELLSTYLE
  1
TABLEFORMAT_BEGIN
 90
5
170
1
 91
0
 92
32768
 62
257
 93
1
300
CONTENTFORMAT
  1
CONTENTFORMAT_BEGIN
 90
0
 91
0
 92
4
 93
0
300

 40
0.0
140
1.0
 94
5
 62
0
340
11
144
6.0
309
CONTENTFORMAT_END
171
1
301
MARGIN
  1
CELLMARGIN_BEGIN
 40
1.5
 40
1.5
 40
1.5
 40
1.5
 40
1.5
 40
1.5
309
CELLMARGIN_END
 94
6
 95
1
302
GRIDFORMAT
  1
GRIDFORMAT_BEGIN
 90
0
 91
1
 62
0
 92
-2
340
14
 93
0
 40
0.045
309
GRIDFORMAT_END
 95
2
302
GRIDFORMAT
  1
GRIDFORMAT_BEGIN
 90
0
 91
1
 62
0
 92
-2
340
14
 93
0
 40
0.045
309
GRIDFORMAT_END
 95
4
302
GRIDFORMAT
  1
GRIDFORMAT_BEGIN
 90
0
 91
1
 62
0
 92
-2
340
14
 93
0
 40
0.045
309
GRIDFORMAT_END
 95
8
302
GRIDFORMAT
  1
GRIDFORMAT_BEGIN
 90
0
 91
1
 62
0
 92
-2
340
14
 93
0
 40
0.045
309
GRIDFORMAT_END
 95
16
302
GRIDFORMAT
  1
GRIDFORMAT_BEGIN
 90
0
 91
1
 62
0
 92
-2
340
14
 93
0
 40
0.045
309
GRIDFORMAT_END
 95
32
302
GRIDFORMAT
  1
GRIDFORMAT_BEGIN
 90
0
 91
1
 62
0
 92
-2
340
14
 93
0
 40
0.045
309
GRIDFORMAT_END
309
TABLEFORMAT_END
  1
CELLSTYLE_BEGIN
 90
1
 91
1
300
_TITLE
309
CELLSTYLE_END
300
CELLSTYLE
  1
TABLEFORMAT_BEGIN
 90
5
170
1
 91
0
 92
0
 62
257
 93
1
300
CONTENTFORMAT
  1
CONTENTFORMAT_BEGIN
 90
0
 91
0
 92
4
 93
0
300

 40
0.0
140
1.0
 94
5
 62
0
340
11
144
4.5
309
CONTENTFORMAT_END
171
1
301
MARGIN
  1
CELLMARGIN_BEGIN
 40
1.5
 40
1.5
 40
1.5
 40
1.5
 40
1.5
 40
1.5
309
CELLMARGIN_END
 94
6
 95
1
302
GRIDFORMAT
  1
GRIDFORMAT_BEGIN
 90
0
 91
1
 62
0
 92
-2
340
14
 93
0
 40
0.045
309
GRIDFORMAT_END
 95
2
302
GRIDFORMAT
  1
GRIDFORMAT_BEGIN
 90
0
 91
1
 62
0
 92
-2
340
14
 93
0
 40
0.045
309
GRIDFORMAT_END
 95
4
302
GRIDFORMAT
  1
GRIDFORMAT_BEGIN
 90
0
 91
1
 62
0
 92
-2
340
14
 93
0
 40
0.045
309
GRIDFORMAT_END
 95
8
302
GRIDFORMAT
  1
GRIDFORMAT_BEGIN
 90
0
 91
1
 62
0
 92
-2
340
14
 93
0
 40
0.045
309
GRIDFORMAT_END
 95
16
302
GRIDFORMAT
  1
GRIDFORMAT_BEGIN
 90
0
 91
1
 62
0
 92
-2
340
14
 93
0
 40
0.045
309
GRIDFORMAT_END
 95
32
302
GRIDFORMAT
  1
GRIDFORMAT_BEGIN
 90
0
 91
1
 62
0
 92
-2
340
14
 93
0
 40
0.045
309
GRIDFORMAT_END
309
TABLEFORMAT_END
  1
CELLSTYLE_BEGIN
 90
2
 91
1
300
_HEADER
309
CELLSTYLE_END
300
CELLSTYLE
  1
TABLEFORMAT_BEGIN
 90
5
170
1
 91
0
 92
0
 62
257
 93
1
300
CONTENTFORMAT
  1
CONTENTFORMAT_BEGIN
 90
0
 91
0
 92
4
 93
0
300

 40
0.0
140
1.0
 94
2
 62
0
340
11
144
4.5
309
CONTENTFORMAT_END
171
1
301
MARGIN
  1
CELLMARGIN_BEGIN
 40
1.5
 40
1.5
 40
1.5
 40
1.5
 40
1.5
 40
1.5
309
CELLMARGIN_END
 94
6
 95
1
302
GRIDFORMAT
  1
GRIDFORMAT_BEGIN
 90
0
 91
1
 62
0
 92
-2
340
14
 93
0
 40
0.045
309
GRIDFORMAT_END
 95
2
302
GRIDFORMAT
  1
GRIDFORMAT_BEGIN
 90
0
 91
1
 62
0
 92
-2
340
14
 93
0
 40
0.045
309
GRIDFORMAT_END
 95
4
302
GRIDFORMAT
  1
GRIDFORMAT_BEGIN
 90
0
 91
1
 62
0
 92
-2
340
14
 93
0
 40
0.045
309
GRIDFORMAT_END
 95
8
302
GRIDFORMAT
  1
GRIDFORMAT_BEGIN
 90
0
 91
1
 62
0
 92
-2
340
14
 93
0
 40
0.045
309
GRIDFORMAT_END
 95
16
302
GRIDFORMAT
  1
GRIDFORMAT_BEGIN
 90
0
 91
1
 62
0
 92
-2
340
14
 93
0
 40
0.045
309
GRIDFORMAT_END
 95
32
302
GRIDFORMAT
  1
GRIDFORMAT_BEGIN
 90
0
 91
1
 62
0
 92
-2
340
14
 93
0
 40
0.045
309
GRIDFORMAT_END
309
TABLEFORMAT_END
  1
CELLSTYLE_BEGIN
 90
3
 91
2
300
_DATA
309
CELLSTYLE_END
  0
DICTIONARY
  5
7B1
330
C
100
AcDbDictionary
281
1
  0
DICTIONARY
  5
7B6
330
C
100
AcDbDictionary
280
1
281
1
  3
WRITTEN_BY_EZDXF
350
7B7
  0
DICTIONARYVAR
  5
7B7
330
7B6
100
DictionaryVariables
280
0
  1
1.4.3 @ 2026-04-01T09:52:33.223741+00:00
  0
ENDSEC
  0
EOF
