  0
SECTION
  2
HEADER
  9
$ACADVER
  1
AC1009
  9
$DWGCODEPAGE
  3
ANSI_1252
  9
$EXTMIN
 10
1e+20
 20
1e+20
 30
1e+20
  9
$EXTMAX
 10
-1e+20
 20
-1e+20
 30
-1e+20
  9
$LIMMIN
 10
0.0
 20
0.0
  9
$LIMMAX
 10
420.0
 20
297.0
  9
$TDCREATE
 40
2461050.8778819446
  9
$TDUPDATE
 40
2461050.8778819446
  9
$ANGBASE
 50
0.0
  9
$ANGDIR
 70
1
  9
$PEXTMIN
 10
1e+20
 20
1e+20
 30
1e+20
  9
$PEXTMAX
 10
-1e+20
 20
-1e+20
 30
-1e+20
  9
$PLIMMIN
 10
0.0
 20
0.0
  9
$PLIMMAX
 10
420.0
 20
297.0
  0
ENDSEC
  0
SECTION
  2
TABLES
  0
TABLE
  2
VPORT
 70
1
  0
VPORT
  2
*Active
 70
0
 10
0.0
 20
0.0
 11
1.0
 21
1.0
 12
0.0
 22
0.0
 13
0.0
 23
0.0
 14
0.5
 24
0.5
 15
0.5
 25
0.5
 16
0.0
 26
0.0
 36
1.0
 17
0.0
 27
0.0
 37
0.0
 40
1000.0
 41
1.34
 42
50.0
 43
0.0
 44
0.0
 50
0.0
 51
0.0
 71
0
 72
1000
 73
1
 74
3
 75
0
 76
0
 77
0
 78
0
  0
ENDTAB
  0
TABLE
  2
LTYPE
 70
6
  0
LTYPE
  2
CONTINUOUS
 70
0
  3
Solid line
 72
65
 73
0
 40
0.0
  0
LTYPE
  2
DASHDOT
 70
0
  3
Dash Dot ____ _ ____ _
 72
65
 73
4
 40
2.0
 49
1.25
 49
-0.25
 49
0.25
 49
-0.25
  0
LTYPE
  2
DASHED
 70
0
  3
Dashed __ __ __ __ __
 72
65
 73
2
 40
0.75
 49
0.5
 49
-0.25
  0
LTYPE
  2
DOTTED
 70
0
  3
Dotted .  .  .  .
 72
65
 73
2
 40
0.2
 49
0.0
 49
-0.2
  0
LTYPE
  2
ByBlock
 70
0
  3

 72
65
 73
0
 40
0.0
  0
LTYPE
  2
ByLayer
 70
0
  3

 72
65
 73
0
 40
0.0
  0
ENDTAB
  0
TABLE
  2
LAYER
 70
3
  0
LAYER
  2
BLACK
 70
0
 62
7
  6
CONTINUOUS
  0
LAYER
  2
0
 70
0
 62
7
  6
Continuous
  0
LAYER
  2
Defpoints
 70
0
 62
7
  6
Continuous
  0
ENDTAB
  0
TABLE
  2
STYLE
 70
5
  0
STYLE
  2
KICAD
 70
0
 40
0.0
 41
1.0
 50
0.0
 71
0
 42
1.0
  3
isocp.shx
  4

  0
STYLE
  2
KICADB
 70
0
 40
0.0
 41
1.0
 50
0.0
 71
0
 42
1.0
  3
isocp.shx
  4

  0
STYLE
  2
KICADI
 70
0
 40
0.0
 41
1.0
 50
15.0
 71
0
 42
1.0
  3
isocp.shx
  4

  0
STYLE
  2
KICADBI
 70
0
 40
0.0
 41
1.0
 50
15.0
 71
0
 42
1.0
  3
isocp.shx
  4

  0
STYLE
  2
Standard
 70
0
 40
0.0
 41
1.0
 50
0.0
 71
0
 42
2.5
  3
txt
  4

  0
ENDTAB
  0
TABLE
  2
VIEW
 70
0
  0
ENDTAB
  0
TABLE
  2
UCS
 70
0
  0
ENDTAB
  0
TABLE
  2
APPID
 70
3
  0
APPID
  2
ACAD
 70
0
  0
APPID
  2
HATCHBACKGROUNDCOLOR
 70
0
  0
APPID
  2
EZDXF
 70
0
  0
ENDTAB
  0
TABLE
  2
DIMSTYLE
 70
1
  0
DIMSTYLE
  2
Standard
 70
0
  3

  4

  5

  6

  7

 40
1.0
 41
2.5
 42
0.625
 43
3.75
 44
1.25
 45
0.0
 46
0.0
 47
0.0
 48
0.0
140
2.5
141
2.5
142
0.0
143
0.03937007874
144
1.0
145
0.0
146
1.0
147
0.625
 71
0
 72
0
 73
0
 74
0
 75
0
 76
0
 77
1
 78
8
170
0
171
3
172
1
173
0
174
0
175
0
176
0
177
0
178
0
  0
ENDTAB
  0
ENDSEC
  0
SECTION
  2
BLOCKS
  0
BLOCK
  8
0
  2
$Model_Space
 70
0
 10
0.0
 20
0.0
 30
0.0
  3
$Model_Space
  1

1001
EZDXF
1000
WRITTEN_BY_EZDXF
1000
1.4.3 @ 2026-01-09T20:04:09.877861+00:00
  0
ENDBLK
  8
0
  0
BLOCK
  8
0
  2
$Paper_Space
 70
0
 10
0.0
 20
0.0
 30
0.0
  3
$Paper_Space
  1

  0
ENDBLK
  8
0
  0
ENDSEC
  0
SECTION
  2
ENTITIES
  0
LINE
  8
BLACK
  6
CONTINUOUS
 10
219.58749999999998
 20
-64.2
 30
0.0
 11
209.0375
 21
-64.2
 31
0.0
  0
LINE
  8
BLACK
  6
CONTINUOUS
 10
219.58749999999998
 20
-50.099999999999994
 30
0.0
 11
209.0375
 21
-50.099999999999994
 31
0.0
  0
LINE
  8
BLACK
  6
CONTINUOUS
 10
206.96249999999998
 20
-52.175
 30
0.0
 11
206.96249999999998
 21
-62.125
 31
0.0
  0
ARC
  8
BLACK
 10
209.0375
 20
-52.175
 30
0.0
 40
2.0749999999999997
 50
90.0
 51
180.0
  0
ARC
  8
BLACK
 10
219.58749999999998
 20
-52.175
 30
0.0
 40
2.0749999999999997
 50
0.0
 51
90.0
  0
ARC
  8
BLACK
 10
209.0375
 20
-62.125
 30
0.0
 40
2.0749999999999997
 50
-180.0
 51
-90.0
  0
LINE
  8
BLACK
  6
CONTINUOUS
 10
221.6625
 20
-52.175
 30
0.0
 11
221.6625
 21
-62.125
 31
0.0
  0
ARC
  8
BLACK
 10
219.58749999999998
 20
-62.125
 30
0.0
 40
2.0749999999999997
 50
-90.0
 51
-0.0
  0
LINE
  8
BLACK
  6
CONTINUOUS
 10
200.5375
 20
-64.2
 30
0.0
 11
189.98749999999998
 21
-64.2
 31
0.0
  0
LINE
  8
BLACK
  6
CONTINUOUS
 10
200.5375
 20
-50.099999999999994
 30
0.0
 11
189.98749999999998
 21
-50.099999999999994
 31
0.0
  0
LINE
  8
BLACK
  6
CONTINUOUS
 10
187.9125
 20
-52.175
 30
0.0
 11
187.9125
 21
-62.125
 31
0.0
  0
ARC
  8
BLACK
 10
189.98749999999998
 20
-52.175
 30
0.0
 40
2.0749999999999997
 50
90.0
 51
180.0
  0
ARC
  8
BLACK
 10
200.5375
 20
-52.175
 30
0.0
 40
2.0749999999999997
 50
0.0
 51
90.0
  0
ARC
  8
BLACK
 10
189.98749999999998
 20
-62.125
 30
0.0
 40
2.0749999999999997
 50
-180.0
 51
-90.0
  0
LINE
  8
BLACK
  6
CONTINUOUS
 10
202.61249999999998
 20
-52.175
 30
0.0
 11
202.61249999999998
 21
-62.125
 31
0.0
  0
ARC
  8
BLACK
 10
200.5375
 20
-62.125
 30
0.0
 40
2.0749999999999997
 50
-90.0
 51
-0.0
  0
LINE
  8
BLACK
  6
CONTINUOUS
 10
181.48749999999998
 20
-64.2
 30
0.0
 11
170.9375
 21
-64.2
 31
0.0
  0
LINE
  8
BLACK
  6
CONTINUOUS
 10
181.48749999999998
 20
-50.099999999999994
 30
0.0
 11
170.9375
 21
-50.099999999999994
 31
0.0
  0
LINE
  8
BLACK
  6
CONTINUOUS
 10
168.86249999999998
 20
-52.175
 30
0.0
 11
168.86249999999998
 21
-62.125
 31
0.0
  0
ARC
  8
BLACK
 10
170.9375
 20
-52.175
 30
0.0
 40
2.0749999999999997
 50
90.0
 51
180.0
  0
ARC
  8
BLACK
 10
181.48749999999998
 20
-52.175
 30
0.0
 40
2.0749999999999997
 50
0.0
 51
90.0
  0
ARC
  8
BLACK
 10
170.9375
 20
-62.125
 30
0.0
 40
2.0749999999999997
 50
-180.0
 51
-90.0
  0
LINE
  8
BLACK
  6
CONTINUOUS
 10
183.5625
 20
-52.175
 30
0.0
 11
183.5625
 21
-62.125
 31
0.0
  0
ARC
  8
BLACK
 10
181.48749999999998
 20
-62.125
 30
0.0
 40
2.0749999999999997
 50
-90.0
 51
-0.0
  0
LINE
  8
BLACK
  6
CONTINUOUS
 10
162.4375
 20
-64.2
 30
0.0
 11
151.8875
 21
-64.2
 31
0.0
  0
LINE
  8
BLACK
  6
CONTINUOUS
 10
162.4375
 20
-50.099999999999994
 30
0.0
 11
151.8875
 21
-50.099999999999994
 31
0.0
  0
LINE
  8
BLACK
  6
CONTINUOUS
 10
149.8125
 20
-52.175
 30
0.0
 11
149.8125
 21
-62.125
 31
0.0
  0
ARC
  8
BLACK
 10
151.8875
 20
-52.175
 30
0.0
 40
2.0749999999999997
 50
90.0
 51
180.0
  0
ARC
  8
BLACK
 10
162.4375
 20
-52.175
 30
0.0
 40
2.0749999999999997
 50
0.0
 51
90.0
  0
ARC
  8
BLACK
 10
151.8875
 20
-62.125
 30
0.0
 40
2.0749999999999997
 50
-180.0
 51
-90.0
  0
LINE
  8
BLACK
  6
CONTINUOUS
 10
164.5125
 20
-52.175
 30
0.0
 11
164.5125
 21
-62.125
 31
0.0
  0
ARC
  8
BLACK
 10
162.4375
 20
-62.125
 30
0.0
 40
2.0749999999999997
 50
-90.0
 51
-0.0
  0
LINE
  8
BLACK
  6
CONTINUOUS
 10
143.3875
 20
-64.2
 30
0.0
 11
132.8375
 21
-64.2
 31
0.0
  0
LINE
  8
BLACK
  6
CONTINUOUS
 10
143.3875
 20
-50.099999999999994
 30
0.0
 11
132.8375
 21
-50.099999999999994
 31
0.0
  0
LINE
  8
BLACK
  6
CONTINUOUS
 10
130.7625
 20
-52.175
 30
0.0
 11
130.7625
 21
-62.125
 31
0.0
  0
ARC
  8
BLACK
 10
132.8375
 20
-52.175
 30
0.0
 40
2.0749999999999997
 50
90.0
 51
180.0
  0
ARC
  8
BLACK
 10
143.3875
 20
-52.175
 30
0.0
 40
2.0749999999999997
 50
0.0
 51
90.0
  0
ARC
  8
BLACK
 10
132.8375
 20
-62.125
 30
0.0
 40
2.0749999999999997
 50
-180.0
 51
-90.0
  0
LINE
  8
BLACK
  6
CONTINUOUS
 10
145.4625
 20
-52.175
 30
0.0
 11
145.4625
 21
-62.125
 31
0.0
  0
ARC
  8
BLACK
 10
143.3875
 20
-62.125
 30
0.0
 40
2.0749999999999997
 50
-90.0
 51
-0.0
  0
LINE
  8
BLACK
  6
CONTINUOUS
 10
124.33749999999999
 20
-64.2
 30
0.0
 11
113.7875
 21
-64.2
 31
0.0
  0
LINE
  8
BLACK
  6
CONTINUOUS
 10
124.33749999999999
 20
-50.099999999999994
 30
0.0
 11
113.7875
 21
-50.099999999999994
 31
0.0
  0
LINE
  8
BLACK
  6
CONTINUOUS
 10
111.71249999999999
 20
-52.175
 30
0.0
 11
111.71249999999999
 21
-62.125
 31
0.0
  0
ARC
  8
BLACK
 10
113.7875
 20
-52.175
 30
0.0
 40
2.0749999999999997
 50
90.0
 51
180.0
  0
ARC
  8
BLACK
 10
124.33749999999999
 20
-52.175
 30
0.0
 40
2.0749999999999997
 50
0.0
 51
90.0
  0
ARC
  8
BLACK
 10
113.7875
 20
-62.125
 30
0.0
 40
2.0749999999999997
 50
-180.0
 51
-90.0
  0
LINE
  8
BLACK
  6
CONTINUOUS
 10
126.4125
 20
-52.175
 30
0.0
 11
126.4125
 21
-62.125
 31
0.0
  0
ARC
  8
BLACK
 10
124.33749999999999
 20
-62.125
 30
0.0
 40
2.0749999999999997
 50
-90.0
 51
-0.0
  0
LINE
  8
BLACK
  6
CONTINUOUS
 10
105.2875
 20
-64.2
 30
0.0
 11
94.7375
 21
-64.2
 31
0.0
  0
LINE
  8
BLACK
  6
CONTINUOUS
 10
105.2875
 20
-50.099999999999994
 30
0.0
 11
94.7375
 21
-50.099999999999994
 31
0.0
  0
LINE
  8
BLACK
  6
CONTINUOUS
 10
92.6625
 20
-52.175
 30
0.0
 11
92.6625
 21
-62.125
 31
0.0
  0
ARC
  8
BLACK
 10
94.7375
 20
-52.175
 30
0.0
 40
2.0749999999999997
 50
90.0
 51
180.0
  0
ARC
  8
BLACK
 10
105.2875
 20
-52.175
 30
0.0
 40
2.0749999999999997
 50
0.0
 51
90.0
  0
ARC
  8
BLACK
 10
94.7375
 20
-62.125
 30
0.0
 40
2.0749999999999997
 50
-180.0
 51
-90.0
  0
LINE
  8
BLACK
  6
CONTINUOUS
 10
107.3625
 20
-52.175
 30
0.0
 11
107.3625
 21
-62.125
 31
0.0
  0
ARC
  8
BLACK
 10
105.2875
 20
-62.125
 30
0.0
 40
2.0749999999999997
 50
-90.0
 51
-0.0
  0
LINE
  8
BLACK
  6
CONTINUOUS
 10
86.2375
 20
-64.2
 30
0.0
 11
75.6875
 21
-64.2
 31
0.0
  0
LINE
  8
BLACK
  6
CONTINUOUS
 10
86.2375
 20
-50.099999999999994
 30
0.0
 11
75.6875
 21
-50.099999999999994
 31
0.0
  0
LINE
  8
BLACK
  6
CONTINUOUS
 10
73.6125
 20
-52.175
 30
0.0
 11
73.6125
 21
-62.125
 31
0.0
  0
ARC
  8
BLACK
 10
75.6875
 20
-52.175
 30
0.0
 40
2.0749999999999997
 50
90.0
 51
180.0
  0
ARC
  8
BLACK
 10
86.2375
 20
-52.175
 30
0.0
 40
2.0749999999999997
 50
0.0
 51
90.0
  0
ARC
  8
BLACK
 10
75.6875
 20
-62.125
 30
0.0
 40
2.0749999999999997
 50
-180.0
 51
-90.0
  0
LINE
  8
BLACK
  6
CONTINUOUS
 10
88.3125
 20
-52.175
 30
0.0
 11
88.3125
 21
-62.125
 31
0.0
  0
ARC
  8
BLACK
 10
86.2375
 20
-62.125
 30
0.0
 40
2.0749999999999997
 50
-90.0
 51
-0.0
  0
LINE
  8
BLACK
  6
CONTINUOUS
 10
67.1875
 20
-64.2
 30
0.0
 11
56.637499999999996
 21
-64.2
 31
0.0
  0
LINE
  8
BLACK
  6
CONTINUOUS
 10
67.1875
 20
-50.099999999999994
 30
0.0
 11
56.637499999999996
 21
-50.099999999999994
 31
0.0
  0
LINE
  8
BLACK
  6
CONTINUOUS
 10
54.5625
 20
-52.175
 30
0.0
 11
54.5625
 21
-62.125
 31
0.0
  0
ARC
  8
BLACK
 10
56.637499999999996
 20
-52.175
 30
0.0
 40
2.0749999999999997
 50
90.0
 51
180.0
  0
ARC
  8
BLACK
 10
67.1875
 20
-52.175
 30
0.0
 40
2.0749999999999997
 50
0.0
 51
90.0
  0
ARC
  8
BLACK
 10
56.637499999999996
 20
-62.125
 30
0.0
 40
2.0749999999999997
 50
-180.0
 51
-90.0
  0
LINE
  8
BLACK
  6
CONTINUOUS
 10
69.2625
 20
-52.175
 30
0.0
 11
69.2625
 21
-62.125
 31
0.0
  0
ARC
  8
BLACK
 10
67.1875
 20
-62.125
 30
0.0
 40
2.0749999999999997
 50
-90.0
 51
-0.0
  0
LINE
  8
BLACK
  6
CONTINUOUS
 10
48.137499999999996
 20
-64.2
 30
0.0
 11
37.5875
 21
-64.2
 31
0.0
  0
LINE
  8
BLACK
  6
CONTINUOUS
 10
48.137499999999996
 20
-50.099999999999994
 30
0.0
 11
37.5875
 21
-50.099999999999994
 31
0.0
  0
LINE
  8
BLACK
  6
CONTINUOUS
 10
35.512499999999996
 20
-52.175
 30
0.0
 11
35.512499999999996
 21
-62.125
 31
0.0
  0
ARC
  8
BLACK
 10
37.5875
 20
-52.175
 30
0.0
 40
2.0749999999999997
 50
90.0
 51
180.0
  0
ARC
  8
BLACK
 10
48.137499999999996
 20
-52.175
 30
0.0
 40
2.0749999999999997
 50
0.0
 51
90.0
  0
ARC
  8
BLACK
 10
37.5875
 20
-62.125
 30
0.0
 40
2.0749999999999997
 50
-180.0
 51
-90.0
  0
LINE
  8
BLACK
  6
CONTINUOUS
 10
50.2125
 20
-52.175
 30
0.0
 11
50.2125
 21
-62.125
 31
0.0
  0
ARC
  8
BLACK
 10
48.137499999999996
 20
-62.125
 30
0.0
 40
2.0749999999999997
 50
-90.0
 51
-0.0
  0
LINE
  8
BLACK
  6
CONTINUOUS
 10
38.6125
 20
-45.15
 30
0.0
 11
28.0625
 21
-45.15
 31
0.0
  0
LINE
  8
BLACK
  6
CONTINUOUS
 10
38.6125
 20
-31.049999999999997
 30
0.0
 11
28.0625
 21
-31.049999999999997
 31
0.0
  0
LINE
  8
BLACK
  6
CONTINUOUS
 10
25.987499999999997
 20
-33.125
 30
0.0
 11
25.987499999999997
 21
-43.074999999999996
 31
0.0
  0
ARC
  8
BLACK
 10
28.0625
 20
-33.125
 30
0.0
 40
2.0749999999999997
 50
90.0
 51
180.0
  0
ARC
  8
BLACK
 10
38.6125
 20
-33.125
 30
0.0
 40
2.0749999999999997
 50
0.0
 51
90.0
  0
ARC
  8
BLACK
 10
28.0625
 20
-43.074999999999996
 30
0.0
 40
2.0749999999999997
 50
-180.0
 51
-90.0
  0
LINE
  8
BLACK
  6
CONTINUOUS
 10
40.6875
 20
-33.125
 30
0.0
 11
40.6875
 21
-43.074999999999996
 31
0.0
  0
ARC
  8
BLACK
 10
38.6125
 20
-43.074999999999996
 30
0.0
 40
2.0749999999999997
 50
-90.0
 51
-0.0
  0
LINE
  8
BLACK
  6
CONTINUOUS
 10
57.662499999999994
 20
-45.15
 30
0.0
 11
47.1125
 21
-45.15
 31
0.0
  0
LINE
  8
BLACK
  6
CONTINUOUS
 10
57.662499999999994
 20
-31.049999999999997
 30
0.0
 11
47.1125
 21
-31.049999999999997
 31
0.0
  0
LINE
  8
BLACK
  6
CONTINUOUS
 10
45.0375
 20
-33.125
 30
0.0
 11
45.0375
 21
-43.074999999999996
 31
0.0
  0
ARC
  8
BLACK
 10
47.1125
 20
-33.125
 30
0.0
 40
2.0749999999999997
 50
90.0
 51
180.0
  0
ARC
  8
BLACK
 10
57.662499999999994
 20
-33.125
 30
0.0
 40
2.0749999999999997
 50
0.0
 51
90.0
  0
ARC
  8
BLACK
 10
47.1125
 20
-43.074999999999996
 30
0.0
 40
2.0749999999999997
 50
-180.0
 51
-90.0
  0
LINE
  8
BLACK
  6
CONTINUOUS
 10
59.7375
 20
-33.125
 30
0.0
 11
59.7375
 21
-43.074999999999996
 31
0.0
  0
ARC
  8
BLACK
 10
57.662499999999994
 20
-43.074999999999996
 30
0.0
 40
2.0749999999999997
 50
-90.0
 51
-0.0
  0
LINE
  8
BLACK
  6
CONTINUOUS
 10
76.71249999999999
 20
-45.15
 30
0.0
 11
66.1625
 21
-45.15
 31
0.0
  0
LINE
  8
BLACK
  6
CONTINUOUS
 10
76.71249999999999
 20
-31.049999999999997
 30
0.0
 11
66.1625
 21
-31.049999999999997
 31
0.0
  0
LINE
  8
BLACK
  6
CONTINUOUS
 10
64.08749999999999
 20
-33.125
 30
0.0
 11
64.08749999999999
 21
-43.074999999999996
 31
0.0
  0
ARC
  8
BLACK
 10
66.1625
 20
-33.125
 30
0.0
 40
2.0749999999999997
 50
90.0
 51
180.0
  0
ARC
  8
BLACK
 10
76.71249999999999
 20
-33.125
 30
0.0
 40
2.0749999999999997
 50
0.0
 51
90.0
  0
ARC
  8
BLACK
 10
66.1625
 20
-43.074999999999996
 30
0.0
 40
2.0749999999999997
 50
-180.0
 51
-90.0
  0
LINE
  8
BLACK
  6
CONTINUOUS
 10
78.7875
 20
-33.125
 30
0.0
 11
78.7875
 21
-43.074999999999996
 31
0.0
  0
ARC
  8
BLACK
 10
76.71249999999999
 20
-43.074999999999996
 30
0.0
 40
2.0749999999999997
 50
-90.0
 51
-0.0
  0
LINE
  8
BLACK
  6
CONTINUOUS
 10
95.76249999999999
 20
-45.15
 30
0.0
 11
85.21249999999999
 21
-45.15
 31
0.0
  0
LINE
  8
BLACK
  6
CONTINUOUS
 10
95.76249999999999
 20
-31.049999999999997
 30
0.0
 11
85.21249999999999
 21
-31.049999999999997
 31
0.0
  0
LINE
  8
BLACK
  6
CONTINUOUS
 10
83.1375
 20
-33.125
 30
0.0
 11
83.1375
 21
-43.074999999999996
 31
0.0
  0
ARC
  8
BLACK
 10
85.21249999999999
 20
-33.125
 30
0.0
 40
2.0749999999999997
 50
90.0
 51
180.0
  0
ARC
  8
BLACK
 10
95.76249999999999
 20
-33.125
 30
0.0
 40
2.0749999999999997
 50
0.0
 51
90.0
  0
ARC
  8
BLACK
 10
85.21249999999999
 20
-43.074999999999996
 30
0.0
 40
2.0749999999999997
 50
-180.0
 51
-90.0
  0
LINE
  8
BLACK
  6
CONTINUOUS
 10
97.83749999999999
 20
-33.125
 30
0.0
 11
97.83749999999999
 21
-43.074999999999996
 31
0.0
  0
ARC
  8
BLACK
 10
95.76249999999999
 20
-43.074999999999996
 30
0.0
 40
2.0749999999999997
 50
-90.0
 51
-0.0
  0
LINE
  8
BLACK
  6
CONTINUOUS
 10
114.8125
 20
-45.15
 30
0.0
 11
104.26249999999999
 21
-45.15
 31
0.0
  0
LINE
  8
BLACK
  6
CONTINUOUS
 10
114.8125
 20
-31.049999999999997
 30
0.0
 11
104.26249999999999
 21
-31.049999999999997
 31
0.0
  0
LINE
  8
BLACK
  6
CONTINUOUS
 10
102.1875
 20
-33.125
 30
0.0
 11
102.1875
 21
-43.074999999999996
 31
0.0
  0
ARC
  8
BLACK
 10
104.26249999999999
 20
-33.125
 30
0.0
 40
2.0749999999999997
 50
90.0
 51
180.0
  0
ARC
  8
BLACK
 10
114.8125
 20
-33.125
 30
0.0
 40
2.0749999999999997
 50
0.0
 51
90.0
  0
ARC
  8
BLACK
 10
104.26249999999999
 20
-43.074999999999996
 30
0.0
 40
2.0749999999999997
 50
-180.0
 51
-90.0
  0
LINE
  8
BLACK
  6
CONTINUOUS
 10
116.88749999999999
 20
-33.125
 30
0.0
 11
116.88749999999999
 21
-43.074999999999996
 31
0.0
  0
ARC
  8
BLACK
 10
114.8125
 20
-43.074999999999996
 30
0.0
 40
2.0749999999999997
 50
-90.0
 51
-0.0
  0
LINE
  8
BLACK
  6
CONTINUOUS
 10
133.86249999999998
 20
-45.15
 30
0.0
 11
123.3125
 21
-45.15
 31
0.0
  0
LINE
  8
BLACK
  6
CONTINUOUS
 10
133.86249999999998
 20
-31.049999999999997
 30
0.0
 11
123.3125
 21
-31.049999999999997
 31
0.0
  0
LINE
  8
BLACK
  6
CONTINUOUS
 10
121.2375
 20
-33.125
 30
0.0
 11
121.2375
 21
-43.074999999999996
 31
0.0
  0
ARC
  8
BLACK
 10
123.3125
 20
-33.125
 30
0.0
 40
2.0749999999999997
 50
90.0
 51
180.0
  0
ARC
  8
BLACK
 10
133.86249999999998
 20
-33.125
 30
0.0
 40
2.0749999999999997
 50
0.0
 51
90.0
  0
ARC
  8
BLACK
 10
123.3125
 20
-43.074999999999996
 30
0.0
 40
2.0749999999999997
 50
-180.0
 51
-90.0
  0
LINE
  8
BLACK
  6
CONTINUOUS
 10
135.9375
 20
-33.125
 30
0.0
 11
135.9375
 21
-43.074999999999996
 31
0.0
  0
ARC
  8
BLACK
 10
133.86249999999998
 20
-43.074999999999996
 30
0.0
 40
2.0749999999999997
 50
-90.0
 51
-0.0
  0
LINE
  8
BLACK
  6
CONTINUOUS
 10
152.9125
 20
-45.15
 30
0.0
 11
142.36249999999998
 21
-45.15
 31
0.0
  0
LINE
  8
BLACK
  6
CONTINUOUS
 10
152.9125
 20
-31.049999999999997
 30
0.0
 11
142.36249999999998
 21
-31.049999999999997
 31
0.0
  0
LINE
  8
BLACK
  6
CONTINUOUS
 10
140.2875
 20
-33.125
 30
0.0
 11
140.2875
 21
-43.074999999999996
 31
0.0
  0
ARC
  8
BLACK
 10
142.36249999999998
 20
-33.125
 30
0.0
 40
2.0749999999999997
 50
90.0
 51
180.0
  0
ARC
  8
BLACK
 10
152.9125
 20
-33.125
 30
0.0
 40
2.0749999999999997
 50
0.0
 51
90.0
  0
ARC
  8
BLACK
 10
142.36249999999998
 20
-43.074999999999996
 30
0.0
 40
2.0749999999999997
 50
-180.0
 51
-90.0
  0
LINE
  8
BLACK
  6
CONTINUOUS
 10
154.98749999999998
 20
-33.125
 30
0.0
 11
154.98749999999998
 21
-43.074999999999996
 31
0.0
  0
ARC
  8
BLACK
 10
152.9125
 20
-43.074999999999996
 30
0.0
 40
2.0749999999999997
 50
-90.0
 51
-0.0
  0
LINE
  8
BLACK
  6
CONTINUOUS
 10
171.9625
 20
-45.15
 30
0.0
 11
161.4125
 21
-45.15
 31
0.0
  0
LINE
  8
BLACK
  6
CONTINUOUS
 10
171.9625
 20
-31.049999999999997
 30
0.0
 11
161.4125
 21
-31.049999999999997
 31
0.0
  0
LINE
  8
BLACK
  6
CONTINUOUS
 10
159.3375
 20
-33.125
 30
0.0
 11
159.3375
 21
-43.074999999999996
 31
0.0
  0
ARC
  8
BLACK
 10
161.4125
 20
-33.125
 30
0.0
 40
2.0749999999999997
 50
90.0
 51
180.0
  0
ARC
  8
BLACK
 10
171.9625
 20
-33.125
 30
0.0
 40
2.0749999999999997
 50
0.0
 51
90.0
  0
ARC
  8
BLACK
 10
161.4125
 20
-43.074999999999996
 30
0.0
 40
2.0749999999999997
 50
-180.0
 51
-90.0
  0
LINE
  8
BLACK
  6
CONTINUOUS
 10
174.0375
 20
-33.125
 30
0.0
 11
174.0375
 21
-43.074999999999996
 31
0.0
  0
ARC
  8
BLACK
 10
171.9625
 20
-43.074999999999996
 30
0.0
 40
2.0749999999999997
 50
-90.0
 51
-0.0
  0
LINE
  8
BLACK
  6
CONTINUOUS
 10
191.0125
 20
-45.15
 30
0.0
 11
180.4625
 21
-45.15
 31
0.0
  0
LINE
  8
BLACK
  6
CONTINUOUS
 10
191.0125
 20
-31.049999999999997
 30
0.0
 11
180.4625
 21
-31.049999999999997
 31
0.0
  0
LINE
  8
BLACK
  6
CONTINUOUS
 10
178.3875
 20
-33.125
 30
0.0
 11
178.3875
 21
-43.074999999999996
 31
0.0
  0
ARC
  8
BLACK
 10
180.4625
 20
-33.125
 30
0.0
 40
2.0749999999999997
 50
90.0
 51
180.0
  0
ARC
  8
BLACK
 10
191.0125
 20
-33.125
 30
0.0
 40
2.0749999999999997
 50
0.0
 51
90.0
  0
ARC
  8
BLACK
 10
180.4625
 20
-43.074999999999996
 30
0.0
 40
2.0749999999999997
 50
-180.0
 51
-90.0
  0
LINE
  8
BLACK
  6
CONTINUOUS
 10
193.08749999999998
 20
-33.125
 30
0.0
 11
193.08749999999998
 21
-43.074999999999996
 31
0.0
  0
ARC
  8
BLACK
 10
191.0125
 20
-43.074999999999996
 30
0.0
 40
2.0749999999999997
 50
-90.0
 51
-0.0
  0
LINE
  8
BLACK
  6
CONTINUOUS
 10
210.0625
 20
-45.15
 30
0.0
 11
199.5125
 21
-45.15
 31
0.0
  0
LINE
  8
BLACK
  6
CONTINUOUS
 10
210.0625
 20
-31.049999999999997
 30
0.0
 11
199.5125
 21
-31.049999999999997
 31
0.0
  0
LINE
  8
BLACK
  6
CONTINUOUS
 10
197.4375
 20
-33.125
 30
0.0
 11
197.4375
 21
-43.074999999999996
 31
0.0
  0
ARC
  8
BLACK
 10
199.5125
 20
-33.125
 30
0.0
 40
2.0749999999999997
 50
90.0
 51
180.0
  0
ARC
  8
BLACK
 10
210.0625
 20
-33.125
 30
0.0
 40
2.0749999999999997
 50
0.0
 51
90.0
  0
ARC
  8
BLACK
 10
199.5125
 20
-43.074999999999996
 30
0.0
 40
2.0749999999999997
 50
-180.0
 51
-90.0
  0
LINE
  8
BLACK
  6
CONTINUOUS
 10
212.1375
 20
-33.125
 30
0.0
 11
212.1375
 21
-43.074999999999996
 31
0.0
  0
ARC
  8
BLACK
 10
210.0625
 20
-43.074999999999996
 30
0.0
 40
2.0749999999999997
 50
-90.0
 51
-0.0
  0
LINE
  8
BLACK
  6
CONTINUOUS
 10
229.11249999999998
 20
-45.15
 30
0.0
 11
218.5625
 21
-45.15
 31
0.0
  0
LINE
  8
BLACK
  6
CONTINUOUS
 10
229.11249999999998
 20
-31.049999999999997
 30
0.0
 11
218.5625
 21
-31.049999999999997
 31
0.0
  0
LINE
  8
BLACK
  6
CONTINUOUS
 10
216.48749999999998
 20
-33.125
 30
0.0
 11
216.48749999999998
 21
-43.074999999999996
 31
0.0
  0
ARC
  8
BLACK
 10
218.5625
 20
-33.125
 30
0.0
 40
2.0749999999999997
 50
90.0
 51
180.0
  0
ARC
  8
BLACK
 10
229.11249999999998
 20
-33.125
 30
0.0
 40
2.0749999999999997
 50
0.0
 51
90.0
  0
ARC
  8
BLACK
 10
218.5625
 20
-43.074999999999996
 30
0.0
 40
2.0749999999999997
 50
-180.0
 51
-90.0
  0
LINE
  8
BLACK
  6
CONTINUOUS
 10
231.1875
 20
-33.125
 30
0.0
 11
231.1875
 21
-43.074999999999996
 31
0.0
  0
ARC
  8
BLACK
 10
229.11249999999998
 20
-43.074999999999996
 30
0.0
 40
2.0749999999999997
 50
-90.0
 51
-0.0
  0
LINE
  8
BLACK
  6
CONTINUOUS
 10
243.39999999999998
 20
-26.099999999999998
 30
0.0
 11
232.85
 21
-26.099999999999998
 31
0.0
  0
LINE
  8
BLACK
  6
CONTINUOUS
 10
243.39999999999998
 20
-12.0
 30
0.0
 11
232.85
 21
-12.0
 31
0.0
  0
LINE
  8
BLACK
  6
CONTINUOUS
 10
230.77499999999998
 20
-14.075
 30
0.0
 11
230.77499999999998
 21
-24.025
 31
0.0
  0
ARC
  8
BLACK
 10
232.85
 20
-14.075
 30
0.0
 40
2.0749999999999997
 50
90.0
 51
180.0
  0
ARC
  8
BLACK
 10
243.39999999999998
 20
-14.075
 30
0.0
 40
2.0749999999999997
 50
0.0
 51
90.0
  0
ARC
  8
BLACK
 10
232.85
 20
-24.025
 30
0.0
 40
2.0749999999999997
 50
-180.0
 51
-90.0
  0
LINE
  8
BLACK
  6
CONTINUOUS
 10
245.475
 20
-14.075
 30
0.0
 11
245.475
 21
-24.025
 31
0.0
  0
ARC
  8
BLACK
 10
243.39999999999998
 20
-24.025
 30
0.0
 40
2.0749999999999997
 50
-90.0
 51
-0.0
  0
LINE
  8
BLACK
  6
CONTINUOUS
 10
224.35
 20
-26.099999999999998
 30
0.0
 11
213.79999999999998
 21
-26.099999999999998
 31
0.0
  0
LINE
  8
BLACK
  6
CONTINUOUS
 10
224.35
 20
-12.0
 30
0.0
 11
213.79999999999998
 21
-12.0
 31
0.0
  0
LINE
  8
BLACK
  6
CONTINUOUS
 10
211.725
 20
-14.075
 30
0.0
 11
211.725
 21
-24.025
 31
0.0
  0
ARC
  8
BLACK
 10
213.79999999999998
 20
-14.075
 30
0.0
 40
2.0749999999999997
 50
90.0
 51
180.0
  0
ARC
  8
BLACK
 10
224.35
 20
-14.075
 30
0.0
 40
2.0749999999999997
 50
0.0
 51
90.0
  0
ARC
  8
BLACK
 10
213.79999999999998
 20
-24.025
 30
0.0
 40
2.0749999999999997
 50
-180.0
 51
-90.0
  0
LINE
  8
BLACK
  6
CONTINUOUS
 10
226.42499999999998
 20
-14.075
 30
0.0
 11
226.42499999999998
 21
-24.025
 31
0.0
  0
ARC
  8
BLACK
 10
224.35
 20
-24.025
 30
0.0
 40
2.0749999999999997
 50
-90.0
 51
-0.0
  0
LINE
  8
BLACK
  6
CONTINUOUS
 10
205.29999999999998
 20
-26.099999999999998
 30
0.0
 11
194.75
 21
-26.099999999999998
 31
0.0
  0
LINE
  8
BLACK
  6
CONTINUOUS
 10
205.29999999999998
 20
-12.0
 30
0.0
 11
194.75
 21
-12.0
 31
0.0
  0
LINE
  8
BLACK
  6
CONTINUOUS
 10
192.67499999999998
 20
-14.075
 30
0.0
 11
192.67499999999998
 21
-24.025
 31
0.0
  0
ARC
  8
BLACK
 10
194.75
 20
-14.075
 30
0.0
 40
2.0749999999999997
 50
90.0
 51
180.0
  0
ARC
  8
BLACK
 10
205.29999999999998
 20
-14.075
 30
0.0
 40
2.0749999999999997
 50
0.0
 51
90.0
  0
ARC
  8
BLACK
 10
194.75
 20
-24.025
 30
0.0
 40
2.0749999999999997
 50
-180.0
 51
-90.0
  0
LINE
  8
BLACK
  6
CONTINUOUS
 10
207.375
 20
-14.075
 30
0.0
 11
207.375
 21
-24.025
 31
0.0
  0
ARC
  8
BLACK
 10
205.29999999999998
 20
-24.025
 30
0.0
 40
2.0749999999999997
 50
-90.0
 51
-0.0
  0
LINE
  8
BLACK
  6
CONTINUOUS
 10
186.25
 20
-26.099999999999998
 30
0.0
 11
175.7
 21
-26.099999999999998
 31
0.0
  0
LINE
  8
BLACK
  6
CONTINUOUS
 10
186.25
 20
-12.0
 30
0.0
 11
175.7
 21
-12.0
 31
0.0
  0
LINE
  8
BLACK
  6
CONTINUOUS
 10
173.625
 20
-14.075
 30
0.0
 11
173.625
 21
-24.025
 31
0.0
  0
ARC
  8
BLACK
 10
175.7
 20
-14.075
 30
0.0
 40
2.0749999999999997
 50
90.0
 51
180.0
  0
ARC
  8
BLACK
 10
186.25
 20
-14.075
 30
0.0
 40
2.0749999999999997
 50
0.0
 51
90.0
  0
ARC
  8
BLACK
 10
175.7
 20
-24.025
 30
0.0
 40
2.0749999999999997
 50
-180.0
 51
-90.0
  0
LINE
  8
BLACK
  6
CONTINUOUS
 10
188.325
 20
-14.075
 30
0.0
 11
188.325
 21
-24.025
 31
0.0
  0
ARC
  8
BLACK
 10
186.25
 20
-24.025
 30
0.0
 40
2.0749999999999997
 50
-90.0
 51
-0.0
  0
LINE
  8
BLACK
  6
CONTINUOUS
 10
167.2
 20
-26.099999999999998
 30
0.0
 11
156.65
 21
-26.099999999999998
 31
0.0
  0
LINE
  8
BLACK
  6
CONTINUOUS
 10
167.2
 20
-12.0
 30
0.0
 11
156.65
 21
-12.0
 31
0.0
  0
LINE
  8
BLACK
  6
CONTINUOUS
 10
154.575
 20
-14.075
 30
0.0
 11
154.575
 21
-24.025
 31
0.0
  0
ARC
  8
BLACK
 10
156.65
 20
-14.075
 30
0.0
 40
2.0749999999999997
 50
90.0
 51
180.0
  0
ARC
  8
BLACK
 10
167.2
 20
-14.075
 30
0.0
 40
2.0749999999999997
 50
0.0
 51
90.0
  0
ARC
  8
BLACK
 10
156.65
 20
-24.025
 30
0.0
 40
2.0749999999999997
 50
-180.0
 51
-90.0
  0
LINE
  8
BLACK
  6
CONTINUOUS
 10
169.275
 20
-14.075
 30
0.0
 11
169.275
 21
-24.025
 31
0.0
  0
ARC
  8
BLACK
 10
167.2
 20
-24.025
 30
0.0
 40
2.0749999999999997
 50
-90.0
 51
-0.0
  0
LINE
  8
BLACK
  6
CONTINUOUS
 10
148.15
 20
-26.099999999999998
 30
0.0
 11
137.6
 21
-26.099999999999998
 31
0.0
  0
LINE
  8
BLACK
  6
CONTINUOUS
 10
148.15
 20
-12.0
 30
0.0
 11
137.6
 21
-12.0
 31
0.0
  0
LINE
  8
BLACK
  6
CONTINUOUS
 10
135.525
 20
-14.075
 30
0.0
 11
135.525
 21
-24.025
 31
0.0
  0
ARC
  8
BLACK
 10
137.6
 20
-14.075
 30
0.0
 40
2.0749999999999997
 50
90.0
 51
180.0
  0
ARC
  8
BLACK
 10
148.15
 20
-14.075
 30
0.0
 40
2.0749999999999997
 50
0.0
 51
90.0
  0
ARC
  8
BLACK
 10
137.6
 20
-24.025
 30
0.0
 40
2.0749999999999997
 50
-180.0
 51
-90.0
  0
LINE
  8
BLACK
  6
CONTINUOUS
 10
150.225
 20
-14.075
 30
0.0
 11
150.225
 21
-24.025
 31
0.0
  0
ARC
  8
BLACK
 10
148.15
 20
-24.025
 30
0.0
 40
2.0749999999999997
 50
-90.0
 51
-0.0
  0
LINE
  8
BLACK
  6
CONTINUOUS
 10
129.1
 20
-26.099999999999998
 30
0.0
 11
118.55
 21
-26.099999999999998
 31
0.0
  0
LINE
  8
BLACK
  6
CONTINUOUS
 10
129.1
 20
-12.0
 30
0.0
 11
118.55
 21
-12.0
 31
0.0
  0
LINE
  8
BLACK
  6
CONTINUOUS
 10
116.475
 20
-14.075
 30
0.0
 11
116.475
 21
-24.025
 31
0.0
  0
ARC
  8
BLACK
 10
118.55
 20
-14.075
 30
0.0
 40
2.0749999999999997
 50
90.0
 51
180.0
  0
ARC
  8
BLACK
 10
129.1
 20
-14.075
 30
0.0
 40
2.0749999999999997
 50
0.0
 51
90.0
  0
ARC
  8
BLACK
 10
118.55
 20
-24.025
 30
0.0
 40
2.0749999999999997
 50
-180.0
 51
-90.0
  0
LINE
  8
BLACK
  6
CONTINUOUS
 10
131.17499999999998
 20
-14.075
 30
0.0
 11
131.17499999999998
 21
-24.025
 31
0.0
  0
ARC
  8
BLACK
 10
129.1
 20
-24.025
 30
0.0
 40
2.0749999999999997
 50
-90.0
 51
-0.0
  0
LINE
  8
BLACK
  6
CONTINUOUS
 10
110.05
 20
-26.099999999999998
 30
0.0
 11
99.5
 21
-26.099999999999998
 31
0.0
  0
LINE
  8
BLACK
  6
CONTINUOUS
 10
110.05
 20
-12.0
 30
0.0
 11
99.5
 21
-12.0
 31
0.0
  0
LINE
  8
BLACK
  6
CONTINUOUS
 10
97.425
 20
-14.075
 30
0.0
 11
97.425
 21
-24.025
 31
0.0
  0
ARC
  8
BLACK
 10
99.5
 20
-14.075
 30
0.0
 40
2.0749999999999997
 50
90.0
 51
180.0
  0
ARC
  8
BLACK
 10
110.05
 20
-14.075
 30
0.0
 40
2.0749999999999997
 50
0.0
 51
90.0
  0
ARC
  8
BLACK
 10
99.5
 20
-24.025
 30
0.0
 40
2.0749999999999997
 50
-180.0
 51
-90.0
  0
LINE
  8
BLACK
  6
CONTINUOUS
 10
112.125
 20
-14.075
 30
0.0
 11
112.125
 21
-24.025
 31
0.0
  0
ARC
  8
BLACK
 10
110.05
 20
-24.025
 30
0.0
 40
2.0749999999999997
 50
-90.0
 51
-0.0
  0
LINE
  8
BLACK
  6
CONTINUOUS
 10
91.0
 20
-26.099999999999998
 30
0.0
 11
80.45
 21
-26.099999999999998
 31
0.0
  0
LINE
  8
BLACK
  6
CONTINUOUS
 10
91.0
 20
-12.0
 30
0.0
 11
80.45
 21
-12.0
 31
0.0
  0
LINE
  8
BLACK
  6
CONTINUOUS
 10
78.375
 20
-14.075
 30
0.0
 11
78.375
 21
-24.025
 31
0.0
  0
ARC
  8
BLACK
 10
80.45
 20
-14.075
 30
0.0
 40
2.0749999999999997
 50
90.0
 51
180.0
  0
ARC
  8
BLACK
 10
91.0
 20
-14.075
 30
0.0
 40
2.0749999999999997
 50
0.0
 51
90.0
  0
ARC
  8
BLACK
 10
80.45
 20
-24.025
 30
0.0
 40
2.0749999999999997
 50
-180.0
 51
-90.0
  0
LINE
  8
BLACK
  6
CONTINUOUS
 10
93.075
 20
-14.075
 30
0.0
 11
93.075
 21
-24.025
 31
0.0
  0
ARC
  8
BLACK
 10
91.0
 20
-24.025
 30
0.0
 40
2.0749999999999997
 50
-90.0
 51
-0.0
  0
LINE
  8
BLACK
  6
CONTINUOUS
 10
71.95
 20
-26.099999999999998
 30
0.0
 11
61.4
 21
-26.099999999999998
 31
0.0
  0
LINE
  8
BLACK
  6
CONTINUOUS
 10
71.95
 20
-12.0
 30
0.0
 11
61.4
 21
-12.0
 31
0.0
  0
LINE
  8
BLACK
  6
CONTINUOUS
 10
59.324999999999996
 20
-14.075
 30
0.0
 11
59.324999999999996
 21
-24.025
 31
0.0
  0
ARC
  8
BLACK
 10
61.4
 20
-14.075
 30
0.0
 40
2.0749999999999997
 50
90.0
 51
180.0
  0
ARC
  8
BLACK
 10
71.95
 20
-14.075
 30
0.0
 40
2.0749999999999997
 50
0.0
 51
90.0
  0
ARC
  8
BLACK
 10
61.4
 20
-24.025
 30
0.0
 40
2.0749999999999997
 50
-180.0
 51
-90.0
  0
LINE
  8
BLACK
  6
CONTINUOUS
 10
74.02499999999999
 20
-14.075
 30
0.0
 11
74.02499999999999
 21
-24.025
 31
0.0
  0
ARC
  8
BLACK
 10
71.95
 20
-24.025
 30
0.0
 40
2.0749999999999997
 50
-90.0
 51
-0.0
  0
LINE
  8
BLACK
  6
CONTINUOUS
 10
52.9
 20
-26.099999999999998
 30
0.0
 11
42.35
 21
-26.099999999999998
 31
0.0
  0
LINE
  8
BLACK
  6
CONTINUOUS
 10
52.9
 20
-12.0
 30
0.0
 11
42.35
 21
-12.0
 31
0.0
  0
LINE
  8
BLACK
  6
CONTINUOUS
 10
40.275
 20
-14.075
 30
0.0
 11
40.275
 21
-24.025
 31
0.0
  0
ARC
  8
BLACK
 10
42.35
 20
-14.075
 30
0.0
 40
2.0749999999999997
 50
90.0
 51
180.0
  0
ARC
  8
BLACK
 10
52.9
 20
-14.075
 30
0.0
 40
2.0749999999999997
 50
0.0
 51
90.0
  0
ARC
  8
BLACK
 10
42.35
 20
-24.025
 30
0.0
 40
2.0749999999999997
 50
-180.0
 51
-90.0
  0
LINE
  8
BLACK
  6
CONTINUOUS
 10
54.974999999999994
 20
-14.075
 30
0.0
 11
54.974999999999994
 21
-24.025
 31
0.0
  0
ARC
  8
BLACK
 10
52.9
 20
-24.025
 30
0.0
 40
2.0749999999999997
 50
-90.0
 51
-0.0
  0
LINE
  8
BLACK
  6
CONTINUOUS
 10
33.85
 20
-26.099999999999998
 30
0.0
 11
23.3
 21
-26.099999999999998
 31
0.0
  0
LINE
  8
BLACK
  6
CONTINUOUS
 10
33.85
 20
-12.0
 30
0.0
 11
23.3
 21
-12.0
 31
0.0
  0
LINE
  8
BLACK
  6
CONTINUOUS
 10
21.224999999999998
 20
-14.075
 30
0.0
 11
21.224999999999998
 21
-24.025
 31
0.0
  0
ARC
  8
BLACK
 10
23.3
 20
-14.075
 30
0.0
 40
2.0749999999999997
 50
90.0
 51
180.0
  0
ARC
  8
BLACK
 10
33.85
 20
-14.075
 30
0.0
 40
2.0749999999999997
 50
0.0
 51
90.0
  0
ARC
  8
BLACK
 10
23.3
 20
-24.025
 30
0.0
 40
2.0749999999999997
 50
-180.0
 51
-90.0
  0
LINE
  8
BLACK
  6
CONTINUOUS
 10
35.925
 20
-14.075
 30
0.0
 11
35.925
 21
-24.025
 31
0.0
  0
ARC
  8
BLACK
 10
33.85
 20
-24.025
 30
0.0
 40
2.0749999999999997
 50
-90.0
 51
-0.0
  0
LINE
  8
BLACK
  6
CONTINUOUS
 10
10.0375
 20
-26.099999999999998
 30
0.0
 11
-0.5125
 21
-26.099999999999998
 31
0.0
  0
LINE
  8
BLACK
  6
CONTINUOUS
 10
10.0375
 20
-12.0
 30
0.0
 11
-0.5125
 21
-12.0
 31
0.0
  0
LINE
  8
BLACK
  6
CONTINUOUS
 10
-2.5874989999999998
 20
-14.074999
 30
0.0
 11
-2.5874989999999998
 21
-24.025001
 31
0.0
  0
ARC
  8
BLACK
 10
-0.5125
 20
-14.074999
 30
0.0
 40
2.074999
 50
90.0
 51
180.0
  0
ARC
  8
BLACK
 10
10.0375
 20
-14.075
 30
0.0
 40
2.0749999999999997
 50
0.0
 51
90.0
  0
ARC
  8
BLACK
 10
-0.5125
 20
-24.025001
 30
0.0
 40
2.074999
 50
-180.0
 51
-90.0
  0
LINE
  8
BLACK
  6
CONTINUOUS
 10
12.112501
 20
-14.075
 30
0.0
 11
12.112501
 21
-24.025
 31
0.0
  0
ARC
  8
BLACK
 10
10.0375
 20
-24.025
 30
0.0
 40
2.075001
 50
-90.0
 51
-0.0
  0
LINE
  8
BLACK
  6
CONTINUOUS
 10
233.875
 20
-7.05
 30
0.0
 11
223.325
 21
-7.05
 31
0.0
  0
LINE
  8
BLACK
  6
CONTINUOUS
 10
233.875
 20
7.05
 30
0.0
 11
223.325
 21
7.05
 31
0.0
  0
LINE
  8
BLACK
  6
CONTINUOUS
 10
221.25
 20
4.975
 30
0.0
 11
221.25
 21
-4.975
 31
0.0
  0
ARC
  8
BLACK
 10
223.325
 20
4.975
 30
0.0
 40
2.0749999999999997
 50
90.0
 51
180.0
  0
ARC
  8
BLACK
 10
233.875
 20
-4.975
 30
0.0
 40
2.0749999999999997
 50
-90.0
 51
-0.0
  0
ARC
  8
BLACK
 10
233.875
 20
4.975
 30
0.0
 40
2.0749999999999997
 50
0.0
 51
90.0
  0
ARC
  8
BLACK
 10
223.325
 20
-4.975
 30
0.0
 40
2.0749999999999997
 50
-180.0
 51
-90.0
  0
LINE
  8
BLACK
  6
CONTINUOUS
 10
235.95
 20
4.975
 30
0.0
 11
235.95
 21
-4.975
 31
0.0
  0
LINE
  8
BLACK
  6
CONTINUOUS
 10
214.825
 20
-7.05
 30
0.0
 11
204.27499999999998
 21
-7.05
 31
0.0
  0
LINE
  8
BLACK
  6
CONTINUOUS
 10
214.825
 20
7.05
 30
0.0
 11
204.27499999999998
 21
7.05
 31
0.0
  0
LINE
  8
BLACK
  6
CONTINUOUS
 10
202.2
 20
4.975
 30
0.0
 11
202.2
 21
-4.975
 31
0.0
  0
ARC
  8
BLACK
 10
204.27499999999998
 20
4.975
 30
0.0
 40
2.0749999999999997
 50
90.0
 51
180.0
  0
ARC
  8
BLACK
 10
214.825
 20
-4.975
 30
0.0
 40
2.0749999999999997
 50
-90.0
 51
-0.0
  0
ARC
  8
BLACK
 10
214.825
 20
4.975
 30
0.0
 40
2.0749999999999997
 50
0.0
 51
90.0
  0
ARC
  8
BLACK
 10
204.27499999999998
 20
-4.975
 30
0.0
 40
2.0749999999999997
 50
-180.0
 51
-90.0
  0
LINE
  8
BLACK
  6
CONTINUOUS
 10
216.89999999999998
 20
4.975
 30
0.0
 11
216.89999999999998
 21
-4.975
 31
0.0
  0
LINE
  8
BLACK
  6
CONTINUOUS
 10
195.77499999999998
 20
-7.05
 30
0.0
 11
185.225
 21
-7.05
 31
0.0
  0
LINE
  8
BLACK
  6
CONTINUOUS
 10
195.77499999999998
 20
7.05
 30
0.0
 11
185.225
 21
7.05
 31
0.0
  0
LINE
  8
BLACK
  6
CONTINUOUS
 10
183.15
 20
4.975
 30
0.0
 11
183.15
 21
-4.975
 31
0.0
  0
ARC
  8
BLACK
 10
185.225
 20
4.975
 30
0.0
 40
2.0749999999999997
 50
90.0
 51
180.0
  0
ARC
  8
BLACK
 10
195.77499999999998
 20
4.975
 30
0.0
 40
2.0749999999999997
 50
0.0
 51
90.0
  0
ARC
  8
BLACK
 10
185.225
 20
-4.975
 30
0.0
 40
2.0749999999999997
 50
-180.0
 51
-90.0
  0
LINE
  8
BLACK
  6
CONTINUOUS
 10
197.85
 20
4.975
 30
0.0
 11
197.85
 21
-4.975
 31
0.0
  0
ARC
  8
BLACK
 10
195.77499999999998
 20
-4.975
 30
0.0
 40
2.0749999999999997
 50
-90.0
 51
-0.0
  0
LINE
  8
BLACK
  6
CONTINUOUS
 10
176.725
 20
-7.05
 30
0.0
 11
166.17499999999998
 21
-7.05
 31
0.0
  0
LINE
  8
BLACK
  6
CONTINUOUS
 10
176.725
 20
7.05
 30
0.0
 11
166.17499999999998
 21
7.05
 31
0.0
  0
LINE
  8
BLACK
  6
CONTINUOUS
 10
164.1
 20
4.975
 30
0.0
 11
164.1
 21
-4.975
 31
0.0
  0
ARC
  8
BLACK
 10
166.17499999999998
 20
4.975
 30
0.0
 40
2.0749999999999997
 50
90.0
 51
180.0
  0
ARC
  8
BLACK
 10
176.725
 20
-4.975
 30
0.0
 40
2.0749999999999997
 50
-90.0
 51
-0.0
  0
ARC
  8
BLACK
 10
176.725
 20
4.975
 30
0.0
 40
2.0749999999999997
 50
0.0
 51
90.0
  0
ARC
  8
BLACK
 10
166.17499999999998
 20
-4.975
 30
0.0
 40
2.0749999999999997
 50
-180.0
 51
-90.0
  0
LINE
  8
BLACK
  6
CONTINUOUS
 10
178.79999999999998
 20
4.975
 30
0.0
 11
178.79999999999998
 21
-4.975
 31
0.0
  0
LINE
  8
BLACK
  6
CONTINUOUS
 10
157.67499999999998
 20
-7.05
 30
0.0
 11
147.125
 21
-7.05
 31
0.0
  0
LINE
  8
BLACK
  6
CONTINUOUS
 10
157.67499999999998
 20
7.05
 30
0.0
 11
147.125
 21
7.05
 31
0.0
  0
LINE
  8
BLACK
  6
CONTINUOUS
 10
145.04999999999998
 20
4.975
 30
0.0
 11
145.04999999999998
 21
-4.975
 31
0.0
  0
ARC
  8
BLACK
 10
147.125
 20
4.975
 30
0.0
 40
2.0749999999999997
 50
90.0
 51
180.0
  0
ARC
  8
BLACK
 10
157.67499999999998
 20
4.975
 30
0.0
 40
2.0749999999999997
 50
0.0
 51
90.0
  0
ARC
  8
BLACK
 10
147.125
 20
-4.975
 30
0.0
 40
2.0749999999999997
 50
-180.0
 51
-90.0
  0
LINE
  8
BLACK
  6
CONTINUOUS
 10
159.75
 20
4.975
 30
0.0
 11
159.75
 21
-4.975
 31
0.0
  0
LINE
  8
BLACK
  6
CONTINUOUS
 10
138.625
 20
-7.05
 30
0.0
 11
128.075
 21
-7.05
 31
0.0
  0
LINE
  8
BLACK
  6
CONTINUOUS
 10
138.625
 20
7.05
 30
0.0
 11
128.075
 21
7.05
 31
0.0
  0
LINE
  8
BLACK
  6
CONTINUOUS
 10
126.0
 20
4.975
 30
0.0
 11
126.0
 21
-4.975
 31
0.0
  0
ARC
  8
BLACK
 10
128.075
 20
4.975
 30
0.0
 40
2.0749999999999997
 50
90.0
 51
180.0
  0
ARC
  8
BLACK
 10
138.625
 20
-4.975
 30
0.0
 40
2.0749999999999997
 50
-90.0
 51
-0.0
  0
ARC
  8
BLACK
 10
138.625
 20
4.975
 30
0.0
 40
2.0749999999999997
 50
0.0
 51
90.0
  0
ARC
  8
BLACK
 10
128.075
 20
-4.975
 30
0.0
 40
2.0749999999999997
 50
-180.0
 51
-90.0
  0
LINE
  8
BLACK
  6
CONTINUOUS
 10
140.7
 20
4.975
 30
0.0
 11
140.7
 21
-4.975
 31
0.0
  0
LINE
  8
BLACK
  6
CONTINUOUS
 10
119.57499999999999
 20
-7.05
 30
0.0
 11
109.02499999999999
 21
-7.05
 31
0.0
  0
LINE
  8
BLACK
  6
CONTINUOUS
 10
119.57499999999999
 20
7.05
 30
0.0
 11
109.02499999999999
 21
7.05
 31
0.0
  0
LINE
  8
BLACK
  6
CONTINUOUS
 10
106.94999999999999
 20
4.975
 30
0.0
 11
106.94999999999999
 21
-4.975
 31
0.0
  0
ARC
  8
BLACK
 10
109.02499999999999
 20
4.975
 30
0.0
 40
2.0749999999999997
 50
90.0
 51
180.0
  0
ARC
  8
BLACK
 10
119.57499999999999
 20
4.975
 30
0.0
 40
2.0749999999999997
 50
0.0
 51
90.0
  0
ARC
  8
BLACK
 10
109.02499999999999
 20
-4.975
 30
0.0
 40
2.0749999999999997
 50
-180.0
 51
-90.0
  0
ARC
  8
BLACK
 10
157.67499999999998
 20
-4.975
 30
0.0
 40
2.0749999999999997
 50
-90.0
 51
-0.0
  0
LINE
  8
BLACK
  6
CONTINUOUS
 10
121.64999999999999
 20
4.975
 30
0.0
 11
121.64999999999999
 21
-4.975
 31
0.0
  0
ARC
  8
BLACK
 10
119.57499999999999
 20
-4.975
 30
0.0
 40
2.0749999999999997
 50
-90.0
 51
-0.0
  0
LINE
  8
BLACK
  6
CONTINUOUS
 10
100.52499999999999
 20
-7.05
 30
0.0
 11
89.975
 21
-7.05
 31
0.0
  0
LINE
  8
BLACK
  6
CONTINUOUS
 10
100.52499999999999
 20
7.05
 30
0.0
 11
89.975
 21
7.05
 31
0.0
  0
LINE
  8
BLACK
  6
CONTINUOUS
 10
87.89999999999999
 20
4.975
 30
0.0
 11
87.89999999999999
 21
-4.975
 31
0.0
  0
ARC
  8
BLACK
 10
89.975
 20
4.975
 30
0.0
 40
2.0749999999999997
 50
90.0
 51
180.0
  0
ARC
  8
BLACK
 10
100.52499999999999
 20
-4.975
 30
0.0
 40
2.0749999999999997
 50
-90.0
 51
-0.0
  0
ARC
  8
BLACK
 10
100.52499999999999
 20
4.975
 30
0.0
 40
2.0749999999999997
 50
0.0
 51
90.0
  0
ARC
  8
BLACK
 10
89.975
 20
-4.975
 30
0.0
 40
2.0749999999999997
 50
-180.0
 51
-90.0
  0
LINE
  8
BLACK
  6
CONTINUOUS
 10
102.6
 20
4.975
 30
0.0
 11
102.6
 21
-4.975
 31
0.0
  0
LINE
  8
BLACK
  6
CONTINUOUS
 10
81.475
 20
-7.05
 30
0.0
 11
70.925
 21
-7.05
 31
0.0
  0
LINE
  8
BLACK
  6
CONTINUOUS
 10
81.475
 20
7.05
 30
0.0
 11
70.925
 21
7.05
 31
0.0
  0
LINE
  8
BLACK
  6
CONTINUOUS
 10
68.85
 20
4.975
 30
0.0
 11
68.85
 21
-4.975
 31
0.0
  0
ARC
  8
BLACK
 10
70.925
 20
4.975
 30
0.0
 40
2.0749999999999997
 50
90.0
 51
180.0
  0
ARC
  8
BLACK
 10
81.475
 20
4.975
 30
0.0
 40
2.0749999999999997
 50
0.0
 51
90.0
  0
ARC
  8
BLACK
 10
70.925
 20
-4.975
 30
0.0
 40
2.0749999999999997
 50
-180.0
 51
-90.0
  0
LINE
  8
BLACK
  6
CONTINUOUS
 10
83.55
 20
4.975
 30
0.0
 11
83.55
 21
-4.975
 31
0.0
  0
ARC
  8
BLACK
 10
81.475
 20
-4.975
 30
0.0
 40
2.0749999999999997
 50
-90.0
 51
-0.0
  0
LINE
  8
BLACK
  6
CONTINUOUS
 10
62.425
 20
-7.05
 30
0.0
 11
51.875
 21
-7.05
 31
0.0
  0
LINE
  8
BLACK
  6
CONTINUOUS
 10
62.425
 20
7.05
 30
0.0
 11
51.875
 21
7.05
 31
0.0
  0
LINE
  8
BLACK
  6
CONTINUOUS
 10
49.8
 20
4.975
 30
0.0
 11
49.8
 21
-4.975
 31
0.0
  0
ARC
  8
BLACK
 10
51.875
 20
4.975
 30
0.0
 40
2.0749999999999997
 50
90.0
 51
180.0
  0
ARC
  8
BLACK
 10
62.425
 20
-4.975
 30
0.0
 40
2.0749999999999997
 50
-90.0
 51
-0.0
  0
ARC
  8
BLACK
 10
62.425
 20
4.975
 30
0.0
 40
2.0749999999999997
 50
0.0
 51
90.0
  0
ARC
  8
BLACK
 10
51.875
 20
-4.975
 30
0.0
 40
2.0749999999999997
 50
-180.0
 51
-90.0
  0
LINE
  8
BLACK
  6
CONTINUOUS
 10
64.5
 20
4.975
 30
0.0
 11
64.5
 21
-4.975
 31
0.0
  0
LINE
  8
BLACK
  6
CONTINUOUS
 10
43.375
 20
-7.05
 30
0.0
 11
32.824999999999996
 21
-7.05
 31
0.0
  0
LINE
  8
BLACK
  6
CONTINUOUS
 10
43.375
 20
7.05
 30
0.0
 11
32.824999999999996
 21
7.05
 31
0.0
  0
LINE
  8
BLACK
  6
CONTINUOUS
 10
30.75
 20
4.975
 30
0.0
 11
30.75
 21
-4.975
 31
0.0
  0
ARC
  8
BLACK
 10
32.824999999999996
 20
4.975
 30
0.0
 40
2.0749999999999997
 50
90.0
 51
180.0
  0
ARC
  8
BLACK
 10
43.375
 20
4.975
 30
0.0
 40
2.0749999999999997
 50
0.0
 51
90.0
  0
ARC
  8
BLACK
 10
32.824999999999996
 20
-4.975
 30
0.0
 40
2.0749999999999997
 50
-180.0
 51
-90.0
  0
LINE
  8
BLACK
  6
CONTINUOUS
 10
45.449999999999996
 20
4.975
 30
0.0
 11
45.449999999999996
 21
-4.975
 31
0.0
  0
ARC
  8
BLACK
 10
43.375
 20
-4.975
 30
0.0
 40
2.0749999999999997
 50
-90.0
 51
-0.0
  0
LINE
  8
BLACK
  6
CONTINUOUS
 10
24.325
 20
-7.05
 30
0.0
 11
13.774999999999999
 21
-7.05
 31
0.0
  0
LINE
  8
BLACK
  6
CONTINUOUS
 10
24.325
 20
7.05
 30
0.0
 11
13.774999999999999
 21
7.05
 31
0.0
  0
LINE
  8
BLACK
  6
CONTINUOUS
 10
11.7
 20
4.975
 30
0.0
 11
11.7
 21
-4.975
 31
0.0
  0
ARC
  8
BLACK
 10
13.774999999999999
 20
4.975
 30
0.0
 40
2.0749999999999997
 50
90.0
 51
180.0
  0
ARC
  8
BLACK
 10
24.325
 20
-4.975
 30
0.0
 40
2.0749999999999997
 50
-90.0
 51
-0.0
  0
ARC
  8
BLACK
 10
24.325
 20
4.975
 30
0.0
 40
2.0749999999999997
 50
0.0
 51
90.0
  0
ARC
  8
BLACK
 10
13.774999999999999
 20
-4.975
 30
0.0
 40
2.0749999999999997
 50
-180.0
 51
-90.0
  0
LINE
  8
BLACK
  6
CONTINUOUS
 10
26.4
 20
4.975
 30
0.0
 11
26.4
 21
-4.975
 31
0.0
  0
LINE
  8
BLACK
  6
CONTINUOUS
 10
5.2749999999999995
 20
-7.05
 30
0.0
 11
-5.2749999999999995
 21
-7.05
 31
0.0
  0
LINE
  8
BLACK
  6
CONTINUOUS
 10
5.2749999999999995
 20
7.05
 30
0.0
 11
-5.275001
 21
7.05
 31
0.0
  0
LINE
  8
BLACK
  6
CONTINUOUS
 10
-7.35
 20
4.975001
 30
0.0
 11
-7.35
 21
-4.975001
 31
0.0
  0
ARC
  8
BLACK
 10
-5.275001
 20
4.975001
 30
0.0
 40
2.074999
 50
90.0
 51
180.0
  0
ARC
  8
BLACK
 10
5.2749999999999995
 20
-4.975
 30
0.0
 40
2.0749999999999997
 50
-90.0
 51
-0.0
  0
ARC
  8
BLACK
 10
5.2749999999999995
 20
4.975
 30
0.0
 40
2.0749999999999997
 50
0.0
 51
90.0
  0
ARC
  8
BLACK
 10
-5.275001
 20
-4.975001
 30
0.0
 40
2.0749990000002407
 50
-180.0
 51
-89.99997239
  0
LINE
  8
BLACK
  6
CONTINUOUS
 10
7.35
 20
4.975
 30
0.0
 11
7.35
 21
-4.975
 31
0.0
  0
CIRCLE
  8
BLACK
 10
250.9012
 20
-18.7
 30
0.0
 40
1.0
  0
CIRCLE
  8
BLACK
 10
119.0625
 20
-38.1
 30
0.0
 40
1.0
  0
CIRCLE
  8
BLACK
 10
16.04875
 20
-18.7
 30
0.0
 40
1.0
  0
CIRCLE
  8
BLACK
 10
95.25
 20
-19.05
 30
0.0
 40
1.0
  0
CIRCLE
  8
BLACK
 10
66.675
 20
0.0
 30
0.0
 40
1.0
  0
CIRCLE
  8
BLACK
 10
142.875
 20
0.0
 30
0.0
 40
1.0
  0
CIRCLE
  8
BLACK
 10
171.45
 20
-19.05
 30
0.0
 40
1.0
  0
CIRCLE
  8
BLACK
 10
185.73749999999998
 20
-57.15
 30
0.0
 40
1.0
  0
CIRCLE
  8
BLACK
 10
28.575
 20
0.0
 30
0.0
 40
1.0
  0
CIRCLE
  8
BLACK
 10
-7.14375
 20
-38.1
 30
0.0
 40
1.0
  0
CIRCLE
  8
BLACK
 10
90.4875
 20
-57.15
 30
0.0
 40
1.0
  0
CIRCLE
  8
BLACK
 10
42.8625
 20
-38.1
 30
0.0
 40
1.0
  0
LINE
  8
BLACK
  6
CONTINUOUS
 10
12.112499999999999
 20
-14.075
 30
0.0
 11
12.112501
 21
-14.075
 31
0.0
  0
CIRCLE
  8
BLACK
 10
272.7
 20
13.600045999999999
 30
0.0
 40
1.25
  0
CIRCLE
  8
BLACK
 10
88.89999999999999
 20
13.600045999999999
 30
0.0
 40
1.25
  0
CIRCLE
  8
BLACK
 10
177.79999999999998
 20
13.600045999999999
 30
0.0
 40
1.25
  0
CIRCLE
  8
BLACK
 10
-6.0
 20
13.600045999999999
 30
0.0
 40
1.25
  0
CIRCLE
  8
BLACK
 10
-6.0
 20
-89.8
 30
0.0
 40
1.25
  0
CIRCLE
  8
BLACK
 10
88.89999999999999
 20
-89.8
 30
0.0
 40
1.25
  0
CIRCLE
  8
BLACK
 10
177.79999999999998
 20
-89.8
 30
0.0
 40
1.25
  0
CIRCLE
  8
BLACK
 10
272.7
 20
-89.8
 30
0.0
 40
1.25
  0
ARC
  8
BLACK
 10
-6.025068999999999
 20
13.175073999999999
 30
0.0
 40
3.9999309999999997
 50
90.09866336
 51
180.0
  0
LINE
  8
BLACK
  6
CONTINUOUS
 10
6.025030999999999
 20
17.175069
 30
0.0
 11
-6.031956999999999
 21
17.175069
 31
0.0
  0
ARC
  8
BLACK
 10
6.025030999999999
 20
13.175073999999999
 30
0.0
 40
3.9999949999999997
 50
-0.20658064
 51
90.0
  0
LINE
  8
BLACK
  6
CONTINUOUS
 10
10.025
 20
11.925073999999999
 30
0.0
 11
10.025
 21
13.160651999999999
 31
0.0
  0
ARC
  8
BLACK
 10
12.025031
 20
11.924973999999999
 30
0.0
 40
1.999951002500061
 50
-180.00286486
 51
-89.99713514
  0
LINE
  8
BLACK
  6
CONTINUOUS
 10
76.866546
 20
9.925023
 30
0.0
 11
12.025131
 21
9.925023
 31
0.0
  0
ARC
  8
BLACK
 10
76.87503099999999
 20
11.924973999999999
 30
0.0
 40
1.9999689999999999
 50
-90.24308184
 51
-0.0
  0
LINE
  8
BLACK
  6
CONTINUOUS
 10
78.875
 20
13.175073999999999
 30
0.0
 11
78.875
 21
11.924973999999999
 31
0.0
  0
ARC
  8
BLACK
 10
82.87493099999999
 20
13.175073999999999
 30
0.0
 40
3.9999309999999997
 50
89.99901164
 51
180.0
  0
LINE
  8
BLACK
  6
CONTINUOUS
 10
94.92503099999999
 20
17.175046
 30
0.0
 11
82.875
 21
17.175046
 31
0.0
  0
ARC
  8
BLACK
 10
94.92503099999999
 20
13.175073999999999
 30
0.0
 40
3.9999719999999996
 50
0.0
 51
90.0
  0
LINE
  8
BLACK
  6
CONTINUOUS
 10
98.925
 20
11.925073999999999
 30
0.0
 11
98.925
 21
13.175073999999999
 31
0.0
  0
ARC
  8
BLACK
 10
100.92503099999999
 20
11.924973999999999
 30
0.0
 40
1.999951002500061
 50
-180.00286486
 51
-89.99713514
  0
LINE
  8
BLACK
  6
CONTINUOUS
 10
165.766546
 20
9.925023
 30
0.0
 11
100.925131
 21
9.925023
 31
0.0
  0
ARC
  8
BLACK
 10
165.77503099999998
 20
11.924973999999999
 30
0.0
 40
1.9999689999999999
 50
-90.24308184
 51
-0.0
  0
LINE
  8
BLACK
  6
CONTINUOUS
 10
167.775
 20
13.174973999999999
 30
0.0
 11
167.775
 21
11.924973999999999
 31
0.0
  0
ARC
  8
BLACK
 10
171.77503099999998
 20
13.174973999999999
 30
0.0
 40
4.000031
 50
90.0
 51
180.0
  0
LINE
  8
BLACK
  6
CONTINUOUS
 10
183.825031
 20
17.175023
 30
0.0
 11
171.77503099999998
 21
17.175023
 31
0.0
  0
ARC
  8
BLACK
 10
183.825031
 20
13.174973999999999
 30
0.0
 40
4.000049
 50
-0.36091846
 51
90.0
  0
LINE
  8
BLACK
  6
CONTINUOUS
 10
187.825
 20
11.925073999999999
 30
0.0
 11
187.825
 21
13.149777
 31
0.0
  0
ARC
  8
BLACK
 10
189.825031
 20
11.924973999999999
 30
0.0
 40
1.999951002500061
 50
-180.00286486
 51
-89.99713514
  0
LINE
  8
BLACK
  6
CONTINUOUS
 10
254.66654599999998
 20
9.925023
 30
0.0
 11
189.825131
 21
9.925023
 31
0.0
  0
ARC
  8
BLACK
 10
254.675031
 20
11.924973999999999
 30
0.0
 40
1.9999689999999999
 50
-90.24308184
 51
-0.0
  0
LINE
  8
BLACK
  6
CONTINUOUS
 10
256.675
 20
13.174973999999999
 30
0.0
 11
256.675
 21
11.924973999999999
 31
0.0
  0
ARC
  8
BLACK
 10
260.675031
 20
13.174973999999999
 30
0.0
 40
4.000031
 50
90.0
 51
180.0
  0
LINE
  8
BLACK
  6
CONTINUOUS
 10
272.72493099999997
 20
17.175023
 30
0.0
 11
260.675031
 21
17.175023
 31
0.0
  0
ARC
  8
BLACK
 10
272.72493099999997
 20
13.174973999999999
 30
0.0
 40
4.000049
 50
0.10718483
 51
90.0
  0
LINE
  8
BLACK
  6
CONTINUOUS
 10
276.724973
 20
-89.375126
 30
0.0
 11
276.724973
 21
13.182457
 31
0.0
  0
ARC
  8
BLACK
 10
272.725131
 20
-89.375126
 30
0.0
 40
3.9998419999999997
 50
-90.00226327
 51
-0.0
  0
LINE
  8
BLACK
  6
CONTINUOUS
 10
260.675031
 20
-93.374977
 30
0.0
 11
272.724973
 21
-93.374977
 31
0.0
  0
ARC
  8
BLACK
 10
260.675031
 20
-89.37502599999999
 30
0.0
 40
3.999951
 50
-180.00143241
 51
-90.0
  0
LINE
  8
BLACK
  6
CONTINUOUS
 10
256.675
 20
-88.142814
 30
0.0
 11
256.675
 21
-89.374926
 31
0.0
  0
ARC
  8
BLACK
 10
254.675031
 20
-88.12502599999999
 30
0.0
 40
2.0000490024999387
 50
-0.50958313
 51
89.99713528
  0
LINE
  8
BLACK
  6
CONTINUOUS
 10
189.825031
 20
-86.124977
 30
0.0
 11
254.675131
 21
-86.124977
 31
0.0
  0
ARC
  8
BLACK
 10
189.825031
 20
-88.12502599999999
 30
0.0
 40
2.000031
 50
90.0
 51
180.0
  0
LINE
  8
BLACK
  6
CONTINUOUS
 10
187.825
 20
-89.37502599999999
 30
0.0
 11
187.825
 21
-88.12502599999999
 31
0.0
  0
ARC
  8
BLACK
 10
183.825031
 20
-89.37502599999999
 30
0.0
 40
3.9999689999999997
 50
-90.16703309
 51
-0.0
  0
LINE
  8
BLACK
  6
CONTINUOUS
 10
171.77503099999998
 20
-93.374977
 30
0.0
 11
183.81337
 21
-93.374977
 31
0.0
  0
ARC
  8
BLACK
 10
171.77503099999998
 20
-89.37502599999999
 30
0.0
 40
3.999951
 50
-180.00143241
 51
-90.0
  0
LINE
  8
BLACK
  6
CONTINUOUS
 10
167.775
 20
-88.142814
 30
0.0
 11
167.775
 21
-89.374926
 31
0.0
  0
ARC
  8
BLACK
 10
165.77503099999998
 20
-88.12502599999999
 30
0.0
 40
2.0000490024999387
 50
-0.50958313
 51
89.99713528
  0
LINE
  8
BLACK
  6
CONTINUOUS
 10
100.92503099999999
 20
-86.124977
 30
0.0
 11
165.775131
 21
-86.124977
 31
0.0
  0
ARC
  8
BLACK
 10
100.92503099999999
 20
-88.12502599999999
 30
0.0
 40
2.000031
 50
90.0
 51
180.0
  0
LINE
  8
BLACK
  6
CONTINUOUS
 10
98.925
 20
-89.37502599999999
 30
0.0
 11
98.925
 21
-88.12502599999999
 31
0.0
  0
ARC
  8
BLACK
 10
94.92503099999999
 20
-89.37502599999999
 30
0.0
 40
3.9999689999999997
 50
-90.00044405
 51
-0.0
  0
LINE
  8
BLACK
  6
CONTINUOUS
 10
82.875131
 20
-93.375
 30
0.0
 11
94.925
 21
-93.375
 31
0.0
  0
ARC
  8
BLACK
 10
82.875131
 20
-89.374826
 30
0.0
 40
4.0001739999999995
 50
-180.26111516
 51
-90.0
  0
LINE
  8
BLACK
  6
CONTINUOUS
 10
78.875
 20
-88.142814
 30
0.0
 11
78.875
 21
-89.356596
 31
0.0
  0
ARC
  8
BLACK
 10
76.87503099999999
 20
-88.12502599999999
 30
0.0
 40
2.0000490024999387
 50
-0.50958313
 51
89.99713528
  0
LINE
  8
BLACK
  6
CONTINUOUS
 10
12.025031
 20
-86.124977
 30
0.0
 11
76.875131
 21
-86.124977
 31
0.0
  0
ARC
  8
BLACK
 10
12.025031
 20
-88.12502599999999
 30
0.0
 40
2.000031
 50
90.0
 51
180.0
  0
LINE
  8
BLACK
  6
CONTINUOUS
 10
10.025
 20
-89.37502599999999
 30
0.0
 11
10.025
 21
-88.12502599999999
 31
0.0
  0
ARC
  8
BLACK
 10
6.025030999999999
 20
-89.37502599999999
 30
0.0
 40
3.9999689999999997
 50
-90.00044404
 51
-0.0
  0
LINE
  8
BLACK
  6
CONTINUOUS
 10
-6.024869
 20
-93.375023
 30
0.0
 11
6.0249999999999995
 21
-93.375023
 31
0.0
  0
ARC
  8
BLACK
 10
-6.024869
 20
-89.374826
 30
0.0
 40
4.000197
 50
-180.46972176
 51
-90.0
  0
LINE
  8
BLACK
  6
CONTINUOUS
 10
-10.025
 20
-86.224978
 30
0.0
 11
-10.02493
 21
-89.34203199999999
 31
0.0
  0
LINE
  8
BLACK
  6
CONTINUOUS
 10
-10.025
 20
13.175073999999999
 30
0.0
 11
-10.025
 21
-86.224978
 31
0.0
  0
LINE
  8
BLACK
  6
Continuous
 10
-0.20625
 20
-33.125
 30
0.0
 11
-0.20625
 21
-43.075001
 31
0.0
  0
LINE
  8
BLACK
  6
Continuous
 10
12.41875
 20
-31.05
 30
0.0
 11
1.868749
 21
-31.05
 31
0.0
  0
LINE
  8
BLACK
  6
Continuous
 10
12.41875
 20
-45.15
 30
0.0
 11
1.86875
 21
-45.15
 31
0.0
  0
LINE
  8
BLACK
  6
Continuous
 10
14.49375
 20
-33.125
 30
0.0
 11
14.49375
 21
-43.075
 31
0.0
  0
ARC
  8
BLACK
 10
1.868754
 20
-33.125004
 30
0.0
 40
2.075004000003855
 50
90.00013806
 51
179.99988955
  0
ARC
  8
BLACK
 10
1.868752
 20
-43.074998
 30
0.0
 40
2.075002000000964
 50
180.00008284
 51
269.99994478
  0
ARC
  8
BLACK
 10
12.41875
 20
-33.125
 30
0.0
 40
2.075
 50
0.0
 51
90.0
  0
ARC
  8
BLACK
 10
12.41875
 20
-43.075
 30
0.0
 40
2.075
 50
270.0
 51
0.0
  0
LINE
  8
BLACK
  6
Continuous
 10
271.975
 20
-7.05
 30
0.0
 11
261.425
 21
-7.05
 31
0.0
  0
LINE
  8
BLACK
  6
Continuous
 10
271.975
 20
7.05
 30
0.0
 11
261.424999
 21
7.05
 31
0.0
  0
LINE
  8
BLACK
  6
Continuous
 10
259.35
 20
4.975
 30
0.0
 11
259.35
 21
-4.975001
 31
0.0
  0
ARC
  8
BLACK
 10
261.424999
 20
4.975001
 30
0.0
 40
2.074999000000241
 50
90.0
 51
180.00002761
  0
ARC
  8
BLACK
 10
271.975
 20
-4.975
 30
0.0
 40
2.075
 50
270.0
 51
0.0
  0
ARC
  8
BLACK
 10
271.975
 20
4.975
 30
0.0
 40
2.075
 50
0.0
 51
90.0
  0
ARC
  8
BLACK
 10
261.424999
 20
-4.975001
 30
0.0
 40
2.074999000000241
 50
180.0
 51
270.0000276100001
  0
LINE
  8
BLACK
  6
Continuous
 10
274.05
 20
4.975
 30
0.0
 11
274.05
 21
-4.975
 31
0.0
  0
LINE
  8
BLACK
  6
Continuous
 10
252.925
 20
-7.05
 30
0.0
 11
242.375
 21
-7.05
 31
0.0
  0
LINE
  8
BLACK
  6
Continuous
 10
252.925
 20
7.05
 30
0.0
 11
242.374999
 21
7.05
 31
0.0
  0
LINE
  8
BLACK
  6
Continuous
 10
240.3
 20
4.975
 30
0.0
 11
240.3
 21
-4.975001
 31
0.0
  0
ARC
  8
BLACK
 10
242.374999
 20
4.975001
 30
0.0
 40
2.074999000000241
 50
90.0
 51
180.00002761
  0
ARC
  8
BLACK
 10
252.925
 20
-4.975
 30
0.0
 40
2.075
 50
270.0
 51
0.0
  0
ARC
  8
BLACK
 10
252.925
 20
4.975
 30
0.0
 40
2.075
 50
0.0
 51
90.0
  0
ARC
  8
BLACK
 10
242.374999
 20
-4.975001
 30
0.0
 40
2.074999000000241
 50
180.0
 51
270.0000276100001
  0
LINE
  8
BLACK
  6
Continuous
 10
255.0
 20
4.975
 30
0.0
 11
255.0
 21
-4.975
 31
0.0
  0
CIRCLE
  8
BLACK
 10
238.125
 20
0.0
 30
0.0
 40
1.0
  0
ARC
  8
BLACK
 10
23.83379
 20
-51.19739
 30
0.0
 40
1.074990000569773
 50
22.02370504
 51
89.99813454
  0
ARC
  8
BLACK
 10
-2.744183
 20
-52.799592
 30
0.0
 40
1.425082004092396
 50
89.51974267000003
 51
180.00434217
  0
ARC
  8
BLACK
 10
26.55665
 20
-52.79949999999999
 30
0.0
 40
1.424940000219307
 50
359.99758749
 51
90.00100523000002
  0
ARC
  8
BLACK
 10
1.030712
 20
-62.286915
 30
0.0
 40
1.874995003405076
 50
200.54692151
 51
270.00345303
  0
ARC
  8
BLACK
 10
-2.744264
 20
-60.400439
 30
0.0
 40
1.425001000042456
 50
180.00004021
 51
269.99955772
  0
LINE
  8
BLACK
  6
Continuous
 10
-0.021375
 20
-50.122411
 30
0.0
 11
-0.021375
 21
-50.1224
 31
0.0
  0
CIRCLE
  8
BLACK
 10
-4.493749999999999
 20
-64.35
 30
0.0
 40
1.0
  0
LINE
  8
BLACK
  6
Continuous
 10
25.691025
 20
-51.37456
 30
0.0
 11
26.556625
 21
-51.37456
 31
0.0
  0
ARC
  8
BLACK
 10
-1.878626
 20
-50.446171
 30
0.0
 40
0.9283764359148717
 50
269.99697591
 51
337.97782841
  0
LINE
  8
BLACK
  6
Continuous
 10
27.981615
 20
-52.79956
 30
0.0
 11
27.981615
 21
-60.4004
 31
0.0
  0
LINE
  8
BLACK
  6
Continuous
 10
-1.878675
 20
-51.374548
 30
0.0
 11
-1.878675
 21
-51.37456
 31
0.0
  0
ARC
  8
BLACK
 10
26.55649
 20
-60.40036
 30
0.0
 40
1.425125000561354
 50
269.52631186
 51
359.99839184
  0
ARC
  8
BLACK
 10
25.69105
 20
-50.44609999999999
 30
0.0
 40
0.9284600003365787
 50
202.02452102
 51
269.99845724
  0
LINE
  8
BLACK
  6
Continuous
 10
-0.021375
 20
-50.1224
 30
0.0
 11
23.833825
 21
-50.1224
 31
0.0
  0
LINE
  8
BLACK
  6
Continuous
 10
-2.340175
 20
-61.82544
 30
0.0
 11
-2.744275
 21
-61.82544
 31
0.0
  0
ARC
  8
BLACK
 10
26.15258
 20
-63.55038
 30
0.0
 40
1.724936068561673
 50
90.00016608000001
 51
159.45408213
  0
ARC
  8
BLACK
 10
-0.021476
 20
-51.197351
 30
0.0
 40
1.074940192811674
 50
89.99461656
 51
157.97750247
  0
LINE
  8
BLACK
  6
Continuous
 10
26.544708
 20
-61.82544
 30
0.0
 11
26.152575
 21
-61.82544
 31
0.0
  0
LINE
  8
BLACK
  6
Continuous
 10
-4.169265
 20
-60.40044
 30
0.0
 11
-4.169265
 21
-52.79969999999999
 31
0.0
  0
LINE
  8
BLACK
  6
Continuous
 10
-2.732238
 20
-51.37456
 30
0.0
 11
-1.878675
 21
-51.37456
 31
0.0
  0
LINE
  8
BLACK
  6
Continuous
 10
22.781675
 20
-64.16190999999999
 30
0.0
 11
1.030825
 21
-64.16190999999999
 31
0.0
  0
ARC
  8
BLACK
 10
-2.340199
 20
-63.550348
 30
0.0
 40
1.724908000166965
 50
20.54547839
 51
89.9992028
  0
ARC
  8
BLACK
 10
22.78159
 20
-62.28682999999999
 30
0.0
 40
1.875082291400833
 50
270.0025973
 51
339.45098232
  0
CIRCLE
  8
BLACK
 10
33.3375
 20
-57.15
 30
0.0
 40
1.0
  0
CIRCLE
  8
BLACK
 10
257.175
 20
-57.15
 30
0.0
 40
1.0
  0
LINE
  8
BLACK
  6
Continuous
 10
259.35
 20
-52.175
 30
0.0
 11
259.35
 21
-62.125001
 31
0.0
  0
LINE
  8
BLACK
  6
Continuous
 10
271.975
 20
-50.09999999999999
 30
0.0
 11
261.424999
 21
-50.09999999999999
 31
0.0
  0
LINE
  8
BLACK
  6
Continuous
 10
271.975
 20
-64.2
 30
0.0
 11
261.425
 21
-64.2
 31
0.0
  0
LINE
  8
BLACK
  6
Continuous
 10
274.05
 20
-52.175
 30
0.0
 11
274.05
 21
-62.125
 31
0.0
  0
ARC
  8
BLACK
 10
261.425004
 20
-52.17500399999999
 30
0.0
 40
2.075004000003855
 50
90.00013806
 51
179.99988955
  0
ARC
  8
BLACK
 10
261.425002
 20
-62.124998
 30
0.0
 40
2.075002000000964
 50
180.00008284
 51
269.99994478
  0
ARC
  8
BLACK
 10
271.975
 20
-52.175
 30
0.0
 40
2.075
 50
0.0
 51
90.0
  0
ARC
  8
BLACK
 10
271.975
 20
-62.125
 30
0.0
 40
2.075
 50
270.0
 51
0.0
  0
LINE
  8
BLACK
  6
Continuous
 10
233.15625
 20
-52.175
 30
0.0
 11
233.15625
 21
-62.125001
 31
0.0
  0
LINE
  8
BLACK
  6
Continuous
 10
245.78125
 20
-50.09999999999999
 30
0.0
 11
235.231249
 21
-50.09999999999999
 31
0.0
  0
LINE
  8
BLACK
  6
Continuous
 10
245.78125
 20
-64.2
 30
0.0
 11
235.23125
 21
-64.2
 31
0.0
  0
LINE
  8
BLACK
  6
Continuous
 10
247.85625
 20
-52.175
 30
0.0
 11
247.85625
 21
-62.125
 31
0.0
  0
ARC
  8
BLACK
 10
235.231254
 20
-52.17500399999999
 30
0.0
 40
2.075004000003855
 50
90.00013806
 51
179.99988955
  0
ARC
  8
BLACK
 10
235.231252
 20
-62.124998
 30
0.0
 40
2.075002000000964
 50
180.00008284
 51
269.99994478
  0
ARC
  8
BLACK
 10
245.78125
 20
-52.175
 30
0.0
 40
2.075
 50
0.0
 51
90.0
  0
ARC
  8
BLACK
 10
245.78125
 20
-62.125
 30
0.0
 40
2.075
 50
270.0
 51
0.0
  0
ARC
  8
BLACK
 10
266.72135
 20
-32.1473
 30
0.0
 40
1.074900000290725
 50
22.02045710000001
 51
90.00133258000001
  0
ARC
  8
BLACK
 10
240.143395
 20
-33.749671
 30
0.0
 40
1.425160000295055
 50
89.52290501999998
 51
180.00116589
  0
ARC
  8
BLACK
 10
269.44415
 20
-33.7495
 30
0.0
 40
1.424940000219307
 50
359.99758749
 51
90.00100523000002
  0
ARC
  8
BLACK
 10
243.918284
 20
-43.236811
 30
0.0
 40
1.875099000448243
 50
200.54912503
 51
270.0012528
  0
ARC
  8
BLACK
 10
240.143189
 20
-41.350486
 30
0.0
 40
1.424954000454751
 50
179.99815039
 51
270.00144752
  0
LINE
  8
BLACK
  6
Continuous
 10
242.866125
 20
-31.072411
 30
0.0
 11
242.866125
 21
-31.0724
 31
0.0
  0
CIRCLE
  8
BLACK
 10
238.39375
 20
-45.3
 30
0.0
 40
1.0
  0
LINE
  8
BLACK
  6
Continuous
 10
268.578525
 20
-32.32456
 30
0.0
 11
269.444125
 21
-32.32456
 31
0.0
  0
ARC
  8
BLACK
 10
241.008826
 20
-31.3961
 30
0.0
 40
0.9284475575502367
 50
269.99993829
 51
337.97487728
  0
LINE
  8
BLACK
  6
Continuous
 10
270.869115
 20
-33.74956
 30
0.0
 11
270.869115
 21
-41.3504
 31
0.0
  0
LINE
  8
BLACK
  6
Continuous
 10
241.008825
 20
-32.324548
 30
0.0
 11
241.008825
 21
-32.32456
 31
0.0
  0
ARC
  8
BLACK
 10
269.44396
 20
-41.35033
 30
0.0
 40
1.425155001719111
 50
269.52752788
 51
359.9971857799999
  0
ARC
  8
BLACK
 10
268.57855
 20
-31.3961
 30
0.0
 40
0.9284600003365787
 50
202.02452102
 51
269.99845724
  0
LINE
  8
BLACK
  6
Continuous
 10
242.866125
 20
-31.0724
 30
0.0
 11
266.721325
 21
-31.0724
 31
0.0
  0
LINE
  8
BLACK
  6
Continuous
 10
240.547325
 20
-42.77544
 30
0.0
 11
240.143225
 21
-42.77544
 31
0.0
  0
ARC
  8
BLACK
 10
269.04007
 20
-44.50036
 30
0.0
 40
1.724919685557852
 50
89.99983392000001
 51
159.45458763
  0
ARC
  8
BLACK
 10
242.866094
 20
-32.147455
 30
0.0
 40
1.075044084615138
 50
89.99834781999999
 51
157.973763
  0
LINE
  8
BLACK
  6
Continuous
 10
269.432208
 20
-42.77544
 30
0.0
 11
269.040075
 21
-42.77544
 31
0.0
  0
LINE
  8
BLACK
  6
Continuous
 10
238.718235
 20
-41.35044
 30
0.0
 11
238.718235
 21
-33.7497
 31
0.0
  0
LINE
  8
BLACK
  6
Continuous
 10
240.155262
 20
-32.32456
 30
0.0
 11
241.008825
 21
-32.32456
 31
0.0
  0
LINE
  8
BLACK
  6
Continuous
 10
265.669175
 20
-45.11190999999999
 30
0.0
 11
243.918325
 21
-45.11190999999999
 31
0.0
  0
ARC
  8
BLACK
 10
240.547374
 20
-44.500243
 30
0.0
 40
1.724803000696022
 50
20.54306333
 51
90.00162772
  0
ARC
  8
BLACK
 10
265.66919
 20
-43.23697
 30
0.0
 40
1.874939515431098
 50
269.9995416199999
 51
339.45391569
  0
LINE
  8
BLACK
  6
Continuous
 10
267.2125
 20
-26.1
 30
0.0
 11
256.6625
 21
-26.1
 31
0.0
  0
LINE
  8
BLACK
  6
Continuous
 10
267.2125
 20
-12.0
 30
0.0
 11
256.662499
 21
-12.0
 31
0.0
  0
LINE
  8
BLACK
  6
Continuous
 10
254.5875
 20
-14.075
 30
0.0
 11
254.5875
 21
-24.025001
 31
0.0
  0
ARC
  8
BLACK
 10
256.662499
 20
-14.074999
 30
0.0
 40
2.074999000000241
 50
90.0
 51
180.00002761
  0
ARC
  8
BLACK
 10
267.2125
 20
-24.025
 30
0.0
 40
2.075
 50
270.0
 51
0.0
  0
ARC
  8
BLACK
 10
267.2125
 20
-14.075
 30
0.0
 40
2.075
 50
0.0
 51
90.0
  0
ARC
  8
BLACK
 10
256.662499
 20
-24.025001
 30
0.0
 40
2.074999000000241
 50
180.0
 51
270.0000276100001
  0
LINE
  8
BLACK
  6
Continuous
 10
269.2875
 20
-14.075
 30
0.0
 11
269.2875
 21
-24.025
 31
0.0
  0
CIRCLE
  8
BLACK
 10
271.4625
 20
-19.05
 30
0.0
 40
1.0
  0
LINE
  8
BLACK
  6
Continuous
 10
167.038458
 20
-80.87544
 30
0.0
 11
166.646325
 21
-80.87544
 31
0.0
  0
LINE
  8
BLACK
  6
Continuous
 10
136.324485
 20
-79.45044
 30
0.0
 11
136.324485
 21
-71.8497
 31
0.0
  0
ARC
  8
BLACK
 10
164.32754
 20
-70.24739
 30
0.0
 40
1.074990000569773
 50
22.02370504
 51
89.99813454
  0
ARC
  8
BLACK
 10
137.749567
 20
-71.849592
 30
0.0
 40
1.425082004092396
 50
89.51974267000003
 51
180.00434217
  0
ARC
  8
BLACK
 10
167.0504
 20
-71.84949999999999
 30
0.0
 40
1.424940000219307
 50
359.99758749
 51
90.00100523000002
  0
ARC
  8
BLACK
 10
141.524462
 20
-81.33691499999999
 30
0.0
 40
1.874995003405076
 50
200.54692151
 51
270.00345303
  0
ARC
  8
BLACK
 10
137.749486
 20
-79.450439
 30
0.0
 40
1.425001000042456
 50
180.00004021
 51
269.99955772
  0
CIRCLE
  8
BLACK
 10
168.8
 20
-83.39999999999999
 30
0.0
 40
1.0
  0
LINE
  8
BLACK
  6
Continuous
 10
140.472375
 20
-69.172411
 30
0.0
 11
140.472375
 21
-69.1724
 31
0.0
  0
CIRCLE
  8
BLACK
 10
136.0
 20
-83.39999999999999
 30
0.0
 40
1.0
  0
LINE
  8
BLACK
  6
Continuous
 10
166.184775
 20
-70.42456
 30
0.0
 11
167.050375
 21
-70.42456
 31
0.0
  0
ARC
  8
BLACK
 10
138.615124
 20
-69.496171
 30
0.0
 40
0.9283764359148717
 50
269.99697591
 51
337.97782841
  0
LINE
  8
BLACK
  6
Continuous
 10
168.475365
 20
-71.84956
 30
0.0
 11
168.475365
 21
-79.4504
 31
0.0
  0
LINE
  8
BLACK
  6
Continuous
 10
138.615075
 20
-70.424548
 30
0.0
 11
138.615075
 21
-70.42456
 31
0.0
  0
ARC
  8
BLACK
 10
167.05024
 20
-79.45036
 30
0.0
 40
1.425125000561354
 50
269.52631186
 51
359.99839184
  0
ARC
  8
BLACK
 10
166.1848
 20
-69.4961
 30
0.0
 40
0.9284600003365787
 50
202.02452102
 51
269.99845724
  0
LINE
  8
BLACK
  6
Continuous
 10
140.472375
 20
-69.1724
 30
0.0
 11
164.327575
 21
-69.1724
 31
0.0
  0
LINE
  8
BLACK
  6
Continuous
 10
138.153575
 20
-80.87544
 30
0.0
 11
137.749475
 21
-80.87544
 31
0.0
  0
ARC
  8
BLACK
 10
166.64633
 20
-82.60038
 30
0.0
 40
1.724936068561673
 50
90.00016608000001
 51
159.45408213
  0
ARC
  8
BLACK
 10
140.472274
 20
-70.247351
 30
0.0
 40
1.074940192811674
 50
89.99461656
 51
157.97750247
  0
LINE
  8
BLACK
  6
Continuous
 10
137.761512
 20
-70.42456
 30
0.0
 11
138.615075
 21
-70.42456
 31
0.0
  0
LINE
  8
BLACK
  6
Continuous
 10
163.275425
 20
-83.21191
 30
0.0
 11
141.524575
 21
-83.21191
 31
0.0
  0
ARC
  8
BLACK
 10
138.153551
 20
-82.600348
 30
0.0
 40
1.724908000166965
 50
20.54547839
 51
89.9992028
  0
ARC
  8
BLACK
 10
163.27534
 20
-81.33682999999999
 30
0.0
 40
1.875082291400833
 50
270.0025973
 51
339.45098232
  0
LINE
  8
BLACK
  6
Continuous
 10
267.2125
 20
-83.25
 30
0.0
 11
256.6625
 21
-83.25
 31
0.0
  0
LINE
  8
BLACK
  6
Continuous
 10
267.2125
 20
-69.14999999999999
 30
0.0
 11
256.662499
 21
-69.14999999999999
 31
0.0
  0
LINE
  8
BLACK
  6
Continuous
 10
254.5875
 20
-71.225
 30
0.0
 11
254.5875
 21
-81.175001
 31
0.0
  0
ARC
  8
BLACK
 10
256.662504
 20
-71.225004
 30
0.0
 40
2.075004000003855
 50
90.00013806
 51
179.99988955
  0
ARC
  8
BLACK
 10
267.2125
 20
-81.175
 30
0.0
 40
2.075
 50
270.0
 51
0.0
  0
ARC
  8
BLACK
 10
267.2125
 20
-71.225
 30
0.0
 40
2.075
 50
0.0
 51
90.0
  0
ARC
  8
BLACK
 10
256.662502
 20
-81.174998
 30
0.0
 40
2.075002000000964
 50
180.00008284
 51
269.99994478
  0
LINE
  8
BLACK
  6
Continuous
 10
269.2875
 20
-71.225
 30
0.0
 11
269.2875
 21
-81.175
 31
0.0
  0
LINE
  8
BLACK
  6
Continuous
 10
243.4
 20
-83.25
 30
0.0
 11
232.85
 21
-83.25
 31
0.0
  0
LINE
  8
BLACK
  6
Continuous
 10
243.4
 20
-69.14999999999999
 30
0.0
 11
232.849999
 21
-69.14999999999999
 31
0.0
  0
LINE
  8
BLACK
  6
Continuous
 10
230.775
 20
-71.225
 30
0.0
 11
230.775
 21
-81.175001
 31
0.0
  0
ARC
  8
BLACK
 10
232.850004
 20
-71.225004
 30
0.0
 40
2.075004000003855
 50
90.00013806
 51
179.99988955
  0
ARC
  8
BLACK
 10
243.4
 20
-81.175
 30
0.0
 40
2.075
 50
270.0
 51
0.0
  0
ARC
  8
BLACK
 10
243.4
 20
-71.225
 30
0.0
 40
2.075
 50
0.0
 51
90.0
  0
ARC
  8
BLACK
 10
232.850002
 20
-81.174998
 30
0.0
 40
2.075002000000964
 50
180.00008284
 51
269.99994478
  0
LINE
  8
BLACK
  6
Continuous
 10
245.475
 20
-71.225
 30
0.0
 11
245.475
 21
-81.175
 31
0.0
  0
LINE
  8
BLACK
  6
Continuous
 10
224.35
 20
-83.25
 30
0.0
 11
213.8
 21
-83.25
 31
0.0
  0
LINE
  8
BLACK
  6
Continuous
 10
224.35
 20
-69.14999999999999
 30
0.0
 11
213.799999
 21
-69.14999999999999
 31
0.0
  0
LINE
  8
BLACK
  6
Continuous
 10
211.725
 20
-71.225
 30
0.0
 11
211.725
 21
-81.175001
 31
0.0
  0
ARC
  8
BLACK
 10
213.800004
 20
-71.225004
 30
0.0
 40
2.075004000003855
 50
90.00013806
 51
179.99988955
  0
ARC
  8
BLACK
 10
224.35
 20
-81.175
 30
0.0
 40
2.075
 50
270.0
 51
0.0
  0
ARC
  8
BLACK
 10
224.35
 20
-71.225
 30
0.0
 40
2.075
 50
0.0
 51
90.0
  0
ARC
  8
BLACK
 10
213.800002
 20
-81.174998
 30
0.0
 40
2.075002000000964
 50
180.00008284
 51
269.99994478
  0
LINE
  8
BLACK
  6
Continuous
 10
226.425
 20
-71.225
 30
0.0
 11
226.425
 21
-81.175
 31
0.0
  0
LINE
  8
BLACK
  6
Continuous
 10
200.5375
 20
-83.25
 30
0.0
 11
189.9875
 21
-83.25
 31
0.0
  0
LINE
  8
BLACK
  6
Continuous
 10
200.5375
 20
-69.14999999999999
 30
0.0
 11
189.987499
 21
-69.14999999999999
 31
0.0
  0
LINE
  8
BLACK
  6
Continuous
 10
187.9125
 20
-71.225
 30
0.0
 11
187.9125
 21
-81.175001
 31
0.0
  0
ARC
  8
BLACK
 10
189.987504
 20
-71.225004
 30
0.0
 40
2.075004000003855
 50
90.00013806
 51
179.99988955
  0
ARC
  8
BLACK
 10
200.5375
 20
-81.175
 30
0.0
 40
2.075
 50
270.0
 51
0.0
  0
ARC
  8
BLACK
 10
200.5375
 20
-71.225
 30
0.0
 40
2.075
 50
0.0
 51
90.0
  0
ARC
  8
BLACK
 10
189.987502
 20
-81.174998
 30
0.0
 40
2.075002000000964
 50
180.00008284
 51
269.99994478
  0
LINE
  8
BLACK
  6
Continuous
 10
202.6125
 20
-71.225
 30
0.0
 11
202.6125
 21
-81.175
 31
0.0
  0
LINE
  8
BLACK
  6
Continuous
 10
57.66249999999999
 20
-83.25
 30
0.0
 11
47.1125
 21
-83.25
 31
0.0
  0
LINE
  8
BLACK
  6
Continuous
 10
57.66249999999999
 20
-69.14999999999999
 30
0.0
 11
47.112499
 21
-69.14999999999999
 31
0.0
  0
LINE
  8
BLACK
  6
Continuous
 10
45.0375
 20
-71.225
 30
0.0
 11
45.0375
 21
-81.175001
 31
0.0
  0
ARC
  8
BLACK
 10
47.112504
 20
-71.225004
 30
0.0
 40
2.075004000003855
 50
90.00013806
 51
179.99988955
  0
ARC
  8
BLACK
 10
57.66249999999999
 20
-81.175
 30
0.0
 40
2.075
 50
270.0
 51
0.0
  0
ARC
  8
BLACK
 10
57.66249999999999
 20
-71.225
 30
0.0
 40
2.075
 50
0.0
 51
90.0
  0
ARC
  8
BLACK
 10
47.112502
 20
-81.174998
 30
0.0
 40
2.075002000000964
 50
180.00008284
 51
269.99994478
  0
LINE
  8
BLACK
  6
Continuous
 10
59.7375
 20
-71.225
 30
0.0
 11
59.7375
 21
-81.175
 31
0.0
  0
LINE
  8
BLACK
  6
Continuous
 10
33.85
 20
-83.25
 30
0.0
 11
23.3
 21
-83.25
 31
0.0
  0
LINE
  8
BLACK
  6
Continuous
 10
33.85
 20
-69.14999999999999
 30
0.0
 11
23.299999
 21
-69.14999999999999
 31
0.0
  0
LINE
  8
BLACK
  6
Continuous
 10
21.225
 20
-71.225
 30
0.0
 11
21.225
 21
-81.175001
 31
0.0
  0
ARC
  8
BLACK
 10
23.300004
 20
-71.225004
 30
0.0
 40
2.075004000003855
 50
90.00013806
 51
179.99988955
  0
ARC
  8
BLACK
 10
33.85
 20
-81.175
 30
0.0
 40
2.075
 50
270.0
 51
0.0
  0
ARC
  8
BLACK
 10
33.85
 20
-71.225
 30
0.0
 40
2.075
 50
0.0
 51
90.0
  0
ARC
  8
BLACK
 10
23.300002
 20
-81.174998
 30
0.0
 40
2.075002000000964
 50
180.00008284
 51
269.99994478
  0
LINE
  8
BLACK
  6
Continuous
 10
35.925
 20
-71.225
 30
0.0
 11
35.925
 21
-81.175
 31
0.0
  0
LINE
  8
BLACK
  6
Continuous
 10
10.037501
 20
-83.25
 30
0.0
 11
-0.5124989999999999
 21
-83.25
 31
0.0
  0
LINE
  8
BLACK
  6
Continuous
 10
10.037501
 20
-69.14999999999999
 30
0.0
 11
-0.5125
 21
-69.14999999999999
 31
0.0
  0
LINE
  8
BLACK
  6
Continuous
 10
-2.587499
 20
-71.225
 30
0.0
 11
-2.587499
 21
-81.175001
 31
0.0
  0
ARC
  8
BLACK
 10
-0.5124949999999999
 20
-71.225004
 30
0.0
 40
2.075004000003855
 50
90.00013806
 51
179.99988955
  0
ARC
  8
BLACK
 10
10.037501
 20
-81.175
 30
0.0
 40
2.075
 50
270.0
 51
0.0
  0
ARC
  8
BLACK
 10
10.037501
 20
-71.225
 30
0.0
 40
2.075
 50
0.0
 51
90.0
  0
ARC
  8
BLACK
 10
-0.512497
 20
-81.174998
 30
0.0
 40
2.075002000000964
 50
180.00008284
 51
269.99994478
  0
LINE
  8
BLACK
  6
Continuous
 10
12.112501
 20
-71.225
 30
0.0
 11
12.112501
 21
-81.175
 31
0.0
  0
CIRCLE
  8
BLACK
 10
15.478125
 20
-76.2
 30
0.0
 40
1.0
  0
CIRCLE
  8
BLACK
 10
61.91249999999999
 20
-76.2
 30
0.0
 40
1.0
  0
CIRCLE
  8
BLACK
 10
39.290625
 20
-76.2
 30
0.0
 40
1.0
  0
CIRCLE
  8
BLACK
 10
251.221875
 20
-76.2
 30
0.0
 40
1.0
  0
CIRCLE
  8
BLACK
 10
228.6
 20
-76.2
 30
0.0
 40
1.0
  0
CIRCLE
  8
BLACK
 10
204.7875
 20
-76.2
 30
0.0
 40
1.0
  0
ARC
  8
BLACK
 10
106.12534
 20
-81.33682999999999
 30
0.0
 40
1.875082291400833
 50
270.0025973
 51
339.45098232
  0
ARC
  8
BLACK
 10
83.322274
 20
-70.247351
 30
0.0
 40
1.074940192811674
 50
89.99461656
 51
157.97750247
  0
ARC
  8
BLACK
 10
109.49633
 20
-82.60038
 30
0.0
 40
1.724936068561673
 50
90.00016608000001
 51
159.45408213
  0
LINE
  8
BLACK
  6
Continuous
 10
109.888458
 20
-80.87544
 30
0.0
 11
109.496325
 21
-80.87544
 31
0.0
  0
ARC
  8
BLACK
 10
81.003551
 20
-82.600348
 30
0.0
 40
1.724908000166965
 50
20.54547839
 51
89.9992028
  0
LINE
  8
BLACK
  6
Continuous
 10
81.465075
 20
-70.424548
 30
0.0
 11
81.465075
 21
-70.42456
 31
0.0
  0
LINE
  8
BLACK
  6
Continuous
 10
83.322375
 20
-69.1724
 30
0.0
 11
107.177575
 21
-69.1724
 31
0.0
  0
LINE
  8
BLACK
  6
Continuous
 10
81.003575
 20
-80.87544
 30
0.0
 11
80.599475
 21
-80.87544
 31
0.0
  0
LINE
  8
BLACK
  6
Continuous
 10
111.325365
 20
-71.84956
 30
0.0
 11
111.325365
 21
-79.4504
 31
0.0
  0
LINE
  8
BLACK
  6
Continuous
 10
80.61151199999999
 20
-70.42456
 30
0.0
 11
81.465075
 21
-70.42456
 31
0.0
  0
ARC
  8
BLACK
 10
109.9004
 20
-71.84949999999999
 30
0.0
 40
1.424940000219307
 50
359.99758749
 51
90.00100523000002
  0
LINE
  8
BLACK
  6
Continuous
 10
106.125425
 20
-83.21191
 30
0.0
 11
84.374575
 21
-83.21191
 31
0.0
  0
ARC
  8
BLACK
 10
107.17754
 20
-70.24739
 30
0.0
 40
1.074990000569773
 50
22.02370504
 51
89.99813454
  0
ARC
  8
BLACK
 10
109.90024
 20
-79.45036
 30
0.0
 40
1.425125000561354
 50
269.52631186
 51
359.99839184
  0
ARC
  8
BLACK
 10
81.465124
 20
-69.496171
 30
0.0
 40
0.9283764359148717
 50
269.99697591
 51
337.97782841
  0
LINE
  8
BLACK
  6
Continuous
 10
109.034775
 20
-70.42456
 30
0.0
 11
109.900375
 21
-70.42456
 31
0.0
  0
ARC
  8
BLACK
 10
109.0348
 20
-69.4961
 30
0.0
 40
0.9284600003365787
 50
202.02452102
 51
269.99845724
  0
ARC
  8
BLACK
 10
80.599486
 20
-79.450439
 30
0.0
 40
1.425001000042456
 50
180.00004021
 51
269.99955772
  0
CIRCLE
  8
BLACK
 10
111.65
 20
-83.39999999999999
 30
0.0
 40
1.0
  0
ARC
  8
BLACK
 10
84.374462
 20
-81.33691499999999
 30
0.0
 40
1.874995003405076
 50
200.54692151
 51
270.00345303
  0
LINE
  8
BLACK
  6
Continuous
 10
83.322375
 20
-69.172411
 30
0.0
 11
83.322375
 21
-69.1724
 31
0.0
  0
ARC
  8
BLACK
 10
80.599567
 20
-71.849592
 30
0.0
 40
1.425082004092396
 50
89.51974267000003
 51
180.00434217
  0
CIRCLE
  8
BLACK
 10
78.85
 20
-83.39999999999999
 30
0.0
 40
1.0
  0
LINE
  8
BLACK
  6
Continuous
 10
79.17448499999999
 20
-79.45044
 30
0.0
 11
79.17448499999999
 21
-71.8497
 31
0.0
  0
ENDSEC
  0
EOF
