  0
SECTION
  2
HEADER
  9
$ACADVER
  1
AC1032
  9
$ACADMAINTVER
 90
4
  9
$DWGCODEPAGE
  3
ANSI_1252
  9
$LASTSAVEDBY
  1
cipulot
  9
$REQUIREDVERSIONS
160
0
  9
$INSBASE
 10
0.0
 20
0.0
 30
0.0
  9
$EXTMIN
 10
1e+20
 20
1e+20
 30
1e+20
  9
$EXTMAX
 10
-1e+20
 20
-1e+20
 30
-1e+20
  9
$LIMMIN
 10
0.0
 20
0.0
  9
$LIMMAX
 10
12.0
 20
9.0
  9
$ORTHOMODE
 70
0
  9
$REGENMODE
 70
1
  9
$FILLMODE
 70
1
  9
$QTEXTMODE
 70
0
  9
$MIRRTEXT
 70
1
  9
$LTSCALE
 40
1.0
  9
$ATTMODE
 70
1
  9
$TEXTSIZE
 40
2.5
  9
$TRACEWID
 40
0.05
  9
$TEXTSTYLE
  7
Standard
  9
$CLAYER
  8
0
  9
$CELTYPE
  6
ByBlock
  9
$CECOLOR
 62
256
  9
$CELTSCALE
 40
1.0
  9
$DISPSILH
 70
0
  9
$DIMSCALE
 40
1.0
  9
$DIMASZ
 40
0.18
  9
$DIMEXO
 40
0.0625
  9
$DIMDLI
 40
0.38
  9
$DIMRND
 40
0.0
  9
$DIMDLE
 40
0.0
  9
$DIMEXE
 40
0.18
  9
$DIMTP
 40
0.0
  9
$DIMTM
 40
0.0
  9
$DIMTXT
 40
0.18
  9
$DIMCEN
 40
0.09
  9
$DIMTSZ
 40
0.0
  9
$DIMTOL
 70
0
  9
$DIMLIM
 70
0
  9
$DIMTIH
 70
1
  9
$DIMTOH
 70
1
  9
$DIMSE1
 70
0
  9
$DIMSE2
 70
0
  9
$DIMTAD
 70
0
  9
$DIMZIN
 70
0
  9
$DIMBLK
  1

  9
$DIMASO
 70
1
  9
$DIMSHO
 70
1
  9
$DIMPOST
  1

  9
$DIMAPOST
  1

  9
$DIMALT
 70
0
  9
$DIMALTD
 70
2
  9
$DIMALTF
 40
25.4
  9
$DIMLFAC
 40
1.0
  9
$DIMTOFL
 70
0
  9
$DIMTVP
 40
0.0
  9
$DIMTIX
 70
0
  9
$DIMSOXD
 70
0
  9
$DIMSAH
 70
0
  9
$DIMBLK1
  1

  9
$DIMBLK2
  1

  9
$DIMSTYLE
  2
Standard
  9
$DIMCLRD
 70
0
  9
$DIMCLRE
 70
0
  9
$DIMCLRT
 70
0
  9
$DIMTFAC
 40
1.0
  9
$DIMGAP
 40
0.09
  9
$DIMJUST
 70
0
  9
$DIMSD1
 70
0
  9
$DIMSD2
 70
0
  9
$DIMTOLJ
 70
1
  9
$DIMTZIN
 70
0
  9
$DIMALTZ
 70
0
  9
$DIMALTTZ
 70
0
  9
$DIMUPT
 70
0
  9
$DIMDEC
 70
4
  9
$DIMTDEC
 70
4
  9
$DIMALTU
 70
2
  9
$DIMALTTD
 70
2
  9
$DIMTXSTY
  7
Standard
  9
$DIMAUNIT
 70
0
  9
$DIMADEC
 70
0
  9
$DIMALTRND
 40
0.0
  9
$DIMAZIN
 70
0
  9
$DIMDSEP
 70
46
  9
$DIMATFIT
 70
3
  9
$DIMFRAC
 70
0
  9
$DIMLDRBLK
  1

  9
$DIMLUNIT
 70
2
  9
$DIMLWD
 70
-2
  9
$DIMLWE
 70
-2
  9
$DIMTMOVE
 70
2
  9
$DIMFXL
 40
1.0
  9
$DIMFXLON
 70
0
  9
$DIMJOGANG
 40
0.7853981633974483
  9
$DIMTFILL
 70
0
  9
$DIMTFILLCLR
 70
0
  9
$DIMARCSYM
 70
0
  9
$DIMLTYPE
  6

  9
$DIMLTEX1
  6

  9
$DIMLTEX2
  6

  9
$DIMTXTDIRECTION
 70
0
  9
$LUNITS
 70
2
  9
$LUPREC
 70
4
  9
$SKETCHINC
 40
0.1
  9
$FILLETRAD
 40
0.0
  9
$AUNITS
 70
0
  9
$AUPREC
 70
0
  9
$MENU
  1
.
  9
$ELEVATION
 40
0.0
  9
$PELEVATION
 40
0.0
  9
$THICKNESS
 40
0.0
  9
$LIMCHECK
 70
0
  9
$CHAMFERA
 40
0.0
  9
$CHAMFERB
 40
0.0
  9
$CHAMFERC
 40
0.0
  9
$CHAMFERD
 40
0.0
  9
$SKPOLY
 70
0
  9
$TDCREATE
 40
2461101.4996875
  9
$TDUCREATE
 40
2461050.836122674
  9
$TDUPDATE
 40
2461101.4996875
  9
$TDUUPDATE
 40
2461096.557493507
  9
$TDINDWG
 40
1.16e-08
  9
$TDUSRTIMER
 40
1.16e-08
  9
$USRTIMER
 70
1
  9
$ANGBASE
 50
0.0
  9
$ANGDIR
 70
1
  9
$PDMODE
 70
0
  9
$PDSIZE
 40
0.0
  9
$PLINEWID
 40
0.0
  9
$SPLFRAME
 70
0
  9
$SPLINETYPE
 70
6
  9
$SPLINESEGS
 70
8
  9
$HANDSEED
  5
2DB
  9
$SURFTAB1
 70
6
  9
$SURFTAB2
 70
6
  9
$SURFTYPE
 70
6
  9
$SURFU
 70
6
  9
$SURFV
 70
6
  9
$UCSBASE
  2

  9
$UCSNAME
  2

  9
$UCSORG
 10
0.0
 20
0.0
 30
0.0
  9
$UCSXDIR
 10
1.0
 20
0.0
 30
0.0
  9
$UCSYDIR
 10
0.0
 20
1.0
 30
0.0
  9
$UCSORTHOREF
  2

  9
$UCSORTHOVIEW
 70
0
  9
$UCSORGTOP
 10
0.0
 20
0.0
 30
0.0
  9
$UCSORGBOTTOM
 10
0.0
 20
0.0
 30
0.0
  9
$UCSORGLEFT
 10
0.0
 20
0.0
 30
0.0
  9
$UCSORGRIGHT
 10
0.0
 20
0.0
 30
0.0
  9
$UCSORGFRONT
 10
0.0
 20
0.0
 30
0.0
  9
$UCSORGBACK
 10
0.0
 20
0.0
 30
0.0
  9
$PUCSBASE
  2

  9
$PUCSNAME
  2

  9
$PUCSORG
 10
0.0
 20
0.0
 30
0.0
  9
$PUCSXDIR
 10
1.0
 20
0.0
 30
0.0
  9
$PUCSYDIR
 10
0.0
 20
1.0
 30
0.0
  9
$PUCSORTHOREF
  2

  9
$PUCSORTHOVIEW
 70
0
  9
$PUCSORGTOP
 10
0.0
 20
0.0
 30
0.0
  9
$PUCSORGBOTTOM
 10
0.0
 20
0.0
 30
0.0
  9
$PUCSORGLEFT
 10
0.0
 20
0.0
 30
0.0
  9
$PUCSORGRIGHT
 10
0.0
 20
0.0
 30
0.0
  9
$PUCSORGFRONT
 10
0.0
 20
0.0
 30
0.0
  9
$PUCSORGBACK
 10
0.0
 20
0.0
 30
0.0
  9
$USERI1
 70
0
  9
$USERI2
 70
0
  9
$USERI3
 70
0
  9
$USERI4
 70
0
  9
$USERI5
 70
0
  9
$USERR1
 40
0.0
  9
$USERR2
 40
0.0
  9
$USERR3
 40
0.0
  9
$USERR4
 40
0.0
  9
$USERR5
 40
0.0
  9
$WORLDVIEW
 70
1
  9
$SHADEDGE
 70
3
  9
$SHADEDIF
 70
70
  9
$TILEMODE
 70
1
  9
$MAXACTVP
 70
64
  9
$PINSBASE
 10
0.0
 20
0.0
 30
0.0
  9
$PLIMCHECK
 70
0
  9
$PEXTMIN
 10
1e+20
 20
1e+20
 30
1e+20
  9
$PEXTMAX
 10
-1e+20
 20
-1e+20
 30
-1e+20
  9
$PLIMMIN
 10
0.0
 20
0.0
  9
$PLIMMAX
 10
420.0
 20
297.0
  9
$UNITMODE
 70
0
  9
$VISRETAIN
 70
1
  9
$PLINEGEN
 70
0
  9
$PSLTSCALE
 70
1
  9
$TREEDEPTH
 70
3020
  9
$CMLSTYLE
  2
Standard
  9
$CMLJUST
 70
0
  9
$CMLSCALE
 40
1.0
  9
$PROXYGRAPHICS
 70
1
  9
$MEASUREMENT
 70
0
  9
$CELWEIGHT
370
-1
  9
$ENDCAPS
280
0
  9
$JOINSTYLE
280
0
  9
$LWDISPLAY
290
0
  9
$INSUNITS
 70
 4
  9
$HYPERLINKBASE
  1

  9
$STYLESHEET
  1

  9
$XEDIT
290
1
  9
$CEPSNTYPE
380
0
  9
$PSTYLEMODE
290
1
  9
$FINGERPRINTGUID
  2
{0da0c5bc-b604-0a4e-993c-5157d8627daf}
  9
$VERSIONGUID
  2
{450501FD-25E0-4B17-9969-6DA047F9616D}
  9
$EXTNAMES
290
1
  9
$PSVPSCALE
 40
0.0
  9
$OLESTARTUP
290
0
  9
$SORTENTS
280
127
  9
$INDEXCTL
280
0
  9
$HIDETEXT
280
1
  9
$XCLIPFRAME
280
2
  9
$HALOGAP
280
0
  9
$OBSCOLOR
 70
257
  9
$OBSLTYPE
280
0
  9
$INTERSECTIONDISPLAY
280
0
  9
$INTERSECTIONCOLOR
 70
257
  9
$DIMASSOC
280
2
  9
$PROJECTNAME
  1

  9
$CAMERADISPLAY
290
0
  9
$LENSLENGTH
 40
50.0
  9
$CAMERAHEIGHT
 40
0.0
  9
$STEPSPERSEC
 40
2.0
  9
$STEPSIZE
 40
6.0
  9
$3DDWFPREC
 40
2.0
  9
$PSOLWIDTH
 40
0.25
  9
$PSOLHEIGHT
 40
4.0
  9
$LOFTANG1
 40
1.570796326794897
  9
$LOFTANG2
 40
1.570796326794897
  9
$LOFTMAG1
 40
0.0
  9
$LOFTMAG2
 40
0.0
  9
$LOFTPARAM
 70
7
  9
$LOFTNORMALS
280
1
  9
$LATITUDE
 40
37.795
  9
$LONGITUDE
 40
-122.394
  9
$NORTHDIRECTION
 40
0.0
  9
$TIMEZONE
 70
-8000
  9
$LIGHTGLYPHDISPLAY
280
1
  9
$TILEMODELIGHTSYNCH
280
1
  9
$CMATERIAL
347
2A
  9
$SOLIDHIST
280
0
  9
$SHOWHIST
280
1
  9
$DWFFRAME
280
2
  9
$DGNFRAME
280
2
  9
$REALWORLDSCALE
290
1
  9
$INTERFERECOLOR
 62
256
  9
$CSHADOW
280
0
  9
$SHADOWPLANELOCATION
 40
0.0
  0
ENDSEC
  0
SECTION
  2
CLASSES
  0
CLASS
  1
ACDBDICTIONARYWDFLT
  2
AcDbDictionaryWithDefault
  3
ObjectDBX Classes
 90
0
 91
3
280
0
281
0
  0
CLASS
  1
MATERIAL
  2
AcDbMaterial
  3
ObjectDBX Classes
 90
1153
 91
3
280
0
281
0
  0
CLASS
  1
SCALE
  2
AcDbScale
  3
ObjectDBX Classes
 90
1153
 91
3
280
0
281
0
  0
CLASS
  1
VISUALSTYLE
  2
AcDbVisualStyle
  3
ObjectDBX Classes
 90
4095
 91
3
280
0
281
0
  0
CLASS
  1
TABLESTYLE
  2
AcDbTableStyle
  3
ObjectDBX Classes
 90
4095
 91
3
280
0
281
0
  0
CLASS
  1
MLEADERSTYLE
  2
AcDbMLeaderStyle
  3
ACDB_MLEADERSTYLE_CLASS
 90
4095
 91
3
280
0
281
0
  0
CLASS
  1
DICTIONARYVAR
  2
AcDbDictionaryVar
  3
ObjectDBX Classes
 90
0
 91
3
280
0
281
0
  0
CLASS
  1
CELLSTYLEMAP
  2
AcDbCellStyleMap
  3
ObjectDBX Classes
 90
1152
 91
3
280
0
281
0
  0
CLASS
  1
SUN
  2
AcDbSun
  3
SCENEOE
 90
1153
 91
0
280
0
281
0
  0
CLASS
  1
MENTALRAYRENDERSETTINGS
  2
AcDbMentalRayRenderSettings
  3
SCENEOE
 90
1024
 91
0
280
0
281
0
  0
CLASS
  1
ACDBDETAILVIEWSTYLE
  2
AcDbDetailViewStyle
  3
ObjectDBX Classes
 90
1025
 91
0
280
0
281
0
  0
CLASS
  1
ACDBSECTIONVIEWSTYLE
  2
AcDbSectionViewStyle
  3
ObjectDBX Classes
 90
1025
 91
0
280
0
281
0
  0
CLASS
  1
RASTERVARIABLES
  2
AcDbRasterVariables
  3
ISM
 90
0
 91
0
280
0
281
0
  0
CLASS
  1
LAYOUT
  2
AcDbLayout
  3
ObjectDBX Classes
 90
0
 91
0
280
0
281
0
  0
CLASS
  1
ACDBPLACEHOLDER
  2
AcDbPlaceHolder
  3
ObjectDBX Classes
 90
0
 91
0
280
0
281
0
  0
ENDSEC
  0
SECTION
  2
TABLES
  0
TABLE
  2
VPORT
  5
8
330
0
100
AcDbSymbolTable
 70
1
  0
VPORT
  5
20
330
8
100
AcDbSymbolTableRecord
100
AcDbViewportTableRecord
  2
*Active
 70
0
 10
0.0
 20
0.0
 11
1.0
 21
1.0
 12
0.0
 22
0.0
 13
0.0
 23
0.0
 14
0.5
 24
0.5
 15
0.5
 25
0.5
 16
0.0
 26
0.0
 36
1.0
 17
0.0
 27
0.0
 37
0.0
 40
1000.0
 41
1.34
 42
50.0
 43
0.0
 44
0.0
 50
0.0
 51
0.0
 71
0
 72
1000
 73
1
 74
3
 75
0
 76
0
 77
0
 78
0
281
0
 65
0
110
0.0
120
0.0
130
0.0
111
1.0
121
0.0
131
0.0
112
0.0
122
1.0
132
0.0
 79
0
146
0.0
 60
3
 61
5
348
24C
292
1
282
1
141
0.0
142
0.0
 63
256
  0
ENDTAB
  0
TABLE
  2
LTYPE
  5
5
330
0
100
AcDbSymbolTable
 70
6
  0
LTYPE
  5
14
330
5
100
AcDbSymbolTableRecord
100
AcDbLinetypeTableRecord
  2
ByBlock
 70
0
  3

 72
65
 73
0
 40
0.0
  0
LTYPE
  5
15
330
5
100
AcDbSymbolTableRecord
100
AcDbLinetypeTableRecord
  2
ByLayer
 70
0
  3

 72
65
 73
0
 40
0.0
  0
LTYPE
  5
16
330
5
100
AcDbSymbolTableRecord
100
AcDbLinetypeTableRecord
  2
CONTINUOUS
 70
0
  3
Solid line
 72
65
 73
0
 40
0.0
  0
LTYPE
  5
22
330
5
100
AcDbSymbolTableRecord
100
AcDbLinetypeTableRecord
  2
DASHDOT
 70
0
  3
Dash Dot ____ _ ____ _
 72
65
 73
4
 40
2.0
 49
1.25
 74
0
 49
-0.25
 74
0
 49
0.25
 74
0
 49
-0.25
 74
0
  0
LTYPE
  5
23
330
5
100
AcDbSymbolTableRecord
100
AcDbLinetypeTableRecord
  2
DASHED
 70
0
  3
Dashed __ __ __ __ __
 72
65
 73
2
 40
0.75
 49
0.5
 74
0
 49
-0.25
 74
0
  0
LTYPE
  5
24
330
5
100
AcDbSymbolTableRecord
100
AcDbLinetypeTableRecord
  2
DOTTED
 70
0
  3
Dotted .  .  .  .
 72
65
 73
2
 40
0.2
 49
0.0
 74
0
 49
-0.2
 74
0
  0
ENDTAB
  0
TABLE
  2
LAYER
  5
2
330
0
100
AcDbSymbolTable
 70
4
  0
LAYER
  5
10
330
2
100
AcDbSymbolTableRecord
100
AcDbLayerTableRecord
  2
0
 70
0
 62
7
  6
CONTINUOUS
370
-3
390
F
347
2C
348
0
  0
LAYER
  5
27
330
2
100
AcDbSymbolTableRecord
100
AcDbLayerTableRecord
  2
BLACK
 70
0
 62
7
  6
CONTINUOUS
370
-3
390
F
347
2C
348
0
  0
LAYER
  5
2D
330
2
100
AcDbSymbolTableRecord
100
AcDbLayerTableRecord
  2
Defpoints
 70
0
 62
7
  6
CONTINUOUS
290
0
370
-3
390
F
347
2C
348
0
  0
LAYER
  5
2DA
330
2
100
AcDbSymbolTableRecord
100
AcDbLayerTableRecord
  2
Edge.Cuts
 70
0
 62
53
  6
CONTINUOUS
370
-3
390
7E
347
86
  0
ENDTAB
  0
TABLE
  2
STYLE
  5
3
330
0
100
AcDbSymbolTable
 70
5
  0
STYLE
  5
11
330
3
100
AcDbSymbolTableRecord
100
AcDbTextStyleTableRecord
  2
Standard
 70
0
 40
0.0
 41
1.0
 50
0.0
 71
0
 42
2.5
  3
txt
  4

  0
STYLE
  5
2E
330
3
100
AcDbSymbolTableRecord
100
AcDbTextStyleTableRecord
  2
KICAD
 70
0
 40
0.0
 41
1.0
 50
0.0
 71
0
 42
1.0
  3
isocp.shx
  4

  0
STYLE
  5
2F
330
3
100
AcDbSymbolTableRecord
100
AcDbTextStyleTableRecord
  2
KICADB
 70
0
 40
0.0
 41
1.0
 50
0.0
 71
0
 42
1.0
  3
isocp.shx
  4

  0
STYLE
  5
30
330
3
100
AcDbSymbolTableRecord
100
AcDbTextStyleTableRecord
  2
KICADI
 70
0
 40
0.0
 41
1.0
 50
15.0
 71
0
 42
1.0
  3
isocp.shx
  4

  0
STYLE
  5
31
330
3
100
AcDbSymbolTableRecord
100
AcDbTextStyleTableRecord
  2
KICADBI
 70
0
 40
0.0
 41
1.0
 50
15.0
 71
0
 42
1.0
  3
isocp.shx
  4

  0
ENDTAB
  0
TABLE
  2
VIEW
  5
6
330
0
100
AcDbSymbolTable
 70
0
  0
ENDTAB
  0
TABLE
  2
UCS
  5
7
330
0
100
AcDbSymbolTable
 70
0
  0
ENDTAB
  0
TABLE
  2
APPID
  5
9
330
0
100
AcDbSymbolTable
 70
3
  0
APPID
  5
12
330
9
100
AcDbSymbolTableRecord
100
AcDbRegAppTableRecord
  2
ACAD
 70
0
  0
APPID
  5
34
330
9
100
AcDbSymbolTableRecord
100
AcDbRegAppTableRecord
  2
HATCHBACKGROUNDCOLOR
 70
0
  0
APPID
  5
35
330
9
100
AcDbSymbolTableRecord
100
AcDbRegAppTableRecord
  2
EZDXF
 70
0
  0
ENDTAB
  0
TABLE
  2
DIMSTYLE
  5
A
330
0
100
AcDbSymbolTable
 70
1
100
AcDbDimStyleTable
  0
DIMSTYLE
105
36
330
A
100
AcDbSymbolTableRecord
100
AcDbDimStyleTableRecord
  2
Standard
 70
0
 40
1.0
 41
2.5
 42
0.625
 43
3.75
 44
1.25
 45
0.0
 46
0.0
 47
0.0
 48
0.0
 49
2.5
140
2.5
141
2.5
142
0.0
143
0.03937007874
144
1.0
145
0.0
146
1.0
147
0.625
148
0.0
 69
0
 70
0
 71
0
 72
0
 73
0
 74
0
 75
0
 76
0
 77
1
 78
8
 79
3
170
0
171
3
172
1
173
0
174
0
175
0
176
0
177
0
178
0
179
2
271
2
272
2
273
2
274
3
275
0
276
0
277
2
278
44
279
0
280
0
281
0
282
0
283
0
284
8
285
0
286
0
288
0
289
3
290
0
340
11
371
-2
372
-2
  0
ENDTAB
  0
TABLE
  2
BLOCK_RECORD
  5
1
330
0
100
AcDbSymbolTable
 70
2
  0
BLOCK_RECORD
  5
1D
330
1
100
AcDbSymbolTableRecord
100
AcDbBlockTableRecord
  2
*Model_Space
340
1E
 70
0
280
1
281
0
  0
BLOCK_RECORD
  5
1B
330
1
100
AcDbSymbolTableRecord
100
AcDbBlockTableRecord
  2
*Paper_Space
340
1C
 70
0
280
1
281
0
  0
ENDTAB
  0
ENDSEC
  0
SECTION
  2
BLOCKS
  0
BLOCK
  5
37
330
1D
100
AcDbEntity
  8
0
100
AcDbBlockBegin
  2
*Model_Space
 70
0
 10
0.0
 20
0.0
 30
0.0
  3
*Model_Space
  1

1001
EZDXF
1000
WRITTEN_BY_EZDXF
1000
1.4.3 @ 2026-01-09T20:04:01.713092+00:00
  0
ENDBLK
  5
38
330
1D
100
AcDbEntity
  8
0
100
AcDbBlockEnd
  0
BLOCK
  5
39
330
1B
100
AcDbEntity
 67
1
  8
0
100
AcDbBlockBegin
  2
*Paper_Space
 70
0
 10
0.0
 20
0.0
 30
0.0
  3
*Paper_Space
  1

  0
ENDBLK
  5
3A
330
1B
100
AcDbEntity
 67
1
  8
0
100
AcDbBlockEnd
  0
ENDSEC
  0
SECTION
  2
ENTITIES
  0
LINE
  5
3B
330
1D
100
AcDbEntity
  8
BLACK
  6
Continuous
100
AcDbLine
 10
64.449987
 20
6.499985
 30
0.0
 11
64.45
 21
6.499985
 31
0.0
  0
LINE
  5
3C
330
1D
100
AcDbEntity
  8
BLACK
  6
Continuous
100
AcDbLine
 10
59.687487
 20
-31.600015
 30
0.0
 11
59.6875
 21
-31.600015
 31
0.0
  0
LINE
  5
3D
330
1D
100
AcDbEntity
  8
BLACK
  6
Continuous
100
AcDbLine
 10
107.312487
 20
-50.650015
 30
0.0
 11
107.3125
 21
-50.650015
 31
0.0
  0
LINE
  5
3E
330
1D
100
AcDbEntity
  8
BLACK
  6
Continuous
100
AcDbLine
 10
112.074987
 20
-12.550015
 30
0.0
 11
112.075
 21
-12.550015
 31
0.0
  0
LINE
  5
3F
330
1D
100
AcDbEntity
  8
BLACK
  6
Continuous
100
AcDbLine
 10
167.77508
 20
-89.374926
 30
0.0
 11
167.775
 21
-89.374926
 31
0.0
  0
LINE
  5
40
330
1D
100
AcDbEntity
  8
BLACK
  6
Continuous
100
AcDbLine
 10
256.67508
 20
-89.374926
 30
0.0
 11
256.675
 21
-89.374926
 31
0.0
  0
LINE
  5
41
330
1D
100
AcDbEntity
  8
BLACK
  6
Continuous
100
AcDbLine
 10
187.825
 20
11.925074
 30
0.0
 11
187.82508
 21
11.925074
 31
0.0
  0
LINE
  5
42
330
1D
100
AcDbEntity
  8
BLACK
  6
Continuous
100
AcDbLine
 10
98.925
 20
11.925074
 30
0.0
 11
98.92508
 21
11.925074
 31
0.0
  0
LINE
  5
43
330
1D
100
AcDbEntity
  8
BLACK
  6
Continuous
100
AcDbLine
 10
10.025
 20
11.925074
 30
0.0
 11
10.02508
 21
11.925074
 31
0.0
  0
LINE
  5
44
330
1D
100
AcDbEntity
  8
BLACK
  6
Continuous
100
AcDbLine
 10
-6.025028
 20
17.175057
 30
0.0
 11
-6.025028
 21
17.175069
 31
0.0
  0
LINE
  5
45
330
1D
100
AcDbEntity
  8
BLACK
  6
Continuous
100
AcDbLine
 10
154.937487
 20
-31.600015
 30
0.0
 11
154.9375
 21
-31.600015
 31
0.0
  0
LINE
  5
46
330
1D
100
AcDbEntity
  8
BLACK
  6
Continuous
100
AcDbLine
 10
202.562487
 20
-50.650015
 30
0.0
 11
202.5625
 21
-50.650015
 31
0.0
  0
LINE
  5
47
330
1D
100
AcDbEntity
  8
BLACK
  6
Continuous
100
AcDbLine
 10
231.137487
 20
-31.600015
 30
0.0
 11
231.1375
 21
-31.600015
 31
0.0
  0
LINE
  5
48
330
1D
100
AcDbEntity
  8
BLACK
  6
Continuous
100
AcDbLine
 10
73.974987
 20
-12.550015
 30
0.0
 11
73.975
 21
-12.550015
 31
0.0
  0
LINE
  5
49
330
1D
100
AcDbEntity
  8
BLACK
  6
Continuous
100
AcDbLine
 10
78.737487
 20
-31.600015
 30
0.0
 11
78.7375
 21
-31.600015
 31
0.0
  0
LINE
  5
4A
330
1D
100
AcDbEntity
  8
BLACK
  6
Continuous
100
AcDbLine
 10
12.062487
 20
-12.550015
 30
0.0
 11
12.0625
 21
-12.550015
 31
0.0
  0
LINE
  5
4B
330
1D
100
AcDbEntity
  8
BLACK
  6
Continuous
100
AcDbLine
 10
226.374987
 20
-12.550015
 30
0.0
 11
226.375
 21
-12.550015
 31
0.0
  0
LINE
  5
4C
330
1D
100
AcDbEntity
  8
BLACK
  6
Continuous
100
AcDbLine
 10
188.274987
 20
-12.550015
 30
0.0
 11
188.275
 21
-12.550015
 31
0.0
  0
LINE
  5
4D
330
1D
100
AcDbEntity
  8
BLACK
  6
Continuous
100
AcDbLine
 10
121.599987
 20
6.499985
 30
0.0
 11
121.6
 21
6.499985
 31
0.0
  0
LINE
  5
4E
330
1D
100
AcDbEntity
  8
BLACK
  6
Continuous
100
AcDbLine
 10
93.024987
 20
-12.550015
 30
0.0
 11
93.02499999999999
 21
-12.550015
 31
0.0
  0
LINE
  5
4F
330
1D
100
AcDbEntity
  8
BLACK
  6
Continuous
100
AcDbLine
 10
183.512487
 20
-50.650015
 30
0.0
 11
183.5125
 21
-50.650015
 31
0.0
  0
LINE
  5
50
330
1D
100
AcDbEntity
  8
BLACK
  6
Continuous
100
AcDbLine
 10
221.612487
 20
-50.650015
 30
0.0
 11
221.6125
 21
-50.650015
 31
0.0
  0
LINE
  5
51
330
1D
100
AcDbEntity
  8
BLACK
  6
Continuous
100
AcDbLine
 10
216.849987
 20
6.499985
 30
0.0
 11
216.85
 21
6.499985
 31
0.0
  0
LINE
  5
52
330
1D
100
AcDbEntity
  8
BLACK
  6
Continuous
100
AcDbLine
 10
102.549987
 20
6.499985
 30
0.0
 11
102.55
 21
6.499985
 31
0.0
  0
LINE
  5
53
330
1D
100
AcDbEntity
  8
BLACK
  6
Continuous
100
AcDbLine
 10
193.037487
 20
-31.600015
 30
0.0
 11
193.0375
 21
-31.600015
 31
0.0
  0
LINE
  5
54
330
1D
100
AcDbEntity
  8
BLACK
  6
Continuous
100
AcDbLine
 10
69.212487
 20
-50.650015
 30
0.0
 11
69.21249999999999
 21
-50.650015
 31
0.0
  0
LINE
  5
55
330
1D
100
AcDbEntity
  8
BLACK
  6
Continuous
100
AcDbLine
 10
245.424987
 20
-12.550015
 30
0.0
 11
245.425
 21
-12.550015
 31
0.0
  0
LINE
  5
56
330
1D
100
AcDbEntity
  8
BLACK
  6
Continuous
100
AcDbLine
 10
97.787487
 20
-31.600015
 30
0.0
 11
97.7875
 21
-31.600015
 31
0.0
  0
LINE
  5
57
330
1D
100
AcDbEntity
  8
BLACK
  6
Continuous
100
AcDbLine
 10
131.124987
 20
-12.550015
 30
0.0
 11
131.125
 21
-12.550015
 31
0.0
  0
LINE
  5
58
330
1D
100
AcDbEntity
  8
BLACK
  6
Continuous
100
AcDbLine
 10
235.899987
 20
6.499985
 30
0.0
 11
235.9
 21
6.499985
 31
0.0
  0
LINE
  5
59
330
1D
100
AcDbEntity
  8
BLACK
  6
Continuous
100
AcDbLine
 10
135.887487
 20
-31.600015
 30
0.0
 11
135.8875
 21
-31.600015
 31
0.0
  0
LINE
  5
5A
330
1D
100
AcDbEntity
  8
BLACK
  6
Continuous
100
AcDbLine
 10
126.362487
 20
-50.650015
 30
0.0
 11
126.3625
 21
-50.650015
 31
0.0
  0
LINE
  5
5B
330
1D
100
AcDbEntity
  8
BLACK
  6
Continuous
100
AcDbLine
 10
35.874987
 20
-12.550015
 30
0.0
 11
35.875
 21
-12.550015
 31
0.0
  0
LINE
  5
5C
330
1D
100
AcDbEntity
  8
BLACK
  6
Continuous
100
AcDbLine
 10
197.799987
 20
6.499985
 30
0.0
 11
197.8
 21
6.499985
 31
0.0
  0
LINE
  5
5D
330
1D
100
AcDbEntity
  8
BLACK
  6
Continuous
100
AcDbLine
 10
150.174987
 20
-12.550015
 30
0.0
 11
150.175
 21
-12.550015
 31
0.0
  0
LINE
  5
5E
330
1D
100
AcDbEntity
  8
BLACK
  6
Continuous
100
AcDbLine
 10
173.987487
 20
-31.600015
 30
0.0
 11
173.9875
 21
-31.600015
 31
0.0
  0
LINE
  5
5F
330
1D
100
AcDbEntity
  8
BLACK
  6
Continuous
100
AcDbLine
 10
40.637487
 20
-31.600015
 30
0.0
 11
40.6375
 21
-31.600015
 31
0.0
  0
LINE
  5
60
330
1D
100
AcDbEntity
  8
BLACK
  6
Continuous
100
AcDbLine
 10
140.649987
 20
6.499985
 30
0.0
 11
140.65
 21
6.499985
 31
0.0
  0
LINE
  5
61
330
1D
100
AcDbEntity
  8
BLACK
  6
Continuous
100
AcDbLine
 10
169.224987
 20
-12.550015
 30
0.0
 11
169.225
 21
-12.550015
 31
0.0
  0
LINE
  5
62
330
1D
100
AcDbEntity
  8
BLACK
  6
Continuous
100
AcDbLine
 10
50.162487
 20
-50.650015
 30
0.0
 11
50.16249999999999
 21
-50.650015
 31
0.0
  0
LINE
  5
63
330
1D
100
AcDbEntity
  8
BLACK
  6
Continuous
100
AcDbLine
 10
83.49998699999999
 20
6.499985
 30
0.0
 11
83.5
 21
6.499985
 31
0.0
  0
LINE
  5
64
330
1D
100
AcDbEntity
  8
BLACK
  6
Continuous
100
AcDbLine
 10
159.699987
 20
6.499985
 30
0.0
 11
159.7
 21
6.499985
 31
0.0
  0
LINE
  5
65
330
1D
100
AcDbEntity
  8
BLACK
  6
Continuous
100
AcDbLine
 10
26.349987
 20
6.499985
 30
0.0
 11
26.35
 21
6.499985
 31
0.0
  0
LINE
  5
66
330
1D
100
AcDbEntity
  8
BLACK
  6
Continuous
100
AcDbLine
 10
178.749987
 20
6.499985
 30
0.0
 11
178.75
 21
6.499985
 31
0.0
  0
LINE
  5
67
330
1D
100
AcDbEntity
  8
BLACK
  6
Continuous
100
AcDbLine
 10
54.92498699999999
 20
-12.550015
 30
0.0
 11
54.925
 21
-12.550015
 31
0.0
  0
LINE
  5
68
330
1D
100
AcDbEntity
  8
BLACK
  6
Continuous
100
AcDbLine
 10
207.324987
 20
-12.550015
 30
0.0
 11
207.325
 21
-12.550015
 31
0.0
  0
LINE
  5
69
330
1D
100
AcDbEntity
  8
BLACK
  6
Continuous
100
AcDbLine
 10
145.412487
 20
-50.650015
 30
0.0
 11
145.4125
 21
-50.650015
 31
0.0
  0
LINE
  5
6A
330
1D
100
AcDbEntity
  8
BLACK
  6
Continuous
100
AcDbLine
 10
212.087487
 20
-31.600015
 30
0.0
 11
212.0875
 21
-31.600015
 31
0.0
  0
LINE
  5
6B
330
1D
100
AcDbEntity
  8
BLACK
  6
Continuous
100
AcDbLine
 10
88.262487
 20
-50.650015
 30
0.0
 11
88.2625
 21
-50.650015
 31
0.0
  0
LINE
  5
6C
330
1D
100
AcDbEntity
  8
BLACK
  6
Continuous
100
AcDbLine
 10
164.462487
 20
-50.650015
 30
0.0
 11
164.4625
 21
-50.650015
 31
0.0
  0
LINE
  5
6D
330
1D
100
AcDbEntity
  8
BLACK
  6
Continuous
100
AcDbLine
 10
7.299987
 20
6.499985
 30
0.0
 11
7.3
 21
6.499985
 31
0.0
  0
LINE
  5
6E
330
1D
100
AcDbEntity
  8
BLACK
  6
Continuous
100
AcDbLine
 10
116.837487
 20
-31.600015
 30
0.0
 11
116.8375
 21
-31.600015
 31
0.0
  0
LINE
  5
6F
330
1D
100
AcDbEntity
  8
BLACK
  6
Continuous
100
AcDbLine
 10
45.399987
 20
6.499985
 30
0.0
 11
45.4
 21
6.499985
 31
0.0
  0
CIRCLE
  5
70
330
1D
100
AcDbEntity
  8
BLACK
100
AcDbCircle
 10
42.8625
 20
-38.1
 30
0.0
 40
1.0
  0
CIRCLE
  5
71
330
1D
100
AcDbEntity
  8
BLACK
100
AcDbCircle
 10
90.4875
 20
-57.15
 30
0.0
 40
1.0
  0
CIRCLE
  5
72
330
1D
100
AcDbEntity
  8
BLACK
100
AcDbCircle
 10
-7.14375
 20
-38.1
 30
0.0
 40
1.0
  0
CIRCLE
  5
73
330
1D
100
AcDbEntity
  8
BLACK
100
AcDbCircle
 10
28.575
 20
0.0
 30
0.0
 40
1.0
  0
CIRCLE
  5
74
330
1D
100
AcDbEntity
  8
BLACK
100
AcDbCircle
 10
185.7375
 20
-57.15
 30
0.0
 40
1.0
  0
CIRCLE
  5
75
330
1D
100
AcDbEntity
  8
BLACK
100
AcDbCircle
 10
171.45
 20
-19.05
 30
0.0
 40
1.0
  0
CIRCLE
  5
76
330
1D
100
AcDbEntity
  8
BLACK
100
AcDbCircle
 10
142.875
 20
0.0
 30
0.0
 40
1.0
  0
CIRCLE
  5
77
330
1D
100
AcDbEntity
  8
BLACK
100
AcDbCircle
 10
66.675
 20
0.0
 30
0.0
 40
1.0
  0
CIRCLE
  5
78
330
1D
100
AcDbEntity
  8
BLACK
100
AcDbCircle
 10
95.25
 20
-19.05
 30
0.0
 40
1.0
  0
LINE
  5
79
330
1D
100
AcDbEntity
  8
BLACK
  6
Continuous
100
AcDbLine
 10
140.3375
 20
-31.600015
 30
0.0
 11
140.3375
 21
-44.603479
 31
0.0
  0
ARC
  5
7A
330
1D
100
AcDbEntity
  8
BLACK
100
AcDbCircle
 10
140.837472
 20
-44.600015
 30
0.0
 40
0.499985
100
AcDbArc
 50
180.39696104
 51
270.0
  0
LINE
  5
7B
330
1D
100
AcDbEntity
  8
BLACK
  6
Continuous
100
AcDbLine
 10
140.837472
 20
-45.1
 30
0.0
 11
154.443952
 21
-45.1
 31
0.0
  0
ARC
  5
7C
330
1D
100
AcDbEntity
  8
BLACK
100
AcDbCircle
 10
154.437472
 20
-44.600015
 30
0.0
 40
0.500028
100
AcDbArc
 50
270.74253401
 51
0.0
  0
LINE
  5
7D
330
1D
100
AcDbEntity
  8
BLACK
  6
Continuous
100
AcDbLine
 10
154.9375
 20
-44.600015
 30
0.0
 11
154.9375
 21
-31.600015
 31
0.0
  0
ARC
  5
7E
330
1D
100
AcDbEntity
  8
BLACK
100
AcDbCircle
 10
154.437472
 20
-31.600015
 30
0.0
 40
0.500015
100
AcDbArc
 50
0.0
 51
90.0
  0
LINE
  5
7F
330
1D
100
AcDbEntity
  8
BLACK
  6
Continuous
100
AcDbLine
 10
154.437472
 20
-31.1
 30
0.0
 11
140.8375
 21
-31.1
 31
0.0
  0
ARC
  5
80
330
1D
100
AcDbEntity
  8
BLACK
100
AcDbCircle
 10
140.837472
 20
-31.600015
 30
0.0
 40
0.499972
100
AcDbArc
 50
89.99679153000001
 51
180.0
  0
LINE
  5
81
330
1D
100
AcDbEntity
  8
BLACK
  6
Continuous
100
AcDbLine
 10
187.9625
 20
-50.650015
 30
0.0
 11
187.9625
 21
-63.653479
 31
0.0
  0
ARC
  5
82
330
1D
100
AcDbEntity
  8
BLACK
100
AcDbCircle
 10
188.462472
 20
-63.650015
 30
0.0
 40
0.499985
100
AcDbArc
 50
180.39696104
 51
270.0
  0
LINE
  5
83
330
1D
100
AcDbEntity
  8
BLACK
  6
Continuous
100
AcDbLine
 10
188.462472
 20
-64.14999999999999
 30
0.0
 11
202.068952
 21
-64.14999999999999
 31
0.0
  0
ARC
  5
84
330
1D
100
AcDbEntity
  8
BLACK
100
AcDbCircle
 10
202.062472
 20
-63.650015
 30
0.0
 40
0.500028
100
AcDbArc
 50
270.74253401
 51
0.0
  0
LINE
  5
85
330
1D
100
AcDbEntity
  8
BLACK
  6
Continuous
100
AcDbLine
 10
202.5625
 20
-63.650015
 30
0.0
 11
202.5625
 21
-50.650015
 31
0.0
  0
ARC
  5
86
330
1D
100
AcDbEntity
  8
BLACK
100
AcDbCircle
 10
202.062472
 20
-50.650015
 30
0.0
 40
0.500015
100
AcDbArc
 50
0.0
 51
90.0
  0
LINE
  5
87
330
1D
100
AcDbEntity
  8
BLACK
  6
Continuous
100
AcDbLine
 10
202.062472
 20
-50.15
 30
0.0
 11
188.4625
 21
-50.15
 31
0.0
  0
ARC
  5
88
330
1D
100
AcDbEntity
  8
BLACK
100
AcDbCircle
 10
188.462472
 20
-50.650015
 30
0.0
 40
0.499972
100
AcDbArc
 50
89.99679153000001
 51
180.0
  0
LINE
  5
89
330
1D
100
AcDbEntity
  8
BLACK
  6
Continuous
100
AcDbLine
 10
216.5375
 20
-31.600015
 30
0.0
 11
216.5375
 21
-44.603479
 31
0.0
  0
ARC
  5
8A
330
1D
100
AcDbEntity
  8
BLACK
100
AcDbCircle
 10
217.037472
 20
-44.600015
 30
0.0
 40
0.499985
100
AcDbArc
 50
180.39696104
 51
270.0
  0
LINE
  5
8B
330
1D
100
AcDbEntity
  8
BLACK
  6
Continuous
100
AcDbLine
 10
217.037472
 20
-45.1
 30
0.0
 11
230.643952
 21
-45.1
 31
0.0
  0
ARC
  5
8C
330
1D
100
AcDbEntity
  8
BLACK
100
AcDbCircle
 10
230.637472
 20
-44.600015
 30
0.0
 40
0.500028
100
AcDbArc
 50
270.74253401
 51
0.0
  0
LINE
  5
8D
330
1D
100
AcDbEntity
  8
BLACK
  6
Continuous
100
AcDbLine
 10
231.1375
 20
-44.600015
 30
0.0
 11
231.1375
 21
-31.600015
 31
0.0
  0
ARC
  5
8E
330
1D
100
AcDbEntity
  8
BLACK
100
AcDbCircle
 10
230.637472
 20
-31.600015
 30
0.0
 40
0.500015
100
AcDbArc
 50
0.0
 51
90.0
  0
LINE
  5
8F
330
1D
100
AcDbEntity
  8
BLACK
  6
Continuous
100
AcDbLine
 10
230.637472
 20
-31.1
 30
0.0
 11
217.0375
 21
-31.1
 31
0.0
  0
ARC
  5
90
330
1D
100
AcDbEntity
  8
BLACK
100
AcDbCircle
 10
217.037472
 20
-31.600015
 30
0.0
 40
0.499972
100
AcDbArc
 50
89.99679153000001
 51
180.0
  0
LINE
  5
91
330
1D
100
AcDbEntity
  8
BLACK
  6
Continuous
100
AcDbLine
 10
59.375
 20
-12.550015
 30
0.0
 11
59.375
 21
-25.553479
 31
0.0
  0
ARC
  5
92
330
1D
100
AcDbEntity
  8
BLACK
100
AcDbCircle
 10
59.874972
 20
-25.550015
 30
0.0
 40
0.499985
100
AcDbArc
 50
180.39696104
 51
270.0
  0
LINE
  5
93
330
1D
100
AcDbEntity
  8
BLACK
  6
Continuous
100
AcDbLine
 10
59.874972
 20
-26.05
 30
0.0
 11
73.48145199999999
 21
-26.05
 31
0.0
  0
ARC
  5
94
330
1D
100
AcDbEntity
  8
BLACK
100
AcDbCircle
 10
73.474972
 20
-25.550015
 30
0.0
 40
0.500028
100
AcDbArc
 50
270.74253401
 51
0.0
  0
LINE
  5
95
330
1D
100
AcDbEntity
  8
BLACK
  6
Continuous
100
AcDbLine
 10
73.975
 20
-25.550015
 30
0.0
 11
73.975
 21
-12.550015
 31
0.0
  0
ARC
  5
96
330
1D
100
AcDbEntity
  8
BLACK
100
AcDbCircle
 10
73.474972
 20
-12.550015
 30
0.0
 40
0.500015
100
AcDbArc
 50
0.0
 51
90.0
  0
LINE
  5
97
330
1D
100
AcDbEntity
  8
BLACK
  6
Continuous
100
AcDbLine
 10
73.474972
 20
-12.05
 30
0.0
 11
59.875
 21
-12.05
 31
0.0
  0
ARC
  5
98
330
1D
100
AcDbEntity
  8
BLACK
100
AcDbCircle
 10
59.874972
 20
-12.550015
 30
0.0
 40
0.499972
100
AcDbArc
 50
89.99679153000001
 51
180.0
  0
LINE
  5
99
330
1D
100
AcDbEntity
  8
BLACK
  6
Continuous
100
AcDbLine
 10
64.1375
 20
-31.600015
 30
0.0
 11
64.1375
 21
-44.603479
 31
0.0
  0
ARC
  5
9A
330
1D
100
AcDbEntity
  8
BLACK
100
AcDbCircle
 10
64.637472
 20
-44.600015
 30
0.0
 40
0.499985
100
AcDbArc
 50
180.39696104
 51
270.0
  0
LINE
  5
9B
330
1D
100
AcDbEntity
  8
BLACK
  6
Continuous
100
AcDbLine
 10
64.637472
 20
-45.1
 30
0.0
 11
78.243952
 21
-45.1
 31
0.0
  0
ARC
  5
9C
330
1D
100
AcDbEntity
  8
BLACK
100
AcDbCircle
 10
78.237472
 20
-44.600015
 30
0.0
 40
0.500028
100
AcDbArc
 50
270.74253401
 51
0.0
  0
LINE
  5
9D
330
1D
100
AcDbEntity
  8
BLACK
  6
Continuous
100
AcDbLine
 10
78.7375
 20
-44.600015
 30
0.0
 11
78.7375
 21
-31.600015
 31
0.0
  0
ARC
  5
9E
330
1D
100
AcDbEntity
  8
BLACK
100
AcDbCircle
 10
78.237472
 20
-31.600015
 30
0.0
 40
0.500015
100
AcDbArc
 50
0.0
 51
90.0
  0
LINE
  5
9F
330
1D
100
AcDbEntity
  8
BLACK
  6
Continuous
100
AcDbLine
 10
78.237472
 20
-31.1
 30
0.0
 11
64.6375
 21
-31.1
 31
0.0
  0
ARC
  5
A0
330
1D
100
AcDbEntity
  8
BLACK
100
AcDbCircle
 10
64.637472
 20
-31.600015
 30
0.0
 40
0.499972
100
AcDbArc
 50
89.99679153000001
 51
180.0
  0
LINE
  5
A1
330
1D
100
AcDbEntity
  8
BLACK
  6
Continuous
100
AcDbLine
 10
-2.5375
 20
-12.550015
 30
0.0
 11
-2.5375
 21
-25.553479
 31
0.0
  0
ARC
  5
A2
330
1D
100
AcDbEntity
  8
BLACK
100
AcDbCircle
 10
-2.037528
 20
-25.550015
 30
0.0
 40
0.499985
100
AcDbArc
 50
180.39696104
 51
270.0
  0
LINE
  5
A3
330
1D
100
AcDbEntity
  8
BLACK
  6
Continuous
100
AcDbLine
 10
-2.037528
 20
-26.05
 30
0.0
 11
11.568952
 21
-26.05
 31
0.0
  0
ARC
  5
A4
330
1D
100
AcDbEntity
  8
BLACK
100
AcDbCircle
 10
11.562472
 20
-25.550015
 30
0.0
 40
0.500028
100
AcDbArc
 50
270.74253401
 51
0.0
  0
LINE
  5
A5
330
1D
100
AcDbEntity
  8
BLACK
  6
Continuous
100
AcDbLine
 10
12.0625
 20
-25.550015
 30
0.0
 11
12.0625
 21
-12.550015
 31
0.0
  0
ARC
  5
A6
330
1D
100
AcDbEntity
  8
BLACK
100
AcDbCircle
 10
11.562472
 20
-12.550015
 30
0.0
 40
0.500015
100
AcDbArc
 50
0.0
 51
90.0
  0
LINE
  5
A7
330
1D
100
AcDbEntity
  8
BLACK
  6
Continuous
100
AcDbLine
 10
11.562472
 20
-12.05
 30
0.0
 11
-2.037499
 21
-12.05
 31
0.0
  0
ARC
  5
A8
330
1D
100
AcDbEntity
  8
BLACK
100
AcDbCircle
 10
-2.037528
 20
-12.550015
 30
0.0
 40
0.499972
100
AcDbArc
 50
89.99667694
 51
180.0
  0
LINE
  5
A9
330
1D
100
AcDbEntity
  8
BLACK
  6
Continuous
100
AcDbLine
 10
211.775
 20
-12.550015
 30
0.0
 11
211.775
 21
-25.553479
 31
0.0
  0
ARC
  5
AA
330
1D
100
AcDbEntity
  8
BLACK
100
AcDbCircle
 10
212.274972
 20
-25.550015
 30
0.0
 40
0.499985
100
AcDbArc
 50
180.39696104
 51
270.0
  0
LINE
  5
AB
330
1D
100
AcDbEntity
  8
BLACK
  6
Continuous
100
AcDbLine
 10
212.274972
 20
-26.05
 30
0.0
 11
225.881452
 21
-26.05
 31
0.0
  0
ARC
  5
AC
330
1D
100
AcDbEntity
  8
BLACK
100
AcDbCircle
 10
225.874972
 20
-25.550015
 30
0.0
 40
0.500028
100
AcDbArc
 50
270.74253401
 51
0.0
  0
LINE
  5
AD
330
1D
100
AcDbEntity
  8
BLACK
  6
Continuous
100
AcDbLine
 10
226.375
 20
-25.550015
 30
0.0
 11
226.375
 21
-12.550015
 31
0.0
  0
ARC
  5
AE
330
1D
100
AcDbEntity
  8
BLACK
100
AcDbCircle
 10
225.874972
 20
-12.550015
 30
0.0
 40
0.500015
100
AcDbArc
 50
0.0
 51
90.0
  0
LINE
  5
AF
330
1D
100
AcDbEntity
  8
BLACK
  6
Continuous
100
AcDbLine
 10
225.874972
 20
-12.05
 30
0.0
 11
212.275
 21
-12.05
 31
0.0
  0
ARC
  5
B0
330
1D
100
AcDbEntity
  8
BLACK
100
AcDbCircle
 10
212.274972
 20
-12.550015
 30
0.0
 40
0.499972
100
AcDbArc
 50
89.99679153000001
 51
180.0
  0
LINE
  5
B1
330
1D
100
AcDbEntity
  8
BLACK
  6
Continuous
100
AcDbLine
 10
173.675
 20
-12.550015
 30
0.0
 11
173.675
 21
-25.553479
 31
0.0
  0
ARC
  5
B2
330
1D
100
AcDbEntity
  8
BLACK
100
AcDbCircle
 10
174.174972
 20
-25.550015
 30
0.0
 40
0.499985
100
AcDbArc
 50
180.39696104
 51
270.0
  0
LINE
  5
B3
330
1D
100
AcDbEntity
  8
BLACK
  6
Continuous
100
AcDbLine
 10
174.174972
 20
-26.05
 30
0.0
 11
187.781452
 21
-26.05
 31
0.0
  0
ARC
  5
B4
330
1D
100
AcDbEntity
  8
BLACK
100
AcDbCircle
 10
187.774972
 20
-25.550015
 30
0.0
 40
0.500028
100
AcDbArc
 50
270.74253401
 51
0.0
  0
LINE
  5
B5
330
1D
100
AcDbEntity
  8
BLACK
  6
Continuous
100
AcDbLine
 10
188.275
 20
-25.550015
 30
0.0
 11
188.275
 21
-12.550015
 31
0.0
  0
ARC
  5
B6
330
1D
100
AcDbEntity
  8
BLACK
100
AcDbCircle
 10
187.774972
 20
-12.550015
 30
0.0
 40
0.500015
100
AcDbArc
 50
0.0
 51
90.0
  0
LINE
  5
B7
330
1D
100
AcDbEntity
  8
BLACK
  6
Continuous
100
AcDbLine
 10
187.774972
 20
-12.05
 30
0.0
 11
174.175
 21
-12.05
 31
0.0
  0
ARC
  5
B8
330
1D
100
AcDbEntity
  8
BLACK
100
AcDbCircle
 10
174.174972
 20
-12.550015
 30
0.0
 40
0.499972
100
AcDbArc
 50
89.99679153000001
 51
180.0
  0
LINE
  5
B9
330
1D
100
AcDbEntity
  8
BLACK
  6
Continuous
100
AcDbLine
 10
107.0
 20
6.499985
 30
0.0
 11
107.0
 21
-6.503479
 31
0.0
  0
ARC
  5
BA
330
1D
100
AcDbEntity
  8
BLACK
100
AcDbCircle
 10
107.499972
 20
-6.500014999999999
 30
0.0
 40
0.499985
100
AcDbArc
 50
180.39696104
 51
270.0
  0
LINE
  5
BB
330
1D
100
AcDbEntity
  8
BLACK
  6
Continuous
100
AcDbLine
 10
107.499972
 20
-7.0
 30
0.0
 11
121.106452
 21
-7.0
 31
0.0
  0
ARC
  5
BC
330
1D
100
AcDbEntity
  8
BLACK
100
AcDbCircle
 10
121.099972
 20
-6.500014999999999
 30
0.0
 40
0.500028
100
AcDbArc
 50
270.74253401
 51
0.0
  0
LINE
  5
BD
330
1D
100
AcDbEntity
  8
BLACK
  6
Continuous
100
AcDbLine
 10
121.6
 20
-6.500014999999999
 30
0.0
 11
121.6
 21
6.499985
 31
0.0
  0
ARC
  5
BE
330
1D
100
AcDbEntity
  8
BLACK
100
AcDbCircle
 10
121.099972
 20
6.499985
 30
0.0
 40
0.500015
100
AcDbArc
 50
0.0
 51
90.0
  0
LINE
  5
BF
330
1D
100
AcDbEntity
  8
BLACK
  6
Continuous
100
AcDbLine
 10
121.099972
 20
7.0
 30
0.0
 11
107.5
 21
7.0
 31
0.0
  0
ARC
  5
C0
330
1D
100
AcDbEntity
  8
BLACK
100
AcDbCircle
 10
107.499972
 20
6.499985
 30
0.0
 40
0.499972
100
AcDbArc
 50
89.99679153000001
 51
180.0
  0
LINE
  5
C1
330
1D
100
AcDbEntity
  8
BLACK
  6
Continuous
100
AcDbLine
 10
78.425
 20
-12.550015
 30
0.0
 11
78.425
 21
-25.553479
 31
0.0
  0
ARC
  5
C2
330
1D
100
AcDbEntity
  8
BLACK
100
AcDbCircle
 10
78.924972
 20
-25.550015
 30
0.0
 40
0.499985
100
AcDbArc
 50
180.39696104
 51
270.0
  0
LINE
  5
C3
330
1D
100
AcDbEntity
  8
BLACK
  6
Continuous
100
AcDbLine
 10
78.924972
 20
-26.05
 30
0.0
 11
92.531452
 21
-26.05
 31
0.0
  0
ARC
  5
C4
330
1D
100
AcDbEntity
  8
BLACK
100
AcDbCircle
 10
92.52497199999999
 20
-25.550015
 30
0.0
 40
0.500028
100
AcDbArc
 50
270.74253401
 51
0.0
  0
LINE
  5
C5
330
1D
100
AcDbEntity
  8
BLACK
  6
Continuous
100
AcDbLine
 10
93.02499999999999
 20
-25.550015
 30
0.0
 11
93.02499999999999
 21
-12.550015
 31
0.0
  0
ARC
  5
C6
330
1D
100
AcDbEntity
  8
BLACK
100
AcDbCircle
 10
92.52497199999999
 20
-12.550015
 30
0.0
 40
0.500015
100
AcDbArc
 50
0.0
 51
90.0
  0
LINE
  5
C7
330
1D
100
AcDbEntity
  8
BLACK
  6
Continuous
100
AcDbLine
 10
92.52497199999999
 20
-12.05
 30
0.0
 11
78.925
 21
-12.05
 31
0.0
  0
ARC
  5
C8
330
1D
100
AcDbEntity
  8
BLACK
100
AcDbCircle
 10
78.924972
 20
-12.550015
 30
0.0
 40
0.499972
100
AcDbArc
 50
89.99679153000001
 51
180.0
  0
LINE
  5
C9
330
1D
100
AcDbEntity
  8
BLACK
  6
Continuous
100
AcDbLine
 10
168.9125
 20
-50.650015
 30
0.0
 11
168.9125
 21
-63.653479
 31
0.0
  0
ARC
  5
CA
330
1D
100
AcDbEntity
  8
BLACK
100
AcDbCircle
 10
169.412472
 20
-63.650015
 30
0.0
 40
0.499985
100
AcDbArc
 50
180.39696104
 51
270.0
  0
LINE
  5
CB
330
1D
100
AcDbEntity
  8
BLACK
  6
Continuous
100
AcDbLine
 10
169.412472
 20
-64.14999999999999
 30
0.0
 11
183.018952
 21
-64.14999999999999
 31
0.0
  0
ARC
  5
CC
330
1D
100
AcDbEntity
  8
BLACK
100
AcDbCircle
 10
183.012472
 20
-63.650015
 30
0.0
 40
0.500028
100
AcDbArc
 50
270.74253401
 51
0.0
  0
LINE
  5
CD
330
1D
100
AcDbEntity
  8
BLACK
  6
Continuous
100
AcDbLine
 10
183.5125
 20
-63.650015
 30
0.0
 11
183.5125
 21
-50.650015
 31
0.0
  0
ARC
  5
CE
330
1D
100
AcDbEntity
  8
BLACK
100
AcDbCircle
 10
183.012472
 20
-50.650015
 30
0.0
 40
0.500015
100
AcDbArc
 50
0.0
 51
90.0
  0
LINE
  5
CF
330
1D
100
AcDbEntity
  8
BLACK
  6
Continuous
100
AcDbLine
 10
183.012472
 20
-50.15
 30
0.0
 11
169.4125
 21
-50.15
 31
0.0
  0
ARC
  5
D0
330
1D
100
AcDbEntity
  8
BLACK
100
AcDbCircle
 10
169.412472
 20
-50.650015
 30
0.0
 40
0.499972
100
AcDbArc
 50
89.99679153000001
 51
180.0
  0
LINE
  5
D1
330
1D
100
AcDbEntity
  8
BLACK
  6
Continuous
100
AcDbLine
 10
207.0125
 20
-50.650015
 30
0.0
 11
207.0125
 21
-63.653479
 31
0.0
  0
ARC
  5
D2
330
1D
100
AcDbEntity
  8
BLACK
100
AcDbCircle
 10
207.512472
 20
-63.650015
 30
0.0
 40
0.499985
100
AcDbArc
 50
180.39696104
 51
270.0
  0
LINE
  5
D3
330
1D
100
AcDbEntity
  8
BLACK
  6
Continuous
100
AcDbLine
 10
207.512472
 20
-64.14999999999999
 30
0.0
 11
221.118952
 21
-64.14999999999999
 31
0.0
  0
ARC
  5
D4
330
1D
100
AcDbEntity
  8
BLACK
100
AcDbCircle
 10
221.112472
 20
-63.650015
 30
0.0
 40
0.500028
100
AcDbArc
 50
270.74253401
 51
0.0
  0
LINE
  5
D5
330
1D
100
AcDbEntity
  8
BLACK
  6
Continuous
100
AcDbLine
 10
221.6125
 20
-63.650015
 30
0.0
 11
221.6125
 21
-50.650015
 31
0.0
  0
ARC
  5
D6
330
1D
100
AcDbEntity
  8
BLACK
100
AcDbCircle
 10
221.112472
 20
-50.650015
 30
0.0
 40
0.500015
100
AcDbArc
 50
0.0
 51
90.0
  0
LINE
  5
D7
330
1D
100
AcDbEntity
  8
BLACK
  6
Continuous
100
AcDbLine
 10
221.112472
 20
-50.15
 30
0.0
 11
207.5125
 21
-50.15
 31
0.0
  0
ARC
  5
D8
330
1D
100
AcDbEntity
  8
BLACK
100
AcDbCircle
 10
207.512472
 20
-50.650015
 30
0.0
 40
0.499972
100
AcDbArc
 50
89.99679153000001
 51
180.0
  0
LINE
  5
D9
330
1D
100
AcDbEntity
  8
BLACK
  6
Continuous
100
AcDbLine
 10
202.25
 20
6.499985
 30
0.0
 11
202.25
 21
-6.503479
 31
0.0
  0
ARC
  5
DA
330
1D
100
AcDbEntity
  8
BLACK
100
AcDbCircle
 10
202.749972
 20
-6.500014999999999
 30
0.0
 40
0.499985
100
AcDbArc
 50
180.39696104
 51
270.0
  0
LINE
  5
DB
330
1D
100
AcDbEntity
  8
BLACK
  6
Continuous
100
AcDbLine
 10
202.749972
 20
-7.0
 30
0.0
 11
216.356452
 21
-7.0
 31
0.0
  0
ARC
  5
DC
330
1D
100
AcDbEntity
  8
BLACK
100
AcDbCircle
 10
216.349972
 20
-6.500014999999999
 30
0.0
 40
0.500028
100
AcDbArc
 50
270.74253401
 51
0.0
  0
LINE
  5
DD
330
1D
100
AcDbEntity
  8
BLACK
  6
Continuous
100
AcDbLine
 10
216.85
 20
-6.500014999999999
 30
0.0
 11
216.85
 21
6.499985
 31
0.0
  0
ARC
  5
DE
330
1D
100
AcDbEntity
  8
BLACK
100
AcDbCircle
 10
216.349972
 20
6.499985
 30
0.0
 40
0.500015
100
AcDbArc
 50
0.0
 51
90.0
  0
LINE
  5
DF
330
1D
100
AcDbEntity
  8
BLACK
  6
Continuous
100
AcDbLine
 10
216.349972
 20
7.0
 30
0.0
 11
202.75
 21
7.0
 31
0.0
  0
ARC
  5
E0
330
1D
100
AcDbEntity
  8
BLACK
100
AcDbCircle
 10
202.749972
 20
6.499985
 30
0.0
 40
0.499972
100
AcDbArc
 50
89.99679153000001
 51
180.0
  0
LINE
  5
E1
330
1D
100
AcDbEntity
  8
BLACK
  6
Continuous
100
AcDbLine
 10
87.95
 20
6.499985
 30
0.0
 11
87.95
 21
-6.503479
 31
0.0
  0
ARC
  5
E2
330
1D
100
AcDbEntity
  8
BLACK
100
AcDbCircle
 10
88.449972
 20
-6.500014999999999
 30
0.0
 40
0.499985
100
AcDbArc
 50
180.39696104
 51
270.0
  0
LINE
  5
E3
330
1D
100
AcDbEntity
  8
BLACK
  6
Continuous
100
AcDbLine
 10
88.449972
 20
-7.0
 30
0.0
 11
102.056452
 21
-7.0
 31
0.0
  0
ARC
  5
E4
330
1D
100
AcDbEntity
  8
BLACK
100
AcDbCircle
 10
102.049972
 20
-6.500014999999999
 30
0.0
 40
0.500028
100
AcDbArc
 50
270.74253401
 51
0.0
  0
LINE
  5
E5
330
1D
100
AcDbEntity
  8
BLACK
  6
Continuous
100
AcDbLine
 10
102.55
 20
-6.500014999999999
 30
0.0
 11
102.55
 21
6.499985
 31
0.0
  0
ARC
  5
E6
330
1D
100
AcDbEntity
  8
BLACK
100
AcDbCircle
 10
102.049972
 20
6.499985
 30
0.0
 40
0.500015
100
AcDbArc
 50
0.0
 51
90.0
  0
LINE
  5
E7
330
1D
100
AcDbEntity
  8
BLACK
  6
Continuous
100
AcDbLine
 10
102.049972
 20
7.0
 30
0.0
 11
88.45
 21
7.0
 31
0.0
  0
ARC
  5
E8
330
1D
100
AcDbEntity
  8
BLACK
100
AcDbCircle
 10
88.449972
 20
6.499985
 30
0.0
 40
0.499972
100
AcDbArc
 50
89.99679153000001
 51
180.0
  0
LINE
  5
E9
330
1D
100
AcDbEntity
  8
BLACK
  6
Continuous
100
AcDbLine
 10
178.4375
 20
-31.600015
 30
0.0
 11
178.4375
 21
-44.603479
 31
0.0
  0
ARC
  5
EA
330
1D
100
AcDbEntity
  8
BLACK
100
AcDbCircle
 10
178.937472
 20
-44.600015
 30
0.0
 40
0.499985
100
AcDbArc
 50
180.39696104
 51
270.0
  0
LINE
  5
EB
330
1D
100
AcDbEntity
  8
BLACK
  6
Continuous
100
AcDbLine
 10
178.937472
 20
-45.1
 30
0.0
 11
192.543952
 21
-45.1
 31
0.0
  0
ARC
  5
EC
330
1D
100
AcDbEntity
  8
BLACK
100
AcDbCircle
 10
192.537472
 20
-44.600015
 30
0.0
 40
0.500028
100
AcDbArc
 50
270.74253401
 51
0.0
  0
LINE
  5
ED
330
1D
100
AcDbEntity
  8
BLACK
  6
Continuous
100
AcDbLine
 10
193.0375
 20
-44.600015
 30
0.0
 11
193.0375
 21
-31.600015
 31
0.0
  0
ARC
  5
EE
330
1D
100
AcDbEntity
  8
BLACK
100
AcDbCircle
 10
192.537472
 20
-31.600015
 30
0.0
 40
0.500015
100
AcDbArc
 50
0.0
 51
90.0
  0
LINE
  5
EF
330
1D
100
AcDbEntity
  8
BLACK
  6
Continuous
100
AcDbLine
 10
192.537472
 20
-31.1
 30
0.0
 11
178.9375
 21
-31.1
 31
0.0
  0
ARC
  5
F0
330
1D
100
AcDbEntity
  8
BLACK
100
AcDbCircle
 10
178.937472
 20
-31.600015
 30
0.0
 40
0.499972
100
AcDbArc
 50
89.99679153000001
 51
180.0
  0
LINE
  5
F1
330
1D
100
AcDbEntity
  8
BLACK
  6
Continuous
100
AcDbLine
 10
54.6125
 20
-50.650015
 30
0.0
 11
54.6125
 21
-63.653479
 31
0.0
  0
ARC
  5
F2
330
1D
100
AcDbEntity
  8
BLACK
100
AcDbCircle
 10
55.112472
 20
-63.650015
 30
0.0
 40
0.499985
100
AcDbArc
 50
180.39696104
 51
270.0
  0
LINE
  5
F3
330
1D
100
AcDbEntity
  8
BLACK
  6
Continuous
100
AcDbLine
 10
55.112472
 20
-64.14999999999999
 30
0.0
 11
68.718952
 21
-64.14999999999999
 31
0.0
  0
ARC
  5
F4
330
1D
100
AcDbEntity
  8
BLACK
100
AcDbCircle
 10
68.71247199999999
 20
-63.650015
 30
0.0
 40
0.500028
100
AcDbArc
 50
270.74253401
 51
0.0
  0
LINE
  5
F5
330
1D
100
AcDbEntity
  8
BLACK
  6
Continuous
100
AcDbLine
 10
69.21249999999999
 20
-63.650015
 30
0.0
 11
69.21249999999999
 21
-50.650015
 31
0.0
  0
ARC
  5
F6
330
1D
100
AcDbEntity
  8
BLACK
100
AcDbCircle
 10
68.71247199999999
 20
-50.650015
 30
0.0
 40
0.500015
100
AcDbArc
 50
0.0
 51
90.0
  0
LINE
  5
F7
330
1D
100
AcDbEntity
  8
BLACK
  6
Continuous
100
AcDbLine
 10
68.71247199999999
 20
-50.15
 30
0.0
 11
55.1125
 21
-50.15
 31
0.0
  0
ARC
  5
F8
330
1D
100
AcDbEntity
  8
BLACK
100
AcDbCircle
 10
55.112472
 20
-50.650015
 30
0.0
 40
0.499972
100
AcDbArc
 50
89.99679153000001
 51
180.0
  0
LINE
  5
F9
330
1D
100
AcDbEntity
  8
BLACK
  6
Continuous
100
AcDbLine
 10
230.825
 20
-12.550015
 30
0.0
 11
230.825
 21
-25.553479
 31
0.0
  0
ARC
  5
FA
330
1D
100
AcDbEntity
  8
BLACK
100
AcDbCircle
 10
231.324972
 20
-25.550015
 30
0.0
 40
0.499985
100
AcDbArc
 50
180.39696104
 51
270.0
  0
LINE
  5
FB
330
1D
100
AcDbEntity
  8
BLACK
  6
Continuous
100
AcDbLine
 10
231.324972
 20
-26.05
 30
0.0
 11
244.931452
 21
-26.05
 31
0.0
  0
ARC
  5
FC
330
1D
100
AcDbEntity
  8
BLACK
100
AcDbCircle
 10
244.924972
 20
-25.550015
 30
0.0
 40
0.500028
100
AcDbArc
 50
270.74253401
 51
0.0
  0
LINE
  5
FD
330
1D
100
AcDbEntity
  8
BLACK
  6
Continuous
100
AcDbLine
 10
245.425
 20
-25.550015
 30
0.0
 11
245.425
 21
-12.550015
 31
0.0
  0
ARC
  5
FE
330
1D
100
AcDbEntity
  8
BLACK
100
AcDbCircle
 10
244.924972
 20
-12.550015
 30
0.0
 40
0.500015
100
AcDbArc
 50
0.0
 51
90.0
  0
LINE
  5
FF
330
1D
100
AcDbEntity
  8
BLACK
  6
Continuous
100
AcDbLine
 10
244.924972
 20
-12.05
 30
0.0
 11
231.325
 21
-12.05
 31
0.0
  0
ARC
  5
100
330
1D
100
AcDbEntity
  8
BLACK
100
AcDbCircle
 10
231.324972
 20
-12.550015
 30
0.0
 40
0.499972
100
AcDbArc
 50
89.99679153000001
 51
180.0
  0
LINE
  5
101
330
1D
100
AcDbEntity
  8
BLACK
  6
Continuous
100
AcDbLine
 10
83.1875
 20
-31.600015
 30
0.0
 11
83.1875
 21
-44.603479
 31
0.0
  0
ARC
  5
102
330
1D
100
AcDbEntity
  8
BLACK
100
AcDbCircle
 10
83.687472
 20
-44.600015
 30
0.0
 40
0.499985
100
AcDbArc
 50
180.39696104
 51
270.0
  0
LINE
  5
103
330
1D
100
AcDbEntity
  8
BLACK
  6
Continuous
100
AcDbLine
 10
83.687472
 20
-45.1
 30
0.0
 11
97.29395199999999
 21
-45.1
 31
0.0
  0
ARC
  5
104
330
1D
100
AcDbEntity
  8
BLACK
100
AcDbCircle
 10
97.287472
 20
-44.600015
 30
0.0
 40
0.500028
100
AcDbArc
 50
270.74253401
 51
0.0
  0
LINE
  5
105
330
1D
100
AcDbEntity
  8
BLACK
  6
Continuous
100
AcDbLine
 10
97.7875
 20
-44.600015
 30
0.0
 11
97.7875
 21
-31.600015
 31
0.0
  0
ARC
  5
106
330
1D
100
AcDbEntity
  8
BLACK
100
AcDbCircle
 10
97.287472
 20
-31.600015
 30
0.0
 40
0.500015
100
AcDbArc
 50
0.0
 51
90.0
  0
LINE
  5
107
330
1D
100
AcDbEntity
  8
BLACK
  6
Continuous
100
AcDbLine
 10
97.287472
 20
-31.1
 30
0.0
 11
83.6875
 21
-31.1
 31
0.0
  0
ARC
  5
108
330
1D
100
AcDbEntity
  8
BLACK
100
AcDbCircle
 10
83.687472
 20
-31.600015
 30
0.0
 40
0.499972
100
AcDbArc
 50
89.99679153000001
 51
180.0
  0
LINE
  5
109
330
1D
100
AcDbEntity
  8
BLACK
  6
Continuous
100
AcDbLine
 10
116.525
 20
-12.550015
 30
0.0
 11
116.525
 21
-25.553479
 31
0.0
  0
ARC
  5
10A
330
1D
100
AcDbEntity
  8
BLACK
100
AcDbCircle
 10
117.024972
 20
-25.550015
 30
0.0
 40
0.499985
100
AcDbArc
 50
180.39696104
 51
270.0
  0
LINE
  5
10B
330
1D
100
AcDbEntity
  8
BLACK
  6
Continuous
100
AcDbLine
 10
117.024972
 20
-26.05
 30
0.0
 11
130.631452
 21
-26.05
 31
0.0
  0
ARC
  5
10C
330
1D
100
AcDbEntity
  8
BLACK
100
AcDbCircle
 10
130.624972
 20
-25.550015
 30
0.0
 40
0.500028
100
AcDbArc
 50
270.74253401
 51
0.0
  0
LINE
  5
10D
330
1D
100
AcDbEntity
  8
BLACK
  6
Continuous
100
AcDbLine
 10
131.125
 20
-25.550015
 30
0.0
 11
131.125
 21
-12.550015
 31
0.0
  0
ARC
  5
10E
330
1D
100
AcDbEntity
  8
BLACK
100
AcDbCircle
 10
130.624972
 20
-12.550015
 30
0.0
 40
0.500015
100
AcDbArc
 50
0.0
 51
90.0
  0
LINE
  5
10F
330
1D
100
AcDbEntity
  8
BLACK
  6
Continuous
100
AcDbLine
 10
130.624972
 20
-12.05
 30
0.0
 11
117.025
 21
-12.05
 31
0.0
  0
ARC
  5
110
330
1D
100
AcDbEntity
  8
BLACK
100
AcDbCircle
 10
117.024972
 20
-12.550015
 30
0.0
 40
0.499972
100
AcDbArc
 50
89.99679153000001
 51
180.0
  0
LINE
  5
111
330
1D
100
AcDbEntity
  8
BLACK
  6
Continuous
100
AcDbLine
 10
221.3
 20
6.499985
 30
0.0
 11
221.3
 21
-6.503479
 31
0.0
  0
ARC
  5
112
330
1D
100
AcDbEntity
  8
BLACK
100
AcDbCircle
 10
221.799972
 20
-6.500014999999999
 30
0.0
 40
0.499985
100
AcDbArc
 50
180.39696104
 51
270.0
  0
LINE
  5
113
330
1D
100
AcDbEntity
  8
BLACK
  6
Continuous
100
AcDbLine
 10
221.799972
 20
-7.0
 30
0.0
 11
235.406452
 21
-7.0
 31
0.0
  0
ARC
  5
114
330
1D
100
AcDbEntity
  8
BLACK
100
AcDbCircle
 10
235.399972
 20
-6.500014999999999
 30
0.0
 40
0.500028
100
AcDbArc
 50
270.74253401
 51
0.0
  0
LINE
  5
115
330
1D
100
AcDbEntity
  8
BLACK
  6
Continuous
100
AcDbLine
 10
235.9
 20
-6.500014999999999
 30
0.0
 11
235.9
 21
6.499985
 31
0.0
  0
ARC
  5
116
330
1D
100
AcDbEntity
  8
BLACK
100
AcDbCircle
 10
235.399972
 20
6.499985
 30
0.0
 40
0.500015
100
AcDbArc
 50
0.0
 51
90.0
  0
LINE
  5
117
330
1D
100
AcDbEntity
  8
BLACK
  6
Continuous
100
AcDbLine
 10
235.399972
 20
7.0
 30
0.0
 11
221.8
 21
7.0
 31
0.0
  0
ARC
  5
118
330
1D
100
AcDbEntity
  8
BLACK
100
AcDbCircle
 10
221.799972
 20
6.499985
 30
0.0
 40
0.499972
100
AcDbArc
 50
89.99679153000001
 51
180.0
  0
LINE
  5
119
330
1D
100
AcDbEntity
  8
BLACK
  6
Continuous
100
AcDbLine
 10
121.2875
 20
-31.600015
 30
0.0
 11
121.2875
 21
-44.603479
 31
0.0
  0
ARC
  5
11A
330
1D
100
AcDbEntity
  8
BLACK
100
AcDbCircle
 10
121.787472
 20
-44.600015
 30
0.0
 40
0.499985
100
AcDbArc
 50
180.39696104
 51
270.0
  0
LINE
  5
11B
330
1D
100
AcDbEntity
  8
BLACK
  6
Continuous
100
AcDbLine
 10
121.787472
 20
-45.1
 30
0.0
 11
135.393952
 21
-45.1
 31
0.0
  0
ARC
  5
11C
330
1D
100
AcDbEntity
  8
BLACK
100
AcDbCircle
 10
135.387472
 20
-44.600015
 30
0.0
 40
0.500028
100
AcDbArc
 50
270.74253401
 51
0.0
  0
LINE
  5
11D
330
1D
100
AcDbEntity
  8
BLACK
  6
Continuous
100
AcDbLine
 10
135.8875
 20
-44.600015
 30
0.0
 11
135.8875
 21
-31.600015
 31
0.0
  0
ARC
  5
11E
330
1D
100
AcDbEntity
  8
BLACK
100
AcDbCircle
 10
135.387472
 20
-31.600015
 30
0.0
 40
0.500015
100
AcDbArc
 50
0.0
 51
90.0
  0
LINE
  5
11F
330
1D
100
AcDbEntity
  8
BLACK
  6
Continuous
100
AcDbLine
 10
135.387472
 20
-31.1
 30
0.0
 11
121.7875
 21
-31.1
 31
0.0
  0
ARC
  5
120
330
1D
100
AcDbEntity
  8
BLACK
100
AcDbCircle
 10
121.787472
 20
-31.600015
 30
0.0
 40
0.499972
100
AcDbArc
 50
89.99679153000001
 51
180.0
  0
LINE
  5
121
330
1D
100
AcDbEntity
  8
BLACK
  6
Continuous
100
AcDbLine
 10
111.7625
 20
-50.650015
 30
0.0
 11
111.7625
 21
-63.653479
 31
0.0
  0
ARC
  5
122
330
1D
100
AcDbEntity
  8
BLACK
100
AcDbCircle
 10
112.262472
 20
-63.650015
 30
0.0
 40
0.499985
100
AcDbArc
 50
180.39696104
 51
270.0
  0
LINE
  5
123
330
1D
100
AcDbEntity
  8
BLACK
  6
Continuous
100
AcDbLine
 10
112.262472
 20
-64.14999999999999
 30
0.0
 11
125.868952
 21
-64.14999999999999
 31
0.0
  0
ARC
  5
124
330
1D
100
AcDbEntity
  8
BLACK
100
AcDbCircle
 10
125.862472
 20
-63.650015
 30
0.0
 40
0.500028
100
AcDbArc
 50
270.74253401
 51
0.0
  0
LINE
  5
125
330
1D
100
AcDbEntity
  8
BLACK
  6
Continuous
100
AcDbLine
 10
126.3625
 20
-63.650015
 30
0.0
 11
126.3625
 21
-50.650015
 31
0.0
  0
ARC
  5
126
330
1D
100
AcDbEntity
  8
BLACK
100
AcDbCircle
 10
125.862472
 20
-50.650015
 30
0.0
 40
0.500015
100
AcDbArc
 50
0.0
 51
90.0
  0
LINE
  5
127
330
1D
100
AcDbEntity
  8
BLACK
  6
Continuous
100
AcDbLine
 10
125.862472
 20
-50.15
 30
0.0
 11
112.2625
 21
-50.15
 31
0.0
  0
ARC
  5
128
330
1D
100
AcDbEntity
  8
BLACK
100
AcDbCircle
 10
112.262472
 20
-50.650015
 30
0.0
 40
0.499972
100
AcDbArc
 50
89.99679153000001
 51
180.0
  0
LINE
  5
129
330
1D
100
AcDbEntity
  8
BLACK
  6
Continuous
100
AcDbLine
 10
21.275
 20
-12.550015
 30
0.0
 11
21.275
 21
-25.553479
 31
0.0
  0
ARC
  5
12A
330
1D
100
AcDbEntity
  8
BLACK
100
AcDbCircle
 10
21.774972
 20
-25.550015
 30
0.0
 40
0.499985
100
AcDbArc
 50
180.39696104
 51
270.0
  0
LINE
  5
12B
330
1D
100
AcDbEntity
  8
BLACK
  6
Continuous
100
AcDbLine
 10
21.774972
 20
-26.05
 30
0.0
 11
35.381452
 21
-26.05
 31
0.0
  0
ARC
  5
12C
330
1D
100
AcDbEntity
  8
BLACK
100
AcDbCircle
 10
35.374972
 20
-25.550015
 30
0.0
 40
0.500028
100
AcDbArc
 50
270.74253401
 51
0.0
  0
LINE
  5
12D
330
1D
100
AcDbEntity
  8
BLACK
  6
Continuous
100
AcDbLine
 10
35.875
 20
-25.550015
 30
0.0
 11
35.875
 21
-12.550015
 31
0.0
  0
ARC
  5
12E
330
1D
100
AcDbEntity
  8
BLACK
100
AcDbCircle
 10
35.374972
 20
-12.550015
 30
0.0
 40
0.500015
100
AcDbArc
 50
0.0
 51
90.0
  0
LINE
  5
12F
330
1D
100
AcDbEntity
  8
BLACK
  6
Continuous
100
AcDbLine
 10
35.374972
 20
-12.05
 30
0.0
 11
21.775
 21
-12.05
 31
0.0
  0
ARC
  5
130
330
1D
100
AcDbEntity
  8
BLACK
100
AcDbCircle
 10
21.774972
 20
-12.550015
 30
0.0
 40
0.499972
100
AcDbArc
 50
89.99679153000001
 51
180.0
  0
LINE
  5
131
330
1D
100
AcDbEntity
  8
BLACK
  6
Continuous
100
AcDbLine
 10
183.2
 20
6.499985
 30
0.0
 11
183.2
 21
-6.503479
 31
0.0
  0
ARC
  5
132
330
1D
100
AcDbEntity
  8
BLACK
100
AcDbCircle
 10
183.699972
 20
-6.500014999999999
 30
0.0
 40
0.499985
100
AcDbArc
 50
180.39696104
 51
270.0
  0
LINE
  5
133
330
1D
100
AcDbEntity
  8
BLACK
  6
Continuous
100
AcDbLine
 10
183.699972
 20
-7.0
 30
0.0
 11
197.306452
 21
-7.0
 31
0.0
  0
ARC
  5
134
330
1D
100
AcDbEntity
  8
BLACK
100
AcDbCircle
 10
197.299972
 20
-6.500014999999999
 30
0.0
 40
0.500028
100
AcDbArc
 50
270.74253401
 51
0.0
  0
LINE
  5
135
330
1D
100
AcDbEntity
  8
BLACK
  6
Continuous
100
AcDbLine
 10
197.8
 20
-6.500014999999999
 30
0.0
 11
197.8
 21
6.499985
 31
0.0
  0
ARC
  5
136
330
1D
100
AcDbEntity
  8
BLACK
100
AcDbCircle
 10
197.299972
 20
6.499985
 30
0.0
 40
0.500015
100
AcDbArc
 50
0.0
 51
90.0
  0
LINE
  5
137
330
1D
100
AcDbEntity
  8
BLACK
  6
Continuous
100
AcDbLine
 10
197.299972
 20
7.0
 30
0.0
 11
183.7
 21
7.0
 31
0.0
  0
ARC
  5
138
330
1D
100
AcDbEntity
  8
BLACK
100
AcDbCircle
 10
183.699972
 20
6.499985
 30
0.0
 40
0.499972
100
AcDbArc
 50
89.99679153000001
 51
180.0
  0
LINE
  5
139
330
1D
100
AcDbEntity
  8
BLACK
  6
Continuous
100
AcDbLine
 10
135.575
 20
-12.550015
 30
0.0
 11
135.575
 21
-25.553479
 31
0.0
  0
ARC
  5
13A
330
1D
100
AcDbEntity
  8
BLACK
100
AcDbCircle
 10
136.074972
 20
-25.550015
 30
0.0
 40
0.499985
100
AcDbArc
 50
180.39696104
 51
270.0
  0
LINE
  5
13B
330
1D
100
AcDbEntity
  8
BLACK
  6
Continuous
100
AcDbLine
 10
136.074972
 20
-26.05
 30
0.0
 11
149.681452
 21
-26.05
 31
0.0
  0
ARC
  5
13C
330
1D
100
AcDbEntity
  8
BLACK
100
AcDbCircle
 10
149.674972
 20
-25.550015
 30
0.0
 40
0.500028
100
AcDbArc
 50
270.74253401
 51
0.0
  0
LINE
  5
13D
330
1D
100
AcDbEntity
  8
BLACK
  6
Continuous
100
AcDbLine
 10
150.175
 20
-25.550015
 30
0.0
 11
150.175
 21
-12.550015
 31
0.0
  0
ARC
  5
13E
330
1D
100
AcDbEntity
  8
BLACK
100
AcDbCircle
 10
149.674972
 20
-12.550015
 30
0.0
 40
0.500015
100
AcDbArc
 50
0.0
 51
90.0
  0
LINE
  5
13F
330
1D
100
AcDbEntity
  8
BLACK
  6
Continuous
100
AcDbLine
 10
149.674972
 20
-12.05
 30
0.0
 11
136.075
 21
-12.05
 31
0.0
  0
ARC
  5
140
330
1D
100
AcDbEntity
  8
BLACK
100
AcDbCircle
 10
136.074972
 20
-12.550015
 30
0.0
 40
0.499972
100
AcDbArc
 50
89.99679153000001
 51
180.0
  0
LINE
  5
141
330
1D
100
AcDbEntity
  8
BLACK
  6
Continuous
100
AcDbLine
 10
159.3875
 20
-31.600015
 30
0.0
 11
159.3875
 21
-44.603479
 31
0.0
  0
ARC
  5
142
330
1D
100
AcDbEntity
  8
BLACK
100
AcDbCircle
 10
159.887472
 20
-44.600015
 30
0.0
 40
0.499985
100
AcDbArc
 50
180.39696104
 51
270.0
  0
LINE
  5
143
330
1D
100
AcDbEntity
  8
BLACK
  6
Continuous
100
AcDbLine
 10
159.887472
 20
-45.1
 30
0.0
 11
173.493952
 21
-45.1
 31
0.0
  0
ARC
  5
144
330
1D
100
AcDbEntity
  8
BLACK
100
AcDbCircle
 10
173.487472
 20
-44.600015
 30
0.0
 40
0.500028
100
AcDbArc
 50
270.74253401
 51
0.0
  0
LINE
  5
145
330
1D
100
AcDbEntity
  8
BLACK
  6
Continuous
100
AcDbLine
 10
173.9875
 20
-44.600015
 30
0.0
 11
173.9875
 21
-31.600015
 31
0.0
  0
ARC
  5
146
330
1D
100
AcDbEntity
  8
BLACK
100
AcDbCircle
 10
173.487472
 20
-31.600015
 30
0.0
 40
0.500015
100
AcDbArc
 50
0.0
 51
90.0
  0
LINE
  5
147
330
1D
100
AcDbEntity
  8
BLACK
  6
Continuous
100
AcDbLine
 10
173.487472
 20
-31.1
 30
0.0
 11
159.8875
 21
-31.1
 31
0.0
  0
ARC
  5
148
330
1D
100
AcDbEntity
  8
BLACK
100
AcDbCircle
 10
159.887472
 20
-31.600015
 30
0.0
 40
0.499972
100
AcDbArc
 50
89.99679153000001
 51
180.0
  0
LINE
  5
149
330
1D
100
AcDbEntity
  8
BLACK
  6
Continuous
100
AcDbLine
 10
26.0375
 20
-31.600015
 30
0.0
 11
26.0375
 21
-44.603479
 31
0.0
  0
ARC
  5
14A
330
1D
100
AcDbEntity
  8
BLACK
100
AcDbCircle
 10
26.537472
 20
-44.600015
 30
0.0
 40
0.499985
100
AcDbArc
 50
180.39696104
 51
270.0
  0
LINE
  5
14B
330
1D
100
AcDbEntity
  8
BLACK
  6
Continuous
100
AcDbLine
 10
26.537472
 20
-45.1
 30
0.0
 11
40.143952
 21
-45.1
 31
0.0
  0
ARC
  5
14C
330
1D
100
AcDbEntity
  8
BLACK
100
AcDbCircle
 10
40.137472
 20
-44.600015
 30
0.0
 40
0.500028
100
AcDbArc
 50
270.74253401
 51
0.0
  0
LINE
  5
14D
330
1D
100
AcDbEntity
  8
BLACK
  6
Continuous
100
AcDbLine
 10
40.6375
 20
-44.600015
 30
0.0
 11
40.6375
 21
-31.600015
 31
0.0
  0
ARC
  5
14E
330
1D
100
AcDbEntity
  8
BLACK
100
AcDbCircle
 10
40.137472
 20
-31.600015
 30
0.0
 40
0.500015
100
AcDbArc
 50
0.0
 51
90.0
  0
LINE
  5
14F
330
1D
100
AcDbEntity
  8
BLACK
  6
Continuous
100
AcDbLine
 10
40.137472
 20
-31.1
 30
0.0
 11
26.5375
 21
-31.1
 31
0.0
  0
ARC
  5
150
330
1D
100
AcDbEntity
  8
BLACK
100
AcDbCircle
 10
26.537472
 20
-31.600015
 30
0.0
 40
0.499972
100
AcDbArc
 50
89.99679153000001
 51
180.0
  0
LINE
  5
151
330
1D
100
AcDbEntity
  8
BLACK
  6
Continuous
100
AcDbLine
 10
126.05
 20
6.499985
 30
0.0
 11
126.05
 21
-6.503479
 31
0.0
  0
ARC
  5
152
330
1D
100
AcDbEntity
  8
BLACK
100
AcDbCircle
 10
126.549972
 20
-6.500014999999999
 30
0.0
 40
0.499985
100
AcDbArc
 50
180.39696104
 51
270.0
  0
LINE
  5
153
330
1D
100
AcDbEntity
  8
BLACK
  6
Continuous
100
AcDbLine
 10
126.549972
 20
-7.0
 30
0.0
 11
140.156452
 21
-7.0
 31
0.0
  0
ARC
  5
154
330
1D
100
AcDbEntity
  8
BLACK
100
AcDbCircle
 10
140.149972
 20
-6.500014999999999
 30
0.0
 40
0.500028
100
AcDbArc
 50
270.74253401
 51
0.0
  0
LINE
  5
155
330
1D
100
AcDbEntity
  8
BLACK
  6
Continuous
100
AcDbLine
 10
140.65
 20
-6.500014999999999
 30
0.0
 11
140.65
 21
6.499985
 31
0.0
  0
ARC
  5
156
330
1D
100
AcDbEntity
  8
BLACK
100
AcDbCircle
 10
140.149972
 20
6.499985
 30
0.0
 40
0.500015
100
AcDbArc
 50
0.0
 51
90.0
  0
LINE
  5
157
330
1D
100
AcDbEntity
  8
BLACK
  6
Continuous
100
AcDbLine
 10
140.149972
 20
7.0
 30
0.0
 11
126.55
 21
7.0
 31
0.0
  0
ARC
  5
158
330
1D
100
AcDbEntity
  8
BLACK
100
AcDbCircle
 10
126.549972
 20
6.499985
 30
0.0
 40
0.499972
100
AcDbArc
 50
89.99679153000001
 51
180.0
  0
LINE
  5
159
330
1D
100
AcDbEntity
  8
BLACK
  6
Continuous
100
AcDbLine
 10
154.625
 20
-12.550015
 30
0.0
 11
154.625
 21
-25.553479
 31
0.0
  0
ARC
  5
15A
330
1D
100
AcDbEntity
  8
BLACK
100
AcDbCircle
 10
155.124972
 20
-25.550015
 30
0.0
 40
0.499985
100
AcDbArc
 50
180.39696104
 51
270.0
  0
LINE
  5
15B
330
1D
100
AcDbEntity
  8
BLACK
  6
Continuous
100
AcDbLine
 10
155.124972
 20
-26.05
 30
0.0
 11
168.731452
 21
-26.05
 31
0.0
  0
ARC
  5
15C
330
1D
100
AcDbEntity
  8
BLACK
100
AcDbCircle
 10
168.724972
 20
-25.550015
 30
0.0
 40
0.500028
100
AcDbArc
 50
270.74253401
 51
0.0
  0
LINE
  5
15D
330
1D
100
AcDbEntity
  8
BLACK
  6
Continuous
100
AcDbLine
 10
169.225
 20
-25.550015
 30
0.0
 11
169.225
 21
-12.550015
 31
0.0
  0
ARC
  5
15E
330
1D
100
AcDbEntity
  8
BLACK
100
AcDbCircle
 10
168.724972
 20
-12.550015
 30
0.0
 40
0.500015
100
AcDbArc
 50
0.0
 51
90.0
  0
LINE
  5
15F
330
1D
100
AcDbEntity
  8
BLACK
  6
Continuous
100
AcDbLine
 10
168.724972
 20
-12.05
 30
0.0
 11
155.125
 21
-12.05
 31
0.0
  0
ARC
  5
160
330
1D
100
AcDbEntity
  8
BLACK
100
AcDbCircle
 10
155.124972
 20
-12.550015
 30
0.0
 40
0.499972
100
AcDbArc
 50
89.99679153000001
 51
180.0
  0
LINE
  5
161
330
1D
100
AcDbEntity
  8
BLACK
  6
Continuous
100
AcDbLine
 10
35.5625
 20
-50.650015
 30
0.0
 11
35.5625
 21
-63.653479
 31
0.0
  0
ARC
  5
162
330
1D
100
AcDbEntity
  8
BLACK
100
AcDbCircle
 10
36.062472
 20
-63.650015
 30
0.0
 40
0.499985
100
AcDbArc
 50
180.39696104
 51
270.0
  0
LINE
  5
163
330
1D
100
AcDbEntity
  8
BLACK
  6
Continuous
100
AcDbLine
 10
36.062472
 20
-64.14999999999999
 30
0.0
 11
49.668952
 21
-64.14999999999999
 31
0.0
  0
ARC
  5
164
330
1D
100
AcDbEntity
  8
BLACK
100
AcDbCircle
 10
49.662472
 20
-63.650015
 30
0.0
 40
0.500028
100
AcDbArc
 50
270.74253401
 51
0.0
  0
LINE
  5
165
330
1D
100
AcDbEntity
  8
BLACK
  6
Continuous
100
AcDbLine
 10
50.16249999999999
 20
-63.650015
 30
0.0
 11
50.16249999999999
 21
-50.650015
 31
0.0
  0
ARC
  5
166
330
1D
100
AcDbEntity
  8
BLACK
100
AcDbCircle
 10
49.662472
 20
-50.650015
 30
0.0
 40
0.500015
100
AcDbArc
 50
0.0
 51
90.0
  0
LINE
  5
167
330
1D
100
AcDbEntity
  8
BLACK
  6
Continuous
100
AcDbLine
 10
49.662472
 20
-50.15
 30
0.0
 11
36.0625
 21
-50.15
 31
0.0
  0
ARC
  5
168
330
1D
100
AcDbEntity
  8
BLACK
100
AcDbCircle
 10
36.062472
 20
-50.650015
 30
0.0
 40
0.499972
100
AcDbArc
 50
89.99679153000001
 51
180.0
  0
LINE
  5
169
330
1D
100
AcDbEntity
  8
BLACK
  6
Continuous
100
AcDbLine
 10
68.89999999999999
 20
6.499985
 30
0.0
 11
68.89999999999999
 21
-6.503479
 31
0.0
  0
ARC
  5
16A
330
1D
100
AcDbEntity
  8
BLACK
100
AcDbCircle
 10
69.39997199999999
 20
-6.500014999999999
 30
0.0
 40
0.499985
100
AcDbArc
 50
180.39696104
 51
270.0
  0
LINE
  5
16B
330
1D
100
AcDbEntity
  8
BLACK
  6
Continuous
100
AcDbLine
 10
69.39997199999999
 20
-7.0
 30
0.0
 11
83.006452
 21
-7.0
 31
0.0
  0
ARC
  5
16C
330
1D
100
AcDbEntity
  8
BLACK
100
AcDbCircle
 10
82.999972
 20
-6.500014999999999
 30
0.0
 40
0.500028
100
AcDbArc
 50
270.74253401
 51
0.0
  0
LINE
  5
16D
330
1D
100
AcDbEntity
  8
BLACK
  6
Continuous
100
AcDbLine
 10
83.5
 20
-6.500014999999999
 30
0.0
 11
83.5
 21
6.499985
 31
0.0
  0
ARC
  5
16E
330
1D
100
AcDbEntity
  8
BLACK
100
AcDbCircle
 10
82.999972
 20
6.499985
 30
0.0
 40
0.500015
100
AcDbArc
 50
0.0
 51
90.0
  0
LINE
  5
16F
330
1D
100
AcDbEntity
  8
BLACK
  6
Continuous
100
AcDbLine
 10
82.999972
 20
7.0
 30
0.0
 11
69.39999999999999
 21
7.0
 31
0.0
  0
ARC
  5
170
330
1D
100
AcDbEntity
  8
BLACK
100
AcDbCircle
 10
69.39997199999999
 20
6.499985
 30
0.0
 40
0.499972
100
AcDbArc
 50
89.99679153000001
 51
180.0
  0
LINE
  5
171
330
1D
100
AcDbEntity
  8
BLACK
  6
Continuous
100
AcDbLine
 10
145.1
 20
6.499985
 30
0.0
 11
145.1
 21
-6.503479
 31
0.0
  0
ARC
  5
172
330
1D
100
AcDbEntity
  8
BLACK
100
AcDbCircle
 10
145.599972
 20
-6.500014999999999
 30
0.0
 40
0.499985
100
AcDbArc
 50
180.39696104
 51
270.0
  0
LINE
  5
173
330
1D
100
AcDbEntity
  8
BLACK
  6
Continuous
100
AcDbLine
 10
145.599972
 20
-7.0
 30
0.0
 11
159.206452
 21
-7.0
 31
0.0
  0
ARC
  5
174
330
1D
100
AcDbEntity
  8
BLACK
100
AcDbCircle
 10
159.199972
 20
-6.500014999999999
 30
0.0
 40
0.500028
100
AcDbArc
 50
270.74253401
 51
0.0
  0
LINE
  5
175
330
1D
100
AcDbEntity
  8
BLACK
  6
Continuous
100
AcDbLine
 10
159.7
 20
-6.500014999999999
 30
0.0
 11
159.7
 21
6.499985
 31
0.0
  0
ARC
  5
176
330
1D
100
AcDbEntity
  8
BLACK
100
AcDbCircle
 10
159.199972
 20
6.499985
 30
0.0
 40
0.500015
100
AcDbArc
 50
0.0
 51
90.0
  0
LINE
  5
177
330
1D
100
AcDbEntity
  8
BLACK
  6
Continuous
100
AcDbLine
 10
159.199972
 20
7.0
 30
0.0
 11
145.6
 21
7.0
 31
0.0
  0
ARC
  5
178
330
1D
100
AcDbEntity
  8
BLACK
100
AcDbCircle
 10
145.599972
 20
6.499985
 30
0.0
 40
0.499972
100
AcDbArc
 50
89.99679153000001
 51
180.0
  0
LINE
  5
179
330
1D
100
AcDbEntity
  8
BLACK
  6
Continuous
100
AcDbLine
 10
11.75
 20
6.499985
 30
0.0
 11
11.75
 21
-6.503479
 31
0.0
  0
ARC
  5
17A
330
1D
100
AcDbEntity
  8
BLACK
100
AcDbCircle
 10
12.249972
 20
-6.500014999999999
 30
0.0
 40
0.499985
100
AcDbArc
 50
180.39696104
 51
270.0
  0
LINE
  5
17B
330
1D
100
AcDbEntity
  8
BLACK
  6
Continuous
100
AcDbLine
 10
12.249972
 20
-7.0
 30
0.0
 11
25.856452
 21
-7.0
 31
0.0
  0
ARC
  5
17C
330
1D
100
AcDbEntity
  8
BLACK
100
AcDbCircle
 10
25.849972
 20
-6.500014999999999
 30
0.0
 40
0.500028
100
AcDbArc
 50
270.74253401
 51
0.0
  0
LINE
  5
17D
330
1D
100
AcDbEntity
  8
BLACK
  6
Continuous
100
AcDbLine
 10
26.35
 20
-6.500014999999999
 30
0.0
 11
26.35
 21
6.499985
 31
0.0
  0
ARC
  5
17E
330
1D
100
AcDbEntity
  8
BLACK
100
AcDbCircle
 10
25.849972
 20
6.499985
 30
0.0
 40
0.500015
100
AcDbArc
 50
0.0
 51
90.0
  0
LINE
  5
17F
330
1D
100
AcDbEntity
  8
BLACK
  6
Continuous
100
AcDbLine
 10
25.849972
 20
7.0
 30
0.0
 11
12.25
 21
7.0
 31
0.0
  0
ARC
  5
180
330
1D
100
AcDbEntity
  8
BLACK
100
AcDbCircle
 10
12.249972
 20
6.499985
 30
0.0
 40
0.499972
100
AcDbArc
 50
89.99679153000001
 51
180.0
  0
LINE
  5
181
330
1D
100
AcDbEntity
  8
BLACK
  6
Continuous
100
AcDbLine
 10
164.15
 20
6.499985
 30
0.0
 11
164.15
 21
-6.503479
 31
0.0
  0
ARC
  5
182
330
1D
100
AcDbEntity
  8
BLACK
100
AcDbCircle
 10
164.649972
 20
-6.500014999999999
 30
0.0
 40
0.499985
100
AcDbArc
 50
180.39696104
 51
270.0
  0
LINE
  5
183
330
1D
100
AcDbEntity
  8
BLACK
  6
Continuous
100
AcDbLine
 10
164.649972
 20
-7.0
 30
0.0
 11
178.256452
 21
-7.0
 31
0.0
  0
ARC
  5
184
330
1D
100
AcDbEntity
  8
BLACK
100
AcDbCircle
 10
178.249972
 20
-6.500014999999999
 30
0.0
 40
0.500028
100
AcDbArc
 50
270.74253401
 51
0.0
  0
LINE
  5
185
330
1D
100
AcDbEntity
  8
BLACK
  6
Continuous
100
AcDbLine
 10
178.75
 20
-6.500014999999999
 30
0.0
 11
178.75
 21
6.499985
 31
0.0
  0
ARC
  5
186
330
1D
100
AcDbEntity
  8
BLACK
100
AcDbCircle
 10
178.249972
 20
6.499985
 30
0.0
 40
0.500015
100
AcDbArc
 50
0.0
 51
90.0
  0
LINE
  5
187
330
1D
100
AcDbEntity
  8
BLACK
  6
Continuous
100
AcDbLine
 10
178.249972
 20
7.0
 30
0.0
 11
164.65
 21
7.0
 31
0.0
  0
ARC
  5
188
330
1D
100
AcDbEntity
  8
BLACK
100
AcDbCircle
 10
164.649972
 20
6.499985
 30
0.0
 40
0.499972
100
AcDbArc
 50
89.99679153000001
 51
180.0
  0
LINE
  5
189
330
1D
100
AcDbEntity
  8
BLACK
  6
Continuous
100
AcDbLine
 10
40.325
 20
-12.550015
 30
0.0
 11
40.325
 21
-25.553479
 31
0.0
  0
ARC
  5
18A
330
1D
100
AcDbEntity
  8
BLACK
100
AcDbCircle
 10
40.824972
 20
-25.550015
 30
0.0
 40
0.499985
100
AcDbArc
 50
180.39696104
 51
270.0
  0
LINE
  5
18B
330
1D
100
AcDbEntity
  8
BLACK
  6
Continuous
100
AcDbLine
 10
40.824972
 20
-26.05
 30
0.0
 11
54.431452
 21
-26.05
 31
0.0
  0
ARC
  5
18C
330
1D
100
AcDbEntity
  8
BLACK
100
AcDbCircle
 10
54.424972
 20
-25.550015
 30
0.0
 40
0.500028
100
AcDbArc
 50
270.74253401
 51
0.0
  0
LINE
  5
18D
330
1D
100
AcDbEntity
  8
BLACK
  6
Continuous
100
AcDbLine
 10
54.925
 20
-25.550015
 30
0.0
 11
54.925
 21
-12.550015
 31
0.0
  0
ARC
  5
18E
330
1D
100
AcDbEntity
  8
BLACK
100
AcDbCircle
 10
54.424972
 20
-12.550015
 30
0.0
 40
0.500015
100
AcDbArc
 50
0.0
 51
90.0
  0
LINE
  5
18F
330
1D
100
AcDbEntity
  8
BLACK
  6
Continuous
100
AcDbLine
 10
54.424972
 20
-12.05
 30
0.0
 11
40.825
 21
-12.05
 31
0.0
  0
ARC
  5
190
330
1D
100
AcDbEntity
  8
BLACK
100
AcDbCircle
 10
40.824972
 20
-12.550015
 30
0.0
 40
0.499972
100
AcDbArc
 50
89.99679153000001
 51
180.0
  0
LINE
  5
191
330
1D
100
AcDbEntity
  8
BLACK
  6
Continuous
100
AcDbLine
 10
192.725
 20
-12.550015
 30
0.0
 11
192.725
 21
-25.553479
 31
0.0
  0
ARC
  5
192
330
1D
100
AcDbEntity
  8
BLACK
100
AcDbCircle
 10
193.224972
 20
-25.550015
 30
0.0
 40
0.499985
100
AcDbArc
 50
180.39696104
 51
270.0
  0
LINE
  5
193
330
1D
100
AcDbEntity
  8
BLACK
  6
Continuous
100
AcDbLine
 10
193.224972
 20
-26.05
 30
0.0
 11
206.831452
 21
-26.05
 31
0.0
  0
ARC
  5
194
330
1D
100
AcDbEntity
  8
BLACK
100
AcDbCircle
 10
206.824972
 20
-25.550015
 30
0.0
 40
0.500028
100
AcDbArc
 50
270.74253401
 51
0.0
  0
LINE
  5
195
330
1D
100
AcDbEntity
  8
BLACK
  6
Continuous
100
AcDbLine
 10
207.325
 20
-25.550015
 30
0.0
 11
207.325
 21
-12.550015
 31
0.0
  0
ARC
  5
196
330
1D
100
AcDbEntity
  8
BLACK
100
AcDbCircle
 10
206.824972
 20
-12.550015
 30
0.0
 40
0.500015
100
AcDbArc
 50
0.0
 51
90.0
  0
LINE
  5
197
330
1D
100
AcDbEntity
  8
BLACK
  6
Continuous
100
AcDbLine
 10
206.824972
 20
-12.05
 30
0.0
 11
193.225
 21
-12.05
 31
0.0
  0
ARC
  5
198
330
1D
100
AcDbEntity
  8
BLACK
100
AcDbCircle
 10
193.224972
 20
-12.550015
 30
0.0
 40
0.499972
100
AcDbArc
 50
89.99679153000001
 51
180.0
  0
LINE
  5
199
330
1D
100
AcDbEntity
  8
BLACK
  6
Continuous
100
AcDbLine
 10
130.8125
 20
-50.650015
 30
0.0
 11
130.8125
 21
-63.653479
 31
0.0
  0
ARC
  5
19A
330
1D
100
AcDbEntity
  8
BLACK
100
AcDbCircle
 10
131.312472
 20
-63.650015
 30
0.0
 40
0.499985
100
AcDbArc
 50
180.39696104
 51
270.0
  0
LINE
  5
19B
330
1D
100
AcDbEntity
  8
BLACK
  6
Continuous
100
AcDbLine
 10
131.312472
 20
-64.14999999999999
 30
0.0
 11
144.918952
 21
-64.14999999999999
 31
0.0
  0
ARC
  5
19C
330
1D
100
AcDbEntity
  8
BLACK
100
AcDbCircle
 10
144.912472
 20
-63.650015
 30
0.0
 40
0.500028
100
AcDbArc
 50
270.74253401
 51
0.0
  0
LINE
  5
19D
330
1D
100
AcDbEntity
  8
BLACK
  6
Continuous
100
AcDbLine
 10
145.4125
 20
-63.650015
 30
0.0
 11
145.4125
 21
-50.650015
 31
0.0
  0
ARC
  5
19E
330
1D
100
AcDbEntity
  8
BLACK
100
AcDbCircle
 10
144.912472
 20
-50.650015
 30
0.0
 40
0.500015
100
AcDbArc
 50
0.0
 51
90.0
  0
LINE
  5
19F
330
1D
100
AcDbEntity
  8
BLACK
  6
Continuous
100
AcDbLine
 10
144.912472
 20
-50.15
 30
0.0
 11
131.3125
 21
-50.15
 31
0.0
  0
ARC
  5
1A0
330
1D
100
AcDbEntity
  8
BLACK
100
AcDbCircle
 10
131.312472
 20
-50.650015
 30
0.0
 40
0.499972
100
AcDbArc
 50
89.99679153000001
 51
180.0
  0
LINE
  5
1A1
330
1D
100
AcDbEntity
  8
BLACK
  6
Continuous
100
AcDbLine
 10
197.4875
 20
-31.600015
 30
0.0
 11
197.4875
 21
-44.603479
 31
0.0
  0
ARC
  5
1A2
330
1D
100
AcDbEntity
  8
BLACK
100
AcDbCircle
 10
197.987472
 20
-44.600015
 30
0.0
 40
0.499985
100
AcDbArc
 50
180.39696104
 51
270.0
  0
LINE
  5
1A3
330
1D
100
AcDbEntity
  8
BLACK
  6
Continuous
100
AcDbLine
 10
197.987472
 20
-45.1
 30
0.0
 11
211.593952
 21
-45.1
 31
0.0
  0
ARC
  5
1A4
330
1D
100
AcDbEntity
  8
BLACK
100
AcDbCircle
 10
211.587472
 20
-44.600015
 30
0.0
 40
0.500028
100
AcDbArc
 50
270.74253401
 51
0.0
  0
LINE
  5
1A5
330
1D
100
AcDbEntity
  8
BLACK
  6
Continuous
100
AcDbLine
 10
212.0875
 20
-44.600015
 30
0.0
 11
212.0875
 21
-31.600015
 31
0.0
  0
ARC
  5
1A6
330
1D
100
AcDbEntity
  8
BLACK
100
AcDbCircle
 10
211.587472
 20
-31.600015
 30
0.0
 40
0.500015
100
AcDbArc
 50
0.0
 51
90.0
  0
LINE
  5
1A7
330
1D
100
AcDbEntity
  8
BLACK
  6
Continuous
100
AcDbLine
 10
211.587472
 20
-31.1
 30
0.0
 11
197.9875
 21
-31.1
 31
0.0
  0
ARC
  5
1A8
330
1D
100
AcDbEntity
  8
BLACK
100
AcDbCircle
 10
197.987472
 20
-31.600015
 30
0.0
 40
0.499972
100
AcDbArc
 50
89.99679153000001
 51
180.0
  0
LINE
  5
1A9
330
1D
100
AcDbEntity
  8
BLACK
  6
Continuous
100
AcDbLine
 10
73.6625
 20
-50.650015
 30
0.0
 11
73.6625
 21
-63.653479
 31
0.0
  0
ARC
  5
1AA
330
1D
100
AcDbEntity
  8
BLACK
100
AcDbCircle
 10
74.162472
 20
-63.650015
 30
0.0
 40
0.499985
100
AcDbArc
 50
180.39696104
 51
270.0
  0
LINE
  5
1AB
330
1D
100
AcDbEntity
  8
BLACK
  6
Continuous
100
AcDbLine
 10
74.162472
 20
-64.14999999999999
 30
0.0
 11
87.768952
 21
-64.14999999999999
 31
0.0
  0
ARC
  5
1AC
330
1D
100
AcDbEntity
  8
BLACK
100
AcDbCircle
 10
87.762472
 20
-63.650015
 30
0.0
 40
0.500028
100
AcDbArc
 50
270.74253401
 51
0.0
  0
LINE
  5
1AD
330
1D
100
AcDbEntity
  8
BLACK
  6
Continuous
100
AcDbLine
 10
88.2625
 20
-63.650015
 30
0.0
 11
88.2625
 21
-50.650015
 31
0.0
  0
ARC
  5
1AE
330
1D
100
AcDbEntity
  8
BLACK
100
AcDbCircle
 10
87.762472
 20
-50.650015
 30
0.0
 40
0.500015
100
AcDbArc
 50
0.0
 51
90.0
  0
LINE
  5
1AF
330
1D
100
AcDbEntity
  8
BLACK
  6
Continuous
100
AcDbLine
 10
87.762472
 20
-50.15
 30
0.0
 11
74.1625
 21
-50.15
 31
0.0
  0
ARC
  5
1B0
330
1D
100
AcDbEntity
  8
BLACK
100
AcDbCircle
 10
74.162472
 20
-50.650015
 30
0.0
 40
0.499972
100
AcDbArc
 50
89.99679153000001
 51
180.0
  0
LINE
  5
1B1
330
1D
100
AcDbEntity
  8
BLACK
  6
Continuous
100
AcDbLine
 10
149.8625
 20
-50.650015
 30
0.0
 11
149.8625
 21
-63.653479
 31
0.0
  0
ARC
  5
1B2
330
1D
100
AcDbEntity
  8
BLACK
100
AcDbCircle
 10
150.362472
 20
-63.650015
 30
0.0
 40
0.499985
100
AcDbArc
 50
180.39696104
 51
270.0
  0
LINE
  5
1B3
330
1D
100
AcDbEntity
  8
BLACK
  6
Continuous
100
AcDbLine
 10
150.362472
 20
-64.14999999999999
 30
0.0
 11
163.968952
 21
-64.14999999999999
 31
0.0
  0
ARC
  5
1B4
330
1D
100
AcDbEntity
  8
BLACK
100
AcDbCircle
 10
163.962472
 20
-63.650015
 30
0.0
 40
0.500028
100
AcDbArc
 50
270.74253401
 51
0.0
  0
LINE
  5
1B5
330
1D
100
AcDbEntity
  8
BLACK
  6
Continuous
100
AcDbLine
 10
164.4625
 20
-63.650015
 30
0.0
 11
164.4625
 21
-50.650015
 31
0.0
  0
ARC
  5
1B6
330
1D
100
AcDbEntity
  8
BLACK
100
AcDbCircle
 10
163.962472
 20
-50.650015
 30
0.0
 40
0.500015
100
AcDbArc
 50
0.0
 51
90.0
  0
LINE
  5
1B7
330
1D
100
AcDbEntity
  8
BLACK
  6
Continuous
100
AcDbLine
 10
163.962472
 20
-50.15
 30
0.0
 11
150.3625
 21
-50.15
 31
0.0
  0
ARC
  5
1B8
330
1D
100
AcDbEntity
  8
BLACK
100
AcDbCircle
 10
150.362472
 20
-50.650015
 30
0.0
 40
0.499972
100
AcDbArc
 50
89.99679153000001
 51
180.0
  0
LINE
  5
1B9
330
1D
100
AcDbEntity
  8
BLACK
  6
Continuous
100
AcDbLine
 10
45.0875
 20
-31.600015
 30
0.0
 11
45.0875
 21
-44.603479
 31
0.0
  0
ARC
  5
1BA
330
1D
100
AcDbEntity
  8
BLACK
100
AcDbCircle
 10
45.587472
 20
-44.600015
 30
0.0
 40
0.499985
100
AcDbArc
 50
180.39696104
 51
270.0
  0
LINE
  5
1BB
330
1D
100
AcDbEntity
  8
BLACK
  6
Continuous
100
AcDbLine
 10
45.587472
 20
-45.1
 30
0.0
 11
59.193952
 21
-45.1
 31
0.0
  0
ARC
  5
1BC
330
1D
100
AcDbEntity
  8
BLACK
100
AcDbCircle
 10
59.187472
 20
-44.600015
 30
0.0
 40
0.500028
100
AcDbArc
 50
270.74253401
 51
0.0
  0
LINE
  5
1BD
330
1D
100
AcDbEntity
  8
BLACK
  6
Continuous
100
AcDbLine
 10
59.6875
 20
-44.600015
 30
0.0
 11
59.6875
 21
-31.600015
 31
0.0
  0
ARC
  5
1BE
330
1D
100
AcDbEntity
  8
BLACK
100
AcDbCircle
 10
59.187472
 20
-31.600015
 30
0.0
 40
0.500015
100
AcDbArc
 50
0.0
 51
90.0
  0
LINE
  5
1BF
330
1D
100
AcDbEntity
  8
BLACK
  6
Continuous
100
AcDbLine
 10
59.187472
 20
-31.1
 30
0.0
 11
45.5875
 21
-31.1
 31
0.0
  0
ARC
  5
1C0
330
1D
100
AcDbEntity
  8
BLACK
100
AcDbCircle
 10
45.587472
 20
-31.600015
 30
0.0
 40
0.499972
100
AcDbArc
 50
89.99679153000001
 51
180.0
  0
LINE
  5
1C1
330
1D
100
AcDbEntity
  8
BLACK
  6
Continuous
100
AcDbLine
 10
49.84999999999999
 20
6.499985
 30
0.0
 11
49.84999999999999
 21
-6.503479
 31
0.0
  0
ARC
  5
1C2
330
1D
100
AcDbEntity
  8
BLACK
100
AcDbCircle
 10
50.349972
 20
-6.500014999999999
 30
0.0
 40
0.499985
100
AcDbArc
 50
180.39696104
 51
270.0
  0
LINE
  5
1C3
330
1D
100
AcDbEntity
  8
BLACK
  6
Continuous
100
AcDbLine
 10
50.349972
 20
-7.0
 30
0.0
 11
63.956452
 21
-7.0
 31
0.0
  0
ARC
  5
1C4
330
1D
100
AcDbEntity
  8
BLACK
100
AcDbCircle
 10
63.949972
 20
-6.500014999999999
 30
0.0
 40
0.500028
100
AcDbArc
 50
270.74253401
 51
0.0
  0
LINE
  5
1C5
330
1D
100
AcDbEntity
  8
BLACK
  6
Continuous
100
AcDbLine
 10
64.45
 20
-6.500014999999999
 30
0.0
 11
64.45
 21
6.499985
 31
0.0
  0
ARC
  5
1C6
330
1D
100
AcDbEntity
  8
BLACK
100
AcDbCircle
 10
63.949972
 20
6.499985
 30
0.0
 40
0.500015
100
AcDbArc
 50
0.0
 51
90.0
  0
LINE
  5
1C7
330
1D
100
AcDbEntity
  8
BLACK
  6
Continuous
100
AcDbLine
 10
63.949972
 20
7.0
 30
0.0
 11
50.34999999999999
 21
7.0
 31
0.0
  0
ARC
  5
1C8
330
1D
100
AcDbEntity
  8
BLACK
100
AcDbCircle
 10
50.349972
 20
6.499985
 30
0.0
 40
0.499972
100
AcDbArc
 50
89.99679153000001
 51
180.0
  0
LINE
  5
1C9
330
1D
100
AcDbEntity
  8
BLACK
  6
Continuous
100
AcDbLine
 10
30.8
 20
6.499985
 30
0.0
 11
30.8
 21
-6.503479
 31
0.0
  0
ARC
  5
1CA
330
1D
100
AcDbEntity
  8
BLACK
100
AcDbCircle
 10
31.299972
 20
-6.500014999999999
 30
0.0
 40
0.499985
100
AcDbArc
 50
180.39696104
 51
270.0
  0
LINE
  5
1CB
330
1D
100
AcDbEntity
  8
BLACK
  6
Continuous
100
AcDbLine
 10
31.299972
 20
-7.0
 30
0.0
 11
44.90645199999999
 21
-7.0
 31
0.0
  0
ARC
  5
1CC
330
1D
100
AcDbEntity
  8
BLACK
100
AcDbCircle
 10
44.899972
 20
-6.500014999999999
 30
0.0
 40
0.500028
100
AcDbArc
 50
270.74253401
 51
0.0
  0
LINE
  5
1CD
330
1D
100
AcDbEntity
  8
BLACK
  6
Continuous
100
AcDbLine
 10
45.4
 20
-6.500014999999999
 30
0.0
 11
45.4
 21
6.499985
 31
0.0
  0
ARC
  5
1CE
330
1D
100
AcDbEntity
  8
BLACK
100
AcDbCircle
 10
44.899972
 20
6.499985
 30
0.0
 40
0.500015
100
AcDbArc
 50
0.0
 51
90.0
  0
LINE
  5
1CF
330
1D
100
AcDbEntity
  8
BLACK
  6
Continuous
100
AcDbLine
 10
44.899972
 20
7.0
 30
0.0
 11
31.3
 21
7.0
 31
0.0
  0
ARC
  5
1D0
330
1D
100
AcDbEntity
  8
BLACK
100
AcDbCircle
 10
31.299972
 20
6.499985
 30
0.0
 40
0.499972
100
AcDbArc
 50
89.99679153000001
 51
180.0
  0
LINE
  5
1D1
330
1D
100
AcDbEntity
  8
BLACK
  6
Continuous
100
AcDbLine
 10
102.2375
 20
-31.600015
 30
0.0
 11
102.2375
 21
-44.603479
 31
0.0
  0
ARC
  5
1D2
330
1D
100
AcDbEntity
  8
BLACK
100
AcDbCircle
 10
102.737472
 20
-44.600015
 30
0.0
 40
0.499985
100
AcDbArc
 50
180.39696104
 51
270.0
  0
LINE
  5
1D3
330
1D
100
AcDbEntity
  8
BLACK
  6
Continuous
100
AcDbLine
 10
102.737472
 20
-45.1
 30
0.0
 11
116.343952
 21
-45.1
 31
0.0
  0
ARC
  5
1D4
330
1D
100
AcDbEntity
  8
BLACK
100
AcDbCircle
 10
116.337472
 20
-44.600015
 30
0.0
 40
0.500028
100
AcDbArc
 50
270.74253401
 51
0.0
  0
LINE
  5
1D5
330
1D
100
AcDbEntity
  8
BLACK
  6
Continuous
100
AcDbLine
 10
116.8375
 20
-44.600015
 30
0.0
 11
116.8375
 21
-31.600015
 31
0.0
  0
ARC
  5
1D6
330
1D
100
AcDbEntity
  8
BLACK
100
AcDbCircle
 10
116.337472
 20
-31.600015
 30
0.0
 40
0.500015
100
AcDbArc
 50
0.0
 51
90.0
  0
LINE
  5
1D7
330
1D
100
AcDbEntity
  8
BLACK
  6
Continuous
100
AcDbLine
 10
116.337472
 20
-31.1
 30
0.0
 11
102.7375
 21
-31.1
 31
0.0
  0
ARC
  5
1D8
330
1D
100
AcDbEntity
  8
BLACK
100
AcDbCircle
 10
102.737472
 20
-31.600015
 30
0.0
 40
0.499972
100
AcDbArc
 50
89.99679153000001
 51
180.0
  0
LINE
  5
1D9
330
1D
100
AcDbEntity
  8
BLACK
  6
Continuous
100
AcDbLine
 10
92.71249999999999
 20
-50.650015
 30
0.0
 11
92.71249999999999
 21
-63.653479
 31
0.0
  0
ARC
  5
1DA
330
1D
100
AcDbEntity
  8
BLACK
100
AcDbCircle
 10
93.21247199999999
 20
-63.650015
 30
0.0
 40
0.499985
100
AcDbArc
 50
180.39696104
 51
270.0
  0
LINE
  5
1DB
330
1D
100
AcDbEntity
  8
BLACK
  6
Continuous
100
AcDbLine
 10
93.21247199999999
 20
-64.14999999999999
 30
0.0
 11
106.818952
 21
-64.14999999999999
 31
0.0
  0
ARC
  5
1DC
330
1D
100
AcDbEntity
  8
BLACK
100
AcDbCircle
 10
106.812472
 20
-63.650015
 30
0.0
 40
0.500028
100
AcDbArc
 50
270.74253401
 51
0.0
  0
LINE
  5
1DD
330
1D
100
AcDbEntity
  8
BLACK
  6
Continuous
100
AcDbLine
 10
107.3125
 20
-63.650015
 30
0.0
 11
107.3125
 21
-50.650015
 31
0.0
  0
ARC
  5
1DE
330
1D
100
AcDbEntity
  8
BLACK
100
AcDbCircle
 10
106.812472
 20
-50.650015
 30
0.0
 40
0.500015
100
AcDbArc
 50
0.0
 51
90.0
  0
LINE
  5
1DF
330
1D
100
AcDbEntity
  8
BLACK
  6
Continuous
100
AcDbLine
 10
106.812472
 20
-50.15
 30
0.0
 11
93.21249999999999
 21
-50.15
 31
0.0
  0
ARC
  5
1E0
330
1D
100
AcDbEntity
  8
BLACK
100
AcDbCircle
 10
93.21247199999999
 20
-50.650015
 30
0.0
 40
0.499972
100
AcDbArc
 50
89.99679153000001
 51
180.0
  0
LINE
  5
1E1
330
1D
100
AcDbEntity
  8
BLACK
  6
Continuous
100
AcDbLine
 10
97.475
 20
-12.550015
 30
0.0
 11
97.475
 21
-25.553479
 31
0.0
  0
ARC
  5
1E2
330
1D
100
AcDbEntity
  8
BLACK
100
AcDbCircle
 10
97.974972
 20
-25.550015
 30
0.0
 40
0.499985
100
AcDbArc
 50
180.39696104
 51
270.0
  0
LINE
  5
1E3
330
1D
100
AcDbEntity
  8
BLACK
  6
Continuous
100
AcDbLine
 10
97.974972
 20
-26.05
 30
0.0
 11
111.581452
 21
-26.05
 31
0.0
  0
ARC
  5
1E4
330
1D
100
AcDbEntity
  8
BLACK
100
AcDbCircle
 10
111.574972
 20
-25.550015
 30
0.0
 40
0.500028
100
AcDbArc
 50
270.74253401
 51
0.0
  0
LINE
  5
1E5
330
1D
100
AcDbEntity
  8
BLACK
  6
Continuous
100
AcDbLine
 10
112.075
 20
-25.550015
 30
0.0
 11
112.075
 21
-12.550015
 31
0.0
  0
ARC
  5
1E6
330
1D
100
AcDbEntity
  8
BLACK
100
AcDbCircle
 10
111.574972
 20
-12.550015
 30
0.0
 40
0.500015
100
AcDbArc
 50
0.0
 51
90.0
  0
LINE
  5
1E7
330
1D
100
AcDbEntity
  8
BLACK
  6
Continuous
100
AcDbLine
 10
111.574972
 20
-12.05
 30
0.0
 11
97.975
 21
-12.05
 31
0.0
  0
ARC
  5
1E8
330
1D
100
AcDbEntity
  8
BLACK
100
AcDbCircle
 10
97.974972
 20
-12.550015
 30
0.0
 40
0.499972
100
AcDbArc
 50
89.99679153000001
 51
180.0
  0
LINE
  5
1E9
330
1D
100
AcDbEntity
  8
BLACK
  6
Continuous
100
AcDbLine
 10
-7.3
 20
6.499985
 30
0.0
 11
-7.3
 21
-6.503479
 31
0.0
  0
ARC
  5
1EA
330
1D
100
AcDbEntity
  8
BLACK
100
AcDbCircle
 10
-6.800027999999999
 20
-6.500014999999999
 30
0.0
 40
0.499985
100
AcDbArc
 50
180.39696104
 51
270.0
  0
LINE
  5
1EB
330
1D
100
AcDbEntity
  8
BLACK
  6
Continuous
100
AcDbLine
 10
-6.800027999999999
 20
-7.0
 30
0.0
 11
6.806451999999999
 21
-7.0
 31
0.0
  0
ARC
  5
1EC
330
1D
100
AcDbEntity
  8
BLACK
100
AcDbCircle
 10
6.799971999999999
 20
-6.500014999999999
 30
0.0
 40
0.500028
100
AcDbArc
 50
270.74253401
 51
0.0
  0
LINE
  5
1ED
330
1D
100
AcDbEntity
  8
BLACK
  6
Continuous
100
AcDbLine
 10
7.3
 20
-6.500014999999999
 30
0.0
 11
7.3
 21
6.499985
 31
0.0
  0
ARC
  5
1EE
330
1D
100
AcDbEntity
  8
BLACK
100
AcDbCircle
 10
6.799971999999999
 20
6.499985
 30
0.0
 40
0.500015
100
AcDbArc
 50
0.0
 51
90.0
  0
LINE
  5
1EF
330
1D
100
AcDbEntity
  8
BLACK
  6
Continuous
100
AcDbLine
 10
6.799971999999999
 20
7.0
 30
0.0
 11
-6.799999
 21
7.0
 31
0.0
  0
ARC
  5
1F0
330
1D
100
AcDbEntity
  8
BLACK
100
AcDbCircle
 10
-6.800027999999999
 20
6.499985
 30
0.0
 40
0.499972
100
AcDbArc
 50
89.99667694
 51
180.0
  0
CIRCLE
  5
1F1
330
1D
100
AcDbEntity
  8
BLACK
100
AcDbCircle
 10
16.04875
 20
-18.7
 30
0.0
 40
1.0
  0
CIRCLE
  5
1F2
330
1D
100
AcDbEntity
  8
BLACK
100
AcDbCircle
 10
250.9012
 20
-18.7
 30
0.0
 40
1.0
  0
CIRCLE
  5
1F3
330
1D
100
AcDbEntity
  8
BLACK
100
AcDbCircle
 10
119.0625
 20
-38.1
 30
0.0
 40
1.0
  0
CIRCLE
  5
1F4
330
1D
100
AcDbEntity
  8
BLACK
100
AcDbCircle
 10
272.7
 20
13.600046
 30
0.0
 40
1.25
  0
CIRCLE
  5
1F5
330
1D
100
AcDbEntity
  8
BLACK
100
AcDbCircle
 10
88.89999999999999
 20
13.600046
 30
0.0
 40
1.25
  0
CIRCLE
  5
1F6
330
1D
100
AcDbEntity
  8
BLACK
100
AcDbCircle
 10
177.8
 20
13.600046
 30
0.0
 40
1.25
  0
CIRCLE
  5
1F7
330
1D
100
AcDbEntity
  8
BLACK
100
AcDbCircle
 10
-6.0
 20
13.600046
 30
0.0
 40
1.25
  0
CIRCLE
  5
1F8
330
1D
100
AcDbEntity
  8
BLACK
100
AcDbCircle
 10
-6.0
 20
-89.8
 30
0.0
 40
1.25
  0
CIRCLE
  5
1F9
330
1D
100
AcDbEntity
  8
BLACK
100
AcDbCircle
 10
88.89999999999999
 20
-89.8
 30
0.0
 40
1.25
  0
CIRCLE
  5
1FA
330
1D
100
AcDbEntity
  8
BLACK
100
AcDbCircle
 10
177.8
 20
-89.8
 30
0.0
 40
1.25
  0
CIRCLE
  5
1FB
330
1D
100
AcDbEntity
  8
BLACK
100
AcDbCircle
 10
272.7
 20
-89.8
 30
0.0
 40
1.25
  0
ARC
  5
1FC
330
1D
100
AcDbEntity
  8
BLACK
100
AcDbCircle
 10
-6.025048
 20
13.175105
 30
0.0
 40
3.99995200005
100
AcDbArc
 50
89.99971352
 51
180.00028648
  0
LINE
  5
1FD
330
1D
100
AcDbEntity
  8
BLACK
  6
Continuous
100
AcDbLine
 10
6.025072
 20
17.175069
 30
0.0
 11
-6.025028
 21
17.175069
 31
0.0
  0
ARC
  5
1FE
330
1D
100
AcDbEntity
  8
BLACK
100
AcDbCircle
 10
6.024972
 20
13.174985
 30
0.0
 40
4.000084001249974
100
AcDbArc
 50
0.3045936899999999
 51
89.99856764
  0
LINE
  5
1FF
330
1D
100
AcDbEntity
  8
BLACK
  6
Continuous
100
AcDbLine
 10
10.025
 20
11.925074
 30
0.0
 11
10.025
 21
13.19625
 31
0.0
  0
ARC
  5
200
330
1D
100
AcDbEntity
  8
BLACK
100
AcDbCircle
 10
12.025072
 20
11.924985
 30
0.0
 40
1.999962
100
AcDbArc
 50
179.99745033
 51
270.0
  0
LINE
  5
201
330
1D
100
AcDbEntity
  8
BLACK
  6
Continuous
100
AcDbLine
 10
76.866546
 20
9.925023
 30
0.0
 11
12.025072
 21
9.925023
 31
0.0
  0
ARC
  5
202
330
1D
100
AcDbEntity
  8
BLACK
100
AcDbCircle
 10
76.875072
 20
11.924985
 30
0.0
 40
1.999928
100
AcDbArc
 50
269.7557449299999
 51
0.0
  0
LINE
  5
203
330
1D
100
AcDbEntity
  8
BLACK
  6
Continuous
100
AcDbLine
 10
78.875
 20
13.175085
 30
0.0
 11
78.875
 21
11.924985
 31
0.0
  0
ARC
  5
204
330
1D
100
AcDbEntity
  8
BLACK
100
AcDbCircle
 10
82.874972
 20
13.175085
 30
0.0
 40
3.999972
100
AcDbArc
 50
90.13435967
 51
180.0
  0
LINE
  5
205
330
1D
100
AcDbEntity
  8
BLACK
  6
Continuous
100
AcDbLine
 10
94.925072
 20
17.175046
 30
0.0
 11
82.86559199999999
 21
17.175046
 31
0.0
  0
ARC
  5
206
330
1D
100
AcDbEntity
  8
BLACK
100
AcDbCircle
 10
94.924972
 20
13.174985
 30
0.0
 40
4.000061001249981
100
AcDbArc
 50
0.23415058
 51
89.99856763
  0
LINE
  5
207
330
1D
100
AcDbEntity
  8
BLACK
  6
Continuous
100
AcDbLine
 10
98.925
 20
11.925074
 30
0.0
 11
98.925
 21
13.191332
 31
0.0
  0
ARC
  5
208
330
1D
100
AcDbEntity
  8
BLACK
100
AcDbCircle
 10
100.925072
 20
11.924985
 30
0.0
 40
1.999962
100
AcDbArc
 50
179.99745033
 51
270.0
  0
LINE
  5
209
330
1D
100
AcDbEntity
  8
BLACK
  6
Continuous
100
AcDbLine
 10
165.766546
 20
9.925023
 30
0.0
 11
100.925072
 21
9.925023
 31
0.0
  0
ARC
  5
20A
330
1D
100
AcDbEntity
  8
BLACK
100
AcDbCircle
 10
165.775072
 20
11.924985
 30
0.0
 40
1.999928
100
AcDbArc
 50
269.7557449299999
 51
0.0
  0
LINE
  5
20B
330
1D
100
AcDbEntity
  8
BLACK
  6
Continuous
100
AcDbLine
 10
167.775
 20
13.174985
 30
0.0
 11
167.775
 21
11.924985
 31
0.0
  0
ARC
  5
20C
330
1D
100
AcDbEntity
  8
BLACK
100
AcDbCircle
 10
171.775072
 20
13.174985
 30
0.0
 40
4.000071999999999
100
AcDbArc
 50
90.23622692
 51
180.0
  0
LINE
  5
20D
330
1D
100
AcDbEntity
  8
BLACK
  6
Continuous
100
AcDbLine
 10
183.825072
 20
17.175023
 30
0.0
 11
171.75858
 21
17.175023
 31
0.0
  0
ARC
  5
20E
330
1D
100
AcDbEntity
  8
BLACK
100
AcDbCircle
 10
183.824972
 20
13.174885
 30
0.0
 40
4.000138001249956
100
AcDbArc
 50
0.42632704
 51
89.99856765
  0
LINE
  5
20F
330
1D
100
AcDbEntity
  8
BLACK
  6
Continuous
100
AcDbLine
 10
187.825
 20
11.925074
 30
0.0
 11
187.825
 21
13.204649
 31
0.0
  0
ARC
  5
210
330
1D
100
AcDbEntity
  8
BLACK
100
AcDbCircle
 10
189.825072
 20
11.924985
 30
0.0
 40
1.999962
100
AcDbArc
 50
179.99745033
 51
270.0
  0
LINE
  5
211
330
1D
100
AcDbEntity
  8
BLACK
  6
Continuous
100
AcDbLine
 10
254.666546
 20
9.925023
 30
0.0
 11
189.825072
 21
9.925023
 31
0.0
  0
ARC
  5
212
330
1D
100
AcDbEntity
  8
BLACK
100
AcDbCircle
 10
254.675072
 20
11.924985
 30
0.0
 40
1.999928
100
AcDbArc
 50
269.7557449299999
 51
0.0
  0
LINE
  5
213
330
1D
100
AcDbEntity
  8
BLACK
  6
Continuous
100
AcDbLine
 10
256.675
 20
13.174985
 30
0.0
 11
256.675
 21
11.924985
 31
0.0
  0
ARC
  5
214
330
1D
100
AcDbEntity
  8
BLACK
100
AcDbCircle
 10
260.675072
 20
13.174985
 30
0.0
 40
4.000071999999999
100
AcDbArc
 50
90.23622692
 51
180.0
  0
LINE
  5
215
330
1D
100
AcDbEntity
  8
BLACK
  6
Continuous
100
AcDbLine
 10
272.724972
 20
17.175023
 30
0.0
 11
260.65858
 21
17.175023
 31
0.0
  0
ARC
  5
216
330
1D
100
AcDbEntity
  8
BLACK
100
AcDbCircle
 10
272.724872
 20
13.174885
 30
0.0
 40
4.000138001249956
100
AcDbArc
 50
0.24785374
 51
89.99856765
  0
LINE
  5
217
330
1D
100
AcDbEntity
  8
BLACK
  6
Continuous
100
AcDbLine
 10
276.724973
 20
-89.375115
 30
0.0
 11
276.724973
 21
13.192189
 31
0.0
  0
ARC
  5
218
330
1D
100
AcDbEntity
  8
BLACK
100
AcDbCircle
 10
272.724972
 20
-89.37501499999999
 30
0.0
 40
4.000001001249999
100
AcDbArc
 50
270.25117115
 51
359.99856761
  0
LINE
  5
219
330
1D
100
AcDbEntity
  8
BLACK
  6
Continuous
100
AcDbLine
 10
260.675072
 20
-93.374977
 30
0.0
 11
272.742507
 21
-93.374977
 31
0.0
  0
ARC
  5
21A
330
1D
100
AcDbEntity
  8
BLACK
100
AcDbCircle
 10
260.675072
 20
-89.37501499999999
 30
0.0
 40
3.999962
100
AcDbArc
 50
179.99872517
 51
270.0
  0
LINE
  5
21B
330
1D
100
AcDbEntity
  8
BLACK
  6
Continuous
100
AcDbLine
 10
256.675
 20
-88.145991
 30
0.0
 11
256.675
 21
-89.374926
 31
0.0
  0
ARC
  5
21C
330
1D
100
AcDbEntity
  8
BLACK
100
AcDbCircle
 10
254.674972
 20
-88.125115
 30
0.0
 40
2.000138
100
AcDbArc
 50
359.40197674
 51
90.0
  0
LINE
  5
21D
330
1D
100
AcDbEntity
  8
BLACK
  6
Continuous
100
AcDbLine
 10
189.836734
 20
-86.124977
 30
0.0
 11
254.674972
 21
-86.124977
 31
0.0
  0
ARC
  5
21E
330
1D
100
AcDbEntity
  8
BLACK
100
AcDbCircle
 10
189.825072
 20
-88.12501499999999
 30
0.0
 40
2.000072
100
AcDbArc
 50
89.66591844
 51
180.0
  0
LINE
  5
21F
330
1D
100
AcDbEntity
  8
BLACK
  6
Continuous
100
AcDbLine
 10
187.825
 20
-89.37501499999999
 30
0.0
 11
187.825
 21
-88.12501499999999
 31
0.0
  0
ARC
  5
220
330
1D
100
AcDbEntity
  8
BLACK
100
AcDbCircle
 10
183.825072
 20
-89.37501499999999
 30
0.0
 40
3.999928
100
AcDbArc
 50
269.83238008
 51
0.0
  0
LINE
  5
221
330
1D
100
AcDbEntity
  8
BLACK
  6
Continuous
100
AcDbLine
 10
171.775072
 20
-93.374977
 30
0.0
 11
183.81337
 21
-93.374977
 31
0.0
  0
ARC
  5
222
330
1D
100
AcDbEntity
  8
BLACK
100
AcDbCircle
 10
171.775072
 20
-89.37501499999999
 30
0.0
 40
3.999962
100
AcDbArc
 50
179.99872517
 51
270.0
  0
LINE
  5
223
330
1D
100
AcDbEntity
  8
BLACK
  6
Continuous
100
AcDbLine
 10
167.775
 20
-88.145991
 30
0.0
 11
167.775
 21
-89.374926
 31
0.0
  0
ARC
  5
224
330
1D
100
AcDbEntity
  8
BLACK
100
AcDbCircle
 10
165.774972
 20
-88.125115
 30
0.0
 40
2.000138
100
AcDbArc
 50
359.40197674
 51
90.0
  0
LINE
  5
225
330
1D
100
AcDbEntity
  8
BLACK
  6
Continuous
100
AcDbLine
 10
100.936734
 20
-86.124977
 30
0.0
 11
165.774972
 21
-86.124977
 31
0.0
  0
ARC
  5
226
330
1D
100
AcDbEntity
  8
BLACK
100
AcDbCircle
 10
100.925072
 20
-88.12501499999999
 30
0.0
 40
2.000072
100
AcDbArc
 50
89.66591844
 51
180.0
  0
LINE
  5
227
330
1D
100
AcDbEntity
  8
BLACK
  6
Continuous
100
AcDbLine
 10
98.925
 20
-89.37501499999999
 30
0.0
 11
98.925
 21
-88.12501499999999
 31
0.0
  0
ARC
  5
228
330
1D
100
AcDbEntity
  8
BLACK
100
AcDbCircle
 10
94.924972
 20
-89.37501499999999
 30
0.0
 40
4.000027999999999
100
AcDbArc
 50
270.26255706
 51
0.0
  0
LINE
  5
229
330
1D
100
AcDbEntity
  8
BLACK
  6
Continuous
100
AcDbLine
 10
82.875072
 20
-93.375
 30
0.0
 11
94.943302
 21
-93.375
 31
0.0
  0
ARC
  5
22A
330
1D
100
AcDbEntity
  8
BLACK
100
AcDbCircle
 10
82.87517199999999
 20
-89.374715
 30
0.0
 40
4.00028500124991
100
AcDbArc
 50
180.43016446
 51
269.99856771
  0
LINE
  5
22B
330
1D
100
AcDbEntity
  8
BLACK
  6
Continuous
100
AcDbLine
 10
78.875
 20
-88.145991
 30
0.0
 11
78.875
 21
-89.404748
 31
0.0
  0
ARC
  5
22C
330
1D
100
AcDbEntity
  8
BLACK
100
AcDbCircle
 10
76.874972
 20
-88.125115
 30
0.0
 40
2.000138
100
AcDbArc
 50
359.40197674
 51
90.0
  0
LINE
  5
22D
330
1D
100
AcDbEntity
  8
BLACK
  6
Continuous
100
AcDbLine
 10
12.036561
 20
-86.124977
 30
0.0
 11
76.874972
 21
-86.124977
 31
0.0
  0
ARC
  5
22E
330
1D
100
AcDbEntity
  8
BLACK
100
AcDbCircle
 10
12.025072
 20
-88.12501499999999
 30
0.0
 40
2.000072
100
AcDbArc
 50
89.67087426999998
 51
180.0
  0
LINE
  5
22F
330
1D
100
AcDbEntity
  8
BLACK
  6
Continuous
100
AcDbLine
 10
10.025
 20
-89.37501499999999
 30
0.0
 11
10.025
 21
-88.12501499999999
 31
0.0
  0
ARC
  5
230
330
1D
100
AcDbEntity
  8
BLACK
100
AcDbCircle
 10
6.024972
 20
-89.37501499999999
 30
0.0
 40
4.000027999999999
100
AcDbArc
 50
270.17658468
 51
0.0
  0
LINE
  5
231
330
1D
100
AcDbEntity
  8
BLACK
  6
Continuous
100
AcDbLine
 10
-6.024928
 20
-93.375023
 30
0.0
 11
6.0373
 21
-93.375023
 31
0.0
  0
ARC
  5
232
330
1D
100
AcDbEntity
  8
BLACK
100
AcDbCircle
 10
-6.024827999999999
 20
-89.374715
 30
0.0
 40
4.000308001249904
100
AcDbArc
 50
180.58276368
 51
269.99856772
  0
LINE
  5
233
330
1D
100
AcDbEntity
  8
BLACK
  6
Continuous
100
AcDbLine
 10
-10.025
 20
-86.224978
 30
0.0
 11
-10.024928
 21
-89.415402
 31
0.0
  0
LINE
  5
234
330
1D
100
AcDbEntity
  8
BLACK
  6
Continuous
100
AcDbLine
 10
-10.025
 20
13.175085
 30
0.0
 11
-10.025
 21
-86.224978
 31
0.0
  0
ARC
  5
274
330
1D
100
AcDbEntity
  8
BLACK
100
AcDbCircle
 10
13.94375
 20
-31.6
 30
0.0
 40
0.5
100
AcDbArc
 50
0.0
 51
90.0
  0
ARC
  5
275
330
1D
100
AcDbEntity
  8
BLACK
100
AcDbCircle
 10
0.343751
 20
-44.599999
 30
0.0
 40
0.500001
100
AcDbArc
 50
180.00011459
 51
270.0
  0
ARC
  5
276
330
1D
100
AcDbEntity
  8
BLACK
100
AcDbCircle
 10
0.343751
 20
-31.600001
 30
0.0
 40
0.500001000001
100
AcDbArc
 50
90.0
 51
179.99988541
  0
LINE
  5
277
330
1D
100
AcDbEntity
  8
BLACK
  6
Continuous
100
AcDbLine
 10
0.343751
 20
-45.1
 30
0.0
 11
13.94375
 21
-45.1
 31
0.0
  0
LINE
  5
278
330
1D
100
AcDbEntity
  8
BLACK
  6
Continuous
100
AcDbLine
 10
13.94375
 20
-31.1
 30
0.0
 11
0.343751
 21
-31.1
 31
0.0
  0
ARC
  5
279
330
1D
100
AcDbEntity
  8
BLACK
100
AcDbCircle
 10
13.94375
 20
-44.6
 30
0.0
 40
0.5
100
AcDbArc
 50
270.0
 51
0.0
  0
LINE
  5
27A
330
1D
100
AcDbEntity
  8
BLACK
  6
Continuous
100
AcDbLine
 10
-0.15625
 20
-31.6
 30
0.0
 11
-0.15625
 21
-44.6
 31
0.0
  0
LINE
  5
27B
330
1D
100
AcDbEntity
  8
BLACK
  6
Continuous
100
AcDbLine
 10
14.44375
 20
-44.6
 30
0.0
 11
14.44375
 21
-31.6
 31
0.0
  0
CIRCLE
  5
27C
330
1D
100
AcDbEntity
  8
0
100
AcDbCircle
 10
238.125
 20
0.0
 30
0.0
 40
1.0
  0
LWPOLYLINE
  5
27D
330
1D
100
AcDbEntity
  8
0
100
AcDbPolyline
 90
8
 70
1
 10
259.4
 20
6.5
 10
259.4
 20
-6.5
 42
0.4142123908030417
 10
259.9
 20
-7.000000000000001
 10
273.5
 20
-7.000000000000001
 42
0.4142135623730951
 10
274.0
 20
-6.5
 10
274.0
 20
6.5
 42
0.4142135623730951
 10
273.5
 20
7.000000000000001
 10
259.9
 20
7.000000000000001
 42
0.4142123908030417
  0
LWPOLYLINE
  5
27E
330
1D
100
AcDbEntity
  8
0
100
AcDbPolyline
 90
8
 70
1
 10
240.35
 20
6.5
 10
240.35
 20
-6.5
 42
0.4142123908030417
 10
240.85
 20
-7.000000000000001
 10
254.45
 20
-7.000000000000001
 42
0.4142135623730951
 10
254.95
 20
-6.5
 10
254.95
 20
6.5
 42
0.4142135623730951
 10
254.45
 20
7.000000000000001
 10
240.85
 20
7.000000000000001
 42
0.4142123908030417
  0
CIRCLE
  5
27F
330
1D
100
AcDbEntity
  8
0
100
AcDbCircle
 10
33.33750000000001
 20
-57.15
 30
0.0
 40
1.0
  0
CIRCLE
  5
280
330
1D
100
AcDbEntity
  8
0
100
AcDbCircle
 10
-4.49375
 20
-64.35
 30
0.0
 40
1.0
  0
LWPOLYLINE
  5
281
330
1D
100
AcDbEntity
  8
0
100
AcDbPolyline
 90
8
 70
1
 10
-4.09375
 20
-50.675
 10
-4.09375
 20
-62.393
 10
-1.09375
 20
-64.125
 10
24.90625
 20
-64.125
 10
27.90625
 20
-62.393
 10
27.90625
 20
-50.675
 42
0.4142135623730951
 10
27.40625
 20
-50.175
 10
-3.59375
 20
-50.175
 42
0.4142123908030466
  0
CIRCLE
  5
282
330
1D
100
AcDbEntity
  8
0
100
AcDbCircle
 10
233.63125
 20
-64.35
 30
0.0
 40
1.0
  0
CIRCLE
  5
283
330
1D
100
AcDbEntity
  8
0
100
AcDbCircle
 10
266.43125
 20
-64.35
 30
0.0
 40
1.0
  0
LWPOLYLINE
  5
284
330
1D
100
AcDbEntity
  8
0
100
AcDbPolyline
 90
8
 70
1
 10
234.03125
 20
-50.675
 10
234.03125
 20
-62.393
 10
237.03125
 20
-64.125
 10
263.03125
 20
-64.125
 10
266.03125
 20
-62.393
 10
266.03125
 20
-50.675
 42
0.4142135623730951
 10
265.53125
 20
-50.175
 10
234.53125
 20
-50.175
 42
0.4142123908030397
  0
CIRCLE
  5
285
330
1D
100
AcDbEntity
  8
0
100
AcDbCircle
 10
271.4625
 20
-19.05
 30
0.0
 40
1.0
  0
CIRCLE
  5
286
330
1D
100
AcDbEntity
  8
0
100
AcDbCircle
 10
238.39375
 20
-45.3
 30
0.0
 40
1.0
  0
LWPOLYLINE
  5
287
330
1D
100
AcDbEntity
  8
0
100
AcDbPolyline
 90
8
 70
1
 10
238.79375
 20
-31.625
 10
238.79375
 20
-43.343
 10
241.79375
 20
-45.075
 10
267.79375
 20
-45.075
 10
270.79375
 20
-43.343
 10
270.79375
 20
-31.625
 42
0.4142135623730951
 10
270.29375
 20
-31.125
 10
239.29375
 20
-31.125
 42
0.4142123908030397
  0
LWPOLYLINE
  5
288
330
1D
100
AcDbEntity
  8
0
100
AcDbPolyline
 90
8
 70
1
 10
254.6375
 20
-12.55
 10
254.6375
 20
-25.55
 42
0.4142123908030632
 10
255.1375
 20
-26.05
 10
268.7375
 20
-26.05
 42
0.4142135623730951
 10
269.2375
 20
-25.55
 10
269.2375
 20
-12.55
 42
0.4142135623730951
 10
268.7375
 20
-12.05
 10
255.1375
 20
-12.05
 42
0.4142123908030618
  0
LINE
  5
289
330
1D
100
AcDbEntity
  8
Edge.Cuts
  6
CONTINUOUS
100
AcDbLine
 10
-2.5375
 20
-69.700001
 30
0.0
 11
-2.5375
 21
-82.69999899999999
 31
0.0
  0
ARC
  5
28A
330
1D
100
AcDbEntity
  8
Edge.Cuts
100
AcDbCircle
 10
-2.037478
 20
-69.700041
 30
0.0
 40
0.5000220015999296
100
AcDbArc
 50
90.00240623
 51
179.99541654
  0
ARC
  5
28B
330
1D
100
AcDbEntity
  8
Edge.Cuts
100
AcDbCircle
 10
-2.037478
 20
-82.700041
 30
0.0
 40
0.4999590004410361
100
AcDbArc
 50
-180.00481263
 51
-90.00240662
  0
LINE
  5
28C
330
1D
100
AcDbEntity
  8
Edge.Cuts
  6
CONTINUOUS
100
AcDbLine
 10
-2.037499
 20
-83.2
 30
0.0
 11
11.5625
 21
-83.2
 31
0.0
  0
LINE
  5
28D
330
1D
100
AcDbEntity
  8
Edge.Cuts
  6
CONTINUOUS
100
AcDbLine
 10
11.5625
 20
-69.2
 30
0.0
 11
-2.037499
 21
-69.2
 31
0.0
  0
ARC
  5
28E
330
1D
100
AcDbEntity
  8
Edge.Cuts
100
AcDbCircle
 10
11.562522
 20
-69.700041
 30
0.0
 40
0.5000410004839603
100
AcDbArc
 50
0.00469846
 51
90.00252081
  0
ARC
  5
28F
330
1D
100
AcDbEntity
  8
Edge.Cuts
100
AcDbCircle
 10
11.562522
 20
-82.700041
 30
0.0
 40
0.499978001681074
100
AcDbArc
 50
-90.00252122
 51
0.00469846
  0
LINE
  5
290
330
1D
100
AcDbEntity
  8
Edge.Cuts
  6
CONTINUOUS
100
AcDbLine
 10
12.0625
 20
-82.7
 30
0.0
 11
12.0625
 21
-69.7
 31
0.0
  0
CIRCLE
  5
291
330
1D
100
AcDbEntity
  8
Edge.Cuts
100
AcDbCircle
 10
15.478124999999999
 20
-76.2
 30
0.0
 40
1.0
  0
LINE
  5
292
330
1D
100
AcDbEntity
  8
Edge.Cuts
  6
CONTINUOUS
100
AcDbLine
 10
21.275
 20
-69.7
 30
0.0
 11
21.275
 21
-82.7
 31
0.0
  0
ARC
  5
293
330
1D
100
AcDbEntity
  8
Edge.Cuts
100
AcDbCircle
 10
21.775022
 20
-69.700041
 30
0.0
 40
0.500022001680926
100
AcDbArc
 50
90.00252081
 51
179.99530195
  0
ARC
  5
294
330
1D
100
AcDbEntity
  8
Edge.Cuts
100
AcDbCircle
 10
21.775022
 20
-82.700041
 30
0.0
 40
0.4999590004840397
100
AcDbArc
 50
-180.00469805
 51
-90.00252122
  0
LINE
  5
295
330
1D
100
AcDbEntity
  8
Edge.Cuts
  6
CONTINUOUS
100
AcDbLine
 10
21.775
 20
-83.2
 30
0.0
 11
35.375
 21
-83.2
 31
0.0
  0
LINE
  5
296
330
1D
100
AcDbEntity
  8
Edge.Cuts
  6
CONTINUOUS
100
AcDbLine
 10
35.375
 20
-69.2
 30
0.0
 11
21.775
 21
-69.2
 31
0.0
  0
ARC
  5
297
330
1D
100
AcDbEntity
  8
Edge.Cuts
100
AcDbCircle
 10
35.375022
 20
-69.700041
 30
0.0
 40
0.5000410004839603
100
AcDbArc
 50
0.00469846
 51
90.00252081
  0
ARC
  5
298
330
1D
100
AcDbEntity
  8
Edge.Cuts
100
AcDbCircle
 10
35.375022
 20
-82.700041
 30
0.0
 40
0.499978001681074
100
AcDbArc
 50
-90.00252122
 51
0.00469846
  0
LINE
  5
299
330
1D
100
AcDbEntity
  8
Edge.Cuts
  6
CONTINUOUS
100
AcDbLine
 10
35.875
 20
-82.7
 30
0.0
 11
35.875
 21
-69.7
 31
0.0
  0
CIRCLE
  5
29A
330
1D
100
AcDbEntity
  8
Edge.Cuts
100
AcDbCircle
 10
39.290625
 20
-76.2
 30
0.0
 40
1.0
  0
LINE
  5
29B
330
1D
100
AcDbEntity
  8
Edge.Cuts
  6
CONTINUOUS
100
AcDbLine
 10
45.0875
 20
-69.7
 30
0.0
 11
45.0875
 21
-82.7
 31
0.0
  0
ARC
  5
29C
330
1D
100
AcDbEntity
  8
Edge.Cuts
100
AcDbCircle
 10
45.587522
 20
-69.700041
 30
0.0
 40
0.500022001680926
100
AcDbArc
 50
90.00252081
 51
179.99530195
  0
ARC
  5
29D
330
1D
100
AcDbEntity
  8
Edge.Cuts
100
AcDbCircle
 10
45.587522
 20
-82.700041
 30
0.0
 40
0.4999590004840397
100
AcDbArc
 50
-180.00469805
 51
-90.00252122
  0
LINE
  5
29E
330
1D
100
AcDbEntity
  8
Edge.Cuts
  6
CONTINUOUS
100
AcDbLine
 10
45.5875
 20
-83.2
 30
0.0
 11
59.1875
 21
-83.2
 31
0.0
  0
LINE
  5
29F
330
1D
100
AcDbEntity
  8
Edge.Cuts
  6
CONTINUOUS
100
AcDbLine
 10
59.1875
 20
-69.2
 30
0.0
 11
45.5875
 21
-69.2
 31
0.0
  0
ARC
  5
2A0
330
1D
100
AcDbEntity
  8
Edge.Cuts
100
AcDbCircle
 10
59.187521999999994
 20
-69.700041
 30
0.0
 40
0.5000410004839603
100
AcDbArc
 50
0.00469846
 51
90.00252081
  0
ARC
  5
2A1
330
1D
100
AcDbEntity
  8
Edge.Cuts
100
AcDbCircle
 10
59.187521999999994
 20
-82.700041
 30
0.0
 40
0.499978001681074
100
AcDbArc
 50
-90.00252122
 51
0.00469846
  0
LINE
  5
2A2
330
1D
100
AcDbEntity
  8
Edge.Cuts
  6
CONTINUOUS
100
AcDbLine
 10
59.6875
 20
-82.7
 30
0.0
 11
59.6875
 21
-69.7
 31
0.0
  0
CIRCLE
  5
2A3
330
1D
100
AcDbEntity
  8
Edge.Cuts
100
AcDbCircle
 10
61.912499999999994
 20
-76.2
 30
0.0
 40
1.0
  0
CIRCLE
  5
2A4
330
1D
100
AcDbEntity
  8
Edge.Cuts
100
AcDbCircle
 10
104.77499999999999
 20
-76.2
 30
0.0
 40
1.0
  0
LINE
  5
2A5
330
1D
100
AcDbEntity
  8
Edge.Cuts
  6
CONTINUOUS
100
AcDbLine
 10
126.05
 20
-69.7
 30
0.0
 11
126.05
 21
-82.7
 31
0.0
  0
ARC
  5
2A6
330
1D
100
AcDbEntity
  8
Edge.Cuts
100
AcDbCircle
 10
126.550022
 20
-69.700041
 30
0.0
 40
0.500022001680926
100
AcDbArc
 50
90.00252081
 51
179.99530195
  0
ARC
  5
2A7
330
1D
100
AcDbEntity
  8
Edge.Cuts
100
AcDbCircle
 10
126.550022
 20
-82.700041
 30
0.0
 40
0.4999590004840397
100
AcDbArc
 50
-180.00469805
 51
-90.00252122
  0
LINE
  5
2A8
330
1D
100
AcDbEntity
  8
Edge.Cuts
  6
CONTINUOUS
100
AcDbLine
 10
126.55
 20
-83.2
 30
0.0
 11
140.15
 21
-83.2
 31
0.0
  0
LINE
  5
2A9
330
1D
100
AcDbEntity
  8
Edge.Cuts
  6
CONTINUOUS
100
AcDbLine
 10
140.15
 20
-69.2
 30
0.0
 11
126.55
 21
-69.2
 31
0.0
  0
ARC
  5
2AA
330
1D
100
AcDbEntity
  8
Edge.Cuts
100
AcDbCircle
 10
140.150022
 20
-69.700041
 30
0.0
 40
0.5000410004839603
100
AcDbArc
 50
0.00469846
 51
90.00252081
  0
ARC
  5
2AB
330
1D
100
AcDbEntity
  8
Edge.Cuts
100
AcDbCircle
 10
140.150022
 20
-82.700041
 30
0.0
 40
0.499978001681074
100
AcDbArc
 50
-90.00252122
 51
0.00469846
  0
LINE
  5
2AC
330
1D
100
AcDbEntity
  8
Edge.Cuts
  6
CONTINUOUS
100
AcDbLine
 10
140.65
 20
-82.7
 30
0.0
 11
140.65
 21
-69.7
 31
0.0
  0
CIRCLE
  5
2AD
330
1D
100
AcDbEntity
  8
Edge.Cuts
100
AcDbCircle
 10
142.875
 20
-76.2
 30
0.0
 40
1.0
  0
CIRCLE
  5
2AE
330
1D
100
AcDbEntity
  8
Edge.Cuts
100
AcDbCircle
 10
171.45
 20
-76.2
 30
0.0
 40
1.0
  0
CIRCLE
  5
2AF
330
1D
100
AcDbEntity
  8
Edge.Cuts
100
AcDbCircle
 10
204.7875
 20
-76.2
 30
0.0
 40
1.0
  0
LINE
  5
2B0
330
1D
100
AcDbEntity
  8
Edge.Cuts
  6
CONTINUOUS
100
AcDbLine
 10
207.0125
 20
-69.7
 30
0.0
 11
207.0125
 21
-82.7
 31
0.0
  0
ARC
  5
2B1
330
1D
100
AcDbEntity
  8
Edge.Cuts
100
AcDbCircle
 10
207.512522
 20
-69.700041
 30
0.0
 40
0.500022001680926
100
AcDbArc
 50
90.00252081
 51
179.99530195
  0
ARC
  5
2B2
330
1D
100
AcDbEntity
  8
Edge.Cuts
100
AcDbCircle
 10
207.512522
 20
-82.700041
 30
0.0
 40
0.4999590004840397
100
AcDbArc
 50
-180.00469805
 51
-90.00252122
  0
LINE
  5
2B3
330
1D
100
AcDbEntity
  8
Edge.Cuts
  6
CONTINUOUS
100
AcDbLine
 10
207.5125
 20
-83.2
 30
0.0
 11
221.11249999999998
 21
-83.2
 31
0.0
  0
LINE
  5
2B4
330
1D
100
AcDbEntity
  8
Edge.Cuts
  6
CONTINUOUS
100
AcDbLine
 10
221.11249999999998
 20
-69.2
 30
0.0
 11
207.5125
 21
-69.2
 31
0.0
  0
ARC
  5
2B5
330
1D
100
AcDbEntity
  8
Edge.Cuts
100
AcDbCircle
 10
221.11252199999998
 20
-69.700041
 30
0.0
 40
0.5000410004839603
100
AcDbArc
 50
0.00469846
 51
90.00252081
  0
ARC
  5
2B6
330
1D
100
AcDbEntity
  8
Edge.Cuts
100
AcDbCircle
 10
221.11252199999998
 20
-82.700041
 30
0.0
 40
0.499978001681074
100
AcDbArc
 50
-90.00252122
 51
0.00469846
  0
LINE
  5
2B7
330
1D
100
AcDbEntity
  8
Edge.Cuts
  6
CONTINUOUS
100
AcDbLine
 10
221.61249999999998
 20
-82.7
 30
0.0
 11
221.61249999999998
 21
-69.7
 31
0.0
  0
CIRCLE
  5
2B8
330
1D
100
AcDbEntity
  8
Edge.Cuts
100
AcDbCircle
 10
228.6
 20
-76.2
 30
0.0
 40
1.0
  0
LINE
  5
2B9
330
1D
100
AcDbEntity
  8
Edge.Cuts
  6
CONTINUOUS
100
AcDbLine
 10
230.825
 20
-69.7
 30
0.0
 11
230.825
 21
-82.7
 31
0.0
  0
ARC
  5
2BA
330
1D
100
AcDbEntity
  8
Edge.Cuts
100
AcDbCircle
 10
231.325022
 20
-69.700041
 30
0.0
 40
0.500022001680926
100
AcDbArc
 50
90.00252081
 51
179.99530195
  0
ARC
  5
2BB
330
1D
100
AcDbEntity
  8
Edge.Cuts
100
AcDbCircle
 10
231.325022
 20
-82.700041
 30
0.0
 40
0.4999590004840397
100
AcDbArc
 50
-180.00469805
 51
-90.00252122
  0
LINE
  5
2BC
330
1D
100
AcDbEntity
  8
Edge.Cuts
  6
CONTINUOUS
100
AcDbLine
 10
231.325
 20
-83.2
 30
0.0
 11
244.92499999999998
 21
-83.2
 31
0.0
  0
LINE
  5
2BD
330
1D
100
AcDbEntity
  8
Edge.Cuts
  6
CONTINUOUS
100
AcDbLine
 10
244.92499999999998
 20
-69.2
 30
0.0
 11
231.325
 21
-69.2
 31
0.0
  0
ARC
  5
2BE
330
1D
100
AcDbEntity
  8
Edge.Cuts
100
AcDbCircle
 10
244.92502199999998
 20
-69.700041
 30
0.0
 40
0.5000410004839603
100
AcDbArc
 50
0.00469846
 51
90.00252081
  0
ARC
  5
2BF
330
1D
100
AcDbEntity
  8
Edge.Cuts
100
AcDbCircle
 10
244.92502199999998
 20
-82.700041
 30
0.0
 40
0.499978001681074
100
AcDbArc
 50
-90.00252122
 51
0.00469846
  0
LINE
  5
2C0
330
1D
100
AcDbEntity
  8
Edge.Cuts
  6
CONTINUOUS
100
AcDbLine
 10
245.42499999999998
 20
-82.7
 30
0.0
 11
245.42499999999998
 21
-69.7
 31
0.0
  0
CIRCLE
  5
2C1
330
1D
100
AcDbEntity
  8
Edge.Cuts
100
AcDbCircle
 10
251.22187499999998
 20
-76.2
 30
0.0
 40
1.0
  0
LINE
  5
2C2
330
1D
100
AcDbEntity
  8
Edge.Cuts
  6
CONTINUOUS
100
AcDbLine
 10
254.6375
 20
-69.7
 30
0.0
 11
254.6375
 21
-82.7
 31
0.0
  0
ARC
  5
2C3
330
1D
100
AcDbEntity
  8
Edge.Cuts
100
AcDbCircle
 10
255.137522
 20
-69.700041
 30
0.0
 40
0.500022001680926
100
AcDbArc
 50
90.00252081
 51
179.99530195
  0
ARC
  5
2C4
330
1D
100
AcDbEntity
  8
Edge.Cuts
100
AcDbCircle
 10
255.137522
 20
-82.700041
 30
0.0
 40
0.4999590004840397
100
AcDbArc
 50
-180.00469805
 51
-90.00252122
  0
LINE
  5
2C5
330
1D
100
AcDbEntity
  8
Edge.Cuts
  6
CONTINUOUS
100
AcDbLine
 10
255.1375
 20
-83.2
 30
0.0
 11
268.7375
 21
-83.2
 31
0.0
  0
LINE
  5
2C6
330
1D
100
AcDbEntity
  8
Edge.Cuts
  6
CONTINUOUS
100
AcDbLine
 10
268.7375
 20
-69.2
 30
0.0
 11
255.1375
 21
-69.2
 31
0.0
  0
ARC
  5
2C7
330
1D
100
AcDbEntity
  8
Edge.Cuts
100
AcDbCircle
 10
268.737522
 20
-69.700041
 30
0.0
 40
0.5000410004839603
100
AcDbArc
 50
0.00469846
 51
90.00252081
  0
ARC
  5
2C8
330
1D
100
AcDbEntity
  8
Edge.Cuts
100
AcDbCircle
 10
268.737522
 20
-82.700041
 30
0.0
 40
0.499978001681074
100
AcDbArc
 50
-90.00252122
 51
0.00469846
  0
LINE
  5
2C9
330
1D
100
AcDbEntity
  8
Edge.Cuts
  6
CONTINUOUS
100
AcDbLine
 10
269.2375
 20
-82.7
 30
0.0
 11
269.2375
 21
-69.7
 31
0.0
  0
LINE
  5
2CA
330
1D
100
AcDbEntity
  8
Edge.Cuts
  6
CONTINUOUS
100
AcDbLine
 10
78.91839999999999
 20
-82.64999999999999
 30
0.0
 11
78.91839999999999
 21
-69.75
 31
0.0
  0
LINE
  5
2CB
330
1D
100
AcDbEntity
  8
Edge.Cuts
  6
CONTINUOUS
100
AcDbLine
 10
79.41839999999999
 20
-69.25
 30
0.0
 11
92.0184
 21
-69.25
 31
0.0
  0
LINE
  5
2CC
330
1D
100
AcDbEntity
  8
Edge.Cuts
  6
CONTINUOUS
100
AcDbLine
 10
92.0184
 20
-83.14999999999999
 30
0.0
 11
79.41839999999999
 21
-83.14999999999999
 31
0.0
  0
LINE
  5
2CD
330
1D
100
AcDbEntity
  8
Edge.Cuts
  6
CONTINUOUS
100
AcDbLine
 10
92.5184
 20
-69.75
 30
0.0
 11
92.5184
 21
-82.64999999999999
 31
0.0
  0
LINE
  5
2CE
330
1D
100
AcDbEntity
  8
Edge.Cuts
  6
CONTINUOUS
100
AcDbLine
 10
174.17499999999998
 20
-82.64999999999999
 30
0.0
 11
174.17499999999998
 21
-69.75
 31
0.0
  0
LINE
  5
2CF
330
1D
100
AcDbEntity
  8
Edge.Cuts
  6
CONTINUOUS
100
AcDbLine
 10
174.67499999999998
 20
-69.25
 30
0.0
 11
187.275
 21
-69.25
 31
0.0
  0
LINE
  5
2D0
330
1D
100
AcDbEntity
  8
Edge.Cuts
  6
CONTINUOUS
100
AcDbLine
 10
187.275
 20
-83.14999999999999
 30
0.0
 11
174.67499999999998
 21
-83.14999999999999
 31
0.0
  0
LINE
  5
2D1
330
1D
100
AcDbEntity
  8
Edge.Cuts
  6
CONTINUOUS
100
AcDbLine
 10
187.775
 20
-69.75
 30
0.0
 11
187.775
 21
-82.64999999999999
 31
0.0
  0
ARC
  5
2D2
330
1D
100
AcDbEntity
  8
Edge.Cuts
100
AcDbCircle
 10
79.418401
 20
-69.750001
 30
0.0
 40
0.500001000001
100
AcDbArc
 50
90.00011459
 51
179.99988541
  0
ARC
  5
2D3
330
1D
100
AcDbEntity
  8
Edge.Cuts
100
AcDbCircle
 10
79.418401
 20
-82.649999
 30
0.0
 40
0.500001000001
100
AcDbArc
 50
-179.99988541
 51
-90.00011459
  0
ARC
  5
2D4
330
1D
100
AcDbEntity
  8
Edge.Cuts
100
AcDbCircle
 10
92.018399
 20
-69.750001
 30
0.0
 40
0.500001000001
100
AcDbArc
 50
0.00011459
 51
89.99988541
  0
ARC
  5
2D5
330
1D
100
AcDbEntity
  8
Edge.Cuts
100
AcDbCircle
 10
92.018399
 20
-82.649999
 30
0.0
 40
0.500001000001
100
AcDbArc
 50
-89.99988541
 51
-0.00011459
  0
ARC
  5
2D6
330
1D
100
AcDbEntity
  8
Edge.Cuts
100
AcDbCircle
 10
174.67499999999998
 20
-69.75
 30
0.0
 40
0.5
100
AcDbArc
 50
90.0
 51
180.0
  0
ARC
  5
2D7
330
1D
100
AcDbEntity
  8
Edge.Cuts
100
AcDbCircle
 10
174.67499999999998
 20
-82.64999999999999
 30
0.0
 40
0.5
100
AcDbArc
 50
-180.0
 51
-90.0
  0
ARC
  5
2D8
330
1D
100
AcDbEntity
  8
Edge.Cuts
100
AcDbCircle
 10
187.275
 20
-69.75
 30
0.0
 40
0.5
100
AcDbArc
 50
0.0
 51
90.0
  0
ARC
  5
2D9
330
1D
100
AcDbEntity
  8
Edge.Cuts
100
AcDbCircle
 10
187.275
 20
-82.64999999999999
 30
0.0
 40
0.5
100
AcDbArc
 50
-90.0
 51
-0.0
  0
ENDSEC
  0
SECTION
  2
OBJECTS
  0
DICTIONARY
  5
C
330
0
100
AcDbDictionary
281
1
  3
ACAD_DETAILVIEWSTYLE
350
26C
  3
ACAD_GROUP
350
D
  3
ACAD_LAYOUT
350
1A
  3
ACAD_MATERIAL
350
29
  3
ACAD_MLEADERSTYLE
350
262
  3
ACAD_MLINESTYLE
350
17
  3
ACAD_PLOTSETTINGS
350
19
  3
ACAD_PLOTSTYLENAME
350
E
  3
ACAD_SCALELIST
350
235
  3
ACAD_SECTIONVIEWSTYLE
350
26D
  3
ACAD_TABLESTYLE
350
260
  3
ACAD_VISUALSTYLE
350
247
  3
AcDbVariableDictionary
350
264
  3
ACDB_RECOMPOSE_DATA
350
270
  3
ACAD_COLOR
350
271
  3
EZDXF_META
350
272
  0
DICTIONARY
  5
26C
102
{ACAD_REACTORS
330
C
102
}
330
C
100
AcDbDictionary
281
1
  0
DICTIONARY
  5
D
102
{ACAD_REACTORS
330
C
102
}
330
C
100
AcDbDictionary
281
1
  0
DICTIONARY
  5
1A
102
{ACAD_REACTORS
330
C
102
}
330
C
100
AcDbDictionary
281
1
  3
Layout1
350
1C
  3
Model
350
1E
  0
DICTIONARY
  5
29
102
{ACAD_REACTORS
330
C
102
}
330
C
100
AcDbDictionary
281
1
  3
ByBlock
350
2B
  3
ByLayer
350
2A
  3
Global
350
2C
  0
DICTIONARY
  5
262
102
{ACAD_REACTORS
330
C
102
}
330
C
100
AcDbDictionary
281
1
  3
Standard
350
263
  0
DICTIONARY
  5
17
102
{ACAD_REACTORS
330
C
102
}
330
C
100
AcDbDictionary
281
1
  3
Standard
350
18
  0
DICTIONARY
  5
19
102
{ACAD_REACTORS
330
C
102
}
330
C
100
AcDbDictionary
281
1
  0
ACDBDICTIONARYWDFLT
  5
E
102
{ACAD_REACTORS
330
C
102
}
330
C
100
AcDbDictionary
281
1
  3
Normal
350
F
100
AcDbDictionaryWithDefault
340
F
  0
DICTIONARY
  5
235
102
{ACAD_REACTORS
330
C
102
}
330
C
100
AcDbDictionary
281
1
  3
A0
350
236
  3
A1
350
237
  3
A2
350
238
  3
A3
350
239
  3
A4
350
23A
  3
A5
350
23B
  3
A6
350
23C
  3
A7
350
23D
  3
A8
350
23E
  3
A9
350
23F
  3
B1
350
240
  3
B2
350
241
  3
B3
350
242
  3
B4
350
243
  3
B5
350
244
  3
B6
350
245
  3
B7
350
246
  0
DICTIONARY
  5
26D
102
{ACAD_REACTORS
330
C
102
}
330
C
100
AcDbDictionary
281
1
  0
DICTIONARY
  5
260
102
{ACAD_REACTORS
330
C
102
}
330
C
100
AcDbDictionary
281
1
  3
Standard
350
261
  0
DICTIONARY
  5
247
102
{ACAD_REACTORS
330
C
102
}
330
C
100
AcDbDictionary
281
1
  3
2dWireframe
350
24C
  3
Basic
350
24F
  3
Brighten
350
253
  3
ColorChange
350
257
  3
Conceptual
350
251
  3
Dim
350
252
  3
EdgeColorOff
350
25A
  3
Facepattern
350
256
  3
Flat
350
248
  3
FlatWithEdges
350
249
  3
Gouraud
350
24A
  3
GouraudWithEdges
350
24B
  3
Hidden
350
24E
  3
JitterOff
350
258
  3
Linepattern
350
255
  3
OverhangOff
350
259
  3
Realistic
350
250
  3
Shaded
350
25F
  3
Shaded with edges
350
25E
  3
Shades of Gray
350
25B
  3
Sketchy
350
25C
  3
Thicken
350
254
  3
Wireframe
350
24D
  3
X-Ray
350
25D
  0
DICTIONARY
  5
264
102
{ACAD_REACTORS
330
C
102
}
330
C
100
AcDbDictionary
281
1
  3
CANNOSCALE
350
265
  3
CMLEADERSTYLE
350
26A
  3
CTABLESTYLE
350
269
  3
MSLTSCALE
350
26B
  0
XRECORD
  5
270
102
{ACAD_REACTORS
330
C
102
}
330
C
100
AcDbXrecord
280
1
 90
1
330
261
  0
LAYOUT
  5
1C
102
{ACAD_REACTORS
330
1A
102
}
330
1A
100
AcDbPlotSettings
  1

  2
none_device
  4

  6

 40
0.0
 41
0.0
 42
0.0
 43
0.0
 44
0.0
 45
0.0
 46
0.0
 47
0.0
 48
0.0
 49
0.0
140
0.0
141
0.0
142
1.0
143
1.0
 70
688
 72
0
 73
0
 74
5
  7

 75
16
 76
0
 77
2
 78
300
147
1.0
148
0.0
149
0.0
100
AcDbLayout
  1
Layout1
 70
1
 71
1
 10
0.0
 20
0.0
 11
420.0
 21
297.0
 12
0.0
 22
0.0
 32
0.0
 14
1e+20
 24
1e+20
 34
1e+20
 15
-1e+20
 25
-1e+20
 35
-1e+20
146
0.0
 13
0.0
 23
0.0
 33
0.0
 16
1.0
 26
0.0
 36
0.0
 17
0.0
 27
1.0
 37
0.0
 76
0
330
1B
  0
LAYOUT
  5
1E
102
{ACAD_REACTORS
330
1A
102
}
330
1A
100
AcDbPlotSettings
  1

  2
none_device
  4
Letter_(8.50_x_11.00_Inches)
  6

 40
6.35
 41
6.35
 42
6.35000508
 43
6.35000508
 44
215.9
 45
279.4
 46
0.0
 47
0.0
 48
0.0
 49
0.0
140
0.0
141
0.0
142
1.0
143
1.0
 70
1712
 72
0
 73
0
 74
0
  7

 75
0
 76
0
 77
2
 78
300
147
1.0
148
0.0
149
0.0
100
AcDbLayout
  1
Model
 70
1
 71
0
 10
0.0
 20
0.0
 11
12.0
 21
9.0
 12
0.0
 22
0.0
 32
0.0
 14
1e+20
 24
1e+20
 34
1e+20
 15
-1e+20
 25
-1e+20
 35
-1e+20
146
0.0
 13
0.0
 23
0.0
 33
0.0
 16
1.0
 26
0.0
 36
0.0
 17
0.0
 27
1.0
 37
0.0
 76
0
330
1D
331
20
  0
MATERIAL
  5
2B
102
{ACAD_REACTORS
330
29
102
}
330
29
100
AcDbMaterial
  1
ByBlock
  2

 70
0
 40
1.0
 71
0
 41
1.0
 91
-1023410177
 42
1.0
 72
1
  3

 73
1
 74
1
 75
1
 44
0.5
 73
0
 45
1.0
 46
1.0
 77
1
  4

 78
1
 79
1
170
1
 48
1.0
171
1
  6

172
1
173
1
174
1
140
1.0
141
1.0
175
1
  7

176
1
177
1
178
1
143
1.0
179
1
  8

270
1
271
1
272
1
145
1.0
146
1.0
273
1
  9

274
1
275
1
276
1
 42
1.0
 72
1
  3

 73
1
 74
1
 75
1
 94
127
  0
MATERIAL
  5
2A
102
{ACAD_REACTORS
330
29
102
}
330
29
100
AcDbMaterial
  1
ByLayer
  2

 70
0
 40
1.0
 71
0
 41
1.0
 91
-1023410177
 42
1.0
 72
1
  3

 73
1
 74
1
 75
1
 44
0.5
 73
0
 45
1.0
 46
1.0
 77
1
  4

 78
1
 79
1
170
1
 48
1.0
171
1
  6

172
1
173
1
174
1
140
1.0
141
1.0
175
1
  7

176
1
177
1
178
1
143
1.0
179
1
  8

270
1
271
1
272
1
145
1.0
146
1.0
273
1
  9

274
1
275
1
276
1
 42
1.0
 72
1
  3

 73
1
 74
1
 75
1
 94
127
  0
MATERIAL
  5
2C
102
{ACAD_REACTORS
330
29
102
}
330
29
100
AcDbMaterial
  1
Global
  2

 70
0
 40
1.0
 71
0
 41
1.0
 91
-1023410177
 42
1.0
 72
1
  3

 73
1
 74
1
 75
1
 44
0.5
 73
0
 45
1.0
 46
1.0
 77
1
  4

 78
1
 79
1
170
1
 48
1.0
171
1
  6

172
1
173
1
174
1
140
1.0
141
1.0
175
1
  7

176
1
177
1
178
1
143
1.0
179
1
  8

270
1
271
1
272
1
145
1.0
146
1.0
273
1
  9

274
1
275
1
276
1
 42
1.0
 72
1
  3

 73
1
 74
1
 75
1
 94
127
  0
MLEADERSTYLE
  5
263
102
{ACAD_REACTORS
330
262
102
}
330
262
100
AcDbMLeaderStyle
179
2
170
2
171
1
172
0
 90
2
 40
0.0
 41
0.0
173
1
 91
-1056964608
340
14
 92
-2
290
1
 42
0.09
291
1
 43
0.36
  3
Standard
341
0
 44
0.18
300

342
11
174
1
175
1
176
0
178
6
 93
-1056964608
 45
0.18
292
0
297
0
 46
0.18
293
1
343
0
 94
-1056964608
 47
1.0
 49
1.0
140
1.0
294
1
141
0.0
177
0
142
1.0
295
0
296
0
143
0.125
271
0
272
9
273
9
298
0
  0
MLINESTYLE
  5
18
102
{ACAD_REACTORS
330
17
102
}
330
17
100
AcDbMlineStyle
  2
Standard
 70
0
  3

 62
256
 51
90.0
 52
90.0
 71
2
 49
0.5
 62
256
  6
BYLAYER
 49
-0.5
 62
256
  6
BYLAYER
  0
ACDBPLACEHOLDER
  5
F
102
{ACAD_REACTORS
330
E
102
}
330
E
  0
SCALE
  5
236
102
{ACAD_REACTORS
330
235
102
}
330
235
100
AcDbScale
 70
0
300
1:1
140
1.0
141
1.0
290
1
  0
SCALE
  5
237
102
{ACAD_REACTORS
330
235
102
}
330
235
100
AcDbScale
 70
0
300
1/128" = 1'-0"
140
0.0078125
141
12.0
290
0
  0
SCALE
  5
238
102
{ACAD_REACTORS
330
235
102
}
330
235
100
AcDbScale
 70
0
300
1/64" = 1'-0"
140
0.015625
141
12.0
290
0
  0
SCALE
  5
239
102
{ACAD_REACTORS
330
235
102
}
330
235
100
AcDbScale
 70
0
300
1/32" = 1'-0"
140
0.03125
141
12.0
290
0
  0
SCALE
  5
23A
102
{ACAD_REACTORS
330
235
102
}
330
235
100
AcDbScale
 70
0
300
1/16" = 1'-0"
140
0.0625
141
12.0
290
0
  0
SCALE
  5
23B
102
{ACAD_REACTORS
330
235
102
}
330
235
100
AcDbScale
 70
0
300
3/32" = 1'-0"
140
0.09375
141
12.0
290
0
  0
SCALE
  5
23C
102
{ACAD_REACTORS
330
235
102
}
330
235
100
AcDbScale
 70
0
300
1/8" = 1'-0"
140
0.125
141
12.0
290
0
  0
SCALE
  5
23D
102
{ACAD_REACTORS
330
235
102
}
330
235
100
AcDbScale
 70
0
300
3/16" = 1'-0"
140
0.1875
141
12.0
290
0
  0
SCALE
  5
23E
102
{ACAD_REACTORS
330
235
102
}
330
235
100
AcDbScale
 70
0
300
1/4" = 1'-0"
140
0.25
141
12.0
290
0
  0
SCALE
  5
23F
102
{ACAD_REACTORS
330
235
102
}
330
235
100
AcDbScale
 70
0
300
3/8" = 1'-0"
140
0.375
141
12.0
290
0
  0
SCALE
  5
240
102
{ACAD_REACTORS
330
235
102
}
330
235
100
AcDbScale
 70
0
300
1/2" = 1'-0"
140
0.5
141
12.0
290
0
  0
SCALE
  5
241
102
{ACAD_REACTORS
330
235
102
}
330
235
100
AcDbScale
 70
0
300
3/4" = 1'-0"
140
0.75
141
12.0
290
0
  0
SCALE
  5
242
102
{ACAD_REACTORS
330
235
102
}
330
235
100
AcDbScale
 70
0
300
1" = 1'-0"
140
1.0
141
12.0
290
0
  0
SCALE
  5
243
102
{ACAD_REACTORS
330
235
102
}
330
235
100
AcDbScale
 70
0
300
1-1/2" = 1'-0"
140
1.5
141
12.0
290
0
  0
SCALE
  5
244
102
{ACAD_REACTORS
330
235
102
}
330
235
100
AcDbScale
 70
0
300
3" = 1'-0"
140
3.0
141
12.0
290
0
  0
SCALE
  5
245
102
{ACAD_REACTORS
330
235
102
}
330
235
100
AcDbScale
 70
0
300
6" = 1'-0"
140
6.0
141
12.0
290
0
  0
SCALE
  5
246
102
{ACAD_REACTORS
330
235
102
}
330
235
100
AcDbScale
 70
0
300
1'-0" = 1'-0"
140
12.0
141
12.0
290
0
  0
TABLESTYLE
  5
261
102
{ACAD_XDICTIONARY
360
26E
102
}
102
{ACAD_REACTORS
330
260
102
}
330
260
100
AcDbTableStyle
  3
Standard
 70
0
 71
0
 40
0.06
 41
0.06
280
0
281
0
  7
Standard
140
0.18
170
2
 62
0
 63
257
283
0
 90
4
 91
0
  1

274
-2
284
1
 64
0
275
-2
285
1
 65
0
276
-2
286
1
 66
0
277
-2
287
1
 67
0
278
-2
288
1
 68
0
279
-2
289
1
 69
0
  7
Standard
140
0.25
170
5
 62
0
 63
257
283
0
 90
4
 91
0
  1

274
-2
284
1
 64
0
275
-2
285
1
 65
0
276
-2
286
1
 66
0
277
-2
287
1
 67
0
278
-2
288
1
 68
0
279
-2
289
1
 69
0
  7
Standard
140
0.18
170
5
 62
0
 63
257
283
0
 90
4
 91
0
  1

274
-2
284
1
 64
0
275
-2
285
1
 65
0
276
-2
286
1
 66
0
277
-2
287
1
 67
0
278
-2
288
1
 68
0
279
-2
289
1
 69
0
  0
VISUALSTYLE
  5
24C
102
{ACAD_REACTORS
330
247
102
}
330
247
100
AcDbVisualStyle
  2
2dWireframe
 70
4
177
3
291
0
 70
58
 90
0
176
1
 90
2
176
1
 90
0
176
1
 90
0
176
1
 40
0.6
176
1
 40
30.0
176
1
 62
7
420
16777215
176
1
 90
1
176
1
 90
4
176
1
 62
7
176
1
 62
257
176
1
 90
1
176
1
 90
1
176
1
 40
1.0
176
1
 90
0
176
1
 62
257
176
1
 40
1.0
176
1
 90
1
176
1
 90
6
176
1
 90
2
176
1
 62
7
176
1
 90
5
176
1
 90
0
176
1
 90
0
176
1
290
0
176
1
 90
1
176
1
 40
0.0
176
1
 90
0
176
1
290
1
176
1
290
1
176
1
290
0
176
1
290
0
176
1
290
0
176
1
290
0
176
1
290
0
176
1
290
0
176
1
290
0
176
1
 90
50
176
1
 40
0.0
176
1
 40
1.0
176
1
 90
0
176
1
 62
18
420
0
176
1
 90
50
176
1
 90
3
176
1
 62
5
420
255
176
1
290
0
176
1
 90
50
176
1
 90
50
176
1
 90
50
176
1
290
0
176
1
 90
50
176
1
 62
256
176
0
 40
1.0
176
0
 90
2
176
1
  1
strokes_ogs.tif
176
1
290
0
176
1
 40
1.0
176
1
 40
1.0
176
1
  0
VISUALSTYLE
  5
24F
102
{ACAD_REACTORS
330
247
102
}
330
247
100
AcDbVisualStyle
  2
Basic
 70
7
177
3
291
1
 70
58
 90
1
176
1
 90
0
176
1
 90
1
176
1
 90
0
176
1
 40
0.6
176
1
 40
30.0
176
1
 62
7
420
16777215
176
1
 90
0
176
1
 90
4
176
1
 62
7
176
1
 62
257
176
1
 90
1
176
1
 90
1
176
1
 40
1.0
176
1
 90
8
176
1
 62
7
176
1
 40
1.0
176
1
 90
1
176
1
 90
6
176
1
 90
2
176
1
 62
7
176
1
 90
5
176
1
 90
0
176
1
 90
0
176
1
290
0
176
1
 90
1
176
1
 40
0.0
176
1
 90
0
176
1
290
0
176
1
290
1
176
1
290
1
176
1
290
0
176
1
290
0
176
1
290
0
176
1
290
0
176
1
290
0
176
1
290
0
176
1
 90
50
176
1
 40
0.0
176
1
 40
1.0
176
1
 90
0
176
1
 62
18
420
0
176
1
 90
50
176
1
 90
3
176
1
 62
5
420
255
176
1
290
0
176
1
 90
50
176
1
 90
50
176
1
 90
50
176
1
290
0
176
1
 90
50
176
1
 62
256
176
0
 40
1.0
176
0
 90
2
176
1
  1
strokes_ogs.tif
176
1
290
0
176
1
 40
1.0
176
1
 40
1.0
176
1
  0
VISUALSTYLE
  5
253
102
{ACAD_REACTORS
330
247
102
}
330
247
100
AcDbVisualStyle
  2
Brighten
 70
12
177
3
291
1
 70
58
 90
2
176
1
 90
2
176
1
 90
0
176
1
 90
0
176
1
 40
0.6
176
1
 40
30.0
176
1
 62
7
420
16777215
176
1
 90
1
176
1
 90
4
176
1
 62
7
176
1
 62
257
176
1
 90
1
176
1
 90
1
176
1
 40
1.0
176
1
 90
8
176
1
 62
7
176
1
 40
1.0
176
1
 90
1
176
1
 90
6
176
1
 90
2
176
1
 62
7
176
1
 90
5
176
1
 90
0
176
1
 90
0
176
1
290
0
176
1
 90
1
176
1
 40
50.0
176
1
 90
0
176
1
290
0
176
1
290
1
176
1
290
1
176
1
290
0
176
1
290
0
176
1
290
0
176
1
290
0
176
1
290
0
176
1
290
0
176
1
 90
50
176
1
 40
0.0
176
1
 40
1.0
176
1
 90
0
176
1
 62
18
420
0
176
1
 90
50
176
1
 90
3
176
1
 62
5
420
255
176
1
290
0
176
1
 90
50
176
1
 90
50
176
1
 90
50
176
1
290
0
176
1
 90
50
176
1
 62
256
176
0
 40
1.0
176
0
 90
2
176
1
  1
strokes_ogs.tif
176
1
290
0
176
1
 40
1.0
176
1
 40
1.0
176
1
  0
VISUALSTYLE
  5
257
102
{ACAD_REACTORS
330
247
102
}
330
247
100
AcDbVisualStyle
  2
ColorChange
 70
16
177
3
291
1
 70
58
 90
2
176
1
 90
2
176
1
 90
3
176
1
 90
0
176
1
 40
0.6
176
1
 40
30.0
176
1
 62
8
420
8421504
176
1
 90
1
176
1
 90
4
176
1
 62
7
176
1
 62
257
176
1
 90
1
176
1
 90
1
176
1
 40
1.0
176
1
 90
8
176
1
 62
8
420
8421504
176
1
 40
1.0
176
1
 90
1
176
1
 90
6
176
1
 90
2
176
1
 62
7
176
1
 90
5
176
1
 90
0
176
1
 90
0
176
1
290
0
176
1
 90
1
176
1
 40
0.0
176
1
 90
0
176
1
290
0
176
1
290
1
176
1
290
1
176
1
290
0
176
1
290
0
176
1
290
0
176
1
290
0
176
1
290
0
176
1
290
0
176
1
 90
50
176
1
 40
0.0
176
1
 40
1.0
176
1
 90
0
176
1
 62
18
420
0
176
1
 90
50
176
1
 90
3
176
1
 62
5
420
255
176
1
290
0
176
1
 90
50
176
1
 90
50
176
1
 90
50
176
1
290
0
176
1
 90
50
176
1
 62
256
176
0
 40
1.0
176
0
 90
2
176
1
  1
strokes_ogs.tif
176
1
290
0
176
1
 40
1.0
176
1
 40
1.0
176
1
  0
VISUALSTYLE
  5
251
102
{ACAD_REACTORS
330
247
102
}
330
247
100
AcDbVisualStyle
  2
Conceptual
 70
9
177
3
291
0
 70
58
 90
3
176
1
 90
2
176
1
 90
0
176
1
 90
0
176
1
 40
0.6
176
1
 40
30.0
176
1
 62
7
420
16777215
176
1
 90
2
176
1
 90
2
176
1
 62
7
176
1
 62
257
176
1
 90
1
176
1
 90
1
176
1
 40
179.0
176
1
 90
8
176
1
 62
7
176
1
 40
1.0
176
1
 90
1
176
1
 90
6
176
1
 90
2
176
1
 62
7
176
1
 90
3
176
1
 90
0
176
1
 90
0
176
1
290
0
176
1
 90
1
176
1
 40
0.0
176
1
 90
0
176
1
290
0
176
1
290
1
176
1
290
1
176
1
290
0
176
1
290
0
176
1
290
0
176
1
290
0
176
1
290
0
176
1
290
0
176
1
 90
50
176
1
 40
0.0
176
1
 40
1.0
176
1
 90
0
176
1
 62
18
420
0
176
1
 90
50
176
1
 90
3
176
1
 62
5
420
255
176
1
290
0
176
1
 90
50
176
1
 90
50
176
1
 90
50
176
1
290
0
176
1
 90
50
176
1
 62
256
176
0
 40
1.0
176
0
 90
2
176
1
  1
strokes_ogs.tif
176
1
290
0
176
1
 40
1.0
176
1
 40
1.0
176
1
  0
VISUALSTYLE
  5
252
102
{ACAD_REACTORS
330
247
102
}
330
247
100
AcDbVisualStyle
  2
Dim
 70
11
177
3
291
1
 70
58
 90
2
176
1
 90
2
176
1
 90
0
176
1
 90
0
176
1
 40
0.6
176
1
 40
30.0
176
1
 62
7
420
16777215
176
1
 90
1
176
1
 90
4
176
1
 62
7
176
1
 62
257
176
1
 90
1
176
1
 90
1
176
1
 40
1.0
176
1
 90
8
176
1
 62
7
176
1
 40
1.0
176
1
 90
1
176
1
 90
6
176
1
 90
2
176
1
 62
7
176
1
 90
5
176
1
 90
0
176
1
 90
0
176
1
290
0
176
1
 90
1
176
1
 40
-50.0
176
1
 90
0
176
1
290
0
176
1
290
1
176
1
290
1
176
1
290
0
176
1
290
0
176
1
290
0
176
1
290
0
176
1
290
0
176
1
290
0
176
1
 90
50
176
1
 40
0.0
176
1
 40
1.0
176
1
 90
0
176
1
 62
18
420
0
176
1
 90
50
176
1
 90
3
176
1
 62
5
420
255
176
1
290
0
176
1
 90
50
176
1
 90
50
176
1
 90
50
176
1
290
0
176
1
 90
50
176
1
 62
256
176
0
 40
1.0
176
0
 90
2
176
1
  1
strokes_ogs.tif
176
1
290
0
176
1
 40
1.0
176
1
 40
1.0
176
1
  0
VISUALSTYLE
  5
25A
102
{ACAD_REACTORS
330
247
102
}
330
247
100
AcDbVisualStyle
  2
EdgeColorOff
 70
22
177
3
291
1
 70
58
 90
2
176
0
 90
2
176
0
 90
0
176
0
 90
0
176
0
 40
0.6
176
0
 40
30.0
176
0
 62
7
420
16777215
176
0
 90
1
176
0
 90
4
176
0
 62
7
176
0
 62
257
176
0
 90
1
176
0
 90
1
176
0
 40
1.0
176
0
 90
8
176
2
 62
7
176
0
 40
1.0
176
0
 90
1
176
0
 90
6
176
0
 90
2
176
0
 62
7
176
0
 90
5
176
0
 90
0
176
0
 90
0
176
0
290
0
176
0
 90
1
176
0
 40
0.0
176
0
 90
0
176
0
290
0
176
0
290
1
176
0
290
1
176
0
290
0
176
0
290
0
176
0
290
0
176
0
290
0
176
0
290
0
176
0
290
0
176
0
 90
50
176
0
 40
0.0
176
0
 40
1.0
176
0
 90
0
176
0
 62
18
420
0
176
0
 90
50
176
0
 90
3
176
0
 62
5
420
255
176
0
290
0
176
0
 90
50
176
0
 90
50
176
0
 90
50
176
0
290
0
176
0
 90
50
176
0
 62
256
176
0
 40
1.0
176
0
 90
2
176
0
  1
strokes_ogs.tif
176
0
290
0
176
0
 40
1.0
176
0
 40
1.0
176
0
  0
VISUALSTYLE
  5
256
102
{ACAD_REACTORS
330
247
102
}
330
247
100
AcDbVisualStyle
  2
Facepattern
 70
15
177
3
291
1
 70
58
 90
2
176
1
 90
2
176
1
 90
0
176
1
 90
0
176
1
 40
0.6
176
1
 40
30.0
176
1
 62
7
420
16777215
176
1
 90
1
176
1
 90
4
176
1
 62
7
176
1
 62
257
176
1
 90
1
176
1
 90
1
176
1
 40
1.0
176
1
 90
8
176
1
 62
7
176
1
 40
1.0
176
1
 90
1
176
1
 90
6
176
1
 90
2
176
1
 62
7
176
1
 90
5
176
1
 90
0
176
1
 90
0
176
1
290
0
176
1
 90
1
176
1
 40
0.0
176
1
 90
0
176
1
290
0
176
1
290
1
176
1
290
1
176
1
290
0
176
1
290
0
176
1
290
0
176
1
290
0
176
1
290
0
176
1
290
0
176
1
 90
50
176
1
 40
0.0
176
1
 40
1.0
176
1
 90
0
176
1
 62
18
420
0
176
1
 90
50
176
1
 90
3
176
1
 62
5
420
255
176
1
290
0
176
1
 90
50
176
1
 90
50
176
1
 90
50
176
1
290
0
176
1
 90
50
176
1
 62
256
176
0
 40
1.0
176
0
 90
2
176
1
  1
strokes_ogs.tif
176
1
290
0
176
1
 40
1.0
176
1
 40
1.0
176
1
  0
VISUALSTYLE
  5
248
102
{ACAD_REACTORS
330
247
102
}
330
247
100
AcDbVisualStyle
  2
Flat
 70
0
177
3
291
1
 70
58
 90
2
176
1
 90
1
176
1
 90
1
176
1
 90
2
176
1
 40
0.6
176
1
 40
30.0
176
1
 62
7
420
16777215
176
1
 90
0
176
1
 90
0
176
1
 62
7
176
1
 62
257
176
1
 90
1
176
1
 90
1
176
1
 40
1.0
176
1
 90
8
176
1
 62
7
176
1
 40
1.0
176
1
 90
1
176
1
 90
6
176
1
 90
2
176
1
 62
7
176
1
 90
5
176
1
 90
0
176
1
 90
0
176
1
290
0
176
1
 90
13
176
1
 40
0.0
176
1
 90
0
176
1
290
0
176
1
290
1
176
1
290
1
176
1
290
0
176
1
290
0
176
1
290
0
176
1
290
0
176
1
290
0
176
1
290
0
176
1
 90
50
176
1
 40
0.0
176
1
 40
1.0
176
1
 90
0
176
1
 62
18
420
0
176
1
 90
50
176
1
 90
3
176
1
 62
5
420
255
176
1
290
0
176
1
 90
50
176
1
 90
50
176
1
 90
50
176
1
290
0
176
1
 90
50
176
1
 62
256
176
0
 40
1.0
176
0
 90
2
176
1
  1
strokes_ogs.tif
176
1
290
0
176
1
 40
1.0
176
1
 40
1.0
176
1
  0
VISUALSTYLE
  5
249
102
{ACAD_REACTORS
330
247
102
}
330
247
100
AcDbVisualStyle
  2
FlatWithEdges
 70
1
177
3
291
1
 70
58
 90
2
176
1
 90
1
176
1
 90
1
176
1
 90
2
176
1
 40
0.6
176
1
 40
30.0
176
1
 62
7
420
16777215
176
1
 90
1
176
1
 90
0
176
1
 62
7
176
1
 62
257
176
1
 90
1
176
1
 90
1
176
1
 40
1.0
176
1
 90
0
176
1
 62
257
176
1
 40
1.0
176
1
 90
1
176
1
 90
6
176
1
 90
2
176
1
 62
7
176
1
 90
5
176
1
 90
0
176
1
 90
0
176
1
290
0
176
1
 90
13
176
1
 40
0.0
176
1
 90
0
176
1
290
0
176
1
290
1
176
1
290
1
176
1
290
0
176
1
290
0
176
1
290
0
176
1
290
0
176
1
290
0
176
1
290
0
176
1
 90
50
176
1
 40
0.0
176
1
 40
1.0
176
1
 90
0
176
1
 62
18
420
0
176
1
 90
50
176
1
 90
3
176
1
 62
5
420
255
176
1
290
0
176
1
 90
50
176
1
 90
50
176
1
 90
50
176
1
290
0
176
1
 90
50
176
1
 62
256
176
0
 40
1.0
176
0
 90
2
176
1
  1
strokes_ogs.tif
176
1
290
0
176
1
 40
1.0
176
1
 40
1.0
176
1
  0
VISUALSTYLE
  5
24A
102
{ACAD_REACTORS
330
247
102
}
330
247
100
AcDbVisualStyle
  2
Gouraud
 70
2
177
3
291
1
 70
58
 90
2
176
1
 90
2
176
1
 90
1
176
1
 90
2
176
1
 40
0.6
176
1
 40
30.0
176
1
 62
7
420
16777215
176
1
 90
0
176
1
 90
0
176
1
 62
7
176
1
 62
257
176
1
 90
1
176
1
 90
1
176
1
 40
1.0
176
1
 90
0
176
1
 62
7
176
1
 40
1.0
176
1
 90
1
176
1
 90
6
176
1
 90
2
176
1
 62
7
176
1
 90
5
176
1
 90
0
176
1
 90
0
176
1
290
0
176
1
 90
13
176
1
 40
0.0
176
1
 90
0
176
1
290
0
176
1
290
1
176
1
290
1
176
1
290
0
176
1
290
0
176
1
290
0
176
1
290
0
176
1
290
0
176
1
290
0
176
1
 90
50
176
1
 40
0.0
176
1
 40
1.0
176
1
 90
0
176
1
 62
18
420
0
176
1
 90
50
176
1
 90
3
176
1
 62
5
420
255
176
1
290
0
176
1
 90
50
176
1
 90
50
176
1
 90
50
176
1
290
0
176
1
 90
50
176
1
 62
256
176
0
 40
1.0
176
0
 90
2
176
1
  1
strokes_ogs.tif
176
1
290
0
176
1
 40
1.0
176
1
 40
1.0
176
1
  0
VISUALSTYLE
  5
24B
102
{ACAD_REACTORS
330
247
102
}
330
247
100
AcDbVisualStyle
  2
GouraudWithEdges
 70
3
177
3
291
1
 70
58
 90
2
176
1
 90
2
176
1
 90
1
176
1
 90
2
176
1
 40
0.6
176
1
 40
30.0
176
1
 62
7
420
16777215
176
1
 90
1
176
1
 90
0
176
1
 62
7
176
1
 62
257
176
1
 90
1
176
1
 90
1
176
1
 40
1.0
176
1
 90
0
176
1
 62
257
176
1
 40
1.0
176
1
 90
1
176
1
 90
6
176
1
 90
2
176
1
 62
7
176
1
 90
5
176
1
 90
0
176
1
 90
0
176
1
290
0
176
1
 90
13
176
1
 40
0.0
176
1
 90
0
176
1
290
0
176
1
290
1
176
1
290
1
176
1
290
0
176
1
290
0
176
1
290
0
176
1
290
0
176
1
290
0
176
1
290
0
176
1
 90
50
176
1
 40
0.0
176
1
 40
1.0
176
1
 90
0
176
1
 62
18
420
0
176
1
 90
50
176
1
 90
3
176
1
 62
5
420
255
176
1
290
0
176
1
 90
50
176
1
 90
50
176
1
 90
50
176
1
290
0
176
1
 90
50
176
1
 62
256
176
0
 40
1.0
176
0
 90
2
176
1
  1
strokes_ogs.tif
176
1
290
0
176
1
 40
1.0
176
1
 40
1.0
176
1
  0
VISUALSTYLE
  5
24E
102
{ACAD_REACTORS
330
247
102
}
330
247
100
AcDbVisualStyle
  2
Hidden
 70
6
177
3
291
0
 70
58
 90
1
176
1
 90
2
176
1
 90
2
176
1
 90
0
176
1
 40
0.6
176
1
 40
30.0
176
1
 62
7
420
16777215
176
1
 90
2
176
1
 90
2
176
1
 62
7
176
1
 62
257
176
1
 90
2
176
1
 90
1
176
1
 40
40.0
176
1
 90
0
176
1
 62
257
176
1
 40
1.0
176
1
 90
1
176
1
 90
6
176
1
 90
2
176
1
 62
7
176
1
 90
3
176
1
 90
0
176
1
 90
0
176
1
290
0
176
1
 90
1
176
1
 40
0.0
176
1
 90
0
176
1
290
0
176
1
290
1
176
1
290
1
176
1
290
0
176
1
290
0
176
1
290
0
176
1
290
0
176
1
290
0
176
1
290
0
176
1
 90
50
176
1
 40
0.0
176
1
 40
1.0
176
1
 90
0
176
1
 62
18
420
0
176
1
 90
50
176
1
 90
3
176
1
 62
5
420
255
176
1
290
0
176
1
 90
50
176
1
 90
50
176
1
 90
50
176
1
290
0
176
1
 90
50
176
1
 62
256
176
0
 40
1.0
176
0
 90
2
176
1
  1
strokes_ogs.tif
176
1
290
0
176
1
 40
1.0
176
1
 40
1.0
176
1
  0
VISUALSTYLE
  5
258
102
{ACAD_REACTORS
330
247
102
}
330
247
100
AcDbVisualStyle
  2
JitterOff
 70
20
177
3
291
1
 70
58
 90
2
176
0
 90
2
176
0
 90
0
176
0
 90
0
176
0
 40
0.6
176
0
 40
30.0
176
0
 62
7
420
16777215
176
0
 90
1
176
0
 90
4
176
0
 62
7
176
0
 62
257
176
0
 90
1
176
0
 90
1
176
0
 40
1.0
176
0
 90
10
176
2
 62
7
176
0
 40
1.0
176
0
 90
1
176
0
 90
6
176
0
 90
2
176
0
 62
7
176
0
 90
5
176
0
 90
0
176
0
 90
0
176
0
290
0
176
0
 90
1
176
0
 40
0.0
176
0
 90
0
176
0
290
0
176
0
290
1
176
0
290
1
176
0
290
0
176
0
290
0
176
0
290
0
176
0
290
0
176
0
290
0
176
0
290
0
176
0
 90
50
176
0
 40
0.0
176
0
 40
1.0
176
0
 90
0
176
0
 62
18
420
0
176
0
 90
50
176
0
 90
3
176
0
 62
5
420
255
176
0
290
0
176
0
 90
50
176
0
 90
50
176
0
 90
50
176
0
290
0
176
0
 90
50
176
0
 62
256
176
0
 40
1.0
176
0
 90
2
176
0
  1
strokes_ogs.tif
176
0
290
0
176
0
 40
1.0
176
0
 40
1.0
176
0
  0
VISUALSTYLE
  5
255
102
{ACAD_REACTORS
330
247
102
}
330
247
100
AcDbVisualStyle
  2
Linepattern
 70
14
177
3
291
1
 70
58
 90
2
176
1
 90
2
176
1
 90
0
176
1
 90
0
176
1
 40
0.6
176
1
 40
30.0
176
1
 62
7
420
16777215
176
1
 90
1
176
1
 90
4
176
1
 62
7
176
1
 62
257
176
1
 90
7
176
1
 90
7
176
1
 40
1.0
176
1
 90
8
176
1
 62
7
176
1
 40
1.0
176
1
 90
1
176
1
 90
6
176
1
 90
2
176
1
 62
7
176
1
 90
5
176
1
 90
0
176
1
 90
0
176
1
290
0
176
1
 90
1
176
1
 40
0.0
176
1
 90
0
176
1
290
0
176
1
290
1
176
1
290
1
176
1
290
0
176
1
290
0
176
1
290
0
176
1
290
0
176
1
290
0
176
1
290
0
176
1
 90
50
176
1
 40
0.0
176
1
 40
1.0
176
1
 90
0
176
1
 62
18
420
0
176
1
 90
50
176
1
 90
3
176
1
 62
5
420
255
176
1
290
0
176
1
 90
50
176
1
 90
50
176
1
 90
50
176
1
290
0
176
1
 90
50
176
1
 62
256
176
0
 40
1.0
176
0
 90
2
176
1
  1
strokes_ogs.tif
176
1
290
0
176
1
 40
1.0
176
1
 40
1.0
176
1
  0
VISUALSTYLE
  5
259
102
{ACAD_REACTORS
330
247
102
}
330
247
100
AcDbVisualStyle
  2
OverhangOff
 70
21
177
3
291
1
 70
58
 90
2
176
0
 90
2
176
0
 90
0
176
0
 90
0
176
0
 40
0.6
176
0
 40
30.0
176
0
 62
7
420
16777215
176
0
 90
1
176
0
 90
4
176
0
 62
7
176
0
 62
257
176
0
 90
1
176
0
 90
1
176
0
 40
1.0
176
0
 90
9
176
2
 62
7
176
0
 40
1.0
176
0
 90
1
176
0
 90
6
176
0
 90
2
176
0
 62
7
176
0
 90
5
176
0
 90
0
176
0
 90
0
176
0
290
0
176
0
 90
1
176
0
 40
0.0
176
0
 90
0
176
0
290
0
176
0
290
1
176
0
290
1
176
0
290
0
176
0
290
0
176
0
290
0
176
0
290
0
176
0
290
0
176
0
290
0
176
0
 90
50
176
0
 40
0.0
176
0
 40
1.0
176
0
 90
0
176
0
 62
18
420
0
176
0
 90
50
176
0
 90
3
176
0
 62
5
420
255
176
0
290
0
176
0
 90
50
176
0
 90
50
176
0
 90
50
176
0
290
0
176
0
 90
50
176
0
 62
256
176
0
 40
1.0
176
0
 90
2
176
0
  1
strokes_ogs.tif
176
0
290
0
176
0
 40
1.0
176
0
 40
1.0
176
0
  0
VISUALSTYLE
  5
250
102
{ACAD_REACTORS
330
247
102
}
330
247
100
AcDbVisualStyle
  2
Realistic
 70
8
177
3
291
0
 70
58
 90
2
176
1
 90
3
176
1
 90
0
176
1
 90
2
176
1
 40
0.6
176
1
 40
30.0
176
1
 62
7
420
16777215
176
1
 90
0
176
1
 90
0
176
1
 62
7
176
1
 62
257
176
1
 90
1
176
1
 90
1
176
1
 40
1.0
176
1
 90
8
176
1
 62
257
176
1
 40
1.0
176
1
 90
1
176
1
 90
6
176
1
 90
2
176
1
 62
7
176
1
 90
3
176
1
 90
0
176
1
 90
0
176
1
290
0
176
1
 90
13
176
1
 40
0.0
176
1
 90
0
176
1
290
0
176
1
290
1
176
1
290
1
176
1
290
0
176
1
290
0
176
1
290
0
176
1
290
0
176
1
290
0
176
1
290
0
176
1
 90
50
176
1
 40
0.0
176
1
 40
1.0
176
1
 90
0
176
1
 62
18
420
0
176
1
 90
50
176
1
 90
3
176
1
 62
5
420
255
176
1
290
0
176
1
 90
50
176
1
 90
50
176
1
 90
50
176
1
290
0
176
1
 90
50
176
1
 62
256
176
0
 40
1.0
176
0
 90
2
176
1
  1
strokes_ogs.tif
176
1
290
0
176
1
 40
1.0
176
1
 40
1.0
176
1
  0
VISUALSTYLE
  5
25F
102
{ACAD_REACTORS
330
247
102
}
330
247
100
AcDbVisualStyle
  2
Shaded
 70
27
177
3
291
0
 70
58
 90
2
176
1
 90
2
176
1
 90
1
176
1
 90
2
176
1
 40
0.6
176
1
 40
30.0
176
1
 62
7
420
16777215
176
1
 90
0
176
1
 90
4
176
1
 62
7
176
1
 62
257
176
1
 90
1
176
1
 90
1
176
1
 40
1.0
176
1
 90
8
176
1
 62
257
176
1
 40
1.0
176
1
 90
1
176
1
 90
6
176
1
 90
2
176
1
 62
8
420
7895160
176
1
 90
3
176
1
 90
0
176
1
 90
0
176
1
290
0
176
1
 90
5
176
1
 40
0.0
176
1
 90
0
176
1
290
0
176
1
290
1
176
1
290
1
176
1
290
0
176
1
290
0
176
1
290
0
176
1
290
0
176
1
290
0
176
1
290
0
176
1
 90
50
176
1
 40
0.0
176
1
 40
1.0
176
1
 90
0
176
1
 62
18
420
0
176
1
 90
50
176
1
 90
3
176
1
 62
5
420
255
176
1
290
0
176
1
 90
50
176
1
 90
50
176
1
 90
50
176
1
290
0
176
1
 90
50
176
1
 62
256
176
0
 40
1.0
176
0
 90
2
176
1
  1
strokes_ogs.tif
176
1
290
0
176
1
 40
1.0
176
1
 40
1.0
176
1
  0
VISUALSTYLE
  5
25E
102
{ACAD_REACTORS
330
247
102
}
330
247
100
AcDbVisualStyle
  2
Shaded with edges
 70
26
177
3
291
0
 70
58
 90
2
176
1
 90
2
176
1
 90
1
176
1
 90
2
176
1
 40
0.6
176
1
 40
30.0
176
1
 62
7
420
16777215
176
1
 90
1
176
1
 90
10
176
1
 62
7
176
1
 62
257
176
1
 90
2
176
1
 90
1
176
1
 40
1.0
176
1
 90
8
176
1
 62
257
176
1
 40
1.0
176
1
 90
1
176
1
 90
6
176
1
 90
2
176
1
 62
7
176
1
 90
3
176
1
 90
0
176
1
 90
0
176
1
290
0
176
1
 90
5
176
1
 40
0.0
176
1
 90
0
176
1
290
0
176
1
290
1
176
1
290
1
176
1
290
0
176
1
290
0
176
1
290
0
176
1
290
0
176
1
290
0
176
1
290
0
176
1
 90
50
176
1
 40
0.0
176
1
 40
1.0
176
1
 90
0
176
1
 62
18
420
0
176
1
 90
50
176
1
 90
3
176
1
 62
5
420
255
176
1
290
0
176
1
 90
50
176
1
 90
50
176
1
 90
50
176
1
290
0
176
1
 90
50
176
1
 62
256
176
0
 40
1.0
176
0
 90
2
176
1
  1
strokes_ogs.tif
176
1
290
0
176
1
 40
1.0
176
1
 40
1.0
176
1
  0
VISUALSTYLE
  5
25B
102
{ACAD_REACTORS
330
247
102
}
330
247
100
AcDbVisualStyle
  2
Shades of Gray
 70
23
177
3
291
0
 70
58
 90
2
176
1
 90
2
176
1
 90
3
176
1
 90
0
176
1
 40
0.6
176
1
 40
30.0
176
1
 62
7
420
16777215
176
1
 90
2
176
1
 90
2
176
1
 62
7
176
1
 62
7
176
1
 90
1
176
1
 90
1
176
1
 40
40.0
176
1
 90
8
176
1
 62
7
176
1
 40
1.0
176
1
 90
1
176
1
 90
6
176
1
 90
2
176
1
 62
7
176
1
 90
3
176
1
 90
0
176
1
 90
0
176
1
290
0
176
1
 90
1
176
1
 40
0.0
176
1
 90
0
176
1
290
0
176
1
290
1
176
1
290
1
176
1
290
0
176
1
290
0
176
1
290
0
176
1
290
0
176
1
290
0
176
1
290
0
176
1
 90
50
176
1
 40
0.0
176
1
 40
1.0
176
1
 90
0
176
1
 62
18
420
0
176
1
 90
50
176
1
 90
3
176
1
 62
5
420
255
176
1
290
0
176
1
 90
50
176
1
 90
50
176
1
 90
50
176
1
290
0
176
1
 90
50
176
1
 62
256
176
0
 40
1.0
176
0
 90
2
176
1
  1
strokes_ogs.tif
176
1
290
0
176
1
 40
1.0
176
1
 40
1.0
176
1
  0
VISUALSTYLE
  5
25C
102
{ACAD_REACTORS
330
247
102
}
330
247
100
AcDbVisualStyle
  2
Sketchy
 70
24
177
3
291
0
 70
58
 90
1
176
1
 90
2
176
1
 90
2
176
1
 90
0
176
1
 40
0.6
176
1
 40
30.0
176
1
 62
7
420
16777215
176
1
 90
2
176
1
 90
2
176
1
 62
7
176
1
 62
7
176
1
 90
1
176
1
 90
1
176
1
 40
40.0
176
1
 90
11
176
1
 62
7
176
1
 40
1.0
176
1
 90
1
176
1
 90
6
176
1
 90
2
176
1
 62
7
176
1
 90
6
176
1
 90
0
176
1
 90
0
176
1
290
0
176
1
 90
1
176
1
 40
0.0
176
1
 90
0
176
1
290
0
176
1
290
1
176
1
290
1
176
1
290
0
176
1
290
0
176
1
290
0
176
1
290
0
176
1
290
0
176
1
290
0
176
1
 90
50
176
1
 40
0.0
176
1
 40
1.0
176
1
 90
0
176
1
 62
18
420
0
176
1
 90
50
176
1
 90
3
176
1
 62
5
420
255
176
1
290
0
176
1
 90
50
176
1
 90
50
176
1
 90
50
176
1
290
0
176
1
 90
50
176
1
 62
256
176
0
 40
1.0
176
0
 90
2
176
1
  1
strokes_ogs.tif
176
1
290
0
176
1
 40
1.0
176
1
 40
1.0
176
1
  0
VISUALSTYLE
  5
254
102
{ACAD_REACTORS
330
247
102
}
330
247
100
AcDbVisualStyle
  2
Thicken
 70
13
177
3
291
1
 70
58
 90
2
176
1
 90
2
176
1
 90
0
176
1
 90
0
176
1
 40
0.6
176
1
 40
30.0
176
1
 62
7
420
16777215
176
1
 90
1
176
1
 90
4
176
1
 62
7
176
1
 62
257
176
1
 90
1
176
1
 90
1
176
1
 40
1.0
176
1
 90
12
176
1
 62
7
176
1
 40
1.0
176
1
 90
1
176
1
 90
6
176
1
 90
2
176
1
 62
7
176
1
 90
5
176
1
 90
0
176
1
 90
0
176
1
290
0
176
1
 90
1
176
1
 40
0.0
176
1
 90
0
176
1
290
0
176
1
290
1
176
1
290
1
176
1
290
0
176
1
290
0
176
1
290
0
176
1
290
0
176
1
290
0
176
1
290
0
176
1
 90
50
176
1
 40
0.0
176
1
 40
1.0
176
1
 90
0
176
1
 62
18
420
0
176
1
 90
50
176
1
 90
3
176
1
 62
5
420
255
176
1
290
0
176
1
 90
50
176
1
 90
50
176
1
 90
50
176
1
290
0
176
1
 90
50
176
1
 62
256
176
0
 40
1.0
176
0
 90
2
176
1
  1
strokes_ogs.tif
176
1
290
0
176
1
 40
1.0
176
1
 40
1.0
176
1
  0
VISUALSTYLE
  5
24D
102
{ACAD_REACTORS
330
247
102
}
330
247
100
AcDbVisualStyle
  2
Wireframe
 70
5
177
3
291
0
 70
58
 90
0
176
1
 90
2
176
1
 90
0
176
1
 90
0
176
1
 40
0.6
176
1
 40
30.0
176
1
 62
7
420
16777215
176
1
 90
1
176
1
 90
4
176
1
 62
7
176
1
 62
257
176
1
 90
1
176
1
 90
1
176
1
 40
1.0
176
1
 90
0
176
1
 62
257
176
1
 40
1.0
176
1
 90
1
176
1
 90
6
176
1
 90
2
176
1
 62
7
176
1
 90
3
176
1
 90
0
176
1
 90
0
176
1
290
0
176
1
 90
1
176
1
 40
0.0
176
1
 90
0
176
1
290
0
176
1
290
1
176
1
290
1
176
1
290
0
176
1
290
0
176
1
290
0
176
1
290
0
176
1
290
0
176
1
290
0
176
1
 90
50
176
1
 40
0.0
176
1
 40
1.0
176
1
 90
0
176
1
 62
18
420
0
176
1
 90
50
176
1
 90
3
176
1
 62
5
420
255
176
1
290
0
176
1
 90
50
176
1
 90
50
176
1
 90
50
176
1
290
0
176
1
 90
50
176
1
 62
256
176
0
 40
1.0
176
0
 90
2
176
1
  1
strokes_ogs.tif
176
1
290
0
176
1
 40
1.0
176
1
 40
1.0
176
1
  0
VISUALSTYLE
  5
25D
102
{ACAD_REACTORS
330
247
102
}
330
247
100
AcDbVisualStyle
  2
X-Ray
 70
25
177
3
291
0
 70
58
 90
2
176
1
 90
2
176
1
 90
1
176
1
 90
1
176
1
 40
0.5
176
1
 40
30.0
176
1
 62
7
420
16777215
176
1
 90
1
176
1
 90
0
176
1
 62
7
176
1
 62
257
176
1
 90
1
176
1
 90
1
176
1
 40
1.0
176
1
 90
8
176
1
 62
7
176
1
 40
1.0
176
1
 90
1
176
1
 90
6
176
1
 90
2
176
1
 62
7
176
1
 90
3
176
1
 90
0
176
1
 90
0
176
1
290
0
176
1
 90
13
176
1
 40
0.0
176
1
 90
0
176
1
290
0
176
1
290
1
176
1
290
1
176
1
290
0
176
1
290
0
176
1
290
0
176
1
290
0
176
1
290
0
176
1
290
0
176
1
 90
50
176
1
 40
0.0
176
1
 40
1.0
176
1
 90
0
176
1
 62
18
420
0
176
1
 90
50
176
1
 90
3
176
1
 62
5
420
255
176
1
290
0
176
1
 90
50
176
1
 90
50
176
1
 90
50
176
1
290
0
176
1
 90
50
176
1
 62
256
176
0
 40
1.0
176
0
 90
2
176
1
  1
strokes_ogs.tif
176
1
290
0
176
1
 40
1.0
176
1
 40
1.0
176
1
  0
DICTIONARYVAR
  5
265
102
{ACAD_REACTORS
330
264
102
}
330
264
100
DictionaryVariables
280
0
  1
1:1
  0
DICTIONARYVAR
  5
26A
102
{ACAD_REACTORS
330
264
102
}
330
264
100
DictionaryVariables
280
0
  1
Standard
  0
DICTIONARYVAR
  5
269
102
{ACAD_REACTORS
330
264
102
}
330
264
100
DictionaryVariables
280
0
  1
Standard
  0
DICTIONARYVAR
  5
26B
102
{ACAD_REACTORS
330
264
102
}
330
264
100
DictionaryVariables
280
0
  1
0
  0
DICTIONARY
  5
26E
330
261
100
AcDbDictionary
280
1
281
1
  3
ACAD_ROUNDTRIP_2008_TABLESTYLE_CELLSTYLEMAP
360
26F
  0
CELLSTYLEMAP
  5
26F
102
{ACAD_REACTORS
330
26E
102
}
330
26E
100
AcDbCellStyleMap
 90
3
300
CELLSTYLE
  1
TABLEFORMAT_BEGIN
 90
5
170
1
 91
0
 92
32768
 62
257
 93
1
300
CONTENTFORMAT
  1
CONTENTFORMAT_BEGIN
 90
0
 91
0
 92
4
 93
0
300

 40
0.0
140
1.0
 94
5
 62
0
340
11
144
0.25
309
CONTENTFORMAT_END
171
1
301
MARGIN
  1
CELLMARGIN_BEGIN
 40
0.06
 40
0.06
 40
0.06
 40
0.06
 40
0.06
 40
0.06
309
CELLMARGIN_END
 94
6
 95
1
302
GRIDFORMAT
  1
GRIDFORMAT_BEGIN
 90
0
 91
1
 62
0
 92
-2
340
14
 93
0
 40
0.045
309
GRIDFORMAT_END
 95
2
302
GRIDFORMAT
  1
GRIDFORMAT_BEGIN
 90
0
 91
1
 62
0
 92
-2
340
14
 93
0
 40
0.045
309
GRIDFORMAT_END
 95
4
302
GRIDFORMAT
  1
GRIDFORMAT_BEGIN
 90
0
 91
1
 62
0
 92
-2
340
14
 93
0
 40
0.045
309
GRIDFORMAT_END
 95
8
302
GRIDFORMAT
  1
GRIDFORMAT_BEGIN
 90
0
 91
1
 62
0
 92
-2
340
14
 93
0
 40
0.045
309
GRIDFORMAT_END
 95
16
302
GRIDFORMAT
  1
GRIDFORMAT_BEGIN
 90
0
 91
1
 62
0
 92
-2
340
14
 93
0
 40
0.045
309
GRIDFORMAT_END
 95
32
302
GRIDFORMAT
  1
GRIDFORMAT_BEGIN
 90
0
 91
1
 62
0
 92
-2
340
14
 93
0
 40
0.045
309
GRIDFORMAT_END
309
TABLEFORMAT_END
  1
CELLSTYLE_BEGIN
 90
1
 91
1
300
_TITLE
309
CELLSTYLE_END
300
CELLSTYLE
  1
TABLEFORMAT_BEGIN
 90
5
170
1
 91
0
 92
0
 62
257
 93
1
300
CONTENTFORMAT
  1
CONTENTFORMAT_BEGIN
 90
0
 91
0
 92
4
 93
0
300

 40
0.0
140
1.0
 94
5
 62
0
340
11
144
0.18
309
CONTENTFORMAT_END
171
1
301
MARGIN
  1
CELLMARGIN_BEGIN
 40
0.06
 40
0.06
 40
0.06
 40
0.06
 40
0.06
 40
0.06
309
CELLMARGIN_END
 94
6
 95
1
302
GRIDFORMAT
  1
GRIDFORMAT_BEGIN
 90
0
 91
1
 62
0
 92
-2
340
14
 93
0
 40
0.045
309
GRIDFORMAT_END
 95
2
302
GRIDFORMAT
  1
GRIDFORMAT_BEGIN
 90
0
 91
1
 62
0
 92
-2
340
14
 93
0
 40
0.045
309
GRIDFORMAT_END
 95
4
302
GRIDFORMAT
  1
GRIDFORMAT_BEGIN
 90
0
 91
1
 62
0
 92
-2
340
14
 93
0
 40
0.045
309
GRIDFORMAT_END
 95
8
302
GRIDFORMAT
  1
GRIDFORMAT_BEGIN
 90
0
 91
1
 62
0
 92
-2
340
14
 93
0
 40
0.045
309
GRIDFORMAT_END
 95
16
302
GRIDFORMAT
  1
GRIDFORMAT_BEGIN
 90
0
 91
1
 62
0
 92
-2
340
14
 93
0
 40
0.045
309
GRIDFORMAT_END
 95
32
302
GRIDFORMAT
  1
GRIDFORMAT_BEGIN
 90
0
 91
1
 62
0
 92
-2
340
14
 93
0
 40
0.045
309
GRIDFORMAT_END
309
TABLEFORMAT_END
  1
CELLSTYLE_BEGIN
 90
2
 91
1
300
_HEADER
309
CELLSTYLE_END
300
CELLSTYLE
  1
TABLEFORMAT_BEGIN
 90
5
170
1
 91
0
 92
0
 62
257
 93
1
300
CONTENTFORMAT
  1
CONTENTFORMAT_BEGIN
 90
0
 91
0
 92
4
 93
0
300

 40
0.0
140
1.0
 94
2
 62
0
340
11
144
0.18
309
CONTENTFORMAT_END
171
1
301
MARGIN
  1
CELLMARGIN_BEGIN
 40
0.06
 40
0.06
 40
0.06
 40
0.06
 40
0.06
 40
0.06
309
CELLMARGIN_END
 94
6
 95
1
302
GRIDFORMAT
  1
GRIDFORMAT_BEGIN
 90
0
 91
1
 62
0
 92
-2
340
14
 93
0
 40
0.045
309
GRIDFORMAT_END
 95
2
302
GRIDFORMAT
  1
GRIDFORMAT_BEGIN
 90
0
 91
1
 62
0
 92
-2
340
14
 93
0
 40
0.045
309
GRIDFORMAT_END
 95
4
302
GRIDFORMAT
  1
GRIDFORMAT_BEGIN
 90
0
 91
1
 62
0
 92
-2
340
14
 93
0
 40
0.045
309
GRIDFORMAT_END
 95
8
302
GRIDFORMAT
  1
GRIDFORMAT_BEGIN
 90
0
 91
1
 62
0
 92
-2
340
14
 93
0
 40
0.045
309
GRIDFORMAT_END
 95
16
302
GRIDFORMAT
  1
GRIDFORMAT_BEGIN
 90
0
 91
1
 62
0
 92
-2
340
14
 93
0
 40
0.045
309
GRIDFORMAT_END
 95
32
302
GRIDFORMAT
  1
GRIDFORMAT_BEGIN
 90
0
 91
1
 62
0
 92
-2
340
14
 93
0
 40
0.045
309
GRIDFORMAT_END
309
TABLEFORMAT_END
  1
CELLSTYLE_BEGIN
 90
3
 91
2
300
_DATA
309
CELLSTYLE_END
  0
DICTIONARY
  5
271
330
C
100
AcDbDictionary
281
1
  0
DICTIONARY
  5
272
330
C
100
AcDbDictionary
280
1
281
1
  3
WRITTEN_BY_EZDXF
350
273
  0
DICTIONARYVAR
  5
273
330
272
100
DictionaryVariables
280
0
  1
1.4.3 @ 2026-03-01T19:59:33.920672+00:00
  0
ENDSEC
  0
EOF
