  0
SECTION
  2
HEADER
  9
$ACADVER
  1
AC1009
  9
$DWGCODEPAGE
  3
ANSI_1252
  9
$EXTMIN
 10
1e+20
 20
1e+20
 30
1e+20
  9
$EXTMAX
 10
-1e+20
 20
-1e+20
 30
-1e+20
  9
$LIMMIN
 10
0.0
 20
0.0
  9
$LIMMAX
 10
420.0
 20
297.0
  9
$TDCREATE
 40
2461050.877835648
  9
$TDUPDATE
 40
2461050.877835648
  9
$ANGBASE
 50
0.0
  9
$ANGDIR
 70
1
  9
$PEXTMIN
 10
1e+20
 20
1e+20
 30
1e+20
  9
$PEXTMAX
 10
-1e+20
 20
-1e+20
 30
-1e+20
  9
$PLIMMIN
 10
0.0
 20
0.0
  9
$PLIMMAX
 10
420.0
 20
297.0
  0
ENDSEC
  0
SECTION
  2
TABLES
  0
TABLE
  2
VPORT
 70
1
  0
VPORT
  2
*Active
 70
0
 10
0.0
 20
0.0
 11
1.0
 21
1.0
 12
0.0
 22
0.0
 13
0.0
 23
0.0
 14
0.5
 24
0.5
 15
0.5
 25
0.5
 16
0.0
 26
0.0
 36
1.0
 17
0.0
 27
0.0
 37
0.0
 40
1000.0
 41
1.34
 42
50.0
 43
0.0
 44
0.0
 50
0.0
 51
0.0
 71
0
 72
1000
 73
1
 74
3
 75
0
 76
0
 77
0
 78
0
  0
ENDTAB
  0
TABLE
  2
LTYPE
 70
6
  0
LTYPE
  2
CONTINUOUS
 70
0
  3
Solid line
 72
65
 73
0
 40
0.0
  0
LTYPE
  2
DASHDOT
 70
0
  3
Dash Dot ____ _ ____ _
 72
65
 73
4
 40
2.0
 49
1.25
 49
-0.25
 49
0.25
 49
-0.25
  0
LTYPE
  2
DASHED
 70
0
  3
Dashed __ __ __ __ __
 72
65
 73
2
 40
0.75
 49
0.5
 49
-0.25
  0
LTYPE
  2
DOTTED
 70
0
  3
Dotted .  .  .  .
 72
65
 73
2
 40
0.2
 49
0.0
 49
-0.2
  0
LTYPE
  2
ByBlock
 70
0
  3

 72
65
 73
0
 40
0.0
  0
LTYPE
  2
ByLayer
 70
0
  3

 72
65
 73
0
 40
0.0
  0
ENDTAB
  0
TABLE
  2
LAYER
 70
3
  0
LAYER
  2
BLACK
 70
0
 62
7
  6
CONTINUOUS
  0
LAYER
  2
0
 70
0
 62
7
  6
Continuous
  0
LAYER
  2
Defpoints
 70
0
 62
7
  6
Continuous
  0
ENDTAB
  0
TABLE
  2
STYLE
 70
5
  0
STYLE
  2
KICAD
 70
0
 40
0.0
 41
1.0
 50
0.0
 71
0
 42
1.0
  3
isocp.shx
  4

  0
STYLE
  2
KICADB
 70
0
 40
0.0
 41
1.0
 50
0.0
 71
0
 42
1.0
  3
isocp.shx
  4

  0
STYLE
  2
KICADI
 70
0
 40
0.0
 41
1.0
 50
15.0
 71
0
 42
1.0
  3
isocp.shx
  4

  0
STYLE
  2
KICADBI
 70
0
 40
0.0
 41
1.0
 50
15.0
 71
0
 42
1.0
  3
isocp.shx
  4

  0
STYLE
  2
Standard
 70
0
 40
0.0
 41
1.0
 50
0.0
 71
0
 42
2.5
  3
txt
  4

  0
ENDTAB
  0
TABLE
  2
VIEW
 70
0
  0
ENDTAB
  0
TABLE
  2
UCS
 70
0
  0
ENDTAB
  0
TABLE
  2
APPID
 70
3
  0
APPID
  2
ACAD
 70
0
  0
APPID
  2
HATCHBACKGROUNDCOLOR
 70
0
  0
APPID
  2
EZDXF
 70
0
  0
ENDTAB
  0
TABLE
  2
DIMSTYLE
 70
1
  0
DIMSTYLE
  2
Standard
 70
0
  3

  4

  5

  6

  7

 40
1.0
 41
2.5
 42
0.625
 43
3.75
 44
1.25
 45
0.0
 46
0.0
 47
0.0
 48
0.0
140
2.5
141
2.5
142
0.0
143
0.03937007874
144
1.0
145
0.0
146
1.0
147
0.625
 71
0
 72
0
 73
0
 74
0
 75
0
 76
0
 77
1
 78
8
170
0
171
3
172
1
173
0
174
0
175
0
176
0
177
0
178
0
  0
ENDTAB
  0
ENDSEC
  0
SECTION
  2
BLOCKS
  0
BLOCK
  8
0
  2
$Model_Space
 70
0
 10
0.0
 20
0.0
 30
0.0
  3
$Model_Space
  1

1001
EZDXF
1000
WRITTEN_BY_EZDXF
1000
1.4.3 @ 2026-01-09T20:04:05.729914+00:00
  0
ENDBLK
  8
0
  0
BLOCK
  8
0
  2
$Paper_Space
 70
0
 10
0.0
 20
0.0
 30
0.0
  3
$Paper_Space
  1

  0
ENDBLK
  8
0
  0
ENDSEC
  0
SECTION
  2
ENTITIES
  0
LINE
  8
BLACK
  6
CONTINUOUS
 10
64.449987
 20
6.499985
 30
0.0
 11
64.45
 21
6.499985
 31
0.0
  0
LINE
  8
BLACK
  6
CONTINUOUS
 10
59.687487
 20
-31.600015
 30
0.0
 11
59.6875
 21
-31.600015
 31
0.0
  0
LINE
  8
BLACK
  6
CONTINUOUS
 10
107.31248699999999
 20
-50.650014999999996
 30
0.0
 11
107.3125
 21
-50.650014999999996
 31
0.0
  0
LINE
  8
BLACK
  6
CONTINUOUS
 10
112.074987
 20
-12.550015
 30
0.0
 11
112.07499999999999
 21
-12.550015
 31
0.0
  0
LINE
  8
BLACK
  6
CONTINUOUS
 10
167.77508
 20
-89.374926
 30
0.0
 11
167.775
 21
-89.374926
 31
0.0
  0
LINE
  8
BLACK
  6
CONTINUOUS
 10
256.67508
 20
-89.374926
 30
0.0
 11
256.675
 21
-89.374926
 31
0.0
  0
LINE
  8
BLACK
  6
CONTINUOUS
 10
187.825
 20
11.925073999999999
 30
0.0
 11
187.82507999999999
 21
11.925073999999999
 31
0.0
  0
LINE
  8
BLACK
  6
CONTINUOUS
 10
98.925
 20
11.925073999999999
 30
0.0
 11
98.92508
 21
11.925073999999999
 31
0.0
  0
LINE
  8
BLACK
  6
CONTINUOUS
 10
10.025
 20
11.925073999999999
 30
0.0
 11
10.025079999999999
 21
11.925073999999999
 31
0.0
  0
LINE
  8
BLACK
  6
CONTINUOUS
 10
-6.025028
 20
17.175057
 30
0.0
 11
-6.025028
 21
17.175069
 31
0.0
  0
LINE
  8
BLACK
  6
CONTINUOUS
 10
154.937487
 20
-31.600015
 30
0.0
 11
154.9375
 21
-31.600015
 31
0.0
  0
LINE
  8
BLACK
  6
CONTINUOUS
 10
202.562487
 20
-50.650014999999996
 30
0.0
 11
202.5625
 21
-50.650014999999996
 31
0.0
  0
LINE
  8
BLACK
  6
CONTINUOUS
 10
231.137487
 20
-31.600015
 30
0.0
 11
231.1375
 21
-31.600015
 31
0.0
  0
LINE
  8
BLACK
  6
CONTINUOUS
 10
73.974987
 20
-12.550015
 30
0.0
 11
73.975
 21
-12.550015
 31
0.0
  0
LINE
  8
BLACK
  6
CONTINUOUS
 10
78.737487
 20
-31.600015
 30
0.0
 11
78.7375
 21
-31.600015
 31
0.0
  0
LINE
  8
BLACK
  6
CONTINUOUS
 10
12.062486999999999
 20
-12.550015
 30
0.0
 11
12.0625
 21
-12.550015
 31
0.0
  0
LINE
  8
BLACK
  6
CONTINUOUS
 10
226.37498699999998
 20
-12.550015
 30
0.0
 11
226.375
 21
-12.550015
 31
0.0
  0
LINE
  8
BLACK
  6
CONTINUOUS
 10
188.27498699999998
 20
-12.550015
 30
0.0
 11
188.275
 21
-12.550015
 31
0.0
  0
LINE
  8
BLACK
  6
CONTINUOUS
 10
121.599987
 20
6.499985
 30
0.0
 11
121.6
 21
6.499985
 31
0.0
  0
LINE
  8
BLACK
  6
CONTINUOUS
 10
93.024987
 20
-12.550015
 30
0.0
 11
93.02499999999999
 21
-12.550015
 31
0.0
  0
LINE
  8
BLACK
  6
CONTINUOUS
 10
183.512487
 20
-50.650014999999996
 30
0.0
 11
183.5125
 21
-50.650014999999996
 31
0.0
  0
LINE
  8
BLACK
  6
CONTINUOUS
 10
221.612487
 20
-50.650014999999996
 30
0.0
 11
221.61249999999998
 21
-50.650014999999996
 31
0.0
  0
LINE
  8
BLACK
  6
CONTINUOUS
 10
216.849987
 20
6.499985
 30
0.0
 11
216.85
 21
6.499985
 31
0.0
  0
LINE
  8
BLACK
  6
CONTINUOUS
 10
102.549987
 20
6.499985
 30
0.0
 11
102.55
 21
6.499985
 31
0.0
  0
LINE
  8
BLACK
  6
CONTINUOUS
 10
193.037487
 20
-31.600015
 30
0.0
 11
193.0375
 21
-31.600015
 31
0.0
  0
LINE
  8
BLACK
  6
CONTINUOUS
 10
69.212487
 20
-50.650014999999996
 30
0.0
 11
69.21249999999999
 21
-50.650014999999996
 31
0.0
  0
LINE
  8
BLACK
  6
CONTINUOUS
 10
245.424987
 20
-12.550015
 30
0.0
 11
245.42499999999998
 21
-12.550015
 31
0.0
  0
LINE
  8
BLACK
  6
CONTINUOUS
 10
97.787487
 20
-31.600015
 30
0.0
 11
97.7875
 21
-31.600015
 31
0.0
  0
LINE
  8
BLACK
  6
CONTINUOUS
 10
131.124987
 20
-12.550015
 30
0.0
 11
131.125
 21
-12.550015
 31
0.0
  0
LINE
  8
BLACK
  6
CONTINUOUS
 10
235.89998699999998
 20
6.499985
 30
0.0
 11
235.89999999999998
 21
6.499985
 31
0.0
  0
LINE
  8
BLACK
  6
CONTINUOUS
 10
135.887487
 20
-31.600015
 30
0.0
 11
135.8875
 21
-31.600015
 31
0.0
  0
LINE
  8
BLACK
  6
CONTINUOUS
 10
126.36248699999999
 20
-50.650014999999996
 30
0.0
 11
126.3625
 21
-50.650014999999996
 31
0.0
  0
LINE
  8
BLACK
  6
CONTINUOUS
 10
35.874987
 20
-12.550015
 30
0.0
 11
35.875
 21
-12.550015
 31
0.0
  0
LINE
  8
BLACK
  6
CONTINUOUS
 10
197.799987
 20
6.499985
 30
0.0
 11
197.79999999999998
 21
6.499985
 31
0.0
  0
LINE
  8
BLACK
  6
CONTINUOUS
 10
150.174987
 20
-12.550015
 30
0.0
 11
150.17499999999998
 21
-12.550015
 31
0.0
  0
LINE
  8
BLACK
  6
CONTINUOUS
 10
173.987487
 20
-31.600015
 30
0.0
 11
173.98749999999998
 21
-31.600015
 31
0.0
  0
LINE
  8
BLACK
  6
CONTINUOUS
 10
40.637487
 20
-31.600015
 30
0.0
 11
40.637499999999996
 21
-31.600015
 31
0.0
  0
LINE
  8
BLACK
  6
CONTINUOUS
 10
140.64998699999998
 20
6.499985
 30
0.0
 11
140.65
 21
6.499985
 31
0.0
  0
LINE
  8
BLACK
  6
CONTINUOUS
 10
169.224987
 20
-12.550015
 30
0.0
 11
169.225
 21
-12.550015
 31
0.0
  0
LINE
  8
BLACK
  6
CONTINUOUS
 10
50.162487
 20
-50.650014999999996
 30
0.0
 11
50.162499999999994
 21
-50.650014999999996
 31
0.0
  0
LINE
  8
BLACK
  6
CONTINUOUS
 10
83.49998699999999
 20
6.499985
 30
0.0
 11
83.5
 21
6.499985
 31
0.0
  0
LINE
  8
BLACK
  6
CONTINUOUS
 10
159.699987
 20
6.499985
 30
0.0
 11
159.7
 21
6.499985
 31
0.0
  0
LINE
  8
BLACK
  6
CONTINUOUS
 10
26.349987
 20
6.499985
 30
0.0
 11
26.349999999999998
 21
6.499985
 31
0.0
  0
LINE
  8
BLACK
  6
CONTINUOUS
 10
178.749987
 20
6.499985
 30
0.0
 11
178.75
 21
6.499985
 31
0.0
  0
LINE
  8
BLACK
  6
CONTINUOUS
 10
54.924986999999994
 20
-12.550015
 30
0.0
 11
54.925
 21
-12.550015
 31
0.0
  0
LINE
  8
BLACK
  6
CONTINUOUS
 10
207.324987
 20
-12.550015
 30
0.0
 11
207.325
 21
-12.550015
 31
0.0
  0
LINE
  8
BLACK
  6
CONTINUOUS
 10
145.412487
 20
-50.650014999999996
 30
0.0
 11
145.4125
 21
-50.650014999999996
 31
0.0
  0
LINE
  8
BLACK
  6
CONTINUOUS
 10
212.08748699999998
 20
-31.600015
 30
0.0
 11
212.08749999999998
 21
-31.600015
 31
0.0
  0
LINE
  8
BLACK
  6
CONTINUOUS
 10
88.262487
 20
-50.650014999999996
 30
0.0
 11
88.2625
 21
-50.650014999999996
 31
0.0
  0
LINE
  8
BLACK
  6
CONTINUOUS
 10
164.46248699999998
 20
-50.650014999999996
 30
0.0
 11
164.4625
 21
-50.650014999999996
 31
0.0
  0
LINE
  8
BLACK
  6
CONTINUOUS
 10
7.299987
 20
6.499985
 30
0.0
 11
7.3
 21
6.499985
 31
0.0
  0
LINE
  8
BLACK
  6
CONTINUOUS
 10
116.837487
 20
-31.600015
 30
0.0
 11
116.83749999999999
 21
-31.600015
 31
0.0
  0
LINE
  8
BLACK
  6
CONTINUOUS
 10
45.399986999999996
 20
6.499985
 30
0.0
 11
45.4
 21
6.499985
 31
0.0
  0
CIRCLE
  8
BLACK
 10
42.8625
 20
-38.1
 30
0.0
 40
1.0
  0
CIRCLE
  8
BLACK
 10
90.4875
 20
-57.15
 30
0.0
 40
1.0
  0
CIRCLE
  8
BLACK
 10
-7.14375
 20
-38.1
 30
0.0
 40
1.0
  0
CIRCLE
  8
BLACK
 10
28.575
 20
0.0
 30
0.0
 40
1.0
  0
CIRCLE
  8
BLACK
 10
185.73749999999998
 20
-57.15
 30
0.0
 40
1.0
  0
CIRCLE
  8
BLACK
 10
171.45
 20
-19.05
 30
0.0
 40
1.0
  0
CIRCLE
  8
BLACK
 10
142.875
 20
0.0
 30
0.0
 40
1.0
  0
CIRCLE
  8
BLACK
 10
66.675
 20
0.0
 30
0.0
 40
1.0
  0
CIRCLE
  8
BLACK
 10
95.25
 20
-19.05
 30
0.0
 40
1.0
  0
LINE
  8
BLACK
  6
CONTINUOUS
 10
140.3375
 20
-31.600015
 30
0.0
 11
140.3375
 21
-44.603479
 31
0.0
  0
ARC
  8
BLACK
 10
140.837472
 20
-44.600015
 30
0.0
 40
0.499985
 50
-179.60303896
 51
-90.0
  0
LINE
  8
BLACK
  6
CONTINUOUS
 10
140.837472
 20
-45.1
 30
0.0
 11
154.443952
 21
-45.1
 31
0.0
  0
ARC
  8
BLACK
 10
154.43747199999999
 20
-44.600015
 30
0.0
 40
0.500028
 50
-89.25746599
 51
-0.0
  0
LINE
  8
BLACK
  6
CONTINUOUS
 10
154.9375
 20
-44.600015
 30
0.0
 11
154.9375
 21
-31.600015
 31
0.0
  0
ARC
  8
BLACK
 10
154.43747199999999
 20
-31.600015
 30
0.0
 40
0.500015
 50
0.0
 51
90.0
  0
LINE
  8
BLACK
  6
CONTINUOUS
 10
154.43747199999999
 20
-31.099999999999998
 30
0.0
 11
140.8375
 21
-31.099999999999998
 31
0.0
  0
ARC
  8
BLACK
 10
140.837472
 20
-31.600015
 30
0.0
 40
0.499972
 50
89.99679153
 51
180.0
  0
LINE
  8
BLACK
  6
CONTINUOUS
 10
187.9625
 20
-50.650014999999996
 30
0.0
 11
187.9625
 21
-63.653479
 31
0.0
  0
ARC
  8
BLACK
 10
188.462472
 20
-63.650014999999996
 30
0.0
 40
0.499985
 50
-179.60303896
 51
-90.0
  0
LINE
  8
BLACK
  6
CONTINUOUS
 10
188.462472
 20
-64.14999999999999
 30
0.0
 11
202.068952
 21
-64.14999999999999
 31
0.0
  0
ARC
  8
BLACK
 10
202.06247199999999
 20
-63.650014999999996
 30
0.0
 40
0.500028
 50
-89.25746599
 51
-0.0
  0
LINE
  8
BLACK
  6
CONTINUOUS
 10
202.5625
 20
-63.650014999999996
 30
0.0
 11
202.5625
 21
-50.650014999999996
 31
0.0
  0
ARC
  8
BLACK
 10
202.06247199999999
 20
-50.650014999999996
 30
0.0
 40
0.500015
 50
0.0
 51
90.0
  0
LINE
  8
BLACK
  6
CONTINUOUS
 10
202.06247199999999
 20
-50.15
 30
0.0
 11
188.46249999999998
 21
-50.15
 31
0.0
  0
ARC
  8
BLACK
 10
188.462472
 20
-50.650014999999996
 30
0.0
 40
0.499972
 50
89.99679153
 51
180.0
  0
LINE
  8
BLACK
  6
CONTINUOUS
 10
216.5375
 20
-31.600015
 30
0.0
 11
216.5375
 21
-44.603479
 31
0.0
  0
ARC
  8
BLACK
 10
217.03747199999998
 20
-44.600015
 30
0.0
 40
0.499985
 50
-179.60303896
 51
-90.0
  0
LINE
  8
BLACK
  6
CONTINUOUS
 10
217.03747199999998
 20
-45.1
 30
0.0
 11
230.64395199999998
 21
-45.1
 31
0.0
  0
ARC
  8
BLACK
 10
230.637472
 20
-44.600015
 30
0.0
 40
0.500028
 50
-89.25746599
 51
-0.0
  0
LINE
  8
BLACK
  6
CONTINUOUS
 10
231.1375
 20
-44.600015
 30
0.0
 11
231.1375
 21
-31.600015
 31
0.0
  0
ARC
  8
BLACK
 10
230.637472
 20
-31.600015
 30
0.0
 40
0.500015
 50
0.0
 51
90.0
  0
LINE
  8
BLACK
  6
CONTINUOUS
 10
230.637472
 20
-31.099999999999998
 30
0.0
 11
217.0375
 21
-31.099999999999998
 31
0.0
  0
ARC
  8
BLACK
 10
217.03747199999998
 20
-31.600015
 30
0.0
 40
0.499972
 50
89.99679153
 51
180.0
  0
LINE
  8
BLACK
  6
CONTINUOUS
 10
59.375
 20
-12.550015
 30
0.0
 11
59.375
 21
-25.553479
 31
0.0
  0
ARC
  8
BLACK
 10
59.874972
 20
-25.550015
 30
0.0
 40
0.499985
 50
-179.60303896
 51
-90.0
  0
LINE
  8
BLACK
  6
CONTINUOUS
 10
59.874972
 20
-26.049999999999997
 30
0.0
 11
73.48145199999999
 21
-26.049999999999997
 31
0.0
  0
ARC
  8
BLACK
 10
73.474972
 20
-25.550015
 30
0.0
 40
0.500028
 50
-89.25746599
 51
-0.0
  0
LINE
  8
BLACK
  6
CONTINUOUS
 10
73.975
 20
-25.550015
 30
0.0
 11
73.975
 21
-12.550015
 31
0.0
  0
ARC
  8
BLACK
 10
73.474972
 20
-12.550015
 30
0.0
 40
0.500015
 50
0.0
 51
90.0
  0
LINE
  8
BLACK
  6
CONTINUOUS
 10
73.474972
 20
-12.049999999999999
 30
0.0
 11
59.875
 21
-12.049999999999999
 31
0.0
  0
ARC
  8
BLACK
 10
59.874972
 20
-12.550015
 30
0.0
 40
0.499972
 50
89.99679153
 51
180.0
  0
LINE
  8
BLACK
  6
CONTINUOUS
 10
64.1375
 20
-31.600015
 30
0.0
 11
64.1375
 21
-44.603479
 31
0.0
  0
ARC
  8
BLACK
 10
64.637472
 20
-44.600015
 30
0.0
 40
0.499985
 50
-179.60303896
 51
-90.0
  0
LINE
  8
BLACK
  6
CONTINUOUS
 10
64.637472
 20
-45.1
 30
0.0
 11
78.243952
 21
-45.1
 31
0.0
  0
ARC
  8
BLACK
 10
78.237472
 20
-44.600015
 30
0.0
 40
0.500028
 50
-89.25746599
 51
-0.0
  0
LINE
  8
BLACK
  6
CONTINUOUS
 10
78.7375
 20
-44.600015
 30
0.0
 11
78.7375
 21
-31.600015
 31
0.0
  0
ARC
  8
BLACK
 10
78.237472
 20
-31.600015
 30
0.0
 40
0.500015
 50
0.0
 51
90.0
  0
LINE
  8
BLACK
  6
CONTINUOUS
 10
78.237472
 20
-31.099999999999998
 30
0.0
 11
64.6375
 21
-31.099999999999998
 31
0.0
  0
ARC
  8
BLACK
 10
64.637472
 20
-31.600015
 30
0.0
 40
0.499972
 50
89.99679153
 51
180.0
  0
LINE
  8
BLACK
  6
CONTINUOUS
 10
-2.5375
 20
-12.550015
 30
0.0
 11
-2.5375
 21
-25.553479
 31
0.0
  0
ARC
  8
BLACK
 10
-2.037528
 20
-25.550015
 30
0.0
 40
0.499985
 50
-179.60303896
 51
-90.0
  0
LINE
  8
BLACK
  6
CONTINUOUS
 10
-2.037528
 20
-26.049999999999997
 30
0.0
 11
11.568952
 21
-26.049999999999997
 31
0.0
  0
ARC
  8
BLACK
 10
11.562472
 20
-25.550015
 30
0.0
 40
0.500028
 50
-89.25746599
 51
-0.0
  0
LINE
  8
BLACK
  6
CONTINUOUS
 10
12.0625
 20
-25.550015
 30
0.0
 11
12.0625
 21
-12.550015
 31
0.0
  0
ARC
  8
BLACK
 10
11.562472
 20
-12.550015
 30
0.0
 40
0.500015
 50
0.0
 51
90.0
  0
LINE
  8
BLACK
  6
CONTINUOUS
 10
11.562472
 20
-12.049999999999999
 30
0.0
 11
-2.037499
 21
-12.049999999999999
 31
0.0
  0
ARC
  8
BLACK
 10
-2.037528
 20
-12.550015
 30
0.0
 40
0.499972
 50
89.99667694
 51
180.0
  0
LINE
  8
BLACK
  6
CONTINUOUS
 10
211.77499999999998
 20
-12.550015
 30
0.0
 11
211.77499999999998
 21
-25.553479
 31
0.0
  0
ARC
  8
BLACK
 10
212.274972
 20
-25.550015
 30
0.0
 40
0.499985
 50
-179.60303896
 51
-90.0
  0
LINE
  8
BLACK
  6
CONTINUOUS
 10
212.274972
 20
-26.049999999999997
 30
0.0
 11
225.881452
 21
-26.049999999999997
 31
0.0
  0
ARC
  8
BLACK
 10
225.87497199999999
 20
-25.550015
 30
0.0
 40
0.500028
 50
-89.25746599
 51
-0.0
  0
LINE
  8
BLACK
  6
CONTINUOUS
 10
226.375
 20
-25.550015
 30
0.0
 11
226.375
 21
-12.550015
 31
0.0
  0
ARC
  8
BLACK
 10
225.87497199999999
 20
-12.550015
 30
0.0
 40
0.500015
 50
0.0
 51
90.0
  0
LINE
  8
BLACK
  6
CONTINUOUS
 10
225.87497199999999
 20
-12.049999999999999
 30
0.0
 11
212.27499999999998
 21
-12.049999999999999
 31
0.0
  0
ARC
  8
BLACK
 10
212.274972
 20
-12.550015
 30
0.0
 40
0.499972
 50
89.99679153
 51
180.0
  0
LINE
  8
BLACK
  6
CONTINUOUS
 10
173.67499999999998
 20
-12.550015
 30
0.0
 11
173.67499999999998
 21
-25.553479
 31
0.0
  0
ARC
  8
BLACK
 10
174.174972
 20
-25.550015
 30
0.0
 40
0.499985
 50
-179.60303896
 51
-90.0
  0
LINE
  8
BLACK
  6
CONTINUOUS
 10
174.174972
 20
-26.049999999999997
 30
0.0
 11
187.781452
 21
-26.049999999999997
 31
0.0
  0
ARC
  8
BLACK
 10
187.774972
 20
-25.550015
 30
0.0
 40
0.500028
 50
-89.25746599
 51
-0.0
  0
LINE
  8
BLACK
  6
CONTINUOUS
 10
188.275
 20
-25.550015
 30
0.0
 11
188.275
 21
-12.550015
 31
0.0
  0
ARC
  8
BLACK
 10
187.774972
 20
-12.550015
 30
0.0
 40
0.500015
 50
0.0
 51
90.0
  0
LINE
  8
BLACK
  6
CONTINUOUS
 10
187.774972
 20
-12.049999999999999
 30
0.0
 11
174.17499999999998
 21
-12.049999999999999
 31
0.0
  0
ARC
  8
BLACK
 10
174.174972
 20
-12.550015
 30
0.0
 40
0.499972
 50
89.99679153
 51
180.0
  0
LINE
  8
BLACK
  6
CONTINUOUS
 10
107.0
 20
6.499985
 30
0.0
 11
107.0
 21
-6.503479
 31
0.0
  0
ARC
  8
BLACK
 10
107.499972
 20
-6.500014999999999
 30
0.0
 40
0.499985
 50
-179.60303896
 51
-90.0
  0
LINE
  8
BLACK
  6
CONTINUOUS
 10
107.499972
 20
-7.0
 30
0.0
 11
121.10645199999999
 21
-7.0
 31
0.0
  0
ARC
  8
BLACK
 10
121.099972
 20
-6.500014999999999
 30
0.0
 40
0.500028
 50
-89.25746599
 51
-0.0
  0
LINE
  8
BLACK
  6
CONTINUOUS
 10
121.6
 20
-6.500014999999999
 30
0.0
 11
121.6
 21
6.499985
 31
0.0
  0
ARC
  8
BLACK
 10
121.099972
 20
6.499985
 30
0.0
 40
0.500015
 50
0.0
 51
90.0
  0
LINE
  8
BLACK
  6
CONTINUOUS
 10
121.099972
 20
7.0
 30
0.0
 11
107.5
 21
7.0
 31
0.0
  0
ARC
  8
BLACK
 10
107.499972
 20
6.499985
 30
0.0
 40
0.499972
 50
89.99679153
 51
180.0
  0
LINE
  8
BLACK
  6
CONTINUOUS
 10
78.425
 20
-12.550015
 30
0.0
 11
78.425
 21
-25.553479
 31
0.0
  0
ARC
  8
BLACK
 10
78.924972
 20
-25.550015
 30
0.0
 40
0.499985
 50
-179.60303896
 51
-90.0
  0
LINE
  8
BLACK
  6
CONTINUOUS
 10
78.924972
 20
-26.049999999999997
 30
0.0
 11
92.531452
 21
-26.049999999999997
 31
0.0
  0
ARC
  8
BLACK
 10
92.52497199999999
 20
-25.550015
 30
0.0
 40
0.500028
 50
-89.25746599
 51
-0.0
  0
LINE
  8
BLACK
  6
CONTINUOUS
 10
93.02499999999999
 20
-25.550015
 30
0.0
 11
93.02499999999999
 21
-12.550015
 31
0.0
  0
ARC
  8
BLACK
 10
92.52497199999999
 20
-12.550015
 30
0.0
 40
0.500015
 50
0.0
 51
90.0
  0
LINE
  8
BLACK
  6
CONTINUOUS
 10
92.52497199999999
 20
-12.049999999999999
 30
0.0
 11
78.925
 21
-12.049999999999999
 31
0.0
  0
ARC
  8
BLACK
 10
78.924972
 20
-12.550015
 30
0.0
 40
0.499972
 50
89.99679153
 51
180.0
  0
LINE
  8
BLACK
  6
CONTINUOUS
 10
168.9125
 20
-50.650014999999996
 30
0.0
 11
168.9125
 21
-63.653479
 31
0.0
  0
ARC
  8
BLACK
 10
169.41247199999998
 20
-63.650014999999996
 30
0.0
 40
0.499985
 50
-179.60303896
 51
-90.0
  0
LINE
  8
BLACK
  6
CONTINUOUS
 10
169.41247199999998
 20
-64.14999999999999
 30
0.0
 11
183.01895199999998
 21
-64.14999999999999
 31
0.0
  0
ARC
  8
BLACK
 10
183.012472
 20
-63.650014999999996
 30
0.0
 40
0.500028
 50
-89.25746599
 51
-0.0
  0
LINE
  8
BLACK
  6
CONTINUOUS
 10
183.5125
 20
-63.650014999999996
 30
0.0
 11
183.5125
 21
-50.650014999999996
 31
0.0
  0
ARC
  8
BLACK
 10
183.012472
 20
-50.650014999999996
 30
0.0
 40
0.500015
 50
0.0
 51
90.0
  0
LINE
  8
BLACK
  6
CONTINUOUS
 10
183.012472
 20
-50.15
 30
0.0
 11
169.4125
 21
-50.15
 31
0.0
  0
ARC
  8
BLACK
 10
169.41247199999998
 20
-50.650014999999996
 30
0.0
 40
0.499972
 50
89.99679153
 51
180.0
  0
LINE
  8
BLACK
  6
CONTINUOUS
 10
207.0125
 20
-50.650014999999996
 30
0.0
 11
207.0125
 21
-63.653479
 31
0.0
  0
ARC
  8
BLACK
 10
207.512472
 20
-63.650014999999996
 30
0.0
 40
0.499985
 50
-179.60303896
 51
-90.0
  0
LINE
  8
BLACK
  6
CONTINUOUS
 10
207.512472
 20
-64.14999999999999
 30
0.0
 11
221.11895199999998
 21
-64.14999999999999
 31
0.0
  0
ARC
  8
BLACK
 10
221.112472
 20
-63.650014999999996
 30
0.0
 40
0.500028
 50
-89.25746599
 51
-0.0
  0
LINE
  8
BLACK
  6
CONTINUOUS
 10
221.61249999999998
 20
-63.650014999999996
 30
0.0
 11
221.61249999999998
 21
-50.650014999999996
 31
0.0
  0
ARC
  8
BLACK
 10
221.112472
 20
-50.650014999999996
 30
0.0
 40
0.500015
 50
0.0
 51
90.0
  0
LINE
  8
BLACK
  6
CONTINUOUS
 10
221.112472
 20
-50.15
 30
0.0
 11
207.5125
 21
-50.15
 31
0.0
  0
ARC
  8
BLACK
 10
207.512472
 20
-50.650014999999996
 30
0.0
 40
0.499972
 50
89.99679153
 51
180.0
  0
LINE
  8
BLACK
  6
CONTINUOUS
 10
202.25
 20
6.499985
 30
0.0
 11
202.25
 21
-6.503479
 31
0.0
  0
ARC
  8
BLACK
 10
202.74997199999999
 20
-6.500014999999999
 30
0.0
 40
0.499985
 50
-179.60303896
 51
-90.0
  0
LINE
  8
BLACK
  6
CONTINUOUS
 10
202.74997199999999
 20
-7.0
 30
0.0
 11
216.356452
 21
-7.0
 31
0.0
  0
ARC
  8
BLACK
 10
216.34997199999998
 20
-6.500014999999999
 30
0.0
 40
0.500028
 50
-89.25746599
 51
-0.0
  0
LINE
  8
BLACK
  6
CONTINUOUS
 10
216.85
 20
-6.500014999999999
 30
0.0
 11
216.85
 21
6.499985
 31
0.0
  0
ARC
  8
BLACK
 10
216.34997199999998
 20
6.499985
 30
0.0
 40
0.500015
 50
0.0
 51
90.0
  0
LINE
  8
BLACK
  6
CONTINUOUS
 10
216.34997199999998
 20
7.0
 30
0.0
 11
202.75
 21
7.0
 31
0.0
  0
ARC
  8
BLACK
 10
202.74997199999999
 20
6.499985
 30
0.0
 40
0.499972
 50
89.99679153
 51
180.0
  0
LINE
  8
BLACK
  6
CONTINUOUS
 10
87.95
 20
6.499985
 30
0.0
 11
87.95
 21
-6.503479
 31
0.0
  0
ARC
  8
BLACK
 10
88.449972
 20
-6.500014999999999
 30
0.0
 40
0.499985
 50
-179.60303896
 51
-90.0
  0
LINE
  8
BLACK
  6
CONTINUOUS
 10
88.449972
 20
-7.0
 30
0.0
 11
102.056452
 21
-7.0
 31
0.0
  0
ARC
  8
BLACK
 10
102.049972
 20
-6.500014999999999
 30
0.0
 40
0.500028
 50
-89.25746599
 51
-0.0
  0
LINE
  8
BLACK
  6
CONTINUOUS
 10
102.55
 20
-6.500014999999999
 30
0.0
 11
102.55
 21
6.499985
 31
0.0
  0
ARC
  8
BLACK
 10
102.049972
 20
6.499985
 30
0.0
 40
0.500015
 50
0.0
 51
90.0
  0
LINE
  8
BLACK
  6
CONTINUOUS
 10
102.049972
 20
7.0
 30
0.0
 11
88.45
 21
7.0
 31
0.0
  0
ARC
  8
BLACK
 10
88.449972
 20
6.499985
 30
0.0
 40
0.499972
 50
89.99679153
 51
180.0
  0
LINE
  8
BLACK
  6
CONTINUOUS
 10
178.4375
 20
-31.600015
 30
0.0
 11
178.4375
 21
-44.603479
 31
0.0
  0
ARC
  8
BLACK
 10
178.93747199999999
 20
-44.600015
 30
0.0
 40
0.499985
 50
-179.60303896
 51
-90.0
  0
LINE
  8
BLACK
  6
CONTINUOUS
 10
178.93747199999999
 20
-45.1
 30
0.0
 11
192.543952
 21
-45.1
 31
0.0
  0
ARC
  8
BLACK
 10
192.53747199999998
 20
-44.600015
 30
0.0
 40
0.500028
 50
-89.25746599
 51
-0.0
  0
LINE
  8
BLACK
  6
CONTINUOUS
 10
193.0375
 20
-44.600015
 30
0.0
 11
193.0375
 21
-31.600015
 31
0.0
  0
ARC
  8
BLACK
 10
192.53747199999998
 20
-31.600015
 30
0.0
 40
0.500015
 50
0.0
 51
90.0
  0
LINE
  8
BLACK
  6
CONTINUOUS
 10
192.53747199999998
 20
-31.099999999999998
 30
0.0
 11
178.9375
 21
-31.099999999999998
 31
0.0
  0
ARC
  8
BLACK
 10
178.93747199999999
 20
-31.600015
 30
0.0
 40
0.499972
 50
89.99679153
 51
180.0
  0
LINE
  8
BLACK
  6
CONTINUOUS
 10
54.6125
 20
-50.650014999999996
 30
0.0
 11
54.6125
 21
-63.653479
 31
0.0
  0
ARC
  8
BLACK
 10
55.112472
 20
-63.650014999999996
 30
0.0
 40
0.499985
 50
-179.60303896
 51
-90.0
  0
LINE
  8
BLACK
  6
CONTINUOUS
 10
55.112472
 20
-64.14999999999999
 30
0.0
 11
68.718952
 21
-64.14999999999999
 31
0.0
  0
ARC
  8
BLACK
 10
68.71247199999999
 20
-63.650014999999996
 30
0.0
 40
0.500028
 50
-89.25746599
 51
-0.0
  0
LINE
  8
BLACK
  6
CONTINUOUS
 10
69.21249999999999
 20
-63.650014999999996
 30
0.0
 11
69.21249999999999
 21
-50.650014999999996
 31
0.0
  0
ARC
  8
BLACK
 10
68.71247199999999
 20
-50.650014999999996
 30
0.0
 40
0.500015
 50
0.0
 51
90.0
  0
LINE
  8
BLACK
  6
CONTINUOUS
 10
68.71247199999999
 20
-50.15
 30
0.0
 11
55.1125
 21
-50.15
 31
0.0
  0
ARC
  8
BLACK
 10
55.112472
 20
-50.650014999999996
 30
0.0
 40
0.499972
 50
89.99679153
 51
180.0
  0
LINE
  8
BLACK
  6
CONTINUOUS
 10
230.825
 20
-12.550015
 30
0.0
 11
230.825
 21
-25.553479
 31
0.0
  0
ARC
  8
BLACK
 10
231.324972
 20
-25.550015
 30
0.0
 40
0.499985
 50
-179.60303896
 51
-90.0
  0
LINE
  8
BLACK
  6
CONTINUOUS
 10
231.324972
 20
-26.049999999999997
 30
0.0
 11
244.93145199999998
 21
-26.049999999999997
 31
0.0
  0
ARC
  8
BLACK
 10
244.924972
 20
-25.550015
 30
0.0
 40
0.500028
 50
-89.25746599
 51
-0.0
  0
LINE
  8
BLACK
  6
CONTINUOUS
 10
245.42499999999998
 20
-25.550015
 30
0.0
 11
245.42499999999998
 21
-12.550015
 31
0.0
  0
ARC
  8
BLACK
 10
244.924972
 20
-12.550015
 30
0.0
 40
0.500015
 50
0.0
 51
90.0
  0
LINE
  8
BLACK
  6
CONTINUOUS
 10
244.924972
 20
-12.049999999999999
 30
0.0
 11
231.325
 21
-12.049999999999999
 31
0.0
  0
ARC
  8
BLACK
 10
231.324972
 20
-12.550015
 30
0.0
 40
0.499972
 50
89.99679153
 51
180.0
  0
LINE
  8
BLACK
  6
CONTINUOUS
 10
83.1875
 20
-31.600015
 30
0.0
 11
83.1875
 21
-44.603479
 31
0.0
  0
ARC
  8
BLACK
 10
83.687472
 20
-44.600015
 30
0.0
 40
0.499985
 50
-179.60303896
 51
-90.0
  0
LINE
  8
BLACK
  6
CONTINUOUS
 10
83.687472
 20
-45.1
 30
0.0
 11
97.29395199999999
 21
-45.1
 31
0.0
  0
ARC
  8
BLACK
 10
97.287472
 20
-44.600015
 30
0.0
 40
0.500028
 50
-89.25746599
 51
-0.0
  0
LINE
  8
BLACK
  6
CONTINUOUS
 10
97.7875
 20
-44.600015
 30
0.0
 11
97.7875
 21
-31.600015
 31
0.0
  0
ARC
  8
BLACK
 10
97.287472
 20
-31.600015
 30
0.0
 40
0.500015
 50
0.0
 51
90.0
  0
LINE
  8
BLACK
  6
CONTINUOUS
 10
97.287472
 20
-31.099999999999998
 30
0.0
 11
83.6875
 21
-31.099999999999998
 31
0.0
  0
ARC
  8
BLACK
 10
83.687472
 20
-31.600015
 30
0.0
 40
0.499972
 50
89.99679153
 51
180.0
  0
LINE
  8
BLACK
  6
CONTINUOUS
 10
116.52499999999999
 20
-12.550015
 30
0.0
 11
116.52499999999999
 21
-25.553479
 31
0.0
  0
ARC
  8
BLACK
 10
117.02497199999999
 20
-25.550015
 30
0.0
 40
0.499985
 50
-179.60303896
 51
-90.0
  0
LINE
  8
BLACK
  6
CONTINUOUS
 10
117.02497199999999
 20
-26.049999999999997
 30
0.0
 11
130.631452
 21
-26.049999999999997
 31
0.0
  0
ARC
  8
BLACK
 10
130.62497199999999
 20
-25.550015
 30
0.0
 40
0.500028
 50
-89.25746599
 51
-0.0
  0
LINE
  8
BLACK
  6
CONTINUOUS
 10
131.125
 20
-25.550015
 30
0.0
 11
131.125
 21
-12.550015
 31
0.0
  0
ARC
  8
BLACK
 10
130.62497199999999
 20
-12.550015
 30
0.0
 40
0.500015
 50
0.0
 51
90.0
  0
LINE
  8
BLACK
  6
CONTINUOUS
 10
130.62497199999999
 20
-12.049999999999999
 30
0.0
 11
117.02499999999999
 21
-12.049999999999999
 31
0.0
  0
ARC
  8
BLACK
 10
117.02497199999999
 20
-12.550015
 30
0.0
 40
0.499972
 50
89.99679153
 51
180.0
  0
LINE
  8
BLACK
  6
CONTINUOUS
 10
221.29999999999998
 20
6.499985
 30
0.0
 11
221.29999999999998
 21
-6.503479
 31
0.0
  0
ARC
  8
BLACK
 10
221.799972
 20
-6.500014999999999
 30
0.0
 40
0.499985
 50
-179.60303896
 51
-90.0
  0
LINE
  8
BLACK
  6
CONTINUOUS
 10
221.799972
 20
-7.0
 30
0.0
 11
235.406452
 21
-7.0
 31
0.0
  0
ARC
  8
BLACK
 10
235.399972
 20
-6.500014999999999
 30
0.0
 40
0.500028
 50
-89.25746599
 51
-0.0
  0
LINE
  8
BLACK
  6
CONTINUOUS
 10
235.89999999999998
 20
-6.500014999999999
 30
0.0
 11
235.89999999999998
 21
6.499985
 31
0.0
  0
ARC
  8
BLACK
 10
235.399972
 20
6.499985
 30
0.0
 40
0.500015
 50
0.0
 51
90.0
  0
LINE
  8
BLACK
  6
CONTINUOUS
 10
235.399972
 20
7.0
 30
0.0
 11
221.79999999999998
 21
7.0
 31
0.0
  0
ARC
  8
BLACK
 10
221.799972
 20
6.499985
 30
0.0
 40
0.499972
 50
89.99679153
 51
180.0
  0
LINE
  8
BLACK
  6
CONTINUOUS
 10
121.2875
 20
-31.600015
 30
0.0
 11
121.2875
 21
-44.603479
 31
0.0
  0
ARC
  8
BLACK
 10
121.787472
 20
-44.600015
 30
0.0
 40
0.499985
 50
-179.60303896
 51
-90.0
  0
LINE
  8
BLACK
  6
CONTINUOUS
 10
121.787472
 20
-45.1
 30
0.0
 11
135.39395199999998
 21
-45.1
 31
0.0
  0
ARC
  8
BLACK
 10
135.387472
 20
-44.600015
 30
0.0
 40
0.500028
 50
-89.25746599
 51
-0.0
  0
LINE
  8
BLACK
  6
CONTINUOUS
 10
135.8875
 20
-44.600015
 30
0.0
 11
135.8875
 21
-31.600015
 31
0.0
  0
ARC
  8
BLACK
 10
135.387472
 20
-31.600015
 30
0.0
 40
0.500015
 50
0.0
 51
90.0
  0
LINE
  8
BLACK
  6
CONTINUOUS
 10
135.387472
 20
-31.099999999999998
 30
0.0
 11
121.7875
 21
-31.099999999999998
 31
0.0
  0
ARC
  8
BLACK
 10
121.787472
 20
-31.600015
 30
0.0
 40
0.499972
 50
89.99679153
 51
180.0
  0
LINE
  8
BLACK
  6
CONTINUOUS
 10
111.76249999999999
 20
-50.650014999999996
 30
0.0
 11
111.76249999999999
 21
-63.653479
 31
0.0
  0
ARC
  8
BLACK
 10
112.26247199999999
 20
-63.650014999999996
 30
0.0
 40
0.499985
 50
-179.60303896
 51
-90.0
  0
LINE
  8
BLACK
  6
CONTINUOUS
 10
112.26247199999999
 20
-64.14999999999999
 30
0.0
 11
125.868952
 21
-64.14999999999999
 31
0.0
  0
ARC
  8
BLACK
 10
125.862472
 20
-63.650014999999996
 30
0.0
 40
0.500028
 50
-89.25746599
 51
-0.0
  0
LINE
  8
BLACK
  6
CONTINUOUS
 10
126.3625
 20
-63.650014999999996
 30
0.0
 11
126.3625
 21
-50.650014999999996
 31
0.0
  0
ARC
  8
BLACK
 10
125.862472
 20
-50.650014999999996
 30
0.0
 40
0.500015
 50
0.0
 51
90.0
  0
LINE
  8
BLACK
  6
CONTINUOUS
 10
125.862472
 20
-50.15
 30
0.0
 11
112.26249999999999
 21
-50.15
 31
0.0
  0
ARC
  8
BLACK
 10
112.26247199999999
 20
-50.650014999999996
 30
0.0
 40
0.499972
 50
89.99679153
 51
180.0
  0
LINE
  8
BLACK
  6
CONTINUOUS
 10
21.275
 20
-12.550015
 30
0.0
 11
21.275
 21
-25.553479
 31
0.0
  0
ARC
  8
BLACK
 10
21.774971999999998
 20
-25.550015
 30
0.0
 40
0.499985
 50
-179.60303896
 51
-90.0
  0
LINE
  8
BLACK
  6
CONTINUOUS
 10
21.774971999999998
 20
-26.049999999999997
 30
0.0
 11
35.381451999999996
 21
-26.049999999999997
 31
0.0
  0
ARC
  8
BLACK
 10
35.374972
 20
-25.550015
 30
0.0
 40
0.500028
 50
-89.25746599
 51
-0.0
  0
LINE
  8
BLACK
  6
CONTINUOUS
 10
35.875
 20
-25.550015
 30
0.0
 11
35.875
 21
-12.550015
 31
0.0
  0
ARC
  8
BLACK
 10
35.374972
 20
-12.550015
 30
0.0
 40
0.500015
 50
0.0
 51
90.0
  0
LINE
  8
BLACK
  6
CONTINUOUS
 10
35.374972
 20
-12.049999999999999
 30
0.0
 11
21.775
 21
-12.049999999999999
 31
0.0
  0
ARC
  8
BLACK
 10
21.774971999999998
 20
-12.550015
 30
0.0
 40
0.499972
 50
89.99679153
 51
180.0
  0
LINE
  8
BLACK
  6
CONTINUOUS
 10
183.2
 20
6.499985
 30
0.0
 11
183.2
 21
-6.503479
 31
0.0
  0
ARC
  8
BLACK
 10
183.699972
 20
-6.500014999999999
 30
0.0
 40
0.499985
 50
-179.60303896
 51
-90.0
  0
LINE
  8
BLACK
  6
CONTINUOUS
 10
183.699972
 20
-7.0
 30
0.0
 11
197.30645199999998
 21
-7.0
 31
0.0
  0
ARC
  8
BLACK
 10
197.299972
 20
-6.500014999999999
 30
0.0
 40
0.500028
 50
-89.25746599
 51
-0.0
  0
LINE
  8
BLACK
  6
CONTINUOUS
 10
197.79999999999998
 20
-6.500014999999999
 30
0.0
 11
197.79999999999998
 21
6.499985
 31
0.0
  0
ARC
  8
BLACK
 10
197.299972
 20
6.499985
 30
0.0
 40
0.500015
 50
0.0
 51
90.0
  0
LINE
  8
BLACK
  6
CONTINUOUS
 10
197.299972
 20
7.0
 30
0.0
 11
183.7
 21
7.0
 31
0.0
  0
ARC
  8
BLACK
 10
183.699972
 20
6.499985
 30
0.0
 40
0.499972
 50
89.99679153
 51
180.0
  0
LINE
  8
BLACK
  6
CONTINUOUS
 10
135.575
 20
-12.550015
 30
0.0
 11
135.575
 21
-25.553479
 31
0.0
  0
ARC
  8
BLACK
 10
136.074972
 20
-25.550015
 30
0.0
 40
0.499985
 50
-179.60303896
 51
-90.0
  0
LINE
  8
BLACK
  6
CONTINUOUS
 10
136.074972
 20
-26.049999999999997
 30
0.0
 11
149.681452
 21
-26.049999999999997
 31
0.0
  0
ARC
  8
BLACK
 10
149.674972
 20
-25.550015
 30
0.0
 40
0.500028
 50
-89.25746599
 51
-0.0
  0
LINE
  8
BLACK
  6
CONTINUOUS
 10
150.17499999999998
 20
-25.550015
 30
0.0
 11
150.17499999999998
 21
-12.550015
 31
0.0
  0
ARC
  8
BLACK
 10
149.674972
 20
-12.550015
 30
0.0
 40
0.500015
 50
0.0
 51
90.0
  0
LINE
  8
BLACK
  6
CONTINUOUS
 10
149.674972
 20
-12.049999999999999
 30
0.0
 11
136.075
 21
-12.049999999999999
 31
0.0
  0
ARC
  8
BLACK
 10
136.074972
 20
-12.550015
 30
0.0
 40
0.499972
 50
89.99679153
 51
180.0
  0
LINE
  8
BLACK
  6
CONTINUOUS
 10
159.3875
 20
-31.600015
 30
0.0
 11
159.3875
 21
-44.603479
 31
0.0
  0
ARC
  8
BLACK
 10
159.887472
 20
-44.600015
 30
0.0
 40
0.499985
 50
-179.60303896
 51
-90.0
  0
LINE
  8
BLACK
  6
CONTINUOUS
 10
159.887472
 20
-45.1
 30
0.0
 11
173.49395199999998
 21
-45.1
 31
0.0
  0
ARC
  8
BLACK
 10
173.487472
 20
-44.600015
 30
0.0
 40
0.500028
 50
-89.25746599
 51
-0.0
  0
LINE
  8
BLACK
  6
CONTINUOUS
 10
173.98749999999998
 20
-44.600015
 30
0.0
 11
173.98749999999998
 21
-31.600015
 31
0.0
  0
ARC
  8
BLACK
 10
173.487472
 20
-31.600015
 30
0.0
 40
0.500015
 50
0.0
 51
90.0
  0
LINE
  8
BLACK
  6
CONTINUOUS
 10
173.487472
 20
-31.099999999999998
 30
0.0
 11
159.8875
 21
-31.099999999999998
 31
0.0
  0
ARC
  8
BLACK
 10
159.887472
 20
-31.600015
 30
0.0
 40
0.499972
 50
89.99679153
 51
180.0
  0
LINE
  8
BLACK
  6
CONTINUOUS
 10
26.037499999999998
 20
-31.600015
 30
0.0
 11
26.037499999999998
 21
-44.603479
 31
0.0
  0
ARC
  8
BLACK
 10
26.537471999999998
 20
-44.600015
 30
0.0
 40
0.499985
 50
-179.60303896
 51
-90.0
  0
LINE
  8
BLACK
  6
CONTINUOUS
 10
26.537471999999998
 20
-45.1
 30
0.0
 11
40.143952
 21
-45.1
 31
0.0
  0
ARC
  8
BLACK
 10
40.137471999999995
 20
-44.600015
 30
0.0
 40
0.500028
 50
-89.25746599
 51
-0.0
  0
LINE
  8
BLACK
  6
CONTINUOUS
 10
40.637499999999996
 20
-44.600015
 30
0.0
 11
40.637499999999996
 21
-31.600015
 31
0.0
  0
ARC
  8
BLACK
 10
40.137471999999995
 20
-31.600015
 30
0.0
 40
0.500015
 50
0.0
 51
90.0
  0
LINE
  8
BLACK
  6
CONTINUOUS
 10
40.137471999999995
 20
-31.099999999999998
 30
0.0
 11
26.537499999999998
 21
-31.099999999999998
 31
0.0
  0
ARC
  8
BLACK
 10
26.537471999999998
 20
-31.600015
 30
0.0
 40
0.499972
 50
89.99679153
 51
180.0
  0
LINE
  8
BLACK
  6
CONTINUOUS
 10
126.05
 20
6.499985
 30
0.0
 11
126.05
 21
-6.503479
 31
0.0
  0
ARC
  8
BLACK
 10
126.549972
 20
-6.500014999999999
 30
0.0
 40
0.499985
 50
-179.60303896
 51
-90.0
  0
LINE
  8
BLACK
  6
CONTINUOUS
 10
126.549972
 20
-7.0
 30
0.0
 11
140.156452
 21
-7.0
 31
0.0
  0
ARC
  8
BLACK
 10
140.149972
 20
-6.500014999999999
 30
0.0
 40
0.500028
 50
-89.25746599
 51
-0.0
  0
LINE
  8
BLACK
  6
CONTINUOUS
 10
140.65
 20
-6.500014999999999
 30
0.0
 11
140.65
 21
6.499985
 31
0.0
  0
ARC
  8
BLACK
 10
140.149972
 20
6.499985
 30
0.0
 40
0.500015
 50
0.0
 51
90.0
  0
LINE
  8
BLACK
  6
CONTINUOUS
 10
140.149972
 20
7.0
 30
0.0
 11
126.55
 21
7.0
 31
0.0
  0
ARC
  8
BLACK
 10
126.549972
 20
6.499985
 30
0.0
 40
0.499972
 50
89.99679153
 51
180.0
  0
LINE
  8
BLACK
  6
CONTINUOUS
 10
154.625
 20
-12.550015
 30
0.0
 11
154.625
 21
-25.553479
 31
0.0
  0
ARC
  8
BLACK
 10
155.12497199999999
 20
-25.550015
 30
0.0
 40
0.499985
 50
-179.60303896
 51
-90.0
  0
LINE
  8
BLACK
  6
CONTINUOUS
 10
155.12497199999999
 20
-26.049999999999997
 30
0.0
 11
168.731452
 21
-26.049999999999997
 31
0.0
  0
ARC
  8
BLACK
 10
168.72497199999998
 20
-25.550015
 30
0.0
 40
0.500028
 50
-89.25746599
 51
-0.0
  0
LINE
  8
BLACK
  6
CONTINUOUS
 10
169.225
 20
-25.550015
 30
0.0
 11
169.225
 21
-12.550015
 31
0.0
  0
ARC
  8
BLACK
 10
168.72497199999998
 20
-12.550015
 30
0.0
 40
0.500015
 50
0.0
 51
90.0
  0
LINE
  8
BLACK
  6
CONTINUOUS
 10
168.72497199999998
 20
-12.049999999999999
 30
0.0
 11
155.125
 21
-12.049999999999999
 31
0.0
  0
ARC
  8
BLACK
 10
155.12497199999999
 20
-12.550015
 30
0.0
 40
0.499972
 50
89.99679153
 51
180.0
  0
LINE
  8
BLACK
  6
CONTINUOUS
 10
35.5625
 20
-50.650014999999996
 30
0.0
 11
35.5625
 21
-63.653479
 31
0.0
  0
ARC
  8
BLACK
 10
36.062472
 20
-63.650014999999996
 30
0.0
 40
0.499985
 50
-179.60303896
 51
-90.0
  0
LINE
  8
BLACK
  6
CONTINUOUS
 10
36.062472
 20
-64.14999999999999
 30
0.0
 11
49.668952
 21
-64.14999999999999
 31
0.0
  0
ARC
  8
BLACK
 10
49.662472
 20
-63.650014999999996
 30
0.0
 40
0.500028
 50
-89.25746599
 51
-0.0
  0
LINE
  8
BLACK
  6
CONTINUOUS
 10
50.162499999999994
 20
-63.650014999999996
 30
0.0
 11
50.162499999999994
 21
-50.650014999999996
 31
0.0
  0
ARC
  8
BLACK
 10
49.662472
 20
-50.650014999999996
 30
0.0
 40
0.500015
 50
0.0
 51
90.0
  0
LINE
  8
BLACK
  6
CONTINUOUS
 10
49.662472
 20
-50.15
 30
0.0
 11
36.0625
 21
-50.15
 31
0.0
  0
ARC
  8
BLACK
 10
36.062472
 20
-50.650014999999996
 30
0.0
 40
0.499972
 50
89.99679153
 51
180.0
  0
LINE
  8
BLACK
  6
CONTINUOUS
 10
68.89999999999999
 20
6.499985
 30
0.0
 11
68.89999999999999
 21
-6.503479
 31
0.0
  0
ARC
  8
BLACK
 10
69.39997199999999
 20
-6.500014999999999
 30
0.0
 40
0.499985
 50
-179.60303896
 51
-90.0
  0
LINE
  8
BLACK
  6
CONTINUOUS
 10
69.39997199999999
 20
-7.0
 30
0.0
 11
83.006452
 21
-7.0
 31
0.0
  0
ARC
  8
BLACK
 10
82.999972
 20
-6.500014999999999
 30
0.0
 40
0.500028
 50
-89.25746599
 51
-0.0
  0
LINE
  8
BLACK
  6
CONTINUOUS
 10
83.5
 20
-6.500014999999999
 30
0.0
 11
83.5
 21
6.499985
 31
0.0
  0
ARC
  8
BLACK
 10
82.999972
 20
6.499985
 30
0.0
 40
0.500015
 50
0.0
 51
90.0
  0
LINE
  8
BLACK
  6
CONTINUOUS
 10
82.999972
 20
7.0
 30
0.0
 11
69.39999999999999
 21
7.0
 31
0.0
  0
ARC
  8
BLACK
 10
69.39997199999999
 20
6.499985
 30
0.0
 40
0.499972
 50
89.99679153
 51
180.0
  0
LINE
  8
BLACK
  6
CONTINUOUS
 10
145.1
 20
6.499985
 30
0.0
 11
145.1
 21
-6.503479
 31
0.0
  0
ARC
  8
BLACK
 10
145.59997199999998
 20
-6.500014999999999
 30
0.0
 40
0.499985
 50
-179.60303896
 51
-90.0
  0
LINE
  8
BLACK
  6
CONTINUOUS
 10
145.59997199999998
 20
-7.0
 30
0.0
 11
159.20645199999998
 21
-7.0
 31
0.0
  0
ARC
  8
BLACK
 10
159.199972
 20
-6.500014999999999
 30
0.0
 40
0.500028
 50
-89.25746599
 51
-0.0
  0
LINE
  8
BLACK
  6
CONTINUOUS
 10
159.7
 20
-6.500014999999999
 30
0.0
 11
159.7
 21
6.499985
 31
0.0
  0
ARC
  8
BLACK
 10
159.199972
 20
6.499985
 30
0.0
 40
0.500015
 50
0.0
 51
90.0
  0
LINE
  8
BLACK
  6
CONTINUOUS
 10
159.199972
 20
7.0
 30
0.0
 11
145.6
 21
7.0
 31
0.0
  0
ARC
  8
BLACK
 10
145.59997199999998
 20
6.499985
 30
0.0
 40
0.499972
 50
89.99679153
 51
180.0
  0
LINE
  8
BLACK
  6
CONTINUOUS
 10
11.75
 20
6.499985
 30
0.0
 11
11.75
 21
-6.503479
 31
0.0
  0
ARC
  8
BLACK
 10
12.249972
 20
-6.500014999999999
 30
0.0
 40
0.499985
 50
-179.60303896
 51
-90.0
  0
LINE
  8
BLACK
  6
CONTINUOUS
 10
12.249972
 20
-7.0
 30
0.0
 11
25.856451999999997
 21
-7.0
 31
0.0
  0
ARC
  8
BLACK
 10
25.849971999999998
 20
-6.500014999999999
 30
0.0
 40
0.500028
 50
-89.25746599
 51
-0.0
  0
LINE
  8
BLACK
  6
CONTINUOUS
 10
26.349999999999998
 20
-6.500014999999999
 30
0.0
 11
26.349999999999998
 21
6.499985
 31
0.0
  0
ARC
  8
BLACK
 10
25.849971999999998
 20
6.499985
 30
0.0
 40
0.500015
 50
0.0
 51
90.0
  0
LINE
  8
BLACK
  6
CONTINUOUS
 10
25.849971999999998
 20
7.0
 30
0.0
 11
12.25
 21
7.0
 31
0.0
  0
ARC
  8
BLACK
 10
12.249972
 20
6.499985
 30
0.0
 40
0.499972
 50
89.99679153
 51
180.0
  0
LINE
  8
BLACK
  6
CONTINUOUS
 10
164.15
 20
6.499985
 30
0.0
 11
164.15
 21
-6.503479
 31
0.0
  0
ARC
  8
BLACK
 10
164.649972
 20
-6.500014999999999
 30
0.0
 40
0.499985
 50
-179.60303896
 51
-90.0
  0
LINE
  8
BLACK
  6
CONTINUOUS
 10
164.649972
 20
-7.0
 30
0.0
 11
178.256452
 21
-7.0
 31
0.0
  0
ARC
  8
BLACK
 10
178.24997199999999
 20
-6.500014999999999
 30
0.0
 40
0.500028
 50
-89.25746599
 51
-0.0
  0
LINE
  8
BLACK
  6
CONTINUOUS
 10
178.75
 20
-6.500014999999999
 30
0.0
 11
178.75
 21
6.499985
 31
0.0
  0
ARC
  8
BLACK
 10
178.24997199999999
 20
6.499985
 30
0.0
 40
0.500015
 50
0.0
 51
90.0
  0
LINE
  8
BLACK
  6
CONTINUOUS
 10
178.24997199999999
 20
7.0
 30
0.0
 11
164.65
 21
7.0
 31
0.0
  0
ARC
  8
BLACK
 10
164.649972
 20
6.499985
 30
0.0
 40
0.499972
 50
89.99679153
 51
180.0
  0
LINE
  8
BLACK
  6
CONTINUOUS
 10
40.324999999999996
 20
-12.550015
 30
0.0
 11
40.324999999999996
 21
-25.553479
 31
0.0
  0
ARC
  8
BLACK
 10
40.824971999999995
 20
-25.550015
 30
0.0
 40
0.499985
 50
-179.60303896
 51
-90.0
  0
LINE
  8
BLACK
  6
CONTINUOUS
 10
40.824971999999995
 20
-26.049999999999997
 30
0.0
 11
54.431452
 21
-26.049999999999997
 31
0.0
  0
ARC
  8
BLACK
 10
54.424972
 20
-25.550015
 30
0.0
 40
0.500028
 50
-89.25746599
 51
-0.0
  0
LINE
  8
BLACK
  6
CONTINUOUS
 10
54.925
 20
-25.550015
 30
0.0
 11
54.925
 21
-12.550015
 31
0.0
  0
ARC
  8
BLACK
 10
54.424972
 20
-12.550015
 30
0.0
 40
0.500015
 50
0.0
 51
90.0
  0
LINE
  8
BLACK
  6
CONTINUOUS
 10
54.424972
 20
-12.049999999999999
 30
0.0
 11
40.824999999999996
 21
-12.049999999999999
 31
0.0
  0
ARC
  8
BLACK
 10
40.824971999999995
 20
-12.550015
 30
0.0
 40
0.499972
 50
89.99679153
 51
180.0
  0
LINE
  8
BLACK
  6
CONTINUOUS
 10
192.725
 20
-12.550015
 30
0.0
 11
192.725
 21
-25.553479
 31
0.0
  0
ARC
  8
BLACK
 10
193.22497199999998
 20
-25.550015
 30
0.0
 40
0.499985
 50
-179.60303896
 51
-90.0
  0
LINE
  8
BLACK
  6
CONTINUOUS
 10
193.22497199999998
 20
-26.049999999999997
 30
0.0
 11
206.83145199999998
 21
-26.049999999999997
 31
0.0
  0
ARC
  8
BLACK
 10
206.824972
 20
-25.550015
 30
0.0
 40
0.500028
 50
-89.25746599
 51
-0.0
  0
LINE
  8
BLACK
  6
CONTINUOUS
 10
207.325
 20
-25.550015
 30
0.0
 11
207.325
 21
-12.550015
 31
0.0
  0
ARC
  8
BLACK
 10
206.824972
 20
-12.550015
 30
0.0
 40
0.500015
 50
0.0
 51
90.0
  0
LINE
  8
BLACK
  6
CONTINUOUS
 10
206.824972
 20
-12.049999999999999
 30
0.0
 11
193.225
 21
-12.049999999999999
 31
0.0
  0
ARC
  8
BLACK
 10
193.22497199999998
 20
-12.550015
 30
0.0
 40
0.499972
 50
89.99679153
 51
180.0
  0
LINE
  8
BLACK
  6
CONTINUOUS
 10
130.8125
 20
-50.650014999999996
 30
0.0
 11
130.8125
 21
-63.653479
 31
0.0
  0
ARC
  8
BLACK
 10
131.31247199999999
 20
-63.650014999999996
 30
0.0
 40
0.499985
 50
-179.60303896
 51
-90.0
  0
LINE
  8
BLACK
  6
CONTINUOUS
 10
131.31247199999999
 20
-64.14999999999999
 30
0.0
 11
144.918952
 21
-64.14999999999999
 31
0.0
  0
ARC
  8
BLACK
 10
144.91247199999998
 20
-63.650014999999996
 30
0.0
 40
0.500028
 50
-89.25746599
 51
-0.0
  0
LINE
  8
BLACK
  6
CONTINUOUS
 10
145.4125
 20
-63.650014999999996
 30
0.0
 11
145.4125
 21
-50.650014999999996
 31
0.0
  0
ARC
  8
BLACK
 10
144.91247199999998
 20
-50.650014999999996
 30
0.0
 40
0.500015
 50
0.0
 51
90.0
  0
LINE
  8
BLACK
  6
CONTINUOUS
 10
144.91247199999998
 20
-50.15
 30
0.0
 11
131.3125
 21
-50.15
 31
0.0
  0
ARC
  8
BLACK
 10
131.31247199999999
 20
-50.650014999999996
 30
0.0
 40
0.499972
 50
89.99679153
 51
180.0
  0
LINE
  8
BLACK
  6
CONTINUOUS
 10
197.48749999999998
 20
-31.600015
 30
0.0
 11
197.48749999999998
 21
-44.603479
 31
0.0
  0
ARC
  8
BLACK
 10
197.987472
 20
-44.600015
 30
0.0
 40
0.499985
 50
-179.60303896
 51
-90.0
  0
LINE
  8
BLACK
  6
CONTINUOUS
 10
197.987472
 20
-45.1
 30
0.0
 11
211.593952
 21
-45.1
 31
0.0
  0
ARC
  8
BLACK
 10
211.587472
 20
-44.600015
 30
0.0
 40
0.500028
 50
-89.25746599
 51
-0.0
  0
LINE
  8
BLACK
  6
CONTINUOUS
 10
212.08749999999998
 20
-44.600015
 30
0.0
 11
212.08749999999998
 21
-31.600015
 31
0.0
  0
ARC
  8
BLACK
 10
211.587472
 20
-31.600015
 30
0.0
 40
0.500015
 50
0.0
 51
90.0
  0
LINE
  8
BLACK
  6
CONTINUOUS
 10
211.587472
 20
-31.099999999999998
 30
0.0
 11
197.98749999999998
 21
-31.099999999999998
 31
0.0
  0
ARC
  8
BLACK
 10
197.987472
 20
-31.600015
 30
0.0
 40
0.499972
 50
89.99679153
 51
180.0
  0
LINE
  8
BLACK
  6
CONTINUOUS
 10
73.6625
 20
-50.650014999999996
 30
0.0
 11
73.6625
 21
-63.653479
 31
0.0
  0
ARC
  8
BLACK
 10
74.162472
 20
-63.650014999999996
 30
0.0
 40
0.499985
 50
-179.60303896
 51
-90.0
  0
LINE
  8
BLACK
  6
CONTINUOUS
 10
74.162472
 20
-64.14999999999999
 30
0.0
 11
87.768952
 21
-64.14999999999999
 31
0.0
  0
ARC
  8
BLACK
 10
87.762472
 20
-63.650014999999996
 30
0.0
 40
0.500028
 50
-89.25746599
 51
-0.0
  0
LINE
  8
BLACK
  6
CONTINUOUS
 10
88.2625
 20
-63.650014999999996
 30
0.0
 11
88.2625
 21
-50.650014999999996
 31
0.0
  0
ARC
  8
BLACK
 10
87.762472
 20
-50.650014999999996
 30
0.0
 40
0.500015
 50
0.0
 51
90.0
  0
LINE
  8
BLACK
  6
CONTINUOUS
 10
87.762472
 20
-50.15
 30
0.0
 11
74.1625
 21
-50.15
 31
0.0
  0
ARC
  8
BLACK
 10
74.162472
 20
-50.650014999999996
 30
0.0
 40
0.499972
 50
89.99679153
 51
180.0
  0
LINE
  8
BLACK
  6
CONTINUOUS
 10
149.86249999999998
 20
-50.650014999999996
 30
0.0
 11
149.86249999999998
 21
-63.653479
 31
0.0
  0
ARC
  8
BLACK
 10
150.362472
 20
-63.650014999999996
 30
0.0
 40
0.499985
 50
-179.60303896
 51
-90.0
  0
LINE
  8
BLACK
  6
CONTINUOUS
 10
150.362472
 20
-64.14999999999999
 30
0.0
 11
163.968952
 21
-64.14999999999999
 31
0.0
  0
ARC
  8
BLACK
 10
163.962472
 20
-63.650014999999996
 30
0.0
 40
0.500028
 50
-89.25746599
 51
-0.0
  0
LINE
  8
BLACK
  6
CONTINUOUS
 10
164.4625
 20
-63.650014999999996
 30
0.0
 11
164.4625
 21
-50.650014999999996
 31
0.0
  0
ARC
  8
BLACK
 10
163.962472
 20
-50.650014999999996
 30
0.0
 40
0.500015
 50
0.0
 51
90.0
  0
LINE
  8
BLACK
  6
CONTINUOUS
 10
163.962472
 20
-50.15
 30
0.0
 11
150.36249999999998
 21
-50.15
 31
0.0
  0
ARC
  8
BLACK
 10
150.362472
 20
-50.650014999999996
 30
0.0
 40
0.499972
 50
89.99679153
 51
180.0
  0
LINE
  8
BLACK
  6
CONTINUOUS
 10
45.0875
 20
-31.600015
 30
0.0
 11
45.0875
 21
-44.603479
 31
0.0
  0
ARC
  8
BLACK
 10
45.587472
 20
-44.600015
 30
0.0
 40
0.499985
 50
-179.60303896
 51
-90.0
  0
LINE
  8
BLACK
  6
CONTINUOUS
 10
45.587472
 20
-45.1
 30
0.0
 11
59.193951999999996
 21
-45.1
 31
0.0
  0
ARC
  8
BLACK
 10
59.187472
 20
-44.600015
 30
0.0
 40
0.500028
 50
-89.25746599
 51
-0.0
  0
LINE
  8
BLACK
  6
CONTINUOUS
 10
59.6875
 20
-44.600015
 30
0.0
 11
59.6875
 21
-31.600015
 31
0.0
  0
ARC
  8
BLACK
 10
59.187472
 20
-31.600015
 30
0.0
 40
0.500015
 50
0.0
 51
90.0
  0
LINE
  8
BLACK
  6
CONTINUOUS
 10
59.187472
 20
-31.099999999999998
 30
0.0
 11
45.5875
 21
-31.099999999999998
 31
0.0
  0
ARC
  8
BLACK
 10
45.587472
 20
-31.600015
 30
0.0
 40
0.499972
 50
89.99679153
 51
180.0
  0
LINE
  8
BLACK
  6
CONTINUOUS
 10
49.849999999999994
 20
6.499985
 30
0.0
 11
49.849999999999994
 21
-6.503479
 31
0.0
  0
ARC
  8
BLACK
 10
50.349972
 20
-6.500014999999999
 30
0.0
 40
0.499985
 50
-179.60303896
 51
-90.0
  0
LINE
  8
BLACK
  6
CONTINUOUS
 10
50.349972
 20
-7.0
 30
0.0
 11
63.956452
 21
-7.0
 31
0.0
  0
ARC
  8
BLACK
 10
63.949971999999995
 20
-6.500014999999999
 30
0.0
 40
0.500028
 50
-89.25746599
 51
-0.0
  0
LINE
  8
BLACK
  6
CONTINUOUS
 10
64.45
 20
-6.500014999999999
 30
0.0
 11
64.45
 21
6.499985
 31
0.0
  0
ARC
  8
BLACK
 10
63.949971999999995
 20
6.499985
 30
0.0
 40
0.500015
 50
0.0
 51
90.0
  0
LINE
  8
BLACK
  6
CONTINUOUS
 10
63.949971999999995
 20
7.0
 30
0.0
 11
50.349999999999994
 21
7.0
 31
0.0
  0
ARC
  8
BLACK
 10
50.349972
 20
6.499985
 30
0.0
 40
0.499972
 50
89.99679153
 51
180.0
  0
LINE
  8
BLACK
  6
CONTINUOUS
 10
30.799999999999997
 20
6.499985
 30
0.0
 11
30.799999999999997
 21
-6.503479
 31
0.0
  0
ARC
  8
BLACK
 10
31.299972
 20
-6.500014999999999
 30
0.0
 40
0.499985
 50
-179.60303896
 51
-90.0
  0
LINE
  8
BLACK
  6
CONTINUOUS
 10
31.299972
 20
-7.0
 30
0.0
 11
44.906451999999994
 21
-7.0
 31
0.0
  0
ARC
  8
BLACK
 10
44.899972
 20
-6.500014999999999
 30
0.0
 40
0.500028
 50
-89.25746599
 51
-0.0
  0
LINE
  8
BLACK
  6
CONTINUOUS
 10
45.4
 20
-6.500014999999999
 30
0.0
 11
45.4
 21
6.499985
 31
0.0
  0
ARC
  8
BLACK
 10
44.899972
 20
6.499985
 30
0.0
 40
0.500015
 50
0.0
 51
90.0
  0
LINE
  8
BLACK
  6
CONTINUOUS
 10
44.899972
 20
7.0
 30
0.0
 11
31.299999999999997
 21
7.0
 31
0.0
  0
ARC
  8
BLACK
 10
31.299972
 20
6.499985
 30
0.0
 40
0.499972
 50
89.99679153
 51
180.0
  0
LINE
  8
BLACK
  6
CONTINUOUS
 10
102.2375
 20
-31.600015
 30
0.0
 11
102.2375
 21
-44.603479
 31
0.0
  0
ARC
  8
BLACK
 10
102.737472
 20
-44.600015
 30
0.0
 40
0.499985
 50
-179.60303896
 51
-90.0
  0
LINE
  8
BLACK
  6
CONTINUOUS
 10
102.737472
 20
-45.1
 30
0.0
 11
116.343952
 21
-45.1
 31
0.0
  0
ARC
  8
BLACK
 10
116.33747199999999
 20
-44.600015
 30
0.0
 40
0.500028
 50
-89.25746599
 51
-0.0
  0
LINE
  8
BLACK
  6
CONTINUOUS
 10
116.83749999999999
 20
-44.600015
 30
0.0
 11
116.83749999999999
 21
-31.600015
 31
0.0
  0
ARC
  8
BLACK
 10
116.33747199999999
 20
-31.600015
 30
0.0
 40
0.500015
 50
0.0
 51
90.0
  0
LINE
  8
BLACK
  6
CONTINUOUS
 10
116.33747199999999
 20
-31.099999999999998
 30
0.0
 11
102.7375
 21
-31.099999999999998
 31
0.0
  0
ARC
  8
BLACK
 10
102.737472
 20
-31.600015
 30
0.0
 40
0.499972
 50
89.99679153
 51
180.0
  0
LINE
  8
BLACK
  6
CONTINUOUS
 10
92.71249999999999
 20
-50.650014999999996
 30
0.0
 11
92.71249999999999
 21
-63.653479
 31
0.0
  0
ARC
  8
BLACK
 10
93.21247199999999
 20
-63.650014999999996
 30
0.0
 40
0.499985
 50
-179.60303896
 51
-90.0
  0
LINE
  8
BLACK
  6
CONTINUOUS
 10
93.21247199999999
 20
-64.14999999999999
 30
0.0
 11
106.818952
 21
-64.14999999999999
 31
0.0
  0
ARC
  8
BLACK
 10
106.812472
 20
-63.650014999999996
 30
0.0
 40
0.500028
 50
-89.25746599
 51
-0.0
  0
LINE
  8
BLACK
  6
CONTINUOUS
 10
107.3125
 20
-63.650014999999996
 30
0.0
 11
107.3125
 21
-50.650014999999996
 31
0.0
  0
ARC
  8
BLACK
 10
106.812472
 20
-50.650014999999996
 30
0.0
 40
0.500015
 50
0.0
 51
90.0
  0
LINE
  8
BLACK
  6
CONTINUOUS
 10
106.812472
 20
-50.15
 30
0.0
 11
93.21249999999999
 21
-50.15
 31
0.0
  0
ARC
  8
BLACK
 10
93.21247199999999
 20
-50.650014999999996
 30
0.0
 40
0.499972
 50
89.99679153
 51
180.0
  0
LINE
  8
BLACK
  6
CONTINUOUS
 10
97.475
 20
-12.550015
 30
0.0
 11
97.475
 21
-25.553479
 31
0.0
  0
ARC
  8
BLACK
 10
97.974972
 20
-25.550015
 30
0.0
 40
0.499985
 50
-179.60303896
 51
-90.0
  0
LINE
  8
BLACK
  6
CONTINUOUS
 10
97.974972
 20
-26.049999999999997
 30
0.0
 11
111.581452
 21
-26.049999999999997
 31
0.0
  0
ARC
  8
BLACK
 10
111.57497199999999
 20
-25.550015
 30
0.0
 40
0.500028
 50
-89.25746599
 51
-0.0
  0
LINE
  8
BLACK
  6
CONTINUOUS
 10
112.07499999999999
 20
-25.550015
 30
0.0
 11
112.07499999999999
 21
-12.550015
 31
0.0
  0
ARC
  8
BLACK
 10
111.57497199999999
 20
-12.550015
 30
0.0
 40
0.500015
 50
0.0
 51
90.0
  0
LINE
  8
BLACK
  6
CONTINUOUS
 10
111.57497199999999
 20
-12.049999999999999
 30
0.0
 11
97.975
 21
-12.049999999999999
 31
0.0
  0
ARC
  8
BLACK
 10
97.974972
 20
-12.550015
 30
0.0
 40
0.499972
 50
89.99679153
 51
180.0
  0
LINE
  8
BLACK
  6
CONTINUOUS
 10
-7.3
 20
6.499985
 30
0.0
 11
-7.3
 21
-6.503479
 31
0.0
  0
ARC
  8
BLACK
 10
-6.800027999999999
 20
-6.500014999999999
 30
0.0
 40
0.499985
 50
-179.60303896
 51
-90.0
  0
LINE
  8
BLACK
  6
CONTINUOUS
 10
-6.800027999999999
 20
-7.0
 30
0.0
 11
6.806451999999999
 21
-7.0
 31
0.0
  0
ARC
  8
BLACK
 10
6.7999719999999995
 20
-6.500014999999999
 30
0.0
 40
0.500028
 50
-89.25746599
 51
-0.0
  0
LINE
  8
BLACK
  6
CONTINUOUS
 10
7.3
 20
-6.500014999999999
 30
0.0
 11
7.3
 21
6.499985
 31
0.0
  0
ARC
  8
BLACK
 10
6.7999719999999995
 20
6.499985
 30
0.0
 40
0.500015
 50
0.0
 51
90.0
  0
LINE
  8
BLACK
  6
CONTINUOUS
 10
6.7999719999999995
 20
7.0
 30
0.0
 11
-6.799999
 21
7.0
 31
0.0
  0
ARC
  8
BLACK
 10
-6.800027999999999
 20
6.499985
 30
0.0
 40
0.499972
 50
89.99667694
 51
180.0
  0
CIRCLE
  8
BLACK
 10
16.04875
 20
-18.7
 30
0.0
 40
1.0
  0
CIRCLE
  8
BLACK
 10
250.9012
 20
-18.7
 30
0.0
 40
1.0
  0
CIRCLE
  8
BLACK
 10
119.0625
 20
-38.1
 30
0.0
 40
1.0
  0
CIRCLE
  8
BLACK
 10
272.7
 20
13.600045999999999
 30
0.0
 40
1.25
  0
CIRCLE
  8
BLACK
 10
88.89999999999999
 20
13.600045999999999
 30
0.0
 40
1.25
  0
CIRCLE
  8
BLACK
 10
177.79999999999998
 20
13.600045999999999
 30
0.0
 40
1.25
  0
CIRCLE
  8
BLACK
 10
-6.0
 20
13.600045999999999
 30
0.0
 40
1.25
  0
CIRCLE
  8
BLACK
 10
-6.0
 20
-89.8
 30
0.0
 40
1.25
  0
CIRCLE
  8
BLACK
 10
88.89999999999999
 20
-89.8
 30
0.0
 40
1.25
  0
CIRCLE
  8
BLACK
 10
177.79999999999998
 20
-89.8
 30
0.0
 40
1.25
  0
CIRCLE
  8
BLACK
 10
272.7
 20
-89.8
 30
0.0
 40
1.25
  0
ARC
  8
BLACK
 10
-6.025048
 20
13.175105
 30
0.0
 40
3.9999520000500004
 50
-270.00028648
 51
-179.99971352
  0
LINE
  8
BLACK
  6
CONTINUOUS
 10
6.025072
 20
17.175069
 30
0.0
 11
-6.025028
 21
17.175069
 31
0.0
  0
ARC
  8
BLACK
 10
6.024972
 20
13.174985
 30
0.0
 40
4.000084001249974
 50
0.30459369
 51
89.99856764
  0
LINE
  8
BLACK
  6
CONTINUOUS
 10
10.025
 20
11.925073999999999
 30
0.0
 11
10.025
 21
13.19625
 31
0.0
  0
ARC
  8
BLACK
 10
12.025072
 20
11.924985
 30
0.0
 40
1.999962
 50
-180.00254967
 51
-90.0
  0
LINE
  8
BLACK
  6
CONTINUOUS
 10
76.866546
 20
9.925023
 30
0.0
 11
12.025072
 21
9.925023
 31
0.0
  0
ARC
  8
BLACK
 10
76.875072
 20
11.924985
 30
0.0
 40
1.999928
 50
-90.24425507
 51
-0.0
  0
LINE
  8
BLACK
  6
CONTINUOUS
 10
78.875
 20
13.175085
 30
0.0
 11
78.875
 21
11.924985
 31
0.0
  0
ARC
  8
BLACK
 10
82.874972
 20
13.175085
 30
0.0
 40
3.9999719999999996
 50
90.13435967
 51
180.0
  0
LINE
  8
BLACK
  6
CONTINUOUS
 10
94.925072
 20
17.175046
 30
0.0
 11
82.86559199999999
 21
17.175046
 31
0.0
  0
ARC
  8
BLACK
 10
94.924972
 20
13.174985
 30
0.0
 40
4.000061001249981
 50
0.23415058
 51
89.99856763
  0
LINE
  8
BLACK
  6
CONTINUOUS
 10
98.925
 20
11.925073999999999
 30
0.0
 11
98.925
 21
13.191332
 31
0.0
  0
ARC
  8
BLACK
 10
100.925072
 20
11.924985
 30
0.0
 40
1.999962
 50
-180.00254967
 51
-90.0
  0
LINE
  8
BLACK
  6
CONTINUOUS
 10
165.766546
 20
9.925023
 30
0.0
 11
100.925072
 21
9.925023
 31
0.0
  0
ARC
  8
BLACK
 10
165.775072
 20
11.924985
 30
0.0
 40
1.999928
 50
-90.24425507
 51
-0.0
  0
LINE
  8
BLACK
  6
CONTINUOUS
 10
167.775
 20
13.174985
 30
0.0
 11
167.775
 21
11.924985
 31
0.0
  0
ARC
  8
BLACK
 10
171.775072
 20
13.174985
 30
0.0
 40
4.000071999999999
 50
90.23622692
 51
180.0
  0
LINE
  8
BLACK
  6
CONTINUOUS
 10
183.825072
 20
17.175023
 30
0.0
 11
171.75858
 21
17.175023
 31
0.0
  0
ARC
  8
BLACK
 10
183.824972
 20
13.174885
 30
0.0
 40
4.000138001249956
 50
0.42632704
 51
89.99856765
  0
LINE
  8
BLACK
  6
CONTINUOUS
 10
187.825
 20
11.925073999999999
 30
0.0
 11
187.825
 21
13.204649
 31
0.0
  0
ARC
  8
BLACK
 10
189.82507199999998
 20
11.924985
 30
0.0
 40
1.999962
 50
-180.00254967
 51
-90.0
  0
LINE
  8
BLACK
  6
CONTINUOUS
 10
254.66654599999998
 20
9.925023
 30
0.0
 11
189.82507199999998
 21
9.925023
 31
0.0
  0
ARC
  8
BLACK
 10
254.675072
 20
11.924985
 30
0.0
 40
1.999928
 50
-90.24425507
 51
-0.0
  0
LINE
  8
BLACK
  6
CONTINUOUS
 10
256.675
 20
13.174985
 30
0.0
 11
256.675
 21
11.924985
 31
0.0
  0
ARC
  8
BLACK
 10
260.675072
 20
13.174985
 30
0.0
 40
4.000071999999999
 50
90.23622692
 51
180.0
  0
LINE
  8
BLACK
  6
CONTINUOUS
 10
272.724972
 20
17.175023
 30
0.0
 11
260.65858
 21
17.175023
 31
0.0
  0
ARC
  8
BLACK
 10
272.724872
 20
13.174885
 30
0.0
 40
4.000138001249956
 50
0.24785374
 51
89.99856765
  0
LINE
  8
BLACK
  6
CONTINUOUS
 10
276.724973
 20
-89.375115
 30
0.0
 11
276.724973
 21
13.192188999999999
 31
0.0
  0
ARC
  8
BLACK
 10
272.724972
 20
-89.37501499999999
 30
0.0
 40
4.000001001249999
 50
-89.74882885
 51
-0.00143239
  0
LINE
  8
BLACK
  6
CONTINUOUS
 10
260.675072
 20
-93.374977
 30
0.0
 11
272.742507
 21
-93.374977
 31
0.0
  0
ARC
  8
BLACK
 10
260.675072
 20
-89.37501499999999
 30
0.0
 40
3.999962
 50
-180.00127483
 51
-90.0
  0
LINE
  8
BLACK
  6
CONTINUOUS
 10
256.675
 20
-88.145991
 30
0.0
 11
256.675
 21
-89.374926
 31
0.0
  0
ARC
  8
BLACK
 10
254.674972
 20
-88.125115
 30
0.0
 40
2.0001379999999997
 50
-0.59802326
 51
90.0
  0
LINE
  8
BLACK
  6
CONTINUOUS
 10
189.83673399999998
 20
-86.124977
 30
0.0
 11
254.674972
 21
-86.124977
 31
0.0
  0
ARC
  8
BLACK
 10
189.82507199999998
 20
-88.12501499999999
 30
0.0
 40
2.000072
 50
89.66591844
 51
180.0
  0
LINE
  8
BLACK
  6
CONTINUOUS
 10
187.825
 20
-89.37501499999999
 30
0.0
 11
187.825
 21
-88.12501499999999
 31
0.0
  0
ARC
  8
BLACK
 10
183.825072
 20
-89.37501499999999
 30
0.0
 40
3.9999279999999997
 50
-90.16761992
 51
-0.0
  0
LINE
  8
BLACK
  6
CONTINUOUS
 10
171.775072
 20
-93.374977
 30
0.0
 11
183.81337
 21
-93.374977
 31
0.0
  0
ARC
  8
BLACK
 10
171.775072
 20
-89.37501499999999
 30
0.0
 40
3.999962
 50
-180.00127483
 51
-90.0
  0
LINE
  8
BLACK
  6
CONTINUOUS
 10
167.775
 20
-88.145991
 30
0.0
 11
167.775
 21
-89.374926
 31
0.0
  0
ARC
  8
BLACK
 10
165.774972
 20
-88.125115
 30
0.0
 40
2.0001379999999997
 50
-0.59802326
 51
90.0
  0
LINE
  8
BLACK
  6
CONTINUOUS
 10
100.936734
 20
-86.124977
 30
0.0
 11
165.774972
 21
-86.124977
 31
0.0
  0
ARC
  8
BLACK
 10
100.925072
 20
-88.12501499999999
 30
0.0
 40
2.000072
 50
89.66591844
 51
180.0
  0
LINE
  8
BLACK
  6
CONTINUOUS
 10
98.925
 20
-89.37501499999999
 30
0.0
 11
98.925
 21
-88.12501499999999
 31
0.0
  0
ARC
  8
BLACK
 10
94.924972
 20
-89.37501499999999
 30
0.0
 40
4.0000279999999995
 50
-89.73744294
 51
-0.0
  0
LINE
  8
BLACK
  6
CONTINUOUS
 10
82.875072
 20
-93.375
 30
0.0
 11
94.943302
 21
-93.375
 31
0.0
  0
ARC
  8
BLACK
 10
82.87517199999999
 20
-89.374715
 30
0.0
 40
4.00028500124991
 50
-179.56983554
 51
-90.00143229
  0
LINE
  8
BLACK
  6
CONTINUOUS
 10
78.875
 20
-88.145991
 30
0.0
 11
78.875
 21
-89.404748
 31
0.0
  0
ARC
  8
BLACK
 10
76.874972
 20
-88.125115
 30
0.0
 40
2.0001379999999997
 50
-0.59802326
 51
90.0
  0
LINE
  8
BLACK
  6
CONTINUOUS
 10
12.036560999999999
 20
-86.124977
 30
0.0
 11
76.874972
 21
-86.124977
 31
0.0
  0
ARC
  8
BLACK
 10
12.025072
 20
-88.12501499999999
 30
0.0
 40
2.000072
 50
89.67087427
 51
180.0
  0
LINE
  8
BLACK
  6
CONTINUOUS
 10
10.025
 20
-89.37501499999999
 30
0.0
 11
10.025
 21
-88.12501499999999
 31
0.0
  0
ARC
  8
BLACK
 10
6.024972
 20
-89.37501499999999
 30
0.0
 40
4.0000279999999995
 50
-89.82341532
 51
-0.0
  0
LINE
  8
BLACK
  6
CONTINUOUS
 10
-6.024928
 20
-93.375023
 30
0.0
 11
6.0373
 21
-93.375023
 31
0.0
  0
ARC
  8
BLACK
 10
-6.024827999999999
 20
-89.374715
 30
0.0
 40
4.000308001249904
 50
-179.41723632
 51
-90.00143228
  0
LINE
  8
BLACK
  6
CONTINUOUS
 10
-10.025
 20
-86.224978
 30
0.0
 11
-10.024928
 21
-89.415402
 31
0.0
  0
LINE
  8
BLACK
  6
CONTINUOUS
 10
-10.025
 20
13.175085
 30
0.0
 11
-10.025
 21
-86.224978
 31
0.0
  0
ARC
  8
BLACK
 10
9.18125
 20
-31.6
 30
0.0
 40
0.5
 50
0.0
 51
90.0
  0
ARC
  8
BLACK
 10
-4.418749
 20
-44.599999
 30
0.0
 40
0.500001
 50
180.00011459
 51
270.0
  0
ARC
  8
BLACK
 10
-4.418749
 20
-31.600001
 30
0.0
 40
0.500001000001
 50
90.0
 51
179.99988541
  0
LINE
  8
BLACK
  6
Continuous
 10
-4.418749
 20
-45.1
 30
0.0
 11
9.18125
 21
-45.1
 31
0.0
  0
LINE
  8
BLACK
  6
Continuous
 10
9.18125
 20
-31.1
 30
0.0
 11
-4.418749
 21
-31.1
 31
0.0
  0
ARC
  8
BLACK
 10
9.18125
 20
-44.6
 30
0.0
 40
0.5
 50
270.0
 51
0.0
  0
LINE
  8
BLACK
  6
Continuous
 10
-4.91875
 20
-31.6
 30
0.0
 11
-4.91875
 21
-44.6
 31
0.0
  0
LINE
  8
BLACK
  6
Continuous
 10
9.68125
 20
-44.6
 30
0.0
 11
9.68125
 21
-31.6
 31
0.0
  0
CIRCLE
  8
0
 10
273.6
 20
-7.199999999999999
 30
0.0
 40
1.0
  0
CIRCLE
  8
0
 10
240.8
 20
-7.199999999999999
 30
0.0
 40
1.0
  0
CIRCLE
  8
0
 10
33.33750000000001
 20
-57.15
 30
0.0
 40
1.0
  0
CIRCLE
  8
BLACK
 10
257.175
 20
-57.15
 30
0.0
 40
1.0
  0
ARC
  8
BLACK
 10
233.706162
 20
-50.652003
 30
0.0
 40
0.499912
 50
89.98991497
 51
180.0
  0
LINE
  8
BLACK
  6
Continuous
 10
247.306162
 20
-50.152051
 30
0.0
 11
233.70625
 21
-50.152051
 31
0.0
  0
ARC
  8
BLACK
 10
247.306162
 20
-50.652203
 30
0.0
 40
0.5001519999999999
 50
0.9350486999999998
 51
90.0
  0
LINE
  8
BLACK
  6
Continuous
 10
247.80625
 20
-63.651903
 30
0.0
 11
247.80625
 21
-50.64404099999999
 31
0.0
  0
ARC
  8
BLACK
 10
247.306062
 20
-63.651903
 30
0.0
 40
0.500188
 50
270.7268293
 51
0.0
  0
LINE
  8
BLACK
  6
Continuous
 10
233.706262
 20
-64.152051
 30
0.0
 11
247.312407
 21
-64.152051
 31
0.0
  0
ARC
  8
BLACK
 10
233.706262
 20
-63.652103
 30
0.0
 40
0.499948
 50
179.99404138
 51
270.0
  0
LINE
  8
BLACK
  6
Continuous
 10
233.20625
 20
-50.652003
 30
0.0
 11
233.20625
 21
-63.652051
 31
0.0
  0
ARC
  8
BLACK
 10
259.897462
 20
-50.652003
 30
0.0
 40
0.5
 50
90.0
 51
180.0
  0
LINE
  8
BLACK
  6
Continuous
 10
273.497462
 20
-50.152003
 30
0.0
 11
259.897462
 21
-50.152003
 31
0.0
  0
ARC
  8
BLACK
 10
273.497462
 20
-50.652003
 30
0.0
 40
0.5
 50
0.0
 51
90.0
  0
LINE
  8
BLACK
  6
Continuous
 10
273.997462
 20
-63.652003
 30
0.0
 11
273.997462
 21
-50.652003
 31
0.0
  0
ARC
  8
BLACK
 10
273.497462
 20
-63.652003
 30
0.0
 40
0.5
 50
270.0
 51
0.0
  0
LINE
  8
BLACK
  6
Continuous
 10
259.897462
 20
-64.152003
 30
0.0
 11
273.497462
 21
-64.152003
 31
0.0
  0
ARC
  8
BLACK
 10
259.897462
 20
-63.652003
 30
0.0
 40
0.5
 50
180.0
 51
270.0
  0
LINE
  8
BLACK
  6
Continuous
 10
259.397462
 20
-50.652003
 30
0.0
 11
259.397462
 21
-63.652003
 31
0.0
  0
CIRCLE
  8
0
 10
271.4625
 20
-19.05
 30
0.0
 40
1.0
  0
CIRCLE
  8
0
 10
238.39375
 20
-45.3
 30
0.0
 40
1.0
  0
LINE
  8
BLACK
  6
Continuous
 10
6.8
 20
-69.2
 30
0.0
 11
-6.799999
 21
-69.2
 31
0.0
  0
ARC
  8
BLACK
 10
6.8
 20
-69.7
 30
0.0
 40
0.5
 50
0.0
 51
90.0
  0
LINE
  8
BLACK
  6
Continuous
 10
7.3
 20
-82.7
 30
0.0
 11
7.3
 21
-69.7
 31
0.0
  0
ARC
  8
BLACK
 10
6.8
 20
-82.7
 30
0.0
 40
0.5
 50
270.0
 51
0.0
  0
LINE
  8
BLACK
  6
Continuous
 10
-6.799999
 20
-83.2
 30
0.0
 11
6.8
 21
-83.2
 31
0.0
  0
ARC
  8
BLACK
 10
-6.799999
 20
-82.69999899999999
 30
0.0
 40
0.500001
 50
180.0
 51
270.0
  0
LINE
  8
BLACK
  6
Continuous
 10
-7.3
 20
-69.700001
 30
0.0
 11
-7.3
 21
-82.69999899999999
 31
0.0
  0
ARC
  8
BLACK
 10
-6.799999
 20
-69.700001
 30
0.0
 40
0.500001
 50
90.0
 51
180.0
  0
LINE
  8
BLACK
  6
Continuous
 10
74.6559
 20
-83.14999999999999
 30
0.0
 11
87.2559
 21
-83.14999999999999
 31
0.0
  0
ARC
  8
BLACK
 10
74.6559
 20
-82.64999999999999
 30
0.0
 40
0.5
 50
180.0
 51
270.0
  0
LINE
  8
BLACK
  6
Continuous
 10
74.1559
 20
-69.75
 30
0.0
 11
74.1559
 21
-82.64999999999999
 31
0.0
  0
ARC
  8
BLACK
 10
74.6559
 20
-69.75
 30
0.0
 40
0.5
 50
90.0
 51
180.0
  0
LINE
  8
BLACK
  6
Continuous
 10
87.2559
 20
-69.25
 30
0.0
 11
74.6559
 21
-69.25
 31
0.0
  0
ARC
  8
BLACK
 10
87.2559
 20
-69.75
 30
0.0
 40
0.5
 50
0.0
 51
90.0
  0
LINE
  8
BLACK
  6
Continuous
 10
87.7559
 20
-82.64999999999999
 30
0.0
 11
87.7559
 21
-69.75
 31
0.0
  0
ARC
  8
BLACK
 10
87.2559
 20
-82.64999999999999
 30
0.0
 40
0.5
 50
270.0
 51
0.0
  0
ARC
  8
BLACK
 10
202.75
 20
-69.7
 30
0.0
 40
0.5
 50
90.0
 51
180.0
  0
LINE
  8
BLACK
  6
Continuous
 10
216.35
 20
-69.2
 30
0.0
 11
202.75
 21
-69.2
 31
0.0
  0
ARC
  8
BLACK
 10
216.35
 20
-69.7
 30
0.0
 40
0.5
 50
0.0
 51
90.0
  0
LINE
  8
BLACK
  6
Continuous
 10
216.85
 20
-82.7
 30
0.0
 11
216.85
 21
-69.7
 31
0.0
  0
ARC
  8
BLACK
 10
216.35
 20
-82.7
 30
0.0
 40
0.5
 50
270.0
 51
0.0
  0
LINE
  8
BLACK
  6
Continuous
 10
202.75
 20
-83.2
 30
0.0
 11
216.35
 21
-83.2
 31
0.0
  0
ARC
  8
BLACK
 10
202.75
 20
-82.7
 30
0.0
 40
0.5
 50
180.0
 51
270.0
  0
LINE
  8
BLACK
  6
Continuous
 10
202.25
 20
-69.7
 30
0.0
 11
202.25
 21
-82.7
 31
0.0
  0
LINE
  8
BLACK
  6
Continuous
 10
264.475
 20
-82.7
 30
0.0
 11
264.475
 21
-69.7
 31
0.0
  0
ARC
  8
BLACK
 10
263.975
 20
-82.7
 30
0.0
 40
0.5
 50
270.0
 51
0.0
  0
LINE
  8
BLACK
  6
Continuous
 10
250.375
 20
-83.2
 30
0.0
 11
263.975
 21
-83.2
 31
0.0
  0
ARC
  8
BLACK
 10
250.375
 20
-82.7
 30
0.0
 40
0.5
 50
180.0
 51
270.0
  0
LINE
  8
BLACK
  6
Continuous
 10
249.875
 20
-69.7
 30
0.0
 11
249.875
 21
-82.7
 31
0.0
  0
ARC
  8
BLACK
 10
250.375
 20
-69.7
 30
0.0
 40
0.5
 50
90.0
 51
180.0
  0
LINE
  8
BLACK
  6
Continuous
 10
263.975
 20
-69.2
 30
0.0
 11
250.375
 21
-69.2
 31
0.0
  0
ARC
  8
BLACK
 10
263.975
 20
-69.7
 30
0.0
 40
0.5
 50
0.0
 51
90.0
  0
ARC
  8
BLACK
 10
182.5125
 20
-82.64999999999999
 30
0.0
 40
0.5
 50
270.0
 51
0.0
  0
LINE
  8
BLACK
  6
Continuous
 10
183.0125
 20
-69.75
 30
0.0
 11
183.0125
 21
-82.64999999999999
 31
0.0
  0
ARC
  8
BLACK
 10
182.5125
 20
-69.75
 30
0.0
 40
0.5
 50
0.0
 51
90.0
  0
LINE
  8
BLACK
  6
Continuous
 10
169.9125
 20
-69.25
 30
0.0
 11
182.5125
 21
-69.25
 31
0.0
  0
ARC
  8
BLACK
 10
169.9125
 20
-69.75
 30
0.0
 40
0.5
 50
90.0
 51
180.0
  0
LINE
  8
BLACK
  6
Continuous
 10
169.4125
 20
-82.64999999999999
 30
0.0
 11
169.4125
 21
-69.75
 31
0.0
  0
ARC
  8
BLACK
 10
169.9125
 20
-82.64999999999999
 30
0.0
 40
0.5
 50
180.0
 51
270.0
  0
LINE
  8
BLACK
  6
Continuous
 10
182.5125
 20
-83.14999999999999
 30
0.0
 11
169.9125
 21
-83.14999999999999
 31
0.0
  0
LINE
  8
BLACK
  6
Continuous
 10
40.325
 20
-69.7
 30
0.0
 11
40.325
 21
-82.7
 31
0.0
  0
ARC
  8
BLACK
 10
40.825
 20
-69.7
 30
0.0
 40
0.5
 50
90.0
 51
180.0
  0
LINE
  8
BLACK
  6
Continuous
 10
54.425
 20
-69.2
 30
0.0
 11
40.825
 21
-69.2
 31
0.0
  0
ARC
  8
BLACK
 10
54.425
 20
-69.7
 30
0.0
 40
0.5
 50
0.0
 51
90.0
  0
LINE
  8
BLACK
  6
Continuous
 10
54.925
 20
-82.7
 30
0.0
 11
54.925
 21
-69.7
 31
0.0
  0
ARC
  8
BLACK
 10
54.425
 20
-82.7
 30
0.0
 40
0.5
 50
270.0
 51
0.0
  0
LINE
  8
BLACK
  6
Continuous
 10
40.825
 20
-83.2
 30
0.0
 11
54.425
 21
-83.2
 31
0.0
  0
ARC
  8
BLACK
 10
40.825
 20
-82.7
 30
0.0
 40
0.5
 50
180.0
 51
270.0
  0
ARC
  8
BLACK
 10
121.7875
 20
-69.7
 30
0.0
 40
0.5
 50
90.0
 51
180.0
  0
LINE
  8
BLACK
  6
Continuous
 10
135.3875
 20
-69.2
 30
0.0
 11
121.7875
 21
-69.2
 31
0.0
  0
ARC
  8
BLACK
 10
135.3875
 20
-69.7
 30
0.0
 40
0.5
 50
0.0
 51
90.0
  0
LINE
  8
BLACK
  6
Continuous
 10
135.8875
 20
-82.7
 30
0.0
 11
135.8875
 21
-69.7
 31
0.0
  0
ARC
  8
BLACK
 10
135.3875
 20
-82.7
 30
0.0
 40
0.5
 50
270.0
 51
0.0
  0
LINE
  8
BLACK
  6
Continuous
 10
121.7875
 20
-83.2
 30
0.0
 11
135.3875
 21
-83.2
 31
0.0
  0
ARC
  8
BLACK
 10
121.7875
 20
-82.7
 30
0.0
 40
0.5
 50
180.0
 51
270.0
  0
LINE
  8
BLACK
  6
Continuous
 10
121.2875
 20
-69.7
 30
0.0
 11
121.2875
 21
-82.7
 31
0.0
  0
CIRCLE
  8
BLACK
 10
246.459375
 20
-76.2
 30
0.0
 40
1.0
  0
CIRCLE
  8
BLACK
 10
34.528125
 20
-76.2
 30
0.0
 40
1.0
  0
CIRCLE
  8
BLACK
 10
200.025
 20
-76.2
 30
0.0
 40
1.0
  0
CIRCLE
  8
BLACK
 10
138.1125
 20
-76.2
 30
0.0
 40
1.0
  0
CIRCLE
  8
BLACK
 10
10.715625
 20
-76.2
 30
0.0
 40
1.0
  0
CIRCLE
  8
BLACK
 10
100.0125
 20
-76.2
 30
0.0
 40
1.0
  0
CIRCLE
  8
BLACK
 10
166.6875
 20
-76.2
 30
0.0
 40
1.0
  0
CIRCLE
  8
BLACK
 10
223.8375
 20
-76.2
 30
0.0
 40
1.0
  0
CIRCLE
  8
BLACK
 10
57.15
 20
-76.2
 30
0.0
 40
1.0
  0
ENDSEC
  0
EOF
