  0
SECTION
  2
HEADER
  9
$ACADVER
  1
AC1032
  9
$ACADMAINTVER
 90
       55
  9
$DWGCODEPAGE
  3
ANSI_1252
  9
$LASTSAVEDBY
  1
cipulot
  9
$REQUIREDVERSIONS
160
                 0
  9
$INSBASE
 10
0.0
 20
0.0
 30
0.0
  9
$EXTMIN
 10
1.000000000000000E+20
 20
1.000000000000000E+20
 30
1.000000000000000E+20
  9
$EXTMAX
 10
-1.000000000000000E+20
 20
-1.000000000000000E+20
 30
-1.000000000000000E+20
  9
$LIMMIN
 10
0.0
 20
0.0
  9
$LIMMAX
 10
12.0
 20
9.0
  9
$ORTHOMODE
 70
     0
  9
$REGENMODE
 70
     1
  9
$FILLMODE
 70
     1
  9
$QTEXTMODE
 70
     0
  9
$MIRRTEXT
 70
     1
  9
$LTSCALE
 40
1.0
  9
$ATTMODE
 70
     1
  9
$TEXTSIZE
 40
0.2
  9
$TRACEWID
 40
0.05
  9
$TEXTSTYLE
  7
STANDARD
  9
$CLAYER
  8
1
  9
$CELTYPE
  6
BYBLOCK
  9
$CECOLOR
 62
   256
  9
$CELTSCALE
 40
1.0
  9
$DISPSILH
 70
     0
  9
$DIMSCALE
 40
1.0
  9
$DIMASZ
 40
0.18
  9
$DIMEXO
 40
0.0625
  9
$DIMDLI
 40
0.38
  9
$DIMRND
 40
0.0
  9
$DIMDLE
 40
0.0
  9
$DIMEXE
 40
0.18
  9
$DIMTP
 40
0.0
  9
$DIMTM
 40
0.0
  9
$DIMTXT
 40
0.18
  9
$DIMCEN
 40
0.09
  9
$DIMTSZ
 40
0.0
  9
$DIMTOL
 70
     0
  9
$DIMLIM
 70
     0
  9
$DIMTIH
 70
     1
  9
$DIMTOH
 70
     1
  9
$DIMSE1
 70
     0
  9
$DIMSE2
 70
     0
  9
$DIMTAD
 70
     0
  9
$DIMZIN
 70
     0
  9
$DIMBLK
  1

  9
$DIMASO
 70
     1
  9
$DIMSHO
 70
     1
  9
$DIMPOST
  1

  9
$DIMAPOST
  1

  9
$DIMALT
 70
     0
  9
$DIMALTD
 70
     2
  9
$DIMALTF
 40
25.4
  9
$DIMLFAC
 40
1.0
  9
$DIMTOFL
 70
     0
  9
$DIMTVP
 40
0.0
  9
$DIMTIX
 70
     0
  9
$DIMSOXD
 70
     0
  9
$DIMSAH
 70
     0
  9
$DIMBLK1
  1

  9
$DIMBLK2
  1

  9
$DIMSTYLE
  2
Standard
  9
$DIMCLRD
 70
     0
  9
$DIMCLRE
 70
     0
  9
$DIMCLRT
 70
     0
  9
$DIMTFAC
 40
1.0
  9
$DIMGAP
 40
0.09
  9
$DIMJUST
 70
     0
  9
$DIMSD1
 70
     0
  9
$DIMSD2
 70
     0
  9
$DIMTOLJ
 70
     1
  9
$DIMTZIN
 70
     0
  9
$DIMALTZ
 70
     0
  9
$DIMALTTZ
 70
     0
  9
$DIMUPT
 70
     0
  9
$DIMDEC
 70
     4
  9
$DIMTDEC
 70
     4
  9
$DIMALTU
 70
     2
  9
$DIMALTTD
 70
     2
  9
$DIMTXSTY
  7
STANDARD
  9
$DIMAUNIT
 70
     0
  9
$DIMADEC
 70
     0
  9
$DIMALTRND
 40
0.0
  9
$DIMAZIN
 70
     0
  9
$DIMDSEP
 70
    46
  9
$DIMATFIT
 70
     3
  9
$DIMFRAC
 70
     0
  9
$DIMLDRBLK
  1

  9
$DIMLUNIT
 70
     2
  9
$DIMLWD
 70
    -2
  9
$DIMLWE
 70
    -2
  9
$DIMTMOVE
 70
     2
  9
$DIMFXL
 40
1.0
  9
$DIMFXLON
 70
     0
  9
$DIMJOGANG
 40
0.7853981633974483
  9
$DIMTFILL
 70
     0
  9
$DIMTFILLCLR
 70
     0
  9
$DIMARCSYM
 70
     0
  9
$DIMLTYPE
  6

  9
$DIMLTEX1
  6

  9
$DIMLTEX2
  6

  9
$DIMTXTDIRECTION
 70
     0
  9
$LUNITS
 70
     2
  9
$LUPREC
 70
     4
  9
$SKETCHINC
 40
0.1
  9
$FILLETRAD
 40
0.0
  9
$AUNITS
 70
     0
  9
$AUPREC
 70
     0
  9
$MENU
  1
.
  9
$ELEVATION
 40
0.0
  9
$PELEVATION
 40
0.0
  9
$THICKNESS
 40
0.0
  9
$LIMCHECK
 70
     0
  9
$CHAMFERA
 40
0.0
  9
$CHAMFERB
 40
0.0
  9
$CHAMFERC
 40
0.0
  9
$CHAMFERD
 40
0.0
  9
$SKPOLY
 70
     0
  9
$TDCREATE
 40
0.0
  9
$TDUCREATE
 40
0.0
  9
$TDUPDATE
 40
2460880.088661921
  9
$TDUUPDATE
 40
2460880.046995255
  9
$TDINDWG
 40
0.0
  9
$TDUSRTIMER
 40
0.0
  9
$USRTIMER
 70
     1
  9
$ANGBASE
 50
0.0
  9
$ANGDIR
 70
     0
  9
$PDMODE
 70
     0
  9
$PDSIZE
 40
0.0
  9
$PLINEWID
 40
0.0
  9
$SPLFRAME
 70
     0
  9
$SPLINETYPE
 70
     6
  9
$SPLINESEGS
 70
     8
  9
$HANDSEED
  5
100BD
  9
$SURFTAB1
 70
     6
  9
$SURFTAB2
 70
     6
  9
$SURFTYPE
 70
     6
  9
$SURFU
 70
     6
  9
$SURFV
 70
     6
  9
$UCSBASE
  2

  9
$UCSNAME
  2

  9
$UCSORG
 10
0.0
 20
0.0
 30
0.0
  9
$UCSXDIR
 10
1.0
 20
0.0
 30
0.0
  9
$UCSYDIR
 10
0.0
 20
1.0
 30
0.0
  9
$UCSORTHOREF
  2

  9
$UCSORTHOVIEW
 70
     0
  9
$UCSORGTOP
 10
0.0
 20
0.0
 30
0.0
  9
$UCSORGBOTTOM
 10
0.0
 20
0.0
 30
0.0
  9
$UCSORGLEFT
 10
0.0
 20
0.0
 30
0.0
  9
$UCSORGRIGHT
 10
0.0
 20
0.0
 30
0.0
  9
$UCSORGFRONT
 10
0.0
 20
0.0
 30
0.0
  9
$UCSORGBACK
 10
0.0
 20
0.0
 30
0.0
  9
$PUCSBASE
  2

  9
$PUCSNAME
  2

  9
$PUCSORG
 10
0.0
 20
0.0
 30
0.0
  9
$PUCSXDIR
 10
1.0
 20
0.0
 30
0.0
  9
$PUCSYDIR
 10
0.0
 20
1.0
 30
0.0
  9
$PUCSORTHOREF
  2

  9
$PUCSORTHOVIEW
 70
     0
  9
$PUCSORGTOP
 10
0.0
 20
0.0
 30
0.0
  9
$PUCSORGBOTTOM
 10
0.0
 20
0.0
 30
0.0
  9
$PUCSORGLEFT
 10
0.0
 20
0.0
 30
0.0
  9
$PUCSORGRIGHT
 10
0.0
 20
0.0
 30
0.0
  9
$PUCSORGFRONT
 10
0.0
 20
0.0
 30
0.0
  9
$PUCSORGBACK
 10
0.0
 20
0.0
 30
0.0
  9
$USERI1
 70
     0
  9
$USERI2
 70
     0
  9
$USERI3
 70
     0
  9
$USERI4
 70
     0
  9
$USERI5
 70
     0
  9
$USERR1
 40
0.0
  9
$USERR2
 40
0.0
  9
$USERR3
 40
0.0
  9
$USERR4
 40
0.0
  9
$USERR5
 40
0.0
  9
$WORLDVIEW
 70
     1
  9
$SHADEDGE
 70
     3
  9
$SHADEDIF
 70
    70
  9
$TILEMODE
 70
     1
  9
$MAXACTVP
 70
    64
  9
$PINSBASE
 10
0.0
 20
0.0
 30
0.0
  9
$PLIMCHECK
 70
     0
  9
$PEXTMIN
 10
1.000000000000000E+20
 20
1.000000000000000E+20
 30
1.000000000000000E+20
  9
$PEXTMAX
 10
-1.000000000000000E+20
 20
-1.000000000000000E+20
 30
-1.000000000000000E+20
  9
$PLIMMIN
 10
0.0
 20
0.0
  9
$PLIMMAX
 10
12.0
 20
9.0
  9
$UNITMODE
 70
     0
  9
$VISRETAIN
 70
     1
  9
$PLINEGEN
 70
     0
  9
$PSLTSCALE
 70
     1
  9
$TREEDEPTH
 70
  3020
  9
$CMLSTYLE
  2
Standard
  9
$CMLJUST
 70
     0
  9
$CMLSCALE
 40
1.0
  9
$PROXYGRAPHICS
 70
     1
  9
$MEASUREMENT
 70
     0
  9
$CELWEIGHT
370
    -1
  9
$ENDCAPS
280
     0
  9
$JOINSTYLE
280
     0
  9
$LWDISPLAY
290
     0
  9
$INSUNITS
 70
     4
  9
$HYPERLINKBASE
  1

  9
$STYLESHEET
  1

  9
$XEDIT
290
     1
  9
$CEPSNTYPE
380
     0
  9
$PSTYLEMODE
290
     1
  9
$FINGERPRINTGUID
  2
{9c14f5c7-ee9e-c24c-a94e-fc5ef8d19bdd}
  9
$VERSIONGUID
  2
{59C84F64-E785-4D6D-8CDC-4BFFD4B2CDD0}
  9
$EXTNAMES
290
     1
  9
$PSVPSCALE
 40
0.0
  9
$OLESTARTUP
290
     0
  9
$SORTENTS
280
   127
  9
$INDEXCTL
280
     0
  9
$HIDETEXT
280
     1
  9
$XCLIPFRAME
280
     2
  9
$HALOGAP
280
     0
  9
$OBSCOLOR
 70
   257
  9
$OBSLTYPE
280
     0
  9
$INTERSECTIONDISPLAY
280
     0
  9
$INTERSECTIONCOLOR
 70
   257
  9
$DIMASSOC
280
     2
  9
$PROJECTNAME
  1

  9
$CAMERADISPLAY
290
     0
  9
$LENSLENGTH
 40
50.0
  9
$CAMERAHEIGHT
 40
0.0
  9
$STEPSPERSEC
 40
2.0
  9
$STEPSIZE
 40
6.0
  9
$3DDWFPREC
 40
2.0
  9
$PSOLWIDTH
 40
0.25
  9
$PSOLHEIGHT
 40
4.0
  9
$LOFTANG1
 40
1.570796326794897
  9
$LOFTANG2
 40
1.570796326794897
  9
$LOFTMAG1
 40
0.0
  9
$LOFTMAG2
 40
0.0
  9
$LOFTPARAM
 70
     7
  9
$LOFTNORMALS
280
     1
  9
$LATITUDE
 40
37.795
  9
$LONGITUDE
 40
-122.394
  9
$NORTHDIRECTION
 40
0.0
  9
$TIMEZONE
 70
 -8000
  9
$LIGHTGLYPHDISPLAY
280
     1
  9
$TILEMODELIGHTSYNCH
280
     1
  9
$CMATERIAL
347
1001C
  9
$SOLIDHIST
280
     0
  9
$SHOWHIST
280
     1
  9
$DWFFRAME
280
     2
  9
$DGNFRAME
280
     2
  9
$REALWORLDSCALE
290
     1
  9
$INTERFERECOLOR
 62
   256
  9
$CSHADOW
280
     0
  9
$SHADOWPLANELOCATION
 40
0.0
  0
ENDSEC
  0
SECTION
  2
CLASSES
  0
CLASS
  1
ACDBDICTIONARYWDFLT
  2
AcDbDictionaryWithDefault
  3
ObjectDBX Classes
 90
        0
 91
        3
280
     0
281
     0
  0
CLASS
  1
SCALE
  2
AcDbScale
  3
ObjectDBX Classes
 90
     1153
 91
        3
280
     0
281
     0
  0
CLASS
  1
MATERIAL
  2
AcDbMaterial
  3
ObjectDBX Classes
 90
     1153
 91
        3
280
     0
281
     0
  0
CLASS
  1
VISUALSTYLE
  2
AcDbVisualStyle
  3
ObjectDBX Classes
 90
     4095
 91
        3
280
     0
281
     0
  0
CLASS
  1
TABLESTYLE
  2
AcDbTableStyle
  3
ObjectDBX Classes
 90
     4095
 91
        3
280
     0
281
     0
  0
CLASS
  1
MLEADERSTYLE
  2
AcDbMLeaderStyle
  3
ACDB_MLEADERSTYLE_CLASS
 90
     4095
 91
        3
280
     0
281
     0
  0
CLASS
  1
DICTIONARYVAR
  2
AcDbDictionaryVar
  3
ObjectDBX Classes
 90
        0
 91
        3
280
     0
281
     0
  0
CLASS
  1
CELLSTYLEMAP
  2
AcDbCellStyleMap
  3
ObjectDBX Classes
 90
     1152
 91
        3
280
     0
281
     0
  0
CLASS
  1
SUN
  2
AcDbSun
  3
SCENEOE
 90
     1153
 91
        3
280
     0
281
     0
  0
CLASS
  1
MENTALRAYRENDERSETTINGS
  2
AcDbMentalRayRenderSettings
  3
SCENEOE
 90
     1024
 91
        3
280
     0
281
     0
  0
CLASS
  1
ACDBDETAILVIEWSTYLE
  2
AcDbDetailViewStyle
  3
ObjectDBX Classes
 90
     1025
 91
        3
280
     0
281
     0
  0
CLASS
  1
ACDBSECTIONVIEWSTYLE
  2
AcDbSectionViewStyle
  3
ObjectDBX Classes
 90
     1025
 91
        3
280
     0
281
     0
  0
CLASS
  1
RASTERVARIABLES
  2
AcDbRasterVariables
  3
ISM
 90
        0
 91
        3
280
     0
281
     0
  0
CLASS
  1
ACDBPLACEHOLDER
  2
AcDbPlaceHolder
  3
ObjectDBX Classes
 90
        0
 91
        1
280
     0
281
     0
  0
CLASS
  1
LAYOUT
  2
AcDbLayout
  3
ObjectDBX Classes
 90
        0
 91
        1
280
     0
281
     0
  0
ENDSEC
  0
SECTION
  2
TABLES
  0
TABLE
  2
VPORT
  5
8
330
0
100
AcDbSymbolTable
 70
     1
  0
VPORT
  5
10001
330
8
100
AcDbSymbolTableRecord
100
AcDbViewportTableRecord
  2
*Active
 70
     0
 10
0.0
 20
0.0
 11
1.0
 21
1.0
 12
10.42990654205607
 22
4.5
 13
0.0
 23
0.0
 14
0.5
 24
0.5
 15
0.5
 25
0.5
 16
0.0
 26
0.0
 36
1.0
 17
0.0
 27
0.0
 37
0.0
 40
9.0
 41
1.972972972850329
 42
50.0
 43
0.0
 44
0.0
 50
0.0
 51
0.0
 71
     0
 72
   100
 73
     1
 74
     3
 75
     0
 76
     0
 77
     0
 78
     0
281
     0
 65
     1
110
0.0
120
0.0
130
0.0
111
1.0
121
0.0
131
0.0
112
0.0
122
1.0
132
0.0
 79
     0
146
0.0
348
10024
 60
     3
 61
     5
292
     1
282
     1
141
0.0
142
0.0
 63
   250
  0
ENDTAB
  0
TABLE
  2
LTYPE
  5
5
330
0
100
AcDbSymbolTable
 70
     2
  0
LTYPE
  5
14
330
5
100
AcDbSymbolTableRecord
100
AcDbLinetypeTableRecord
  2
BYBLOCK
 70
     0
  3

 72
    65
 73
     0
 40
0.0
  0
LTYPE
  5
15
330
5
100
AcDbSymbolTableRecord
100
AcDbLinetypeTableRecord
  2
BYLAYER
 70
     0
  3

 72
    65
 73
     0
 40
0.0
  0
LTYPE
  5
FFFF
330
5
100
AcDbSymbolTableRecord
100
AcDbLinetypeTableRecord
  2
Continuous
 70
     0
  3
Solid line
 72
    65
 73
     0
 40
0.0
  0
LTYPE
  5
16
330
5
100
AcDbSymbolTableRecord
100
AcDbLinetypeTableRecord
  2
DASHED
 70
     0
  3
Dashed __ __ __ __ __ __ __ __ __ __ __ __ __ _
 72
    65
 73
     2
 40
0.75
 49
0.5
 74
     0
 49
-0.25
 74
     0
  0
ENDTAB
  0
TABLE
  2
LAYER
  5
2
330
0
100
AcDbSymbolTable
 70
     3
  0
LAYER
  5
51
330
2
100
AcDbSymbolTableRecord
100
AcDbLayerTableRecord
  2
0
 70
     0
 62
     7
  6
Continuous
370
    -3
390
10005
347
1001E
348
0
  0
LAYER
  5
50
330
2
100
AcDbSymbolTableRecord
100
AcDbLayerTableRecord
  2
1
 70
     0
 62
     7
  6
DASHED
370
    -3
390
10005
347
1001E
348
0
  0
LAYER
  5
1005F
330
2
100
AcDbSymbolTableRecord
100
AcDbLayerTableRecord
  2
Defpoints
 70
     0
 62
     7
  6
Continuous
290
     0
370
    -3
390
10005
347
1001E
348
0
  0
ENDTAB
  0
TABLE
  2
STYLE
  5
3
330
0
100
AcDbSymbolTable
 70
     1
  0
STYLE
  5
11
330
3
100
AcDbSymbolTableRecord
100
AcDbTextStyleTableRecord
  2
STANDARD
 70
     0
 40
0.2
 41
1.0
 50
0.0
 71
     0
 42
0.2
  3

  4

  0
ENDTAB
  0
TABLE
  2
VIEW
  5
6
330
0
100
AcDbSymbolTable
 70
     0
  0
ENDTAB
  0
TABLE
  2
UCS
  5
7
330
0
100
AcDbSymbolTable
 70
     0
  0
ENDTAB
  0
TABLE
  2
APPID
  5
9
330
0
100
AcDbSymbolTable
 70
     3
  0
APPID
  5
12
330
9
100
AcDbSymbolTableRecord
100
AcDbRegAppTableRecord
  2
ACAD
 70
     0
  0
APPID
  5
1007C
330
9
100
AcDbSymbolTableRecord
100
AcDbRegAppTableRecord
  2
HATCHBACKGROUNDCOLOR
 70
     0
  0
APPID
  5
1007D
330
9
100
AcDbSymbolTableRecord
100
AcDbRegAppTableRecord
  2
EZDXF
 70
     0
  0
ENDTAB
  0
TABLE
  2
DIMSTYLE
  5
A
330
0
100
AcDbSymbolTable
 70
     1
100
AcDbDimStyleTable
  0
DIMSTYLE
105
10000
330
A
100
AcDbSymbolTableRecord
100
AcDbDimStyleTableRecord
  2
Standard
 70
     0
 41
2.5
 42
0.625
 43
3.75
 44
1.25
 49
2.5
 73
     0
 74
     0
 77
     1
 78
     8
 79
     3
140
2.5
141
2.5
143
0.03937007874
147
0.625
171
     3
172
     1
178
     0
179
     2
271
     2
272
     2
274
     3
278
    44
283
     0
284
     8
340
11
  0
ENDTAB
  0
TABLE
  2
BLOCK_RECORD
  5
1
330
0
100
AcDbSymbolTable
 70
     0
  0
BLOCK_RECORD
  5
1F
330
1
100
AcDbSymbolTableRecord
100
AcDbBlockTableRecord
  2
*MODEL_SPACE
340
10019
 70
     0
280
     1
281
     0
  0
BLOCK_RECORD
  5
1B
330
1
100
AcDbSymbolTableRecord
100
AcDbBlockTableRecord
  2
*PAPER_SPACE
340
1001A
 70
     0
280
     1
281
     0
  0
ENDTAB
  0
ENDSEC
  0
SECTION
  2
BLOCKS
  0
BLOCK
  5
20
330
1F
100
AcDbEntity
  8
0
100
AcDbBlockBegin
  2
*MODEL_SPACE
 70
     0
 10
0.0
 20
0.0
 30
0.0
  3
*MODEL_SPACE
  1

  0
ENDBLK
  5
21
330
1F
100
AcDbEntity
  8
0
100
AcDbBlockEnd
  0
BLOCK
  5
1C
330
1B
100
AcDbEntity
 67
     1
  8
0
100
AcDbBlockBegin
  2
*PAPER_SPACE
 70
     0
 10
0.0
 20
0.0
 30
0.0
  3
*PAPER_SPACE
  1

  0
ENDBLK
  5
1D
330
1B
100
AcDbEntity
 67
     1
  8
0
100
AcDbBlockEnd
  0
ENDSEC
  0
SECTION
  2
ENTITIES
  0
POINT
  5
100
330
1F
100
AcDbEntity
  8
0
100
AcDbPoint
 10
0.0
 20
0.0
 30
0.0
  0
LWPOLYLINE
  5
101
330
1F
100
AcDbEntity
  8
0
100
AcDbPolyline
 90
      179
 70
     1
 43
0.0
 10
88.22507601838998
 20
-85.50626215995001
 10
114.7980637123501
 20
-85.50626215995015
 42
-0.4142135623730222
 10
115.29806371235
 20
-86.00626215995013
 10
115.2980637123569
 20
-86.50537129763015
 42
-0.3593047417456784
 10
114.8930020388281
 20
-86.99627527415001
 42
-0.0477950678508662
 10
114.7980645062601
 20
-87.00537114409022
 10
104.2980637123501
 20
-87.00537114409016
 42
0.4142135623731159
 10
103.2980637123502
 20
-88.00537114409016
 10
103.2980637123501
 20
-89.50537114409022
 42
0.4142135623730951
 10
104.2980637123501
 20
-90.50537114410014
 10
132.3970637123501
 20
-90.50537114410014
 10
132.3970637123501
 20
-85.50538367956014
 42
-0.9999999999999999
 10
133.39706371235
 20
-85.50538367956014
 10
133.3970637123893
 20
-89.00538367955014
 42
0.9999937322876304
 10
137.3970637123501
 20
-89.00538367955014
 10
137.3970637123501
 20
-85.50538367956014
 42
-0.9999999999999999
 10
138.39706371235
 20
-85.50538367956014
 10
138.39706371235
 20
-90.50537114410014
 10
166.49606371235
 20
-90.50537114410017
 42
0.4142135623730586
 10
167.49606371235
 20
-89.50537114410017
 10
167.49606371235
 20
-88.00537114409016
 42
0.4142135623731159
 10
166.49606371235
 20
-87.00537114409022
 10
155.99606291844
 20
-87.00537114410017
 42
-0.4142135623730326
 10
155.4960629184399
 20
-86.50537114410005
 10
155.4960629184399
 20
-86.00626215995013
 42
-0.4142135623730326
 10
155.99606291844
 20
-85.50626215995001
 10
178.4750027761999
 20
-85.50626215995001
 42
-0.4142135623731263
 10
178.9750027762
 20
-86.00626215995013
 10
178.9749999999999
 20
-88.77723588401003
 42
1.003398854683128
 10
182.9749539480699
 20
-88.76366364769999
 10
182.9749539480698
 20
-86.00626215995013
 42
-0.4142135623731054
 10
183.4749539480699
 20
-85.50626215995003
 10
222.37206450626
 20
-85.50626215995031
 42
-0.4142135623731159
 10
222.8720645062598
 20
-86.00626215995013
 10
222.8720645062501
 20
-86.50537114410005
 42
-0.4142135623731263
 10
222.37206450626
 20
-87.00537114409022
 10
211.87206371235
 20
-87.00537114409016
 42
0.4142135623731002
 10
210.87206371235
 20
-88.00537114409016
 10
210.87206371235
 20
-89.50537114409022
 42
0.4142135623730898
 10
211.87206371235
 20
-90.50537114410012
 10
230.87206371235
 20
-90.50537114410014
 10
230.8720637123497
 20
-85.50538367956008
 42
-0.9999999999999999
 10
231.87206371235
 20
-85.50538367956015
 10
231.8720637123891
 20
-89.00538367955014
 42
0.9999937322964871
 10
235.87206371235
 20
-89.00538367955014
 10
235.8720637123497
 20
-85.50538367956008
 42
-0.9999999999999999
 10
236.87206371235
 20
-85.50538367956014
 10
236.87206371235
 20
-90.50537114410014
 10
255.87206371235
 20
-90.50537114409023
 42
0.4142135623730743
 10
256.87206371235
 20
-89.50537114409023
 10
256.87206371235
 20
-88.00537114409019
 42
0.4142135623731054
 10
255.87206371235
 20
-87.00537114409023
 10
245.3720629184401
 20
-87.0053711441002
 42
-0.4142135623731159
 10
244.87206291844
 20
-86.50537114410005
 10
244.87206291844
 20
-86.00626215995014
 42
-0.4142135623731054
 10
245.3720629184401
 20
-85.50626215995004
 10
273.7249999999998
 20
-85.50626215995013
 42
0.4142135623731028
 10
275.725
 20
-83.50626215995014
 10
275.7249999999998
 20
7.564174895869744
 42
0.4142135623730971
 10
273.7249999999998
 20
9.564174895869893
 10
246.4663485078499
 20
9.564174895869886
 42
-0.4142135623730638
 10
245.9663485078501
 20
10.06417489586974
 10
245.9663485078498
 20
10.20418801007972
 42
-0.4142135623729897
 10
246.4663485078499
 20
10.70418801007983
 10
256.9663485078499
 20
10.70418801007978
 42
0.4142135623730873
 10
257.9663485078499
 20
11.70418801007978
 10
257.9663485078499
 20
13.25418801008007
 42
0.4142135623731119
 10
256.9663485078499
 20
14.25418801008
 10
237.9663485078499
 20
14.25418801008002
 10
237.9663485078501
 20
9.554200545540038
 42
-0.9999999999999999
 10
236.9663485078499
 20
9.554200545540061
 10
236.9663485078108
 20
13.05420054554995
 42
0.9999937322743456
 10
232.9663485078499
 20
13.05420054554995
 10
232.9663485078501
 20
9.554200545540038
 42
-0.9999999999999999
 10
231.9663485078499
 20
9.554200545540061
 10
231.9663485078499
 20
14.25418801008002
 10
212.9663485078499
 20
14.25418801008008
 42
0.4142135623730573
 10
211.9663485078499
 20
13.25418801008007
 10
211.9663485078499
 20
11.70418801007978
 42
0.4142135623731119
 10
212.9663485078499
 20
10.70418801007985
 10
223.46634850785
 20
10.70418801007957
 42
-0.4142135623729949
 10
223.9663485078499
 20
10.20418801007972
 10
223.9663485078498
 20
10.06417489586974
 42
-0.4142135623729962
 10
223.46634850785
 20
9.564174895869916
 10
183.47495394807
 20
9.564174895869776
 42
-0.4142135623731574
 10
182.9749539480699
 20
10.06417489586975
 10
182.9749539480698
 20
13.03567706183012
 42
1.007870057063512
 10
178.9750790701401
 20
13.03146519544991
 10
178.9750790701399
 20
10.06417489586975
 42
-0.4142135623731172
 10
178.4750790701401
 20
9.56417489586992
 10
155.9903485078501
 20
9.5641748958698
 42
-0.4142135623731028
 10
155.4903485078501
 20
10.06417489586975
 10
155.49034850785
 20
10.20418801007973
 42
-0.4142135623731172
 10
155.9903485078501
 20
10.70418801007984
 10
166.4903485078501
 20
10.70418801007978
 42
0.4142135623730873
 10
167.49034850785
 20
11.70418801007979
 10
167.4903485078501
 20
13.25418801008009
 42
0.4142135623731126
 10
166.4903485078501
 20
14.25418801008003
 10
138.39134850785
 20
14.25418801008003
 10
138.3913485078501
 20
9.554200545540084
 42
-0.9999999999999999
 10
137.3913485078498
 20
9.554200545540068
 10
137.3913485078107
 20
13.05420054554996
 42
0.9999937322743456
 10
133.39134850785
 20
13.05420054554996
 10
133.3913485078501
 20
9.554200545540084
 42
-0.9999999999999999
 10
132.3913485078498
 20
9.55420054554007
 10
132.3913485078498
 20
14.25418801008003
 10
104.29234850785
 20
14.25418801008009
 42
0.4142135623730827
 10
103.2923485078499
 20
13.25418801008009
 10
103.29234850785
 20
11.7041880100798
 42
0.4142135623730969
 10
104.29234850785
 20
10.70418801007984
 10
114.79234850785
 20
10.7041880100797
 42
-0.4142135623730743
 10
115.29234850785
 20
10.20418801007974
 10
115.2923485078498
 20
10.06417489586976
 42
-0.4142135623730951
 10
114.79234850785
 20
9.564174895869929
 10
88.22504550081
 20
9.564174895869789
 42
-0.4142135623730964
 10
87.72504550081003
 20
10.06417489586976
 10
87.72504550081003
 20
13.04924929817997
 10
87.72499999999997
 20
13.04924929818991
 42
1.004868002655108
 10
83.72509432893004
 20
13.02982491092973
 10
83.72509432892991
 20
10.06417489586976
 42
-0.4142135623730937
 10
83.22509432893007
 20
9.56417489586993
 10
31.25834850785004
 20
9.564174895869794
 42
-0.4142135623730911
 10
30.75834850785007
 20
10.06417489586976
 10
30.75834850784993
 20
10.20418801007974
 42
-0.4142135623730976
 10
31.25834850785004
 20
10.70418801007985
 10
41.75834850785016
 20
10.7041880100798
 42
0.4142135623730937
 10
42.7583485078501
 20
11.7041880100798
 10
42.75834850785017
 20
13.2541880100801
 42
0.4142135623730964
 10
41.75834850785016
 20
14.25418801008004
 10
22.7583485078501
 20
14.25418801008004
 10
22.7583485078501
 20
9.554200545540079
 42
-0.9999999999999999
 10
21.75834850785016
 20
9.554200545540082
 10
21.75834850781086
 20
13.05420054554997
 42
0.9999937322743456
 10
17.7583485078501
 20
13.05420054554997
 10
17.7583485078501
 20
9.55420054554008
 42
-0.9999999999999999
 10
16.75834850785016
 20
9.554200545540084
 10
16.75834850785016
 20
14.25418801008004
 10
-2.241651492149899
 20
14.25418801008011
 42
0.4142135623730952
 10
-3.241651492149842
 20
13.2541880100801
 10
-3.241651492149899
 20
11.70418801007981
 42
0.4142135623730959
 10
-2.241651492149899
 20
10.70418801007986
 10
8.258348507850073
 20
10.70418801007972
 42
-0.4142135623730937
 10
8.758348507850044
 20
10.20418801007975
 10
8.7583485078499
 20
10.06417489586976
 42
-0.4142135623730931
 10
8.258348507850073
 20
9.564174895869941
 10
-7.025000000000077
 20
9.56417489586977
 42
0.4142135623730951
 10
-9.025000000000077
 20
7.564174895869762
 10
-9.025000000000087
 20
-83.5062621599501
 42
0.4142135623730964
 10
-7.025000000000087
 20
-85.50626215994998
 10
17.1920645062601
 20
-85.50626215995013
 42
-0.4142135623731002
 10
17.69206450626006
 20
-86.00626215995008
 10
17.69206450625027
 20
-86.50537114410005
 42
-0.414213562373082
 10
17.19206450626011
 20
-87.00537114409019
 10
6.692063712350125
 20
-87.00537114409015
 42
0.4142135623730856
 10
5.692063712350039
 20
-88.00537114409012
 10
5.692063712350124
 20
-89.50537114410014
 42
0.4142135623730824
 10
6.692063712350123
 20
-90.50537114410008
 10
24.69206371235009
 20
-90.50537114410008
 10
24.69206371235009
 20
-85.50538367956011
 42
-0.9999999999999999
 10
25.69206371235004
 20
-85.50538367956011
 10
25.69206371238934
 20
-89.0053836795501
 42
0.9999937322964871
 10
29.69206371235009
 20
-89.0053836795501
 10
29.69206371235009
 20
-85.50538367956011
 42
-0.9999999999999999
 10
30.69206371235004
 20
-85.50538367956011
 10
30.69206371235004
 20
-90.50537114410008
 10
48.69206371235015
 20
-90.50537114409019
 42
0.4142135623730847
 10
49.69206371235011
 20
-89.50537114409019
 10
49.69206371235014
 20
-88.00537114409012
 42
0.4142135623731028
 10
48.69206371235015
 20
-87.00537114409019
 10
38.19206291844017
 20
-87.00537114410017
 42
-0.4142135623731132
 10
37.69206291844006
 20
-86.50537114410005
 10
37.69206291844008
 20
-86.00626215995008
 42
-0.4142135623730924
 10
38.19206291844017
 20
-85.50626215994998
 10
83.22506381135005
 20
-85.50626215995015
 42
-0.4142135623730326
 10
83.72506381135003
 20
-86.00626215995013
 10
83.72506381135145
 20
-88.76125960990996
 42
1.004002108757138
 10
87.72499999999987
 20
-88.77723588401003
 10
87.72507601838987
 20
-88.77723588401003
 10
87.72507601838987
 20
-86.00626215995013
 42
-0.4142135623731159
  0
CIRCLE
  5
102
330
1F
100
AcDbEntity
  8
0
100
AcDbCircle
 10
19.75834850785013
 20
13.05418801007999
 30
0.0
 40
1.1
  0
CIRCLE
  5
103
330
1F
100
AcDbEntity
  8
0
100
AcDbCircle
 10
85.72499999999998
 20
13.04924929582977
 30
0.0
 40
1.1
  0
CIRCLE
  5
104
330
1F
100
AcDbEntity
  8
0
100
AcDbCircle
 10
180.9749999999999
 20
-88.77723588167007
 30
0.0
 40
1.1
  0
CIRCLE
  5
105
330
1F
100
AcDbEntity
  8
0
100
AcDbCircle
 10
85.72499999999997
 20
-88.77723588167007
 30
0.0
 40
1.1
  0
CIRCLE
  5
106
330
1F
100
AcDbEntity
  8
0
100
AcDbCircle
 10
27.69206371235007
 20
-89.00537114409008
 30
0.0
 40
1.1
  0
CIRCLE
  5
107
330
1F
100
AcDbEntity
  8
0
100
AcDbCircle
 10
135.3970637123501
 20
-89.00537114409012
 30
0.0
 40
1.1
  0
CIRCLE
  5
108
330
1F
100
AcDbEntity
  8
0
100
AcDbCircle
 10
135.39134850785
 20
13.05418801007999
 30
0.0
 40
1.1
  0
CIRCLE
  5
109
330
1F
100
AcDbEntity
  8
0
100
AcDbCircle
 10
233.8720637123499
 20
-89.00537114409012
 30
0.0
 40
1.1
  0
CIRCLE
  5
110
330
1F
100
AcDbEntity
  8
0
100
AcDbCircle
 10
234.9663485078501
 20
13.05418801007997
 30
0.0
 40
1.1
  0
CIRCLE
  5
111
330
1F
100
AcDbEntity
  8
0
100
AcDbCircle
 10
180.9749999999999
 20
13.04924929582976
 30
0.0
 40
1.1
  0
LWPOLYLINE
  5
112
330
1F
100
AcDbEntity
  8
0
100
AcDbPolyline
 90
        8
 70
     1
 43
0.0
 10
192.5375
 20
-45.10000000000001
 42
0.4142135623730951
 10
193.0375
 20
-44.6
 10
193.0375
 20
-31.6
 42
0.4142135623730951
 10
192.5375
 20
-31.1
 10
178.9375
 20
-31.1
 42
0.4142123908030423
 10
178.4375
 20
-31.6
 10
178.4375
 20
-44.6
 42
0.4142123908030397
 10
178.9375
 20
-45.10000000000001
  0
LWPOLYLINE
  5
113
330
1F
100
AcDbEntity
  8
0
100
AcDbPolyline
 90
        8
 70
     1
 43
0.0
 10
197.4875
 20
-44.6
 42
0.4142123908030397
 10
197.9875
 20
-45.10000000000001
 10
211.5875
 20
-45.10000000000001
 42
0.4142135623730951
 10
212.0875
 20
-44.6
 10
212.0875
 20
-31.6
 42
0.4142135623730951
 10
211.5875
 20
-31.1
 10
197.9875
 20
-31.1
 42
0.4142123908030423
 10
197.4875
 20
-31.6
  0
LWPOLYLINE
  5
114
330
1F
100
AcDbEntity
  8
0
100
AcDbPolyline
 90
        8
 70
     1
 43
0.0
 10
207.0125
 20
-63.65000000000001
 42
0.4142123908030449
 10
207.5125
 20
-64.14999999999999
 10
221.1125
 20
-64.14999999999999
 42
0.4142135623730951
 10
221.6125
 20
-63.65000000000001
 10
221.6125
 20
-50.65000000000001
 42
0.4142135623730951
 10
221.1125
 20
-50.15000000000001
 10
207.5125
 20
-50.15000000000001
 42
0.4142123908030397
 10
207.0125
 20
-50.65000000000001
  0
LWPOLYLINE
  5
115
330
1F
100
AcDbEntity
  8
0
100
AcDbPolyline
 90
        8
 70
     1
 43
0.0
 10
202.0625
 20
-64.14999999999999
 42
0.4142135623730951
 10
202.5625
 20
-63.65000000000001
 10
202.5625
 20
-50.65000000000001
 42
0.4142135623730951
 10
202.0625
 20
-50.15000000000001
 10
188.4625
 20
-50.15000000000001
 42
0.4142123908030397
 10
187.9625
 20
-50.65000000000001
 10
187.9625
 20
-63.65000000000001
 42
0.4142123908030449
 10
188.4625
 20
-64.14999999999999
  0
LWPOLYLINE
  5
117
330
1F
100
AcDbEntity
  8
0
100
AcDbPolyline
 90
        8
 70
     1
 43
0.0
 10
144.9125
 20
-50.15000000000001
 10
131.3125
 20
-50.15000000000001
 42
0.4142123908030501
 10
130.8125
 20
-50.65000000000001
 10
130.8125
 20
-63.65000000000001
 42
0.4142123908030554
 10
131.3125
 20
-64.14999999999999
 10
144.9125
 20
-64.14999999999999
 42
0.4142135623730951
 10
145.4125
 20
-63.65000000000001
 10
145.4125
 20
-50.65000000000001
 42
0.4142135623730951
  0
LWPOLYLINE
  5
118
330
1F
100
AcDbEntity
  8
0
100
AcDbPolyline
 90
        8
 70
     1
 43
0.0
 10
193.225
 20
-26.05
 10
206.825
 20
-26.05
 42
0.4142135623730951
 10
207.325
 20
-25.55
 10
207.325
 20
-12.55
 42
0.4142135623730951
 10
206.825
 20
-12.05
 10
193.225
 20
-12.05
 42
0.4142123908030618
 10
192.725
 20
-12.55
 10
192.725
 20
-25.55
 42
0.4142123908030632
  0
LWPOLYLINE
  5
119
330
1F
100
AcDbEntity
  8
0
100
AcDbPolyline
 90
        8
 70
     1
 43
0.0
 10
183.5125
 20
-50.65000000000001
 42
0.4142135623730951
 10
183.0125
 20
-50.15000000000001
 10
169.4125
 20
-50.15000000000001
 42
0.4142123908030397
 10
168.9125
 20
-50.65000000000001
 10
168.9125
 20
-63.65000000000001
 42
0.4142123908030449
 10
169.4125
 20
-64.14999999999999
 10
183.0125
 20
-64.14999999999999
 42
0.4142135623730951
 10
183.5125
 20
-63.65000000000001
  0
LWPOLYLINE
  5
120
330
1F
100
AcDbEntity
  8
0
100
AcDbPolyline
 90
        8
 70
     1
 43
0.0
 10
149.8625
 20
-50.65000000000001
 10
149.8625
 20
-63.65000000000001
 42
0.4142123908030554
 10
150.3625
 20
-64.14999999999999
 10
163.9625
 20
-64.14999999999999
 42
0.4142135623730951
 10
164.4625
 20
-63.65000000000001
 10
164.4625
 20
-50.65000000000001
 42
0.4142135623730951
 10
163.9625
 20
-50.15000000000001
 10
150.3625
 20
-50.15000000000001
 42
0.4142123908030501
  0
LWPOLYLINE
  5
121
330
1F
100
AcDbEntity
  8
0
100
AcDbPolyline
 90
        8
 70
     1
 43
0.0
 10
159.3875
 20
-44.6
 42
0.4142123908030293
 10
159.8875
 20
-45.10000000000001
 10
173.4875
 20
-45.10000000000001
 42
0.4142135623730951
 10
173.9875
 20
-44.6
 10
173.9875
 20
-31.6
 42
0.4142135623730951
 10
173.4875
 20
-31.1
 10
159.8875
 20
-31.1
 42
0.4142123908030319
 10
159.3875
 20
-31.6
  0
LWPOLYLINE
  5
122
330
1F
100
AcDbEntity
  8
0
100
AcDbPolyline
 90
        8
 70
     1
 43
0.0
 10
140.8375
 20
-45.10000000000001
 10
154.4375
 20
-45.10000000000001
 42
0.4142135623730951
 10
154.9375
 20
-44.6
 10
154.9375
 20
-31.6
 42
0.4142135623730951
 10
154.4375
 20
-31.1
 10
140.8375
 20
-31.1
 42
0.4142123908030527
 10
140.3375
 20
-31.6
 10
140.3375
 20
-44.6
 42
0.4142123908030501
  0
LWPOLYLINE
  5
123
330
1F
100
AcDbEntity
  8
0
100
AcDbPolyline
 90
        8
 70
     1
 43
0.0
 10
211.775
 20
-25.55
 42
0.4142123908030632
 10
212.275
 20
-26.05
 10
225.875
 20
-26.05
 42
0.4142135623730951
 10
226.375
 20
-25.55
 10
226.375
 20
-12.55
 42
0.4142135623730951
 10
225.875
 20
-12.05
 10
212.275
 20
-12.05
 42
0.4142123908030618
 10
211.775
 20
-12.55
  0
LWPOLYLINE
  5
124
330
1F
100
AcDbEntity
  8
0
100
AcDbPolyline
 90
        8
 70
     1
 43
0.0
 10
187.775
 20
-26.05
 42
0.4142135623730951
 10
188.275
 20
-25.55
 10
188.275
 20
-12.55
 42
0.4142135623730951
 10
187.775
 20
-12.05
 10
174.175
 20
-12.05
 42
0.4142123908030618
 10
173.675
 20
-12.55
 10
173.675
 20
-25.55
 42
0.4142123908030632
 10
174.175
 20
-26.05
  0
LWPOLYLINE
  5
125
330
1F
100
AcDbEntity
  8
0
100
AcDbPolyline
 90
        8
 70
     1
 43
0.0
 10
183.7
 20
7.000000000000001
 42
0.4142123908030625
 10
183.2
 20
6.5
 10
183.2
 20
-6.5
 42
0.4142123908030625
 10
183.7
 20
-7.000000000000001
 10
197.3
 20
-7.000000000000001
 42
0.4142135623730951
 10
197.8
 20
-6.5
 10
197.8
 20
6.5
 42
0.4142135623730951
 10
197.3
 20
7.000000000000001
  0
LWPOLYLINE
  5
126
330
1F
100
AcDbEntity
  8
0
100
AcDbPolyline
 90
        8
 70
     1
 43
0.0
 10
202.75
 20
7.000000000000001
 42
0.4142123908030625
 10
202.25
 20
6.5
 10
202.25
 20
-6.5
 42
0.4142123908030625
 10
202.75
 20
-7.000000000000001
 10
216.35
 20
-7.000000000000001
 42
0.4142135623730951
 10
216.85
 20
-6.5
 10
216.85
 20
6.5
 42
0.4142135623730951
 10
216.35
 20
7.000000000000001
  0
LWPOLYLINE
  5
127
330
1F
100
AcDbEntity
  8
0
100
AcDbPolyline
 90
        8
 70
     1
 43
0.0
 10
178.75
 20
-6.5
 10
178.75
 20
6.5
 42
0.4142135623730951
 10
178.25
 20
7.000000000000001
 10
164.65
 20
7.000000000000001
 42
0.4142123908030417
 10
164.15
 20
6.5
 10
164.15
 20
-6.5
 42
0.4142123908030417
 10
164.65
 20
-7.000000000000001
 10
178.25
 20
-7.000000000000001
 42
0.4142135623730951
  0
LWPOLYLINE
  5
128
330
1F
100
AcDbEntity
  8
0
100
AcDbPolyline
 90
        8
 70
     1
 43
0.0
 10
149.675
 20
-12.05
 10
136.075
 20
-12.05
 42
0.4142123908030514
 10
135.575
 20
-12.55
 10
135.575
 20
-25.55
 42
0.4142123908030527
 10
136.075
 20
-26.05
 10
149.675
 20
-26.05
 42
0.4142135623730951
 10
150.175
 20
-25.55
 10
150.175
 20
-12.55
 42
0.4142135623730951
  0
LWPOLYLINE
  5
129
330
1F
100
AcDbEntity
  8
0
100
AcDbPolyline
 90
        8
 70
     1
 43
0.0
 10
126.55
 20
-7.000000000000001
 10
140.15
 20
-7.000000000000001
 42
0.4142135623730951
 10
140.65
 20
-6.5
 10
140.65
 20
6.5
 42
0.4142135623730951
 10
140.15
 20
7.000000000000001
 10
126.55
 20
7.000000000000001
 42
0.4142123908030521
 10
126.05
 20
6.5
 10
126.05
 20
-6.5
 42
0.4142123908030521
  0
LWPOLYLINE
  5
130
330
1F
100
AcDbEntity
  8
0
100
AcDbPolyline
 90
        8
 70
     1
 43
0.0
 10
168.725
 20
-26.05
 42
0.4142135623730951
 10
169.225
 20
-25.55
 10
169.225
 20
-12.55
 42
0.4142135623730951
 10
168.725
 20
-12.05
 10
155.125
 20
-12.05
 42
0.4142123908030514
 10
154.625
 20
-12.55
 10
154.625
 20
-25.55
 42
0.4142123908030527
 10
155.125
 20
-26.05
  0
LWPOLYLINE
  5
132
330
1F
100
AcDbEntity
  8
0
100
AcDbPolyline
 90
        8
 70
     1
 43
0.0
 10
145.1
 20
-6.5
 42
0.4142123908030521
 10
145.6
 20
-7.000000000000001
 10
159.2
 20
-7.000000000000001
 42
0.4142135623730951
 10
159.7
 20
-6.5
 10
159.7
 20
6.5
 42
0.4142135623730951
 10
159.2
 20
7.000000000000001
 10
145.6
 20
7.000000000000001
 42
0.4142123908030521
 10
145.1
 20
6.5
  0
LWPOLYLINE
  5
134
330
1F
100
AcDbEntity
  8
0
100
AcDbPolyline
 90
        8
 70
     1
 43
0.0
 10
217.0375
 20
-45.10000000000001
 10
230.6375
 20
-45.10000000000001
 42
0.4142135623730951
 10
231.1375
 20
-44.6
 10
231.1375
 20
-31.6
 42
0.4142135623730951
 10
230.6375
 20
-31.1
 10
217.0375
 20
-31.1
 42
0.4142123908030423
 10
216.5375
 20
-31.6
 10
216.5375
 20
-44.6
 42
0.4142123908030397
  0
LWPOLYLINE
  5
135
330
1F
100
AcDbEntity
  8
0
100
AcDbPolyline
 90
        8
 70
     1
 43
0.0
 10
230.825
 20
-25.55
 42
0.4142123908030423
 10
231.325
 20
-26.05
 10
244.925
 20
-26.05
 42
0.4142135623730951
 10
245.425
 20
-25.55
 10
245.425
 20
-12.55
 42
0.4142135623730951
 10
244.925
 20
-12.05
 10
231.325
 20
-12.05
 42
0.414212390803041
 10
230.825
 20
-12.55
  0
LWPOLYLINE
  5
136
330
1F
100
AcDbEntity
  8
0
100
AcDbPolyline
 90
        8
 70
     1
 43
0.0
 10
221.8
 20
7.000000000000001
 42
0.4142123908030625
 10
221.3
 20
6.5
 10
221.3
 20
-6.5
 42
0.4142123908030625
 10
221.8
 20
-7.000000000000001
 10
235.4
 20
-7.000000000000001
 42
0.4142135623730951
 10
235.9
 20
-6.5
 10
235.9
 20
6.5
 42
0.4142135623730951
 10
235.4
 20
7.000000000000001
  0
LWPOLYLINE
  5
139
330
1F
100
AcDbEntity
  8
0
100
AcDbPolyline
 90
        8
 70
     1
 43
0.0
 10
111.7625
 20
-63.65000000000001
 42
0.4142123908030449
 10
112.2625
 20
-64.14999999999999
 10
125.8625
 20
-64.14999999999999
 42
0.4142135623730951
 10
126.3625
 20
-63.65000000000001
 10
126.3625
 20
-50.65000000000001
 42
0.4142135623730951
 10
125.8625
 20
-50.15000000000001
 10
112.2625
 20
-50.15000000000001
 42
0.4142123908030397
 10
111.7625
 20
-50.65000000000001
  0
LWPOLYLINE
  5
140
330
1F
100
AcDbEntity
  8
0
100
AcDbPolyline
 90
        8
 70
     1
 43
0.0
 10
106.8125
 20
-64.14999999999999
 42
0.4142135623730951
 10
107.3125
 20
-63.65000000000001
 10
107.3125
 20
-50.65000000000001
 42
0.4142135623730951
 10
106.8125
 20
-50.15000000000001
 10
93.2125
 20
-50.15000000000001
 42
0.4142123908030501
 10
92.7125
 20
-50.65000000000001
 10
92.7125
 20
-63.65000000000001
 42
0.4142123908030554
 10
93.2125
 20
-64.14999999999999
  0
LWPOLYLINE
  5
141
330
1F
100
AcDbEntity
  8
0
100
AcDbPolyline
 90
        8
 70
     1
 43
0.0
 10
68.7125
 20
-50.15000000000001
 10
55.1125
 20
-50.15000000000001
 42
0.4142123908030449
 10
54.6125
 20
-50.65000000000001
 10
54.6125
 20
-63.65000000000001
 42
0.4142123908030501
 10
55.1125
 20
-64.14999999999999
 10
68.7125
 20
-64.14999999999999
 42
0.4142135623730951
 10
69.21249999999999
 20
-63.65000000000001
 10
69.21249999999999
 20
-50.65000000000001
 42
0.4142135623730951
  0
LWPOLYLINE
  5
142
330
1F
100
AcDbEntity
  8
0
100
AcDbPolyline
 90
        8
 70
     1
 43
0.0
 10
59.1875
 20
-31.1
 10
45.5875
 20
-31.1
 42
0.4142123908030476
 10
45.0875
 20
-31.6
 10
45.0875
 20
-44.6
 42
0.4142123908030449
 10
45.5875
 20
-45.10000000000001
 10
59.1875
 20
-45.10000000000001
 42
0.4142135623730951
 10
59.6875
 20
-44.6
 10
59.6875
 20
-31.6
 42
0.4142135623730951
  0
LWPOLYLINE
  5
143
330
1F
100
AcDbEntity
  8
0
100
AcDbPolyline
 90
        8
 70
     1
 43
0.0
 10
116.3375
 20
-45.10000000000001
 42
0.4142135623730951
 10
116.8375
 20
-44.6
 10
116.8375
 20
-31.6
 42
0.4142135623730951
 10
116.3375
 20
-31.1
 10
102.7375
 20
-31.1
 42
0.4142123908030423
 10
102.2375
 20
-31.6
 10
102.2375
 20
-44.6
 42
0.4142123908030397
 10
102.7375
 20
-45.10000000000001
  0
LWPOLYLINE
  5
145
330
1F
100
AcDbEntity
  8
0
100
AcDbPolyline
 90
        8
 70
     1
 43
0.0
 10
121.2875
 20
-44.6
 42
0.4142123908030397
 10
121.7875
 20
-45.10000000000001
 10
135.3875
 20
-45.10000000000001
 42
0.4142135623730951
 10
135.8875
 20
-44.6
 10
135.8875
 20
-31.6
 42
0.4142135623730951
 10
135.3875
 20
-31.1
 10
121.7875
 20
-31.1
 42
0.4142123908030423
 10
121.2875
 20
-31.6
  0
LWPOLYLINE
  5
146
330
1F
100
AcDbEntity
  8
0
100
AcDbPolyline
 90
        8
 70
     1
 43
0.0
 10
97.2875
 20
-45.10000000000001
 42
0.4142135623730951
 10
97.78750000000001
 20
-44.6
 10
97.78750000000001
 20
-31.6
 42
0.4142135623730951
 10
97.2875
 20
-31.1
 10
83.6875
 20
-31.1
 42
0.4142123908030632
 10
83.1875
 20
-31.6
 10
83.1875
 20
-44.6
 42
0.4142123908030605
 10
83.6875
 20
-45.10000000000001
  0
LWPOLYLINE
  5
148
330
1F
100
AcDbEntity
  8
0
100
AcDbPolyline
 90
        8
 70
     1
 43
0.0
 10
50.35
 20
-7.000000000000001
 10
63.95
 20
-7.000000000000001
 42
0.4142135623730951
 10
64.45
 20
-6.5
 10
64.45
 20
6.5
 42
0.4142135623730951
 10
63.95
 20
7.000000000000001
 10
50.35
 20
7.000000000000001
 42
0.4142123908030469
 10
49.85
 20
6.5
 10
49.85
 20
-6.5
 42
0.4142123908030469
  0
LWPOLYLINE
  5
149
330
1F
100
AcDbEntity
  8
0
100
AcDbPolyline
 90
        8
 70
     1
 43
0.0
 10
73.66249999999998
 20
-63.65000000000001
 42
0.4142123908030449
 10
74.16249999999998
 20
-64.14999999999999
 10
87.76250000000002
 20
-64.14999999999999
 42
0.4142135623730951
 10
88.2625
 20
-63.65000000000001
 10
88.2625
 20
-50.65000000000001
 42
0.4142135623730951
 10
87.76250000000002
 20
-50.15000000000001
 10
74.16249999999998
 20
-50.15000000000001
 42
0.4142123908030397
 10
73.66249999999998
 20
-50.65000000000001
  0
LWPOLYLINE
  5
150
330
1F
100
AcDbEntity
  8
0
100
AcDbPolyline
 90
        8
 70
     1
 43
0.0
 10
64.1375
 20
-31.6
 10
64.1375
 20
-44.6
 42
0.4142123908030501
 10
64.63750000000002
 20
-45.10000000000001
 10
78.23749999999998
 20
-45.10000000000001
 42
0.4142135623730951
 10
78.73749999999998
 20
-44.6
 10
78.73749999999998
 20
-31.6
 42
0.4142135623730951
 10
78.23749999999998
 20
-31.1
 10
64.63750000000002
 20
-31.1
 42
0.4142123908030527
  0
LWPOLYLINE
  5
151
330
1F
100
AcDbEntity
  8
0
100
AcDbPolyline
 90
        8
 70
     1
 43
0.0
 10
26.0375
 20
-31.6
 10
26.0375
 20
-44.6
 42
0.4142123908030501
 10
26.5375
 20
-45.10000000000001
 10
40.13750000000001
 20
-45.10000000000001
 42
0.4142135623730951
 10
40.6375
 20
-44.6
 10
40.6375
 20
-31.6
 42
0.4142135623730951
 10
40.13750000000001
 20
-31.1
 10
26.5375
 20
-31.1
 42
0.4142123908030527
  0
LWPOLYLINE
  5
152
330
1F
100
AcDbEntity
  8
0
100
AcDbPolyline
 90
        8
 70
     1
 43
0.0
 10
35.5625
 20
-50.65000000000001
 10
35.5625
 20
-63.65000000000001
 42
0.4142123908030527
 10
36.0625
 20
-64.14999999999999
 10
49.66250000000001
 20
-64.14999999999999
 42
0.4142135623730951
 10
50.1625
 20
-63.65000000000001
 10
50.1625
 20
-50.65000000000001
 42
0.4142135623730951
 10
49.66250000000001
 20
-50.15000000000001
 10
36.0625
 20
-50.15000000000001
 42
0.4142123908030476
  0
LWPOLYLINE
  5
154
330
1F
100
AcDbEntity
  8
0
100
AcDbPolyline
 90
        8
 70
     1
 43
0.0
 10
14.44375
 20
-44.6
 10
14.44375
 20
-31.6
 42
0.4142135623730951
 10
13.94375
 20
-31.1
 10
-4.418754
 20
-31.1
 42
0.4142123908030488
 10
-4.918754
 20
-31.6
 10
-4.918754
 20
-44.6
 42
0.4142123908030463
 10
-4.418754
 20
-45.10000000000001
 10
13.94375
 20
-45.10000000000001
 42
0.4142135623730951
  0
LWPOLYLINE
  5
155
330
1F
100
AcDbEntity
  8
0
100
AcDbPolyline
 90
        8
 70
     1
 43
0.0
 10
97.975
 20
-26.05
 10
111.575
 20
-26.05
 42
0.4142135623730951
 10
112.075
 20
-25.55
 10
112.075
 20
-12.55
 42
0.4142135623730951
 10
111.575
 20
-12.05
 10
97.975
 20
-12.05
 42
0.414212390803041
 10
97.47500000000001
 20
-12.55
 10
97.47500000000001
 20
-25.55
 42
0.4142123908030423
  0
LWPOLYLINE
  5
156
330
1F
100
AcDbEntity
  8
0
100
AcDbPolyline
 90
        8
 70
     1
 43
0.0
 10
102.05
 20
7.000000000000001
 10
88.45
 20
7.000000000000001
 42
0.4142123908030521
 10
87.95
 20
6.5
 10
87.95
 20
-6.5
 42
0.4142123908030521
 10
88.45
 20
-7.000000000000001
 10
102.05
 20
-7.000000000000001
 42
0.4142135623730951
 10
102.55
 20
-6.5
 10
102.55
 20
6.5
 42
0.4142135623730951
  0
LWPOLYLINE
  5
157
330
1F
100
AcDbEntity
  8
0
100
AcDbPolyline
 90
        8
 70
     1
 43
0.0
 10
117.025
 20
-26.05
 10
130.625
 20
-26.05
 42
0.4142135623730951
 10
131.125
 20
-25.55
 10
131.125
 20
-12.55
 42
0.4142135623730951
 10
130.625
 20
-12.05
 10
117.025
 20
-12.05
 42
0.414212390803041
 10
116.525
 20
-12.55
 10
116.525
 20
-25.55
 42
0.4142123908030423
  0
LWPOLYLINE
  5
159
330
1F
100
AcDbEntity
  8
0
100
AcDbPolyline
 90
        8
 70
     1
 43
0.0
 10
54.425
 20
-26.05
 42
0.4142135623730951
 10
54.925
 20
-25.55
 10
54.925
 20
-12.55
 42
0.4142135623730951
 10
54.425
 20
-12.05
 10
40.825
 20
-12.05
 42
0.4142123908030514
 10
40.325
 20
-12.55
 10
40.325
 20
-25.55
 42
0.4142123908030527
 10
40.825
 20
-26.05
  0
LWPOLYLINE
  5
160
330
1F
100
AcDbEntity
  8
0
100
AcDbPolyline
 90
        8
 70
     1
 43
0.0
 10
35.375
 20
-26.05
 42
0.4142135623730951
 10
35.875
 20
-25.55
 10
35.875
 20
-12.55
 42
0.4142135623730951
 10
35.375
 20
-12.05
 10
21.775
 20
-12.05
 42
0.4142123908030463
 10
21.275
 20
-12.55
 10
21.275
 20
-25.55
 42
0.4142123908030476
 10
21.775
 20
-26.05
  0
LWPOLYLINE
  5
161
330
1F
100
AcDbEntity
  8
0
100
AcDbPolyline
 90
        8
 70
     1
 43
0.0
 10
73.97499999999998
 20
-12.55
 42
0.4142135623730951
 10
73.47499999999998
 20
-12.05
 10
59.87500000000001
 20
-12.05
 42
0.4142123908030514
 10
59.375
 20
-12.55
 10
59.375
 20
-25.55
 42
0.4142123908030527
 10
59.87500000000001
 20
-26.05
 10
73.47499999999998
 20
-26.05
 42
0.4142135623730951
 10
73.97499999999998
 20
-25.55
  0
LWPOLYLINE
  5
162
330
1F
100
AcDbEntity
  8
0
100
AcDbPolyline
 90
        8
 70
     1
 43
0.0
 10
78.42499999999998
 20
-12.55
 10
78.42499999999998
 20
-25.55
 42
0.4142123908030476
 10
78.92499999999998
 20
-26.05
 10
92.525
 20
-26.05
 42
0.4142135623730951
 10
93.025
 20
-25.55
 10
93.025
 20
-12.55
 42
0.4142135623730951
 10
92.525
 20
-12.05
 10
78.92499999999998
 20
-12.05
 42
0.4142123908030463
  0
LWPOLYLINE
  5
163
330
1F
100
AcDbEntity
  8
0
100
AcDbPolyline
 90
        8
 70
     1
 43
0.0
 10
121.1
 20
-7.000000000000001
 42
0.4142135623730951
 10
121.6
 20
-6.5
 10
121.6
 20
6.5
 42
0.4142135623730951
 10
121.1
 20
7.000000000000001
 10
107.5
 20
7.000000000000001
 42
0.4142123908030417
 10
107.0
 20
6.5
 10
107.0
 20
-6.5
 42
0.4142123908030417
 10
107.5
 20
-7.000000000000001
  0
LWPOLYLINE
  5
164
330
1F
100
AcDbEntity
  8
0
100
AcDbPolyline
 90
        8
 70
     1
 43
0.0
 10
45.4
 20
6.5
 42
0.4142135623730951
 10
44.90000000000001
 20
7.000000000000001
 10
31.3
 20
7.000000000000001
 42
0.4142123908030495
 10
30.8
 20
6.5
 10
30.8
 20
-6.5
 42
0.4142123908030495
 10
31.3
 20
-7.000000000000001
 10
44.90000000000001
 20
-7.000000000000001
 42
0.4142135623730951
 10
45.4
 20
-6.5
  0
LWPOLYLINE
  5
165
330
1F
100
AcDbEntity
  8
0
100
AcDbPolyline
 90
        8
 70
     1
 43
0.0
 10
25.85
 20
-7.000000000000001
 42
0.4142135623730951
 10
26.35
 20
-6.5
 10
26.35
 20
6.5
 42
0.4142135623730951
 10
25.85
 20
7.000000000000001
 10
12.25
 20
7.000000000000001
 42
0.4142123908030495
 10
11.75
 20
6.5
 10
11.75
 20
-6.5
 42
0.4142123908030495
 10
12.25
 20
-7.000000000000001
  0
LWPOLYLINE
  5
168
330
1F
100
AcDbEntity
  8
0
100
AcDbPolyline
 90
        8
 70
     1
 43
0.0
 10
69.39999999999999
 20
7.000000000000001
 42
0.4142123908030417
 10
68.89999999999999
 20
6.5
 10
68.89999999999999
 20
-6.5
 42
0.4142123908030417
 10
69.39999999999999
 20
-7.000000000000001
 10
83.0
 20
-7.000000000000001
 42
0.4142135623730951
 10
83.5
 20
-6.5
 10
83.5
 20
6.5
 42
0.4142135623730951
 10
83.0
 20
7.000000000000001
  0
LWPOLYLINE
  5
171
330
1F
100
AcDbEntity
  8
0
100
AcDbPolyline
 90
        8
 70
     1
 43
0.0
 10
12.0625
 20
-25.55
 10
12.0625
 20
-12.55
 42
0.4142123908030488
 10
11.5625
 20
-12.05
 10
-2.037500000000001
 20
-12.05
 42
0.4142135623730945
 10
-2.537500000000001
 20
-12.55
 10
-2.537500000000001
 20
-25.55
 42
0.4142135623730951
 10
-2.0375
 20
-26.05
 10
11.5625
 20
-26.05
 42
0.4142123908030501
  0
LINE
  5
172
330
1F
100
AcDbEntity
  8
0
100
AcDbLine
 10
12.0625
 20
-25.55
 30
0.0
 11
12.0625
 21
-12.55
 31
0.0
  0
LWPOLYLINE
  5
173
330
1F
100
AcDbEntity
  8
0
100
AcDbPolyline
 90
        8
 70
     1
 43
0.0
 10
7.3
 20
-6.5
 10
7.3
 20
6.5
 42
0.4142135623730951
 10
6.800000000000001
 20
7.000000000000001
 10
-6.800000000000001
 20
7.000000000000001
 42
0.4142123908030482
 10
-7.3
 20
6.5
 10
-7.3
 20
-6.5
 42
0.4142123908030482
 10
-6.800000000000001
 20
-7.000000000000001
 10
6.800000000000001
 20
-7.000000000000001
 42
0.4142135623730951
  0
LWPOLYLINE
  5
10061
330
1F
100
AcDbEntity
  8
0
100
AcDbPolyline
 90
        8
 70
     1
 43
0.0
 10
259.4
 20
6.5
 10
259.4
 20
-6.5
 42
0.4142123908030417
 10
259.9
 20
-7.000000000000001
 10
273.5
 20
-7.000000000000001
 42
0.4142135623730951
 10
274.0
 20
-6.5
 10
274.0
 20
6.5
 42
0.4142135623730951
 10
273.5
 20
7.000000000000001
 10
259.9
 20
7.000000000000001
 42
0.4142123908030417
  0
LWPOLYLINE
  5
10062
330
1F
100
AcDbEntity
  8
0
100
AcDbPolyline
 90
        8
 70
     1
 43
0.0
 10
240.35
 20
6.5
 10
240.35
 20
-6.5
 42
0.4142123908030417
 10
240.85
 20
-7.000000000000001
 10
254.45
 20
-7.000000000000001
 42
0.4142135623730951
 10
254.95
 20
-6.5
 10
254.95
 20
6.5
 42
0.4142135623730951
 10
254.45
 20
7.000000000000001
 10
240.85
 20
7.000000000000001
 42
0.4142123908030417
  0
LWPOLYLINE
  5
10065
330
1F
100
AcDbEntity
  8
0
100
AcDbPolyline
 90
        8
 70
     1
 43
0.0
 10
-4.09375
 20
-50.675
 10
-4.09375
 20
-62.393
 10
-1.09375
 20
-64.125
 10
24.90625
 20
-64.125
 10
27.90625
 20
-62.393
 10
27.90625
 20
-50.675
 42
0.4142135623730951
 10
27.40625
 20
-50.175
 10
-3.59375
 20
-50.175
 42
0.4142123908030466
  0
LWPOLYLINE
  5
10066
330
1F
100
AcDbEntity
  8
0
100
AcDbPolyline
 90
        8
 70
     1
 43
0.0
 10
252.257046
 20
-50.65000000000001
 10
252.257046
 20
-63.65000000000001
 42
0.4142123908030241
 10
252.757046
 20
-64.14999999999999
 10
266.357046
 20
-64.14999999999999
 42
0.4142135623730951
 10
266.857046
 20
-63.65000000000001
 10
266.857046
 20
-50.65000000000001
 42
0.4142135623730951
 10
266.357046
 20
-50.15000000000001
 10
252.757046
 20
-50.15000000000001
 42
0.4142123908030189
  0
LWPOLYLINE
  5
10067
330
1F
100
AcDbEntity
  8
0
100
AcDbPolyline
 90
        8
 70
     1
 43
0.0
 10
226.065834
 20
-50.65004800000001
 10
226.065834
 20
-63.65004800000001
 42
0.4142123908030554
 10
226.565834
 20
-64.150048
 10
240.165834
 20
-64.150048
 42
0.4142135623730951
 10
240.665834
 20
-63.65004800000001
 10
240.665834
 20
-50.65004800000001
 42
0.4142135623730951
 10
240.165834
 20
-50.150048
 10
226.565834
 20
-50.150048
 42
0.4142123908030605
  0
LWPOLYLINE
  5
1006A
330
1F
100
AcDbEntity
  8
0
100
AcDbPolyline
 90
        8
 70
     1
 43
0.0
 10
235.59375
 20
-31.6
 10
235.59375
 20
-44.6
 42
0.4142123908030397
 10
236.09375
 20
-45.10000000000001
 10
249.69375
 20
-45.10000000000001
 42
0.4142135623730951
 10
250.19375
 20
-44.6
 10
250.19375
 20
-31.6
 42
0.4142135623730951
 10
249.69375
 20
-31.1
 10
236.09375
 20
-31.1
 42
0.4142123908030423
  0
LWPOLYLINE
  5
1006B
330
1F
100
AcDbEntity
  8
0
100
AcDbPolyline
 90
        8
 70
     1
 43
0.0
 10
257.34375
 20
-44.075
 10
257.34375
 20
-13.075
 42
-0.4142135623730951
 10
257.84375
 20
-12.575
 10
269.56175
 20
-12.575
 10
271.29375
 20
-15.575
 10
271.29375
 20
-41.575
 10
269.56175
 20
-44.575
 10
257.84375
 20
-44.57500000000002
 42
-0.4142123908030397
  0
LWPOLYLINE
  5
1006C
330
1F
100
AcDbEntity
  8
0
100
AcDbPolyline
 90
        8
 70
     1
 43
0.0
 10
21.775
 20
-83.1975
 10
35.375
 20
-83.1975
 42
0.4142135623730951
 10
35.875
 20
-82.6975
 10
35.875
 20
-69.69749999999999
 42
0.4142135623730951
 10
35.375
 20
-69.1975
 10
21.775
 20
-69.1975
 42
0.4142123908030293
 10
21.275
 20
-69.69749999999999
 10
21.275
 20
-82.6975
 42
0.4142123908030501
  0
LWPOLYLINE
  5
1006D
330
1F
100
AcDbEntity
  8
0
100
AcDbPolyline
 90
        8
 70
     1
 43
0.0
 10
126.05
 20
-69.69749999999999
 10
126.05
 20
-82.6975
 42
0.4142123908030554
 10
126.55
 20
-83.1975
 10
140.15
 20
-83.1975
 42
0.4142135623730951
 10
140.65
 20
-82.6975
 10
140.65
 20
-69.69749999999999
 42
0.4142135623730951
 10
140.15
 20
-69.1975
 10
126.55
 20
-69.1975
 42
0.4142123908030345
  0
LWPOLYLINE
  5
1006E
330
1F
100
AcDbEntity
  8
0
100
AcDbPolyline
 90
        8
 70
     1
 43
0.0
 10
45.0875
 20
-82.6975
 42
0.4142123908030501
 10
45.5875
 20
-83.1975
 10
59.18749999999999
 20
-83.1975
 42
0.4142135623730951
 10
59.6875
 20
-82.6975
 10
59.6875
 20
-69.69749999999999
 42
0.4142135623730951
 10
59.18749999999999
 20
-69.1975
 10
45.5875
 20
-69.1975
 42
0.4142123908030293
 10
45.0875
 20
-69.69749999999999
  0
LWPOLYLINE
  5
1006F
330
1F
100
AcDbEntity
  8
0
100
AcDbPolyline
 90
        8
 70
     1
 43
0.0
 10
196.8
 20
-83.14750000000001
 10
184.2
 20
-83.14750000000005
 42
-0.4142135623730951
 10
183.7
 20
-82.64750000000001
 10
183.7
 20
-69.7475
 42
-0.4142135623731054
 10
184.2
 20
-69.24750000000002
 10
196.8
 20
-69.24749999999997
 42
-0.4142135623730951
 10
197.3
 20
-69.74749999999999
 10
197.3
 20
-82.6475
 42
-0.4142135623731054
  0
LWPOLYLINE
  5
10071
330
1F
100
AcDbEntity
  8
0
100
AcDbPolyline
 90
        8
 70
     1
 43
0.0
 10
207.0124999999999
 20
-69.69749999999999
 10
207.0124999999999
 20
-82.6975
 42
0.4142123908030241
 10
207.5125
 20
-83.1975
 10
221.1125
 20
-83.1975
 42
0.4142135623730951
 10
221.6125000000001
 20
-82.6975
 10
221.6125000000001
 20
-69.69749999999999
 42
0.4142135623730951
 10
221.1125
 20
-69.1975
 10
207.5125
 20
-69.1975
 42
0.4142123908030033
  0
LWPOLYLINE
  5
10072
330
1F
100
AcDbEntity
  8
0
100
AcDbPolyline
 90
        8
 70
     1
 43
0.0
 10
82.49340000000001
 20
-83.14750000000001
 42
0.4142123908030554
 10
82.99340000000001
 20
-82.6475
 10
82.99340000000001
 20
-69.74749999999999
 42
0.4142123908030345
 10
82.49340000000001
 20
-69.24750000000002
 10
69.89340000000001
 20
-69.24750000000002
 42
0.4142123908030449
 10
69.39339999999999
 20
-69.7475
 10
69.39339999999999
 20
-82.64750000000001
 42
0.4142123908030397
 10
69.8934
 20
-83.14750000000001
  0
LWPOLYLINE
  5
10073
330
1F
100
AcDbEntity
  8
0
100
AcDbPolyline
 90
        8
 70
     1
 43
0.0
 10
245.425
 20
-82.6975
 10
245.425
 20
-69.69749999999999
 42
0.4142135623730951
 10
244.925
 20
-69.1975
 10
231.325
 20
-69.1975
 42
0.4142123908030033
 10
230.825
 20
-69.69749999999999
 10
230.825
 20
-82.6975
 42
0.4142123908030241
 10
231.325
 20
-83.1975
 10
244.925
 20
-83.1975
 42
0.4142135623730951
  0
CIRCLE
  5
10080
330
1F
100
AcDbEntity
  8
0
100
AcDbCircle
 10
185.7375
 20
-57.15
 30
0.0
 40
1.325
  0
CIRCLE
  5
10081
330
1F
100
AcDbEntity
  8
0
100
AcDbCircle
 10
185.7375
 20
-57.15
 30
0.0
 40
1.775
  0
CIRCLE
  5
10082
330
1F
100
AcDbEntity
  8
0
100
AcDbCircle
 10
171.45
 20
-19.05
 30
0.0
 40
1.325
  0
CIRCLE
  5
10083
330
1F
100
AcDbEntity
  8
0
100
AcDbCircle
 10
171.45
 20
-19.05
 30
0.0
 40
1.775
  0
CIRCLE
  5
10084
330
1F
100
AcDbEntity
  8
0
100
AcDbCircle
 10
142.875
 20
0.0
 30
0.0
 40
1.325
  0
CIRCLE
  5
10085
330
1F
100
AcDbEntity
  8
0
100
AcDbCircle
 10
142.875
 20
0.0
 30
0.0
 40
1.775
  0
CIRCLE
  5
10086
330
1F
100
AcDbEntity
  8
0
100
AcDbCircle
 10
250.9012
 20
-18.7
 30
0.0
 40
1.325
  0
CIRCLE
  5
10087
330
1F
100
AcDbEntity
  8
0
100
AcDbCircle
 10
250.9012
 20
-18.7
 30
0.0
 40
1.775
  0
CIRCLE
  5
10088
330
1F
100
AcDbEntity
  8
0
100
AcDbCircle
 10
250.9012
 20
-18.7
 30
0.0
 40
1.325
  0
CIRCLE
  5
10089
330
1F
100
AcDbEntity
  8
0
100
AcDbCircle
 10
250.9012
 20
-18.7
 30
0.0
 40
1.775
  0
CIRCLE
  5
1008A
330
1F
100
AcDbEntity
  8
0
100
AcDbCircle
 10
119.0625
 20
-38.1
 30
0.0
 40
1.325
  0
CIRCLE
  5
1008B
330
1F
100
AcDbEntity
  8
0
100
AcDbCircle
 10
119.0625
 20
-38.1
 30
0.0
 40
1.775
  0
CIRCLE
  5
1008C
330
1F
100
AcDbEntity
  8
0
100
AcDbCircle
 10
119.0625
 20
-38.1
 30
0.0
 40
1.325
  0
CIRCLE
  5
1008D
330
1F
100
AcDbEntity
  8
0
100
AcDbCircle
 10
119.0625
 20
-38.1
 30
0.0
 40
1.775
  0
CIRCLE
  5
1008E
330
1F
100
AcDbEntity
  8
0
100
AcDbCircle
 10
90.4875
 20
-57.15
 30
0.0
 40
1.325
  0
CIRCLE
  5
1008F
330
1F
100
AcDbEntity
  8
0
100
AcDbCircle
 10
90.4875
 20
-57.15
 30
0.0
 40
1.775
  0
CIRCLE
  5
10090
330
1F
100
AcDbEntity
  8
0
100
AcDbCircle
 10
42.8625
 20
-38.10000000000001
 30
0.0
 40
1.325
  0
CIRCLE
  5
10091
330
1F
100
AcDbEntity
  8
0
100
AcDbCircle
 10
42.8625
 20
-38.10000000000001
 30
0.0
 40
1.775
  0
CIRCLE
  5
10092
330
1F
100
AcDbEntity
  8
0
100
AcDbCircle
 10
95.25
 20
-19.05
 30
0.0
 40
1.325
  0
CIRCLE
  5
10093
330
1F
100
AcDbEntity
  8
0
100
AcDbCircle
 10
95.25
 20
-19.05
 30
0.0
 40
1.775
  0
CIRCLE
  5
10094
330
1F
100
AcDbEntity
  8
0
100
AcDbCircle
 10
28.575
 20
0.0
 30
0.0
 40
1.325
  0
CIRCLE
  5
10095
330
1F
100
AcDbEntity
  8
0
100
AcDbCircle
 10
28.575
 20
0.0
 30
0.0
 40
1.775
  0
CIRCLE
  5
10096
330
1F
100
AcDbEntity
  8
0
100
AcDbCircle
 10
66.67500000000001
 20
0.0
 30
0.0
 40
1.325
  0
CIRCLE
  5
10097
330
1F
100
AcDbEntity
  8
0
100
AcDbCircle
 10
66.67500000000001
 20
0.0
 30
0.0
 40
1.775
  0
CIRCLE
  5
10098
330
1F
100
AcDbEntity
  8
0
100
AcDbCircle
 10
16.04875
 20
-18.7
 30
0.0
 40
1.325
  0
CIRCLE
  5
10099
330
1F
100
AcDbEntity
  8
0
100
AcDbCircle
 10
16.04875
 20
-18.7
 30
0.0
 40
1.775
  0
CIRCLE
  5
1009A
330
1F
100
AcDbEntity
  8
0
100
AcDbCircle
 10
-7.14375
 20
-38.10000000000001
 30
0.0
 40
1.325
  0
CIRCLE
  5
1009B
330
1F
100
AcDbEntity
  8
0
100
AcDbCircle
 10
-7.14375
 20
-38.10000000000001
 30
0.0
 40
1.775
  0
CIRCLE
  5
1009C
330
1F
100
AcDbEntity
  8
0
100
AcDbCircle
 10
16.04875
 20
-18.7
 30
0.0
 40
1.325
  0
CIRCLE
  5
1009D
330
1F
100
AcDbEntity
  8
0
100
AcDbCircle
 10
16.04875
 20
-18.7
 30
0.0
 40
1.775
  0
CIRCLE
  5
1009E
330
1F
100
AcDbEntity
  8
0
100
AcDbCircle
 10
238.125
 20
0.0
 30
0.0
 40
1.325
  0
CIRCLE
  5
1009F
330
1F
100
AcDbEntity
  8
0
100
AcDbCircle
 10
238.125
 20
0.0
 30
0.0
 40
1.775
  0
CIRCLE
  5
100A0
330
1F
100
AcDbEntity
  8
0
100
AcDbCircle
 10
33.33750000000001
 20
-57.15
 30
0.0
 40
1.325
  0
CIRCLE
  5
100A1
330
1F
100
AcDbEntity
  8
0
100
AcDbCircle
 10
33.33750000000001
 20
-57.15
 30
0.0
 40
1.775
  0
CIRCLE
  5
100A2
330
1F
100
AcDbEntity
  8
0
100
AcDbCircle
 10
-4.49375
 20
-64.35
 30
0.0
 40
1.325
  0
CIRCLE
  5
100A3
330
1F
100
AcDbEntity
  8
0
100
AcDbCircle
 10
-4.49375
 20
-64.35
 30
0.0
 40
1.775
  0
CIRCLE
  5
100A4
330
1F
100
AcDbEntity
  8
0
100
AcDbCircle
 10
233.3625
 20
-38.10000000000001
 30
0.0
 40
1.325
  0
CIRCLE
  5
100A5
330
1F
100
AcDbEntity
  8
0
100
AcDbCircle
 10
233.3625
 20
-38.10000000000001
 30
0.0
 40
1.775
  0
CIRCLE
  5
100A6
330
1F
100
AcDbEntity
  8
0
100
AcDbCircle
 10
271.5187500000001
 20
-12.175
 30
0.0
 40
1.325
  0
CIRCLE
  5
100A7
330
1F
100
AcDbEntity
  8
0
100
AcDbCircle
 10
271.5187500000001
 20
-12.175
 30
0.0
 40
1.775
  0
CIRCLE
  5
100A8
330
1F
100
AcDbEntity
  8
0
100
AcDbCircle
 10
204.7875
 20
-76.19750000000002
 30
0.0
 40
1.325
  0
CIRCLE
  5
100A9
330
1F
100
AcDbEntity
  8
0
100
AcDbCircle
 10
204.7875
 20
-76.19750000000002
 30
0.0
 40
1.775
  0
CIRCLE
  5
100AA
330
1F
100
AcDbEntity
  8
0
100
AcDbCircle
 10
15.478125
 20
-76.19750000000002
 30
0.0
 40
1.325
  0
CIRCLE
  5
100AB
330
1F
100
AcDbEntity
  8
0
100
AcDbCircle
 10
15.478125
 20
-76.19750000000002
 30
0.0
 40
1.775
  0
CIRCLE
  5
100AC
330
1F
100
AcDbEntity
  8
0
100
AcDbCircle
 10
61.9125
 20
-76.19750000000002
 30
0.0
 40
1.325
  0
CIRCLE
  5
100AD
330
1F
100
AcDbEntity
  8
0
100
AcDbCircle
 10
61.9125
 20
-76.19750000000002
 30
0.0
 40
1.775
  0
CIRCLE
  5
100AE
330
1F
100
AcDbEntity
  8
0
100
AcDbCircle
 10
39.290625
 20
-76.19750000000002
 30
0.0
 40
1.325
  0
CIRCLE
  5
100AF
330
1F
100
AcDbEntity
  8
0
100
AcDbCircle
 10
39.290625
 20
-76.19750000000002
 30
0.0
 40
1.775
  0
CIRCLE
  5
100B0
330
1F
100
AcDbEntity
  8
0
100
AcDbCircle
 10
104.775
 20
-76.19750000000002
 30
0.0
 40
1.325
  0
CIRCLE
  5
100B1
330
1F
100
AcDbEntity
  8
0
100
AcDbCircle
 10
104.775
 20
-76.19750000000002
 30
0.0
 40
1.775
  0
CIRCLE
  5
100B2
330
1F
100
AcDbEntity
  8
0
100
AcDbCircle
 10
228.6
 20
-76.19750000000002
 30
0.0
 40
1.325
  0
CIRCLE
  5
100B3
330
1F
100
AcDbEntity
  8
0
100
AcDbCircle
 10
228.6
 20
-76.19750000000002
 30
0.0
 40
1.775
  0
CIRCLE
  5
100B4
330
1F
100
AcDbEntity
  8
0
100
AcDbCircle
 10
251.221875
 20
-76.19750000000002
 30
0.0
 40
1.325
  0
CIRCLE
  5
100B5
330
1F
100
AcDbEntity
  8
0
100
AcDbCircle
 10
251.221875
 20
-76.19750000000002
 30
0.0
 40
1.775
  0
CIRCLE
  5
100B6
330
1F
100
AcDbEntity
  8
0
100
AcDbCircle
 10
171.45
 20
-76.19750000000002
 30
0.0
 40
1.325
  0
CIRCLE
  5
100B7
330
1F
100
AcDbEntity
  8
0
100
AcDbCircle
 10
171.45
 20
-76.19750000000002
 30
0.0
 40
1.775
  0
CIRCLE
  5
100B8
330
1F
100
AcDbEntity
  8
0
100
AcDbCircle
 10
142.875
 20
-76.19750000000002
 30
0.0
 40
1.325
  0
CIRCLE
  5
100B9
330
1F
100
AcDbEntity
  8
0
100
AcDbCircle
 10
142.875
 20
-76.19750000000002
 30
0.0
 40
1.775
  0
ENDSEC
  0
SECTION
  2
OBJECTS
  0
DICTIONARY
  5
C
330
0
100
AcDbDictionary
281
     1
  3
ACAD_COLOR
350
1005E
  3
ACAD_DETAILVIEWSTYLE
350
10044
  3
ACAD_GROUP
350
D
  3
ACAD_LAYOUT
350
10018
  3
ACAD_MATERIAL
350
1001B
  3
ACAD_MLEADERSTYLE
350
1003A
  3
ACAD_MLINESTYLE
350
17
  3
ACAD_PLOTSETTINGS
350
10003
  3
ACAD_PLOTSTYLENAME
350
10004
  3
ACAD_SCALELIST
350
10006
  3
ACAD_SECTIONVIEWSTYLE
350
10045
  3
ACAD_TABLESTYLE
350
10038
  3
ACAD_VISUALSTYLE
350
1001F
  3
AcDbVariableDictionary
350
1003C
  3
ACDB_RECOMPOSE_DATA
350
100BC
  3
EZDXF_META
350
1007E
  0
DICTIONARY
  5
1005E
330
C
100
AcDbDictionary
281
     1
  0
DICTIONARY
  5
10044
102
{ACAD_REACTORS
330
C
102
}
330
C
100
AcDbDictionary
281
     1
  0
DICTIONARY
  5
D
330
C
100
AcDbDictionary
281
     1
  0
DICTIONARY
  5
10018
102
{ACAD_REACTORS
330
C
102
}
330
C
100
AcDbDictionary
281
     1
  3
Layout1
350
1001A
  3
Model
350
10019
  0
DICTIONARY
  5
1001B
102
{ACAD_REACTORS
330
C
102
}
330
C
100
AcDbDictionary
281
     1
  3
ByBlock
350
1001D
  3
ByLayer
350
1001C
  3
Global
350
1001E
  0
DICTIONARY
  5
1003A
102
{ACAD_REACTORS
330
C
102
}
330
C
100
AcDbDictionary
281
     1
  3
Standard
350
1003B
  0
DICTIONARY
  5
17
330
C
100
AcDbDictionary
281
     1
  3
Standard
350
10002
  0
DICTIONARY
  5
10003
102
{ACAD_REACTORS
330
C
102
}
330
C
100
AcDbDictionary
281
     1
  0
ACDBDICTIONARYWDFLT
  5
10004
102
{ACAD_REACTORS
330
C
102
}
330
C
100
AcDbDictionary
281
     1
  3
Normal
350
10005
100
AcDbDictionaryWithDefault
340
10005
  0
DICTIONARY
  5
10006
102
{ACAD_REACTORS
330
C
102
}
330
C
100
AcDbDictionary
281
     1
  3
A0
350
10007
  3
A1
350
10008
  3
A2
350
10009
  3
A3
350
1000A
  3
A4
350
1000B
  3
A5
350
1000C
  3
A6
350
1000D
  3
A7
350
1000E
  3
A8
350
1000F
  3
A9
350
10010
  3
B1
350
10011
  3
B2
350
10012
  3
B3
350
10013
  3
B4
350
10014
  3
B5
350
10015
  3
B6
350
10016
  3
B7
350
10017
  0
DICTIONARY
  5
10045
102
{ACAD_REACTORS
330
C
102
}
330
C
100
AcDbDictionary
281
     1
  0
DICTIONARY
  5
10038
102
{ACAD_REACTORS
330
C
102
}
330
C
100
AcDbDictionary
281
     1
  3
Standard
350
10039
  0
DICTIONARY
  5
1001F
102
{ACAD_REACTORS
330
C
102
}
330
C
100
AcDbDictionary
281
     1
  3
2dWireframe
350
10024
  3
Basic
350
10027
  3
Brighten
350
1002B
  3
ColorChange
350
1002F
  3
Conceptual
350
10029
  3
Dim
350
1002A
  3
EdgeColorOff
350
10032
  3
Facepattern
350
1002E
  3
Flat
350
10020
  3
FlatWithEdges
350
10021
  3
Gouraud
350
10022
  3
GouraudWithEdges
350
10023
  3
Hidden
350
10026
  3
JitterOff
350
10030
  3
Linepattern
350
1002D
  3
OverhangOff
350
10031
  3
Realistic
350
10028
  3
Shaded
350
10037
  3
Shaded with edges
350
10036
  3
Shades of Gray
350
10033
  3
Sketchy
350
10034
  3
Thicken
350
1002C
  3
Wireframe
350
10025
  3
X-Ray
350
10035
  0
DICTIONARY
  5
1003C
102
{ACAD_REACTORS
330
C
102
}
330
C
100
AcDbDictionary
281
     1
  3
CANNOSCALE
350
1003D
  3
CMLEADERSTYLE
350
10042
  3
CTABLESTYLE
350
10041
  3
MSLTSCALE
350
10043
  0
XRECORD
  5
100BC
102
{ACAD_REACTORS
330
C
102
}
330
C
100
AcDbXrecord
280
     1
 90
        1
330
10039
  0
DICTIONARY
  5
1007E
330
C
100
AcDbDictionary
281
     1
  3
WRITTEN_BY_EZDXF
350
1007F
  0
LAYOUT
  5
1001A
102
{ACAD_REACTORS
330
10018
102
}
330
10018
100
AcDbPlotSettings
  1

  2
none_device
  4

  6

 40
0.0
 41
0.0
 42
0.0
 43
0.0
 44
0.0
 45
0.0
 46
0.0
 47
0.0
 48
0.0
 49
0.0
140
0.0
141
0.0
142
1.0
143
1.0
 70
   688
 72
     0
 73
     0
 74
     5
  7

 75
    16
 76
     0
 77
     2
 78
   300
147
1.0
148
0.0
149
0.0
100
AcDbLayout
  1
Layout1
 70
     1
 71
     1
 10
0.0
 20
0.0
 11
12.0
 21
9.0
 12
0.0
 22
0.0
 32
0.0
 14
1.000000000000000E+20
 24
1.000000000000000E+20
 34
1.000000000000000E+20
 15
-1.000000000000000E+20
 25
-1.000000000000000E+20
 35
-1.000000000000000E+20
146
0.0
 13
0.0
 23
0.0
 33
0.0
 16
1.0
 26
0.0
 36
0.0
 17
0.0
 27
1.0
 37
0.0
 76
     0
330
1B
  0
LAYOUT
  5
10019
102
{ACAD_REACTORS
330
10018
102
}
330
10018
100
AcDbPlotSettings
  1

  2
none_device
  4
Letter_(8.50_x_11.00_Inches)
  6

 40
6.35
 41
6.35
 42
6.35000508
 43
6.35000508
 44
215.9
 45
279.4
 46
0.0
 47
0.0
 48
0.0
 49
0.0
140
0.0
141
0.0
142
1.0
143
2.219594649946486
 70
  1712
 72
     0
 73
     0
 74
     0
  7

 75
     0
 76
     0
 77
     2
 78
   300
147
0.4505327132700153
148
-39.40881537143161
149
0.0
100
AcDbLayout
  1
Model
 70
     1
 71
     0
 10
0.0
 20
0.0
 11
12.0
 21
9.0
 12
0.0
 22
0.0
 32
0.0
 14
1.000000000000000E+20
 24
1.000000000000000E+20
 34
1.000000000000000E+20
 15
-1.000000000000000E+20
 25
-1.000000000000000E+20
 35
-1.000000000000000E+20
146
0.0
 13
0.0
 23
0.0
 33
0.0
 16
1.0
 26
0.0
 36
0.0
 17
0.0
 27
1.0
 37
0.0
 76
     0
330
1F
331
10001
  0
MATERIAL
  5
1001D
102
{ACAD_REACTORS
330
1001B
102
}
330
1001B
100
AcDbMaterial
  1
ByBlock
 72
     1
273
     1
 94
      127
  0
MATERIAL
  5
1001C
102
{ACAD_REACTORS
330
1001B
102
}
330
1001B
100
AcDbMaterial
  1
ByLayer
 72
     1
273
     1
 94
      127
  0
MATERIAL
  5
1001E
102
{ACAD_REACTORS
330
1001B
102
}
330
1001B
100
AcDbMaterial
  1
Global
 72
     1
273
     1
 94
      127
  0
MLEADERSTYLE
  5
1003B
102
{ACAD_REACTORS
330
1003A
102
}
330
1003A
100
AcDbMLeaderStyle
179
     2
170
     2
171
     1
172
     0
 90
        2
 40
0.0
 41
0.0
173
     1
 91
-1056964608
340
14
 92
       -2
290
     1
 42
0.09
291
     1
 43
0.36
  3
Standard
341
0
 44
0.18
300

342
11
174
     1
178
     6
175
     1
176
     0
 93
-1056964608
 45
0.18
292
     0
297
     0
 46
0.18
343
0
 94
-1056964608
 47
1.0
 49
1.0
140
1.0
293
     1
141
0.0
294
     1
177
     0
142
1.0
295
     0
296
     0
143
0.125
271
     0
272
     9
273
     9
298
     0
  0
MLINESTYLE
  5
10002
102
{ACAD_REACTORS
330
17
102
}
330
17
100
AcDbMlineStyle
  2
Standard
 70
     0
  3

 62
   256
 51
90.0
 52
90.0
 71
     2
 49
0.5
 62
   256
  6
BYLAYER
 49
-0.5
 62
   256
  6
BYLAYER
  0
ACDBPLACEHOLDER
  5
10005
102
{ACAD_REACTORS
330
10004
102
}
330
10004
  0
SCALE
  5
10007
102
{ACAD_REACTORS
330
10006
102
}
330
10006
100
AcDbScale
 70
     0
300
1:1
140
1.0
141
1.0
290
     1
  0
SCALE
  5
10008
102
{ACAD_REACTORS
330
10006
102
}
330
10006
100
AcDbScale
 70
     0
300
1/128" = 1'-0"
140
0.0078125
141
12.0
290
     0
  0
SCALE
  5
10009
102
{ACAD_REACTORS
330
10006
102
}
330
10006
100
AcDbScale
 70
     0
300
1/64" = 1'-0"
140
0.015625
141
12.0
290
     0
  0
SCALE
  5
1000A
102
{ACAD_REACTORS
330
10006
102
}
330
10006
100
AcDbScale
 70
     0
300
1/32" = 1'-0"
140
0.03125
141
12.0
290
     0
  0
SCALE
  5
1000B
102
{ACAD_REACTORS
330
10006
102
}
330
10006
100
AcDbScale
 70
     0
300
1/16" = 1'-0"
140
0.0625
141
12.0
290
     0
  0
SCALE
  5
1000C
102
{ACAD_REACTORS
330
10006
102
}
330
10006
100
AcDbScale
 70
     0
300
3/32" = 1'-0"
140
0.09375
141
12.0
290
     0
  0
SCALE
  5
1000D
102
{ACAD_REACTORS
330
10006
102
}
330
10006
100
AcDbScale
 70
     0
300
1/8" = 1'-0"
140
0.125
141
12.0
290
     0
  0
SCALE
  5
1000E
102
{ACAD_REACTORS
330
10006
102
}
330
10006
100
AcDbScale
 70
     0
300
3/16" = 1'-0"
140
0.1875
141
12.0
290
     0
  0
SCALE
  5
1000F
102
{ACAD_REACTORS
330
10006
102
}
330
10006
100
AcDbScale
 70
     0
300
1/4" = 1'-0"
140
0.25
141
12.0
290
     0
  0
SCALE
  5
10010
102
{ACAD_REACTORS
330
10006
102
}
330
10006
100
AcDbScale
 70
     0
300
3/8" = 1'-0"
140
0.375
141
12.0
290
     0
  0
SCALE
  5
10011
102
{ACAD_REACTORS
330
10006
102
}
330
10006
100
AcDbScale
 70
     0
300
1/2" = 1'-0"
140
0.5
141
12.0
290
     0
  0
SCALE
  5
10012
102
{ACAD_REACTORS
330
10006
102
}
330
10006
100
AcDbScale
 70
     0
300
3/4" = 1'-0"
140
0.75
141
12.0
290
     0
  0
SCALE
  5
10013
102
{ACAD_REACTORS
330
10006
102
}
330
10006
100
AcDbScale
 70
     0
300
1" = 1'-0"
140
1.0
141
12.0
290
     0
  0
SCALE
  5
10014
102
{ACAD_REACTORS
330
10006
102
}
330
10006
100
AcDbScale
 70
     0
300
1-1/2" = 1'-0"
140
1.5
141
12.0
290
     0
  0
SCALE
  5
10015
102
{ACAD_REACTORS
330
10006
102
}
330
10006
100
AcDbScale
 70
     0
300
3" = 1'-0"
140
3.0
141
12.0
290
     0
  0
SCALE
  5
10016
102
{ACAD_REACTORS
330
10006
102
}
330
10006
100
AcDbScale
 70
     0
300
6" = 1'-0"
140
6.0
141
12.0
290
     0
  0
SCALE
  5
10017
102
{ACAD_REACTORS
330
10006
102
}
330
10006
100
AcDbScale
 70
     0
300
1'-0" = 1'-0"
140
12.0
141
12.0
290
     0
  0
TABLESTYLE
  5
10039
102
{ACAD_REACTORS
330
10038
102
}
102
{ACAD_XDICTIONARY
360
100BA
102
}
330
10038
100
AcDbTableStyle
  3
Standard
 70
     0
 71
     0
 40
0.06
 41
0.06
280
     0
281
     0
  7
STANDARD
140
0.18
170
     2
 62
     0
 63
   257
283
     0
 90
        4
 91
        0
  1

274
    -2
284
     1
 64
     0
275
    -2
285
     1
 65
     0
276
    -2
286
     1
 66
     0
277
    -2
287
     1
 67
     0
278
    -2
288
     1
 68
     0
279
    -2
289
     1
 69
     0
  7
STANDARD
140
0.25
170
     5
 62
     0
 63
   257
283
     0
 90
        4
 91
        0
  1

274
    -2
284
     1
 64
     0
275
    -2
285
     1
 65
     0
276
    -2
286
     1
 66
     0
277
    -2
287
     1
 67
     0
278
    -2
288
     1
 68
     0
279
    -2
289
     1
 69
     0
  7
STANDARD
140
0.18
170
     5
 62
     0
 63
   257
283
     0
 90
        4
 91
        0
  1

274
    -2
284
     1
 64
     0
275
    -2
285
     1
 65
     0
276
    -2
286
     1
 66
     0
277
    -2
287
     1
 67
     0
278
    -2
288
     1
 68
     0
279
    -2
289
     1
 69
     0
  0
VISUALSTYLE
  5
10024
102
{ACAD_REACTORS
330
1001F
102
}
330
1001F
100
AcDbVisualStyle
  2
2dWireframe
 70
     4
177
     3
291
     0
 70
    58
 90
        0
176
     1
 90
        2
176
     1
 90
        0
176
     1
 90
        0
176
     1
 40
0.6
176
     1
 40
30.0
176
     1
 62
     7
420
 16777215
176
     1
 90
        1
176
     1
 90
        4
176
     1
 62
     7
176
     1
 62
   257
176
     1
 90
        1
176
     1
 90
        1
176
     1
 40
1.0
176
     1
 90
        0
176
     1
 62
   257
176
     1
 40
1.0
176
     1
 90
        1
176
     1
 90
        6
176
     1
 90
        2
176
     1
 62
     7
176
     1
 90
        5
176
     1
 90
        0
176
     1
 90
        0
176
     1
290
     0
176
     1
 90
        1
176
     1
 40
0.0
176
     1
 90
        0
176
     1
290
     1
176
     1
290
     1
176
     1
290
     0
176
     1
290
     0
176
     1
290
     0
176
     1
290
     0
176
     1
290
     0
176
     1
290
     0
176
     1
290
     0
176
     1
 90
       50
176
     1
 40
0.0
176
     1
 40
1.0
176
     1
 90
        0
176
     1
 62
    18
420
        0
176
     1
 90
       50
176
     1
 90
        3
176
     1
 62
     5
420
      255
176
     1
290
     0
176
     1
 90
       50
176
     1
 90
       50
176
     1
 90
       50
176
     1
290
     0
176
     1
 90
       50
176
     1
 62
   256
176
     0
 40
1.0
176
     0
 90
        2
176
     1
  1
strokes_ogs.tif
176
     1
290
     0
176
     1
 40
1.0
176
     1
 40
1.0
176
     1
  0
VISUALSTYLE
  5
10027
102
{ACAD_REACTORS
330
1001F
102
}
330
1001F
100
AcDbVisualStyle
  2
Basic
 70
     7
177
     3
291
     1
 70
    58
 90
        1
176
     1
 90
        0
176
     1
 90
        1
176
     1
 90
        0
176
     1
 40
0.6
176
     1
 40
30.0
176
     1
 62
     7
420
 16777215
176
     1
 90
        0
176
     1
 90
        4
176
     1
 62
     7
176
     1
 62
   257
176
     1
 90
        1
176
     1
 90
        1
176
     1
 40
1.0
176
     1
 90
        8
176
     1
 62
     7
176
     1
 40
1.0
176
     1
 90
        1
176
     1
 90
        6
176
     1
 90
        2
176
     1
 62
     7
176
     1
 90
        5
176
     1
 90
        0
176
     1
 90
        0
176
     1
290
     0
176
     1
 90
        1
176
     1
 40
0.0
176
     1
 90
        0
176
     1
290
     0
176
     1
290
     1
176
     1
290
     1
176
     1
290
     0
176
     1
290
     0
176
     1
290
     0
176
     1
290
     0
176
     1
290
     0
176
     1
290
     0
176
     1
 90
       50
176
     1
 40
0.0
176
     1
 40
1.0
176
     1
 90
        0
176
     1
 62
    18
420
        0
176
     1
 90
       50
176
     1
 90
        3
176
     1
 62
     5
420
      255
176
     1
290
     0
176
     1
 90
       50
176
     1
 90
       50
176
     1
 90
       50
176
     1
290
     0
176
     1
 90
       50
176
     1
 62
   256
176
     0
 40
1.0
176
     0
 90
        2
176
     1
  1
strokes_ogs.tif
176
     1
290
     0
176
     1
 40
1.0
176
     1
 40
1.0
176
     1
  0
VISUALSTYLE
  5
1002B
102
{ACAD_REACTORS
330
1001F
102
}
330
1001F
100
AcDbVisualStyle
  2
Brighten
 70
    12
177
     3
291
     1
 70
    58
 90
        2
176
     1
 90
        2
176
     1
 90
        0
176
     1
 90
        0
176
     1
 40
0.6
176
     1
 40
30.0
176
     1
 62
     7
420
 16777215
176
     1
 90
        1
176
     1
 90
        4
176
     1
 62
     7
176
     1
 62
   257
176
     1
 90
        1
176
     1
 90
        1
176
     1
 40
1.0
176
     1
 90
        8
176
     1
 62
     7
176
     1
 40
1.0
176
     1
 90
        1
176
     1
 90
        6
176
     1
 90
        2
176
     1
 62
     7
176
     1
 90
        5
176
     1
 90
        0
176
     1
 90
        0
176
     1
290
     0
176
     1
 90
        1
176
     1
 40
50.0
176
     1
 90
        0
176
     1
290
     0
176
     1
290
     1
176
     1
290
     1
176
     1
290
     0
176
     1
290
     0
176
     1
290
     0
176
     1
290
     0
176
     1
290
     0
176
     1
290
     0
176
     1
 90
       50
176
     1
 40
0.0
176
     1
 40
1.0
176
     1
 90
        0
176
     1
 62
    18
420
        0
176
     1
 90
       50
176
     1
 90
        3
176
     1
 62
     5
420
      255
176
     1
290
     0
176
     1
 90
       50
176
     1
 90
       50
176
     1
 90
       50
176
     1
290
     0
176
     1
 90
       50
176
     1
 62
   256
176
     0
 40
1.0
176
     0
 90
        2
176
     1
  1
strokes_ogs.tif
176
     1
290
     0
176
     1
 40
1.0
176
     1
 40
1.0
176
     1
  0
VISUALSTYLE
  5
1002F
102
{ACAD_REACTORS
330
1001F
102
}
330
1001F
100
AcDbVisualStyle
  2
ColorChange
 70
    16
177
     3
291
     1
 70
    58
 90
        2
176
     1
 90
        2
176
     1
 90
        3
176
     1
 90
        0
176
     1
 40
0.6
176
     1
 40
30.0
176
     1
 62
     8
420
  8421504
176
     1
 90
        1
176
     1
 90
        4
176
     1
 62
     7
176
     1
 62
   257
176
     1
 90
        1
176
     1
 90
        1
176
     1
 40
1.0
176
     1
 90
        8
176
     1
 62
     8
420
  8421504
176
     1
 40
1.0
176
     1
 90
        1
176
     1
 90
        6
176
     1
 90
        2
176
     1
 62
     7
176
     1
 90
        5
176
     1
 90
        0
176
     1
 90
        0
176
     1
290
     0
176
     1
 90
        1
176
     1
 40
0.0
176
     1
 90
        0
176
     1
290
     0
176
     1
290
     1
176
     1
290
     1
176
     1
290
     0
176
     1
290
     0
176
     1
290
     0
176
     1
290
     0
176
     1
290
     0
176
     1
290
     0
176
     1
 90
       50
176
     1
 40
0.0
176
     1
 40
1.0
176
     1
 90
        0
176
     1
 62
    18
420
        0
176
     1
 90
       50
176
     1
 90
        3
176
     1
 62
     5
420
      255
176
     1
290
     0
176
     1
 90
       50
176
     1
 90
       50
176
     1
 90
       50
176
     1
290
     0
176
     1
 90
       50
176
     1
 62
   256
176
     0
 40
1.0
176
     0
 90
        2
176
     1
  1
strokes_ogs.tif
176
     1
290
     0
176
     1
 40
1.0
176
     1
 40
1.0
176
     1
  0
VISUALSTYLE
  5
10029
102
{ACAD_REACTORS
330
1001F
102
}
330
1001F
100
AcDbVisualStyle
  2
Conceptual
 70
     9
177
     3
291
     0
 70
    58
 90
        3
176
     1
 90
        2
176
     1
 90
        0
176
     1
 90
        0
176
     1
 40
0.6
176
     1
 40
30.0
176
     1
 62
     7
420
 16777215
176
     1
 90
        2
176
     1
 90
        2
176
     1
 62
     7
176
     1
 62
   257
176
     1
 90
        1
176
     1
 90
        1
176
     1
 40
179.0
176
     1
 90
        8
176
     1
 62
     7
176
     1
 40
1.0
176
     1
 90
        1
176
     1
 90
        6
176
     1
 90
        2
176
     1
 62
     7
176
     1
 90
        3
176
     1
 90
        0
176
     1
 90
        0
176
     1
290
     0
176
     1
 90
        1
176
     1
 40
0.0
176
     1
 90
        0
176
     1
290
     0
176
     1
290
     1
176
     1
290
     1
176
     1
290
     0
176
     1
290
     0
176
     1
290
     0
176
     1
290
     0
176
     1
290
     0
176
     1
290
     0
176
     1
 90
       50
176
     1
 40
0.0
176
     1
 40
1.0
176
     1
 90
        0
176
     1
 62
    18
420
        0
176
     1
 90
       50
176
     1
 90
        3
176
     1
 62
     5
420
      255
176
     1
290
     0
176
     1
 90
       50
176
     1
 90
       50
176
     1
 90
       50
176
     1
290
     0
176
     1
 90
       50
176
     1
 62
   256
176
     0
 40
1.0
176
     0
 90
        2
176
     1
  1
strokes_ogs.tif
176
     1
290
     0
176
     1
 40
1.0
176
     1
 40
1.0
176
     1
  0
VISUALSTYLE
  5
1002A
102
{ACAD_REACTORS
330
1001F
102
}
330
1001F
100
AcDbVisualStyle
  2
Dim
 70
    11
177
     3
291
     1
 70
    58
 90
        2
176
     1
 90
        2
176
     1
 90
        0
176
     1
 90
        0
176
     1
 40
0.6
176
     1
 40
30.0
176
     1
 62
     7
420
 16777215
176
     1
 90
        1
176
     1
 90
        4
176
     1
 62
     7
176
     1
 62
   257
176
     1
 90
        1
176
     1
 90
        1
176
     1
 40
1.0
176
     1
 90
        8
176
     1
 62
     7
176
     1
 40
1.0
176
     1
 90
        1
176
     1
 90
        6
176
     1
 90
        2
176
     1
 62
     7
176
     1
 90
        5
176
     1
 90
        0
176
     1
 90
        0
176
     1
290
     0
176
     1
 90
        1
176
     1
 40
-50.0
176
     1
 90
        0
176
     1
290
     0
176
     1
290
     1
176
     1
290
     1
176
     1
290
     0
176
     1
290
     0
176
     1
290
     0
176
     1
290
     0
176
     1
290
     0
176
     1
290
     0
176
     1
 90
       50
176
     1
 40
0.0
176
     1
 40
1.0
176
     1
 90
        0
176
     1
 62
    18
420
        0
176
     1
 90
       50
176
     1
 90
        3
176
     1
 62
     5
420
      255
176
     1
290
     0
176
     1
 90
       50
176
     1
 90
       50
176
     1
 90
       50
176
     1
290
     0
176
     1
 90
       50
176
     1
 62
   256
176
     0
 40
1.0
176
     0
 90
        2
176
     1
  1
strokes_ogs.tif
176
     1
290
     0
176
     1
 40
1.0
176
     1
 40
1.0
176
     1
  0
VISUALSTYLE
  5
10032
102
{ACAD_REACTORS
330
1001F
102
}
330
1001F
100
AcDbVisualStyle
  2
EdgeColorOff
 70
    22
177
     3
291
     1
 70
    58
 90
        2
176
     0
 90
        2
176
     0
 90
        0
176
     0
 90
        0
176
     0
 40
0.6
176
     0
 40
30.0
176
     0
 62
     7
420
 16777215
176
     0
 90
        1
176
     0
 90
        4
176
     0
 62
     7
176
     0
 62
   257
176
     0
 90
        1
176
     0
 90
        1
176
     0
 40
1.0
176
     0
 90
        8
176
     2
 62
     7
176
     0
 40
1.0
176
     0
 90
        1
176
     0
 90
        6
176
     0
 90
        2
176
     0
 62
     7
176
     0
 90
        5
176
     0
 90
        0
176
     0
 90
        0
176
     0
290
     0
176
     0
 90
        1
176
     0
 40
0.0
176
     0
 90
        0
176
     0
290
     0
176
     0
290
     1
176
     0
290
     1
176
     0
290
     0
176
     0
290
     0
176
     0
290
     0
176
     0
290
     0
176
     0
290
     0
176
     0
290
     0
176
     0
 90
       50
176
     0
 40
0.0
176
     0
 40
1.0
176
     0
 90
        0
176
     0
 62
    18
420
        0
176
     0
 90
       50
176
     0
 90
        3
176
     0
 62
     5
420
      255
176
     0
290
     0
176
     0
 90
       50
176
     0
 90
       50
176
     0
 90
       50
176
     0
290
     0
176
     0
 90
       50
176
     0
 62
   256
176
     0
 40
1.0
176
     0
 90
        2
176
     0
  1
strokes_ogs.tif
176
     0
290
     0
176
     0
 40
1.0
176
     0
 40
1.0
176
     0
  0
VISUALSTYLE
  5
1002E
102
{ACAD_REACTORS
330
1001F
102
}
330
1001F
100
AcDbVisualStyle
  2
Facepattern
 70
    15
177
     3
291
     1
 70
    58
 90
        2
176
     1
 90
        2
176
     1
 90
        0
176
     1
 90
        0
176
     1
 40
0.6
176
     1
 40
30.0
176
     1
 62
     7
420
 16777215
176
     1
 90
        1
176
     1
 90
        4
176
     1
 62
     7
176
     1
 62
   257
176
     1
 90
        1
176
     1
 90
        1
176
     1
 40
1.0
176
     1
 90
        8
176
     1
 62
     7
176
     1
 40
1.0
176
     1
 90
        1
176
     1
 90
        6
176
     1
 90
        2
176
     1
 62
     7
176
     1
 90
        5
176
     1
 90
        0
176
     1
 90
        0
176
     1
290
     0
176
     1
 90
        1
176
     1
 40
0.0
176
     1
 90
        0
176
     1
290
     0
176
     1
290
     1
176
     1
290
     1
176
     1
290
     0
176
     1
290
     0
176
     1
290
     0
176
     1
290
     0
176
     1
290
     0
176
     1
290
     0
176
     1
 90
       50
176
     1
 40
0.0
176
     1
 40
1.0
176
     1
 90
        0
176
     1
 62
    18
420
        0
176
     1
 90
       50
176
     1
 90
        3
176
     1
 62
     5
420
      255
176
     1
290
     0
176
     1
 90
       50
176
     1
 90
       50
176
     1
 90
       50
176
     1
290
     0
176
     1
 90
       50
176
     1
 62
   256
176
     0
 40
1.0
176
     0
 90
        2
176
     1
  1
strokes_ogs.tif
176
     1
290
     0
176
     1
 40
1.0
176
     1
 40
1.0
176
     1
  0
VISUALSTYLE
  5
10020
102
{ACAD_REACTORS
330
1001F
102
}
330
1001F
100
AcDbVisualStyle
  2
Flat
 70
     0
177
     3
291
     1
 70
    58
 90
        2
176
     1
 90
        1
176
     1
 90
        1
176
     1
 90
        2
176
     1
 40
0.6
176
     1
 40
30.0
176
     1
 62
     7
420
 16777215
176
     1
 90
        0
176
     1
 90
        0
176
     1
 62
     7
176
     1
 62
   257
176
     1
 90
        1
176
     1
 90
        1
176
     1
 40
1.0
176
     1
 90
        8
176
     1
 62
     7
176
     1
 40
1.0
176
     1
 90
        1
176
     1
 90
        6
176
     1
 90
        2
176
     1
 62
     7
176
     1
 90
        5
176
     1
 90
        0
176
     1
 90
        0
176
     1
290
     0
176
     1
 90
       13
176
     1
 40
0.0
176
     1
 90
        0
176
     1
290
     0
176
     1
290
     1
176
     1
290
     1
176
     1
290
     0
176
     1
290
     0
176
     1
290
     0
176
     1
290
     0
176
     1
290
     0
176
     1
290
     0
176
     1
 90
       50
176
     1
 40
0.0
176
     1
 40
1.0
176
     1
 90
        0
176
     1
 62
    18
420
        0
176
     1
 90
       50
176
     1
 90
        3
176
     1
 62
     5
420
      255
176
     1
290
     0
176
     1
 90
       50
176
     1
 90
       50
176
     1
 90
       50
176
     1
290
     0
176
     1
 90
       50
176
     1
 62
   256
176
     0
 40
1.0
176
     0
 90
        2
176
     1
  1
strokes_ogs.tif
176
     1
290
     0
176
     1
 40
1.0
176
     1
 40
1.0
176
     1
  0
VISUALSTYLE
  5
10021
102
{ACAD_REACTORS
330
1001F
102
}
330
1001F
100
AcDbVisualStyle
  2
FlatWithEdges
 70
     1
177
     3
291
     1
 70
    58
 90
        2
176
     1
 90
        1
176
     1
 90
        1
176
     1
 90
        2
176
     1
 40
0.6
176
     1
 40
30.0
176
     1
 62
     7
420
 16777215
176
     1
 90
        1
176
     1
 90
        0
176
     1
 62
     7
176
     1
 62
   257
176
     1
 90
        1
176
     1
 90
        1
176
     1
 40
1.0
176
     1
 90
        0
176
     1
 62
   257
176
     1
 40
1.0
176
     1
 90
        1
176
     1
 90
        6
176
     1
 90
        2
176
     1
 62
     7
176
     1
 90
        5
176
     1
 90
        0
176
     1
 90
        0
176
     1
290
     0
176
     1
 90
       13
176
     1
 40
0.0
176
     1
 90
        0
176
     1
290
     0
176
     1
290
     1
176
     1
290
     1
176
     1
290
     0
176
     1
290
     0
176
     1
290
     0
176
     1
290
     0
176
     1
290
     0
176
     1
290
     0
176
     1
 90
       50
176
     1
 40
0.0
176
     1
 40
1.0
176
     1
 90
        0
176
     1
 62
    18
420
        0
176
     1
 90
       50
176
     1
 90
        3
176
     1
 62
     5
420
      255
176
     1
290
     0
176
     1
 90
       50
176
     1
 90
       50
176
     1
 90
       50
176
     1
290
     0
176
     1
 90
       50
176
     1
 62
   256
176
     0
 40
1.0
176
     0
 90
        2
176
     1
  1
strokes_ogs.tif
176
     1
290
     0
176
     1
 40
1.0
176
     1
 40
1.0
176
     1
  0
VISUALSTYLE
  5
10022
102
{ACAD_REACTORS
330
1001F
102
}
330
1001F
100
AcDbVisualStyle
  2
Gouraud
 70
     2
177
     3
291
     1
 70
    58
 90
        2
176
     1
 90
        2
176
     1
 90
        1
176
     1
 90
        2
176
     1
 40
0.6
176
     1
 40
30.0
176
     1
 62
     7
420
 16777215
176
     1
 90
        0
176
     1
 90
        0
176
     1
 62
     7
176
     1
 62
   257
176
     1
 90
        1
176
     1
 90
        1
176
     1
 40
1.0
176
     1
 90
        0
176
     1
 62
     7
176
     1
 40
1.0
176
     1
 90
        1
176
     1
 90
        6
176
     1
 90
        2
176
     1
 62
     7
176
     1
 90
        5
176
     1
 90
        0
176
     1
 90
        0
176
     1
290
     0
176
     1
 90
       13
176
     1
 40
0.0
176
     1
 90
        0
176
     1
290
     0
176
     1
290
     1
176
     1
290
     1
176
     1
290
     0
176
     1
290
     0
176
     1
290
     0
176
     1
290
     0
176
     1
290
     0
176
     1
290
     0
176
     1
 90
       50
176
     1
 40
0.0
176
     1
 40
1.0
176
     1
 90
        0
176
     1
 62
    18
420
        0
176
     1
 90
       50
176
     1
 90
        3
176
     1
 62
     5
420
      255
176
     1
290
     0
176
     1
 90
       50
176
     1
 90
       50
176
     1
 90
       50
176
     1
290
     0
176
     1
 90
       50
176
     1
 62
   256
176
     0
 40
1.0
176
     0
 90
        2
176
     1
  1
strokes_ogs.tif
176
     1
290
     0
176
     1
 40
1.0
176
     1
 40
1.0
176
     1
  0
VISUALSTYLE
  5
10023
102
{ACAD_REACTORS
330
1001F
102
}
330
1001F
100
AcDbVisualStyle
  2
GouraudWithEdges
 70
     3
177
     3
291
     1
 70
    58
 90
        2
176
     1
 90
        2
176
     1
 90
        1
176
     1
 90
        2
176
     1
 40
0.6
176
     1
 40
30.0
176
     1
 62
     7
420
 16777215
176
     1
 90
        1
176
     1
 90
        0
176
     1
 62
     7
176
     1
 62
   257
176
     1
 90
        1
176
     1
 90
        1
176
     1
 40
1.0
176
     1
 90
        0
176
     1
 62
   257
176
     1
 40
1.0
176
     1
 90
        1
176
     1
 90
        6
176
     1
 90
        2
176
     1
 62
     7
176
     1
 90
        5
176
     1
 90
        0
176
     1
 90
        0
176
     1
290
     0
176
     1
 90
       13
176
     1
 40
0.0
176
     1
 90
        0
176
     1
290
     0
176
     1
290
     1
176
     1
290
     1
176
     1
290
     0
176
     1
290
     0
176
     1
290
     0
176
     1
290
     0
176
     1
290
     0
176
     1
290
     0
176
     1
 90
       50
176
     1
 40
0.0
176
     1
 40
1.0
176
     1
 90
        0
176
     1
 62
    18
420
        0
176
     1
 90
       50
176
     1
 90
        3
176
     1
 62
     5
420
      255
176
     1
290
     0
176
     1
 90
       50
176
     1
 90
       50
176
     1
 90
       50
176
     1
290
     0
176
     1
 90
       50
176
     1
 62
   256
176
     0
 40
1.0
176
     0
 90
        2
176
     1
  1
strokes_ogs.tif
176
     1
290
     0
176
     1
 40
1.0
176
     1
 40
1.0
176
     1
  0
VISUALSTYLE
  5
10026
102
{ACAD_REACTORS
330
1001F
102
}
330
1001F
100
AcDbVisualStyle
  2
Hidden
 70
     6
177
     3
291
     0
 70
    58
 90
        1
176
     1
 90
        2
176
     1
 90
        2
176
     1
 90
        0
176
     1
 40
0.6
176
     1
 40
30.0
176
     1
 62
     7
420
 16777215
176
     1
 90
        2
176
     1
 90
        2
176
     1
 62
     7
176
     1
 62
   257
176
     1
 90
        2
176
     1
 90
        1
176
     1
 40
40.0
176
     1
 90
        0
176
     1
 62
   257
176
     1
 40
1.0
176
     1
 90
        1
176
     1
 90
        6
176
     1
 90
        2
176
     1
 62
     7
176
     1
 90
        3
176
     1
 90
        0
176
     1
 90
        0
176
     1
290
     0
176
     1
 90
        1
176
     1
 40
0.0
176
     1
 90
        0
176
     1
290
     0
176
     1
290
     1
176
     1
290
     1
176
     1
290
     0
176
     1
290
     0
176
     1
290
     0
176
     1
290
     0
176
     1
290
     0
176
     1
290
     0
176
     1
 90
       50
176
     1
 40
0.0
176
     1
 40
1.0
176
     1
 90
        0
176
     1
 62
    18
420
        0
176
     1
 90
       50
176
     1
 90
        3
176
     1
 62
     5
420
      255
176
     1
290
     0
176
     1
 90
       50
176
     1
 90
       50
176
     1
 90
       50
176
     1
290
     0
176
     1
 90
       50
176
     1
 62
   256
176
     0
 40
1.0
176
     0
 90
        2
176
     1
  1
strokes_ogs.tif
176
     1
290
     0
176
     1
 40
1.0
176
     1
 40
1.0
176
     1
  0
VISUALSTYLE
  5
10030
102
{ACAD_REACTORS
330
1001F
102
}
330
1001F
100
AcDbVisualStyle
  2
JitterOff
 70
    20
177
     3
291
     1
 70
    58
 90
        2
176
     0
 90
        2
176
     0
 90
        0
176
     0
 90
        0
176
     0
 40
0.6
176
     0
 40
30.0
176
     0
 62
     7
420
 16777215
176
     0
 90
        1
176
     0
 90
        4
176
     0
 62
     7
176
     0
 62
   257
176
     0
 90
        1
176
     0
 90
        1
176
     0
 40
1.0
176
     0
 90
       10
176
     2
 62
     7
176
     0
 40
1.0
176
     0
 90
        1
176
     0
 90
        6
176
     0
 90
        2
176
     0
 62
     7
176
     0
 90
        5
176
     0
 90
        0
176
     0
 90
        0
176
     0
290
     0
176
     0
 90
        1
176
     0
 40
0.0
176
     0
 90
        0
176
     0
290
     0
176
     0
290
     1
176
     0
290
     1
176
     0
290
     0
176
     0
290
     0
176
     0
290
     0
176
     0
290
     0
176
     0
290
     0
176
     0
290
     0
176
     0
 90
       50
176
     0
 40
0.0
176
     0
 40
1.0
176
     0
 90
        0
176
     0
 62
    18
420
        0
176
     0
 90
       50
176
     0
 90
        3
176
     0
 62
     5
420
      255
176
     0
290
     0
176
     0
 90
       50
176
     0
 90
       50
176
     0
 90
       50
176
     0
290
     0
176
     0
 90
       50
176
     0
 62
   256
176
     0
 40
1.0
176
     0
 90
        2
176
     0
  1
strokes_ogs.tif
176
     0
290
     0
176
     0
 40
1.0
176
     0
 40
1.0
176
     0
  0
VISUALSTYLE
  5
1002D
102
{ACAD_REACTORS
330
1001F
102
}
330
1001F
100
AcDbVisualStyle
  2
Linepattern
 70
    14
177
     3
291
     1
 70
    58
 90
        2
176
     1
 90
        2
176
     1
 90
        0
176
     1
 90
        0
176
     1
 40
0.6
176
     1
 40
30.0
176
     1
 62
     7
420
 16777215
176
     1
 90
        1
176
     1
 90
        4
176
     1
 62
     7
176
     1
 62
   257
176
     1
 90
        7
176
     1
 90
        7
176
     1
 40
1.0
176
     1
 90
        8
176
     1
 62
     7
176
     1
 40
1.0
176
     1
 90
        1
176
     1
 90
        6
176
     1
 90
        2
176
     1
 62
     7
176
     1
 90
        5
176
     1
 90
        0
176
     1
 90
        0
176
     1
290
     0
176
     1
 90
        1
176
     1
 40
0.0
176
     1
 90
        0
176
     1
290
     0
176
     1
290
     1
176
     1
290
     1
176
     1
290
     0
176
     1
290
     0
176
     1
290
     0
176
     1
290
     0
176
     1
290
     0
176
     1
290
     0
176
     1
 90
       50
176
     1
 40
0.0
176
     1
 40
1.0
176
     1
 90
        0
176
     1
 62
    18
420
        0
176
     1
 90
       50
176
     1
 90
        3
176
     1
 62
     5
420
      255
176
     1
290
     0
176
     1
 90
       50
176
     1
 90
       50
176
     1
 90
       50
176
     1
290
     0
176
     1
 90
       50
176
     1
 62
   256
176
     0
 40
1.0
176
     0
 90
        2
176
     1
  1
strokes_ogs.tif
176
     1
290
     0
176
     1
 40
1.0
176
     1
 40
1.0
176
     1
  0
VISUALSTYLE
  5
10031
102
{ACAD_REACTORS
330
1001F
102
}
330
1001F
100
AcDbVisualStyle
  2
OverhangOff
 70
    21
177
     3
291
     1
 70
    58
 90
        2
176
     0
 90
        2
176
     0
 90
        0
176
     0
 90
        0
176
     0
 40
0.6
176
     0
 40
30.0
176
     0
 62
     7
420
 16777215
176
     0
 90
        1
176
     0
 90
        4
176
     0
 62
     7
176
     0
 62
   257
176
     0
 90
        1
176
     0
 90
        1
176
     0
 40
1.0
176
     0
 90
        9
176
     2
 62
     7
176
     0
 40
1.0
176
     0
 90
        1
176
     0
 90
        6
176
     0
 90
        2
176
     0
 62
     7
176
     0
 90
        5
176
     0
 90
        0
176
     0
 90
        0
176
     0
290
     0
176
     0
 90
        1
176
     0
 40
0.0
176
     0
 90
        0
176
     0
290
     0
176
     0
290
     1
176
     0
290
     1
176
     0
290
     0
176
     0
290
     0
176
     0
290
     0
176
     0
290
     0
176
     0
290
     0
176
     0
290
     0
176
     0
 90
       50
176
     0
 40
0.0
176
     0
 40
1.0
176
     0
 90
        0
176
     0
 62
    18
420
        0
176
     0
 90
       50
176
     0
 90
        3
176
     0
 62
     5
420
      255
176
     0
290
     0
176
     0
 90
       50
176
     0
 90
       50
176
     0
 90
       50
176
     0
290
     0
176
     0
 90
       50
176
     0
 62
   256
176
     0
 40
1.0
176
     0
 90
        2
176
     0
  1
strokes_ogs.tif
176
     0
290
     0
176
     0
 40
1.0
176
     0
 40
1.0
176
     0
  0
VISUALSTYLE
  5
10028
102
{ACAD_REACTORS
330
1001F
102
}
330
1001F
100
AcDbVisualStyle
  2
Realistic
 70
     8
177
     3
291
     0
 70
    58
 90
        2
176
     1
 90
        3
176
     1
 90
        0
176
     1
 90
        2
176
     1
 40
0.6
176
     1
 40
30.0
176
     1
 62
     7
420
 16777215
176
     1
 90
        0
176
     1
 90
        0
176
     1
 62
     7
176
     1
 62
   257
176
     1
 90
        1
176
     1
 90
        1
176
     1
 40
1.0
176
     1
 90
        8
176
     1
 62
   257
176
     1
 40
1.0
176
     1
 90
        1
176
     1
 90
        6
176
     1
 90
        2
176
     1
 62
     7
176
     1
 90
        3
176
     1
 90
        0
176
     1
 90
        0
176
     1
290
     0
176
     1
 90
       13
176
     1
 40
0.0
176
     1
 90
        0
176
     1
290
     0
176
     1
290
     1
176
     1
290
     1
176
     1
290
     0
176
     1
290
     0
176
     1
290
     0
176
     1
290
     0
176
     1
290
     0
176
     1
290
     0
176
     1
 90
       50
176
     1
 40
0.0
176
     1
 40
1.0
176
     1
 90
        0
176
     1
 62
    18
420
        0
176
     1
 90
       50
176
     1
 90
        3
176
     1
 62
     5
420
      255
176
     1
290
     0
176
     1
 90
       50
176
     1
 90
       50
176
     1
 90
       50
176
     1
290
     0
176
     1
 90
       50
176
     1
 62
   256
176
     0
 40
1.0
176
     0
 90
        2
176
     1
  1
strokes_ogs.tif
176
     1
290
     0
176
     1
 40
1.0
176
     1
 40
1.0
176
     1
  0
VISUALSTYLE
  5
10037
102
{ACAD_REACTORS
330
1001F
102
}
330
1001F
100
AcDbVisualStyle
  2
Shaded
 70
    27
177
     3
291
     0
 70
    58
 90
        2
176
     1
 90
        2
176
     1
 90
        1
176
     1
 90
        2
176
     1
 40
0.6
176
     1
 40
30.0
176
     1
 62
     7
420
 16777215
176
     1
 90
        0
176
     1
 90
        4
176
     1
 62
     7
176
     1
 62
   257
176
     1
 90
        1
176
     1
 90
        1
176
     1
 40
1.0
176
     1
 90
        8
176
     1
 62
   257
176
     1
 40
1.0
176
     1
 90
        1
176
     1
 90
        6
176
     1
 90
        2
176
     1
 62
     8
420
  7895160
176
     1
 90
        3
176
     1
 90
        0
176
     1
 90
        0
176
     1
290
     0
176
     1
 90
        5
176
     1
 40
0.0
176
     1
 90
        0
176
     1
290
     0
176
     1
290
     1
176
     1
290
     1
176
     1
290
     0
176
     1
290
     0
176
     1
290
     0
176
     1
290
     0
176
     1
290
     0
176
     1
290
     0
176
     1
 90
       50
176
     1
 40
0.0
176
     1
 40
1.0
176
     1
 90
        0
176
     1
 62
    18
420
        0
176
     1
 90
       50
176
     1
 90
        3
176
     1
 62
     5
420
      255
176
     1
290
     0
176
     1
 90
       50
176
     1
 90
       50
176
     1
 90
       50
176
     1
290
     0
176
     1
 90
       50
176
     1
 62
   256
176
     0
 40
1.0
176
     0
 90
        2
176
     1
  1
strokes_ogs.tif
176
     1
290
     0
176
     1
 40
1.0
176
     1
 40
1.0
176
     1
  0
VISUALSTYLE
  5
10036
102
{ACAD_REACTORS
330
1001F
102
}
330
1001F
100
AcDbVisualStyle
  2
Shaded with edges
 70
    26
177
     3
291
     0
 70
    58
 90
        2
176
     1
 90
        2
176
     1
 90
        1
176
     1
 90
        2
176
     1
 40
0.6
176
     1
 40
30.0
176
     1
 62
     7
420
 16777215
176
     1
 90
        1
176
     1
 90
       10
176
     1
 62
     7
176
     1
 62
   257
176
     1
 90
        2
176
     1
 90
        1
176
     1
 40
1.0
176
     1
 90
        8
176
     1
 62
   257
176
     1
 40
1.0
176
     1
 90
        1
176
     1
 90
        6
176
     1
 90
        2
176
     1
 62
     7
176
     1
 90
        3
176
     1
 90
        0
176
     1
 90
        0
176
     1
290
     0
176
     1
 90
        5
176
     1
 40
0.0
176
     1
 90
        0
176
     1
290
     0
176
     1
290
     1
176
     1
290
     1
176
     1
290
     0
176
     1
290
     0
176
     1
290
     0
176
     1
290
     0
176
     1
290
     0
176
     1
290
     0
176
     1
 90
       50
176
     1
 40
0.0
176
     1
 40
1.0
176
     1
 90
        0
176
     1
 62
    18
420
        0
176
     1
 90
       50
176
     1
 90
        3
176
     1
 62
     5
420
      255
176
     1
290
     0
176
     1
 90
       50
176
     1
 90
       50
176
     1
 90
       50
176
     1
290
     0
176
     1
 90
       50
176
     1
 62
   256
176
     0
 40
1.0
176
     0
 90
        2
176
     1
  1
strokes_ogs.tif
176
     1
290
     0
176
     1
 40
1.0
176
     1
 40
1.0
176
     1
  0
VISUALSTYLE
  5
10033
102
{ACAD_REACTORS
330
1001F
102
}
330
1001F
100
AcDbVisualStyle
  2
Shades of Gray
 70
    23
177
     3
291
     0
 70
    58
 90
        2
176
     1
 90
        2
176
     1
 90
        3
176
     1
 90
        0
176
     1
 40
0.6
176
     1
 40
30.0
176
     1
 62
     7
420
 16777215
176
     1
 90
        2
176
     1
 90
        2
176
     1
 62
     7
176
     1
 62
     7
176
     1
 90
        1
176
     1
 90
        1
176
     1
 40
40.0
176
     1
 90
        8
176
     1
 62
     7
176
     1
 40
1.0
176
     1
 90
        1
176
     1
 90
        6
176
     1
 90
        2
176
     1
 62
     7
176
     1
 90
        3
176
     1
 90
        0
176
     1
 90
        0
176
     1
290
     0
176
     1
 90
        1
176
     1
 40
0.0
176
     1
 90
        0
176
     1
290
     0
176
     1
290
     1
176
     1
290
     1
176
     1
290
     0
176
     1
290
     0
176
     1
290
     0
176
     1
290
     0
176
     1
290
     0
176
     1
290
     0
176
     1
 90
       50
176
     1
 40
0.0
176
     1
 40
1.0
176
     1
 90
        0
176
     1
 62
    18
420
        0
176
     1
 90
       50
176
     1
 90
        3
176
     1
 62
     5
420
      255
176
     1
290
     0
176
     1
 90
       50
176
     1
 90
       50
176
     1
 90
       50
176
     1
290
     0
176
     1
 90
       50
176
     1
 62
   256
176
     0
 40
1.0
176
     0
 90
        2
176
     1
  1
strokes_ogs.tif
176
     1
290
     0
176
     1
 40
1.0
176
     1
 40
1.0
176
     1
  0
VISUALSTYLE
  5
10034
102
{ACAD_REACTORS
330
1001F
102
}
330
1001F
100
AcDbVisualStyle
  2
Sketchy
 70
    24
177
     3
291
     0
 70
    58
 90
        1
176
     1
 90
        2
176
     1
 90
        2
176
     1
 90
        0
176
     1
 40
0.6
176
     1
 40
30.0
176
     1
 62
     7
420
 16777215
176
     1
 90
        2
176
     1
 90
        2
176
     1
 62
     7
176
     1
 62
     7
176
     1
 90
        1
176
     1
 90
        1
176
     1
 40
40.0
176
     1
 90
       11
176
     1
 62
     7
176
     1
 40
1.0
176
     1
 90
        1
176
     1
 90
        6
176
     1
 90
        2
176
     1
 62
     7
176
     1
 90
        6
176
     1
 90
        0
176
     1
 90
        0
176
     1
290
     0
176
     1
 90
        1
176
     1
 40
0.0
176
     1
 90
        0
176
     1
290
     0
176
     1
290
     1
176
     1
290
     1
176
     1
290
     0
176
     1
290
     0
176
     1
290
     0
176
     1
290
     0
176
     1
290
     0
176
     1
290
     0
176
     1
 90
       50
176
     1
 40
0.0
176
     1
 40
1.0
176
     1
 90
        0
176
     1
 62
    18
420
        0
176
     1
 90
       50
176
     1
 90
        3
176
     1
 62
     5
420
      255
176
     1
290
     0
176
     1
 90
       50
176
     1
 90
       50
176
     1
 90
       50
176
     1
290
     0
176
     1
 90
       50
176
     1
 62
   256
176
     0
 40
1.0
176
     0
 90
        2
176
     1
  1
strokes_ogs.tif
176
     1
290
     0
176
     1
 40
1.0
176
     1
 40
1.0
176
     1
  0
VISUALSTYLE
  5
1002C
102
{ACAD_REACTORS
330
1001F
102
}
330
1001F
100
AcDbVisualStyle
  2
Thicken
 70
    13
177
     3
291
     1
 70
    58
 90
        2
176
     1
 90
        2
176
     1
 90
        0
176
     1
 90
        0
176
     1
 40
0.6
176
     1
 40
30.0
176
     1
 62
     7
420
 16777215
176
     1
 90
        1
176
     1
 90
        4
176
     1
 62
     7
176
     1
 62
   257
176
     1
 90
        1
176
     1
 90
        1
176
     1
 40
1.0
176
     1
 90
       12
176
     1
 62
     7
176
     1
 40
1.0
176
     1
 90
        1
176
     1
 90
        6
176
     1
 90
        2
176
     1
 62
     7
176
     1
 90
        5
176
     1
 90
        0
176
     1
 90
        0
176
     1
290
     0
176
     1
 90
        1
176
     1
 40
0.0
176
     1
 90
        0
176
     1
290
     0
176
     1
290
     1
176
     1
290
     1
176
     1
290
     0
176
     1
290
     0
176
     1
290
     0
176
     1
290
     0
176
     1
290
     0
176
     1
290
     0
176
     1
 90
       50
176
     1
 40
0.0
176
     1
 40
1.0
176
     1
 90
        0
176
     1
 62
    18
420
        0
176
     1
 90
       50
176
     1
 90
        3
176
     1
 62
     5
420
      255
176
     1
290
     0
176
     1
 90
       50
176
     1
 90
       50
176
     1
 90
       50
176
     1
290
     0
176
     1
 90
       50
176
     1
 62
   256
176
     0
 40
1.0
176
     0
 90
        2
176
     1
  1
strokes_ogs.tif
176
     1
290
     0
176
     1
 40
1.0
176
     1
 40
1.0
176
     1
  0
VISUALSTYLE
  5
10025
102
{ACAD_REACTORS
330
1001F
102
}
330
1001F
100
AcDbVisualStyle
  2
Wireframe
 70
     5
177
     3
291
     0
 70
    58
 90
        0
176
     1
 90
        2
176
     1
 90
        0
176
     1
 90
        0
176
     1
 40
0.6
176
     1
 40
30.0
176
     1
 62
     7
420
 16777215
176
     1
 90
        1
176
     1
 90
        4
176
     1
 62
     7
176
     1
 62
   257
176
     1
 90
        1
176
     1
 90
        1
176
     1
 40
1.0
176
     1
 90
        0
176
     1
 62
   257
176
     1
 40
1.0
176
     1
 90
        1
176
     1
 90
        6
176
     1
 90
        2
176
     1
 62
     7
176
     1
 90
        3
176
     1
 90
        0
176
     1
 90
        0
176
     1
290
     0
176
     1
 90
        1
176
     1
 40
0.0
176
     1
 90
        0
176
     1
290
     0
176
     1
290
     1
176
     1
290
     1
176
     1
290
     0
176
     1
290
     0
176
     1
290
     0
176
     1
290
     0
176
     1
290
     0
176
     1
290
     0
176
     1
 90
       50
176
     1
 40
0.0
176
     1
 40
1.0
176
     1
 90
        0
176
     1
 62
    18
420
        0
176
     1
 90
       50
176
     1
 90
        3
176
     1
 62
     5
420
      255
176
     1
290
     0
176
     1
 90
       50
176
     1
 90
       50
176
     1
 90
       50
176
     1
290
     0
176
     1
 90
       50
176
     1
 62
   256
176
     0
 40
1.0
176
     0
 90
        2
176
     1
  1
strokes_ogs.tif
176
     1
290
     0
176
     1
 40
1.0
176
     1
 40
1.0
176
     1
  0
VISUALSTYLE
  5
10035
102
{ACAD_REACTORS
330
1001F
102
}
330
1001F
100
AcDbVisualStyle
  2
X-Ray
 70
    25
177
     3
291
     0
 70
    58
 90
        2
176
     1
 90
        2
176
     1
 90
        1
176
     1
 90
        1
176
     1
 40
0.5
176
     1
 40
30.0
176
     1
 62
     7
420
 16777215
176
     1
 90
        1
176
     1
 90
        0
176
     1
 62
     7
176
     1
 62
   257
176
     1
 90
        1
176
     1
 90
        1
176
     1
 40
1.0
176
     1
 90
        8
176
     1
 62
     7
176
     1
 40
1.0
176
     1
 90
        1
176
     1
 90
        6
176
     1
 90
        2
176
     1
 62
     7
176
     1
 90
        3
176
     1
 90
        0
176
     1
 90
        0
176
     1
290
     0
176
     1
 90
       13
176
     1
 40
0.0
176
     1
 90
        0
176
     1
290
     0
176
     1
290
     1
176
     1
290
     1
176
     1
290
     0
176
     1
290
     0
176
     1
290
     0
176
     1
290
     0
176
     1
290
     0
176
     1
290
     0
176
     1
 90
       50
176
     1
 40
0.0
176
     1
 40
1.0
176
     1
 90
        0
176
     1
 62
    18
420
        0
176
     1
 90
       50
176
     1
 90
        3
176
     1
 62
     5
420
      255
176
     1
290
     0
176
     1
 90
       50
176
     1
 90
       50
176
     1
 90
       50
176
     1
290
     0
176
     1
 90
       50
176
     1
 62
   256
176
     0
 40
1.0
176
     0
 90
        2
176
     1
  1
strokes_ogs.tif
176
     1
290
     0
176
     1
 40
1.0
176
     1
 40
1.0
176
     1
  0
DICTIONARYVAR
  5
1003D
102
{ACAD_REACTORS
330
1003C
102
}
330
1003C
100
DictionaryVariables
280
     0
  1
1:1
  0
DICTIONARYVAR
  5
10042
102
{ACAD_REACTORS
330
1003C
102
}
330
1003C
100
DictionaryVariables
280
     0
  1
Standard
  0
DICTIONARYVAR
  5
10041
102
{ACAD_REACTORS
330
1003C
102
}
330
1003C
100
DictionaryVariables
280
     0
  1
Standard
  0
DICTIONARYVAR
  5
10043
102
{ACAD_REACTORS
330
1003C
102
}
330
1003C
100
DictionaryVariables
280
     0
  1
0
  0
DICTIONARYVAR
  5
1007F
330
1007E
100
DictionaryVariables
280
     0
  1
1.3.4 @ 2025-07-22T23:35:21.379038+00:00
  0
DICTIONARY
  5
100BA
330
10039
100
AcDbDictionary
280
     1
281
     1
  3
ACAD_ROUNDTRIP_2008_TABLESTYLE_CELLSTYLEMAP
360
100BB
  0
CELLSTYLEMAP
  5
100BB
102
{ACAD_REACTORS
330
100BA
102
}
330
100BA
100
AcDbCellStyleMap
 90
        3
300
CELLSTYLE
  1
TABLEFORMAT_BEGIN
 90
        5
170
     1
 91
        0
 92
    32768
 62
   257
 93
        1
300
CONTENTFORMAT
  1
CONTENTFORMAT_BEGIN
 90
        0
 91
        0
 92
        4
 93
        0
300

 40
0.0
140
1.0
 94
        5
 62
     0
340
11
144
0.25
309
CONTENTFORMAT_END
171
     1
301
MARGIN
  1
CELLMARGIN_BEGIN
 40
0.06
 40
0.06
 40
0.06
 40
0.06
 40
0.06
 40
0.06
309
CELLMARGIN_END
 94
        6
 95
        1
302
GRIDFORMAT
  1
GRIDFORMAT_BEGIN
 90
        0
 91
        1
 62
     0
 92
       -2
340
14
 93
        0
 40
0.045
309
GRIDFORMAT_END
 95
        2
302
GRIDFORMAT
  1
GRIDFORMAT_BEGIN
 90
        0
 91
        1
 62
     0
 92
       -2
340
14
 93
        0
 40
0.045
309
GRIDFORMAT_END
 95
        4
302
GRIDFORMAT
  1
GRIDFORMAT_BEGIN
 90
        0
 91
        1
 62
     0
 92
       -2
340
14
 93
        0
 40
0.045
309
GRIDFORMAT_END
 95
        8
302
GRIDFORMAT
  1
GRIDFORMAT_BEGIN
 90
        0
 91
        1
 62
     0
 92
       -2
340
14
 93
        0
 40
0.045
309
GRIDFORMAT_END
 95
       16
302
GRIDFORMAT
  1
GRIDFORMAT_BEGIN
 90
        0
 91
        1
 62
     0
 92
       -2
340
14
 93
        0
 40
0.045
309
GRIDFORMAT_END
 95
       32
302
GRIDFORMAT
  1
GRIDFORMAT_BEGIN
 90
        0
 91
        1
 62
     0
 92
       -2
340
14
 93
        0
 40
0.045
309
GRIDFORMAT_END
309
TABLEFORMAT_END
  1
CELLSTYLE_BEGIN
 90
        1
 91
        1
300
_TITLE
309
CELLSTYLE_END
300
CELLSTYLE
  1
TABLEFORMAT_BEGIN
 90
        5
170
     1
 91
        0
 92
        0
 62
   257
 93
        1
300
CONTENTFORMAT
  1
CONTENTFORMAT_BEGIN
 90
        0
 91
        0
 92
        4
 93
        0
300

 40
0.0
140
1.0
 94
        5
 62
     0
340
11
144
0.18
309
CONTENTFORMAT_END
171
     1
301
MARGIN
  1
CELLMARGIN_BEGIN
 40
0.06
 40
0.06
 40
0.06
 40
0.06
 40
0.06
 40
0.06
309
CELLMARGIN_END
 94
        6
 95
        1
302
GRIDFORMAT
  1
GRIDFORMAT_BEGIN
 90
        0
 91
        1
 62
     0
 92
       -2
340
14
 93
        0
 40
0.045
309
GRIDFORMAT_END
 95
        2
302
GRIDFORMAT
  1
GRIDFORMAT_BEGIN
 90
        0
 91
        1
 62
     0
 92
       -2
340
14
 93
        0
 40
0.045
309
GRIDFORMAT_END
 95
        4
302
GRIDFORMAT
  1
GRIDFORMAT_BEGIN
 90
        0
 91
        1
 62
     0
 92
       -2
340
14
 93
        0
 40
0.045
309
GRIDFORMAT_END
 95
        8
302
GRIDFORMAT
  1
GRIDFORMAT_BEGIN
 90
        0
 91
        1
 62
     0
 92
       -2
340
14
 93
        0
 40
0.045
309
GRIDFORMAT_END
 95
       16
302
GRIDFORMAT
  1
GRIDFORMAT_BEGIN
 90
        0
 91
        1
 62
     0
 92
       -2
340
14
 93
        0
 40
0.045
309
GRIDFORMAT_END
 95
       32
302
GRIDFORMAT
  1
GRIDFORMAT_BEGIN
 90
        0
 91
        1
 62
     0
 92
       -2
340
14
 93
        0
 40
0.045
309
GRIDFORMAT_END
309
TABLEFORMAT_END
  1
CELLSTYLE_BEGIN
 90
        2
 91
        1
300
_HEADER
309
CELLSTYLE_END
300
CELLSTYLE
  1
TABLEFORMAT_BEGIN
 90
        5
170
     1
 91
        0
 92
        0
 62
   257
 93
        1
300
CONTENTFORMAT
  1
CONTENTFORMAT_BEGIN
 90
        0
 91
        0
 92
        4
 93
        0
300

 40
0.0
140
1.0
 94
        2
 62
     0
340
11
144
0.18
309
CONTENTFORMAT_END
171
     1
301
MARGIN
  1
CELLMARGIN_BEGIN
 40
0.06
 40
0.06
 40
0.06
 40
0.06
 40
0.06
 40
0.06
309
CELLMARGIN_END
 94
        6
 95
        1
302
GRIDFORMAT
  1
GRIDFORMAT_BEGIN
 90
        0
 91
        1
 62
     0
 92
       -2
340
14
 93
        0
 40
0.045
309
GRIDFORMAT_END
 95
        2
302
GRIDFORMAT
  1
GRIDFORMAT_BEGIN
 90
        0
 91
        1
 62
     0
 92
       -2
340
14
 93
        0
 40
0.045
309
GRIDFORMAT_END
 95
        4
302
GRIDFORMAT
  1
GRIDFORMAT_BEGIN
 90
        0
 91
        1
 62
     0
 92
       -2
340
14
 93
        0
 40
0.045
309
GRIDFORMAT_END
 95
        8
302
GRIDFORMAT
  1
GRIDFORMAT_BEGIN
 90
        0
 91
        1
 62
     0
 92
       -2
340
14
 93
        0
 40
0.045
309
GRIDFORMAT_END
 95
       16
302
GRIDFORMAT
  1
GRIDFORMAT_BEGIN
 90
        0
 91
        1
 62
     0
 92
       -2
340
14
 93
        0
 40
0.045
309
GRIDFORMAT_END
 95
       32
302
GRIDFORMAT
  1
GRIDFORMAT_BEGIN
 90
        0
 91
        1
 62
     0
 92
       -2
340
14
 93
        0
 40
0.045
309
GRIDFORMAT_END
309
TABLEFORMAT_END
  1
CELLSTYLE_BEGIN
 90
        3
 91
        2
300
_DATA
309
CELLSTYLE_END
  0
ENDSEC
  0
EOF
